<?xml version="1.0" encoding="utf-8" standalone="no"?>
<!DOCTYPE svg PUBLIC "-//W3C//DTD SVG 1.1//EN"
  "http://www.w3.org/Graphics/SVG/1.1/DTD/svg11.dtd">
<svg xmlns:xlink="http://www.w3.org/1999/xlink" width="576pt" height="432pt" viewBox="0 0 576 432" xmlns="http://www.w3.org/2000/svg" version="1.1">
 <metadata>
  <rdf:RDF xmlns:dc="http://purl.org/dc/elements/1.1/" xmlns:cc="http://creativecommons.org/ns#" xmlns:rdf="http://www.w3.org/1999/02/22-rdf-syntax-ns#">
   <cc:Work>
    <dc:type rdf:resource="http://purl.org/dc/dcmitype/StillImage"/>
    <dc:date>2025-06-05T18:33:41.458762</dc:date>
    <dc:format>image/svg+xml</dc:format>
    <dc:creator>
     <cc:Agent>
      <dc:title>Matplotlib v3.10.1, https://matplotlib.org/</dc:title>
     </cc:Agent>
    </dc:creator>
   </cc:Work>
  </rdf:RDF>
 </metadata>
 <defs>
  <style type="text/css">*{stroke-linejoin: round; stroke-linecap: butt}</style>
 </defs>
 <g id="figure_1">
  <g id="patch_1">
   <path d="M 0 432 
L 576 432 
L 576 0 
L 0 0 
z
" style="fill: #ffffff"/>
  </g>
  <g id="axes_1">
   <g id="LineCollection_1">
    <path d="M 347.148367 264.72672 
L 224.379949 271.1898 
" clip-path="url(#pc572181903)" style="fill: none; stroke: #808080"/>
    <path d="M 347.148367 264.72672 
L 248.470881 200.030749 
" clip-path="url(#pc572181903)" style="fill: none; stroke: #808080"/>
    <path d="M 347.148367 264.72672 
L 371.835821 141.045005 
" clip-path="url(#pc572181903)" style="fill: none; stroke: #808080"/>
    <path d="M 347.148367 264.72672 
L 299.661018 134.616985 
" clip-path="url(#pc572181903)" style="fill: none; stroke: #808080"/>
    <path d="M 347.148367 264.72672 
L 104.186322 221.789618 
" clip-path="url(#pc572181903)" style="fill: none; stroke: #808080"/>
    <path d="M 347.148367 264.72672 
L 132.308505 250.552739 
" clip-path="url(#pc572181903)" style="fill: none; stroke: #808080"/>
    <path d="M 347.148367 264.72672 
L 327.911599 59.950394 
" clip-path="url(#pc572181903)" style="fill: none; stroke: #808080"/>
    <path d="M 347.148367 264.72672 
L 270.524441 79.274547 
" clip-path="url(#pc572181903)" style="fill: none; stroke: #808080"/>
    <path d="M 347.148367 264.72672 
L 390.162487 93.690354 
" clip-path="url(#pc572181903)" style="fill: none; stroke: #808080"/>
    <path d="M 347.148367 264.72672 
L 227.789853 126.908045 
" clip-path="url(#pc572181903)" style="fill: none; stroke: #808080"/>
    <path d="M 347.148367 264.72672 
L 169.342999 350.011751 
" clip-path="url(#pc572181903)" style="fill: none; stroke: #808080"/>
    <path d="M 347.148367 264.72672 
L 98.880545 320.085486 
" clip-path="url(#pc572181903)" style="fill: none; stroke: #808080"/>
    <path d="M 347.148367 264.72672 
L 486.051936 311.424535 
" clip-path="url(#pc572181903)" style="fill: none; stroke: #808080"/>
    <path d="M 347.148367 264.72672 
L 526.016529 262.37599 
" clip-path="url(#pc572181903)" style="fill: none; stroke: #808080"/>
    <path d="M 347.148367 264.72672 
L 373.867976 375.290662 
" clip-path="url(#pc572181903)" style="fill: none; stroke: #808080"/>
    <path d="M 347.148367 264.72672 
L 418.707584 368.964621 
" clip-path="url(#pc572181903)" style="fill: none; stroke: #808080"/>
    <path d="M 224.379949 271.1898 
L 306.91061 212.279932 
" clip-path="url(#pc572181903)" style="fill: none; stroke: #808080"/>
    <path d="M 224.379949 271.1898 
L 408.72965 212.803843 
" clip-path="url(#pc572181903)" style="fill: none; stroke: #808080"/>
    <path d="M 224.379949 271.1898 
L 329.180599 163.145522 
" clip-path="url(#pc572181903)" style="fill: none; stroke: #808080"/>
    <path d="M 224.379949 271.1898 
L 111.557842 177.337789 
" clip-path="url(#pc572181903)" style="fill: none; stroke: #808080"/>
    <path d="M 224.379949 271.1898 
L 165.489714 202.54037 
" clip-path="url(#pc572181903)" style="fill: none; stroke: #808080"/>
    <path d="M 224.379949 271.1898 
L 289.291603 43.681644 
" clip-path="url(#pc572181903)" style="fill: none; stroke: #808080"/>
    <path d="M 224.379949 271.1898 
L 215.517473 74.059156 
" clip-path="url(#pc572181903)" style="fill: none; stroke: #808080"/>
    <path d="M 224.379949 271.1898 
L 143.162673 94.946473 
" clip-path="url(#pc572181903)" style="fill: none; stroke: #808080"/>
    <path d="M 224.379949 271.1898 
L 170.21203 123.707313 
" clip-path="url(#pc572181903)" style="fill: none; stroke: #808080"/>
    <path d="M 224.379949 271.1898 
L 49.983471 292.229554 
" clip-path="url(#pc572181903)" style="fill: none; stroke: #808080"/>
    <path d="M 224.379949 271.1898 
L 111.218261 349.990239 
" clip-path="url(#pc572181903)" style="fill: none; stroke: #808080"/>
    <path d="M 224.379949 271.1898 
L 428.628692 308.320301 
" clip-path="url(#pc572181903)" style="fill: none; stroke: #808080"/>
    <path d="M 224.379949 271.1898 
L 484.481179 278.08385 
" clip-path="url(#pc572181903)" style="fill: none; stroke: #808080"/>
    <path d="M 224.379949 271.1898 
L 268.500591 386.275368 
" clip-path="url(#pc572181903)" style="fill: none; stroke: #808080"/>
    <path d="M 224.379949 271.1898 
L 317.333293 394.512397 
" clip-path="url(#pc572181903)" style="fill: none; stroke: #808080"/>
    <path d="M 306.91061 212.279932 
L 279.464798 289.028067 
" clip-path="url(#pc572181903)" style="fill: none; stroke: #808080"/>
    <path d="M 306.91061 212.279932 
L 371.835821 141.045005 
" clip-path="url(#pc572181903)" style="fill: none; stroke: #808080"/>
    <path d="M 306.91061 212.279932 
L 407.461067 168.40379 
" clip-path="url(#pc572181903)" style="fill: none; stroke: #808080"/>
    <path d="M 306.91061 212.279932 
L 104.186322 221.789618 
" clip-path="url(#pc572181903)" style="fill: none; stroke: #808080"/>
    <path d="M 306.91061 212.279932 
L 68.135455 197.6923 
" clip-path="url(#pc572181903)" style="fill: none; stroke: #808080"/>
    <path d="M 306.91061 212.279932 
L 327.911599 59.950394 
" clip-path="url(#pc572181903)" style="fill: none; stroke: #808080"/>
    <path d="M 306.91061 212.279932 
L 239.436742 37.487603 
" clip-path="url(#pc572181903)" style="fill: none; stroke: #808080"/>
    <path d="M 306.91061 212.279932 
L 390.162487 93.690354 
" clip-path="url(#pc572181903)" style="fill: none; stroke: #808080"/>
    <path d="M 306.91061 212.279932 
L 93.775648 131.516415 
" clip-path="url(#pc572181903)" style="fill: none; stroke: #808080"/>
    <path d="M 306.91061 212.279932 
L 169.342999 350.011751 
" clip-path="url(#pc572181903)" style="fill: none; stroke: #808080"/>
    <path d="M 306.91061 212.279932 
L 204.934371 365.779219 
" clip-path="url(#pc572181903)" style="fill: none; stroke: #808080"/>
    <path d="M 306.91061 212.279932 
L 486.051936 311.424535 
" clip-path="url(#pc572181903)" style="fill: none; stroke: #808080"/>
    <path d="M 306.91061 212.279932 
L 499.910059 161.504868 
" clip-path="url(#pc572181903)" style="fill: none; stroke: #808080"/>
    <path d="M 306.91061 212.279932 
L 373.867976 375.290662 
" clip-path="url(#pc572181903)" style="fill: none; stroke: #808080"/>
    <path d="M 306.91061 212.279932 
L 510.949761 215.450119 
" clip-path="url(#pc572181903)" style="fill: none; stroke: #808080"/>
    <path d="M 248.470881 200.030749 
L 279.464798 289.028067 
" clip-path="url(#pc572181903)" style="fill: none; stroke: #808080"/>
    <path d="M 248.470881 200.030749 
L 408.72965 212.803843 
" clip-path="url(#pc572181903)" style="fill: none; stroke: #808080"/>
    <path d="M 248.470881 200.030749 
L 407.461067 168.40379 
" clip-path="url(#pc572181903)" style="fill: none; stroke: #808080"/>
    <path d="M 248.470881 200.030749 
L 111.557842 177.337789 
" clip-path="url(#pc572181903)" style="fill: none; stroke: #808080"/>
    <path d="M 248.470881 200.030749 
L 68.135455 197.6923 
" clip-path="url(#pc572181903)" style="fill: none; stroke: #808080"/>
    <path d="M 248.470881 200.030749 
L 289.291603 43.681644 
" clip-path="url(#pc572181903)" style="fill: none; stroke: #808080"/>
    <path d="M 248.470881 200.030749 
L 239.436742 37.487603 
" clip-path="url(#pc572181903)" style="fill: none; stroke: #808080"/>
    <path d="M 248.470881 200.030749 
L 143.162673 94.946473 
" clip-path="url(#pc572181903)" style="fill: none; stroke: #808080"/>
    <path d="M 248.470881 200.030749 
L 93.775648 131.516415 
" clip-path="url(#pc572181903)" style="fill: none; stroke: #808080"/>
    <path d="M 248.470881 200.030749 
L 49.983471 292.229554 
" clip-path="url(#pc572181903)" style="fill: none; stroke: #808080"/>
    <path d="M 248.470881 200.030749 
L 204.934371 365.779219 
" clip-path="url(#pc572181903)" style="fill: none; stroke: #808080"/>
    <path d="M 248.470881 200.030749 
L 428.628692 308.320301 
" clip-path="url(#pc572181903)" style="fill: none; stroke: #808080"/>
    <path d="M 248.470881 200.030749 
L 499.910059 161.504868 
" clip-path="url(#pc572181903)" style="fill: none; stroke: #808080"/>
    <path d="M 248.470881 200.030749 
L 268.500591 386.275368 
" clip-path="url(#pc572181903)" style="fill: none; stroke: #808080"/>
    <path d="M 248.470881 200.030749 
L 510.949761 215.450119 
" clip-path="url(#pc572181903)" style="fill: none; stroke: #808080"/>
    <path d="M 279.464798 289.028067 
L 329.180599 163.145522 
" clip-path="url(#pc572181903)" style="fill: none; stroke: #808080"/>
    <path d="M 279.464798 289.028067 
L 299.661018 134.616985 
" clip-path="url(#pc572181903)" style="fill: none; stroke: #808080"/>
    <path d="M 279.464798 289.028067 
L 165.489714 202.54037 
" clip-path="url(#pc572181903)" style="fill: none; stroke: #808080"/>
    <path d="M 279.464798 289.028067 
L 132.308505 250.552739 
" clip-path="url(#pc572181903)" style="fill: none; stroke: #808080"/>
    <path d="M 279.464798 289.028067 
L 215.517473 74.059156 
" clip-path="url(#pc572181903)" style="fill: none; stroke: #808080"/>
    <path d="M 279.464798 289.028067 
L 270.524441 79.274547 
" clip-path="url(#pc572181903)" style="fill: none; stroke: #808080"/>
    <path d="M 279.464798 289.028067 
L 170.21203 123.707313 
" clip-path="url(#pc572181903)" style="fill: none; stroke: #808080"/>
    <path d="M 279.464798 289.028067 
L 227.789853 126.908045 
" clip-path="url(#pc572181903)" style="fill: none; stroke: #808080"/>
    <path d="M 279.464798 289.028067 
L 111.218261 349.990239 
" clip-path="url(#pc572181903)" style="fill: none; stroke: #808080"/>
    <path d="M 279.464798 289.028067 
L 98.880545 320.085486 
" clip-path="url(#pc572181903)" style="fill: none; stroke: #808080"/>
    <path d="M 279.464798 289.028067 
L 484.481179 278.08385 
" clip-path="url(#pc572181903)" style="fill: none; stroke: #808080"/>
    <path d="M 279.464798 289.028067 
L 526.016529 262.37599 
" clip-path="url(#pc572181903)" style="fill: none; stroke: #808080"/>
    <path d="M 279.464798 289.028067 
L 317.333293 394.512397 
" clip-path="url(#pc572181903)" style="fill: none; stroke: #808080"/>
    <path d="M 279.464798 289.028067 
L 418.707584 368.964621 
" clip-path="url(#pc572181903)" style="fill: none; stroke: #808080"/>
    <path d="M 408.72965 212.803843 
L 268.252621 246.049865 
" clip-path="url(#pc572181903)" style="fill: none; stroke: #808080"/>
    <path d="M 408.72965 212.803843 
L 104.186322 221.789618 
" clip-path="url(#pc572181903)" style="fill: none; stroke: #808080"/>
    <path d="M 408.72965 212.803843 
L 132.308505 250.552739 
" clip-path="url(#pc572181903)" style="fill: none; stroke: #808080"/>
    <path d="M 408.72965 212.803843 
L 182.79069 257.914346 
" clip-path="url(#pc572181903)" style="fill: none; stroke: #808080"/>
    <path d="M 408.72965 212.803843 
L 390.162487 93.690354 
" clip-path="url(#pc572181903)" style="fill: none; stroke: #808080"/>
    <path d="M 408.72965 212.803843 
L 227.789853 126.908045 
" clip-path="url(#pc572181903)" style="fill: none; stroke: #808080"/>
    <path d="M 408.72965 212.803843 
L 423.597826 59.246445 
" clip-path="url(#pc572181903)" style="fill: none; stroke: #808080"/>
    <path d="M 408.72965 212.803843 
L 486.051936 311.424535 
" clip-path="url(#pc572181903)" style="fill: none; stroke: #808080"/>
    <path d="M 408.72965 212.803843 
L 526.016529 262.37599 
" clip-path="url(#pc572181903)" style="fill: none; stroke: #808080"/>
    <path d="M 408.72965 212.803843 
L 504.873147 122.640859 
" clip-path="url(#pc572181903)" style="fill: none; stroke: #808080"/>
    <path d="M 371.835821 141.045005 
L 268.252621 246.049865 
" clip-path="url(#pc572181903)" style="fill: none; stroke: #808080"/>
    <path d="M 371.835821 141.045005 
L 111.557842 177.337789 
" clip-path="url(#pc572181903)" style="fill: none; stroke: #808080"/>
    <path d="M 371.835821 141.045005 
L 165.489714 202.54037 
" clip-path="url(#pc572181903)" style="fill: none; stroke: #808080"/>
    <path d="M 371.835821 141.045005 
L 182.79069 257.914346 
" clip-path="url(#pc572181903)" style="fill: none; stroke: #808080"/>
    <path d="M 371.835821 141.045005 
L 143.162673 94.946473 
" clip-path="url(#pc572181903)" style="fill: none; stroke: #808080"/>
    <path d="M 371.835821 141.045005 
L 170.21203 123.707313 
" clip-path="url(#pc572181903)" style="fill: none; stroke: #808080"/>
    <path d="M 371.835821 141.045005 
L 423.597826 59.246445 
" clip-path="url(#pc572181903)" style="fill: none; stroke: #808080"/>
    <path d="M 371.835821 141.045005 
L 428.628692 308.320301 
" clip-path="url(#pc572181903)" style="fill: none; stroke: #808080"/>
    <path d="M 371.835821 141.045005 
L 484.481179 278.08385 
" clip-path="url(#pc572181903)" style="fill: none; stroke: #808080"/>
    <path d="M 371.835821 141.045005 
L 504.873147 122.640859 
" clip-path="url(#pc572181903)" style="fill: none; stroke: #808080"/>
    <path d="M 329.180599 163.145522 
L 268.252621 246.049865 
" clip-path="url(#pc572181903)" style="fill: none; stroke: #808080"/>
    <path d="M 329.180599 163.145522 
L 104.186322 221.789618 
" clip-path="url(#pc572181903)" style="fill: none; stroke: #808080"/>
    <path d="M 329.180599 163.145522 
L 68.135455 197.6923 
" clip-path="url(#pc572181903)" style="fill: none; stroke: #808080"/>
    <path d="M 329.180599 163.145522 
L 182.79069 257.914346 
" clip-path="url(#pc572181903)" style="fill: none; stroke: #808080"/>
    <path d="M 329.180599 163.145522 
L 390.162487 93.690354 
" clip-path="url(#pc572181903)" style="fill: none; stroke: #808080"/>
    <path d="M 329.180599 163.145522 
L 93.775648 131.516415 
" clip-path="url(#pc572181903)" style="fill: none; stroke: #808080"/>
    <path d="M 329.180599 163.145522 
L 423.597826 59.246445 
" clip-path="url(#pc572181903)" style="fill: none; stroke: #808080"/>
    <path d="M 329.180599 163.145522 
L 486.051936 311.424535 
" clip-path="url(#pc572181903)" style="fill: none; stroke: #808080"/>
    <path d="M 329.180599 163.145522 
L 499.910059 161.504868 
" clip-path="url(#pc572181903)" style="fill: none; stroke: #808080"/>
    <path d="M 329.180599 163.145522 
L 504.873147 122.640859 
" clip-path="url(#pc572181903)" style="fill: none; stroke: #808080"/>
    <path d="M 299.661018 134.616985 
L 268.252621 246.049865 
" clip-path="url(#pc572181903)" style="fill: none; stroke: #808080"/>
    <path d="M 299.661018 134.616985 
L 111.557842 177.337789 
" clip-path="url(#pc572181903)" style="fill: none; stroke: #808080"/>
    <path d="M 299.661018 134.616985 
L 68.135455 197.6923 
" clip-path="url(#pc572181903)" style="fill: none; stroke: #808080"/>
    <path d="M 299.661018 134.616985 
L 182.79069 257.914346 
" clip-path="url(#pc572181903)" style="fill: none; stroke: #808080"/>
    <path d="M 299.661018 134.616985 
L 143.162673 94.946473 
" clip-path="url(#pc572181903)" style="fill: none; stroke: #808080"/>
    <path d="M 299.661018 134.616985 
L 93.775648 131.516415 
" clip-path="url(#pc572181903)" style="fill: none; stroke: #808080"/>
    <path d="M 299.661018 134.616985 
L 423.597826 59.246445 
" clip-path="url(#pc572181903)" style="fill: none; stroke: #808080"/>
    <path d="M 299.661018 134.616985 
L 428.628692 308.320301 
" clip-path="url(#pc572181903)" style="fill: none; stroke: #808080"/>
    <path d="M 299.661018 134.616985 
L 499.910059 161.504868 
" clip-path="url(#pc572181903)" style="fill: none; stroke: #808080"/>
    <path d="M 299.661018 134.616985 
L 504.873147 122.640859 
" clip-path="url(#pc572181903)" style="fill: none; stroke: #808080"/>
    <path d="M 407.461067 168.40379 
L 268.252621 246.049865 
" clip-path="url(#pc572181903)" style="fill: none; stroke: #808080"/>
    <path d="M 407.461067 168.40379 
L 165.489714 202.54037 
" clip-path="url(#pc572181903)" style="fill: none; stroke: #808080"/>
    <path d="M 407.461067 168.40379 
L 132.308505 250.552739 
" clip-path="url(#pc572181903)" style="fill: none; stroke: #808080"/>
    <path d="M 407.461067 168.40379 
L 182.79069 257.914346 
" clip-path="url(#pc572181903)" style="fill: none; stroke: #808080"/>
    <path d="M 407.461067 168.40379 
L 170.21203 123.707313 
" clip-path="url(#pc572181903)" style="fill: none; stroke: #808080"/>
    <path d="M 407.461067 168.40379 
L 227.789853 126.908045 
" clip-path="url(#pc572181903)" style="fill: none; stroke: #808080"/>
    <path d="M 407.461067 168.40379 
L 423.597826 59.246445 
" clip-path="url(#pc572181903)" style="fill: none; stroke: #808080"/>
    <path d="M 407.461067 168.40379 
L 484.481179 278.08385 
" clip-path="url(#pc572181903)" style="fill: none; stroke: #808080"/>
    <path d="M 407.461067 168.40379 
L 526.016529 262.37599 
" clip-path="url(#pc572181903)" style="fill: none; stroke: #808080"/>
    <path d="M 407.461067 168.40379 
L 504.873147 122.640859 
" clip-path="url(#pc572181903)" style="fill: none; stroke: #808080"/>
    <path d="M 268.252621 246.049865 
L 289.291603 43.681644 
" clip-path="url(#pc572181903)" style="fill: none; stroke: #808080"/>
    <path d="M 268.252621 246.049865 
L 327.911599 59.950394 
" clip-path="url(#pc572181903)" style="fill: none; stroke: #808080"/>
    <path d="M 268.252621 246.049865 
L 215.517473 74.059156 
" clip-path="url(#pc572181903)" style="fill: none; stroke: #808080"/>
    <path d="M 268.252621 246.049865 
L 270.524441 79.274547 
" clip-path="url(#pc572181903)" style="fill: none; stroke: #808080"/>
    <path d="M 268.252621 246.049865 
L 239.436742 37.487603 
" clip-path="url(#pc572181903)" style="fill: none; stroke: #808080"/>
    <path d="M 268.252621 246.049865 
L 49.983471 292.229554 
" clip-path="url(#pc572181903)" style="fill: none; stroke: #808080"/>
    <path d="M 268.252621 246.049865 
L 169.342999 350.011751 
" clip-path="url(#pc572181903)" style="fill: none; stroke: #808080"/>
    <path d="M 268.252621 246.049865 
L 111.218261 349.990239 
" clip-path="url(#pc572181903)" style="fill: none; stroke: #808080"/>
    <path d="M 268.252621 246.049865 
L 98.880545 320.085486 
" clip-path="url(#pc572181903)" style="fill: none; stroke: #808080"/>
    <path d="M 268.252621 246.049865 
L 204.934371 365.779219 
" clip-path="url(#pc572181903)" style="fill: none; stroke: #808080"/>
    <path d="M 268.252621 246.049865 
L 268.500591 386.275368 
" clip-path="url(#pc572181903)" style="fill: none; stroke: #808080"/>
    <path d="M 268.252621 246.049865 
L 373.867976 375.290662 
" clip-path="url(#pc572181903)" style="fill: none; stroke: #808080"/>
    <path d="M 268.252621 246.049865 
L 317.333293 394.512397 
" clip-path="url(#pc572181903)" style="fill: none; stroke: #808080"/>
    <path d="M 268.252621 246.049865 
L 418.707584 368.964621 
" clip-path="url(#pc572181903)" style="fill: none; stroke: #808080"/>
    <path d="M 268.252621 246.049865 
L 510.949761 215.450119 
" clip-path="url(#pc572181903)" style="fill: none; stroke: #808080"/>
    <path d="M 111.557842 177.337789 
L 343.455749 219.277422 
" clip-path="url(#pc572181903)" style="fill: none; stroke: #808080"/>
    <path d="M 111.557842 177.337789 
L 390.162487 93.690354 
" clip-path="url(#pc572181903)" style="fill: none; stroke: #808080"/>
    <path d="M 111.557842 177.337789 
L 227.789853 126.908045 
" clip-path="url(#pc572181903)" style="fill: none; stroke: #808080"/>
    <path d="M 111.557842 177.337789 
L 169.342999 350.011751 
" clip-path="url(#pc572181903)" style="fill: none; stroke: #808080"/>
    <path d="M 111.557842 177.337789 
L 98.880545 320.085486 
" clip-path="url(#pc572181903)" style="fill: none; stroke: #808080"/>
    <path d="M 111.557842 177.337789 
L 99.17656 96.167027 
" clip-path="url(#pc572181903)" style="fill: none; stroke: #808080"/>
    <path d="M 104.186322 221.789618 
L 343.455749 219.277422 
" clip-path="url(#pc572181903)" style="fill: none; stroke: #808080"/>
    <path d="M 104.186322 221.789618 
L 143.162673 94.946473 
" clip-path="url(#pc572181903)" style="fill: none; stroke: #808080"/>
    <path d="M 104.186322 221.789618 
L 170.21203 123.707313 
" clip-path="url(#pc572181903)" style="fill: none; stroke: #808080"/>
    <path d="M 104.186322 221.789618 
L 49.983471 292.229554 
" clip-path="url(#pc572181903)" style="fill: none; stroke: #808080"/>
    <path d="M 104.186322 221.789618 
L 111.218261 349.990239 
" clip-path="url(#pc572181903)" style="fill: none; stroke: #808080"/>
    <path d="M 104.186322 221.789618 
L 99.17656 96.167027 
" clip-path="url(#pc572181903)" style="fill: none; stroke: #808080"/>
    <path d="M 165.489714 202.54037 
L 343.455749 219.277422 
" clip-path="url(#pc572181903)" style="fill: none; stroke: #808080"/>
    <path d="M 165.489714 202.54037 
L 390.162487 93.690354 
" clip-path="url(#pc572181903)" style="fill: none; stroke: #808080"/>
    <path d="M 165.489714 202.54037 
L 93.775648 131.516415 
" clip-path="url(#pc572181903)" style="fill: none; stroke: #808080"/>
    <path d="M 165.489714 202.54037 
L 169.342999 350.011751 
" clip-path="url(#pc572181903)" style="fill: none; stroke: #808080"/>
    <path d="M 165.489714 202.54037 
L 204.934371 365.779219 
" clip-path="url(#pc572181903)" style="fill: none; stroke: #808080"/>
    <path d="M 165.489714 202.54037 
L 99.17656 96.167027 
" clip-path="url(#pc572181903)" style="fill: none; stroke: #808080"/>
    <path d="M 132.308505 250.552739 
L 343.455749 219.277422 
" clip-path="url(#pc572181903)" style="fill: none; stroke: #808080"/>
    <path d="M 132.308505 250.552739 
L 143.162673 94.946473 
" clip-path="url(#pc572181903)" style="fill: none; stroke: #808080"/>
    <path d="M 132.308505 250.552739 
L 93.775648 131.516415 
" clip-path="url(#pc572181903)" style="fill: none; stroke: #808080"/>
    <path d="M 132.308505 250.552739 
L 49.983471 292.229554 
" clip-path="url(#pc572181903)" style="fill: none; stroke: #808080"/>
    <path d="M 132.308505 250.552739 
L 204.934371 365.779219 
" clip-path="url(#pc572181903)" style="fill: none; stroke: #808080"/>
    <path d="M 132.308505 250.552739 
L 99.17656 96.167027 
" clip-path="url(#pc572181903)" style="fill: none; stroke: #808080"/>
    <path d="M 68.135455 197.6923 
L 343.455749 219.277422 
" clip-path="url(#pc572181903)" style="fill: none; stroke: #808080"/>
    <path d="M 68.135455 197.6923 
L 170.21203 123.707313 
" clip-path="url(#pc572181903)" style="fill: none; stroke: #808080"/>
    <path d="M 68.135455 197.6923 
L 227.789853 126.908045 
" clip-path="url(#pc572181903)" style="fill: none; stroke: #808080"/>
    <path d="M 68.135455 197.6923 
L 111.218261 349.990239 
" clip-path="url(#pc572181903)" style="fill: none; stroke: #808080"/>
    <path d="M 68.135455 197.6923 
L 98.880545 320.085486 
" clip-path="url(#pc572181903)" style="fill: none; stroke: #808080"/>
    <path d="M 68.135455 197.6923 
L 99.17656 96.167027 
" clip-path="url(#pc572181903)" style="fill: none; stroke: #808080"/>
    <path d="M 289.291603 43.681644 
L 343.455749 219.277422 
" clip-path="url(#pc572181903)" style="fill: none; stroke: #808080"/>
    <path d="M 289.291603 43.681644 
L 390.162487 93.690354 
" clip-path="url(#pc572181903)" style="fill: none; stroke: #808080"/>
    <path d="M 289.291603 43.681644 
L 227.789853 126.908045 
" clip-path="url(#pc572181903)" style="fill: none; stroke: #808080"/>
    <path d="M 289.291603 43.681644 
L 423.597826 59.246445 
" clip-path="url(#pc572181903)" style="fill: none; stroke: #808080"/>
    <path d="M 289.291603 43.681644 
L 99.17656 96.167027 
" clip-path="url(#pc572181903)" style="fill: none; stroke: #808080"/>
    <path d="M 327.911599 59.950394 
L 343.455749 219.277422 
" clip-path="url(#pc572181903)" style="fill: none; stroke: #808080"/>
    <path d="M 327.911599 59.950394 
L 143.162673 94.946473 
" clip-path="url(#pc572181903)" style="fill: none; stroke: #808080"/>
    <path d="M 327.911599 59.950394 
L 170.21203 123.707313 
" clip-path="url(#pc572181903)" style="fill: none; stroke: #808080"/>
    <path d="M 327.911599 59.950394 
L 423.597826 59.246445 
" clip-path="url(#pc572181903)" style="fill: none; stroke: #808080"/>
    <path d="M 327.911599 59.950394 
L 99.17656 96.167027 
" clip-path="url(#pc572181903)" style="fill: none; stroke: #808080"/>
    <path d="M 215.517473 74.059156 
L 343.455749 219.277422 
" clip-path="url(#pc572181903)" style="fill: none; stroke: #808080"/>
    <path d="M 215.517473 74.059156 
L 390.162487 93.690354 
" clip-path="url(#pc572181903)" style="fill: none; stroke: #808080"/>
    <path d="M 215.517473 74.059156 
L 93.775648 131.516415 
" clip-path="url(#pc572181903)" style="fill: none; stroke: #808080"/>
    <path d="M 215.517473 74.059156 
L 423.597826 59.246445 
" clip-path="url(#pc572181903)" style="fill: none; stroke: #808080"/>
    <path d="M 215.517473 74.059156 
L 99.17656 96.167027 
" clip-path="url(#pc572181903)" style="fill: none; stroke: #808080"/>
    <path d="M 270.524441 79.274547 
L 343.455749 219.277422 
" clip-path="url(#pc572181903)" style="fill: none; stroke: #808080"/>
    <path d="M 270.524441 79.274547 
L 143.162673 94.946473 
" clip-path="url(#pc572181903)" style="fill: none; stroke: #808080"/>
    <path d="M 270.524441 79.274547 
L 93.775648 131.516415 
" clip-path="url(#pc572181903)" style="fill: none; stroke: #808080"/>
    <path d="M 270.524441 79.274547 
L 423.597826 59.246445 
" clip-path="url(#pc572181903)" style="fill: none; stroke: #808080"/>
    <path d="M 270.524441 79.274547 
L 99.17656 96.167027 
" clip-path="url(#pc572181903)" style="fill: none; stroke: #808080"/>
    <path d="M 239.436742 37.487603 
L 343.455749 219.277422 
" clip-path="url(#pc572181903)" style="fill: none; stroke: #808080"/>
    <path d="M 239.436742 37.487603 
L 170.21203 123.707313 
" clip-path="url(#pc572181903)" style="fill: none; stroke: #808080"/>
    <path d="M 239.436742 37.487603 
L 227.789853 126.908045 
" clip-path="url(#pc572181903)" style="fill: none; stroke: #808080"/>
    <path d="M 239.436742 37.487603 
L 423.597826 59.246445 
" clip-path="url(#pc572181903)" style="fill: none; stroke: #808080"/>
    <path d="M 239.436742 37.487603 
L 99.17656 96.167027 
" clip-path="url(#pc572181903)" style="fill: none; stroke: #808080"/>
    <path d="M 182.79069 257.914346 
L 343.455749 219.277422 
" clip-path="url(#pc572181903)" style="fill: none; stroke: #808080"/>
    <path d="M 182.79069 257.914346 
L 49.983471 292.229554 
" clip-path="url(#pc572181903)" style="fill: none; stroke: #808080"/>
    <path d="M 182.79069 257.914346 
L 169.342999 350.011751 
" clip-path="url(#pc572181903)" style="fill: none; stroke: #808080"/>
    <path d="M 182.79069 257.914346 
L 111.218261 349.990239 
" clip-path="url(#pc572181903)" style="fill: none; stroke: #808080"/>
    <path d="M 182.79069 257.914346 
L 98.880545 320.085486 
" clip-path="url(#pc572181903)" style="fill: none; stroke: #808080"/>
    <path d="M 182.79069 257.914346 
L 204.934371 365.779219 
" clip-path="url(#pc572181903)" style="fill: none; stroke: #808080"/>
    <path d="M 182.79069 257.914346 
L 99.17656 96.167027 
" clip-path="url(#pc572181903)" style="fill: none; stroke: #808080"/>
    <path d="M 343.455749 219.277422 
L 428.628692 308.320301 
" clip-path="url(#pc572181903)" style="fill: none; stroke: #808080"/>
    <path d="M 343.455749 219.277422 
L 486.051936 311.424535 
" clip-path="url(#pc572181903)" style="fill: none; stroke: #808080"/>
    <path d="M 343.455749 219.277422 
L 484.481179 278.08385 
" clip-path="url(#pc572181903)" style="fill: none; stroke: #808080"/>
    <path d="M 343.455749 219.277422 
L 526.016529 262.37599 
" clip-path="url(#pc572181903)" style="fill: none; stroke: #808080"/>
    <path d="M 343.455749 219.277422 
L 499.910059 161.504868 
" clip-path="url(#pc572181903)" style="fill: none; stroke: #808080"/>
    <path d="M 343.455749 219.277422 
L 268.500591 386.275368 
" clip-path="url(#pc572181903)" style="fill: none; stroke: #808080"/>
    <path d="M 343.455749 219.277422 
L 373.867976 375.290662 
" clip-path="url(#pc572181903)" style="fill: none; stroke: #808080"/>
    <path d="M 343.455749 219.277422 
L 317.333293 394.512397 
" clip-path="url(#pc572181903)" style="fill: none; stroke: #808080"/>
    <path d="M 343.455749 219.277422 
L 418.707584 368.964621 
" clip-path="url(#pc572181903)" style="fill: none; stroke: #808080"/>
    <path d="M 343.455749 219.277422 
L 510.949761 215.450119 
" clip-path="url(#pc572181903)" style="fill: none; stroke: #808080"/>
    <path d="M 343.455749 219.277422 
L 504.873147 122.640859 
" clip-path="url(#pc572181903)" style="fill: none; stroke: #808080"/>
    <path d="M 143.162673 94.946473 
L 310.733739 256.419426 
" clip-path="url(#pc572181903)" style="fill: none; stroke: #808080"/>
    <path d="M 390.162487 93.690354 
L 310.733739 256.419426 
" clip-path="url(#pc572181903)" style="fill: none; stroke: #808080"/>
    <path d="M 170.21203 123.707313 
L 310.733739 256.419426 
" clip-path="url(#pc572181903)" style="fill: none; stroke: #808080"/>
    <path d="M 227.789853 126.908045 
L 310.733739 256.419426 
" clip-path="url(#pc572181903)" style="fill: none; stroke: #808080"/>
    <path d="M 93.775648 131.516415 
L 310.733739 256.419426 
" clip-path="url(#pc572181903)" style="fill: none; stroke: #808080"/>
    <path d="M 49.983471 292.229554 
L 310.733739 256.419426 
" clip-path="url(#pc572181903)" style="fill: none; stroke: #808080"/>
    <path d="M 169.342999 350.011751 
L 310.733739 256.419426 
" clip-path="url(#pc572181903)" style="fill: none; stroke: #808080"/>
    <path d="M 111.218261 349.990239 
L 310.733739 256.419426 
" clip-path="url(#pc572181903)" style="fill: none; stroke: #808080"/>
    <path d="M 98.880545 320.085486 
L 310.733739 256.419426 
" clip-path="url(#pc572181903)" style="fill: none; stroke: #808080"/>
    <path d="M 204.934371 365.779219 
L 310.733739 256.419426 
" clip-path="url(#pc572181903)" style="fill: none; stroke: #808080"/>
    <path d="M 423.597826 59.246445 
L 310.733739 256.419426 
" clip-path="url(#pc572181903)" style="fill: none; stroke: #808080"/>
    <path d="M 428.628692 308.320301 
L 310.733739 256.419426 
" clip-path="url(#pc572181903)" style="fill: none; stroke: #808080"/>
    <path d="M 486.051936 311.424535 
L 310.733739 256.419426 
" clip-path="url(#pc572181903)" style="fill: none; stroke: #808080"/>
    <path d="M 484.481179 278.08385 
L 310.733739 256.419426 
" clip-path="url(#pc572181903)" style="fill: none; stroke: #808080"/>
    <path d="M 526.016529 262.37599 
L 310.733739 256.419426 
" clip-path="url(#pc572181903)" style="fill: none; stroke: #808080"/>
    <path d="M 499.910059 161.504868 
L 310.733739 256.419426 
" clip-path="url(#pc572181903)" style="fill: none; stroke: #808080"/>
    <path d="M 268.500591 386.275368 
L 310.733739 256.419426 
" clip-path="url(#pc572181903)" style="fill: none; stroke: #808080"/>
    <path d="M 373.867976 375.290662 
L 310.733739 256.419426 
" clip-path="url(#pc572181903)" style="fill: none; stroke: #808080"/>
    <path d="M 317.333293 394.512397 
L 310.733739 256.419426 
" clip-path="url(#pc572181903)" style="fill: none; stroke: #808080"/>
    <path d="M 418.707584 368.964621 
L 310.733739 256.419426 
" clip-path="url(#pc572181903)" style="fill: none; stroke: #808080"/>
    <path d="M 510.949761 215.450119 
L 310.733739 256.419426 
" clip-path="url(#pc572181903)" style="fill: none; stroke: #808080"/>
    <path d="M 504.873147 122.640859 
L 310.733739 256.419426 
" clip-path="url(#pc572181903)" style="fill: none; stroke: #808080"/>
    <path d="M 99.17656 96.167027 
L 310.733739 256.419426 
" clip-path="url(#pc572181903)" style="fill: none; stroke: #808080"/>
   </g>
   <g id="PathCollection_1">
    <defs>
     <path id="C0_0_8012babb3b" d="M 0 7.071068 
C 1.875269 7.071068 3.673985 6.326016 5 5 
C 6.326016 3.673985 7.071068 1.875269 7.071068 -0 
C 7.071068 -1.875269 6.326016 -3.673985 5 -5 
C 3.673985 -6.326016 1.875269 -7.071068 0 -7.071068 
C -1.875269 -7.071068 -3.673985 -6.326016 -5 -5 
C -6.326016 -3.673985 -7.071068 -1.875269 -7.071068 0 
C -7.071068 1.875269 -6.326016 3.673985 -5 5 
C -3.673985 6.326016 -1.875269 7.071068 0 7.071068 
z
"/>
    </defs>
    <g clip-path="url(#pc572181903)">
     <use xlink:href="#C0_0_8012babb3b" x="347.148367" y="264.72672" style="fill: #ff0000; stroke: #ff0000"/>
    </g>
    <g clip-path="url(#pc572181903)">
     <use xlink:href="#C0_0_8012babb3b" x="224.379949" y="271.1898" style="fill: #b2f396; stroke: #b2f396"/>
    </g>
    <g clip-path="url(#pc572181903)">
     <use xlink:href="#C0_0_8012babb3b" x="306.91061" y="212.279932" style="fill: #8000ff; stroke: #8000ff"/>
    </g>
    <g clip-path="url(#pc572181903)">
     <use xlink:href="#C0_0_8012babb3b" x="248.470881" y="200.030749" style="fill: #b2f396; stroke: #b2f396"/>
    </g>
    <g clip-path="url(#pc572181903)">
     <use xlink:href="#C0_0_8012babb3b" x="279.464798" y="289.028067" style="fill: #ff964f; stroke: #ff964f"/>
    </g>
    <g clip-path="url(#pc572181903)">
     <use xlink:href="#C0_0_8012babb3b" x="408.72965" y="212.803843" style="fill: #1996f3; stroke: #1996f3"/>
    </g>
    <g clip-path="url(#pc572181903)">
     <use xlink:href="#C0_0_8012babb3b" x="371.835821" y="141.045005" style="fill: #ff964f; stroke: #ff964f"/>
    </g>
    <g clip-path="url(#pc572181903)">
     <use xlink:href="#C0_0_8012babb3b" x="329.180599" y="163.145522" style="fill: #4df3ce; stroke: #4df3ce"/>
    </g>
    <g clip-path="url(#pc572181903)">
     <use xlink:href="#C0_0_8012babb3b" x="299.661018" y="134.616985" style="fill: #b2f396; stroke: #b2f396"/>
    </g>
    <g clip-path="url(#pc572181903)">
     <use xlink:href="#C0_0_8012babb3b" x="407.461067" y="168.40379" style="fill: #ff964f; stroke: #ff964f"/>
    </g>
    <g clip-path="url(#pc572181903)">
     <use xlink:href="#C0_0_8012babb3b" x="268.252621" y="246.049865" style="fill: #8000ff; stroke: #8000ff"/>
    </g>
    <g clip-path="url(#pc572181903)">
     <use xlink:href="#C0_0_8012babb3b" x="111.557842" y="177.337789" style="fill: #8000ff; stroke: #8000ff"/>
    </g>
    <g clip-path="url(#pc572181903)">
     <use xlink:href="#C0_0_8012babb3b" x="104.186322" y="221.789618" style="fill: #ff964f; stroke: #ff964f"/>
    </g>
    <g clip-path="url(#pc572181903)">
     <use xlink:href="#C0_0_8012babb3b" x="165.489714" y="202.54037" style="fill: #8000ff; stroke: #8000ff"/>
    </g>
    <g clip-path="url(#pc572181903)">
     <use xlink:href="#C0_0_8012babb3b" x="132.308505" y="250.552739" style="fill: #8000ff; stroke: #8000ff"/>
    </g>
    <g clip-path="url(#pc572181903)">
     <use xlink:href="#C0_0_8012babb3b" x="68.135455" y="197.6923" style="fill: #1996f3; stroke: #1996f3"/>
    </g>
    <g clip-path="url(#pc572181903)">
     <use xlink:href="#C0_0_8012babb3b" x="289.291603" y="43.681644" style="fill: #4df3ce; stroke: #4df3ce"/>
    </g>
    <g clip-path="url(#pc572181903)">
     <use xlink:href="#C0_0_8012babb3b" x="327.911599" y="59.950394" style="fill: #1996f3; stroke: #1996f3"/>
    </g>
    <g clip-path="url(#pc572181903)">
     <use xlink:href="#C0_0_8012babb3b" x="215.517473" y="74.059156" style="fill: #4df3ce; stroke: #4df3ce"/>
    </g>
    <g clip-path="url(#pc572181903)">
     <use xlink:href="#C0_0_8012babb3b" x="270.524441" y="79.274547" style="fill: #1996f3; stroke: #1996f3"/>
    </g>
    <g clip-path="url(#pc572181903)">
     <use xlink:href="#C0_0_8012babb3b" x="239.436742" y="37.487603" style="fill: #4df3ce; stroke: #4df3ce"/>
    </g>
    <g clip-path="url(#pc572181903)">
     <use xlink:href="#C0_0_8012babb3b" x="182.79069" y="257.914346" style="fill: #8000ff; stroke: #8000ff"/>
    </g>
    <g clip-path="url(#pc572181903)">
     <use xlink:href="#C0_0_8012babb3b" x="343.455749" y="219.277422" style="fill: #ff0000; stroke: #ff0000"/>
    </g>
    <g clip-path="url(#pc572181903)">
     <use xlink:href="#C0_0_8012babb3b" x="143.162673" y="94.946473" style="fill: #4df3ce; stroke: #4df3ce"/>
    </g>
    <g clip-path="url(#pc572181903)">
     <use xlink:href="#C0_0_8012babb3b" x="390.162487" y="93.690354" style="fill: #b2f396; stroke: #b2f396"/>
    </g>
    <g clip-path="url(#pc572181903)">
     <use xlink:href="#C0_0_8012babb3b" x="170.21203" y="123.707313" style="fill: #8000ff; stroke: #8000ff"/>
    </g>
    <g clip-path="url(#pc572181903)">
     <use xlink:href="#C0_0_8012babb3b" x="227.789853" y="126.908045" style="fill: #b2f396; stroke: #b2f396"/>
    </g>
    <g clip-path="url(#pc572181903)">
     <use xlink:href="#C0_0_8012babb3b" x="93.775648" y="131.516415" style="fill: #ff0000; stroke: #ff0000"/>
    </g>
    <g clip-path="url(#pc572181903)">
     <use xlink:href="#C0_0_8012babb3b" x="49.983471" y="292.229554" style="fill: #4df3ce; stroke: #4df3ce"/>
    </g>
    <g clip-path="url(#pc572181903)">
     <use xlink:href="#C0_0_8012babb3b" x="169.342999" y="350.011751" style="fill: #ff964f; stroke: #ff964f"/>
    </g>
    <g clip-path="url(#pc572181903)">
     <use xlink:href="#C0_0_8012babb3b" x="111.218261" y="349.990239" style="fill: #4df3ce; stroke: #4df3ce"/>
    </g>
    <g clip-path="url(#pc572181903)">
     <use xlink:href="#C0_0_8012babb3b" x="98.880545" y="320.085486" style="fill: #4df3ce; stroke: #4df3ce"/>
    </g>
    <g clip-path="url(#pc572181903)">
     <use xlink:href="#C0_0_8012babb3b" x="204.934371" y="365.779219" style="fill: #ff0000; stroke: #ff0000"/>
    </g>
    <g clip-path="url(#pc572181903)">
     <use xlink:href="#C0_0_8012babb3b" x="423.597826" y="59.246445" style="fill: #8000ff; stroke: #8000ff"/>
    </g>
    <g clip-path="url(#pc572181903)">
     <use xlink:href="#C0_0_8012babb3b" x="428.628692" y="308.320301" style="fill: #4df3ce; stroke: #4df3ce"/>
    </g>
    <g clip-path="url(#pc572181903)">
     <use xlink:href="#C0_0_8012babb3b" x="486.051936" y="311.424535" style="fill: #b2f396; stroke: #b2f396"/>
    </g>
    <g clip-path="url(#pc572181903)">
     <use xlink:href="#C0_0_8012babb3b" x="484.481179" y="278.08385" style="fill: #8000ff; stroke: #8000ff"/>
    </g>
    <g clip-path="url(#pc572181903)">
     <use xlink:href="#C0_0_8012babb3b" x="526.016529" y="262.37599" style="fill: #4df3ce; stroke: #4df3ce"/>
    </g>
    <g clip-path="url(#pc572181903)">
     <use xlink:href="#C0_0_8012babb3b" x="499.910059" y="161.504868" style="fill: #ff964f; stroke: #ff964f"/>
    </g>
    <g clip-path="url(#pc572181903)">
     <use xlink:href="#C0_0_8012babb3b" x="268.500591" y="386.275368" style="fill: #4df3ce; stroke: #4df3ce"/>
    </g>
    <g clip-path="url(#pc572181903)">
     <use xlink:href="#C0_0_8012babb3b" x="373.867976" y="375.290662" style="fill: #ff964f; stroke: #ff964f"/>
    </g>
    <g clip-path="url(#pc572181903)">
     <use xlink:href="#C0_0_8012babb3b" x="317.333293" y="394.512397" style="fill: #4df3ce; stroke: #4df3ce"/>
    </g>
    <g clip-path="url(#pc572181903)">
     <use xlink:href="#C0_0_8012babb3b" x="418.707584" y="368.964621" style="fill: #4df3ce; stroke: #4df3ce"/>
    </g>
    <g clip-path="url(#pc572181903)">
     <use xlink:href="#C0_0_8012babb3b" x="510.949761" y="215.450119" style="fill: #ff964f; stroke: #ff964f"/>
    </g>
    <g clip-path="url(#pc572181903)">
     <use xlink:href="#C0_0_8012babb3b" x="504.873147" y="122.640859" style="fill: #8000ff; stroke: #8000ff"/>
    </g>
    <g clip-path="url(#pc572181903)">
     <use xlink:href="#C0_0_8012babb3b" x="99.17656" y="96.167027" style="fill: #b2f396; stroke: #b2f396"/>
    </g>
    <g clip-path="url(#pc572181903)">
     <use xlink:href="#C0_0_8012babb3b" x="310.733739" y="256.419426" style="fill: #1996f3; stroke: #1996f3"/>
    </g>
   </g>
   <g id="text_1">
    <g clip-path="url(#pc572181903)">
     <!-- 0 -->
     <g transform="translate(343.330867 268.03797) scale(0.12 -0.12)">
      <defs>
       <path id="DejaVuSans-30" d="M 2034 4250 
Q 1547 4250 1301 3770 
Q 1056 3291 1056 2328 
Q 1056 1369 1301 889 
Q 1547 409 2034 409 
Q 2525 409 2770 889 
Q 3016 1369 3016 2328 
Q 3016 3291 2770 3770 
Q 2525 4250 2034 4250 
z
M 2034 4750 
Q 2819 4750 3233 4129 
Q 3647 3509 3647 2328 
Q 3647 1150 3233 529 
Q 2819 -91 2034 -91 
Q 1250 -91 836 529 
Q 422 1150 422 2328 
Q 422 3509 836 4129 
Q 1250 4750 2034 4750 
z
" transform="scale(0.015625)"/>
      </defs>
      <use xlink:href="#DejaVuSans-30"/>
     </g>
    </g>
   </g>
   <g id="text_2">
    <g clip-path="url(#pc572181903)">
     <!-- 1 -->
     <g transform="translate(220.562449 274.50105) scale(0.12 -0.12)">
      <defs>
       <path id="DejaVuSans-31" d="M 794 531 
L 1825 531 
L 1825 4091 
L 703 3866 
L 703 4441 
L 1819 4666 
L 2450 4666 
L 2450 531 
L 3481 531 
L 3481 0 
L 794 0 
L 794 531 
z
" transform="scale(0.015625)"/>
      </defs>
      <use xlink:href="#DejaVuSans-31"/>
     </g>
    </g>
   </g>
   <g id="text_3">
    <g clip-path="url(#pc572181903)">
     <!-- 2 -->
     <g transform="translate(303.09311 215.591182) scale(0.12 -0.12)">
      <defs>
       <path id="DejaVuSans-32" d="M 1228 531 
L 3431 531 
L 3431 0 
L 469 0 
L 469 531 
Q 828 903 1448 1529 
Q 2069 2156 2228 2338 
Q 2531 2678 2651 2914 
Q 2772 3150 2772 3378 
Q 2772 3750 2511 3984 
Q 2250 4219 1831 4219 
Q 1534 4219 1204 4116 
Q 875 4013 500 3803 
L 500 4441 
Q 881 4594 1212 4672 
Q 1544 4750 1819 4750 
Q 2544 4750 2975 4387 
Q 3406 4025 3406 3419 
Q 3406 3131 3298 2873 
Q 3191 2616 2906 2266 
Q 2828 2175 2409 1742 
Q 1991 1309 1228 531 
z
" transform="scale(0.015625)"/>
      </defs>
      <use xlink:href="#DejaVuSans-32"/>
     </g>
    </g>
   </g>
   <g id="text_4">
    <g clip-path="url(#pc572181903)">
     <!-- 3 -->
     <g transform="translate(244.653381 203.341999) scale(0.12 -0.12)">
      <defs>
       <path id="DejaVuSans-33" d="M 2597 2516 
Q 3050 2419 3304 2112 
Q 3559 1806 3559 1356 
Q 3559 666 3084 287 
Q 2609 -91 1734 -91 
Q 1441 -91 1130 -33 
Q 819 25 488 141 
L 488 750 
Q 750 597 1062 519 
Q 1375 441 1716 441 
Q 2309 441 2620 675 
Q 2931 909 2931 1356 
Q 2931 1769 2642 2001 
Q 2353 2234 1838 2234 
L 1294 2234 
L 1294 2753 
L 1863 2753 
Q 2328 2753 2575 2939 
Q 2822 3125 2822 3475 
Q 2822 3834 2567 4026 
Q 2313 4219 1838 4219 
Q 1578 4219 1281 4162 
Q 984 4106 628 3988 
L 628 4550 
Q 988 4650 1302 4700 
Q 1616 4750 1894 4750 
Q 2613 4750 3031 4423 
Q 3450 4097 3450 3541 
Q 3450 3153 3228 2886 
Q 3006 2619 2597 2516 
z
" transform="scale(0.015625)"/>
      </defs>
      <use xlink:href="#DejaVuSans-33"/>
     </g>
    </g>
   </g>
   <g id="text_5">
    <g clip-path="url(#pc572181903)">
     <!-- 4 -->
     <g transform="translate(275.647298 292.339317) scale(0.12 -0.12)">
      <defs>
       <path id="DejaVuSans-34" d="M 2419 4116 
L 825 1625 
L 2419 1625 
L 2419 4116 
z
M 2253 4666 
L 3047 4666 
L 3047 1625 
L 3713 1625 
L 3713 1100 
L 3047 1100 
L 3047 0 
L 2419 0 
L 2419 1100 
L 313 1100 
L 313 1709 
L 2253 4666 
z
" transform="scale(0.015625)"/>
      </defs>
      <use xlink:href="#DejaVuSans-34"/>
     </g>
    </g>
   </g>
   <g id="text_6">
    <g clip-path="url(#pc572181903)">
     <!-- 5 -->
     <g transform="translate(404.91215 216.115093) scale(0.12 -0.12)">
      <defs>
       <path id="DejaVuSans-35" d="M 691 4666 
L 3169 4666 
L 3169 4134 
L 1269 4134 
L 1269 2991 
Q 1406 3038 1543 3061 
Q 1681 3084 1819 3084 
Q 2600 3084 3056 2656 
Q 3513 2228 3513 1497 
Q 3513 744 3044 326 
Q 2575 -91 1722 -91 
Q 1428 -91 1123 -41 
Q 819 9 494 109 
L 494 744 
Q 775 591 1075 516 
Q 1375 441 1709 441 
Q 2250 441 2565 725 
Q 2881 1009 2881 1497 
Q 2881 1984 2565 2268 
Q 2250 2553 1709 2553 
Q 1456 2553 1204 2497 
Q 953 2441 691 2322 
L 691 4666 
z
" transform="scale(0.015625)"/>
      </defs>
      <use xlink:href="#DejaVuSans-35"/>
     </g>
    </g>
   </g>
   <g id="text_7">
    <g clip-path="url(#pc572181903)">
     <!-- 6 -->
     <g transform="translate(368.018321 144.356255) scale(0.12 -0.12)">
      <defs>
       <path id="DejaVuSans-36" d="M 2113 2584 
Q 1688 2584 1439 2293 
Q 1191 2003 1191 1497 
Q 1191 994 1439 701 
Q 1688 409 2113 409 
Q 2538 409 2786 701 
Q 3034 994 3034 1497 
Q 3034 2003 2786 2293 
Q 2538 2584 2113 2584 
z
M 3366 4563 
L 3366 3988 
Q 3128 4100 2886 4159 
Q 2644 4219 2406 4219 
Q 1781 4219 1451 3797 
Q 1122 3375 1075 2522 
Q 1259 2794 1537 2939 
Q 1816 3084 2150 3084 
Q 2853 3084 3261 2657 
Q 3669 2231 3669 1497 
Q 3669 778 3244 343 
Q 2819 -91 2113 -91 
Q 1303 -91 875 529 
Q 447 1150 447 2328 
Q 447 3434 972 4092 
Q 1497 4750 2381 4750 
Q 2619 4750 2861 4703 
Q 3103 4656 3366 4563 
z
" transform="scale(0.015625)"/>
      </defs>
      <use xlink:href="#DejaVuSans-36"/>
     </g>
    </g>
   </g>
   <g id="text_8">
    <g clip-path="url(#pc572181903)">
     <!-- 7 -->
     <g transform="translate(325.363099 166.456772) scale(0.12 -0.12)">
      <defs>
       <path id="DejaVuSans-37" d="M 525 4666 
L 3525 4666 
L 3525 4397 
L 1831 0 
L 1172 0 
L 2766 4134 
L 525 4134 
L 525 4666 
z
" transform="scale(0.015625)"/>
      </defs>
      <use xlink:href="#DejaVuSans-37"/>
     </g>
    </g>
   </g>
   <g id="text_9">
    <g clip-path="url(#pc572181903)">
     <!-- 8 -->
     <g transform="translate(295.843518 137.928235) scale(0.12 -0.12)">
      <defs>
       <path id="DejaVuSans-38" d="M 2034 2216 
Q 1584 2216 1326 1975 
Q 1069 1734 1069 1313 
Q 1069 891 1326 650 
Q 1584 409 2034 409 
Q 2484 409 2743 651 
Q 3003 894 3003 1313 
Q 3003 1734 2745 1975 
Q 2488 2216 2034 2216 
z
M 1403 2484 
Q 997 2584 770 2862 
Q 544 3141 544 3541 
Q 544 4100 942 4425 
Q 1341 4750 2034 4750 
Q 2731 4750 3128 4425 
Q 3525 4100 3525 3541 
Q 3525 3141 3298 2862 
Q 3072 2584 2669 2484 
Q 3125 2378 3379 2068 
Q 3634 1759 3634 1313 
Q 3634 634 3220 271 
Q 2806 -91 2034 -91 
Q 1263 -91 848 271 
Q 434 634 434 1313 
Q 434 1759 690 2068 
Q 947 2378 1403 2484 
z
M 1172 3481 
Q 1172 3119 1398 2916 
Q 1625 2713 2034 2713 
Q 2441 2713 2670 2916 
Q 2900 3119 2900 3481 
Q 2900 3844 2670 4047 
Q 2441 4250 2034 4250 
Q 1625 4250 1398 4047 
Q 1172 3844 1172 3481 
z
" transform="scale(0.015625)"/>
      </defs>
      <use xlink:href="#DejaVuSans-38"/>
     </g>
    </g>
   </g>
   <g id="text_10">
    <g clip-path="url(#pc572181903)">
     <!-- 9 -->
     <g transform="translate(403.643567 171.71504) scale(0.12 -0.12)">
      <defs>
       <path id="DejaVuSans-39" d="M 703 97 
L 703 672 
Q 941 559 1184 500 
Q 1428 441 1663 441 
Q 2288 441 2617 861 
Q 2947 1281 2994 2138 
Q 2813 1869 2534 1725 
Q 2256 1581 1919 1581 
Q 1219 1581 811 2004 
Q 403 2428 403 3163 
Q 403 3881 828 4315 
Q 1253 4750 1959 4750 
Q 2769 4750 3195 4129 
Q 3622 3509 3622 2328 
Q 3622 1225 3098 567 
Q 2575 -91 1691 -91 
Q 1453 -91 1209 -44 
Q 966 3 703 97 
z
M 1959 2075 
Q 2384 2075 2632 2365 
Q 2881 2656 2881 3163 
Q 2881 3666 2632 3958 
Q 2384 4250 1959 4250 
Q 1534 4250 1286 3958 
Q 1038 3666 1038 3163 
Q 1038 2656 1286 2365 
Q 1534 2075 1959 2075 
z
" transform="scale(0.015625)"/>
      </defs>
      <use xlink:href="#DejaVuSans-39"/>
     </g>
    </g>
   </g>
   <g id="text_11">
    <g clip-path="url(#pc572181903)">
     <!-- 10 -->
     <g transform="translate(260.617621 249.361115) scale(0.12 -0.12)">
      <use xlink:href="#DejaVuSans-31"/>
      <use xlink:href="#DejaVuSans-30" transform="translate(63.623047 0)"/>
     </g>
    </g>
   </g>
   <g id="text_12">
    <g clip-path="url(#pc572181903)">
     <!-- 11 -->
     <g transform="translate(103.922842 180.649039) scale(0.12 -0.12)">
      <use xlink:href="#DejaVuSans-31"/>
      <use xlink:href="#DejaVuSans-31" transform="translate(63.623047 0)"/>
     </g>
    </g>
   </g>
   <g id="text_13">
    <g clip-path="url(#pc572181903)">
     <!-- 12 -->
     <g transform="translate(96.551322 225.100868) scale(0.12 -0.12)">
      <use xlink:href="#DejaVuSans-31"/>
      <use xlink:href="#DejaVuSans-32" transform="translate(63.623047 0)"/>
     </g>
    </g>
   </g>
   <g id="text_14">
    <g clip-path="url(#pc572181903)">
     <!-- 13 -->
     <g transform="translate(157.854714 205.85162) scale(0.12 -0.12)">
      <use xlink:href="#DejaVuSans-31"/>
      <use xlink:href="#DejaVuSans-33" transform="translate(63.623047 0)"/>
     </g>
    </g>
   </g>
   <g id="text_15">
    <g clip-path="url(#pc572181903)">
     <!-- 14 -->
     <g transform="translate(124.673505 253.863989) scale(0.12 -0.12)">
      <use xlink:href="#DejaVuSans-31"/>
      <use xlink:href="#DejaVuSans-34" transform="translate(63.623047 0)"/>
     </g>
    </g>
   </g>
   <g id="text_16">
    <g clip-path="url(#pc572181903)">
     <!-- 15 -->
     <g transform="translate(60.500455 201.00355) scale(0.12 -0.12)">
      <use xlink:href="#DejaVuSans-31"/>
      <use xlink:href="#DejaVuSans-35" transform="translate(63.623047 0)"/>
     </g>
    </g>
   </g>
   <g id="text_17">
    <g clip-path="url(#pc572181903)">
     <!-- 16 -->
     <g transform="translate(281.656603 46.992894) scale(0.12 -0.12)">
      <use xlink:href="#DejaVuSans-31"/>
      <use xlink:href="#DejaVuSans-36" transform="translate(63.623047 0)"/>
     </g>
    </g>
   </g>
   <g id="text_18">
    <g clip-path="url(#pc572181903)">
     <!-- 17 -->
     <g transform="translate(320.276599 63.261644) scale(0.12 -0.12)">
      <use xlink:href="#DejaVuSans-31"/>
      <use xlink:href="#DejaVuSans-37" transform="translate(63.623047 0)"/>
     </g>
    </g>
   </g>
   <g id="text_19">
    <g clip-path="url(#pc572181903)">
     <!-- 18 -->
     <g transform="translate(207.882473 77.370406) scale(0.12 -0.12)">
      <use xlink:href="#DejaVuSans-31"/>
      <use xlink:href="#DejaVuSans-38" transform="translate(63.623047 0)"/>
     </g>
    </g>
   </g>
   <g id="text_20">
    <g clip-path="url(#pc572181903)">
     <!-- 19 -->
     <g transform="translate(262.889441 82.585797) scale(0.12 -0.12)">
      <use xlink:href="#DejaVuSans-31"/>
      <use xlink:href="#DejaVuSans-39" transform="translate(63.623047 0)"/>
     </g>
    </g>
   </g>
   <g id="text_21">
    <g clip-path="url(#pc572181903)">
     <!-- 20 -->
     <g transform="translate(231.801742 40.798853) scale(0.12 -0.12)">
      <use xlink:href="#DejaVuSans-32"/>
      <use xlink:href="#DejaVuSans-30" transform="translate(63.623047 0)"/>
     </g>
    </g>
   </g>
   <g id="text_22">
    <g clip-path="url(#pc572181903)">
     <!-- 21 -->
     <g transform="translate(175.15569 261.225596) scale(0.12 -0.12)">
      <use xlink:href="#DejaVuSans-32"/>
      <use xlink:href="#DejaVuSans-31" transform="translate(63.623047 0)"/>
     </g>
    </g>
   </g>
   <g id="text_23">
    <g clip-path="url(#pc572181903)">
     <!-- 22 -->
     <g transform="translate(335.820749 222.588672) scale(0.12 -0.12)">
      <use xlink:href="#DejaVuSans-32"/>
      <use xlink:href="#DejaVuSans-32" transform="translate(63.623047 0)"/>
     </g>
    </g>
   </g>
   <g id="text_24">
    <g clip-path="url(#pc572181903)">
     <!-- 23 -->
     <g transform="translate(135.527673 98.257723) scale(0.12 -0.12)">
      <use xlink:href="#DejaVuSans-32"/>
      <use xlink:href="#DejaVuSans-33" transform="translate(63.623047 0)"/>
     </g>
    </g>
   </g>
   <g id="text_25">
    <g clip-path="url(#pc572181903)">
     <!-- 24 -->
     <g transform="translate(382.527487 97.001604) scale(0.12 -0.12)">
      <use xlink:href="#DejaVuSans-32"/>
      <use xlink:href="#DejaVuSans-34" transform="translate(63.623047 0)"/>
     </g>
    </g>
   </g>
   <g id="text_26">
    <g clip-path="url(#pc572181903)">
     <!-- 25 -->
     <g transform="translate(162.57703 127.018563) scale(0.12 -0.12)">
      <use xlink:href="#DejaVuSans-32"/>
      <use xlink:href="#DejaVuSans-35" transform="translate(63.623047 0)"/>
     </g>
    </g>
   </g>
   <g id="text_27">
    <g clip-path="url(#pc572181903)">
     <!-- 26 -->
     <g transform="translate(220.154853 130.219295) scale(0.12 -0.12)">
      <use xlink:href="#DejaVuSans-32"/>
      <use xlink:href="#DejaVuSans-36" transform="translate(63.623047 0)"/>
     </g>
    </g>
   </g>
   <g id="text_28">
    <g clip-path="url(#pc572181903)">
     <!-- 27 -->
     <g transform="translate(86.140648 134.827665) scale(0.12 -0.12)">
      <use xlink:href="#DejaVuSans-32"/>
      <use xlink:href="#DejaVuSans-37" transform="translate(63.623047 0)"/>
     </g>
    </g>
   </g>
   <g id="text_29">
    <g clip-path="url(#pc572181903)">
     <!-- 28 -->
     <g transform="translate(42.348471 295.540804) scale(0.12 -0.12)">
      <use xlink:href="#DejaVuSans-32"/>
      <use xlink:href="#DejaVuSans-38" transform="translate(63.623047 0)"/>
     </g>
    </g>
   </g>
   <g id="text_30">
    <g clip-path="url(#pc572181903)">
     <!-- 29 -->
     <g transform="translate(161.707999 353.323001) scale(0.12 -0.12)">
      <use xlink:href="#DejaVuSans-32"/>
      <use xlink:href="#DejaVuSans-39" transform="translate(63.623047 0)"/>
     </g>
    </g>
   </g>
   <g id="text_31">
    <g clip-path="url(#pc572181903)">
     <!-- 30 -->
     <g transform="translate(103.583261 353.301489) scale(0.12 -0.12)">
      <use xlink:href="#DejaVuSans-33"/>
      <use xlink:href="#DejaVuSans-30" transform="translate(63.623047 0)"/>
     </g>
    </g>
   </g>
   <g id="text_32">
    <g clip-path="url(#pc572181903)">
     <!-- 31 -->
     <g transform="translate(91.245545 323.396736) scale(0.12 -0.12)">
      <use xlink:href="#DejaVuSans-33"/>
      <use xlink:href="#DejaVuSans-31" transform="translate(63.623047 0)"/>
     </g>
    </g>
   </g>
   <g id="text_33">
    <g clip-path="url(#pc572181903)">
     <!-- 32 -->
     <g transform="translate(197.299371 369.090469) scale(0.12 -0.12)">
      <use xlink:href="#DejaVuSans-33"/>
      <use xlink:href="#DejaVuSans-32" transform="translate(63.623047 0)"/>
     </g>
    </g>
   </g>
   <g id="text_34">
    <g clip-path="url(#pc572181903)">
     <!-- 33 -->
     <g transform="translate(415.962826 62.557695) scale(0.12 -0.12)">
      <use xlink:href="#DejaVuSans-33"/>
      <use xlink:href="#DejaVuSans-33" transform="translate(63.623047 0)"/>
     </g>
    </g>
   </g>
   <g id="text_35">
    <g clip-path="url(#pc572181903)">
     <!-- 34 -->
     <g transform="translate(420.993692 311.631551) scale(0.12 -0.12)">
      <use xlink:href="#DejaVuSans-33"/>
      <use xlink:href="#DejaVuSans-34" transform="translate(63.623047 0)"/>
     </g>
    </g>
   </g>
   <g id="text_36">
    <g clip-path="url(#pc572181903)">
     <!-- 35 -->
     <g transform="translate(478.416936 314.735785) scale(0.12 -0.12)">
      <use xlink:href="#DejaVuSans-33"/>
      <use xlink:href="#DejaVuSans-35" transform="translate(63.623047 0)"/>
     </g>
    </g>
   </g>
   <g id="text_37">
    <g clip-path="url(#pc572181903)">
     <!-- 36 -->
     <g transform="translate(476.846179 281.3951) scale(0.12 -0.12)">
      <use xlink:href="#DejaVuSans-33"/>
      <use xlink:href="#DejaVuSans-36" transform="translate(63.623047 0)"/>
     </g>
    </g>
   </g>
   <g id="text_38">
    <g clip-path="url(#pc572181903)">
     <!-- 37 -->
     <g transform="translate(518.381529 265.68724) scale(0.12 -0.12)">
      <use xlink:href="#DejaVuSans-33"/>
      <use xlink:href="#DejaVuSans-37" transform="translate(63.623047 0)"/>
     </g>
    </g>
   </g>
   <g id="text_39">
    <g clip-path="url(#pc572181903)">
     <!-- 38 -->
     <g transform="translate(492.275059 164.816118) scale(0.12 -0.12)">
      <use xlink:href="#DejaVuSans-33"/>
      <use xlink:href="#DejaVuSans-38" transform="translate(63.623047 0)"/>
     </g>
    </g>
   </g>
   <g id="text_40">
    <g clip-path="url(#pc572181903)">
     <!-- 39 -->
     <g transform="translate(260.865591 389.586618) scale(0.12 -0.12)">
      <use xlink:href="#DejaVuSans-33"/>
      <use xlink:href="#DejaVuSans-39" transform="translate(63.623047 0)"/>
     </g>
    </g>
   </g>
   <g id="text_41">
    <g clip-path="url(#pc572181903)">
     <!-- 40 -->
     <g transform="translate(366.232976 378.601912) scale(0.12 -0.12)">
      <use xlink:href="#DejaVuSans-34"/>
      <use xlink:href="#DejaVuSans-30" transform="translate(63.623047 0)"/>
     </g>
    </g>
   </g>
   <g id="text_42">
    <g clip-path="url(#pc572181903)">
     <!-- 41 -->
     <g transform="translate(309.698293 397.823647) scale(0.12 -0.12)">
      <use xlink:href="#DejaVuSans-34"/>
      <use xlink:href="#DejaVuSans-31" transform="translate(63.623047 0)"/>
     </g>
    </g>
   </g>
   <g id="text_43">
    <g clip-path="url(#pc572181903)">
     <!-- 42 -->
     <g transform="translate(411.072584 372.275871) scale(0.12 -0.12)">
      <use xlink:href="#DejaVuSans-34"/>
      <use xlink:href="#DejaVuSans-32" transform="translate(63.623047 0)"/>
     </g>
    </g>
   </g>
   <g id="text_44">
    <g clip-path="url(#pc572181903)">
     <!-- 43 -->
     <g transform="translate(503.314761 218.761369) scale(0.12 -0.12)">
      <use xlink:href="#DejaVuSans-34"/>
      <use xlink:href="#DejaVuSans-33" transform="translate(63.623047 0)"/>
     </g>
    </g>
   </g>
   <g id="text_45">
    <g clip-path="url(#pc572181903)">
     <!-- 44 -->
     <g transform="translate(497.238147 125.952109) scale(0.12 -0.12)">
      <use xlink:href="#DejaVuSans-34"/>
      <use xlink:href="#DejaVuSans-34" transform="translate(63.623047 0)"/>
     </g>
    </g>
   </g>
   <g id="text_46">
    <g clip-path="url(#pc572181903)">
     <!-- 45 -->
     <g transform="translate(91.54156 99.478277) scale(0.12 -0.12)">
      <use xlink:href="#DejaVuSans-34"/>
      <use xlink:href="#DejaVuSans-35" transform="translate(63.623047 0)"/>
     </g>
    </g>
   </g>
   <g id="text_47">
    <g clip-path="url(#pc572181903)">
     <!-- 46 -->
     <g transform="translate(303.098739 259.730676) scale(0.12 -0.12)">
      <use xlink:href="#DejaVuSans-34"/>
      <use xlink:href="#DejaVuSans-36" transform="translate(63.623047 0)"/>
     </g>
    </g>
   </g>
   <g id="text_48">
    <!-- Colored Graph - ./new_graphs/myciel5 -->
    <g transform="translate(173.100937 -6) scale(0.12 -0.12)">
     <defs>
      <path id="DejaVuSans-43" d="M 4122 4306 
L 4122 3641 
Q 3803 3938 3442 4084 
Q 3081 4231 2675 4231 
Q 1875 4231 1450 3742 
Q 1025 3253 1025 2328 
Q 1025 1406 1450 917 
Q 1875 428 2675 428 
Q 3081 428 3442 575 
Q 3803 722 4122 1019 
L 4122 359 
Q 3791 134 3420 21 
Q 3050 -91 2638 -91 
Q 1578 -91 968 557 
Q 359 1206 359 2328 
Q 359 3453 968 4101 
Q 1578 4750 2638 4750 
Q 3056 4750 3426 4639 
Q 3797 4528 4122 4306 
z
" transform="scale(0.015625)"/>
      <path id="DejaVuSans-6f" d="M 1959 3097 
Q 1497 3097 1228 2736 
Q 959 2375 959 1747 
Q 959 1119 1226 758 
Q 1494 397 1959 397 
Q 2419 397 2687 759 
Q 2956 1122 2956 1747 
Q 2956 2369 2687 2733 
Q 2419 3097 1959 3097 
z
M 1959 3584 
Q 2709 3584 3137 3096 
Q 3566 2609 3566 1747 
Q 3566 888 3137 398 
Q 2709 -91 1959 -91 
Q 1206 -91 779 398 
Q 353 888 353 1747 
Q 353 2609 779 3096 
Q 1206 3584 1959 3584 
z
" transform="scale(0.015625)"/>
      <path id="DejaVuSans-6c" d="M 603 4863 
L 1178 4863 
L 1178 0 
L 603 0 
L 603 4863 
z
" transform="scale(0.015625)"/>
      <path id="DejaVuSans-72" d="M 2631 2963 
Q 2534 3019 2420 3045 
Q 2306 3072 2169 3072 
Q 1681 3072 1420 2755 
Q 1159 2438 1159 1844 
L 1159 0 
L 581 0 
L 581 3500 
L 1159 3500 
L 1159 2956 
Q 1341 3275 1631 3429 
Q 1922 3584 2338 3584 
Q 2397 3584 2469 3576 
Q 2541 3569 2628 3553 
L 2631 2963 
z
" transform="scale(0.015625)"/>
      <path id="DejaVuSans-65" d="M 3597 1894 
L 3597 1613 
L 953 1613 
Q 991 1019 1311 708 
Q 1631 397 2203 397 
Q 2534 397 2845 478 
Q 3156 559 3463 722 
L 3463 178 
Q 3153 47 2828 -22 
Q 2503 -91 2169 -91 
Q 1331 -91 842 396 
Q 353 884 353 1716 
Q 353 2575 817 3079 
Q 1281 3584 2069 3584 
Q 2775 3584 3186 3129 
Q 3597 2675 3597 1894 
z
M 3022 2063 
Q 3016 2534 2758 2815 
Q 2500 3097 2075 3097 
Q 1594 3097 1305 2825 
Q 1016 2553 972 2059 
L 3022 2063 
z
" transform="scale(0.015625)"/>
      <path id="DejaVuSans-64" d="M 2906 2969 
L 2906 4863 
L 3481 4863 
L 3481 0 
L 2906 0 
L 2906 525 
Q 2725 213 2448 61 
Q 2172 -91 1784 -91 
Q 1150 -91 751 415 
Q 353 922 353 1747 
Q 353 2572 751 3078 
Q 1150 3584 1784 3584 
Q 2172 3584 2448 3432 
Q 2725 3281 2906 2969 
z
M 947 1747 
Q 947 1113 1208 752 
Q 1469 391 1925 391 
Q 2381 391 2643 752 
Q 2906 1113 2906 1747 
Q 2906 2381 2643 2742 
Q 2381 3103 1925 3103 
Q 1469 3103 1208 2742 
Q 947 2381 947 1747 
z
" transform="scale(0.015625)"/>
      <path id="DejaVuSans-20" transform="scale(0.015625)"/>
      <path id="DejaVuSans-47" d="M 3809 666 
L 3809 1919 
L 2778 1919 
L 2778 2438 
L 4434 2438 
L 4434 434 
Q 4069 175 3628 42 
Q 3188 -91 2688 -91 
Q 1594 -91 976 548 
Q 359 1188 359 2328 
Q 359 3472 976 4111 
Q 1594 4750 2688 4750 
Q 3144 4750 3555 4637 
Q 3966 4525 4313 4306 
L 4313 3634 
Q 3963 3931 3569 4081 
Q 3175 4231 2741 4231 
Q 1884 4231 1454 3753 
Q 1025 3275 1025 2328 
Q 1025 1384 1454 906 
Q 1884 428 2741 428 
Q 3075 428 3337 486 
Q 3600 544 3809 666 
z
" transform="scale(0.015625)"/>
      <path id="DejaVuSans-61" d="M 2194 1759 
Q 1497 1759 1228 1600 
Q 959 1441 959 1056 
Q 959 750 1161 570 
Q 1363 391 1709 391 
Q 2188 391 2477 730 
Q 2766 1069 2766 1631 
L 2766 1759 
L 2194 1759 
z
M 3341 1997 
L 3341 0 
L 2766 0 
L 2766 531 
Q 2569 213 2275 61 
Q 1981 -91 1556 -91 
Q 1019 -91 701 211 
Q 384 513 384 1019 
Q 384 1609 779 1909 
Q 1175 2209 1959 2209 
L 2766 2209 
L 2766 2266 
Q 2766 2663 2505 2880 
Q 2244 3097 1772 3097 
Q 1472 3097 1187 3025 
Q 903 2953 641 2809 
L 641 3341 
Q 956 3463 1253 3523 
Q 1550 3584 1831 3584 
Q 2591 3584 2966 3190 
Q 3341 2797 3341 1997 
z
" transform="scale(0.015625)"/>
      <path id="DejaVuSans-70" d="M 1159 525 
L 1159 -1331 
L 581 -1331 
L 581 3500 
L 1159 3500 
L 1159 2969 
Q 1341 3281 1617 3432 
Q 1894 3584 2278 3584 
Q 2916 3584 3314 3078 
Q 3713 2572 3713 1747 
Q 3713 922 3314 415 
Q 2916 -91 2278 -91 
Q 1894 -91 1617 61 
Q 1341 213 1159 525 
z
M 3116 1747 
Q 3116 2381 2855 2742 
Q 2594 3103 2138 3103 
Q 1681 3103 1420 2742 
Q 1159 2381 1159 1747 
Q 1159 1113 1420 752 
Q 1681 391 2138 391 
Q 2594 391 2855 752 
Q 3116 1113 3116 1747 
z
" transform="scale(0.015625)"/>
      <path id="DejaVuSans-68" d="M 3513 2113 
L 3513 0 
L 2938 0 
L 2938 2094 
Q 2938 2591 2744 2837 
Q 2550 3084 2163 3084 
Q 1697 3084 1428 2787 
Q 1159 2491 1159 1978 
L 1159 0 
L 581 0 
L 581 4863 
L 1159 4863 
L 1159 2956 
Q 1366 3272 1645 3428 
Q 1925 3584 2291 3584 
Q 2894 3584 3203 3211 
Q 3513 2838 3513 2113 
z
" transform="scale(0.015625)"/>
      <path id="DejaVuSans-2d" d="M 313 2009 
L 1997 2009 
L 1997 1497 
L 313 1497 
L 313 2009 
z
" transform="scale(0.015625)"/>
      <path id="DejaVuSans-2e" d="M 684 794 
L 1344 794 
L 1344 0 
L 684 0 
L 684 794 
z
" transform="scale(0.015625)"/>
      <path id="DejaVuSans-2f" d="M 1625 4666 
L 2156 4666 
L 531 -594 
L 0 -594 
L 1625 4666 
z
" transform="scale(0.015625)"/>
      <path id="DejaVuSans-6e" d="M 3513 2113 
L 3513 0 
L 2938 0 
L 2938 2094 
Q 2938 2591 2744 2837 
Q 2550 3084 2163 3084 
Q 1697 3084 1428 2787 
Q 1159 2491 1159 1978 
L 1159 0 
L 581 0 
L 581 3500 
L 1159 3500 
L 1159 2956 
Q 1366 3272 1645 3428 
Q 1925 3584 2291 3584 
Q 2894 3584 3203 3211 
Q 3513 2838 3513 2113 
z
" transform="scale(0.015625)"/>
      <path id="DejaVuSans-77" d="M 269 3500 
L 844 3500 
L 1563 769 
L 2278 3500 
L 2956 3500 
L 3675 769 
L 4391 3500 
L 4966 3500 
L 4050 0 
L 3372 0 
L 2619 2869 
L 1863 0 
L 1184 0 
L 269 3500 
z
" transform="scale(0.015625)"/>
      <path id="DejaVuSans-5f" d="M 3263 -1063 
L 3263 -1509 
L -63 -1509 
L -63 -1063 
L 3263 -1063 
z
" transform="scale(0.015625)"/>
      <path id="DejaVuSans-67" d="M 2906 1791 
Q 2906 2416 2648 2759 
Q 2391 3103 1925 3103 
Q 1463 3103 1205 2759 
Q 947 2416 947 1791 
Q 947 1169 1205 825 
Q 1463 481 1925 481 
Q 2391 481 2648 825 
Q 2906 1169 2906 1791 
z
M 3481 434 
Q 3481 -459 3084 -895 
Q 2688 -1331 1869 -1331 
Q 1566 -1331 1297 -1286 
Q 1028 -1241 775 -1147 
L 775 -588 
Q 1028 -725 1275 -790 
Q 1522 -856 1778 -856 
Q 2344 -856 2625 -561 
Q 2906 -266 2906 331 
L 2906 616 
Q 2728 306 2450 153 
Q 2172 0 1784 0 
Q 1141 0 747 490 
Q 353 981 353 1791 
Q 353 2603 747 3093 
Q 1141 3584 1784 3584 
Q 2172 3584 2450 3431 
Q 2728 3278 2906 2969 
L 2906 3500 
L 3481 3500 
L 3481 434 
z
" transform="scale(0.015625)"/>
      <path id="DejaVuSans-73" d="M 2834 3397 
L 2834 2853 
Q 2591 2978 2328 3040 
Q 2066 3103 1784 3103 
Q 1356 3103 1142 2972 
Q 928 2841 928 2578 
Q 928 2378 1081 2264 
Q 1234 2150 1697 2047 
L 1894 2003 
Q 2506 1872 2764 1633 
Q 3022 1394 3022 966 
Q 3022 478 2636 193 
Q 2250 -91 1575 -91 
Q 1294 -91 989 -36 
Q 684 19 347 128 
L 347 722 
Q 666 556 975 473 
Q 1284 391 1588 391 
Q 1994 391 2212 530 
Q 2431 669 2431 922 
Q 2431 1156 2273 1281 
Q 2116 1406 1581 1522 
L 1381 1569 
Q 847 1681 609 1914 
Q 372 2147 372 2553 
Q 372 3047 722 3315 
Q 1072 3584 1716 3584 
Q 2034 3584 2315 3537 
Q 2597 3491 2834 3397 
z
" transform="scale(0.015625)"/>
      <path id="DejaVuSans-6d" d="M 3328 2828 
Q 3544 3216 3844 3400 
Q 4144 3584 4550 3584 
Q 5097 3584 5394 3201 
Q 5691 2819 5691 2113 
L 5691 0 
L 5113 0 
L 5113 2094 
Q 5113 2597 4934 2840 
Q 4756 3084 4391 3084 
Q 3944 3084 3684 2787 
Q 3425 2491 3425 1978 
L 3425 0 
L 2847 0 
L 2847 2094 
Q 2847 2600 2669 2842 
Q 2491 3084 2119 3084 
Q 1678 3084 1418 2786 
Q 1159 2488 1159 1978 
L 1159 0 
L 581 0 
L 581 3500 
L 1159 3500 
L 1159 2956 
Q 1356 3278 1631 3431 
Q 1906 3584 2284 3584 
Q 2666 3584 2933 3390 
Q 3200 3197 3328 2828 
z
" transform="scale(0.015625)"/>
      <path id="DejaVuSans-79" d="M 2059 -325 
Q 1816 -950 1584 -1140 
Q 1353 -1331 966 -1331 
L 506 -1331 
L 506 -850 
L 844 -850 
Q 1081 -850 1212 -737 
Q 1344 -625 1503 -206 
L 1606 56 
L 191 3500 
L 800 3500 
L 1894 763 
L 2988 3500 
L 3597 3500 
L 2059 -325 
z
" transform="scale(0.015625)"/>
      <path id="DejaVuSans-63" d="M 3122 3366 
L 3122 2828 
Q 2878 2963 2633 3030 
Q 2388 3097 2138 3097 
Q 1578 3097 1268 2742 
Q 959 2388 959 1747 
Q 959 1106 1268 751 
Q 1578 397 2138 397 
Q 2388 397 2633 464 
Q 2878 531 3122 666 
L 3122 134 
Q 2881 22 2623 -34 
Q 2366 -91 2075 -91 
Q 1284 -91 818 406 
Q 353 903 353 1747 
Q 353 2603 823 3093 
Q 1294 3584 2113 3584 
Q 2378 3584 2631 3529 
Q 2884 3475 3122 3366 
z
" transform="scale(0.015625)"/>
      <path id="DejaVuSans-69" d="M 603 3500 
L 1178 3500 
L 1178 0 
L 603 0 
L 603 3500 
z
M 603 4863 
L 1178 4863 
L 1178 4134 
L 603 4134 
L 603 4863 
z
" transform="scale(0.015625)"/>
     </defs>
     <use xlink:href="#DejaVuSans-43"/>
     <use xlink:href="#DejaVuSans-6f" transform="translate(69.824219 0)"/>
     <use xlink:href="#DejaVuSans-6c" transform="translate(131.005859 0)"/>
     <use xlink:href="#DejaVuSans-6f" transform="translate(158.789062 0)"/>
     <use xlink:href="#DejaVuSans-72" transform="translate(219.970703 0)"/>
     <use xlink:href="#DejaVuSans-65" transform="translate(258.833984 0)"/>
     <use xlink:href="#DejaVuSans-64" transform="translate(320.357422 0)"/>
     <use xlink:href="#DejaVuSans-20" transform="translate(383.833984 0)"/>
     <use xlink:href="#DejaVuSans-47" transform="translate(415.621094 0)"/>
     <use xlink:href="#DejaVuSans-72" transform="translate(493.111328 0)"/>
     <use xlink:href="#DejaVuSans-61" transform="translate(534.224609 0)"/>
     <use xlink:href="#DejaVuSans-70" transform="translate(595.503906 0)"/>
     <use xlink:href="#DejaVuSans-68" transform="translate(658.980469 0)"/>
     <use xlink:href="#DejaVuSans-20" transform="translate(722.359375 0)"/>
     <use xlink:href="#DejaVuSans-2d" transform="translate(754.146484 0)"/>
     <use xlink:href="#DejaVuSans-20" transform="translate(790.230469 0)"/>
     <use xlink:href="#DejaVuSans-2e" transform="translate(822.017578 0)"/>
     <use xlink:href="#DejaVuSans-2f" transform="translate(853.804688 0)"/>
     <use xlink:href="#DejaVuSans-6e" transform="translate(887.496094 0)"/>
     <use xlink:href="#DejaVuSans-65" transform="translate(950.875 0)"/>
     <use xlink:href="#DejaVuSans-77" transform="translate(1012.398438 0)"/>
     <use xlink:href="#DejaVuSans-5f" transform="translate(1094.185547 0)"/>
     <use xlink:href="#DejaVuSans-67" transform="translate(1144.185547 0)"/>
     <use xlink:href="#DejaVuSans-72" transform="translate(1207.662109 0)"/>
     <use xlink:href="#DejaVuSans-61" transform="translate(1248.775391 0)"/>
     <use xlink:href="#DejaVuSans-70" transform="translate(1310.054688 0)"/>
     <use xlink:href="#DejaVuSans-68" transform="translate(1373.53125 0)"/>
     <use xlink:href="#DejaVuSans-73" transform="translate(1436.910156 0)"/>
     <use xlink:href="#DejaVuSans-2f" transform="translate(1489.009766 0)"/>
     <use xlink:href="#DejaVuSans-6d" transform="translate(1522.701172 0)"/>
     <use xlink:href="#DejaVuSans-79" transform="translate(1620.113281 0)"/>
     <use xlink:href="#DejaVuSans-63" transform="translate(1679.292969 0)"/>
     <use xlink:href="#DejaVuSans-69" transform="translate(1734.273438 0)"/>
     <use xlink:href="#DejaVuSans-65" transform="translate(1762.056641 0)"/>
     <use xlink:href="#DejaVuSans-6c" transform="translate(1823.580078 0)"/>
     <use xlink:href="#DejaVuSans-35" transform="translate(1851.363281 0)"/>
    </g>
   </g>
   <g id="legend_1">
    <g id="patch_2">
     <path d="M 611.8 110.746875 
L 679.45 110.746875 
Q 681.45 110.746875 681.45 108.746875 
L 681.45 7 
Q 681.45 5 679.45 5 
L 611.8 5 
Q 609.8 5 609.8 7 
L 609.8 108.746875 
Q 609.8 110.746875 611.8 110.746875 
z
" style="fill: #ffffff; opacity: 0.8; stroke: #cccccc; stroke-linejoin: miter"/>
    </g>
    <g id="text_49">
     <!-- Colors -->
     <g transform="translate(629.965625 16.598437) scale(0.1 -0.1)">
      <use xlink:href="#DejaVuSans-43"/>
      <use xlink:href="#DejaVuSans-6f" transform="translate(69.824219 0)"/>
      <use xlink:href="#DejaVuSans-6c" transform="translate(131.005859 0)"/>
      <use xlink:href="#DejaVuSans-6f" transform="translate(158.789062 0)"/>
      <use xlink:href="#DejaVuSans-72" transform="translate(219.970703 0)"/>
      <use xlink:href="#DejaVuSans-73" transform="translate(261.083984 0)"/>
     </g>
    </g>
    <g id="patch_3">
     <path d="M 613.8 31.276563 
L 633.8 31.276563 
L 633.8 24.276563 
L 613.8 24.276563 
z
" style="fill: #8000ff; stroke: #8000ff; stroke-linejoin: miter"/>
    </g>
    <g id="text_50">
     <!-- Color 0 -->
     <g transform="translate(641.8 31.276563) scale(0.1 -0.1)">
      <use xlink:href="#DejaVuSans-43"/>
      <use xlink:href="#DejaVuSans-6f" transform="translate(69.824219 0)"/>
      <use xlink:href="#DejaVuSans-6c" transform="translate(131.005859 0)"/>
      <use xlink:href="#DejaVuSans-6f" transform="translate(158.789062 0)"/>
      <use xlink:href="#DejaVuSans-72" transform="translate(219.970703 0)"/>
      <use xlink:href="#DejaVuSans-20" transform="translate(261.083984 0)"/>
      <use xlink:href="#DejaVuSans-30" transform="translate(292.871094 0)"/>
     </g>
    </g>
    <g id="patch_4">
     <path d="M 613.8 45.954688 
L 633.8 45.954688 
L 633.8 38.954688 
L 613.8 38.954688 
z
" style="fill: #1996f3; stroke: #1996f3; stroke-linejoin: miter"/>
    </g>
    <g id="text_51">
     <!-- Color 1 -->
     <g transform="translate(641.8 45.954688) scale(0.1 -0.1)">
      <use xlink:href="#DejaVuSans-43"/>
      <use xlink:href="#DejaVuSans-6f" transform="translate(69.824219 0)"/>
      <use xlink:href="#DejaVuSans-6c" transform="translate(131.005859 0)"/>
      <use xlink:href="#DejaVuSans-6f" transform="translate(158.789062 0)"/>
      <use xlink:href="#DejaVuSans-72" transform="translate(219.970703 0)"/>
      <use xlink:href="#DejaVuSans-20" transform="translate(261.083984 0)"/>
      <use xlink:href="#DejaVuSans-31" transform="translate(292.871094 0)"/>
     </g>
    </g>
    <g id="patch_5">
     <path d="M 613.8 60.632812 
L 633.8 60.632812 
L 633.8 53.632812 
L 613.8 53.632812 
z
" style="fill: #4df3ce; stroke: #4df3ce; stroke-linejoin: miter"/>
    </g>
    <g id="text_52">
     <!-- Color 2 -->
     <g transform="translate(641.8 60.632812) scale(0.1 -0.1)">
      <use xlink:href="#DejaVuSans-43"/>
      <use xlink:href="#DejaVuSans-6f" transform="translate(69.824219 0)"/>
      <use xlink:href="#DejaVuSans-6c" transform="translate(131.005859 0)"/>
      <use xlink:href="#DejaVuSans-6f" transform="translate(158.789062 0)"/>
      <use xlink:href="#DejaVuSans-72" transform="translate(219.970703 0)"/>
      <use xlink:href="#DejaVuSans-20" transform="translate(261.083984 0)"/>
      <use xlink:href="#DejaVuSans-32" transform="translate(292.871094 0)"/>
     </g>
    </g>
    <g id="patch_6">
     <path d="M 613.8 75.310938 
L 633.8 75.310938 
L 633.8 68.310938 
L 613.8 68.310938 
z
" style="fill: #b2f396; stroke: #b2f396; stroke-linejoin: miter"/>
    </g>
    <g id="text_53">
     <!-- Color 3 -->
     <g transform="translate(641.8 75.310938) scale(0.1 -0.1)">
      <use xlink:href="#DejaVuSans-43"/>
      <use xlink:href="#DejaVuSans-6f" transform="translate(69.824219 0)"/>
      <use xlink:href="#DejaVuSans-6c" transform="translate(131.005859 0)"/>
      <use xlink:href="#DejaVuSans-6f" transform="translate(158.789062 0)"/>
      <use xlink:href="#DejaVuSans-72" transform="translate(219.970703 0)"/>
      <use xlink:href="#DejaVuSans-20" transform="translate(261.083984 0)"/>
      <use xlink:href="#DejaVuSans-33" transform="translate(292.871094 0)"/>
     </g>
    </g>
    <g id="patch_7">
     <path d="M 613.8 89.989063 
L 633.8 89.989063 
L 633.8 82.989063 
L 613.8 82.989063 
z
" style="fill: #ff964f; stroke: #ff964f; stroke-linejoin: miter"/>
    </g>
    <g id="text_54">
     <!-- Color 4 -->
     <g transform="translate(641.8 89.989063) scale(0.1 -0.1)">
      <use xlink:href="#DejaVuSans-43"/>
      <use xlink:href="#DejaVuSans-6f" transform="translate(69.824219 0)"/>
      <use xlink:href="#DejaVuSans-6c" transform="translate(131.005859 0)"/>
      <use xlink:href="#DejaVuSans-6f" transform="translate(158.789062 0)"/>
      <use xlink:href="#DejaVuSans-72" transform="translate(219.970703 0)"/>
      <use xlink:href="#DejaVuSans-20" transform="translate(261.083984 0)"/>
      <use xlink:href="#DejaVuSans-34" transform="translate(292.871094 0)"/>
     </g>
    </g>
    <g id="patch_8">
     <path d="M 613.8 104.667188 
L 633.8 104.667188 
L 633.8 97.667188 
L 613.8 97.667188 
z
" style="fill: #ff0000; stroke: #ff0000; stroke-linejoin: miter"/>
    </g>
    <g id="text_55">
     <!-- Color 5 -->
     <g transform="translate(641.8 104.667188) scale(0.1 -0.1)">
      <use xlink:href="#DejaVuSans-43"/>
      <use xlink:href="#DejaVuSans-6f" transform="translate(69.824219 0)"/>
      <use xlink:href="#DejaVuSans-6c" transform="translate(131.005859 0)"/>
      <use xlink:href="#DejaVuSans-6f" transform="translate(158.789062 0)"/>
      <use xlink:href="#DejaVuSans-72" transform="translate(219.970703 0)"/>
      <use xlink:href="#DejaVuSans-20" transform="translate(261.083984 0)"/>
      <use xlink:href="#DejaVuSans-35" transform="translate(292.871094 0)"/>
     </g>
    </g>
   </g>
  </g>
 </g>
 <defs>
  <clipPath id="pc572181903">
   <rect x="0" y="0" width="576" height="432"/>
  </clipPath>
 </defs>
</svg>
