<?xml version="1.0" encoding="utf-8" standalone="no"?>
<!DOCTYPE svg PUBLIC "-//W3C//DTD SVG 1.1//EN"
  "http://www.w3.org/Graphics/SVG/1.1/DTD/svg11.dtd">
<svg xmlns:xlink="http://www.w3.org/1999/xlink" width="504pt" height="432pt" viewBox="0 0 504 432" xmlns="http://www.w3.org/2000/svg" version="1.1">
 <metadata>
  <rdf:RDF xmlns:dc="http://purl.org/dc/elements/1.1/" xmlns:cc="http://creativecommons.org/ns#" xmlns:rdf="http://www.w3.org/1999/02/22-rdf-syntax-ns#">
   <cc:Work>
    <dc:type rdf:resource="http://purl.org/dc/dcmitype/StillImage"/>
    <dc:date>2025-05-08T15:07:31.418331</dc:date>
    <dc:format>image/svg+xml</dc:format>
    <dc:creator>
     <cc:Agent>
      <dc:title>Matplotlib v3.9.3, https://matplotlib.org/</dc:title>
     </cc:Agent>
    </dc:creator>
   </cc:Work>
  </rdf:RDF>
 </metadata>
 <defs>
  <style type="text/css">*{stroke-linejoin: round; stroke-linecap: butt}</style>
 </defs>
 <g id="figure_1">
  <g id="patch_1">
   <path d="M 0 432 
L 504 432 
L 504 0 
L 0 0 
z
" style="fill: #ffffff"/>
  </g>
  <g id="axes_1">
   <g id="LineCollection_1">
    <path d="M 267.985843 290.757478 
L 323.875472 195.561658 
" clip-path="url(#p3d6ac8b70b)" style="fill: none; stroke: #d3d3d3"/>
    <path d="M 267.985843 290.757478 
L 250.224035 160.706987 
" clip-path="url(#p3d6ac8b70b)" style="fill: none; stroke: #d3d3d3"/>
    <path d="M 267.985843 290.757478 
L 239.968626 367.200073 
" clip-path="url(#p3d6ac8b70b)" style="fill: none; stroke: #d3d3d3"/>
    <path d="M 267.985843 290.757478 
L 138.761733 293.157642 
" clip-path="url(#p3d6ac8b70b)" style="fill: none; stroke: #d3d3d3"/>
    <path d="M 267.985843 290.757478 
L 195.980751 181.946477 
" clip-path="url(#p3d6ac8b70b)" style="fill: none; stroke: #d3d3d3"/>
    <path d="M 267.985843 290.757478 
L 153.495144 322.510801 
" clip-path="url(#p3d6ac8b70b)" style="fill: none; stroke: #d3d3d3"/>
    <path d="M 267.985843 290.757478 
L 404.256533 261.393998 
" clip-path="url(#p3d6ac8b70b)" style="fill: none; stroke: #d3d3d3"/>
    <path d="M 267.985843 290.757478 
L 355.55669 389.605015 
" clip-path="url(#p3d6ac8b70b)" style="fill: none; stroke: #d3d3d3"/>
    <path d="M 323.875472 195.561658 
L 290.282563 170.459168 
" clip-path="url(#p3d6ac8b70b)" style="fill: none; stroke: #d3d3d3"/>
    <path d="M 323.875472 195.561658 
L 135.758465 142.060723 
" clip-path="url(#p3d6ac8b70b)" style="fill: none; stroke: #d3d3d3"/>
    <path d="M 323.875472 195.561658 
L 178.642782 77.023036 
" clip-path="url(#p3d6ac8b70b)" style="fill: none; stroke: #d3d3d3"/>
    <path d="M 323.875472 195.561658 
L 313.883869 290.674581 
" clip-path="url(#p3d6ac8b70b)" style="fill: none; stroke: #d3d3d3"/>
    <path d="M 323.875472 195.561658 
L 328.516089 353.610952 
" clip-path="url(#p3d6ac8b70b)" style="fill: none; stroke: #d3d3d3"/>
    <path d="M 323.875472 195.561658 
L 391.546397 90.64471 
" clip-path="url(#p3d6ac8b70b)" style="fill: none; stroke: #d3d3d3"/>
    <path d="M 323.875472 195.561658 
L 421.519714 170.168235 
" clip-path="url(#p3d6ac8b70b)" style="fill: none; stroke: #d3d3d3"/>
    <path d="M 250.224035 160.706987 
L 230.409508 259.884657 
" clip-path="url(#p3d6ac8b70b)" style="fill: none; stroke: #d3d3d3"/>
    <path d="M 250.224035 160.706987 
L 135.758465 142.060723 
" clip-path="url(#p3d6ac8b70b)" style="fill: none; stroke: #d3d3d3"/>
    <path d="M 250.224035 160.706987 
L 114.927939 197.584472 
" clip-path="url(#p3d6ac8b70b)" style="fill: none; stroke: #d3d3d3"/>
    <path d="M 250.224035 160.706987 
L 313.883869 290.674581 
" clip-path="url(#p3d6ac8b70b)" style="fill: none; stroke: #d3d3d3"/>
    <path d="M 250.224035 160.706987 
L 154.876008 98.691279 
" clip-path="url(#p3d6ac8b70b)" style="fill: none; stroke: #d3d3d3"/>
    <path d="M 250.224035 160.706987 
L 391.546397 90.64471 
" clip-path="url(#p3d6ac8b70b)" style="fill: none; stroke: #d3d3d3"/>
    <path d="M 250.224035 160.706987 
L 322.297032 38.400526 
" clip-path="url(#p3d6ac8b70b)" style="fill: none; stroke: #d3d3d3"/>
    <path d="M 239.968626 367.200073 
L 290.282563 170.459168 
" clip-path="url(#p3d6ac8b70b)" style="fill: none; stroke: #d3d3d3"/>
    <path d="M 239.968626 367.200073 
L 281.754725 323.374953 
" clip-path="url(#p3d6ac8b70b)" style="fill: none; stroke: #d3d3d3"/>
    <path d="M 239.968626 367.200073 
L 295.437543 228.678982 
" clip-path="url(#p3d6ac8b70b)" style="fill: none; stroke: #d3d3d3"/>
    <path d="M 239.968626 367.200073 
L 313.883869 290.674581 
" clip-path="url(#p3d6ac8b70b)" style="fill: none; stroke: #d3d3d3"/>
    <path d="M 239.968626 367.200073 
L 328.516089 353.610952 
" clip-path="url(#p3d6ac8b70b)" style="fill: none; stroke: #d3d3d3"/>
    <path d="M 239.968626 367.200073 
L 125.199944 365.5238 
" clip-path="url(#p3d6ac8b70b)" style="fill: none; stroke: #d3d3d3"/>
    <path d="M 239.968626 367.200073 
L 117.445354 351.096368 
" clip-path="url(#p3d6ac8b70b)" style="fill: none; stroke: #d3d3d3"/>
    <path d="M 138.761733 293.157642 
L 230.409508 259.884657 
" clip-path="url(#p3d6ac8b70b)" style="fill: none; stroke: #d3d3d3"/>
    <path d="M 138.761733 293.157642 
L 281.754725 323.374953 
" clip-path="url(#p3d6ac8b70b)" style="fill: none; stroke: #d3d3d3"/>
    <path d="M 138.761733 293.157642 
L 235.572764 302.109193 
" clip-path="url(#p3d6ac8b70b)" style="fill: none; stroke: #d3d3d3"/>
    <path d="M 138.761733 293.157642 
L 313.883869 290.674581 
" clip-path="url(#p3d6ac8b70b)" style="fill: none; stroke: #d3d3d3"/>
    <path d="M 138.761733 293.157642 
L 154.876008 98.691279 
" clip-path="url(#p3d6ac8b70b)" style="fill: none; stroke: #d3d3d3"/>
    <path d="M 138.761733 293.157642 
L 125.199944 365.5238 
" clip-path="url(#p3d6ac8b70b)" style="fill: none; stroke: #d3d3d3"/>
    <path d="M 138.761733 293.157642 
L 52.028033 211.069307 
" clip-path="url(#p3d6ac8b70b)" style="fill: none; stroke: #d3d3d3"/>
    <path d="M 195.980751 181.946477 
L 290.282563 170.459168 
" clip-path="url(#p3d6ac8b70b)" style="fill: none; stroke: #d3d3d3"/>
    <path d="M 195.980751 181.946477 
L 135.758465 142.060723 
" clip-path="url(#p3d6ac8b70b)" style="fill: none; stroke: #d3d3d3"/>
    <path d="M 195.980751 181.946477 
L 178.642782 77.023036 
" clip-path="url(#p3d6ac8b70b)" style="fill: none; stroke: #d3d3d3"/>
    <path d="M 195.980751 181.946477 
L 329.275213 326.134737 
" clip-path="url(#p3d6ac8b70b)" style="fill: none; stroke: #d3d3d3"/>
    <path d="M 195.980751 181.946477 
L 346.987328 127.563668 
" clip-path="url(#p3d6ac8b70b)" style="fill: none; stroke: #d3d3d3"/>
    <path d="M 195.980751 181.946477 
L 139.685817 251.271272 
" clip-path="url(#p3d6ac8b70b)" style="fill: none; stroke: #d3d3d3"/>
    <path d="M 195.980751 181.946477 
L 187.863035 109.151528 
" clip-path="url(#p3d6ac8b70b)" style="fill: none; stroke: #d3d3d3"/>
    <path d="M 153.495144 322.510801 
L 230.409508 259.884657 
" clip-path="url(#p3d6ac8b70b)" style="fill: none; stroke: #d3d3d3"/>
    <path d="M 153.495144 322.510801 
L 135.758465 142.060723 
" clip-path="url(#p3d6ac8b70b)" style="fill: none; stroke: #d3d3d3"/>
    <path d="M 153.495144 322.510801 
L 114.927939 197.584472 
" clip-path="url(#p3d6ac8b70b)" style="fill: none; stroke: #d3d3d3"/>
    <path d="M 153.495144 322.510801 
L 329.275213 326.134737 
" clip-path="url(#p3d6ac8b70b)" style="fill: none; stroke: #d3d3d3"/>
    <path d="M 153.495144 322.510801 
L 307.928248 382.801011 
" clip-path="url(#p3d6ac8b70b)" style="fill: none; stroke: #d3d3d3"/>
    <path d="M 153.495144 322.510801 
L 139.685817 251.271272 
" clip-path="url(#p3d6ac8b70b)" style="fill: none; stroke: #d3d3d3"/>
    <path d="M 153.495144 322.510801 
L 172.801741 366.698232 
" clip-path="url(#p3d6ac8b70b)" style="fill: none; stroke: #d3d3d3"/>
    <path d="M 404.256533 261.393998 
L 290.282563 170.459168 
" clip-path="url(#p3d6ac8b70b)" style="fill: none; stroke: #d3d3d3"/>
    <path d="M 404.256533 261.393998 
L 281.754725 323.374953 
" clip-path="url(#p3d6ac8b70b)" style="fill: none; stroke: #d3d3d3"/>
    <path d="M 404.256533 261.393998 
L 295.437543 228.678982 
" clip-path="url(#p3d6ac8b70b)" style="fill: none; stroke: #d3d3d3"/>
    <path d="M 404.256533 261.393998 
L 329.275213 326.134737 
" clip-path="url(#p3d6ac8b70b)" style="fill: none; stroke: #d3d3d3"/>
    <path d="M 404.256533 261.393998 
L 346.987328 127.563668 
" clip-path="url(#p3d6ac8b70b)" style="fill: none; stroke: #d3d3d3"/>
    <path d="M 404.256533 261.393998 
L 425.491446 320.216099 
" clip-path="url(#p3d6ac8b70b)" style="fill: none; stroke: #d3d3d3"/>
    <path d="M 404.256533 261.393998 
L 446.450566 183.396805 
" clip-path="url(#p3d6ac8b70b)" style="fill: none; stroke: #d3d3d3"/>
    <path d="M 355.55669 389.605015 
L 230.409508 259.884657 
" clip-path="url(#p3d6ac8b70b)" style="fill: none; stroke: #d3d3d3"/>
    <path d="M 355.55669 389.605015 
L 281.754725 323.374953 
" clip-path="url(#p3d6ac8b70b)" style="fill: none; stroke: #d3d3d3"/>
    <path d="M 355.55669 389.605015 
L 235.572764 302.109193 
" clip-path="url(#p3d6ac8b70b)" style="fill: none; stroke: #d3d3d3"/>
    <path d="M 355.55669 389.605015 
L 329.275213 326.134737 
" clip-path="url(#p3d6ac8b70b)" style="fill: none; stroke: #d3d3d3"/>
    <path d="M 355.55669 389.605015 
L 307.928248 382.801011 
" clip-path="url(#p3d6ac8b70b)" style="fill: none; stroke: #d3d3d3"/>
    <path d="M 355.55669 389.605015 
L 425.491446 320.216099 
" clip-path="url(#p3d6ac8b70b)" style="fill: none; stroke: #d3d3d3"/>
    <path d="M 355.55669 389.605015 
L 438.385055 300.170918 
" clip-path="url(#p3d6ac8b70b)" style="fill: none; stroke: #d3d3d3"/>
    <path d="M 290.282563 170.459168 
L 264.712849 218.001915 
" clip-path="url(#p3d6ac8b70b)" style="fill: none; stroke: #d3d3d3"/>
    <path d="M 290.282563 170.459168 
L 182.627043 259.143168 
" clip-path="url(#p3d6ac8b70b)" style="fill: none; stroke: #d3d3d3"/>
    <path d="M 290.282563 170.459168 
L 215.674017 37.487603 
" clip-path="url(#p3d6ac8b70b)" style="fill: none; stroke: #d3d3d3"/>
    <path d="M 290.282563 170.459168 
L 358.916367 68.067004 
" clip-path="url(#p3d6ac8b70b)" style="fill: none; stroke: #d3d3d3"/>
    <path d="M 135.758465 142.060723 
L 285.333808 96.562021 
" clip-path="url(#p3d6ac8b70b)" style="fill: none; stroke: #d3d3d3"/>
    <path d="M 135.758465 142.060723 
L 239.090152 85.575135 
" clip-path="url(#p3d6ac8b70b)" style="fill: none; stroke: #d3d3d3"/>
    <path d="M 135.758465 142.060723 
L 60.682852 153.398953 
" clip-path="url(#p3d6ac8b70b)" style="fill: none; stroke: #d3d3d3"/>
    <path d="M 135.758465 142.060723 
L 43.735537 250.936679 
" clip-path="url(#p3d6ac8b70b)" style="fill: none; stroke: #d3d3d3"/>
    <path d="M 178.642782 77.023036 
L 264.712849 218.001915 
" clip-path="url(#p3d6ac8b70b)" style="fill: none; stroke: #d3d3d3"/>
    <path d="M 178.642782 77.023036 
L 285.333808 96.562021 
" clip-path="url(#p3d6ac8b70b)" style="fill: none; stroke: #d3d3d3"/>
    <path d="M 178.642782 77.023036 
L 288.318631 145.735397 
" clip-path="url(#p3d6ac8b70b)" style="fill: none; stroke: #d3d3d3"/>
    <path d="M 178.642782 77.023036 
L 215.674017 37.487603 
" clip-path="url(#p3d6ac8b70b)" style="fill: none; stroke: #d3d3d3"/>
    <path d="M 178.642782 77.023036 
L 60.682852 153.398953 
" clip-path="url(#p3d6ac8b70b)" style="fill: none; stroke: #d3d3d3"/>
    <path d="M 178.642782 77.023036 
L 71.520905 120.370319 
" clip-path="url(#p3d6ac8b70b)" style="fill: none; stroke: #d3d3d3"/>
    <path d="M 313.883869 290.674581 
L 419.95883 247.590855 
" clip-path="url(#p3d6ac8b70b)" style="fill: none; stroke: #d3d3d3"/>
    <path d="M 313.883869 290.674581 
L 353.428621 151.190346 
" clip-path="url(#p3d6ac8b70b)" style="fill: none; stroke: #d3d3d3"/>
    <path d="M 313.883869 290.674581 
L 270.240238 391.351998 
" clip-path="url(#p3d6ac8b70b)" style="fill: none; stroke: #d3d3d3"/>
    <path d="M 313.883869 290.674581 
L 192.363545 275.224477 
" clip-path="url(#p3d6ac8b70b)" style="fill: none; stroke: #d3d3d3"/>
    <path d="M 328.516089 353.610952 
L 264.712849 218.001915 
" clip-path="url(#p3d6ac8b70b)" style="fill: none; stroke: #d3d3d3"/>
    <path d="M 328.516089 353.610952 
L 182.627043 259.143168 
" clip-path="url(#p3d6ac8b70b)" style="fill: none; stroke: #d3d3d3"/>
    <path d="M 328.516089 353.610952 
L 419.95883 247.590855 
" clip-path="url(#p3d6ac8b70b)" style="fill: none; stroke: #d3d3d3"/>
    <path d="M 328.516089 353.610952 
L 394.512747 338.431754 
" clip-path="url(#p3d6ac8b70b)" style="fill: none; stroke: #d3d3d3"/>
    <path d="M 328.516089 353.610952 
L 270.240238 391.351998 
" clip-path="url(#p3d6ac8b70b)" style="fill: none; stroke: #d3d3d3"/>
    <path d="M 328.516089 353.610952 
L 231.153453 394.512397 
" clip-path="url(#p3d6ac8b70b)" style="fill: none; stroke: #d3d3d3"/>
    <path d="M 391.546397 90.64471 
L 285.333808 96.562021 
" clip-path="url(#p3d6ac8b70b)" style="fill: none; stroke: #d3d3d3"/>
    <path d="M 391.546397 90.64471 
L 239.090152 85.575135 
" clip-path="url(#p3d6ac8b70b)" style="fill: none; stroke: #d3d3d3"/>
    <path d="M 391.546397 90.64471 
L 419.95883 247.590855 
" clip-path="url(#p3d6ac8b70b)" style="fill: none; stroke: #d3d3d3"/>
    <path d="M 391.546397 90.64471 
L 353.428621 151.190346 
" clip-path="url(#p3d6ac8b70b)" style="fill: none; stroke: #d3d3d3"/>
    <path d="M 391.546397 90.64471 
L 460.264463 211.003638 
" clip-path="url(#p3d6ac8b70b)" style="fill: none; stroke: #d3d3d3"/>
    <path d="M 391.546397 90.64471 
L 433.62513 142.991803 
" clip-path="url(#p3d6ac8b70b)" style="fill: none; stroke: #d3d3d3"/>
    <path d="M 421.519714 170.168235 
L 264.712849 218.001915 
" clip-path="url(#p3d6ac8b70b)" style="fill: none; stroke: #d3d3d3"/>
    <path d="M 421.519714 170.168235 
L 285.333808 96.562021 
" clip-path="url(#p3d6ac8b70b)" style="fill: none; stroke: #d3d3d3"/>
    <path d="M 421.519714 170.168235 
L 288.318631 145.735397 
" clip-path="url(#p3d6ac8b70b)" style="fill: none; stroke: #d3d3d3"/>
    <path d="M 421.519714 170.168235 
L 419.95883 247.590855 
" clip-path="url(#p3d6ac8b70b)" style="fill: none; stroke: #d3d3d3"/>
    <path d="M 421.519714 170.168235 
L 394.512747 338.431754 
" clip-path="url(#p3d6ac8b70b)" style="fill: none; stroke: #d3d3d3"/>
    <path d="M 421.519714 170.168235 
L 460.264463 211.003638 
" clip-path="url(#p3d6ac8b70b)" style="fill: none; stroke: #d3d3d3"/>
    <path d="M 421.519714 170.168235 
L 455.904897 256.823436 
" clip-path="url(#p3d6ac8b70b)" style="fill: none; stroke: #d3d3d3"/>
    <path d="M 264.712849 218.001915 
L 222.717752 107.461386 
" clip-path="url(#p3d6ac8b70b)" style="fill: none; stroke: #d3d3d3"/>
    <path d="M 264.712849 218.001915 
L 132.159543 163.058251 
" clip-path="url(#p3d6ac8b70b)" style="fill: none; stroke: #d3d3d3"/>
    <path d="M 264.712849 218.001915 
L 213.595784 348.798957 
" clip-path="url(#p3d6ac8b70b)" style="fill: none; stroke: #d3d3d3"/>
    <path d="M 264.712849 218.001915 
L 367.465011 299.251768 
" clip-path="url(#p3d6ac8b70b)" style="fill: none; stroke: #d3d3d3"/>
    <path d="M 182.627043 259.143168 
L 222.717752 107.461386 
" clip-path="url(#p3d6ac8b70b)" style="fill: none; stroke: #d3d3d3"/>
    <path d="M 182.627043 259.143168 
L 295.437543 228.678982 
" clip-path="url(#p3d6ac8b70b)" style="fill: none; stroke: #d3d3d3"/>
    <path d="M 182.627043 259.143168 
L 229.040139 130.011126 
" clip-path="url(#p3d6ac8b70b)" style="fill: none; stroke: #d3d3d3"/>
    <path d="M 182.627043 259.143168 
L 213.595784 348.798957 
" clip-path="url(#p3d6ac8b70b)" style="fill: none; stroke: #d3d3d3"/>
    <path d="M 182.627043 259.143168 
L 117.445354 351.096368 
" clip-path="url(#p3d6ac8b70b)" style="fill: none; stroke: #d3d3d3"/>
    <path d="M 182.627043 259.143168 
L 73.611293 310.787411 
" clip-path="url(#p3d6ac8b70b)" style="fill: none; stroke: #d3d3d3"/>
    <path d="M 215.674017 37.487603 
L 222.717752 107.461386 
" clip-path="url(#p3d6ac8b70b)" style="fill: none; stroke: #d3d3d3"/>
    <path d="M 215.674017 37.487603 
L 132.159543 163.058251 
" clip-path="url(#p3d6ac8b70b)" style="fill: none; stroke: #d3d3d3"/>
    <path d="M 215.674017 37.487603 
L 346.987328 127.563668 
" clip-path="url(#p3d6ac8b70b)" style="fill: none; stroke: #d3d3d3"/>
    <path d="M 215.674017 37.487603 
L 304.91125 79.704707 
" clip-path="url(#p3d6ac8b70b)" style="fill: none; stroke: #d3d3d3"/>
    <path d="M 215.674017 37.487603 
L 187.863035 109.151528 
" clip-path="url(#p3d6ac8b70b)" style="fill: none; stroke: #d3d3d3"/>
    <path d="M 215.674017 37.487603 
L 172.673878 149.737837 
" clip-path="url(#p3d6ac8b70b)" style="fill: none; stroke: #d3d3d3"/>
    <path d="M 358.916367 68.067004 
L 222.717752 107.461386 
" clip-path="url(#p3d6ac8b70b)" style="fill: none; stroke: #d3d3d3"/>
    <path d="M 358.916367 68.067004 
L 295.437543 228.678982 
" clip-path="url(#p3d6ac8b70b)" style="fill: none; stroke: #d3d3d3"/>
    <path d="M 358.916367 68.067004 
L 229.040139 130.011126 
" clip-path="url(#p3d6ac8b70b)" style="fill: none; stroke: #d3d3d3"/>
    <path d="M 358.916367 68.067004 
L 346.987328 127.563668 
" clip-path="url(#p3d6ac8b70b)" style="fill: none; stroke: #d3d3d3"/>
    <path d="M 358.916367 68.067004 
L 304.91125 79.704707 
" clip-path="url(#p3d6ac8b70b)" style="fill: none; stroke: #d3d3d3"/>
    <path d="M 358.916367 68.067004 
L 446.450566 183.396805 
" clip-path="url(#p3d6ac8b70b)" style="fill: none; stroke: #d3d3d3"/>
    <path d="M 358.916367 68.067004 
L 415.296166 122.915848 
" clip-path="url(#p3d6ac8b70b)" style="fill: none; stroke: #d3d3d3"/>
    <path d="M 230.409508 259.884657 
L 222.717752 107.461386 
" clip-path="url(#p3d6ac8b70b)" style="fill: none; stroke: #d3d3d3"/>
    <path d="M 230.409508 259.884657 
L 132.159543 163.058251 
" clip-path="url(#p3d6ac8b70b)" style="fill: none; stroke: #d3d3d3"/>
    <path d="M 230.409508 259.884657 
L 213.595784 348.798957 
" clip-path="url(#p3d6ac8b70b)" style="fill: none; stroke: #d3d3d3"/>
    <path d="M 230.409508 259.884657 
L 367.465011 299.251768 
" clip-path="url(#p3d6ac8b70b)" style="fill: none; stroke: #d3d3d3"/>
    <path d="M 114.927939 197.584472 
L 222.717752 107.461386 
" clip-path="url(#p3d6ac8b70b)" style="fill: none; stroke: #d3d3d3"/>
    <path d="M 114.927939 197.584472 
L 239.090152 85.575135 
" clip-path="url(#p3d6ac8b70b)" style="fill: none; stroke: #d3d3d3"/>
    <path d="M 114.927939 197.584472 
L 229.040139 130.011126 
" clip-path="url(#p3d6ac8b70b)" style="fill: none; stroke: #d3d3d3"/>
    <path d="M 114.927939 197.584472 
L 213.595784 348.798957 
" clip-path="url(#p3d6ac8b70b)" style="fill: none; stroke: #d3d3d3"/>
    <path d="M 114.927939 197.584472 
L 43.735537 250.936679 
" clip-path="url(#p3d6ac8b70b)" style="fill: none; stroke: #d3d3d3"/>
    <path d="M 114.927939 197.584472 
L 73.611293 310.787411 
" clip-path="url(#p3d6ac8b70b)" style="fill: none; stroke: #d3d3d3"/>
    <path d="M 154.876008 98.691279 
L 222.717752 107.461386 
" clip-path="url(#p3d6ac8b70b)" style="fill: none; stroke: #d3d3d3"/>
    <path d="M 154.876008 98.691279 
L 132.159543 163.058251 
" clip-path="url(#p3d6ac8b70b)" style="fill: none; stroke: #d3d3d3"/>
    <path d="M 154.876008 98.691279 
L 353.428621 151.190346 
" clip-path="url(#p3d6ac8b70b)" style="fill: none; stroke: #d3d3d3"/>
    <path d="M 154.876008 98.691279 
L 304.91125 79.704707 
" clip-path="url(#p3d6ac8b70b)" style="fill: none; stroke: #d3d3d3"/>
    <path d="M 154.876008 98.691279 
L 192.363545 275.224477 
" clip-path="url(#p3d6ac8b70b)" style="fill: none; stroke: #d3d3d3"/>
    <path d="M 154.876008 98.691279 
L 172.673878 149.737837 
" clip-path="url(#p3d6ac8b70b)" style="fill: none; stroke: #d3d3d3"/>
    <path d="M 322.297032 38.400526 
L 222.717752 107.461386 
" clip-path="url(#p3d6ac8b70b)" style="fill: none; stroke: #d3d3d3"/>
    <path d="M 322.297032 38.400526 
L 239.090152 85.575135 
" clip-path="url(#p3d6ac8b70b)" style="fill: none; stroke: #d3d3d3"/>
    <path d="M 322.297032 38.400526 
L 229.040139 130.011126 
" clip-path="url(#p3d6ac8b70b)" style="fill: none; stroke: #d3d3d3"/>
    <path d="M 322.297032 38.400526 
L 353.428621 151.190346 
" clip-path="url(#p3d6ac8b70b)" style="fill: none; stroke: #d3d3d3"/>
    <path d="M 322.297032 38.400526 
L 304.91125 79.704707 
" clip-path="url(#p3d6ac8b70b)" style="fill: none; stroke: #d3d3d3"/>
    <path d="M 322.297032 38.400526 
L 433.62513 142.991803 
" clip-path="url(#p3d6ac8b70b)" style="fill: none; stroke: #d3d3d3"/>
    <path d="M 322.297032 38.400526 
L 415.296166 122.915848 
" clip-path="url(#p3d6ac8b70b)" style="fill: none; stroke: #d3d3d3"/>
    <path d="M 132.159543 163.058251 
L 235.572764 302.109193 
" clip-path="url(#p3d6ac8b70b)" style="fill: none; stroke: #d3d3d3"/>
    <path d="M 132.159543 163.058251 
L 288.318631 145.735397 
" clip-path="url(#p3d6ac8b70b)" style="fill: none; stroke: #d3d3d3"/>
    <path d="M 132.159543 163.058251 
L 52.028033 211.069307 
" clip-path="url(#p3d6ac8b70b)" style="fill: none; stroke: #d3d3d3"/>
    <path d="M 132.159543 163.058251 
L 71.520905 120.370319 
" clip-path="url(#p3d6ac8b70b)" style="fill: none; stroke: #d3d3d3"/>
    <path d="M 213.595784 348.798957 
L 307.928248 382.801011 
" clip-path="url(#p3d6ac8b70b)" style="fill: none; stroke: #d3d3d3"/>
    <path d="M 213.595784 348.798957 
L 394.512747 338.431754 
" clip-path="url(#p3d6ac8b70b)" style="fill: none; stroke: #d3d3d3"/>
    <path d="M 213.595784 348.798957 
L 172.801741 366.698232 
" clip-path="url(#p3d6ac8b70b)" style="fill: none; stroke: #d3d3d3"/>
    <path d="M 213.595784 348.798957 
L 231.153453 394.512397 
" clip-path="url(#p3d6ac8b70b)" style="fill: none; stroke: #d3d3d3"/>
    <path d="M 367.465011 299.251768 
L 235.572764 302.109193 
" clip-path="url(#p3d6ac8b70b)" style="fill: none; stroke: #d3d3d3"/>
    <path d="M 367.465011 299.251768 
L 288.318631 145.735397 
" clip-path="url(#p3d6ac8b70b)" style="fill: none; stroke: #d3d3d3"/>
    <path d="M 367.465011 299.251768 
L 307.928248 382.801011 
" clip-path="url(#p3d6ac8b70b)" style="fill: none; stroke: #d3d3d3"/>
    <path d="M 367.465011 299.251768 
L 394.512747 338.431754 
" clip-path="url(#p3d6ac8b70b)" style="fill: none; stroke: #d3d3d3"/>
    <path d="M 367.465011 299.251768 
L 438.385055 300.170918 
" clip-path="url(#p3d6ac8b70b)" style="fill: none; stroke: #d3d3d3"/>
    <path d="M 367.465011 299.251768 
L 455.904897 256.823436 
" clip-path="url(#p3d6ac8b70b)" style="fill: none; stroke: #d3d3d3"/>
    <path d="M 285.333808 96.562021 
L 156.992545 216.081617 
" clip-path="url(#p3d6ac8b70b)" style="fill: none; stroke: #d3d3d3"/>
    <path d="M 285.333808 96.562021 
L 370.000095 199.424257 
" clip-path="url(#p3d6ac8b70b)" style="fill: none; stroke: #d3d3d3"/>
    <path d="M 239.090152 85.575135 
L 156.992545 216.081617 
" clip-path="url(#p3d6ac8b70b)" style="fill: none; stroke: #d3d3d3"/>
    <path d="M 239.090152 85.575135 
L 370.000095 199.424257 
" clip-path="url(#p3d6ac8b70b)" style="fill: none; stroke: #d3d3d3"/>
    <path d="M 60.682852 153.398953 
L 156.992545 216.081617 
" clip-path="url(#p3d6ac8b70b)" style="fill: none; stroke: #d3d3d3"/>
    <path d="M 60.682852 153.398953 
L 139.685817 251.271272 
" clip-path="url(#p3d6ac8b70b)" style="fill: none; stroke: #d3d3d3"/>
    <path d="M 60.682852 153.398953 
L 187.863035 109.151528 
" clip-path="url(#p3d6ac8b70b)" style="fill: none; stroke: #d3d3d3"/>
    <path d="M 60.682852 153.398953 
L 111.785897 258.126751 
" clip-path="url(#p3d6ac8b70b)" style="fill: none; stroke: #d3d3d3"/>
    <path d="M 43.735537 250.936679 
L 156.992545 216.081617 
" clip-path="url(#p3d6ac8b70b)" style="fill: none; stroke: #d3d3d3"/>
    <path d="M 43.735537 250.936679 
L 139.685817 251.271272 
" clip-path="url(#p3d6ac8b70b)" style="fill: none; stroke: #d3d3d3"/>
    <path d="M 43.735537 250.936679 
L 172.801741 366.698232 
" clip-path="url(#p3d6ac8b70b)" style="fill: none; stroke: #d3d3d3"/>
    <path d="M 43.735537 250.936679 
L 111.785897 258.126751 
" clip-path="url(#p3d6ac8b70b)" style="fill: none; stroke: #d3d3d3"/>
    <path d="M 281.754725 323.374953 
L 156.992545 216.081617 
" clip-path="url(#p3d6ac8b70b)" style="fill: none; stroke: #d3d3d3"/>
    <path d="M 281.754725 323.374953 
L 370.000095 199.424257 
" clip-path="url(#p3d6ac8b70b)" style="fill: none; stroke: #d3d3d3"/>
    <path d="M 295.437543 228.678982 
L 156.992545 216.081617 
" clip-path="url(#p3d6ac8b70b)" style="fill: none; stroke: #d3d3d3"/>
    <path d="M 295.437543 228.678982 
L 370.000095 199.424257 
" clip-path="url(#p3d6ac8b70b)" style="fill: none; stroke: #d3d3d3"/>
    <path d="M 125.199944 365.5238 
L 156.992545 216.081617 
" clip-path="url(#p3d6ac8b70b)" style="fill: none; stroke: #d3d3d3"/>
    <path d="M 125.199944 365.5238 
L 270.240238 391.351998 
" clip-path="url(#p3d6ac8b70b)" style="fill: none; stroke: #d3d3d3"/>
    <path d="M 125.199944 365.5238 
L 192.363545 275.224477 
" clip-path="url(#p3d6ac8b70b)" style="fill: none; stroke: #d3d3d3"/>
    <path d="M 125.199944 365.5238 
L 111.785897 258.126751 
" clip-path="url(#p3d6ac8b70b)" style="fill: none; stroke: #d3d3d3"/>
    <path d="M 117.445354 351.096368 
L 156.992545 216.081617 
" clip-path="url(#p3d6ac8b70b)" style="fill: none; stroke: #d3d3d3"/>
    <path d="M 117.445354 351.096368 
L 270.240238 391.351998 
" clip-path="url(#p3d6ac8b70b)" style="fill: none; stroke: #d3d3d3"/>
    <path d="M 117.445354 351.096368 
L 231.153453 394.512397 
" clip-path="url(#p3d6ac8b70b)" style="fill: none; stroke: #d3d3d3"/>
    <path d="M 117.445354 351.096368 
L 111.785897 258.126751 
" clip-path="url(#p3d6ac8b70b)" style="fill: none; stroke: #d3d3d3"/>
    <path d="M 288.318631 145.735397 
L 156.992545 216.081617 
" clip-path="url(#p3d6ac8b70b)" style="fill: none; stroke: #d3d3d3"/>
    <path d="M 288.318631 145.735397 
L 370.000095 199.424257 
" clip-path="url(#p3d6ac8b70b)" style="fill: none; stroke: #d3d3d3"/>
    <path d="M 71.520905 120.370319 
L 156.992545 216.081617 
" clip-path="url(#p3d6ac8b70b)" style="fill: none; stroke: #d3d3d3"/>
    <path d="M 71.520905 120.370319 
L 187.863035 109.151528 
" clip-path="url(#p3d6ac8b70b)" style="fill: none; stroke: #d3d3d3"/>
    <path d="M 71.520905 120.370319 
L 172.673878 149.737837 
" clip-path="url(#p3d6ac8b70b)" style="fill: none; stroke: #d3d3d3"/>
    <path d="M 71.520905 120.370319 
L 111.785897 258.126751 
" clip-path="url(#p3d6ac8b70b)" style="fill: none; stroke: #d3d3d3"/>
    <path d="M 235.572764 302.109193 
L 156.992545 216.081617 
" clip-path="url(#p3d6ac8b70b)" style="fill: none; stroke: #d3d3d3"/>
    <path d="M 235.572764 302.109193 
L 370.000095 199.424257 
" clip-path="url(#p3d6ac8b70b)" style="fill: none; stroke: #d3d3d3"/>
    <path d="M 52.028033 211.069307 
L 156.992545 216.081617 
" clip-path="url(#p3d6ac8b70b)" style="fill: none; stroke: #d3d3d3"/>
    <path d="M 52.028033 211.069307 
L 192.363545 275.224477 
" clip-path="url(#p3d6ac8b70b)" style="fill: none; stroke: #d3d3d3"/>
    <path d="M 52.028033 211.069307 
L 172.673878 149.737837 
" clip-path="url(#p3d6ac8b70b)" style="fill: none; stroke: #d3d3d3"/>
    <path d="M 52.028033 211.069307 
L 111.785897 258.126751 
" clip-path="url(#p3d6ac8b70b)" style="fill: none; stroke: #d3d3d3"/>
    <path d="M 229.040139 130.011126 
L 156.992545 216.081617 
" clip-path="url(#p3d6ac8b70b)" style="fill: none; stroke: #d3d3d3"/>
    <path d="M 229.040139 130.011126 
L 370.000095 199.424257 
" clip-path="url(#p3d6ac8b70b)" style="fill: none; stroke: #d3d3d3"/>
    <path d="M 73.611293 310.787411 
L 156.992545 216.081617 
" clip-path="url(#p3d6ac8b70b)" style="fill: none; stroke: #d3d3d3"/>
    <path d="M 73.611293 310.787411 
L 172.801741 366.698232 
" clip-path="url(#p3d6ac8b70b)" style="fill: none; stroke: #d3d3d3"/>
    <path d="M 73.611293 310.787411 
L 231.153453 394.512397 
" clip-path="url(#p3d6ac8b70b)" style="fill: none; stroke: #d3d3d3"/>
    <path d="M 73.611293 310.787411 
L 111.785897 258.126751 
" clip-path="url(#p3d6ac8b70b)" style="fill: none; stroke: #d3d3d3"/>
    <path d="M 370.000095 199.424257 
L 425.491446 320.216099 
" clip-path="url(#p3d6ac8b70b)" style="fill: none; stroke: #d3d3d3"/>
    <path d="M 370.000095 199.424257 
L 460.264463 211.003638 
" clip-path="url(#p3d6ac8b70b)" style="fill: none; stroke: #d3d3d3"/>
    <path d="M 370.000095 199.424257 
L 446.450566 183.396805 
" clip-path="url(#p3d6ac8b70b)" style="fill: none; stroke: #d3d3d3"/>
    <path d="M 370.000095 199.424257 
L 433.62513 142.991803 
" clip-path="url(#p3d6ac8b70b)" style="fill: none; stroke: #d3d3d3"/>
    <path d="M 370.000095 199.424257 
L 438.385055 300.170918 
" clip-path="url(#p3d6ac8b70b)" style="fill: none; stroke: #d3d3d3"/>
    <path d="M 370.000095 199.424257 
L 455.904897 256.823436 
" clip-path="url(#p3d6ac8b70b)" style="fill: none; stroke: #d3d3d3"/>
    <path d="M 370.000095 199.424257 
L 415.296166 122.915848 
" clip-path="url(#p3d6ac8b70b)" style="fill: none; stroke: #d3d3d3"/>
    <path d="M 419.95883 247.590855 
L 312.161433 244.690958 
" clip-path="url(#p3d6ac8b70b)" style="fill: none; stroke: #d3d3d3"/>
    <path d="M 353.428621 151.190346 
L 312.161433 244.690958 
" clip-path="url(#p3d6ac8b70b)" style="fill: none; stroke: #d3d3d3"/>
    <path d="M 270.240238 391.351998 
L 312.161433 244.690958 
" clip-path="url(#p3d6ac8b70b)" style="fill: none; stroke: #d3d3d3"/>
    <path d="M 192.363545 275.224477 
L 312.161433 244.690958 
" clip-path="url(#p3d6ac8b70b)" style="fill: none; stroke: #d3d3d3"/>
    <path d="M 329.275213 326.134737 
L 312.161433 244.690958 
" clip-path="url(#p3d6ac8b70b)" style="fill: none; stroke: #d3d3d3"/>
    <path d="M 346.987328 127.563668 
L 312.161433 244.690958 
" clip-path="url(#p3d6ac8b70b)" style="fill: none; stroke: #d3d3d3"/>
    <path d="M 139.685817 251.271272 
L 312.161433 244.690958 
" clip-path="url(#p3d6ac8b70b)" style="fill: none; stroke: #d3d3d3"/>
    <path d="M 187.863035 109.151528 
L 312.161433 244.690958 
" clip-path="url(#p3d6ac8b70b)" style="fill: none; stroke: #d3d3d3"/>
    <path d="M 394.512747 338.431754 
L 312.161433 244.690958 
" clip-path="url(#p3d6ac8b70b)" style="fill: none; stroke: #d3d3d3"/>
    <path d="M 231.153453 394.512397 
L 312.161433 244.690958 
" clip-path="url(#p3d6ac8b70b)" style="fill: none; stroke: #d3d3d3"/>
    <path d="M 307.928248 382.801011 
L 312.161433 244.690958 
" clip-path="url(#p3d6ac8b70b)" style="fill: none; stroke: #d3d3d3"/>
    <path d="M 172.801741 366.698232 
L 312.161433 244.690958 
" clip-path="url(#p3d6ac8b70b)" style="fill: none; stroke: #d3d3d3"/>
    <path d="M 304.91125 79.704707 
L 312.161433 244.690958 
" clip-path="url(#p3d6ac8b70b)" style="fill: none; stroke: #d3d3d3"/>
    <path d="M 172.673878 149.737837 
L 312.161433 244.690958 
" clip-path="url(#p3d6ac8b70b)" style="fill: none; stroke: #d3d3d3"/>
    <path d="M 460.264463 211.003638 
L 312.161433 244.690958 
" clip-path="url(#p3d6ac8b70b)" style="fill: none; stroke: #d3d3d3"/>
    <path d="M 433.62513 142.991803 
L 312.161433 244.690958 
" clip-path="url(#p3d6ac8b70b)" style="fill: none; stroke: #d3d3d3"/>
    <path d="M 425.491446 320.216099 
L 312.161433 244.690958 
" clip-path="url(#p3d6ac8b70b)" style="fill: none; stroke: #d3d3d3"/>
    <path d="M 446.450566 183.396805 
L 312.161433 244.690958 
" clip-path="url(#p3d6ac8b70b)" style="fill: none; stroke: #d3d3d3"/>
    <path d="M 455.904897 256.823436 
L 312.161433 244.690958 
" clip-path="url(#p3d6ac8b70b)" style="fill: none; stroke: #d3d3d3"/>
    <path d="M 438.385055 300.170918 
L 312.161433 244.690958 
" clip-path="url(#p3d6ac8b70b)" style="fill: none; stroke: #d3d3d3"/>
    <path d="M 415.296166 122.915848 
L 312.161433 244.690958 
" clip-path="url(#p3d6ac8b70b)" style="fill: none; stroke: #d3d3d3"/>
    <path d="M 111.785897 258.126751 
L 312.161433 244.690958 
" clip-path="url(#p3d6ac8b70b)" style="fill: none; stroke: #d3d3d3"/>
   </g>
   <g id="PathCollection_1">
    <defs>
     <path id="C0_0_7498770939" d="M 0 5 
C 1.326016 5 2.597899 4.473168 3.535534 3.535534 
C 4.473168 2.597899 5 1.326016 5 -0 
C 5 -1.326016 4.473168 -2.597899 3.535534 -3.535534 
C 2.597899 -4.473168 1.326016 -5 0 -5 
C -1.326016 -5 -2.597899 -4.473168 -3.535534 -3.535534 
C -4.473168 -2.597899 -5 -1.326016 -5 0 
C -5 1.326016 -4.473168 2.597899 -3.535534 3.535534 
C -2.597899 4.473168 -1.326016 5 0 5 
z
"/>
    </defs>
    <g clip-path="url(#p3d6ac8b70b)">
     <use xlink:href="#C0_0_7498770939" x="267.985843" y="290.757478" style="fill: #8000ff; stroke: #8000ff"/>
    </g>
    <g clip-path="url(#p3d6ac8b70b)">
     <use xlink:href="#C0_0_7498770939" x="323.875472" y="195.561658" style="fill: #00b5eb; stroke: #00b5eb"/>
    </g>
    <g clip-path="url(#p3d6ac8b70b)">
     <use xlink:href="#C0_0_7498770939" x="250.224035" y="160.706987" style="fill: #8000ff; stroke: #8000ff"/>
    </g>
    <g clip-path="url(#p3d6ac8b70b)">
     <use xlink:href="#C0_0_7498770939" x="239.968626" y="367.200073" style="fill: #00b5eb; stroke: #00b5eb"/>
    </g>
    <g clip-path="url(#p3d6ac8b70b)">
     <use xlink:href="#C0_0_7498770939" x="138.761733" y="293.157642" style="fill: #8000ff; stroke: #8000ff"/>
    </g>
    <g clip-path="url(#p3d6ac8b70b)">
     <use xlink:href="#C0_0_7498770939" x="195.980751" y="181.946477" style="fill: #00b5eb; stroke: #00b5eb"/>
    </g>
    <g clip-path="url(#p3d6ac8b70b)">
     <use xlink:href="#C0_0_7498770939" x="153.495144" y="322.510801" style="fill: #80ffb4; stroke: #80ffb4"/>
    </g>
    <g clip-path="url(#p3d6ac8b70b)">
     <use xlink:href="#C0_0_7498770939" x="404.256533" y="261.393998" style="fill: #8000ff; stroke: #8000ff"/>
    </g>
    <g clip-path="url(#p3d6ac8b70b)">
     <use xlink:href="#C0_0_7498770939" x="355.55669" y="389.605015" style="fill: #00b5eb; stroke: #00b5eb"/>
    </g>
    <g clip-path="url(#p3d6ac8b70b)">
     <use xlink:href="#C0_0_7498770939" x="290.282563" y="170.459168" style="fill: #8000ff; stroke: #8000ff"/>
    </g>
    <g clip-path="url(#p3d6ac8b70b)">
     <use xlink:href="#C0_0_7498770939" x="135.758465" y="142.060723" style="fill: #00b5eb; stroke: #00b5eb"/>
    </g>
    <g clip-path="url(#p3d6ac8b70b)">
     <use xlink:href="#C0_0_7498770939" x="178.642782" y="77.023036" style="fill: #8000ff; stroke: #8000ff"/>
    </g>
    <g clip-path="url(#p3d6ac8b70b)">
     <use xlink:href="#C0_0_7498770939" x="313.883869" y="290.674581" style="fill: #00b5eb; stroke: #00b5eb"/>
    </g>
    <g clip-path="url(#p3d6ac8b70b)">
     <use xlink:href="#C0_0_7498770939" x="328.516089" y="353.610952" style="fill: #80ffb4; stroke: #80ffb4"/>
    </g>
    <g clip-path="url(#p3d6ac8b70b)">
     <use xlink:href="#C0_0_7498770939" x="391.546397" y="90.64471" style="fill: #80ffb4; stroke: #80ffb4"/>
    </g>
    <g clip-path="url(#p3d6ac8b70b)">
     <use xlink:href="#C0_0_7498770939" x="421.519714" y="170.168235" style="fill: #00b5eb; stroke: #00b5eb"/>
    </g>
    <g clip-path="url(#p3d6ac8b70b)">
     <use xlink:href="#C0_0_7498770939" x="264.712849" y="218.001915" style="fill: #80ffb4; stroke: #80ffb4"/>
    </g>
    <g clip-path="url(#p3d6ac8b70b)">
     <use xlink:href="#C0_0_7498770939" x="182.627043" y="259.143168" style="fill: #00b5eb; stroke: #00b5eb"/>
    </g>
    <g clip-path="url(#p3d6ac8b70b)">
     <use xlink:href="#C0_0_7498770939" x="215.674017" y="37.487603" style="fill: #ffb360; stroke: #ffb360"/>
    </g>
    <g clip-path="url(#p3d6ac8b70b)">
     <use xlink:href="#C0_0_7498770939" x="358.916367" y="68.067004" style="fill: #00b5eb; stroke: #00b5eb"/>
    </g>
    <g clip-path="url(#p3d6ac8b70b)">
     <use xlink:href="#C0_0_7498770939" x="230.409508" y="259.884657" style="fill: #80ffb4; stroke: #80ffb4"/>
    </g>
    <g clip-path="url(#p3d6ac8b70b)">
     <use xlink:href="#C0_0_7498770939" x="114.927939" y="197.584472" style="fill: #8000ff; stroke: #8000ff"/>
    </g>
    <g clip-path="url(#p3d6ac8b70b)">
     <use xlink:href="#C0_0_7498770939" x="154.876008" y="98.691279" style="fill: #8000ff; stroke: #8000ff"/>
    </g>
    <g clip-path="url(#p3d6ac8b70b)">
     <use xlink:href="#C0_0_7498770939" x="322.297032" y="38.400526" style="fill: #00b5eb; stroke: #00b5eb"/>
    </g>
    <g clip-path="url(#p3d6ac8b70b)">
     <use xlink:href="#C0_0_7498770939" x="222.717752" y="107.461386" style="fill: #8000ff; stroke: #8000ff"/>
    </g>
    <g clip-path="url(#p3d6ac8b70b)">
     <use xlink:href="#C0_0_7498770939" x="132.159543" y="163.058251" style="fill: #00b5eb; stroke: #00b5eb"/>
    </g>
    <g clip-path="url(#p3d6ac8b70b)">
     <use xlink:href="#C0_0_7498770939" x="213.595784" y="348.798957" style="fill: #8000ff; stroke: #8000ff"/>
    </g>
    <g clip-path="url(#p3d6ac8b70b)">
     <use xlink:href="#C0_0_7498770939" x="367.465011" y="299.251768" style="fill: #00b5eb; stroke: #00b5eb"/>
    </g>
    <g clip-path="url(#p3d6ac8b70b)">
     <use xlink:href="#C0_0_7498770939" x="285.333808" y="96.562021" style="fill: #80ffb4; stroke: #80ffb4"/>
    </g>
    <g clip-path="url(#p3d6ac8b70b)">
     <use xlink:href="#C0_0_7498770939" x="239.090152" y="85.575135" style="fill: #8000ff; stroke: #8000ff"/>
    </g>
    <g clip-path="url(#p3d6ac8b70b)">
     <use xlink:href="#C0_0_7498770939" x="60.682852" y="153.398953" style="fill: #00b5eb; stroke: #00b5eb"/>
    </g>
    <g clip-path="url(#p3d6ac8b70b)">
     <use xlink:href="#C0_0_7498770939" x="43.735537" y="250.936679" style="fill: #8000ff; stroke: #8000ff"/>
    </g>
    <g clip-path="url(#p3d6ac8b70b)">
     <use xlink:href="#C0_0_7498770939" x="281.754725" y="323.374953" style="fill: #00b5eb; stroke: #00b5eb"/>
    </g>
    <g clip-path="url(#p3d6ac8b70b)">
     <use xlink:href="#C0_0_7498770939" x="295.437543" y="228.678982" style="fill: #8000ff; stroke: #8000ff"/>
    </g>
    <g clip-path="url(#p3d6ac8b70b)">
     <use xlink:href="#C0_0_7498770939" x="125.199944" y="365.5238" style="fill: #00b5eb; stroke: #00b5eb"/>
    </g>
    <g clip-path="url(#p3d6ac8b70b)">
     <use xlink:href="#C0_0_7498770939" x="117.445354" y="351.096368" style="fill: #80ffb4; stroke: #80ffb4"/>
    </g>
    <g clip-path="url(#p3d6ac8b70b)">
     <use xlink:href="#C0_0_7498770939" x="288.318631" y="145.735397" style="fill: #80ffb4; stroke: #80ffb4"/>
    </g>
    <g clip-path="url(#p3d6ac8b70b)">
     <use xlink:href="#C0_0_7498770939" x="71.520905" y="120.370319" style="fill: #80ffb4; stroke: #80ffb4"/>
    </g>
    <g clip-path="url(#p3d6ac8b70b)">
     <use xlink:href="#C0_0_7498770939" x="235.572764" y="302.109193" style="fill: #80ffb4; stroke: #80ffb4"/>
    </g>
    <g clip-path="url(#p3d6ac8b70b)">
     <use xlink:href="#C0_0_7498770939" x="52.028033" y="211.069307" style="fill: #80ffb4; stroke: #80ffb4"/>
    </g>
    <g clip-path="url(#p3d6ac8b70b)">
     <use xlink:href="#C0_0_7498770939" x="229.040139" y="130.011126" style="fill: #ffb360; stroke: #ffb360"/>
    </g>
    <g clip-path="url(#p3d6ac8b70b)">
     <use xlink:href="#C0_0_7498770939" x="73.611293" y="310.787411" style="fill: #ffb360; stroke: #ffb360"/>
    </g>
    <g clip-path="url(#p3d6ac8b70b)">
     <use xlink:href="#C0_0_7498770939" x="156.992545" y="216.081617" style="fill: #80ffb4; stroke: #80ffb4"/>
    </g>
    <g clip-path="url(#p3d6ac8b70b)">
     <use xlink:href="#C0_0_7498770939" x="370.000095" y="199.424257" style="fill: #8000ff; stroke: #8000ff"/>
    </g>
    <g clip-path="url(#p3d6ac8b70b)">
     <use xlink:href="#C0_0_7498770939" x="419.95883" y="247.590855" style="fill: #80ffb4; stroke: #80ffb4"/>
    </g>
    <g clip-path="url(#p3d6ac8b70b)">
     <use xlink:href="#C0_0_7498770939" x="353.428621" y="151.190346" style="fill: #00b5eb; stroke: #00b5eb"/>
    </g>
    <g clip-path="url(#p3d6ac8b70b)">
     <use xlink:href="#C0_0_7498770939" x="270.240238" y="391.351998" style="fill: #80ffb4; stroke: #80ffb4"/>
    </g>
    <g clip-path="url(#p3d6ac8b70b)">
     <use xlink:href="#C0_0_7498770939" x="192.363545" y="275.224477" style="fill: #00b5eb; stroke: #00b5eb"/>
    </g>
    <g clip-path="url(#p3d6ac8b70b)">
     <use xlink:href="#C0_0_7498770939" x="329.275213" y="326.134737" style="fill: #ffb360; stroke: #ffb360"/>
    </g>
    <g clip-path="url(#p3d6ac8b70b)">
     <use xlink:href="#C0_0_7498770939" x="346.987328" y="127.563668" style="fill: #00b5eb; stroke: #00b5eb"/>
    </g>
    <g clip-path="url(#p3d6ac8b70b)">
     <use xlink:href="#C0_0_7498770939" x="139.685817" y="251.271272" style="fill: #80ffb4; stroke: #80ffb4"/>
    </g>
    <g clip-path="url(#p3d6ac8b70b)">
     <use xlink:href="#C0_0_7498770939" x="187.863035" y="109.151528" style="fill: #ffb360; stroke: #ffb360"/>
    </g>
    <g clip-path="url(#p3d6ac8b70b)">
     <use xlink:href="#C0_0_7498770939" x="394.512747" y="338.431754" style="fill: #00b5eb; stroke: #00b5eb"/>
    </g>
    <g clip-path="url(#p3d6ac8b70b)">
     <use xlink:href="#C0_0_7498770939" x="231.153453" y="394.512397" style="fill: #ff0000; stroke: #ff0000"/>
    </g>
    <g clip-path="url(#p3d6ac8b70b)">
     <use xlink:href="#C0_0_7498770939" x="307.928248" y="382.801011" style="fill: #00b5eb; stroke: #00b5eb"/>
    </g>
    <g clip-path="url(#p3d6ac8b70b)">
     <use xlink:href="#C0_0_7498770939" x="172.801741" y="366.698232" style="fill: #ffb360; stroke: #ffb360"/>
    </g>
    <g clip-path="url(#p3d6ac8b70b)">
     <use xlink:href="#C0_0_7498770939" x="304.91125" y="79.704707" style="fill: #00b5eb; stroke: #00b5eb"/>
    </g>
    <g clip-path="url(#p3d6ac8b70b)">
     <use xlink:href="#C0_0_7498770939" x="172.673878" y="149.737837" style="fill: #80ffb4; stroke: #80ffb4"/>
    </g>
    <g clip-path="url(#p3d6ac8b70b)">
     <use xlink:href="#C0_0_7498770939" x="460.264463" y="211.003638" style="fill: #80ffb4; stroke: #80ffb4"/>
    </g>
    <g clip-path="url(#p3d6ac8b70b)">
     <use xlink:href="#C0_0_7498770939" x="433.62513" y="142.991803" style="fill: #00b5eb; stroke: #00b5eb"/>
    </g>
    <g clip-path="url(#p3d6ac8b70b)">
     <use xlink:href="#C0_0_7498770939" x="425.491446" y="320.216099" style="fill: #80ffb4; stroke: #80ffb4"/>
    </g>
    <g clip-path="url(#p3d6ac8b70b)">
     <use xlink:href="#C0_0_7498770939" x="446.450566" y="183.396805" style="fill: #00b5eb; stroke: #00b5eb"/>
    </g>
    <g clip-path="url(#p3d6ac8b70b)">
     <use xlink:href="#C0_0_7498770939" x="455.904897" y="256.823436" style="fill: #ffb360; stroke: #ffb360"/>
    </g>
    <g clip-path="url(#p3d6ac8b70b)">
     <use xlink:href="#C0_0_7498770939" x="438.385055" y="300.170918" style="fill: #00b5eb; stroke: #00b5eb"/>
    </g>
    <g clip-path="url(#p3d6ac8b70b)">
     <use xlink:href="#C0_0_7498770939" x="415.296166" y="122.915848" style="fill: #80ffb4; stroke: #80ffb4"/>
    </g>
    <g clip-path="url(#p3d6ac8b70b)">
     <use xlink:href="#C0_0_7498770939" x="111.785897" y="258.126751" style="fill: #00b5eb; stroke: #00b5eb"/>
    </g>
    <g clip-path="url(#p3d6ac8b70b)">
     <use xlink:href="#C0_0_7498770939" x="312.161433" y="244.690958" style="fill: #8000ff; stroke: #8000ff"/>
    </g>
   </g>
   <g id="text_1">
    <!-- Colorare euristică - 1-Insertions_4 (χ ≈ 5) -->
    <g transform="translate(128.011875 -6) scale(0.12 -0.12)">
     <defs>
      <path id="DejaVuSans-43" d="M 4122 4306 
L 4122 3641 
Q 3803 3938 3442 4084 
Q 3081 4231 2675 4231 
Q 1875 4231 1450 3742 
Q 1025 3253 1025 2328 
Q 1025 1406 1450 917 
Q 1875 428 2675 428 
Q 3081 428 3442 575 
Q 3803 722 4122 1019 
L 4122 359 
Q 3791 134 3420 21 
Q 3050 -91 2638 -91 
Q 1578 -91 968 557 
Q 359 1206 359 2328 
Q 359 3453 968 4101 
Q 1578 4750 2638 4750 
Q 3056 4750 3426 4639 
Q 3797 4528 4122 4306 
z
" transform="scale(0.015625)"/>
      <path id="DejaVuSans-6f" d="M 1959 3097 
Q 1497 3097 1228 2736 
Q 959 2375 959 1747 
Q 959 1119 1226 758 
Q 1494 397 1959 397 
Q 2419 397 2687 759 
Q 2956 1122 2956 1747 
Q 2956 2369 2687 2733 
Q 2419 3097 1959 3097 
z
M 1959 3584 
Q 2709 3584 3137 3096 
Q 3566 2609 3566 1747 
Q 3566 888 3137 398 
Q 2709 -91 1959 -91 
Q 1206 -91 779 398 
Q 353 888 353 1747 
Q 353 2609 779 3096 
Q 1206 3584 1959 3584 
z
" transform="scale(0.015625)"/>
      <path id="DejaVuSans-6c" d="M 603 4863 
L 1178 4863 
L 1178 0 
L 603 0 
L 603 4863 
z
" transform="scale(0.015625)"/>
      <path id="DejaVuSans-72" d="M 2631 2963 
Q 2534 3019 2420 3045 
Q 2306 3072 2169 3072 
Q 1681 3072 1420 2755 
Q 1159 2438 1159 1844 
L 1159 0 
L 581 0 
L 581 3500 
L 1159 3500 
L 1159 2956 
Q 1341 3275 1631 3429 
Q 1922 3584 2338 3584 
Q 2397 3584 2469 3576 
Q 2541 3569 2628 3553 
L 2631 2963 
z
" transform="scale(0.015625)"/>
      <path id="DejaVuSans-61" d="M 2194 1759 
Q 1497 1759 1228 1600 
Q 959 1441 959 1056 
Q 959 750 1161 570 
Q 1363 391 1709 391 
Q 2188 391 2477 730 
Q 2766 1069 2766 1631 
L 2766 1759 
L 2194 1759 
z
M 3341 1997 
L 3341 0 
L 2766 0 
L 2766 531 
Q 2569 213 2275 61 
Q 1981 -91 1556 -91 
Q 1019 -91 701 211 
Q 384 513 384 1019 
Q 384 1609 779 1909 
Q 1175 2209 1959 2209 
L 2766 2209 
L 2766 2266 
Q 2766 2663 2505 2880 
Q 2244 3097 1772 3097 
Q 1472 3097 1187 3025 
Q 903 2953 641 2809 
L 641 3341 
Q 956 3463 1253 3523 
Q 1550 3584 1831 3584 
Q 2591 3584 2966 3190 
Q 3341 2797 3341 1997 
z
" transform="scale(0.015625)"/>
      <path id="DejaVuSans-65" d="M 3597 1894 
L 3597 1613 
L 953 1613 
Q 991 1019 1311 708 
Q 1631 397 2203 397 
Q 2534 397 2845 478 
Q 3156 559 3463 722 
L 3463 178 
Q 3153 47 2828 -22 
Q 2503 -91 2169 -91 
Q 1331 -91 842 396 
Q 353 884 353 1716 
Q 353 2575 817 3079 
Q 1281 3584 2069 3584 
Q 2775 3584 3186 3129 
Q 3597 2675 3597 1894 
z
M 3022 2063 
Q 3016 2534 2758 2815 
Q 2500 3097 2075 3097 
Q 1594 3097 1305 2825 
Q 1016 2553 972 2059 
L 3022 2063 
z
" transform="scale(0.015625)"/>
      <path id="DejaVuSans-20" transform="scale(0.015625)"/>
      <path id="DejaVuSans-75" d="M 544 1381 
L 544 3500 
L 1119 3500 
L 1119 1403 
Q 1119 906 1312 657 
Q 1506 409 1894 409 
Q 2359 409 2629 706 
Q 2900 1003 2900 1516 
L 2900 3500 
L 3475 3500 
L 3475 0 
L 2900 0 
L 2900 538 
Q 2691 219 2414 64 
Q 2138 -91 1772 -91 
Q 1169 -91 856 284 
Q 544 659 544 1381 
z
M 1991 3584 
L 1991 3584 
z
" transform="scale(0.015625)"/>
      <path id="DejaVuSans-69" d="M 603 3500 
L 1178 3500 
L 1178 0 
L 603 0 
L 603 3500 
z
M 603 4863 
L 1178 4863 
L 1178 4134 
L 603 4134 
L 603 4863 
z
" transform="scale(0.015625)"/>
      <path id="DejaVuSans-73" d="M 2834 3397 
L 2834 2853 
Q 2591 2978 2328 3040 
Q 2066 3103 1784 3103 
Q 1356 3103 1142 2972 
Q 928 2841 928 2578 
Q 928 2378 1081 2264 
Q 1234 2150 1697 2047 
L 1894 2003 
Q 2506 1872 2764 1633 
Q 3022 1394 3022 966 
Q 3022 478 2636 193 
Q 2250 -91 1575 -91 
Q 1294 -91 989 -36 
Q 684 19 347 128 
L 347 722 
Q 666 556 975 473 
Q 1284 391 1588 391 
Q 1994 391 2212 530 
Q 2431 669 2431 922 
Q 2431 1156 2273 1281 
Q 2116 1406 1581 1522 
L 1381 1569 
Q 847 1681 609 1914 
Q 372 2147 372 2553 
Q 372 3047 722 3315 
Q 1072 3584 1716 3584 
Q 2034 3584 2315 3537 
Q 2597 3491 2834 3397 
z
" transform="scale(0.015625)"/>
      <path id="DejaVuSans-74" d="M 1172 4494 
L 1172 3500 
L 2356 3500 
L 2356 3053 
L 1172 3053 
L 1172 1153 
Q 1172 725 1289 603 
Q 1406 481 1766 481 
L 2356 481 
L 2356 0 
L 1766 0 
Q 1100 0 847 248 
Q 594 497 594 1153 
L 594 3053 
L 172 3053 
L 172 3500 
L 594 3500 
L 594 4494 
L 1172 4494 
z
" transform="scale(0.015625)"/>
      <path id="DejaVuSans-63" d="M 3122 3366 
L 3122 2828 
Q 2878 2963 2633 3030 
Q 2388 3097 2138 3097 
Q 1578 3097 1268 2742 
Q 959 2388 959 1747 
Q 959 1106 1268 751 
Q 1578 397 2138 397 
Q 2388 397 2633 464 
Q 2878 531 3122 666 
L 3122 134 
Q 2881 22 2623 -34 
Q 2366 -91 2075 -91 
Q 1284 -91 818 406 
Q 353 903 353 1747 
Q 353 2603 823 3093 
Q 1294 3584 2113 3584 
Q 2378 3584 2631 3529 
Q 2884 3475 3122 3366 
z
" transform="scale(0.015625)"/>
      <path id="DejaVuSans-103" d="M 870 4897 
L 1239 4897 
Q 1273 4663 1424 4545 
Q 1576 4428 1848 4428 
Q 2117 4428 2267 4544 
Q 2417 4660 2457 4897 
L 2826 4897 
Q 2795 4450 2548 4225 
Q 2301 4000 1848 4000 
Q 1395 4000 1148 4225 
Q 901 4450 870 4897 
z
M 2194 1759 
Q 1497 1759 1228 1600 
Q 959 1441 959 1056 
Q 959 750 1161 570 
Q 1363 391 1709 391 
Q 2188 391 2477 730 
Q 2766 1069 2766 1631 
L 2766 1759 
L 2194 1759 
z
M 3341 1997 
L 3341 0 
L 2766 0 
L 2766 531 
Q 2569 213 2275 61 
Q 1981 -91 1556 -91 
Q 1019 -91 701 211 
Q 384 513 384 1019 
Q 384 1609 779 1909 
Q 1175 2209 1959 2209 
L 2766 2209 
L 2766 2266 
Q 2766 2663 2505 2880 
Q 2244 3097 1772 3097 
Q 1472 3097 1187 3025 
Q 903 2953 641 2809 
L 641 3341 
Q 956 3463 1253 3523 
Q 1550 3584 1831 3584 
Q 2591 3584 2966 3190 
Q 3341 2797 3341 1997 
z
" transform="scale(0.015625)"/>
      <path id="DejaVuSans-2d" d="M 313 2009 
L 1997 2009 
L 1997 1497 
L 313 1497 
L 313 2009 
z
" transform="scale(0.015625)"/>
      <path id="DejaVuSans-31" d="M 794 531 
L 1825 531 
L 1825 4091 
L 703 3866 
L 703 4441 
L 1819 4666 
L 2450 4666 
L 2450 531 
L 3481 531 
L 3481 0 
L 794 0 
L 794 531 
z
" transform="scale(0.015625)"/>
      <path id="DejaVuSans-49" d="M 628 4666 
L 1259 4666 
L 1259 0 
L 628 0 
L 628 4666 
z
" transform="scale(0.015625)"/>
      <path id="DejaVuSans-6e" d="M 3513 2113 
L 3513 0 
L 2938 0 
L 2938 2094 
Q 2938 2591 2744 2837 
Q 2550 3084 2163 3084 
Q 1697 3084 1428 2787 
Q 1159 2491 1159 1978 
L 1159 0 
L 581 0 
L 581 3500 
L 1159 3500 
L 1159 2956 
Q 1366 3272 1645 3428 
Q 1925 3584 2291 3584 
Q 2894 3584 3203 3211 
Q 3513 2838 3513 2113 
z
" transform="scale(0.015625)"/>
      <path id="DejaVuSans-5f" d="M 3263 -1063 
L 3263 -1509 
L -63 -1509 
L -63 -1063 
L 3263 -1063 
z
" transform="scale(0.015625)"/>
      <path id="DejaVuSans-34" d="M 2419 4116 
L 825 1625 
L 2419 1625 
L 2419 4116 
z
M 2253 4666 
L 3047 4666 
L 3047 1625 
L 3713 1625 
L 3713 1100 
L 3047 1100 
L 3047 0 
L 2419 0 
L 2419 1100 
L 313 1100 
L 313 1709 
L 2253 4666 
z
" transform="scale(0.015625)"/>
      <path id="DejaVuSans-28" d="M 1984 4856 
Q 1566 4138 1362 3434 
Q 1159 2731 1159 2009 
Q 1159 1288 1364 580 
Q 1569 -128 1984 -844 
L 1484 -844 
Q 1016 -109 783 600 
Q 550 1309 550 2009 
Q 550 2706 781 3412 
Q 1013 4119 1484 4856 
L 1984 4856 
z
" transform="scale(0.015625)"/>
      <path id="DejaVuSans-3c7" d="M 2288 -781 
L 1822 416 
L 863 -1334 
L 184 -1334 
L 1541 1141 
L 972 2613 
Q 819 3006 338 3006 
L 184 3006 
L 184 3500 
L 403 3494 
Q 1209 3472 1413 2950 
L 1875 1753 
L 2834 3503 
L 3513 3503 
L 2156 1028 
L 2725 -444 
Q 2878 -838 3359 -838 
L 3513 -838 
L 3513 -1331 
L 3294 -1325 
Q 2488 -1303 2288 -781 
z
" transform="scale(0.015625)"/>
      <path id="DejaVuSans-2248" d="M 4684 1947 
L 4684 1388 
Q 4356 1144 4076 1036 
Q 3797 928 3494 928 
Q 3150 928 2694 1113 
Q 2663 1125 2641 1134 
Q 2622 1141 2575 1159 
Q 2091 1350 1797 1350 
Q 1522 1350 1253 1231 
Q 984 1113 678 850 
L 678 1409 
Q 1006 1653 1286 1761 
Q 1566 1869 1869 1869 
Q 2213 1869 2672 1684 
Q 2706 1669 2722 1663 
Q 2741 1656 2788 1638 
Q 3272 1447 3566 1447 
Q 3834 1447 4098 1564 
Q 4363 1681 4684 1947 
z
M 4684 3163 
L 4684 2606 
Q 4356 2359 4076 2251 
Q 3797 2144 3494 2144 
Q 3150 2144 2694 2328 
Q 2663 2341 2641 2350 
Q 2622 2356 2575 2375 
Q 2091 2566 1797 2566 
Q 1522 2566 1253 2447 
Q 984 2328 678 2069 
L 678 2625 
Q 1006 2869 1286 2976 
Q 1566 3084 1869 3084 
Q 2213 3084 2672 2900 
Q 2703 2888 2719 2881 
Q 2741 2872 2788 2853 
Q 3272 2663 3566 2663 
Q 3834 2663 4098 2780 
Q 4363 2897 4684 3163 
z
" transform="scale(0.015625)"/>
      <path id="DejaVuSans-35" d="M 691 4666 
L 3169 4666 
L 3169 4134 
L 1269 4134 
L 1269 2991 
Q 1406 3038 1543 3061 
Q 1681 3084 1819 3084 
Q 2600 3084 3056 2656 
Q 3513 2228 3513 1497 
Q 3513 744 3044 326 
Q 2575 -91 1722 -91 
Q 1428 -91 1123 -41 
Q 819 9 494 109 
L 494 744 
Q 775 591 1075 516 
Q 1375 441 1709 441 
Q 2250 441 2565 725 
Q 2881 1009 2881 1497 
Q 2881 1984 2565 2268 
Q 2250 2553 1709 2553 
Q 1456 2553 1204 2497 
Q 953 2441 691 2322 
L 691 4666 
z
" transform="scale(0.015625)"/>
      <path id="DejaVuSans-29" d="M 513 4856 
L 1013 4856 
Q 1481 4119 1714 3412 
Q 1947 2706 1947 2009 
Q 1947 1309 1714 600 
Q 1481 -109 1013 -844 
L 513 -844 
Q 928 -128 1133 580 
Q 1338 1288 1338 2009 
Q 1338 2731 1133 3434 
Q 928 4138 513 4856 
z
" transform="scale(0.015625)"/>
     </defs>
     <use xlink:href="#DejaVuSans-43"/>
     <use xlink:href="#DejaVuSans-6f" x="69.824219"/>
     <use xlink:href="#DejaVuSans-6c" x="131.005859"/>
     <use xlink:href="#DejaVuSans-6f" x="158.789062"/>
     <use xlink:href="#DejaVuSans-72" x="219.970703"/>
     <use xlink:href="#DejaVuSans-61" x="261.083984"/>
     <use xlink:href="#DejaVuSans-72" x="322.363281"/>
     <use xlink:href="#DejaVuSans-65" x="361.226562"/>
     <use xlink:href="#DejaVuSans-20" x="422.75"/>
     <use xlink:href="#DejaVuSans-65" x="454.537109"/>
     <use xlink:href="#DejaVuSans-75" x="516.060547"/>
     <use xlink:href="#DejaVuSans-72" x="579.439453"/>
     <use xlink:href="#DejaVuSans-69" x="620.552734"/>
     <use xlink:href="#DejaVuSans-73" x="648.335938"/>
     <use xlink:href="#DejaVuSans-74" x="700.435547"/>
     <use xlink:href="#DejaVuSans-69" x="739.644531"/>
     <use xlink:href="#DejaVuSans-63" x="767.427734"/>
     <use xlink:href="#DejaVuSans-103" x="822.408203"/>
     <use xlink:href="#DejaVuSans-20" x="883.6875"/>
     <use xlink:href="#DejaVuSans-2d" x="915.474609"/>
     <use xlink:href="#DejaVuSans-20" x="951.558594"/>
     <use xlink:href="#DejaVuSans-31" x="983.345703"/>
     <use xlink:href="#DejaVuSans-2d" x="1046.96875"/>
     <use xlink:href="#DejaVuSans-49" x="1083.052734"/>
     <use xlink:href="#DejaVuSans-6e" x="1112.544922"/>
     <use xlink:href="#DejaVuSans-73" x="1175.923828"/>
     <use xlink:href="#DejaVuSans-65" x="1228.023438"/>
     <use xlink:href="#DejaVuSans-72" x="1289.546875"/>
     <use xlink:href="#DejaVuSans-74" x="1330.660156"/>
     <use xlink:href="#DejaVuSans-69" x="1369.869141"/>
     <use xlink:href="#DejaVuSans-6f" x="1397.652344"/>
     <use xlink:href="#DejaVuSans-6e" x="1458.833984"/>
     <use xlink:href="#DejaVuSans-73" x="1522.212891"/>
     <use xlink:href="#DejaVuSans-5f" x="1574.3125"/>
     <use xlink:href="#DejaVuSans-34" x="1624.3125"/>
     <use xlink:href="#DejaVuSans-20" x="1687.935547"/>
     <use xlink:href="#DejaVuSans-28" x="1719.722656"/>
     <use xlink:href="#DejaVuSans-3c7" x="1758.736328"/>
     <use xlink:href="#DejaVuSans-20" x="1816.5"/>
     <use xlink:href="#DejaVuSans-2248" x="1848.287109"/>
     <use xlink:href="#DejaVuSans-20" x="1932.076172"/>
     <use xlink:href="#DejaVuSans-35" x="1963.863281"/>
     <use xlink:href="#DejaVuSans-29" x="2027.486328"/>
    </g>
   </g>
   <g id="legend_1">
    <g id="patch_2">
     <path d="M 536.2 96.06875 
L 622.857813 96.06875 
Q 624.857813 96.06875 624.857813 94.06875 
L 624.857813 7 
Q 624.857813 5 622.857813 5 
L 536.2 5 
Q 534.2 5 534.2 7 
L 534.2 94.06875 
Q 534.2 96.06875 536.2 96.06875 
z
" style="fill: #ffffff; opacity: 0.8; stroke: #cccccc; stroke-linejoin: miter"/>
    </g>
    <g id="text_2">
     <!-- Colorare corectă -->
     <g transform="translate(538.2 16.598438) scale(0.1 -0.1)">
      <use xlink:href="#DejaVuSans-43"/>
      <use xlink:href="#DejaVuSans-6f" x="69.824219"/>
      <use xlink:href="#DejaVuSans-6c" x="131.005859"/>
      <use xlink:href="#DejaVuSans-6f" x="158.789062"/>
      <use xlink:href="#DejaVuSans-72" x="219.970703"/>
      <use xlink:href="#DejaVuSans-61" x="261.083984"/>
      <use xlink:href="#DejaVuSans-72" x="322.363281"/>
      <use xlink:href="#DejaVuSans-65" x="361.226562"/>
      <use xlink:href="#DejaVuSans-20" x="422.75"/>
      <use xlink:href="#DejaVuSans-63" x="454.537109"/>
      <use xlink:href="#DejaVuSans-6f" x="509.517578"/>
      <use xlink:href="#DejaVuSans-72" x="570.699219"/>
      <use xlink:href="#DejaVuSans-65" x="609.5625"/>
      <use xlink:href="#DejaVuSans-63" x="671.085938"/>
      <use xlink:href="#DejaVuSans-74" x="726.066406"/>
      <use xlink:href="#DejaVuSans-103" x="765.275391"/>
     </g>
    </g>
    <g id="patch_3">
     <path d="M 547.703906 31.276563 
L 567.703906 31.276563 
L 567.703906 24.276563 
L 547.703906 24.276563 
z
" style="fill: #8000ff; stroke: #8000ff; stroke-linejoin: miter"/>
    </g>
    <g id="text_3">
     <!-- Color 0 -->
     <g transform="translate(575.703906 31.276563) scale(0.1 -0.1)">
      <defs>
       <path id="DejaVuSans-30" d="M 2034 4250 
Q 1547 4250 1301 3770 
Q 1056 3291 1056 2328 
Q 1056 1369 1301 889 
Q 1547 409 2034 409 
Q 2525 409 2770 889 
Q 3016 1369 3016 2328 
Q 3016 3291 2770 3770 
Q 2525 4250 2034 4250 
z
M 2034 4750 
Q 2819 4750 3233 4129 
Q 3647 3509 3647 2328 
Q 3647 1150 3233 529 
Q 2819 -91 2034 -91 
Q 1250 -91 836 529 
Q 422 1150 422 2328 
Q 422 3509 836 4129 
Q 1250 4750 2034 4750 
z
" transform="scale(0.015625)"/>
      </defs>
      <use xlink:href="#DejaVuSans-43"/>
      <use xlink:href="#DejaVuSans-6f" x="69.824219"/>
      <use xlink:href="#DejaVuSans-6c" x="131.005859"/>
      <use xlink:href="#DejaVuSans-6f" x="158.789062"/>
      <use xlink:href="#DejaVuSans-72" x="219.970703"/>
      <use xlink:href="#DejaVuSans-20" x="261.083984"/>
      <use xlink:href="#DejaVuSans-30" x="292.871094"/>
     </g>
    </g>
    <g id="patch_4">
     <path d="M 547.703906 45.954688 
L 567.703906 45.954688 
L 567.703906 38.954688 
L 547.703906 38.954688 
z
" style="fill: #00b5eb; stroke: #00b5eb; stroke-linejoin: miter"/>
    </g>
    <g id="text_4">
     <!-- Color 1 -->
     <g transform="translate(575.703906 45.954688) scale(0.1 -0.1)">
      <use xlink:href="#DejaVuSans-43"/>
      <use xlink:href="#DejaVuSans-6f" x="69.824219"/>
      <use xlink:href="#DejaVuSans-6c" x="131.005859"/>
      <use xlink:href="#DejaVuSans-6f" x="158.789062"/>
      <use xlink:href="#DejaVuSans-72" x="219.970703"/>
      <use xlink:href="#DejaVuSans-20" x="261.083984"/>
      <use xlink:href="#DejaVuSans-31" x="292.871094"/>
     </g>
    </g>
    <g id="patch_5">
     <path d="M 547.703906 60.632813 
L 567.703906 60.632813 
L 567.703906 53.632813 
L 547.703906 53.632813 
z
" style="fill: #80ffb4; stroke: #80ffb4; stroke-linejoin: miter"/>
    </g>
    <g id="text_5">
     <!-- Color 2 -->
     <g transform="translate(575.703906 60.632813) scale(0.1 -0.1)">
      <defs>
       <path id="DejaVuSans-32" d="M 1228 531 
L 3431 531 
L 3431 0 
L 469 0 
L 469 531 
Q 828 903 1448 1529 
Q 2069 2156 2228 2338 
Q 2531 2678 2651 2914 
Q 2772 3150 2772 3378 
Q 2772 3750 2511 3984 
Q 2250 4219 1831 4219 
Q 1534 4219 1204 4116 
Q 875 4013 500 3803 
L 500 4441 
Q 881 4594 1212 4672 
Q 1544 4750 1819 4750 
Q 2544 4750 2975 4387 
Q 3406 4025 3406 3419 
Q 3406 3131 3298 2873 
Q 3191 2616 2906 2266 
Q 2828 2175 2409 1742 
Q 1991 1309 1228 531 
z
" transform="scale(0.015625)"/>
      </defs>
      <use xlink:href="#DejaVuSans-43"/>
      <use xlink:href="#DejaVuSans-6f" x="69.824219"/>
      <use xlink:href="#DejaVuSans-6c" x="131.005859"/>
      <use xlink:href="#DejaVuSans-6f" x="158.789062"/>
      <use xlink:href="#DejaVuSans-72" x="219.970703"/>
      <use xlink:href="#DejaVuSans-20" x="261.083984"/>
      <use xlink:href="#DejaVuSans-32" x="292.871094"/>
     </g>
    </g>
    <g id="patch_6">
     <path d="M 547.703906 75.310938 
L 567.703906 75.310938 
L 567.703906 68.310938 
L 547.703906 68.310938 
z
" style="fill: #ffb360; stroke: #ffb360; stroke-linejoin: miter"/>
    </g>
    <g id="text_6">
     <!-- Color 3 -->
     <g transform="translate(575.703906 75.310938) scale(0.1 -0.1)">
      <defs>
       <path id="DejaVuSans-33" d="M 2597 2516 
Q 3050 2419 3304 2112 
Q 3559 1806 3559 1356 
Q 3559 666 3084 287 
Q 2609 -91 1734 -91 
Q 1441 -91 1130 -33 
Q 819 25 488 141 
L 488 750 
Q 750 597 1062 519 
Q 1375 441 1716 441 
Q 2309 441 2620 675 
Q 2931 909 2931 1356 
Q 2931 1769 2642 2001 
Q 2353 2234 1838 2234 
L 1294 2234 
L 1294 2753 
L 1863 2753 
Q 2328 2753 2575 2939 
Q 2822 3125 2822 3475 
Q 2822 3834 2567 4026 
Q 2313 4219 1838 4219 
Q 1578 4219 1281 4162 
Q 984 4106 628 3988 
L 628 4550 
Q 988 4650 1302 4700 
Q 1616 4750 1894 4750 
Q 2613 4750 3031 4423 
Q 3450 4097 3450 3541 
Q 3450 3153 3228 2886 
Q 3006 2619 2597 2516 
z
" transform="scale(0.015625)"/>
      </defs>
      <use xlink:href="#DejaVuSans-43"/>
      <use xlink:href="#DejaVuSans-6f" x="69.824219"/>
      <use xlink:href="#DejaVuSans-6c" x="131.005859"/>
      <use xlink:href="#DejaVuSans-6f" x="158.789062"/>
      <use xlink:href="#DejaVuSans-72" x="219.970703"/>
      <use xlink:href="#DejaVuSans-20" x="261.083984"/>
      <use xlink:href="#DejaVuSans-33" x="292.871094"/>
     </g>
    </g>
    <g id="patch_7">
     <path d="M 547.703906 89.989063 
L 567.703906 89.989063 
L 567.703906 82.989063 
L 547.703906 82.989063 
z
" style="fill: #ff0000; stroke: #ff0000; stroke-linejoin: miter"/>
    </g>
    <g id="text_7">
     <!-- Color 4 -->
     <g transform="translate(575.703906 89.989063) scale(0.1 -0.1)">
      <use xlink:href="#DejaVuSans-43"/>
      <use xlink:href="#DejaVuSans-6f" x="69.824219"/>
      <use xlink:href="#DejaVuSans-6c" x="131.005859"/>
      <use xlink:href="#DejaVuSans-6f" x="158.789062"/>
      <use xlink:href="#DejaVuSans-72" x="219.970703"/>
      <use xlink:href="#DejaVuSans-20" x="261.083984"/>
      <use xlink:href="#DejaVuSans-34" x="292.871094"/>
     </g>
    </g>
   </g>
  </g>
 </g>
 <defs>
  <clipPath id="p3d6ac8b70b">
   <rect x="0" y="0" width="504" height="432"/>
  </clipPath>
 </defs>
</svg>
