<?xml version="1.0" encoding="utf-8" standalone="no"?>
<!DOCTYPE svg PUBLIC "-//W3C//DTD SVG 1.1//EN"
  "http://www.w3.org/Graphics/SVG/1.1/DTD/svg11.dtd">
<svg xmlns:xlink="http://www.w3.org/1999/xlink" width="504pt" height="432pt" viewBox="0 0 504 432" xmlns="http://www.w3.org/2000/svg" version="1.1">
 <metadata>
  <rdf:RDF xmlns:dc="http://purl.org/dc/elements/1.1/" xmlns:cc="http://creativecommons.org/ns#" xmlns:rdf="http://www.w3.org/1999/02/22-rdf-syntax-ns#">
   <cc:Work>
    <dc:type rdf:resource="http://purl.org/dc/dcmitype/StillImage"/>
    <dc:date>2025-05-08T16:52:52.038475</dc:date>
    <dc:format>image/svg+xml</dc:format>
    <dc:creator>
     <cc:Agent>
      <dc:title>Matplotlib v3.9.3, https://matplotlib.org/</dc:title>
     </cc:Agent>
    </dc:creator>
   </cc:Work>
  </rdf:RDF>
 </metadata>
 <defs>
  <style type="text/css">*{stroke-linejoin: round; stroke-linecap: butt}</style>
 </defs>
 <g id="figure_1">
  <g id="patch_1">
   <path d="M 0 432 
L 504 432 
L 504 0 
L 0 0 
z
" style="fill: #ffffff"/>
  </g>
  <g id="axes_1">
   <g id="LineCollection_1">
    <path d="M 271.837335 37.487603 
L 314.088613 86.188509 
" clip-path="url(#pf4c65bf86d)" style="fill: none; stroke: #d3d3d3"/>
    <path d="M 271.837335 37.487603 
L 390.706392 190.360815 
" clip-path="url(#pf4c65bf86d)" style="fill: none; stroke: #d3d3d3"/>
    <path d="M 271.837335 37.487603 
L 328.671131 211.45169 
" clip-path="url(#pf4c65bf86d)" style="fill: none; stroke: #d3d3d3"/>
    <path d="M 271.837335 37.487603 
L 269.602176 257.401551 
" clip-path="url(#pf4c65bf86d)" style="fill: none; stroke: #d3d3d3"/>
    <path d="M 271.837335 37.487603 
L 436.584848 307.075925 
" clip-path="url(#pf4c65bf86d)" style="fill: none; stroke: #d3d3d3"/>
    <path d="M 271.837335 37.487603 
L 99.57783 113.984557 
" clip-path="url(#pf4c65bf86d)" style="fill: none; stroke: #d3d3d3"/>
    <path d="M 271.837335 37.487603 
L 444.022995 155.993317 
" clip-path="url(#pf4c65bf86d)" style="fill: none; stroke: #d3d3d3"/>
    <path d="M 271.837335 37.487603 
L 214.347315 68.211364 
" clip-path="url(#pf4c65bf86d)" style="fill: none; stroke: #d3d3d3"/>
    <path d="M 271.837335 37.487603 
L 354.296543 81.660288 
" clip-path="url(#pf4c65bf86d)" style="fill: none; stroke: #d3d3d3"/>
    <path d="M 271.837335 37.487603 
L 315.704859 176.587236 
" clip-path="url(#pf4c65bf86d)" style="fill: none; stroke: #d3d3d3"/>
    <path d="M 271.837335 37.487603 
L 149.682305 69.798249 
" clip-path="url(#pf4c65bf86d)" style="fill: none; stroke: #d3d3d3"/>
    <path d="M 271.837335 37.487603 
L 270.234092 114.970663 
" clip-path="url(#pf4c65bf86d)" style="fill: none; stroke: #d3d3d3"/>
    <path d="M 271.837335 37.487603 
L 43.735537 183.548941 
" clip-path="url(#pf4c65bf86d)" style="fill: none; stroke: #d3d3d3"/>
    <path d="M 271.837335 37.487603 
L 130.34157 138.706712 
" clip-path="url(#pf4c65bf86d)" style="fill: none; stroke: #d3d3d3"/>
    <path d="M 271.837335 37.487603 
L 95.685595 236.433151 
" clip-path="url(#pf4c65bf86d)" style="fill: none; stroke: #d3d3d3"/>
    <path d="M 314.088613 86.188509 
L 99.57783 113.984557 
" clip-path="url(#pf4c65bf86d)" style="fill: none; stroke: #d3d3d3"/>
    <path d="M 314.088613 86.188509 
L 444.022995 155.993317 
" clip-path="url(#pf4c65bf86d)" style="fill: none; stroke: #d3d3d3"/>
    <path d="M 314.088613 86.188509 
L 149.682305 69.798249 
" clip-path="url(#pf4c65bf86d)" style="fill: none; stroke: #d3d3d3"/>
    <path d="M 314.088613 86.188509 
L 390.706392 190.360815 
" clip-path="url(#pf4c65bf86d)" style="fill: none; stroke: #d3d3d3"/>
    <path d="M 314.088613 86.188509 
L 328.671131 211.45169 
" clip-path="url(#pf4c65bf86d)" style="fill: none; stroke: #d3d3d3"/>
    <path d="M 314.088613 86.188509 
L 269.602176 257.401551 
" clip-path="url(#pf4c65bf86d)" style="fill: none; stroke: #d3d3d3"/>
    <path d="M 314.088613 86.188509 
L 436.584848 307.075925 
" clip-path="url(#pf4c65bf86d)" style="fill: none; stroke: #d3d3d3"/>
    <path d="M 314.088613 86.188509 
L 270.234092 114.970663 
" clip-path="url(#pf4c65bf86d)" style="fill: none; stroke: #d3d3d3"/>
    <path d="M 314.088613 86.188509 
L 259.543243 195.886006 
" clip-path="url(#pf4c65bf86d)" style="fill: none; stroke: #d3d3d3"/>
    <path d="M 314.088613 86.188509 
L 391.569185 112.303049 
" clip-path="url(#pf4c65bf86d)" style="fill: none; stroke: #d3d3d3"/>
    <path d="M 314.088613 86.188509 
L 204.177002 146.111808 
" clip-path="url(#pf4c65bf86d)" style="fill: none; stroke: #d3d3d3"/>
    <path d="M 314.088613 86.188509 
L 460.264463 205.603016 
" clip-path="url(#pf4c65bf86d)" style="fill: none; stroke: #d3d3d3"/>
    <path d="M 314.088613 86.188509 
L 107.764069 181.115894 
" clip-path="url(#pf4c65bf86d)" style="fill: none; stroke: #d3d3d3"/>
    <path d="M 314.088613 86.188509 
L 209.207476 194.555298 
" clip-path="url(#pf4c65bf86d)" style="fill: none; stroke: #d3d3d3"/>
    <path d="M 314.088613 86.188509 
L 46.15884 278.860548 
" clip-path="url(#pf4c65bf86d)" style="fill: none; stroke: #d3d3d3"/>
    <path d="M 314.088613 86.188509 
L 219.612915 306.493604 
" clip-path="url(#pf4c65bf86d)" style="fill: none; stroke: #d3d3d3"/>
    <path d="M 390.706392 190.360815 
L 444.022995 155.993317 
" clip-path="url(#pf4c65bf86d)" style="fill: none; stroke: #d3d3d3"/>
    <path d="M 390.706392 190.360815 
L 354.296543 81.660288 
" clip-path="url(#pf4c65bf86d)" style="fill: none; stroke: #d3d3d3"/>
    <path d="M 390.706392 190.360815 
L 259.543243 195.886006 
" clip-path="url(#pf4c65bf86d)" style="fill: none; stroke: #d3d3d3"/>
    <path d="M 390.706392 190.360815 
L 391.569185 112.303049 
" clip-path="url(#pf4c65bf86d)" style="fill: none; stroke: #d3d3d3"/>
    <path d="M 390.706392 190.360815 
L 270.234092 114.970663 
" clip-path="url(#pf4c65bf86d)" style="fill: none; stroke: #d3d3d3"/>
    <path d="M 390.706392 190.360815 
L 107.764069 181.115894 
" clip-path="url(#pf4c65bf86d)" style="fill: none; stroke: #d3d3d3"/>
    <path d="M 390.706392 190.360815 
L 328.671131 211.45169 
" clip-path="url(#pf4c65bf86d)" style="fill: none; stroke: #d3d3d3"/>
    <path d="M 390.706392 190.360815 
L 269.602176 257.401551 
" clip-path="url(#pf4c65bf86d)" style="fill: none; stroke: #d3d3d3"/>
    <path d="M 390.706392 190.360815 
L 436.584848 307.075925 
" clip-path="url(#pf4c65bf86d)" style="fill: none; stroke: #d3d3d3"/>
    <path d="M 390.706392 190.360815 
L 209.207476 194.555298 
" clip-path="url(#pf4c65bf86d)" style="fill: none; stroke: #d3d3d3"/>
    <path d="M 390.706392 190.360815 
L 130.34157 138.706712 
" clip-path="url(#pf4c65bf86d)" style="fill: none; stroke: #d3d3d3"/>
    <path d="M 390.706392 190.360815 
L 180.413829 223.525243 
" clip-path="url(#pf4c65bf86d)" style="fill: none; stroke: #d3d3d3"/>
    <path d="M 390.706392 190.360815 
L 425.193514 259.94772 
" clip-path="url(#pf4c65bf86d)" style="fill: none; stroke: #d3d3d3"/>
    <path d="M 390.706392 190.360815 
L 304.492137 302.937289 
" clip-path="url(#pf4c65bf86d)" style="fill: none; stroke: #d3d3d3"/>
    <path d="M 390.706392 190.360815 
L 184.832224 298.144462 
" clip-path="url(#pf4c65bf86d)" style="fill: none; stroke: #d3d3d3"/>
    <path d="M 390.706392 190.360815 
L 331.195852 339.691756 
" clip-path="url(#pf4c65bf86d)" style="fill: none; stroke: #d3d3d3"/>
    <path d="M 390.706392 190.360815 
L 223.096161 394.512397 
" clip-path="url(#pf4c65bf86d)" style="fill: none; stroke: #d3d3d3"/>
    <path d="M 328.671131 211.45169 
L 214.347315 68.211364 
" clip-path="url(#pf4c65bf86d)" style="fill: none; stroke: #d3d3d3"/>
    <path d="M 328.671131 211.45169 
L 391.569185 112.303049 
" clip-path="url(#pf4c65bf86d)" style="fill: none; stroke: #d3d3d3"/>
    <path d="M 328.671131 211.45169 
L 460.264463 205.603016 
" clip-path="url(#pf4c65bf86d)" style="fill: none; stroke: #d3d3d3"/>
    <path d="M 328.671131 211.45169 
L 180.413829 223.525243 
" clip-path="url(#pf4c65bf86d)" style="fill: none; stroke: #d3d3d3"/>
    <path d="M 328.671131 211.45169 
L 425.193514 259.94772 
" clip-path="url(#pf4c65bf86d)" style="fill: none; stroke: #d3d3d3"/>
    <path d="M 328.671131 211.45169 
L 43.735537 183.548941 
" clip-path="url(#pf4c65bf86d)" style="fill: none; stroke: #d3d3d3"/>
    <path d="M 328.671131 211.45169 
L 209.207476 194.555298 
" clip-path="url(#pf4c65bf86d)" style="fill: none; stroke: #d3d3d3"/>
    <path d="M 328.671131 211.45169 
L 184.832224 298.144462 
" clip-path="url(#pf4c65bf86d)" style="fill: none; stroke: #d3d3d3"/>
    <path d="M 328.671131 211.45169 
L 269.602176 257.401551 
" clip-path="url(#pf4c65bf86d)" style="fill: none; stroke: #d3d3d3"/>
    <path d="M 328.671131 211.45169 
L 436.584848 307.075925 
" clip-path="url(#pf4c65bf86d)" style="fill: none; stroke: #d3d3d3"/>
    <path d="M 328.671131 211.45169 
L 331.195852 339.691756 
" clip-path="url(#pf4c65bf86d)" style="fill: none; stroke: #d3d3d3"/>
    <path d="M 328.671131 211.45169 
L 219.612915 306.493604 
" clip-path="url(#pf4c65bf86d)" style="fill: none; stroke: #d3d3d3"/>
    <path d="M 328.671131 211.45169 
L 126.406799 325.699116 
" clip-path="url(#pf4c65bf86d)" style="fill: none; stroke: #d3d3d3"/>
    <path d="M 328.671131 211.45169 
L 379.327315 352.266249 
" clip-path="url(#pf4c65bf86d)" style="fill: none; stroke: #d3d3d3"/>
    <path d="M 328.671131 211.45169 
L 111.880775 276.509433 
" clip-path="url(#pf4c65bf86d)" style="fill: none; stroke: #d3d3d3"/>
    <path d="M 328.671131 211.45169 
L 376.393331 273.951041 
" clip-path="url(#pf4c65bf86d)" style="fill: none; stroke: #d3d3d3"/>
    <path d="M 269.602176 257.401551 
L 354.296543 81.660288 
" clip-path="url(#pf4c65bf86d)" style="fill: none; stroke: #d3d3d3"/>
    <path d="M 269.602176 257.401551 
L 204.177002 146.111808 
" clip-path="url(#pf4c65bf86d)" style="fill: none; stroke: #d3d3d3"/>
    <path d="M 269.602176 257.401551 
L 425.193514 259.94772 
" clip-path="url(#pf4c65bf86d)" style="fill: none; stroke: #d3d3d3"/>
    <path d="M 269.602176 257.401551 
L 126.406799 325.699116 
" clip-path="url(#pf4c65bf86d)" style="fill: none; stroke: #d3d3d3"/>
    <path d="M 269.602176 257.401551 
L 379.327315 352.266249 
" clip-path="url(#pf4c65bf86d)" style="fill: none; stroke: #d3d3d3"/>
    <path d="M 269.602176 257.401551 
L 130.34157 138.706712 
" clip-path="url(#pf4c65bf86d)" style="fill: none; stroke: #d3d3d3"/>
    <path d="M 269.602176 257.401551 
L 46.15884 278.860548 
" clip-path="url(#pf4c65bf86d)" style="fill: none; stroke: #d3d3d3"/>
    <path d="M 269.602176 257.401551 
L 331.195852 339.691756 
" clip-path="url(#pf4c65bf86d)" style="fill: none; stroke: #d3d3d3"/>
    <path d="M 269.602176 257.401551 
L 111.880775 276.509433 
" clip-path="url(#pf4c65bf86d)" style="fill: none; stroke: #d3d3d3"/>
    <path d="M 269.602176 257.401551 
L 436.584848 307.075925 
" clip-path="url(#pf4c65bf86d)" style="fill: none; stroke: #d3d3d3"/>
    <path d="M 269.602176 257.401551 
L 376.393331 273.951041 
" clip-path="url(#pf4c65bf86d)" style="fill: none; stroke: #d3d3d3"/>
    <path d="M 269.602176 257.401551 
L 188.448374 367.001059 
" clip-path="url(#pf4c65bf86d)" style="fill: none; stroke: #d3d3d3"/>
    <path d="M 269.602176 257.401551 
L 275.512889 356.721214 
" clip-path="url(#pf4c65bf86d)" style="fill: none; stroke: #d3d3d3"/>
    <path d="M 436.584848 307.075925 
L 315.704859 176.587236 
" clip-path="url(#pf4c65bf86d)" style="fill: none; stroke: #d3d3d3"/>
    <path d="M 436.584848 307.075925 
L 460.264463 205.603016 
" clip-path="url(#pf4c65bf86d)" style="fill: none; stroke: #d3d3d3"/>
    <path d="M 436.584848 307.075925 
L 304.492137 302.937289 
" clip-path="url(#pf4c65bf86d)" style="fill: none; stroke: #d3d3d3"/>
    <path d="M 436.584848 307.075925 
L 379.327315 352.266249 
" clip-path="url(#pf4c65bf86d)" style="fill: none; stroke: #d3d3d3"/>
    <path d="M 436.584848 307.075925 
L 188.448374 367.001059 
" clip-path="url(#pf4c65bf86d)" style="fill: none; stroke: #d3d3d3"/>
    <path d="M 436.584848 307.075925 
L 95.685595 236.433151 
" clip-path="url(#pf4c65bf86d)" style="fill: none; stroke: #d3d3d3"/>
    <path d="M 436.584848 307.075925 
L 219.612915 306.493604 
" clip-path="url(#pf4c65bf86d)" style="fill: none; stroke: #d3d3d3"/>
    <path d="M 436.584848 307.075925 
L 223.096161 394.512397 
" clip-path="url(#pf4c65bf86d)" style="fill: none; stroke: #d3d3d3"/>
    <path d="M 436.584848 307.075925 
L 376.393331 273.951041 
" clip-path="url(#pf4c65bf86d)" style="fill: none; stroke: #d3d3d3"/>
    <path d="M 436.584848 307.075925 
L 275.512889 356.721214 
" clip-path="url(#pf4c65bf86d)" style="fill: none; stroke: #d3d3d3"/>
    <path d="M 99.57783 113.984557 
L 259.543243 195.886006 
" clip-path="url(#pf4c65bf86d)" style="fill: none; stroke: #d3d3d3"/>
    <path d="M 99.57783 113.984557 
L 180.413829 223.525243 
" clip-path="url(#pf4c65bf86d)" style="fill: none; stroke: #d3d3d3"/>
    <path d="M 99.57783 113.984557 
L 126.406799 325.699116 
" clip-path="url(#pf4c65bf86d)" style="fill: none; stroke: #d3d3d3"/>
    <path d="M 99.57783 113.984557 
L 188.448374 367.001059 
" clip-path="url(#pf4c65bf86d)" style="fill: none; stroke: #d3d3d3"/>
    <path d="M 99.57783 113.984557 
L 149.682305 69.798249 
" clip-path="url(#pf4c65bf86d)" style="fill: none; stroke: #d3d3d3"/>
    <path d="M 99.57783 113.984557 
L 444.022995 155.993317 
" clip-path="url(#pf4c65bf86d)" style="fill: none; stroke: #d3d3d3"/>
    <path d="M 99.57783 113.984557 
L 214.347315 68.211364 
" clip-path="url(#pf4c65bf86d)" style="fill: none; stroke: #d3d3d3"/>
    <path d="M 99.57783 113.984557 
L 354.296543 81.660288 
" clip-path="url(#pf4c65bf86d)" style="fill: none; stroke: #d3d3d3"/>
    <path d="M 99.57783 113.984557 
L 315.704859 176.587236 
" clip-path="url(#pf4c65bf86d)" style="fill: none; stroke: #d3d3d3"/>
    <path d="M 99.57783 113.984557 
L 107.764069 181.115894 
" clip-path="url(#pf4c65bf86d)" style="fill: none; stroke: #d3d3d3"/>
    <path d="M 99.57783 113.984557 
L 209.207476 194.555298 
" clip-path="url(#pf4c65bf86d)" style="fill: none; stroke: #d3d3d3"/>
    <path d="M 99.57783 113.984557 
L 46.15884 278.860548 
" clip-path="url(#pf4c65bf86d)" style="fill: none; stroke: #d3d3d3"/>
    <path d="M 99.57783 113.984557 
L 219.612915 306.493604 
" clip-path="url(#pf4c65bf86d)" style="fill: none; stroke: #d3d3d3"/>
    <path d="M 444.022995 155.993317 
L 391.569185 112.303049 
" clip-path="url(#pf4c65bf86d)" style="fill: none; stroke: #d3d3d3"/>
    <path d="M 444.022995 155.993317 
L 425.193514 259.94772 
" clip-path="url(#pf4c65bf86d)" style="fill: none; stroke: #d3d3d3"/>
    <path d="M 444.022995 155.993317 
L 379.327315 352.266249 
" clip-path="url(#pf4c65bf86d)" style="fill: none; stroke: #d3d3d3"/>
    <path d="M 444.022995 155.993317 
L 270.234092 114.970663 
" clip-path="url(#pf4c65bf86d)" style="fill: none; stroke: #d3d3d3"/>
    <path d="M 444.022995 155.993317 
L 214.347315 68.211364 
" clip-path="url(#pf4c65bf86d)" style="fill: none; stroke: #d3d3d3"/>
    <path d="M 444.022995 155.993317 
L 354.296543 81.660288 
" clip-path="url(#pf4c65bf86d)" style="fill: none; stroke: #d3d3d3"/>
    <path d="M 444.022995 155.993317 
L 315.704859 176.587236 
" clip-path="url(#pf4c65bf86d)" style="fill: none; stroke: #d3d3d3"/>
    <path d="M 444.022995 155.993317 
L 259.543243 195.886006 
" clip-path="url(#pf4c65bf86d)" style="fill: none; stroke: #d3d3d3"/>
    <path d="M 444.022995 155.993317 
L 184.832224 298.144462 
" clip-path="url(#pf4c65bf86d)" style="fill: none; stroke: #d3d3d3"/>
    <path d="M 444.022995 155.993317 
L 331.195852 339.691756 
" clip-path="url(#pf4c65bf86d)" style="fill: none; stroke: #d3d3d3"/>
    <path d="M 444.022995 155.993317 
L 223.096161 394.512397 
" clip-path="url(#pf4c65bf86d)" style="fill: none; stroke: #d3d3d3"/>
    <path d="M 214.347315 68.211364 
L 204.177002 146.111808 
" clip-path="url(#pf4c65bf86d)" style="fill: none; stroke: #d3d3d3"/>
    <path d="M 214.347315 68.211364 
L 304.492137 302.937289 
" clip-path="url(#pf4c65bf86d)" style="fill: none; stroke: #d3d3d3"/>
    <path d="M 214.347315 68.211364 
L 259.543243 195.886006 
" clip-path="url(#pf4c65bf86d)" style="fill: none; stroke: #d3d3d3"/>
    <path d="M 214.347315 68.211364 
L 107.764069 181.115894 
" clip-path="url(#pf4c65bf86d)" style="fill: none; stroke: #d3d3d3"/>
    <path d="M 214.347315 68.211364 
L 43.735537 183.548941 
" clip-path="url(#pf4c65bf86d)" style="fill: none; stroke: #d3d3d3"/>
    <path d="M 214.347315 68.211364 
L 354.296543 81.660288 
" clip-path="url(#pf4c65bf86d)" style="fill: none; stroke: #d3d3d3"/>
    <path d="M 214.347315 68.211364 
L 315.704859 176.587236 
" clip-path="url(#pf4c65bf86d)" style="fill: none; stroke: #d3d3d3"/>
    <path d="M 214.347315 68.211364 
L 391.569185 112.303049 
" clip-path="url(#pf4c65bf86d)" style="fill: none; stroke: #d3d3d3"/>
    <path d="M 214.347315 68.211364 
L 180.413829 223.525243 
" clip-path="url(#pf4c65bf86d)" style="fill: none; stroke: #d3d3d3"/>
    <path d="M 214.347315 68.211364 
L 111.880775 276.509433 
" clip-path="url(#pf4c65bf86d)" style="fill: none; stroke: #d3d3d3"/>
    <path d="M 214.347315 68.211364 
L 376.393331 273.951041 
" clip-path="url(#pf4c65bf86d)" style="fill: none; stroke: #d3d3d3"/>
    <path d="M 354.296543 81.660288 
L 460.264463 205.603016 
" clip-path="url(#pf4c65bf86d)" style="fill: none; stroke: #d3d3d3"/>
    <path d="M 354.296543 81.660288 
L 391.569185 112.303049 
" clip-path="url(#pf4c65bf86d)" style="fill: none; stroke: #d3d3d3"/>
    <path d="M 354.296543 81.660288 
L 209.207476 194.555298 
" clip-path="url(#pf4c65bf86d)" style="fill: none; stroke: #d3d3d3"/>
    <path d="M 354.296543 81.660288 
L 130.34157 138.706712 
" clip-path="url(#pf4c65bf86d)" style="fill: none; stroke: #d3d3d3"/>
    <path d="M 354.296543 81.660288 
L 315.704859 176.587236 
" clip-path="url(#pf4c65bf86d)" style="fill: none; stroke: #d3d3d3"/>
    <path d="M 354.296543 81.660288 
L 204.177002 146.111808 
" clip-path="url(#pf4c65bf86d)" style="fill: none; stroke: #d3d3d3"/>
    <path d="M 354.296543 81.660288 
L 425.193514 259.94772 
" clip-path="url(#pf4c65bf86d)" style="fill: none; stroke: #d3d3d3"/>
    <path d="M 354.296543 81.660288 
L 126.406799 325.699116 
" clip-path="url(#pf4c65bf86d)" style="fill: none; stroke: #d3d3d3"/>
    <path d="M 354.296543 81.660288 
L 275.512889 356.721214 
" clip-path="url(#pf4c65bf86d)" style="fill: none; stroke: #d3d3d3"/>
    <path d="M 315.704859 176.587236 
L 204.177002 146.111808 
" clip-path="url(#pf4c65bf86d)" style="fill: none; stroke: #d3d3d3"/>
    <path d="M 315.704859 176.587236 
L 180.413829 223.525243 
" clip-path="url(#pf4c65bf86d)" style="fill: none; stroke: #d3d3d3"/>
    <path d="M 315.704859 176.587236 
L 184.832224 298.144462 
" clip-path="url(#pf4c65bf86d)" style="fill: none; stroke: #d3d3d3"/>
    <path d="M 315.704859 176.587236 
L 46.15884 278.860548 
" clip-path="url(#pf4c65bf86d)" style="fill: none; stroke: #d3d3d3"/>
    <path d="M 315.704859 176.587236 
L 95.685595 236.433151 
" clip-path="url(#pf4c65bf86d)" style="fill: none; stroke: #d3d3d3"/>
    <path d="M 315.704859 176.587236 
L 460.264463 205.603016 
" clip-path="url(#pf4c65bf86d)" style="fill: none; stroke: #d3d3d3"/>
    <path d="M 315.704859 176.587236 
L 304.492137 302.937289 
" clip-path="url(#pf4c65bf86d)" style="fill: none; stroke: #d3d3d3"/>
    <path d="M 315.704859 176.587236 
L 379.327315 352.266249 
" clip-path="url(#pf4c65bf86d)" style="fill: none; stroke: #d3d3d3"/>
    <path d="M 315.704859 176.587236 
L 188.448374 367.001059 
" clip-path="url(#pf4c65bf86d)" style="fill: none; stroke: #d3d3d3"/>
    <path d="M 149.682305 69.798249 
L 107.764069 181.115894 
" clip-path="url(#pf4c65bf86d)" style="fill: none; stroke: #d3d3d3"/>
    <path d="M 149.682305 69.798249 
L 184.832224 298.144462 
" clip-path="url(#pf4c65bf86d)" style="fill: none; stroke: #d3d3d3"/>
    <path d="M 149.682305 69.798249 
L 111.880775 276.509433 
" clip-path="url(#pf4c65bf86d)" style="fill: none; stroke: #d3d3d3"/>
    <path d="M 149.682305 69.798249 
L 275.512889 356.721214 
" clip-path="url(#pf4c65bf86d)" style="fill: none; stroke: #d3d3d3"/>
    <path d="M 149.682305 69.798249 
L 259.543243 195.886006 
" clip-path="url(#pf4c65bf86d)" style="fill: none; stroke: #d3d3d3"/>
    <path d="M 149.682305 69.798249 
L 391.569185 112.303049 
" clip-path="url(#pf4c65bf86d)" style="fill: none; stroke: #d3d3d3"/>
    <path d="M 149.682305 69.798249 
L 204.177002 146.111808 
" clip-path="url(#pf4c65bf86d)" style="fill: none; stroke: #d3d3d3"/>
    <path d="M 149.682305 69.798249 
L 460.264463 205.603016 
" clip-path="url(#pf4c65bf86d)" style="fill: none; stroke: #d3d3d3"/>
    <path d="M 149.682305 69.798249 
L 270.234092 114.970663 
" clip-path="url(#pf4c65bf86d)" style="fill: none; stroke: #d3d3d3"/>
    <path d="M 149.682305 69.798249 
L 43.735537 183.548941 
" clip-path="url(#pf4c65bf86d)" style="fill: none; stroke: #d3d3d3"/>
    <path d="M 149.682305 69.798249 
L 130.34157 138.706712 
" clip-path="url(#pf4c65bf86d)" style="fill: none; stroke: #d3d3d3"/>
    <path d="M 149.682305 69.798249 
L 95.685595 236.433151 
" clip-path="url(#pf4c65bf86d)" style="fill: none; stroke: #d3d3d3"/>
    <path d="M 270.234092 114.970663 
L 209.207476 194.555298 
" clip-path="url(#pf4c65bf86d)" style="fill: none; stroke: #d3d3d3"/>
    <path d="M 270.234092 114.970663 
L 331.195852 339.691756 
" clip-path="url(#pf4c65bf86d)" style="fill: none; stroke: #d3d3d3"/>
    <path d="M 270.234092 114.970663 
L 376.393331 273.951041 
" clip-path="url(#pf4c65bf86d)" style="fill: none; stroke: #d3d3d3"/>
    <path d="M 270.234092 114.970663 
L 107.764069 181.115894 
" clip-path="url(#pf4c65bf86d)" style="fill: none; stroke: #d3d3d3"/>
    <path d="M 270.234092 114.970663 
L 180.413829 223.525243 
" clip-path="url(#pf4c65bf86d)" style="fill: none; stroke: #d3d3d3"/>
    <path d="M 270.234092 114.970663 
L 425.193514 259.94772 
" clip-path="url(#pf4c65bf86d)" style="fill: none; stroke: #d3d3d3"/>
    <path d="M 270.234092 114.970663 
L 304.492137 302.937289 
" clip-path="url(#pf4c65bf86d)" style="fill: none; stroke: #d3d3d3"/>
    <path d="M 270.234092 114.970663 
L 43.735537 183.548941 
" clip-path="url(#pf4c65bf86d)" style="fill: none; stroke: #d3d3d3"/>
    <path d="M 270.234092 114.970663 
L 130.34157 138.706712 
" clip-path="url(#pf4c65bf86d)" style="fill: none; stroke: #d3d3d3"/>
    <path d="M 270.234092 114.970663 
L 95.685595 236.433151 
" clip-path="url(#pf4c65bf86d)" style="fill: none; stroke: #d3d3d3"/>
    <path d="M 43.735537 183.548941 
L 259.543243 195.886006 
" clip-path="url(#pf4c65bf86d)" style="fill: none; stroke: #d3d3d3"/>
    <path d="M 43.735537 183.548941 
L 107.764069 181.115894 
" clip-path="url(#pf4c65bf86d)" style="fill: none; stroke: #d3d3d3"/>
    <path d="M 43.735537 183.548941 
L 46.15884 278.860548 
" clip-path="url(#pf4c65bf86d)" style="fill: none; stroke: #d3d3d3"/>
    <path d="M 43.735537 183.548941 
L 223.096161 394.512397 
" clip-path="url(#pf4c65bf86d)" style="fill: none; stroke: #d3d3d3"/>
    <path d="M 43.735537 183.548941 
L 209.207476 194.555298 
" clip-path="url(#pf4c65bf86d)" style="fill: none; stroke: #d3d3d3"/>
    <path d="M 43.735537 183.548941 
L 184.832224 298.144462 
" clip-path="url(#pf4c65bf86d)" style="fill: none; stroke: #d3d3d3"/>
    <path d="M 43.735537 183.548941 
L 126.406799 325.699116 
" clip-path="url(#pf4c65bf86d)" style="fill: none; stroke: #d3d3d3"/>
    <path d="M 43.735537 183.548941 
L 379.327315 352.266249 
" clip-path="url(#pf4c65bf86d)" style="fill: none; stroke: #d3d3d3"/>
    <path d="M 43.735537 183.548941 
L 130.34157 138.706712 
" clip-path="url(#pf4c65bf86d)" style="fill: none; stroke: #d3d3d3"/>
    <path d="M 43.735537 183.548941 
L 95.685595 236.433151 
" clip-path="url(#pf4c65bf86d)" style="fill: none; stroke: #d3d3d3"/>
    <path d="M 130.34157 138.706712 
L 391.569185 112.303049 
" clip-path="url(#pf4c65bf86d)" style="fill: none; stroke: #d3d3d3"/>
    <path d="M 130.34157 138.706712 
L 209.207476 194.555298 
" clip-path="url(#pf4c65bf86d)" style="fill: none; stroke: #d3d3d3"/>
    <path d="M 130.34157 138.706712 
L 219.612915 306.493604 
" clip-path="url(#pf4c65bf86d)" style="fill: none; stroke: #d3d3d3"/>
    <path d="M 130.34157 138.706712 
L 46.15884 278.860548 
" clip-path="url(#pf4c65bf86d)" style="fill: none; stroke: #d3d3d3"/>
    <path d="M 130.34157 138.706712 
L 331.195852 339.691756 
" clip-path="url(#pf4c65bf86d)" style="fill: none; stroke: #d3d3d3"/>
    <path d="M 130.34157 138.706712 
L 111.880775 276.509433 
" clip-path="url(#pf4c65bf86d)" style="fill: none; stroke: #d3d3d3"/>
    <path d="M 130.34157 138.706712 
L 188.448374 367.001059 
" clip-path="url(#pf4c65bf86d)" style="fill: none; stroke: #d3d3d3"/>
    <path d="M 130.34157 138.706712 
L 95.685595 236.433151 
" clip-path="url(#pf4c65bf86d)" style="fill: none; stroke: #d3d3d3"/>
    <path d="M 95.685595 236.433151 
L 204.177002 146.111808 
" clip-path="url(#pf4c65bf86d)" style="fill: none; stroke: #d3d3d3"/>
    <path d="M 95.685595 236.433151 
L 180.413829 223.525243 
" clip-path="url(#pf4c65bf86d)" style="fill: none; stroke: #d3d3d3"/>
    <path d="M 95.685595 236.433151 
L 184.832224 298.144462 
" clip-path="url(#pf4c65bf86d)" style="fill: none; stroke: #d3d3d3"/>
    <path d="M 95.685595 236.433151 
L 46.15884 278.860548 
" clip-path="url(#pf4c65bf86d)" style="fill: none; stroke: #d3d3d3"/>
    <path d="M 95.685595 236.433151 
L 219.612915 306.493604 
" clip-path="url(#pf4c65bf86d)" style="fill: none; stroke: #d3d3d3"/>
    <path d="M 95.685595 236.433151 
L 223.096161 394.512397 
" clip-path="url(#pf4c65bf86d)" style="fill: none; stroke: #d3d3d3"/>
    <path d="M 95.685595 236.433151 
L 376.393331 273.951041 
" clip-path="url(#pf4c65bf86d)" style="fill: none; stroke: #d3d3d3"/>
    <path d="M 95.685595 236.433151 
L 275.512889 356.721214 
" clip-path="url(#pf4c65bf86d)" style="fill: none; stroke: #d3d3d3"/>
    <path d="M 259.543243 195.886006 
L 180.413829 223.525243 
" clip-path="url(#pf4c65bf86d)" style="fill: none; stroke: #d3d3d3"/>
    <path d="M 259.543243 195.886006 
L 126.406799 325.699116 
" clip-path="url(#pf4c65bf86d)" style="fill: none; stroke: #d3d3d3"/>
    <path d="M 259.543243 195.886006 
L 188.448374 367.001059 
" clip-path="url(#pf4c65bf86d)" style="fill: none; stroke: #d3d3d3"/>
    <path d="M 259.543243 195.886006 
L 107.764069 181.115894 
" clip-path="url(#pf4c65bf86d)" style="fill: none; stroke: #d3d3d3"/>
    <path d="M 259.543243 195.886006 
L 391.569185 112.303049 
" clip-path="url(#pf4c65bf86d)" style="fill: none; stroke: #d3d3d3"/>
    <path d="M 259.543243 195.886006 
L 204.177002 146.111808 
" clip-path="url(#pf4c65bf86d)" style="fill: none; stroke: #d3d3d3"/>
    <path d="M 259.543243 195.886006 
L 460.264463 205.603016 
" clip-path="url(#pf4c65bf86d)" style="fill: none; stroke: #d3d3d3"/>
    <path d="M 259.543243 195.886006 
L 184.832224 298.144462 
" clip-path="url(#pf4c65bf86d)" style="fill: none; stroke: #d3d3d3"/>
    <path d="M 259.543243 195.886006 
L 331.195852 339.691756 
" clip-path="url(#pf4c65bf86d)" style="fill: none; stroke: #d3d3d3"/>
    <path d="M 259.543243 195.886006 
L 223.096161 394.512397 
" clip-path="url(#pf4c65bf86d)" style="fill: none; stroke: #d3d3d3"/>
    <path d="M 180.413829 223.525243 
L 391.569185 112.303049 
" clip-path="url(#pf4c65bf86d)" style="fill: none; stroke: #d3d3d3"/>
    <path d="M 180.413829 223.525243 
L 204.177002 146.111808 
" clip-path="url(#pf4c65bf86d)" style="fill: none; stroke: #d3d3d3"/>
    <path d="M 180.413829 223.525243 
L 107.764069 181.115894 
" clip-path="url(#pf4c65bf86d)" style="fill: none; stroke: #d3d3d3"/>
    <path d="M 180.413829 223.525243 
L 126.406799 325.699116 
" clip-path="url(#pf4c65bf86d)" style="fill: none; stroke: #d3d3d3"/>
    <path d="M 180.413829 223.525243 
L 188.448374 367.001059 
" clip-path="url(#pf4c65bf86d)" style="fill: none; stroke: #d3d3d3"/>
    <path d="M 180.413829 223.525243 
L 184.832224 298.144462 
" clip-path="url(#pf4c65bf86d)" style="fill: none; stroke: #d3d3d3"/>
    <path d="M 180.413829 223.525243 
L 46.15884 278.860548 
" clip-path="url(#pf4c65bf86d)" style="fill: none; stroke: #d3d3d3"/>
    <path d="M 180.413829 223.525243 
L 425.193514 259.94772 
" clip-path="url(#pf4c65bf86d)" style="fill: none; stroke: #d3d3d3"/>
    <path d="M 180.413829 223.525243 
L 304.492137 302.937289 
" clip-path="url(#pf4c65bf86d)" style="fill: none; stroke: #d3d3d3"/>
    <path d="M 180.413829 223.525243 
L 111.880775 276.509433 
" clip-path="url(#pf4c65bf86d)" style="fill: none; stroke: #d3d3d3"/>
    <path d="M 180.413829 223.525243 
L 376.393331 273.951041 
" clip-path="url(#pf4c65bf86d)" style="fill: none; stroke: #d3d3d3"/>
    <path d="M 126.406799 325.699116 
L 204.177002 146.111808 
" clip-path="url(#pf4c65bf86d)" style="fill: none; stroke: #d3d3d3"/>
    <path d="M 126.406799 325.699116 
L 425.193514 259.94772 
" clip-path="url(#pf4c65bf86d)" style="fill: none; stroke: #d3d3d3"/>
    <path d="M 126.406799 325.699116 
L 304.492137 302.937289 
" clip-path="url(#pf4c65bf86d)" style="fill: none; stroke: #d3d3d3"/>
    <path d="M 126.406799 325.699116 
L 209.207476 194.555298 
" clip-path="url(#pf4c65bf86d)" style="fill: none; stroke: #d3d3d3"/>
    <path d="M 126.406799 325.699116 
L 184.832224 298.144462 
" clip-path="url(#pf4c65bf86d)" style="fill: none; stroke: #d3d3d3"/>
    <path d="M 126.406799 325.699116 
L 188.448374 367.001059 
" clip-path="url(#pf4c65bf86d)" style="fill: none; stroke: #d3d3d3"/>
    <path d="M 126.406799 325.699116 
L 111.880775 276.509433 
" clip-path="url(#pf4c65bf86d)" style="fill: none; stroke: #d3d3d3"/>
    <path d="M 126.406799 325.699116 
L 223.096161 394.512397 
" clip-path="url(#pf4c65bf86d)" style="fill: none; stroke: #d3d3d3"/>
    <path d="M 126.406799 325.699116 
L 379.327315 352.266249 
" clip-path="url(#pf4c65bf86d)" style="fill: none; stroke: #d3d3d3"/>
    <path d="M 126.406799 325.699116 
L 275.512889 356.721214 
" clip-path="url(#pf4c65bf86d)" style="fill: none; stroke: #d3d3d3"/>
    <path d="M 188.448374 367.001059 
L 460.264463 205.603016 
" clip-path="url(#pf4c65bf86d)" style="fill: none; stroke: #d3d3d3"/>
    <path d="M 188.448374 367.001059 
L 304.492137 302.937289 
" clip-path="url(#pf4c65bf86d)" style="fill: none; stroke: #d3d3d3"/>
    <path d="M 188.448374 367.001059 
L 379.327315 352.266249 
" clip-path="url(#pf4c65bf86d)" style="fill: none; stroke: #d3d3d3"/>
    <path d="M 188.448374 367.001059 
L 46.15884 278.860548 
" clip-path="url(#pf4c65bf86d)" style="fill: none; stroke: #d3d3d3"/>
    <path d="M 188.448374 367.001059 
L 331.195852 339.691756 
" clip-path="url(#pf4c65bf86d)" style="fill: none; stroke: #d3d3d3"/>
    <path d="M 188.448374 367.001059 
L 111.880775 276.509433 
" clip-path="url(#pf4c65bf86d)" style="fill: none; stroke: #d3d3d3"/>
    <path d="M 188.448374 367.001059 
L 275.512889 356.721214 
" clip-path="url(#pf4c65bf86d)" style="fill: none; stroke: #d3d3d3"/>
    <path d="M 107.764069 181.115894 
L 184.832224 298.144462 
" clip-path="url(#pf4c65bf86d)" style="fill: none; stroke: #d3d3d3"/>
    <path d="M 107.764069 181.115894 
L 111.880775 276.509433 
" clip-path="url(#pf4c65bf86d)" style="fill: none; stroke: #d3d3d3"/>
    <path d="M 107.764069 181.115894 
L 275.512889 356.721214 
" clip-path="url(#pf4c65bf86d)" style="fill: none; stroke: #d3d3d3"/>
    <path d="M 107.764069 181.115894 
L 425.193514 259.94772 
" clip-path="url(#pf4c65bf86d)" style="fill: none; stroke: #d3d3d3"/>
    <path d="M 107.764069 181.115894 
L 304.492137 302.937289 
" clip-path="url(#pf4c65bf86d)" style="fill: none; stroke: #d3d3d3"/>
    <path d="M 107.764069 181.115894 
L 209.207476 194.555298 
" clip-path="url(#pf4c65bf86d)" style="fill: none; stroke: #d3d3d3"/>
    <path d="M 107.764069 181.115894 
L 46.15884 278.860548 
" clip-path="url(#pf4c65bf86d)" style="fill: none; stroke: #d3d3d3"/>
    <path d="M 107.764069 181.115894 
L 219.612915 306.493604 
" clip-path="url(#pf4c65bf86d)" style="fill: none; stroke: #d3d3d3"/>
    <path d="M 209.207476 194.555298 
L 391.569185 112.303049 
" clip-path="url(#pf4c65bf86d)" style="fill: none; stroke: #d3d3d3"/>
    <path d="M 209.207476 194.555298 
L 331.195852 339.691756 
" clip-path="url(#pf4c65bf86d)" style="fill: none; stroke: #d3d3d3"/>
    <path d="M 209.207476 194.555298 
L 376.393331 273.951041 
" clip-path="url(#pf4c65bf86d)" style="fill: none; stroke: #d3d3d3"/>
    <path d="M 209.207476 194.555298 
L 184.832224 298.144462 
" clip-path="url(#pf4c65bf86d)" style="fill: none; stroke: #d3d3d3"/>
    <path d="M 209.207476 194.555298 
L 379.327315 352.266249 
" clip-path="url(#pf4c65bf86d)" style="fill: none; stroke: #d3d3d3"/>
    <path d="M 209.207476 194.555298 
L 46.15884 278.860548 
" clip-path="url(#pf4c65bf86d)" style="fill: none; stroke: #d3d3d3"/>
    <path d="M 209.207476 194.555298 
L 219.612915 306.493604 
" clip-path="url(#pf4c65bf86d)" style="fill: none; stroke: #d3d3d3"/>
    <path d="M 46.15884 278.860548 
L 204.177002 146.111808 
" clip-path="url(#pf4c65bf86d)" style="fill: none; stroke: #d3d3d3"/>
    <path d="M 46.15884 278.860548 
L 184.832224 298.144462 
" clip-path="url(#pf4c65bf86d)" style="fill: none; stroke: #d3d3d3"/>
    <path d="M 46.15884 278.860548 
L 223.096161 394.512397 
" clip-path="url(#pf4c65bf86d)" style="fill: none; stroke: #d3d3d3"/>
    <path d="M 46.15884 278.860548 
L 331.195852 339.691756 
" clip-path="url(#pf4c65bf86d)" style="fill: none; stroke: #d3d3d3"/>
    <path d="M 46.15884 278.860548 
L 111.880775 276.509433 
" clip-path="url(#pf4c65bf86d)" style="fill: none; stroke: #d3d3d3"/>
    <path d="M 46.15884 278.860548 
L 219.612915 306.493604 
" clip-path="url(#pf4c65bf86d)" style="fill: none; stroke: #d3d3d3"/>
    <path d="M 219.612915 306.493604 
L 460.264463 205.603016 
" clip-path="url(#pf4c65bf86d)" style="fill: none; stroke: #d3d3d3"/>
    <path d="M 219.612915 306.493604 
L 425.193514 259.94772 
" clip-path="url(#pf4c65bf86d)" style="fill: none; stroke: #d3d3d3"/>
    <path d="M 219.612915 306.493604 
L 331.195852 339.691756 
" clip-path="url(#pf4c65bf86d)" style="fill: none; stroke: #d3d3d3"/>
    <path d="M 219.612915 306.493604 
L 223.096161 394.512397 
" clip-path="url(#pf4c65bf86d)" style="fill: none; stroke: #d3d3d3"/>
    <path d="M 219.612915 306.493604 
L 376.393331 273.951041 
" clip-path="url(#pf4c65bf86d)" style="fill: none; stroke: #d3d3d3"/>
    <path d="M 219.612915 306.493604 
L 275.512889 356.721214 
" clip-path="url(#pf4c65bf86d)" style="fill: none; stroke: #d3d3d3"/>
    <path d="M 391.569185 112.303049 
L 425.193514 259.94772 
" clip-path="url(#pf4c65bf86d)" style="fill: none; stroke: #d3d3d3"/>
    <path d="M 391.569185 112.303049 
L 379.327315 352.266249 
" clip-path="url(#pf4c65bf86d)" style="fill: none; stroke: #d3d3d3"/>
    <path d="M 391.569185 112.303049 
L 204.177002 146.111808 
" clip-path="url(#pf4c65bf86d)" style="fill: none; stroke: #d3d3d3"/>
    <path d="M 391.569185 112.303049 
L 460.264463 205.603016 
" clip-path="url(#pf4c65bf86d)" style="fill: none; stroke: #d3d3d3"/>
    <path d="M 391.569185 112.303049 
L 111.880775 276.509433 
" clip-path="url(#pf4c65bf86d)" style="fill: none; stroke: #d3d3d3"/>
    <path d="M 391.569185 112.303049 
L 376.393331 273.951041 
" clip-path="url(#pf4c65bf86d)" style="fill: none; stroke: #d3d3d3"/>
    <path d="M 425.193514 259.94772 
L 204.177002 146.111808 
" clip-path="url(#pf4c65bf86d)" style="fill: none; stroke: #d3d3d3"/>
    <path d="M 425.193514 259.94772 
L 460.264463 205.603016 
" clip-path="url(#pf4c65bf86d)" style="fill: none; stroke: #d3d3d3"/>
    <path d="M 425.193514 259.94772 
L 379.327315 352.266249 
" clip-path="url(#pf4c65bf86d)" style="fill: none; stroke: #d3d3d3"/>
    <path d="M 425.193514 259.94772 
L 331.195852 339.691756 
" clip-path="url(#pf4c65bf86d)" style="fill: none; stroke: #d3d3d3"/>
    <path d="M 425.193514 259.94772 
L 304.492137 302.937289 
" clip-path="url(#pf4c65bf86d)" style="fill: none; stroke: #d3d3d3"/>
    <path d="M 425.193514 259.94772 
L 275.512889 356.721214 
" clip-path="url(#pf4c65bf86d)" style="fill: none; stroke: #d3d3d3"/>
    <path d="M 379.327315 352.266249 
L 460.264463 205.603016 
" clip-path="url(#pf4c65bf86d)" style="fill: none; stroke: #d3d3d3"/>
    <path d="M 379.327315 352.266249 
L 304.492137 302.937289 
" clip-path="url(#pf4c65bf86d)" style="fill: none; stroke: #d3d3d3"/>
    <path d="M 379.327315 352.266249 
L 184.832224 298.144462 
" clip-path="url(#pf4c65bf86d)" style="fill: none; stroke: #d3d3d3"/>
    <path d="M 379.327315 352.266249 
L 376.393331 273.951041 
" clip-path="url(#pf4c65bf86d)" style="fill: none; stroke: #d3d3d3"/>
    <path d="M 184.832224 298.144462 
L 204.177002 146.111808 
" clip-path="url(#pf4c65bf86d)" style="fill: none; stroke: #d3d3d3"/>
    <path d="M 184.832224 298.144462 
L 111.880775 276.509433 
" clip-path="url(#pf4c65bf86d)" style="fill: none; stroke: #d3d3d3"/>
    <path d="M 184.832224 298.144462 
L 275.512889 356.721214 
" clip-path="url(#pf4c65bf86d)" style="fill: none; stroke: #d3d3d3"/>
    <path d="M 184.832224 298.144462 
L 331.195852 339.691756 
" clip-path="url(#pf4c65bf86d)" style="fill: none; stroke: #d3d3d3"/>
    <path d="M 184.832224 298.144462 
L 223.096161 394.512397 
" clip-path="url(#pf4c65bf86d)" style="fill: none; stroke: #d3d3d3"/>
    <path d="M 331.195852 339.691756 
L 460.264463 205.603016 
" clip-path="url(#pf4c65bf86d)" style="fill: none; stroke: #d3d3d3"/>
    <path d="M 331.195852 339.691756 
L 376.393331 273.951041 
" clip-path="url(#pf4c65bf86d)" style="fill: none; stroke: #d3d3d3"/>
    <path d="M 331.195852 339.691756 
L 111.880775 276.509433 
" clip-path="url(#pf4c65bf86d)" style="fill: none; stroke: #d3d3d3"/>
    <path d="M 331.195852 339.691756 
L 223.096161 394.512397 
" clip-path="url(#pf4c65bf86d)" style="fill: none; stroke: #d3d3d3"/>
    <path d="M 223.096161 394.512397 
L 304.492137 302.937289 
" clip-path="url(#pf4c65bf86d)" style="fill: none; stroke: #d3d3d3"/>
    <path d="M 223.096161 394.512397 
L 111.880775 276.509433 
" clip-path="url(#pf4c65bf86d)" style="fill: none; stroke: #d3d3d3"/>
    <path d="M 223.096161 394.512397 
L 376.393331 273.951041 
" clip-path="url(#pf4c65bf86d)" style="fill: none; stroke: #d3d3d3"/>
    <path d="M 223.096161 394.512397 
L 275.512889 356.721214 
" clip-path="url(#pf4c65bf86d)" style="fill: none; stroke: #d3d3d3"/>
    <path d="M 204.177002 146.111808 
L 304.492137 302.937289 
" clip-path="url(#pf4c65bf86d)" style="fill: none; stroke: #d3d3d3"/>
    <path d="M 204.177002 146.111808 
L 460.264463 205.603016 
" clip-path="url(#pf4c65bf86d)" style="fill: none; stroke: #d3d3d3"/>
    <path d="M 204.177002 146.111808 
L 275.512889 356.721214 
" clip-path="url(#pf4c65bf86d)" style="fill: none; stroke: #d3d3d3"/>
    <path d="M 304.492137 302.937289 
L 460.264463 205.603016 
" clip-path="url(#pf4c65bf86d)" style="fill: none; stroke: #d3d3d3"/>
    <path d="M 304.492137 302.937289 
L 111.880775 276.509433 
" clip-path="url(#pf4c65bf86d)" style="fill: none; stroke: #d3d3d3"/>
    <path d="M 111.880775 276.509433 
L 275.512889 356.721214 
" clip-path="url(#pf4c65bf86d)" style="fill: none; stroke: #d3d3d3"/>
    <path d="M 111.880775 276.509433 
L 376.393331 273.951041 
" clip-path="url(#pf4c65bf86d)" style="fill: none; stroke: #d3d3d3"/>
    <path d="M 376.393331 273.951041 
L 275.512889 356.721214 
" clip-path="url(#pf4c65bf86d)" style="fill: none; stroke: #d3d3d3"/>
   </g>
   <g id="PathCollection_1">
    <defs>
     <path id="C0_0_865389b699" d="M 0 5 
C 1.326016 5 2.597899 4.473168 3.535534 3.535534 
C 4.473168 2.597899 5 1.326016 5 -0 
C 5 -1.326016 4.473168 -2.597899 3.535534 -3.535534 
C 2.597899 -4.473168 1.326016 -5 0 -5 
C -1.326016 -5 -2.597899 -4.473168 -3.535534 -3.535534 
C -4.473168 -2.597899 -5 -1.326016 -5 0 
C -5 1.326016 -4.473168 2.597899 -3.535534 3.535534 
C -2.597899 4.473168 -1.326016 5 0 5 
z
"/>
    </defs>
    <g clip-path="url(#pf4c65bf86d)">
     <use xlink:href="#C0_0_865389b699" x="271.837335" y="37.487603" style="fill: #8000ff; stroke: #8000ff"/>
    </g>
    <g clip-path="url(#pf4c65bf86d)">
     <use xlink:href="#C0_0_865389b699" x="314.088613" y="86.188509" style="fill: #8000ff; stroke: #8000ff"/>
    </g>
    <g clip-path="url(#pf4c65bf86d)">
     <use xlink:href="#C0_0_865389b699" x="390.706392" y="190.360815" style="fill: #8000ff; stroke: #8000ff"/>
    </g>
    <g clip-path="url(#pf4c65bf86d)">
     <use xlink:href="#C0_0_865389b699" x="328.671131" y="211.45169" style="fill: #8000ff; stroke: #8000ff"/>
    </g>
    <g clip-path="url(#pf4c65bf86d)">
     <use xlink:href="#C0_0_865389b699" x="269.602176" y="257.401551" style="fill: #8000ff; stroke: #8000ff"/>
    </g>
    <g clip-path="url(#pf4c65bf86d)">
     <use xlink:href="#C0_0_865389b699" x="436.584848" y="307.075925" style="fill: #8000ff; stroke: #8000ff"/>
    </g>
    <g clip-path="url(#pf4c65bf86d)">
     <use xlink:href="#C0_0_865389b699" x="99.57783" y="113.984557" style="fill: #8000ff; stroke: #8000ff"/>
    </g>
    <g clip-path="url(#pf4c65bf86d)">
     <use xlink:href="#C0_0_865389b699" x="444.022995" y="155.993317" style="fill: #8000ff; stroke: #8000ff"/>
    </g>
    <g clip-path="url(#pf4c65bf86d)">
     <use xlink:href="#C0_0_865389b699" x="214.347315" y="68.211364" style="fill: #8000ff; stroke: #8000ff"/>
    </g>
    <g clip-path="url(#pf4c65bf86d)">
     <use xlink:href="#C0_0_865389b699" x="354.296543" y="81.660288" style="fill: #8000ff; stroke: #8000ff"/>
    </g>
    <g clip-path="url(#pf4c65bf86d)">
     <use xlink:href="#C0_0_865389b699" x="315.704859" y="176.587236" style="fill: #8000ff; stroke: #8000ff"/>
    </g>
    <g clip-path="url(#pf4c65bf86d)">
     <use xlink:href="#C0_0_865389b699" x="149.682305" y="69.798249" style="fill: #8000ff; stroke: #8000ff"/>
    </g>
    <g clip-path="url(#pf4c65bf86d)">
     <use xlink:href="#C0_0_865389b699" x="270.234092" y="114.970663" style="fill: #8000ff; stroke: #8000ff"/>
    </g>
    <g clip-path="url(#pf4c65bf86d)">
     <use xlink:href="#C0_0_865389b699" x="43.735537" y="183.548941" style="fill: #8000ff; stroke: #8000ff"/>
    </g>
    <g clip-path="url(#pf4c65bf86d)">
     <use xlink:href="#C0_0_865389b699" x="130.34157" y="138.706712" style="fill: #8000ff; stroke: #8000ff"/>
    </g>
    <g clip-path="url(#pf4c65bf86d)">
     <use xlink:href="#C0_0_865389b699" x="95.685595" y="236.433151" style="fill: #8000ff; stroke: #8000ff"/>
    </g>
    <g clip-path="url(#pf4c65bf86d)">
     <use xlink:href="#C0_0_865389b699" x="259.543243" y="195.886006" style="fill: #8000ff; stroke: #8000ff"/>
    </g>
    <g clip-path="url(#pf4c65bf86d)">
     <use xlink:href="#C0_0_865389b699" x="180.413829" y="223.525243" style="fill: #8000ff; stroke: #8000ff"/>
    </g>
    <g clip-path="url(#pf4c65bf86d)">
     <use xlink:href="#C0_0_865389b699" x="126.406799" y="325.699116" style="fill: #8000ff; stroke: #8000ff"/>
    </g>
    <g clip-path="url(#pf4c65bf86d)">
     <use xlink:href="#C0_0_865389b699" x="188.448374" y="367.001059" style="fill: #8000ff; stroke: #8000ff"/>
    </g>
    <g clip-path="url(#pf4c65bf86d)">
     <use xlink:href="#C0_0_865389b699" x="107.764069" y="181.115894" style="fill: #8000ff; stroke: #8000ff"/>
    </g>
    <g clip-path="url(#pf4c65bf86d)">
     <use xlink:href="#C0_0_865389b699" x="209.207476" y="194.555298" style="fill: #8000ff; stroke: #8000ff"/>
    </g>
    <g clip-path="url(#pf4c65bf86d)">
     <use xlink:href="#C0_0_865389b699" x="46.15884" y="278.860548" style="fill: #8000ff; stroke: #8000ff"/>
    </g>
    <g clip-path="url(#pf4c65bf86d)">
     <use xlink:href="#C0_0_865389b699" x="219.612915" y="306.493604" style="fill: #8000ff; stroke: #8000ff"/>
    </g>
    <g clip-path="url(#pf4c65bf86d)">
     <use xlink:href="#C0_0_865389b699" x="391.569185" y="112.303049" style="fill: #8000ff; stroke: #8000ff"/>
    </g>
    <g clip-path="url(#pf4c65bf86d)">
     <use xlink:href="#C0_0_865389b699" x="425.193514" y="259.94772" style="fill: #8000ff; stroke: #8000ff"/>
    </g>
    <g clip-path="url(#pf4c65bf86d)">
     <use xlink:href="#C0_0_865389b699" x="379.327315" y="352.266249" style="fill: #8000ff; stroke: #8000ff"/>
    </g>
    <g clip-path="url(#pf4c65bf86d)">
     <use xlink:href="#C0_0_865389b699" x="184.832224" y="298.144462" style="fill: #8000ff; stroke: #8000ff"/>
    </g>
    <g clip-path="url(#pf4c65bf86d)">
     <use xlink:href="#C0_0_865389b699" x="331.195852" y="339.691756" style="fill: #8000ff; stroke: #8000ff"/>
    </g>
    <g clip-path="url(#pf4c65bf86d)">
     <use xlink:href="#C0_0_865389b699" x="223.096161" y="394.512397" style="fill: #8000ff; stroke: #8000ff"/>
    </g>
    <g clip-path="url(#pf4c65bf86d)">
     <use xlink:href="#C0_0_865389b699" x="204.177002" y="146.111808" style="fill: #8000ff; stroke: #8000ff"/>
    </g>
    <g clip-path="url(#pf4c65bf86d)">
     <use xlink:href="#C0_0_865389b699" x="304.492137" y="302.937289" style="fill: #8000ff; stroke: #8000ff"/>
    </g>
    <g clip-path="url(#pf4c65bf86d)">
     <use xlink:href="#C0_0_865389b699" x="111.880775" y="276.509433" style="fill: #8000ff; stroke: #8000ff"/>
    </g>
    <g clip-path="url(#pf4c65bf86d)">
     <use xlink:href="#C0_0_865389b699" x="376.393331" y="273.951041" style="fill: #8000ff; stroke: #8000ff"/>
    </g>
    <g clip-path="url(#pf4c65bf86d)">
     <use xlink:href="#C0_0_865389b699" x="460.264463" y="205.603016" style="fill: #8000ff; stroke: #8000ff"/>
    </g>
    <g clip-path="url(#pf4c65bf86d)">
     <use xlink:href="#C0_0_865389b699" x="275.512889" y="356.721214" style="fill: #8000ff; stroke: #8000ff"/>
    </g>
   </g>
   <g id="text_1">
    <!-- Colored Graph - queen6_6.col -->
    <g transform="translate(162.702188 -6) scale(0.12 -0.12)">
     <defs>
      <path id="DejaVuSans-43" d="M 4122 4306 
L 4122 3641 
Q 3803 3938 3442 4084 
Q 3081 4231 2675 4231 
Q 1875 4231 1450 3742 
Q 1025 3253 1025 2328 
Q 1025 1406 1450 917 
Q 1875 428 2675 428 
Q 3081 428 3442 575 
Q 3803 722 4122 1019 
L 4122 359 
Q 3791 134 3420 21 
Q 3050 -91 2638 -91 
Q 1578 -91 968 557 
Q 359 1206 359 2328 
Q 359 3453 968 4101 
Q 1578 4750 2638 4750 
Q 3056 4750 3426 4639 
Q 3797 4528 4122 4306 
z
" transform="scale(0.015625)"/>
      <path id="DejaVuSans-6f" d="M 1959 3097 
Q 1497 3097 1228 2736 
Q 959 2375 959 1747 
Q 959 1119 1226 758 
Q 1494 397 1959 397 
Q 2419 397 2687 759 
Q 2956 1122 2956 1747 
Q 2956 2369 2687 2733 
Q 2419 3097 1959 3097 
z
M 1959 3584 
Q 2709 3584 3137 3096 
Q 3566 2609 3566 1747 
Q 3566 888 3137 398 
Q 2709 -91 1959 -91 
Q 1206 -91 779 398 
Q 353 888 353 1747 
Q 353 2609 779 3096 
Q 1206 3584 1959 3584 
z
" transform="scale(0.015625)"/>
      <path id="DejaVuSans-6c" d="M 603 4863 
L 1178 4863 
L 1178 0 
L 603 0 
L 603 4863 
z
" transform="scale(0.015625)"/>
      <path id="DejaVuSans-72" d="M 2631 2963 
Q 2534 3019 2420 3045 
Q 2306 3072 2169 3072 
Q 1681 3072 1420 2755 
Q 1159 2438 1159 1844 
L 1159 0 
L 581 0 
L 581 3500 
L 1159 3500 
L 1159 2956 
Q 1341 3275 1631 3429 
Q 1922 3584 2338 3584 
Q 2397 3584 2469 3576 
Q 2541 3569 2628 3553 
L 2631 2963 
z
" transform="scale(0.015625)"/>
      <path id="DejaVuSans-65" d="M 3597 1894 
L 3597 1613 
L 953 1613 
Q 991 1019 1311 708 
Q 1631 397 2203 397 
Q 2534 397 2845 478 
Q 3156 559 3463 722 
L 3463 178 
Q 3153 47 2828 -22 
Q 2503 -91 2169 -91 
Q 1331 -91 842 396 
Q 353 884 353 1716 
Q 353 2575 817 3079 
Q 1281 3584 2069 3584 
Q 2775 3584 3186 3129 
Q 3597 2675 3597 1894 
z
M 3022 2063 
Q 3016 2534 2758 2815 
Q 2500 3097 2075 3097 
Q 1594 3097 1305 2825 
Q 1016 2553 972 2059 
L 3022 2063 
z
" transform="scale(0.015625)"/>
      <path id="DejaVuSans-64" d="M 2906 2969 
L 2906 4863 
L 3481 4863 
L 3481 0 
L 2906 0 
L 2906 525 
Q 2725 213 2448 61 
Q 2172 -91 1784 -91 
Q 1150 -91 751 415 
Q 353 922 353 1747 
Q 353 2572 751 3078 
Q 1150 3584 1784 3584 
Q 2172 3584 2448 3432 
Q 2725 3281 2906 2969 
z
M 947 1747 
Q 947 1113 1208 752 
Q 1469 391 1925 391 
Q 2381 391 2643 752 
Q 2906 1113 2906 1747 
Q 2906 2381 2643 2742 
Q 2381 3103 1925 3103 
Q 1469 3103 1208 2742 
Q 947 2381 947 1747 
z
" transform="scale(0.015625)"/>
      <path id="DejaVuSans-20" transform="scale(0.015625)"/>
      <path id="DejaVuSans-47" d="M 3809 666 
L 3809 1919 
L 2778 1919 
L 2778 2438 
L 4434 2438 
L 4434 434 
Q 4069 175 3628 42 
Q 3188 -91 2688 -91 
Q 1594 -91 976 548 
Q 359 1188 359 2328 
Q 359 3472 976 4111 
Q 1594 4750 2688 4750 
Q 3144 4750 3555 4637 
Q 3966 4525 4313 4306 
L 4313 3634 
Q 3963 3931 3569 4081 
Q 3175 4231 2741 4231 
Q 1884 4231 1454 3753 
Q 1025 3275 1025 2328 
Q 1025 1384 1454 906 
Q 1884 428 2741 428 
Q 3075 428 3337 486 
Q 3600 544 3809 666 
z
" transform="scale(0.015625)"/>
      <path id="DejaVuSans-61" d="M 2194 1759 
Q 1497 1759 1228 1600 
Q 959 1441 959 1056 
Q 959 750 1161 570 
Q 1363 391 1709 391 
Q 2188 391 2477 730 
Q 2766 1069 2766 1631 
L 2766 1759 
L 2194 1759 
z
M 3341 1997 
L 3341 0 
L 2766 0 
L 2766 531 
Q 2569 213 2275 61 
Q 1981 -91 1556 -91 
Q 1019 -91 701 211 
Q 384 513 384 1019 
Q 384 1609 779 1909 
Q 1175 2209 1959 2209 
L 2766 2209 
L 2766 2266 
Q 2766 2663 2505 2880 
Q 2244 3097 1772 3097 
Q 1472 3097 1187 3025 
Q 903 2953 641 2809 
L 641 3341 
Q 956 3463 1253 3523 
Q 1550 3584 1831 3584 
Q 2591 3584 2966 3190 
Q 3341 2797 3341 1997 
z
" transform="scale(0.015625)"/>
      <path id="DejaVuSans-70" d="M 1159 525 
L 1159 -1331 
L 581 -1331 
L 581 3500 
L 1159 3500 
L 1159 2969 
Q 1341 3281 1617 3432 
Q 1894 3584 2278 3584 
Q 2916 3584 3314 3078 
Q 3713 2572 3713 1747 
Q 3713 922 3314 415 
Q 2916 -91 2278 -91 
Q 1894 -91 1617 61 
Q 1341 213 1159 525 
z
M 3116 1747 
Q 3116 2381 2855 2742 
Q 2594 3103 2138 3103 
Q 1681 3103 1420 2742 
Q 1159 2381 1159 1747 
Q 1159 1113 1420 752 
Q 1681 391 2138 391 
Q 2594 391 2855 752 
Q 3116 1113 3116 1747 
z
" transform="scale(0.015625)"/>
      <path id="DejaVuSans-68" d="M 3513 2113 
L 3513 0 
L 2938 0 
L 2938 2094 
Q 2938 2591 2744 2837 
Q 2550 3084 2163 3084 
Q 1697 3084 1428 2787 
Q 1159 2491 1159 1978 
L 1159 0 
L 581 0 
L 581 4863 
L 1159 4863 
L 1159 2956 
Q 1366 3272 1645 3428 
Q 1925 3584 2291 3584 
Q 2894 3584 3203 3211 
Q 3513 2838 3513 2113 
z
" transform="scale(0.015625)"/>
      <path id="DejaVuSans-2d" d="M 313 2009 
L 1997 2009 
L 1997 1497 
L 313 1497 
L 313 2009 
z
" transform="scale(0.015625)"/>
      <path id="DejaVuSans-71" d="M 947 1747 
Q 947 1113 1208 752 
Q 1469 391 1925 391 
Q 2381 391 2643 752 
Q 2906 1113 2906 1747 
Q 2906 2381 2643 2742 
Q 2381 3103 1925 3103 
Q 1469 3103 1208 2742 
Q 947 2381 947 1747 
z
M 2906 525 
Q 2725 213 2448 61 
Q 2172 -91 1784 -91 
Q 1150 -91 751 415 
Q 353 922 353 1747 
Q 353 2572 751 3078 
Q 1150 3584 1784 3584 
Q 2172 3584 2448 3432 
Q 2725 3281 2906 2969 
L 2906 3500 
L 3481 3500 
L 3481 -1331 
L 2906 -1331 
L 2906 525 
z
" transform="scale(0.015625)"/>
      <path id="DejaVuSans-75" d="M 544 1381 
L 544 3500 
L 1119 3500 
L 1119 1403 
Q 1119 906 1312 657 
Q 1506 409 1894 409 
Q 2359 409 2629 706 
Q 2900 1003 2900 1516 
L 2900 3500 
L 3475 3500 
L 3475 0 
L 2900 0 
L 2900 538 
Q 2691 219 2414 64 
Q 2138 -91 1772 -91 
Q 1169 -91 856 284 
Q 544 659 544 1381 
z
M 1991 3584 
L 1991 3584 
z
" transform="scale(0.015625)"/>
      <path id="DejaVuSans-6e" d="M 3513 2113 
L 3513 0 
L 2938 0 
L 2938 2094 
Q 2938 2591 2744 2837 
Q 2550 3084 2163 3084 
Q 1697 3084 1428 2787 
Q 1159 2491 1159 1978 
L 1159 0 
L 581 0 
L 581 3500 
L 1159 3500 
L 1159 2956 
Q 1366 3272 1645 3428 
Q 1925 3584 2291 3584 
Q 2894 3584 3203 3211 
Q 3513 2838 3513 2113 
z
" transform="scale(0.015625)"/>
      <path id="DejaVuSans-36" d="M 2113 2584 
Q 1688 2584 1439 2293 
Q 1191 2003 1191 1497 
Q 1191 994 1439 701 
Q 1688 409 2113 409 
Q 2538 409 2786 701 
Q 3034 994 3034 1497 
Q 3034 2003 2786 2293 
Q 2538 2584 2113 2584 
z
M 3366 4563 
L 3366 3988 
Q 3128 4100 2886 4159 
Q 2644 4219 2406 4219 
Q 1781 4219 1451 3797 
Q 1122 3375 1075 2522 
Q 1259 2794 1537 2939 
Q 1816 3084 2150 3084 
Q 2853 3084 3261 2657 
Q 3669 2231 3669 1497 
Q 3669 778 3244 343 
Q 2819 -91 2113 -91 
Q 1303 -91 875 529 
Q 447 1150 447 2328 
Q 447 3434 972 4092 
Q 1497 4750 2381 4750 
Q 2619 4750 2861 4703 
Q 3103 4656 3366 4563 
z
" transform="scale(0.015625)"/>
      <path id="DejaVuSans-5f" d="M 3263 -1063 
L 3263 -1509 
L -63 -1509 
L -63 -1063 
L 3263 -1063 
z
" transform="scale(0.015625)"/>
      <path id="DejaVuSans-2e" d="M 684 794 
L 1344 794 
L 1344 0 
L 684 0 
L 684 794 
z
" transform="scale(0.015625)"/>
      <path id="DejaVuSans-63" d="M 3122 3366 
L 3122 2828 
Q 2878 2963 2633 3030 
Q 2388 3097 2138 3097 
Q 1578 3097 1268 2742 
Q 959 2388 959 1747 
Q 959 1106 1268 751 
Q 1578 397 2138 397 
Q 2388 397 2633 464 
Q 2878 531 3122 666 
L 3122 134 
Q 2881 22 2623 -34 
Q 2366 -91 2075 -91 
Q 1284 -91 818 406 
Q 353 903 353 1747 
Q 353 2603 823 3093 
Q 1294 3584 2113 3584 
Q 2378 3584 2631 3529 
Q 2884 3475 3122 3366 
z
" transform="scale(0.015625)"/>
     </defs>
     <use xlink:href="#DejaVuSans-43"/>
     <use xlink:href="#DejaVuSans-6f" x="69.824219"/>
     <use xlink:href="#DejaVuSans-6c" x="131.005859"/>
     <use xlink:href="#DejaVuSans-6f" x="158.789062"/>
     <use xlink:href="#DejaVuSans-72" x="219.970703"/>
     <use xlink:href="#DejaVuSans-65" x="258.833984"/>
     <use xlink:href="#DejaVuSans-64" x="320.357422"/>
     <use xlink:href="#DejaVuSans-20" x="383.833984"/>
     <use xlink:href="#DejaVuSans-47" x="415.621094"/>
     <use xlink:href="#DejaVuSans-72" x="493.111328"/>
     <use xlink:href="#DejaVuSans-61" x="534.224609"/>
     <use xlink:href="#DejaVuSans-70" x="595.503906"/>
     <use xlink:href="#DejaVuSans-68" x="658.980469"/>
     <use xlink:href="#DejaVuSans-20" x="722.359375"/>
     <use xlink:href="#DejaVuSans-2d" x="754.146484"/>
     <use xlink:href="#DejaVuSans-20" x="790.230469"/>
     <use xlink:href="#DejaVuSans-71" x="822.017578"/>
     <use xlink:href="#DejaVuSans-75" x="885.494141"/>
     <use xlink:href="#DejaVuSans-65" x="948.873047"/>
     <use xlink:href="#DejaVuSans-65" x="1010.396484"/>
     <use xlink:href="#DejaVuSans-6e" x="1071.919922"/>
     <use xlink:href="#DejaVuSans-36" x="1135.298828"/>
     <use xlink:href="#DejaVuSans-5f" x="1198.921875"/>
     <use xlink:href="#DejaVuSans-36" x="1248.921875"/>
     <use xlink:href="#DejaVuSans-2e" x="1312.544922"/>
     <use xlink:href="#DejaVuSans-63" x="1344.332031"/>
     <use xlink:href="#DejaVuSans-6f" x="1399.3125"/>
     <use xlink:href="#DejaVuSans-6c" x="1460.494141"/>
    </g>
   </g>
   <g id="legend_1">
    <g id="patch_2">
     <path d="M 536.2 37.35625 
L 603.85 37.35625 
Q 605.85 37.35625 605.85 35.35625 
L 605.85 7 
Q 605.85 5 603.85 5 
L 536.2 5 
Q 534.2 5 534.2 7 
L 534.2 35.35625 
Q 534.2 37.35625 536.2 37.35625 
z
" style="fill: #ffffff; opacity: 0.8; stroke: #cccccc; stroke-linejoin: miter"/>
    </g>
    <g id="text_2">
     <!-- Clase GNN -->
     <g transform="translate(543.454688 16.598437) scale(0.1 -0.1)">
      <defs>
       <path id="DejaVuSans-73" d="M 2834 3397 
L 2834 2853 
Q 2591 2978 2328 3040 
Q 2066 3103 1784 3103 
Q 1356 3103 1142 2972 
Q 928 2841 928 2578 
Q 928 2378 1081 2264 
Q 1234 2150 1697 2047 
L 1894 2003 
Q 2506 1872 2764 1633 
Q 3022 1394 3022 966 
Q 3022 478 2636 193 
Q 2250 -91 1575 -91 
Q 1294 -91 989 -36 
Q 684 19 347 128 
L 347 722 
Q 666 556 975 473 
Q 1284 391 1588 391 
Q 1994 391 2212 530 
Q 2431 669 2431 922 
Q 2431 1156 2273 1281 
Q 2116 1406 1581 1522 
L 1381 1569 
Q 847 1681 609 1914 
Q 372 2147 372 2553 
Q 372 3047 722 3315 
Q 1072 3584 1716 3584 
Q 2034 3584 2315 3537 
Q 2597 3491 2834 3397 
z
" transform="scale(0.015625)"/>
       <path id="DejaVuSans-4e" d="M 628 4666 
L 1478 4666 
L 3547 763 
L 3547 4666 
L 4159 4666 
L 4159 0 
L 3309 0 
L 1241 3903 
L 1241 0 
L 628 0 
L 628 4666 
z
" transform="scale(0.015625)"/>
      </defs>
      <use xlink:href="#DejaVuSans-43"/>
      <use xlink:href="#DejaVuSans-6c" x="69.824219"/>
      <use xlink:href="#DejaVuSans-61" x="97.607422"/>
      <use xlink:href="#DejaVuSans-73" x="158.886719"/>
      <use xlink:href="#DejaVuSans-65" x="210.986328"/>
      <use xlink:href="#DejaVuSans-20" x="272.509766"/>
      <use xlink:href="#DejaVuSans-47" x="304.296875"/>
      <use xlink:href="#DejaVuSans-4e" x="381.787109"/>
      <use xlink:href="#DejaVuSans-4e" x="456.591797"/>
     </g>
    </g>
    <g id="patch_3">
     <path d="M 538.2 31.276563 
L 558.2 31.276563 
L 558.2 24.276563 
L 538.2 24.276563 
z
" style="fill: #ff0000; stroke: #ff0000; stroke-linejoin: miter"/>
    </g>
    <g id="text_3">
     <!-- Color 4 -->
     <g transform="translate(566.2 31.276563) scale(0.1 -0.1)">
      <defs>
       <path id="DejaVuSans-34" d="M 2419 4116 
L 825 1625 
L 2419 1625 
L 2419 4116 
z
M 2253 4666 
L 3047 4666 
L 3047 1625 
L 3713 1625 
L 3713 1100 
L 3047 1100 
L 3047 0 
L 2419 0 
L 2419 1100 
L 313 1100 
L 313 1709 
L 2253 4666 
z
" transform="scale(0.015625)"/>
      </defs>
      <use xlink:href="#DejaVuSans-43"/>
      <use xlink:href="#DejaVuSans-6f" x="69.824219"/>
      <use xlink:href="#DejaVuSans-6c" x="131.005859"/>
      <use xlink:href="#DejaVuSans-6f" x="158.789062"/>
      <use xlink:href="#DejaVuSans-72" x="219.970703"/>
      <use xlink:href="#DejaVuSans-20" x="261.083984"/>
      <use xlink:href="#DejaVuSans-34" x="292.871094"/>
     </g>
    </g>
   </g>
  </g>
 </g>
 <defs>
  <clipPath id="pf4c65bf86d">
   <rect x="0" y="0" width="504" height="432"/>
  </clipPath>
 </defs>
</svg>
