<?xml version="1.0" encoding="utf-8" standalone="no"?>
<!DOCTYPE svg PUBLIC "-//W3C//DTD SVG 1.1//EN"
  "http://www.w3.org/Graphics/SVG/1.1/DTD/svg11.dtd">
<svg xmlns:xlink="http://www.w3.org/1999/xlink" width="504pt" height="432pt" viewBox="0 0 504 432" xmlns="http://www.w3.org/2000/svg" version="1.1">
 <metadata>
  <rdf:RDF xmlns:dc="http://purl.org/dc/elements/1.1/" xmlns:cc="http://creativecommons.org/ns#" xmlns:rdf="http://www.w3.org/1999/02/22-rdf-syntax-ns#">
   <cc:Work>
    <dc:type rdf:resource="http://purl.org/dc/dcmitype/StillImage"/>
    <dc:date>2025-05-08T15:07:28.883887</dc:date>
    <dc:format>image/svg+xml</dc:format>
    <dc:creator>
     <cc:Agent>
      <dc:title>Matplotlib v3.9.3, https://matplotlib.org/</dc:title>
     </cc:Agent>
    </dc:creator>
   </cc:Work>
  </rdf:RDF>
 </metadata>
 <defs>
  <style type="text/css">*{stroke-linejoin: round; stroke-linecap: butt}</style>
 </defs>
 <g id="figure_1">
  <g id="patch_1">
   <path d="M 0 432 
L 504 432 
L 504 0 
L 0 0 
z
" style="fill: #ffffff"/>
  </g>
  <g id="axes_1">
   <g id="LineCollection_1">
    <path d="M 255.442556 136.622342 
L 176.605616 245.039341 
" clip-path="url(#p01c413cb79)" style="fill: none; stroke: #d3d3d3"/>
    <path d="M 255.442556 136.622342 
L 286.069813 261.495727 
" clip-path="url(#p01c413cb79)" style="fill: none; stroke: #d3d3d3"/>
    <path d="M 255.442556 136.622342 
L 174.950068 279.857928 
" clip-path="url(#p01c413cb79)" style="fill: none; stroke: #d3d3d3"/>
    <path d="M 255.442556 136.622342 
L 362.869061 256.101454 
" clip-path="url(#p01c413cb79)" style="fill: none; stroke: #d3d3d3"/>
    <path d="M 255.442556 136.622342 
L 332.631603 316.382428 
" clip-path="url(#p01c413cb79)" style="fill: none; stroke: #d3d3d3"/>
    <path d="M 255.442556 136.622342 
L 229.065255 305.19796 
" clip-path="url(#p01c413cb79)" style="fill: none; stroke: #d3d3d3"/>
    <path d="M 255.442556 136.622342 
L 430.02498 245.290321 
" clip-path="url(#p01c413cb79)" style="fill: none; stroke: #d3d3d3"/>
    <path d="M 255.442556 136.622342 
L 444.033267 167.658412 
" clip-path="url(#p01c413cb79)" style="fill: none; stroke: #d3d3d3"/>
    <path d="M 255.442556 136.622342 
L 176.968015 37.487603 
" clip-path="url(#p01c413cb79)" style="fill: none; stroke: #d3d3d3"/>
    <path d="M 255.442556 136.622342 
L 375.458437 115.598297 
" clip-path="url(#p01c413cb79)" style="fill: none; stroke: #d3d3d3"/>
    <path d="M 255.442556 136.622342 
L 329.892223 47.832705 
" clip-path="url(#p01c413cb79)" style="fill: none; stroke: #d3d3d3"/>
    <path d="M 255.442556 136.622342 
L 416.320447 141.218985 
" clip-path="url(#p01c413cb79)" style="fill: none; stroke: #d3d3d3"/>
    <path d="M 255.442556 136.622342 
L 209.060133 40.384471 
" clip-path="url(#p01c413cb79)" style="fill: none; stroke: #d3d3d3"/>
    <path d="M 255.442556 136.622342 
L 75.889253 109.892031 
" clip-path="url(#p01c413cb79)" style="fill: none; stroke: #d3d3d3"/>
    <path d="M 255.442556 136.622342 
L 124.802945 76.32642 
" clip-path="url(#p01c413cb79)" style="fill: none; stroke: #d3d3d3"/>
    <path d="M 255.442556 136.622342 
L 68.915424 150.129481 
" clip-path="url(#p01c413cb79)" style="fill: none; stroke: #d3d3d3"/>
    <path d="M 176.605616 245.039341 
L 299.099744 185.880702 
" clip-path="url(#p01c413cb79)" style="fill: none; stroke: #d3d3d3"/>
    <path d="M 176.605616 245.039341 
L 160.028176 163.118973 
" clip-path="url(#p01c413cb79)" style="fill: none; stroke: #d3d3d3"/>
    <path d="M 176.605616 245.039341 
L 340.621157 195.500092 
" clip-path="url(#p01c413cb79)" style="fill: none; stroke: #d3d3d3"/>
    <path d="M 176.605616 245.039341 
L 271.383614 93.347288 
" clip-path="url(#p01c413cb79)" style="fill: none; stroke: #d3d3d3"/>
    <path d="M 176.605616 245.039341 
L 157.6306 106.305741 
" clip-path="url(#p01c413cb79)" style="fill: none; stroke: #d3d3d3"/>
    <path d="M 176.605616 245.039341 
L 291.267666 48.035469 
" clip-path="url(#p01c413cb79)" style="fill: none; stroke: #d3d3d3"/>
    <path d="M 176.605616 245.039341 
L 255.954787 37.667786 
" clip-path="url(#p01c413cb79)" style="fill: none; stroke: #d3d3d3"/>
    <path d="M 176.605616 245.039341 
L 373.057483 353.865054 
" clip-path="url(#p01c413cb79)" style="fill: none; stroke: #d3d3d3"/>
    <path d="M 176.605616 245.039341 
L 286.591627 364.155764 
" clip-path="url(#p01c413cb79)" style="fill: none; stroke: #d3d3d3"/>
    <path d="M 176.605616 245.039341 
L 173.490184 383.578891 
" clip-path="url(#p01c413cb79)" style="fill: none; stroke: #d3d3d3"/>
    <path d="M 176.605616 245.039341 
L 219.763029 379.935911 
" clip-path="url(#p01c413cb79)" style="fill: none; stroke: #d3d3d3"/>
    <path d="M 176.605616 245.039341 
L 245.260092 394.512397 
" clip-path="url(#p01c413cb79)" style="fill: none; stroke: #d3d3d3"/>
    <path d="M 176.605616 245.039341 
L 43.735537 205.343881 
" clip-path="url(#p01c413cb79)" style="fill: none; stroke: #d3d3d3"/>
    <path d="M 176.605616 245.039341 
L 62.359693 251.966455 
" clip-path="url(#p01c413cb79)" style="fill: none; stroke: #d3d3d3"/>
    <path d="M 176.605616 245.039341 
L 63.657462 286.081251 
" clip-path="url(#p01c413cb79)" style="fill: none; stroke: #d3d3d3"/>
    <path d="M 286.069813 261.495727 
L 206.452387 177.312001 
" clip-path="url(#p01c413cb79)" style="fill: none; stroke: #d3d3d3"/>
    <path d="M 286.069813 261.495727 
L 160.028176 163.118973 
" clip-path="url(#p01c413cb79)" style="fill: none; stroke: #d3d3d3"/>
    <path d="M 286.069813 261.495727 
L 139.043601 218.217941 
" clip-path="url(#p01c413cb79)" style="fill: none; stroke: #d3d3d3"/>
    <path d="M 286.069813 261.495727 
L 271.383614 93.347288 
" clip-path="url(#p01c413cb79)" style="fill: none; stroke: #d3d3d3"/>
    <path d="M 286.069813 261.495727 
L 415.319217 303.052034 
" clip-path="url(#p01c413cb79)" style="fill: none; stroke: #d3d3d3"/>
    <path d="M 286.069813 261.495727 
L 291.267666 48.035469 
" clip-path="url(#p01c413cb79)" style="fill: none; stroke: #d3d3d3"/>
    <path d="M 286.069813 261.495727 
L 432.571436 268.415955 
" clip-path="url(#p01c413cb79)" style="fill: none; stroke: #d3d3d3"/>
    <path d="M 286.069813 261.495727 
L 373.057483 353.865054 
" clip-path="url(#p01c413cb79)" style="fill: none; stroke: #d3d3d3"/>
    <path d="M 286.069813 261.495727 
L 365.337285 87.432756 
" clip-path="url(#p01c413cb79)" style="fill: none; stroke: #d3d3d3"/>
    <path d="M 286.069813 261.495727 
L 173.490184 383.578891 
" clip-path="url(#p01c413cb79)" style="fill: none; stroke: #d3d3d3"/>
    <path d="M 286.069813 261.495727 
L 111.804113 303.229904 
" clip-path="url(#p01c413cb79)" style="fill: none; stroke: #d3d3d3"/>
    <path d="M 286.069813 261.495727 
L 245.260092 394.512397 
" clip-path="url(#p01c413cb79)" style="fill: none; stroke: #d3d3d3"/>
    <path d="M 286.069813 261.495727 
L 460.264463 214.911623 
" clip-path="url(#p01c413cb79)" style="fill: none; stroke: #d3d3d3"/>
    <path d="M 286.069813 261.495727 
L 62.359693 251.966455 
" clip-path="url(#p01c413cb79)" style="fill: none; stroke: #d3d3d3"/>
    <path d="M 286.069813 261.495727 
L 331.234347 378.735121 
" clip-path="url(#p01c413cb79)" style="fill: none; stroke: #d3d3d3"/>
    <path d="M 174.950068 279.857928 
L 299.099744 185.880702 
" clip-path="url(#p01c413cb79)" style="fill: none; stroke: #d3d3d3"/>
    <path d="M 174.950068 279.857928 
L 251.604926 222.051206 
" clip-path="url(#p01c413cb79)" style="fill: none; stroke: #d3d3d3"/>
    <path d="M 174.950068 279.857928 
L 271.383614 93.347288 
" clip-path="url(#p01c413cb79)" style="fill: none; stroke: #d3d3d3"/>
    <path d="M 174.950068 279.857928 
L 157.6306 106.305741 
" clip-path="url(#p01c413cb79)" style="fill: none; stroke: #d3d3d3"/>
    <path d="M 174.950068 279.857928 
L 281.869543 296.493761 
" clip-path="url(#p01c413cb79)" style="fill: none; stroke: #d3d3d3"/>
    <path d="M 174.950068 279.857928 
L 373.057483 353.865054 
" clip-path="url(#p01c413cb79)" style="fill: none; stroke: #d3d3d3"/>
    <path d="M 174.950068 279.857928 
L 286.591627 364.155764 
" clip-path="url(#p01c413cb79)" style="fill: none; stroke: #d3d3d3"/>
    <path d="M 174.950068 279.857928 
L 334.943728 125.445562 
" clip-path="url(#p01c413cb79)" style="fill: none; stroke: #d3d3d3"/>
    <path d="M 174.950068 279.857928 
L 245.260092 394.512397 
" clip-path="url(#p01c413cb79)" style="fill: none; stroke: #d3d3d3"/>
    <path d="M 174.950068 279.857928 
L 43.735537 205.343881 
" clip-path="url(#p01c413cb79)" style="fill: none; stroke: #d3d3d3"/>
    <path d="M 174.950068 279.857928 
L 142.434297 339.194093 
" clip-path="url(#p01c413cb79)" style="fill: none; stroke: #d3d3d3"/>
    <path d="M 362.869061 256.101454 
L 206.452387 177.312001 
" clip-path="url(#p01c413cb79)" style="fill: none; stroke: #d3d3d3"/>
    <path d="M 362.869061 256.101454 
L 251.604926 222.051206 
" clip-path="url(#p01c413cb79)" style="fill: none; stroke: #d3d3d3"/>
    <path d="M 362.869061 256.101454 
L 271.383614 93.347288 
" clip-path="url(#p01c413cb79)" style="fill: none; stroke: #d3d3d3"/>
    <path d="M 362.869061 256.101454 
L 415.319217 303.052034 
" clip-path="url(#p01c413cb79)" style="fill: none; stroke: #d3d3d3"/>
    <path d="M 362.869061 256.101454 
L 281.869543 296.493761 
" clip-path="url(#p01c413cb79)" style="fill: none; stroke: #d3d3d3"/>
    <path d="M 362.869061 256.101454 
L 373.057483 353.865054 
" clip-path="url(#p01c413cb79)" style="fill: none; stroke: #d3d3d3"/>
    <path d="M 362.869061 256.101454 
L 365.337285 87.432756 
" clip-path="url(#p01c413cb79)" style="fill: none; stroke: #d3d3d3"/>
    <path d="M 362.869061 256.101454 
L 334.943728 125.445562 
" clip-path="url(#p01c413cb79)" style="fill: none; stroke: #d3d3d3"/>
    <path d="M 362.869061 256.101454 
L 245.260092 394.512397 
" clip-path="url(#p01c413cb79)" style="fill: none; stroke: #d3d3d3"/>
    <path d="M 362.869061 256.101454 
L 460.264463 214.911623 
" clip-path="url(#p01c413cb79)" style="fill: none; stroke: #d3d3d3"/>
    <path d="M 362.869061 256.101454 
L 142.434297 339.194093 
" clip-path="url(#p01c413cb79)" style="fill: none; stroke: #d3d3d3"/>
    <path d="M 332.631603 316.382428 
L 299.099744 185.880702 
" clip-path="url(#p01c413cb79)" style="fill: none; stroke: #d3d3d3"/>
    <path d="M 332.631603 316.382428 
L 160.028176 163.118973 
" clip-path="url(#p01c413cb79)" style="fill: none; stroke: #d3d3d3"/>
    <path d="M 332.631603 316.382428 
L 340.621157 195.500092 
" clip-path="url(#p01c413cb79)" style="fill: none; stroke: #d3d3d3"/>
    <path d="M 332.631603 316.382428 
L 240.251351 201.424987 
" clip-path="url(#p01c413cb79)" style="fill: none; stroke: #d3d3d3"/>
    <path d="M 332.631603 316.382428 
L 373.057483 353.865054 
" clip-path="url(#p01c413cb79)" style="fill: none; stroke: #d3d3d3"/>
    <path d="M 332.631603 316.382428 
L 286.591627 364.155764 
" clip-path="url(#p01c413cb79)" style="fill: none; stroke: #d3d3d3"/>
    <path d="M 332.631603 316.382428 
L 173.490184 383.578891 
" clip-path="url(#p01c413cb79)" style="fill: none; stroke: #d3d3d3"/>
    <path d="M 332.631603 316.382428 
L 219.763029 379.935911 
" clip-path="url(#p01c413cb79)" style="fill: none; stroke: #d3d3d3"/>
    <path d="M 332.631603 316.382428 
L 375.54954 168.175963 
" clip-path="url(#p01c413cb79)" style="fill: none; stroke: #d3d3d3"/>
    <path d="M 229.065255 305.19796 
L 206.452387 177.312001 
" clip-path="url(#p01c413cb79)" style="fill: none; stroke: #d3d3d3"/>
    <path d="M 229.065255 305.19796 
L 160.028176 163.118973 
" clip-path="url(#p01c413cb79)" style="fill: none; stroke: #d3d3d3"/>
    <path d="M 229.065255 305.19796 
L 139.043601 218.217941 
" clip-path="url(#p01c413cb79)" style="fill: none; stroke: #d3d3d3"/>
    <path d="M 229.065255 305.19796 
L 240.251351 201.424987 
" clip-path="url(#p01c413cb79)" style="fill: none; stroke: #d3d3d3"/>
    <path d="M 229.065255 305.19796 
L 373.057483 353.865054 
" clip-path="url(#p01c413cb79)" style="fill: none; stroke: #d3d3d3"/>
    <path d="M 229.065255 305.19796 
L 365.337285 87.432756 
" clip-path="url(#p01c413cb79)" style="fill: none; stroke: #d3d3d3"/>
    <path d="M 229.065255 305.19796 
L 173.490184 383.578891 
" clip-path="url(#p01c413cb79)" style="fill: none; stroke: #d3d3d3"/>
    <path d="M 229.065255 305.19796 
L 111.804113 303.229904 
" clip-path="url(#p01c413cb79)" style="fill: none; stroke: #d3d3d3"/>
    <path d="M 229.065255 305.19796 
L 375.54954 168.175963 
" clip-path="url(#p01c413cb79)" style="fill: none; stroke: #d3d3d3"/>
    <path d="M 430.02498 245.290321 
L 299.099744 185.880702 
" clip-path="url(#p01c413cb79)" style="fill: none; stroke: #d3d3d3"/>
    <path d="M 430.02498 245.290321 
L 251.604926 222.051206 
" clip-path="url(#p01c413cb79)" style="fill: none; stroke: #d3d3d3"/>
    <path d="M 430.02498 245.290321 
L 240.251351 201.424987 
" clip-path="url(#p01c413cb79)" style="fill: none; stroke: #d3d3d3"/>
    <path d="M 430.02498 245.290321 
L 373.057483 353.865054 
" clip-path="url(#p01c413cb79)" style="fill: none; stroke: #d3d3d3"/>
    <path d="M 430.02498 245.290321 
L 286.591627 364.155764 
" clip-path="url(#p01c413cb79)" style="fill: none; stroke: #d3d3d3"/>
    <path d="M 430.02498 245.290321 
L 334.943728 125.445562 
" clip-path="url(#p01c413cb79)" style="fill: none; stroke: #d3d3d3"/>
    <path d="M 430.02498 245.290321 
L 375.54954 168.175963 
" clip-path="url(#p01c413cb79)" style="fill: none; stroke: #d3d3d3"/>
    <path d="M 444.033267 167.658412 
L 206.452387 177.312001 
" clip-path="url(#p01c413cb79)" style="fill: none; stroke: #d3d3d3"/>
    <path d="M 444.033267 167.658412 
L 251.604926 222.051206 
" clip-path="url(#p01c413cb79)" style="fill: none; stroke: #d3d3d3"/>
    <path d="M 444.033267 167.658412 
L 240.251351 201.424987 
" clip-path="url(#p01c413cb79)" style="fill: none; stroke: #d3d3d3"/>
    <path d="M 444.033267 167.658412 
L 373.057483 353.865054 
" clip-path="url(#p01c413cb79)" style="fill: none; stroke: #d3d3d3"/>
    <path d="M 444.033267 167.658412 
L 365.337285 87.432756 
" clip-path="url(#p01c413cb79)" style="fill: none; stroke: #d3d3d3"/>
    <path d="M 444.033267 167.658412 
L 334.943728 125.445562 
" clip-path="url(#p01c413cb79)" style="fill: none; stroke: #d3d3d3"/>
    <path d="M 444.033267 167.658412 
L 375.54954 168.175963 
" clip-path="url(#p01c413cb79)" style="fill: none; stroke: #d3d3d3"/>
    <path d="M 176.968015 37.487603 
L 299.099744 185.880702 
" clip-path="url(#p01c413cb79)" style="fill: none; stroke: #d3d3d3"/>
    <path d="M 176.968015 37.487603 
L 160.028176 163.118973 
" clip-path="url(#p01c413cb79)" style="fill: none; stroke: #d3d3d3"/>
    <path d="M 176.968015 37.487603 
L 340.621157 195.500092 
" clip-path="url(#p01c413cb79)" style="fill: none; stroke: #d3d3d3"/>
    <path d="M 176.968015 37.487603 
L 271.383614 93.347288 
" clip-path="url(#p01c413cb79)" style="fill: none; stroke: #d3d3d3"/>
    <path d="M 176.968015 37.487603 
L 157.6306 106.305741 
" clip-path="url(#p01c413cb79)" style="fill: none; stroke: #d3d3d3"/>
    <path d="M 176.968015 37.487603 
L 291.267666 48.035469 
" clip-path="url(#p01c413cb79)" style="fill: none; stroke: #d3d3d3"/>
    <path d="M 176.968015 37.487603 
L 255.954787 37.667786 
" clip-path="url(#p01c413cb79)" style="fill: none; stroke: #d3d3d3"/>
    <path d="M 176.968015 37.487603 
L 218.308 217.932168 
" clip-path="url(#p01c413cb79)" style="fill: none; stroke: #d3d3d3"/>
    <path d="M 375.458437 115.598297 
L 206.452387 177.312001 
" clip-path="url(#p01c413cb79)" style="fill: none; stroke: #d3d3d3"/>
    <path d="M 375.458437 115.598297 
L 160.028176 163.118973 
" clip-path="url(#p01c413cb79)" style="fill: none; stroke: #d3d3d3"/>
    <path d="M 375.458437 115.598297 
L 139.043601 218.217941 
" clip-path="url(#p01c413cb79)" style="fill: none; stroke: #d3d3d3"/>
    <path d="M 375.458437 115.598297 
L 271.383614 93.347288 
" clip-path="url(#p01c413cb79)" style="fill: none; stroke: #d3d3d3"/>
    <path d="M 375.458437 115.598297 
L 415.319217 303.052034 
" clip-path="url(#p01c413cb79)" style="fill: none; stroke: #d3d3d3"/>
    <path d="M 375.458437 115.598297 
L 291.267666 48.035469 
" clip-path="url(#p01c413cb79)" style="fill: none; stroke: #d3d3d3"/>
    <path d="M 375.458437 115.598297 
L 432.571436 268.415955 
" clip-path="url(#p01c413cb79)" style="fill: none; stroke: #d3d3d3"/>
    <path d="M 375.458437 115.598297 
L 218.308 217.932168 
" clip-path="url(#p01c413cb79)" style="fill: none; stroke: #d3d3d3"/>
    <path d="M 329.892223 47.832705 
L 299.099744 185.880702 
" clip-path="url(#p01c413cb79)" style="fill: none; stroke: #d3d3d3"/>
    <path d="M 329.892223 47.832705 
L 251.604926 222.051206 
" clip-path="url(#p01c413cb79)" style="fill: none; stroke: #d3d3d3"/>
    <path d="M 329.892223 47.832705 
L 271.383614 93.347288 
" clip-path="url(#p01c413cb79)" style="fill: none; stroke: #d3d3d3"/>
    <path d="M 329.892223 47.832705 
L 157.6306 106.305741 
" clip-path="url(#p01c413cb79)" style="fill: none; stroke: #d3d3d3"/>
    <path d="M 329.892223 47.832705 
L 281.869543 296.493761 
" clip-path="url(#p01c413cb79)" style="fill: none; stroke: #d3d3d3"/>
    <path d="M 329.892223 47.832705 
L 218.308 217.932168 
" clip-path="url(#p01c413cb79)" style="fill: none; stroke: #d3d3d3"/>
    <path d="M 416.320447 141.218985 
L 206.452387 177.312001 
" clip-path="url(#p01c413cb79)" style="fill: none; stroke: #d3d3d3"/>
    <path d="M 416.320447 141.218985 
L 251.604926 222.051206 
" clip-path="url(#p01c413cb79)" style="fill: none; stroke: #d3d3d3"/>
    <path d="M 416.320447 141.218985 
L 271.383614 93.347288 
" clip-path="url(#p01c413cb79)" style="fill: none; stroke: #d3d3d3"/>
    <path d="M 416.320447 141.218985 
L 415.319217 303.052034 
" clip-path="url(#p01c413cb79)" style="fill: none; stroke: #d3d3d3"/>
    <path d="M 416.320447 141.218985 
L 281.869543 296.493761 
" clip-path="url(#p01c413cb79)" style="fill: none; stroke: #d3d3d3"/>
    <path d="M 416.320447 141.218985 
L 218.308 217.932168 
" clip-path="url(#p01c413cb79)" style="fill: none; stroke: #d3d3d3"/>
    <path d="M 209.060133 40.384471 
L 299.099744 185.880702 
" clip-path="url(#p01c413cb79)" style="fill: none; stroke: #d3d3d3"/>
    <path d="M 209.060133 40.384471 
L 160.028176 163.118973 
" clip-path="url(#p01c413cb79)" style="fill: none; stroke: #d3d3d3"/>
    <path d="M 209.060133 40.384471 
L 340.621157 195.500092 
" clip-path="url(#p01c413cb79)" style="fill: none; stroke: #d3d3d3"/>
    <path d="M 209.060133 40.384471 
L 240.251351 201.424987 
" clip-path="url(#p01c413cb79)" style="fill: none; stroke: #d3d3d3"/>
    <path d="M 209.060133 40.384471 
L 218.308 217.932168 
" clip-path="url(#p01c413cb79)" style="fill: none; stroke: #d3d3d3"/>
    <path d="M 75.889253 109.892031 
L 206.452387 177.312001 
" clip-path="url(#p01c413cb79)" style="fill: none; stroke: #d3d3d3"/>
    <path d="M 75.889253 109.892031 
L 160.028176 163.118973 
" clip-path="url(#p01c413cb79)" style="fill: none; stroke: #d3d3d3"/>
    <path d="M 75.889253 109.892031 
L 139.043601 218.217941 
" clip-path="url(#p01c413cb79)" style="fill: none; stroke: #d3d3d3"/>
    <path d="M 75.889253 109.892031 
L 240.251351 201.424987 
" clip-path="url(#p01c413cb79)" style="fill: none; stroke: #d3d3d3"/>
    <path d="M 75.889253 109.892031 
L 218.308 217.932168 
" clip-path="url(#p01c413cb79)" style="fill: none; stroke: #d3d3d3"/>
    <path d="M 124.802945 76.32642 
L 299.099744 185.880702 
" clip-path="url(#p01c413cb79)" style="fill: none; stroke: #d3d3d3"/>
    <path d="M 124.802945 76.32642 
L 251.604926 222.051206 
" clip-path="url(#p01c413cb79)" style="fill: none; stroke: #d3d3d3"/>
    <path d="M 124.802945 76.32642 
L 240.251351 201.424987 
" clip-path="url(#p01c413cb79)" style="fill: none; stroke: #d3d3d3"/>
    <path d="M 124.802945 76.32642 
L 218.308 217.932168 
" clip-path="url(#p01c413cb79)" style="fill: none; stroke: #d3d3d3"/>
    <path d="M 68.915424 150.129481 
L 206.452387 177.312001 
" clip-path="url(#p01c413cb79)" style="fill: none; stroke: #d3d3d3"/>
    <path d="M 68.915424 150.129481 
L 251.604926 222.051206 
" clip-path="url(#p01c413cb79)" style="fill: none; stroke: #d3d3d3"/>
    <path d="M 68.915424 150.129481 
L 240.251351 201.424987 
" clip-path="url(#p01c413cb79)" style="fill: none; stroke: #d3d3d3"/>
    <path d="M 68.915424 150.129481 
L 218.308 217.932168 
" clip-path="url(#p01c413cb79)" style="fill: none; stroke: #d3d3d3"/>
    <path d="M 299.099744 185.880702 
L 206.452387 177.312001 
" clip-path="url(#p01c413cb79)" style="fill: none; stroke: #d3d3d3"/>
    <path d="M 299.099744 185.880702 
L 139.043601 218.217941 
" clip-path="url(#p01c413cb79)" style="fill: none; stroke: #d3d3d3"/>
    <path d="M 299.099744 185.880702 
L 415.319217 303.052034 
" clip-path="url(#p01c413cb79)" style="fill: none; stroke: #d3d3d3"/>
    <path d="M 299.099744 185.880702 
L 432.571436 268.415955 
" clip-path="url(#p01c413cb79)" style="fill: none; stroke: #d3d3d3"/>
    <path d="M 299.099744 185.880702 
L 365.337285 87.432756 
" clip-path="url(#p01c413cb79)" style="fill: none; stroke: #d3d3d3"/>
    <path d="M 299.099744 185.880702 
L 111.804113 303.229904 
" clip-path="url(#p01c413cb79)" style="fill: none; stroke: #d3d3d3"/>
    <path d="M 299.099744 185.880702 
L 460.264463 214.911623 
" clip-path="url(#p01c413cb79)" style="fill: none; stroke: #d3d3d3"/>
    <path d="M 299.099744 185.880702 
L 331.234347 378.735121 
" clip-path="url(#p01c413cb79)" style="fill: none; stroke: #d3d3d3"/>
    <path d="M 160.028176 163.118973 
L 251.604926 222.051206 
" clip-path="url(#p01c413cb79)" style="fill: none; stroke: #d3d3d3"/>
    <path d="M 160.028176 163.118973 
L 281.869543 296.493761 
" clip-path="url(#p01c413cb79)" style="fill: none; stroke: #d3d3d3"/>
    <path d="M 160.028176 163.118973 
L 334.943728 125.445562 
" clip-path="url(#p01c413cb79)" style="fill: none; stroke: #d3d3d3"/>
    <path d="M 160.028176 163.118973 
L 142.434297 339.194093 
" clip-path="url(#p01c413cb79)" style="fill: none; stroke: #d3d3d3"/>
    <path d="M 340.621157 195.500092 
L 206.452387 177.312001 
" clip-path="url(#p01c413cb79)" style="fill: none; stroke: #d3d3d3"/>
    <path d="M 340.621157 195.500092 
L 251.604926 222.051206 
" clip-path="url(#p01c413cb79)" style="fill: none; stroke: #d3d3d3"/>
    <path d="M 340.621157 195.500092 
L 415.319217 303.052034 
" clip-path="url(#p01c413cb79)" style="fill: none; stroke: #d3d3d3"/>
    <path d="M 340.621157 195.500092 
L 281.869543 296.493761 
" clip-path="url(#p01c413cb79)" style="fill: none; stroke: #d3d3d3"/>
    <path d="M 340.621157 195.500092 
L 365.337285 87.432756 
" clip-path="url(#p01c413cb79)" style="fill: none; stroke: #d3d3d3"/>
    <path d="M 340.621157 195.500092 
L 334.943728 125.445562 
" clip-path="url(#p01c413cb79)" style="fill: none; stroke: #d3d3d3"/>
    <path d="M 340.621157 195.500092 
L 460.264463 214.911623 
" clip-path="url(#p01c413cb79)" style="fill: none; stroke: #d3d3d3"/>
    <path d="M 340.621157 195.500092 
L 142.434297 339.194093 
" clip-path="url(#p01c413cb79)" style="fill: none; stroke: #d3d3d3"/>
    <path d="M 271.383614 93.347288 
L 240.251351 201.424987 
" clip-path="url(#p01c413cb79)" style="fill: none; stroke: #d3d3d3"/>
    <path d="M 271.383614 93.347288 
L 375.54954 168.175963 
" clip-path="url(#p01c413cb79)" style="fill: none; stroke: #d3d3d3"/>
    <path d="M 157.6306 106.305741 
L 206.452387 177.312001 
" clip-path="url(#p01c413cb79)" style="fill: none; stroke: #d3d3d3"/>
    <path d="M 157.6306 106.305741 
L 139.043601 218.217941 
" clip-path="url(#p01c413cb79)" style="fill: none; stroke: #d3d3d3"/>
    <path d="M 157.6306 106.305741 
L 240.251351 201.424987 
" clip-path="url(#p01c413cb79)" style="fill: none; stroke: #d3d3d3"/>
    <path d="M 157.6306 106.305741 
L 365.337285 87.432756 
" clip-path="url(#p01c413cb79)" style="fill: none; stroke: #d3d3d3"/>
    <path d="M 157.6306 106.305741 
L 111.804113 303.229904 
" clip-path="url(#p01c413cb79)" style="fill: none; stroke: #d3d3d3"/>
    <path d="M 157.6306 106.305741 
L 375.54954 168.175963 
" clip-path="url(#p01c413cb79)" style="fill: none; stroke: #d3d3d3"/>
    <path d="M 291.267666 48.035469 
L 251.604926 222.051206 
" clip-path="url(#p01c413cb79)" style="fill: none; stroke: #d3d3d3"/>
    <path d="M 291.267666 48.035469 
L 240.251351 201.424987 
" clip-path="url(#p01c413cb79)" style="fill: none; stroke: #d3d3d3"/>
    <path d="M 291.267666 48.035469 
L 334.943728 125.445562 
" clip-path="url(#p01c413cb79)" style="fill: none; stroke: #d3d3d3"/>
    <path d="M 291.267666 48.035469 
L 375.54954 168.175963 
" clip-path="url(#p01c413cb79)" style="fill: none; stroke: #d3d3d3"/>
    <path d="M 255.954787 37.667786 
L 206.452387 177.312001 
" clip-path="url(#p01c413cb79)" style="fill: none; stroke: #d3d3d3"/>
    <path d="M 255.954787 37.667786 
L 251.604926 222.051206 
" clip-path="url(#p01c413cb79)" style="fill: none; stroke: #d3d3d3"/>
    <path d="M 255.954787 37.667786 
L 240.251351 201.424987 
" clip-path="url(#p01c413cb79)" style="fill: none; stroke: #d3d3d3"/>
    <path d="M 255.954787 37.667786 
L 365.337285 87.432756 
" clip-path="url(#p01c413cb79)" style="fill: none; stroke: #d3d3d3"/>
    <path d="M 255.954787 37.667786 
L 334.943728 125.445562 
" clip-path="url(#p01c413cb79)" style="fill: none; stroke: #d3d3d3"/>
    <path d="M 255.954787 37.667786 
L 375.54954 168.175963 
" clip-path="url(#p01c413cb79)" style="fill: none; stroke: #d3d3d3"/>
    <path d="M 373.057483 353.865054 
L 218.308 217.932168 
" clip-path="url(#p01c413cb79)" style="fill: none; stroke: #d3d3d3"/>
    <path d="M 286.591627 364.155764 
L 206.452387 177.312001 
" clip-path="url(#p01c413cb79)" style="fill: none; stroke: #d3d3d3"/>
    <path d="M 286.591627 364.155764 
L 139.043601 218.217941 
" clip-path="url(#p01c413cb79)" style="fill: none; stroke: #d3d3d3"/>
    <path d="M 286.591627 364.155764 
L 415.319217 303.052034 
" clip-path="url(#p01c413cb79)" style="fill: none; stroke: #d3d3d3"/>
    <path d="M 286.591627 364.155764 
L 432.571436 268.415955 
" clip-path="url(#p01c413cb79)" style="fill: none; stroke: #d3d3d3"/>
    <path d="M 286.591627 364.155764 
L 218.308 217.932168 
" clip-path="url(#p01c413cb79)" style="fill: none; stroke: #d3d3d3"/>
    <path d="M 173.490184 383.578891 
L 251.604926 222.051206 
" clip-path="url(#p01c413cb79)" style="fill: none; stroke: #d3d3d3"/>
    <path d="M 173.490184 383.578891 
L 281.869543 296.493761 
" clip-path="url(#p01c413cb79)" style="fill: none; stroke: #d3d3d3"/>
    <path d="M 173.490184 383.578891 
L 218.308 217.932168 
" clip-path="url(#p01c413cb79)" style="fill: none; stroke: #d3d3d3"/>
    <path d="M 219.763029 379.935911 
L 206.452387 177.312001 
" clip-path="url(#p01c413cb79)" style="fill: none; stroke: #d3d3d3"/>
    <path d="M 219.763029 379.935911 
L 251.604926 222.051206 
" clip-path="url(#p01c413cb79)" style="fill: none; stroke: #d3d3d3"/>
    <path d="M 219.763029 379.935911 
L 415.319217 303.052034 
" clip-path="url(#p01c413cb79)" style="fill: none; stroke: #d3d3d3"/>
    <path d="M 219.763029 379.935911 
L 281.869543 296.493761 
" clip-path="url(#p01c413cb79)" style="fill: none; stroke: #d3d3d3"/>
    <path d="M 219.763029 379.935911 
L 218.308 217.932168 
" clip-path="url(#p01c413cb79)" style="fill: none; stroke: #d3d3d3"/>
    <path d="M 245.260092 394.512397 
L 240.251351 201.424987 
" clip-path="url(#p01c413cb79)" style="fill: none; stroke: #d3d3d3"/>
    <path d="M 245.260092 394.512397 
L 218.308 217.932168 
" clip-path="url(#p01c413cb79)" style="fill: none; stroke: #d3d3d3"/>
    <path d="M 43.735537 205.343881 
L 206.452387 177.312001 
" clip-path="url(#p01c413cb79)" style="fill: none; stroke: #d3d3d3"/>
    <path d="M 43.735537 205.343881 
L 139.043601 218.217941 
" clip-path="url(#p01c413cb79)" style="fill: none; stroke: #d3d3d3"/>
    <path d="M 43.735537 205.343881 
L 240.251351 201.424987 
" clip-path="url(#p01c413cb79)" style="fill: none; stroke: #d3d3d3"/>
    <path d="M 43.735537 205.343881 
L 218.308 217.932168 
" clip-path="url(#p01c413cb79)" style="fill: none; stroke: #d3d3d3"/>
    <path d="M 62.359693 251.966455 
L 251.604926 222.051206 
" clip-path="url(#p01c413cb79)" style="fill: none; stroke: #d3d3d3"/>
    <path d="M 62.359693 251.966455 
L 240.251351 201.424987 
" clip-path="url(#p01c413cb79)" style="fill: none; stroke: #d3d3d3"/>
    <path d="M 62.359693 251.966455 
L 218.308 217.932168 
" clip-path="url(#p01c413cb79)" style="fill: none; stroke: #d3d3d3"/>
    <path d="M 63.657462 286.081251 
L 206.452387 177.312001 
" clip-path="url(#p01c413cb79)" style="fill: none; stroke: #d3d3d3"/>
    <path d="M 63.657462 286.081251 
L 251.604926 222.051206 
" clip-path="url(#p01c413cb79)" style="fill: none; stroke: #d3d3d3"/>
    <path d="M 63.657462 286.081251 
L 240.251351 201.424987 
" clip-path="url(#p01c413cb79)" style="fill: none; stroke: #d3d3d3"/>
    <path d="M 63.657462 286.081251 
L 218.308 217.932168 
" clip-path="url(#p01c413cb79)" style="fill: none; stroke: #d3d3d3"/>
    <path d="M 139.043601 218.217941 
L 251.604926 222.051206 
" clip-path="url(#p01c413cb79)" style="fill: none; stroke: #d3d3d3"/>
    <path d="M 139.043601 218.217941 
L 281.869543 296.493761 
" clip-path="url(#p01c413cb79)" style="fill: none; stroke: #d3d3d3"/>
    <path d="M 139.043601 218.217941 
L 334.943728 125.445562 
" clip-path="url(#p01c413cb79)" style="fill: none; stroke: #d3d3d3"/>
    <path d="M 139.043601 218.217941 
L 142.434297 339.194093 
" clip-path="url(#p01c413cb79)" style="fill: none; stroke: #d3d3d3"/>
    <path d="M 415.319217 303.052034 
L 240.251351 201.424987 
" clip-path="url(#p01c413cb79)" style="fill: none; stroke: #d3d3d3"/>
    <path d="M 415.319217 303.052034 
L 375.54954 168.175963 
" clip-path="url(#p01c413cb79)" style="fill: none; stroke: #d3d3d3"/>
    <path d="M 432.571436 268.415955 
L 251.604926 222.051206 
" clip-path="url(#p01c413cb79)" style="fill: none; stroke: #d3d3d3"/>
    <path d="M 432.571436 268.415955 
L 240.251351 201.424987 
" clip-path="url(#p01c413cb79)" style="fill: none; stroke: #d3d3d3"/>
    <path d="M 432.571436 268.415955 
L 334.943728 125.445562 
" clip-path="url(#p01c413cb79)" style="fill: none; stroke: #d3d3d3"/>
    <path d="M 432.571436 268.415955 
L 375.54954 168.175963 
" clip-path="url(#p01c413cb79)" style="fill: none; stroke: #d3d3d3"/>
    <path d="M 365.337285 87.432756 
L 218.308 217.932168 
" clip-path="url(#p01c413cb79)" style="fill: none; stroke: #d3d3d3"/>
    <path d="M 111.804113 303.229904 
L 251.604926 222.051206 
" clip-path="url(#p01c413cb79)" style="fill: none; stroke: #d3d3d3"/>
    <path d="M 111.804113 303.229904 
L 281.869543 296.493761 
" clip-path="url(#p01c413cb79)" style="fill: none; stroke: #d3d3d3"/>
    <path d="M 111.804113 303.229904 
L 218.308 217.932168 
" clip-path="url(#p01c413cb79)" style="fill: none; stroke: #d3d3d3"/>
    <path d="M 460.264463 214.911623 
L 240.251351 201.424987 
" clip-path="url(#p01c413cb79)" style="fill: none; stroke: #d3d3d3"/>
    <path d="M 460.264463 214.911623 
L 218.308 217.932168 
" clip-path="url(#p01c413cb79)" style="fill: none; stroke: #d3d3d3"/>
    <path d="M 331.234347 378.735121 
L 251.604926 222.051206 
" clip-path="url(#p01c413cb79)" style="fill: none; stroke: #d3d3d3"/>
    <path d="M 331.234347 378.735121 
L 240.251351 201.424987 
" clip-path="url(#p01c413cb79)" style="fill: none; stroke: #d3d3d3"/>
    <path d="M 331.234347 378.735121 
L 218.308 217.932168 
" clip-path="url(#p01c413cb79)" style="fill: none; stroke: #d3d3d3"/>
    <path d="M 281.869543 296.493761 
L 240.251351 201.424987 
" clip-path="url(#p01c413cb79)" style="fill: none; stroke: #d3d3d3"/>
    <path d="M 281.869543 296.493761 
L 375.54954 168.175963 
" clip-path="url(#p01c413cb79)" style="fill: none; stroke: #d3d3d3"/>
    <path d="M 334.943728 125.445562 
L 218.308 217.932168 
" clip-path="url(#p01c413cb79)" style="fill: none; stroke: #d3d3d3"/>
    <path d="M 142.434297 339.194093 
L 240.251351 201.424987 
" clip-path="url(#p01c413cb79)" style="fill: none; stroke: #d3d3d3"/>
    <path d="M 142.434297 339.194093 
L 218.308 217.932168 
" clip-path="url(#p01c413cb79)" style="fill: none; stroke: #d3d3d3"/>
    <path d="M 375.54954 168.175963 
L 218.308 217.932168 
" clip-path="url(#p01c413cb79)" style="fill: none; stroke: #d3d3d3"/>
   </g>
   <g id="PathCollection_1">
    <defs>
     <path id="C0_0_60174db693" d="M 0 5 
C 1.326016 5 2.597899 4.473168 3.535534 3.535534 
C 4.473168 2.597899 5 1.326016 5 -0 
C 5 -1.326016 4.473168 -2.597899 3.535534 -3.535534 
C 2.597899 -4.473168 1.326016 -5 0 -5 
C -1.326016 -5 -2.597899 -4.473168 -3.535534 -3.535534 
C -4.473168 -2.597899 -5 -1.326016 -5 0 
C -5 1.326016 -4.473168 2.597899 -3.535534 3.535534 
C -2.597899 4.473168 -1.326016 5 0 5 
z
"/>
    </defs>
    <g clip-path="url(#p01c413cb79)">
     <use xlink:href="#C0_0_60174db693" x="255.442556" y="136.622342" style="fill: #8000ff; stroke: #8000ff"/>
    </g>
    <g clip-path="url(#p01c413cb79)">
     <use xlink:href="#C0_0_60174db693" x="176.605616" y="245.039341" style="fill: #1996f3; stroke: #1996f3"/>
    </g>
    <g clip-path="url(#p01c413cb79)">
     <use xlink:href="#C0_0_60174db693" x="286.069813" y="261.495727" style="fill: #8000ff; stroke: #8000ff"/>
    </g>
    <g clip-path="url(#p01c413cb79)">
     <use xlink:href="#C0_0_60174db693" x="174.950068" y="279.857928" style="fill: #1996f3; stroke: #1996f3"/>
    </g>
    <g clip-path="url(#p01c413cb79)">
     <use xlink:href="#C0_0_60174db693" x="362.869061" y="256.101454" style="fill: #4df3ce; stroke: #4df3ce"/>
    </g>
    <g clip-path="url(#p01c413cb79)">
     <use xlink:href="#C0_0_60174db693" x="332.631603" y="316.382428" style="fill: #4df3ce; stroke: #4df3ce"/>
    </g>
    <g clip-path="url(#p01c413cb79)">
     <use xlink:href="#C0_0_60174db693" x="229.065255" y="305.19796" style="fill: #1996f3; stroke: #1996f3"/>
    </g>
    <g clip-path="url(#p01c413cb79)">
     <use xlink:href="#C0_0_60174db693" x="430.02498" y="245.290321" style="fill: #b2f396; stroke: #b2f396"/>
    </g>
    <g clip-path="url(#p01c413cb79)">
     <use xlink:href="#C0_0_60174db693" x="444.033267" y="167.658412" style="fill: #1996f3; stroke: #1996f3"/>
    </g>
    <g clip-path="url(#p01c413cb79)">
     <use xlink:href="#C0_0_60174db693" x="176.968015" y="37.487603" style="fill: #4df3ce; stroke: #4df3ce"/>
    </g>
    <g clip-path="url(#p01c413cb79)">
     <use xlink:href="#C0_0_60174db693" x="375.458437" y="115.598297" style="fill: #8000ff; stroke: #8000ff"/>
    </g>
    <g clip-path="url(#p01c413cb79)">
     <use xlink:href="#C0_0_60174db693" x="329.892223" y="47.832705" style="fill: #4df3ce; stroke: #4df3ce"/>
    </g>
    <g clip-path="url(#p01c413cb79)">
     <use xlink:href="#C0_0_60174db693" x="416.320447" y="141.218985" style="fill: #ff964f; stroke: #ff964f"/>
    </g>
    <g clip-path="url(#p01c413cb79)">
     <use xlink:href="#C0_0_60174db693" x="209.060133" y="40.384471" style="fill: #b2f396; stroke: #b2f396"/>
    </g>
    <g clip-path="url(#p01c413cb79)">
     <use xlink:href="#C0_0_60174db693" x="75.889253" y="109.892031" style="fill: #b2f396; stroke: #b2f396"/>
    </g>
    <g clip-path="url(#p01c413cb79)">
     <use xlink:href="#C0_0_60174db693" x="124.802945" y="76.32642" style="fill: #4df3ce; stroke: #4df3ce"/>
    </g>
    <g clip-path="url(#p01c413cb79)">
     <use xlink:href="#C0_0_60174db693" x="68.915424" y="150.129481" style="fill: #4df3ce; stroke: #4df3ce"/>
    </g>
    <g clip-path="url(#p01c413cb79)">
     <use xlink:href="#C0_0_60174db693" x="299.099744" y="185.880702" style="fill: #ff0000; stroke: #ff0000"/>
    </g>
    <g clip-path="url(#p01c413cb79)">
     <use xlink:href="#C0_0_60174db693" x="160.028176" y="163.118973" style="fill: #b2f396; stroke: #b2f396"/>
    </g>
    <g clip-path="url(#p01c413cb79)">
     <use xlink:href="#C0_0_60174db693" x="340.621157" y="195.500092" style="fill: #b2f396; stroke: #b2f396"/>
    </g>
    <g clip-path="url(#p01c413cb79)">
     <use xlink:href="#C0_0_60174db693" x="271.383614" y="93.347288" style="fill: #4df3ce; stroke: #4df3ce"/>
    </g>
    <g clip-path="url(#p01c413cb79)">
     <use xlink:href="#C0_0_60174db693" x="157.6306" y="106.305741" style="fill: #ff964f; stroke: #ff964f"/>
    </g>
    <g clip-path="url(#p01c413cb79)">
     <use xlink:href="#C0_0_60174db693" x="291.267666" y="48.035469" style="fill: #8000ff; stroke: #8000ff"/>
    </g>
    <g clip-path="url(#p01c413cb79)">
     <use xlink:href="#C0_0_60174db693" x="255.954787" y="37.667786" style="fill: #4df3ce; stroke: #4df3ce"/>
    </g>
    <g clip-path="url(#p01c413cb79)">
     <use xlink:href="#C0_0_60174db693" x="373.057483" y="353.865054" style="fill: #1996f3; stroke: #1996f3"/>
    </g>
    <g clip-path="url(#p01c413cb79)">
     <use xlink:href="#C0_0_60174db693" x="286.591627" y="364.155764" style="fill: #b2f396; stroke: #b2f396"/>
    </g>
    <g clip-path="url(#p01c413cb79)">
     <use xlink:href="#C0_0_60174db693" x="173.490184" y="383.578891" style="fill: #1996f3; stroke: #1996f3"/>
    </g>
    <g clip-path="url(#p01c413cb79)">
     <use xlink:href="#C0_0_60174db693" x="219.763029" y="379.935911" style="fill: #4df3ce; stroke: #4df3ce"/>
    </g>
    <g clip-path="url(#p01c413cb79)">
     <use xlink:href="#C0_0_60174db693" x="245.260092" y="394.512397" style="fill: #4df3ce; stroke: #4df3ce"/>
    </g>
    <g clip-path="url(#p01c413cb79)">
     <use xlink:href="#C0_0_60174db693" x="43.735537" y="205.343881" style="fill: #1996f3; stroke: #1996f3"/>
    </g>
    <g clip-path="url(#p01c413cb79)">
     <use xlink:href="#C0_0_60174db693" x="62.359693" y="251.966455" style="fill: #b2f396; stroke: #b2f396"/>
    </g>
    <g clip-path="url(#p01c413cb79)">
     <use xlink:href="#C0_0_60174db693" x="63.657462" y="286.081251" style="fill: #1996f3; stroke: #1996f3"/>
    </g>
    <g clip-path="url(#p01c413cb79)">
     <use xlink:href="#C0_0_60174db693" x="206.452387" y="177.312001" style="fill: #4df3ce; stroke: #4df3ce"/>
    </g>
    <g clip-path="url(#p01c413cb79)">
     <use xlink:href="#C0_0_60174db693" x="139.043601" y="218.217941" style="fill: #ff964f; stroke: #ff964f"/>
    </g>
    <g clip-path="url(#p01c413cb79)">
     <use xlink:href="#C0_0_60174db693" x="415.319217" y="303.052034" style="fill: #4df3ce; stroke: #4df3ce"/>
    </g>
    <g clip-path="url(#p01c413cb79)">
     <use xlink:href="#C0_0_60174db693" x="432.571436" y="268.415955" style="fill: #1996f3; stroke: #1996f3"/>
    </g>
    <g clip-path="url(#p01c413cb79)">
     <use xlink:href="#C0_0_60174db693" x="365.337285" y="87.432756" style="fill: #b2f396; stroke: #b2f396"/>
    </g>
    <g clip-path="url(#p01c413cb79)">
     <use xlink:href="#C0_0_60174db693" x="111.804113" y="303.229904" style="fill: #1996f3; stroke: #1996f3"/>
    </g>
    <g clip-path="url(#p01c413cb79)">
     <use xlink:href="#C0_0_60174db693" x="460.264463" y="214.911623" style="fill: #4df3ce; stroke: #4df3ce"/>
    </g>
    <g clip-path="url(#p01c413cb79)">
     <use xlink:href="#C0_0_60174db693" x="331.234347" y="378.735121" style="fill: #4df3ce; stroke: #4df3ce"/>
    </g>
    <g clip-path="url(#p01c413cb79)">
     <use xlink:href="#C0_0_60174db693" x="251.604926" y="222.051206" style="fill: #1996f3; stroke: #1996f3"/>
    </g>
    <g clip-path="url(#p01c413cb79)">
     <use xlink:href="#C0_0_60174db693" x="281.869543" y="296.493761" style="fill: #b2f396; stroke: #b2f396"/>
    </g>
    <g clip-path="url(#p01c413cb79)">
     <use xlink:href="#C0_0_60174db693" x="334.943728" y="125.445562" style="fill: #1996f3; stroke: #1996f3"/>
    </g>
    <g clip-path="url(#p01c413cb79)">
     <use xlink:href="#C0_0_60174db693" x="142.434297" y="339.194093" style="fill: #4df3ce; stroke: #4df3ce"/>
    </g>
    <g clip-path="url(#p01c413cb79)">
     <use xlink:href="#C0_0_60174db693" x="240.251351" y="201.424987" style="fill: #ff964f; stroke: #ff964f"/>
    </g>
    <g clip-path="url(#p01c413cb79)">
     <use xlink:href="#C0_0_60174db693" x="375.54954" y="168.175963" style="fill: #1996f3; stroke: #1996f3"/>
    </g>
    <g clip-path="url(#p01c413cb79)">
     <use xlink:href="#C0_0_60174db693" x="218.308" y="217.932168" style="fill: #8000ff; stroke: #8000ff"/>
    </g>
   </g>
   <g id="text_1">
    <!-- Colorare euristică - myciel5 (χ ≈ 6) -->
    <g transform="translate(146.74875 -6) scale(0.12 -0.12)">
     <defs>
      <path id="DejaVuSans-43" d="M 4122 4306 
L 4122 3641 
Q 3803 3938 3442 4084 
Q 3081 4231 2675 4231 
Q 1875 4231 1450 3742 
Q 1025 3253 1025 2328 
Q 1025 1406 1450 917 
Q 1875 428 2675 428 
Q 3081 428 3442 575 
Q 3803 722 4122 1019 
L 4122 359 
Q 3791 134 3420 21 
Q 3050 -91 2638 -91 
Q 1578 -91 968 557 
Q 359 1206 359 2328 
Q 359 3453 968 4101 
Q 1578 4750 2638 4750 
Q 3056 4750 3426 4639 
Q 3797 4528 4122 4306 
z
" transform="scale(0.015625)"/>
      <path id="DejaVuSans-6f" d="M 1959 3097 
Q 1497 3097 1228 2736 
Q 959 2375 959 1747 
Q 959 1119 1226 758 
Q 1494 397 1959 397 
Q 2419 397 2687 759 
Q 2956 1122 2956 1747 
Q 2956 2369 2687 2733 
Q 2419 3097 1959 3097 
z
M 1959 3584 
Q 2709 3584 3137 3096 
Q 3566 2609 3566 1747 
Q 3566 888 3137 398 
Q 2709 -91 1959 -91 
Q 1206 -91 779 398 
Q 353 888 353 1747 
Q 353 2609 779 3096 
Q 1206 3584 1959 3584 
z
" transform="scale(0.015625)"/>
      <path id="DejaVuSans-6c" d="M 603 4863 
L 1178 4863 
L 1178 0 
L 603 0 
L 603 4863 
z
" transform="scale(0.015625)"/>
      <path id="DejaVuSans-72" d="M 2631 2963 
Q 2534 3019 2420 3045 
Q 2306 3072 2169 3072 
Q 1681 3072 1420 2755 
Q 1159 2438 1159 1844 
L 1159 0 
L 581 0 
L 581 3500 
L 1159 3500 
L 1159 2956 
Q 1341 3275 1631 3429 
Q 1922 3584 2338 3584 
Q 2397 3584 2469 3576 
Q 2541 3569 2628 3553 
L 2631 2963 
z
" transform="scale(0.015625)"/>
      <path id="DejaVuSans-61" d="M 2194 1759 
Q 1497 1759 1228 1600 
Q 959 1441 959 1056 
Q 959 750 1161 570 
Q 1363 391 1709 391 
Q 2188 391 2477 730 
Q 2766 1069 2766 1631 
L 2766 1759 
L 2194 1759 
z
M 3341 1997 
L 3341 0 
L 2766 0 
L 2766 531 
Q 2569 213 2275 61 
Q 1981 -91 1556 -91 
Q 1019 -91 701 211 
Q 384 513 384 1019 
Q 384 1609 779 1909 
Q 1175 2209 1959 2209 
L 2766 2209 
L 2766 2266 
Q 2766 2663 2505 2880 
Q 2244 3097 1772 3097 
Q 1472 3097 1187 3025 
Q 903 2953 641 2809 
L 641 3341 
Q 956 3463 1253 3523 
Q 1550 3584 1831 3584 
Q 2591 3584 2966 3190 
Q 3341 2797 3341 1997 
z
" transform="scale(0.015625)"/>
      <path id="DejaVuSans-65" d="M 3597 1894 
L 3597 1613 
L 953 1613 
Q 991 1019 1311 708 
Q 1631 397 2203 397 
Q 2534 397 2845 478 
Q 3156 559 3463 722 
L 3463 178 
Q 3153 47 2828 -22 
Q 2503 -91 2169 -91 
Q 1331 -91 842 396 
Q 353 884 353 1716 
Q 353 2575 817 3079 
Q 1281 3584 2069 3584 
Q 2775 3584 3186 3129 
Q 3597 2675 3597 1894 
z
M 3022 2063 
Q 3016 2534 2758 2815 
Q 2500 3097 2075 3097 
Q 1594 3097 1305 2825 
Q 1016 2553 972 2059 
L 3022 2063 
z
" transform="scale(0.015625)"/>
      <path id="DejaVuSans-20" transform="scale(0.015625)"/>
      <path id="DejaVuSans-75" d="M 544 1381 
L 544 3500 
L 1119 3500 
L 1119 1403 
Q 1119 906 1312 657 
Q 1506 409 1894 409 
Q 2359 409 2629 706 
Q 2900 1003 2900 1516 
L 2900 3500 
L 3475 3500 
L 3475 0 
L 2900 0 
L 2900 538 
Q 2691 219 2414 64 
Q 2138 -91 1772 -91 
Q 1169 -91 856 284 
Q 544 659 544 1381 
z
M 1991 3584 
L 1991 3584 
z
" transform="scale(0.015625)"/>
      <path id="DejaVuSans-69" d="M 603 3500 
L 1178 3500 
L 1178 0 
L 603 0 
L 603 3500 
z
M 603 4863 
L 1178 4863 
L 1178 4134 
L 603 4134 
L 603 4863 
z
" transform="scale(0.015625)"/>
      <path id="DejaVuSans-73" d="M 2834 3397 
L 2834 2853 
Q 2591 2978 2328 3040 
Q 2066 3103 1784 3103 
Q 1356 3103 1142 2972 
Q 928 2841 928 2578 
Q 928 2378 1081 2264 
Q 1234 2150 1697 2047 
L 1894 2003 
Q 2506 1872 2764 1633 
Q 3022 1394 3022 966 
Q 3022 478 2636 193 
Q 2250 -91 1575 -91 
Q 1294 -91 989 -36 
Q 684 19 347 128 
L 347 722 
Q 666 556 975 473 
Q 1284 391 1588 391 
Q 1994 391 2212 530 
Q 2431 669 2431 922 
Q 2431 1156 2273 1281 
Q 2116 1406 1581 1522 
L 1381 1569 
Q 847 1681 609 1914 
Q 372 2147 372 2553 
Q 372 3047 722 3315 
Q 1072 3584 1716 3584 
Q 2034 3584 2315 3537 
Q 2597 3491 2834 3397 
z
" transform="scale(0.015625)"/>
      <path id="DejaVuSans-74" d="M 1172 4494 
L 1172 3500 
L 2356 3500 
L 2356 3053 
L 1172 3053 
L 1172 1153 
Q 1172 725 1289 603 
Q 1406 481 1766 481 
L 2356 481 
L 2356 0 
L 1766 0 
Q 1100 0 847 248 
Q 594 497 594 1153 
L 594 3053 
L 172 3053 
L 172 3500 
L 594 3500 
L 594 4494 
L 1172 4494 
z
" transform="scale(0.015625)"/>
      <path id="DejaVuSans-63" d="M 3122 3366 
L 3122 2828 
Q 2878 2963 2633 3030 
Q 2388 3097 2138 3097 
Q 1578 3097 1268 2742 
Q 959 2388 959 1747 
Q 959 1106 1268 751 
Q 1578 397 2138 397 
Q 2388 397 2633 464 
Q 2878 531 3122 666 
L 3122 134 
Q 2881 22 2623 -34 
Q 2366 -91 2075 -91 
Q 1284 -91 818 406 
Q 353 903 353 1747 
Q 353 2603 823 3093 
Q 1294 3584 2113 3584 
Q 2378 3584 2631 3529 
Q 2884 3475 3122 3366 
z
" transform="scale(0.015625)"/>
      <path id="DejaVuSans-103" d="M 870 4897 
L 1239 4897 
Q 1273 4663 1424 4545 
Q 1576 4428 1848 4428 
Q 2117 4428 2267 4544 
Q 2417 4660 2457 4897 
L 2826 4897 
Q 2795 4450 2548 4225 
Q 2301 4000 1848 4000 
Q 1395 4000 1148 4225 
Q 901 4450 870 4897 
z
M 2194 1759 
Q 1497 1759 1228 1600 
Q 959 1441 959 1056 
Q 959 750 1161 570 
Q 1363 391 1709 391 
Q 2188 391 2477 730 
Q 2766 1069 2766 1631 
L 2766 1759 
L 2194 1759 
z
M 3341 1997 
L 3341 0 
L 2766 0 
L 2766 531 
Q 2569 213 2275 61 
Q 1981 -91 1556 -91 
Q 1019 -91 701 211 
Q 384 513 384 1019 
Q 384 1609 779 1909 
Q 1175 2209 1959 2209 
L 2766 2209 
L 2766 2266 
Q 2766 2663 2505 2880 
Q 2244 3097 1772 3097 
Q 1472 3097 1187 3025 
Q 903 2953 641 2809 
L 641 3341 
Q 956 3463 1253 3523 
Q 1550 3584 1831 3584 
Q 2591 3584 2966 3190 
Q 3341 2797 3341 1997 
z
" transform="scale(0.015625)"/>
      <path id="DejaVuSans-2d" d="M 313 2009 
L 1997 2009 
L 1997 1497 
L 313 1497 
L 313 2009 
z
" transform="scale(0.015625)"/>
      <path id="DejaVuSans-6d" d="M 3328 2828 
Q 3544 3216 3844 3400 
Q 4144 3584 4550 3584 
Q 5097 3584 5394 3201 
Q 5691 2819 5691 2113 
L 5691 0 
L 5113 0 
L 5113 2094 
Q 5113 2597 4934 2840 
Q 4756 3084 4391 3084 
Q 3944 3084 3684 2787 
Q 3425 2491 3425 1978 
L 3425 0 
L 2847 0 
L 2847 2094 
Q 2847 2600 2669 2842 
Q 2491 3084 2119 3084 
Q 1678 3084 1418 2786 
Q 1159 2488 1159 1978 
L 1159 0 
L 581 0 
L 581 3500 
L 1159 3500 
L 1159 2956 
Q 1356 3278 1631 3431 
Q 1906 3584 2284 3584 
Q 2666 3584 2933 3390 
Q 3200 3197 3328 2828 
z
" transform="scale(0.015625)"/>
      <path id="DejaVuSans-79" d="M 2059 -325 
Q 1816 -950 1584 -1140 
Q 1353 -1331 966 -1331 
L 506 -1331 
L 506 -850 
L 844 -850 
Q 1081 -850 1212 -737 
Q 1344 -625 1503 -206 
L 1606 56 
L 191 3500 
L 800 3500 
L 1894 763 
L 2988 3500 
L 3597 3500 
L 2059 -325 
z
" transform="scale(0.015625)"/>
      <path id="DejaVuSans-35" d="M 691 4666 
L 3169 4666 
L 3169 4134 
L 1269 4134 
L 1269 2991 
Q 1406 3038 1543 3061 
Q 1681 3084 1819 3084 
Q 2600 3084 3056 2656 
Q 3513 2228 3513 1497 
Q 3513 744 3044 326 
Q 2575 -91 1722 -91 
Q 1428 -91 1123 -41 
Q 819 9 494 109 
L 494 744 
Q 775 591 1075 516 
Q 1375 441 1709 441 
Q 2250 441 2565 725 
Q 2881 1009 2881 1497 
Q 2881 1984 2565 2268 
Q 2250 2553 1709 2553 
Q 1456 2553 1204 2497 
Q 953 2441 691 2322 
L 691 4666 
z
" transform="scale(0.015625)"/>
      <path id="DejaVuSans-28" d="M 1984 4856 
Q 1566 4138 1362 3434 
Q 1159 2731 1159 2009 
Q 1159 1288 1364 580 
Q 1569 -128 1984 -844 
L 1484 -844 
Q 1016 -109 783 600 
Q 550 1309 550 2009 
Q 550 2706 781 3412 
Q 1013 4119 1484 4856 
L 1984 4856 
z
" transform="scale(0.015625)"/>
      <path id="DejaVuSans-3c7" d="M 2288 -781 
L 1822 416 
L 863 -1334 
L 184 -1334 
L 1541 1141 
L 972 2613 
Q 819 3006 338 3006 
L 184 3006 
L 184 3500 
L 403 3494 
Q 1209 3472 1413 2950 
L 1875 1753 
L 2834 3503 
L 3513 3503 
L 2156 1028 
L 2725 -444 
Q 2878 -838 3359 -838 
L 3513 -838 
L 3513 -1331 
L 3294 -1325 
Q 2488 -1303 2288 -781 
z
" transform="scale(0.015625)"/>
      <path id="DejaVuSans-2248" d="M 4684 1947 
L 4684 1388 
Q 4356 1144 4076 1036 
Q 3797 928 3494 928 
Q 3150 928 2694 1113 
Q 2663 1125 2641 1134 
Q 2622 1141 2575 1159 
Q 2091 1350 1797 1350 
Q 1522 1350 1253 1231 
Q 984 1113 678 850 
L 678 1409 
Q 1006 1653 1286 1761 
Q 1566 1869 1869 1869 
Q 2213 1869 2672 1684 
Q 2706 1669 2722 1663 
Q 2741 1656 2788 1638 
Q 3272 1447 3566 1447 
Q 3834 1447 4098 1564 
Q 4363 1681 4684 1947 
z
M 4684 3163 
L 4684 2606 
Q 4356 2359 4076 2251 
Q 3797 2144 3494 2144 
Q 3150 2144 2694 2328 
Q 2663 2341 2641 2350 
Q 2622 2356 2575 2375 
Q 2091 2566 1797 2566 
Q 1522 2566 1253 2447 
Q 984 2328 678 2069 
L 678 2625 
Q 1006 2869 1286 2976 
Q 1566 3084 1869 3084 
Q 2213 3084 2672 2900 
Q 2703 2888 2719 2881 
Q 2741 2872 2788 2853 
Q 3272 2663 3566 2663 
Q 3834 2663 4098 2780 
Q 4363 2897 4684 3163 
z
" transform="scale(0.015625)"/>
      <path id="DejaVuSans-36" d="M 2113 2584 
Q 1688 2584 1439 2293 
Q 1191 2003 1191 1497 
Q 1191 994 1439 701 
Q 1688 409 2113 409 
Q 2538 409 2786 701 
Q 3034 994 3034 1497 
Q 3034 2003 2786 2293 
Q 2538 2584 2113 2584 
z
M 3366 4563 
L 3366 3988 
Q 3128 4100 2886 4159 
Q 2644 4219 2406 4219 
Q 1781 4219 1451 3797 
Q 1122 3375 1075 2522 
Q 1259 2794 1537 2939 
Q 1816 3084 2150 3084 
Q 2853 3084 3261 2657 
Q 3669 2231 3669 1497 
Q 3669 778 3244 343 
Q 2819 -91 2113 -91 
Q 1303 -91 875 529 
Q 447 1150 447 2328 
Q 447 3434 972 4092 
Q 1497 4750 2381 4750 
Q 2619 4750 2861 4703 
Q 3103 4656 3366 4563 
z
" transform="scale(0.015625)"/>
      <path id="DejaVuSans-29" d="M 513 4856 
L 1013 4856 
Q 1481 4119 1714 3412 
Q 1947 2706 1947 2009 
Q 1947 1309 1714 600 
Q 1481 -109 1013 -844 
L 513 -844 
Q 928 -128 1133 580 
Q 1338 1288 1338 2009 
Q 1338 2731 1133 3434 
Q 928 4138 513 4856 
z
" transform="scale(0.015625)"/>
     </defs>
     <use xlink:href="#DejaVuSans-43"/>
     <use xlink:href="#DejaVuSans-6f" x="69.824219"/>
     <use xlink:href="#DejaVuSans-6c" x="131.005859"/>
     <use xlink:href="#DejaVuSans-6f" x="158.789062"/>
     <use xlink:href="#DejaVuSans-72" x="219.970703"/>
     <use xlink:href="#DejaVuSans-61" x="261.083984"/>
     <use xlink:href="#DejaVuSans-72" x="322.363281"/>
     <use xlink:href="#DejaVuSans-65" x="361.226562"/>
     <use xlink:href="#DejaVuSans-20" x="422.75"/>
     <use xlink:href="#DejaVuSans-65" x="454.537109"/>
     <use xlink:href="#DejaVuSans-75" x="516.060547"/>
     <use xlink:href="#DejaVuSans-72" x="579.439453"/>
     <use xlink:href="#DejaVuSans-69" x="620.552734"/>
     <use xlink:href="#DejaVuSans-73" x="648.335938"/>
     <use xlink:href="#DejaVuSans-74" x="700.435547"/>
     <use xlink:href="#DejaVuSans-69" x="739.644531"/>
     <use xlink:href="#DejaVuSans-63" x="767.427734"/>
     <use xlink:href="#DejaVuSans-103" x="822.408203"/>
     <use xlink:href="#DejaVuSans-20" x="883.6875"/>
     <use xlink:href="#DejaVuSans-2d" x="915.474609"/>
     <use xlink:href="#DejaVuSans-20" x="951.558594"/>
     <use xlink:href="#DejaVuSans-6d" x="983.345703"/>
     <use xlink:href="#DejaVuSans-79" x="1080.757812"/>
     <use xlink:href="#DejaVuSans-63" x="1139.9375"/>
     <use xlink:href="#DejaVuSans-69" x="1194.917969"/>
     <use xlink:href="#DejaVuSans-65" x="1222.701172"/>
     <use xlink:href="#DejaVuSans-6c" x="1284.224609"/>
     <use xlink:href="#DejaVuSans-35" x="1312.007812"/>
     <use xlink:href="#DejaVuSans-20" x="1375.630859"/>
     <use xlink:href="#DejaVuSans-28" x="1407.417969"/>
     <use xlink:href="#DejaVuSans-3c7" x="1446.431641"/>
     <use xlink:href="#DejaVuSans-20" x="1504.195312"/>
     <use xlink:href="#DejaVuSans-2248" x="1535.982422"/>
     <use xlink:href="#DejaVuSans-20" x="1619.771484"/>
     <use xlink:href="#DejaVuSans-36" x="1651.558594"/>
     <use xlink:href="#DejaVuSans-29" x="1715.181641"/>
    </g>
   </g>
   <g id="legend_1">
    <g id="patch_2">
     <path d="M 536.2 110.746875 
L 622.857813 110.746875 
Q 624.857813 110.746875 624.857813 108.746875 
L 624.857813 7 
Q 624.857813 5 622.857813 5 
L 536.2 5 
Q 534.2 5 534.2 7 
L 534.2 108.746875 
Q 534.2 110.746875 536.2 110.746875 
z
" style="fill: #ffffff; opacity: 0.8; stroke: #cccccc; stroke-linejoin: miter"/>
    </g>
    <g id="text_2">
     <!-- Colorare corectă -->
     <g transform="translate(538.2 16.598437) scale(0.1 -0.1)">
      <use xlink:href="#DejaVuSans-43"/>
      <use xlink:href="#DejaVuSans-6f" x="69.824219"/>
      <use xlink:href="#DejaVuSans-6c" x="131.005859"/>
      <use xlink:href="#DejaVuSans-6f" x="158.789062"/>
      <use xlink:href="#DejaVuSans-72" x="219.970703"/>
      <use xlink:href="#DejaVuSans-61" x="261.083984"/>
      <use xlink:href="#DejaVuSans-72" x="322.363281"/>
      <use xlink:href="#DejaVuSans-65" x="361.226562"/>
      <use xlink:href="#DejaVuSans-20" x="422.75"/>
      <use xlink:href="#DejaVuSans-63" x="454.537109"/>
      <use xlink:href="#DejaVuSans-6f" x="509.517578"/>
      <use xlink:href="#DejaVuSans-72" x="570.699219"/>
      <use xlink:href="#DejaVuSans-65" x="609.5625"/>
      <use xlink:href="#DejaVuSans-63" x="671.085938"/>
      <use xlink:href="#DejaVuSans-74" x="726.066406"/>
      <use xlink:href="#DejaVuSans-103" x="765.275391"/>
     </g>
    </g>
    <g id="patch_3">
     <path d="M 547.703906 31.276563 
L 567.703906 31.276563 
L 567.703906 24.276563 
L 547.703906 24.276563 
z
" style="fill: #8000ff; stroke: #8000ff; stroke-linejoin: miter"/>
    </g>
    <g id="text_3">
     <!-- Color 0 -->
     <g transform="translate(575.703906 31.276563) scale(0.1 -0.1)">
      <defs>
       <path id="DejaVuSans-30" d="M 2034 4250 
Q 1547 4250 1301 3770 
Q 1056 3291 1056 2328 
Q 1056 1369 1301 889 
Q 1547 409 2034 409 
Q 2525 409 2770 889 
Q 3016 1369 3016 2328 
Q 3016 3291 2770 3770 
Q 2525 4250 2034 4250 
z
M 2034 4750 
Q 2819 4750 3233 4129 
Q 3647 3509 3647 2328 
Q 3647 1150 3233 529 
Q 2819 -91 2034 -91 
Q 1250 -91 836 529 
Q 422 1150 422 2328 
Q 422 3509 836 4129 
Q 1250 4750 2034 4750 
z
" transform="scale(0.015625)"/>
      </defs>
      <use xlink:href="#DejaVuSans-43"/>
      <use xlink:href="#DejaVuSans-6f" x="69.824219"/>
      <use xlink:href="#DejaVuSans-6c" x="131.005859"/>
      <use xlink:href="#DejaVuSans-6f" x="158.789062"/>
      <use xlink:href="#DejaVuSans-72" x="219.970703"/>
      <use xlink:href="#DejaVuSans-20" x="261.083984"/>
      <use xlink:href="#DejaVuSans-30" x="292.871094"/>
     </g>
    </g>
    <g id="patch_4">
     <path d="M 547.703906 45.954688 
L 567.703906 45.954688 
L 567.703906 38.954688 
L 547.703906 38.954688 
z
" style="fill: #1996f3; stroke: #1996f3; stroke-linejoin: miter"/>
    </g>
    <g id="text_4">
     <!-- Color 1 -->
     <g transform="translate(575.703906 45.954688) scale(0.1 -0.1)">
      <defs>
       <path id="DejaVuSans-31" d="M 794 531 
L 1825 531 
L 1825 4091 
L 703 3866 
L 703 4441 
L 1819 4666 
L 2450 4666 
L 2450 531 
L 3481 531 
L 3481 0 
L 794 0 
L 794 531 
z
" transform="scale(0.015625)"/>
      </defs>
      <use xlink:href="#DejaVuSans-43"/>
      <use xlink:href="#DejaVuSans-6f" x="69.824219"/>
      <use xlink:href="#DejaVuSans-6c" x="131.005859"/>
      <use xlink:href="#DejaVuSans-6f" x="158.789062"/>
      <use xlink:href="#DejaVuSans-72" x="219.970703"/>
      <use xlink:href="#DejaVuSans-20" x="261.083984"/>
      <use xlink:href="#DejaVuSans-31" x="292.871094"/>
     </g>
    </g>
    <g id="patch_5">
     <path d="M 547.703906 60.632812 
L 567.703906 60.632812 
L 567.703906 53.632812 
L 547.703906 53.632812 
z
" style="fill: #4df3ce; stroke: #4df3ce; stroke-linejoin: miter"/>
    </g>
    <g id="text_5">
     <!-- Color 2 -->
     <g transform="translate(575.703906 60.632812) scale(0.1 -0.1)">
      <defs>
       <path id="DejaVuSans-32" d="M 1228 531 
L 3431 531 
L 3431 0 
L 469 0 
L 469 531 
Q 828 903 1448 1529 
Q 2069 2156 2228 2338 
Q 2531 2678 2651 2914 
Q 2772 3150 2772 3378 
Q 2772 3750 2511 3984 
Q 2250 4219 1831 4219 
Q 1534 4219 1204 4116 
Q 875 4013 500 3803 
L 500 4441 
Q 881 4594 1212 4672 
Q 1544 4750 1819 4750 
Q 2544 4750 2975 4387 
Q 3406 4025 3406 3419 
Q 3406 3131 3298 2873 
Q 3191 2616 2906 2266 
Q 2828 2175 2409 1742 
Q 1991 1309 1228 531 
z
" transform="scale(0.015625)"/>
      </defs>
      <use xlink:href="#DejaVuSans-43"/>
      <use xlink:href="#DejaVuSans-6f" x="69.824219"/>
      <use xlink:href="#DejaVuSans-6c" x="131.005859"/>
      <use xlink:href="#DejaVuSans-6f" x="158.789062"/>
      <use xlink:href="#DejaVuSans-72" x="219.970703"/>
      <use xlink:href="#DejaVuSans-20" x="261.083984"/>
      <use xlink:href="#DejaVuSans-32" x="292.871094"/>
     </g>
    </g>
    <g id="patch_6">
     <path d="M 547.703906 75.310938 
L 567.703906 75.310938 
L 567.703906 68.310938 
L 547.703906 68.310938 
z
" style="fill: #b2f396; stroke: #b2f396; stroke-linejoin: miter"/>
    </g>
    <g id="text_6">
     <!-- Color 3 -->
     <g transform="translate(575.703906 75.310938) scale(0.1 -0.1)">
      <defs>
       <path id="DejaVuSans-33" d="M 2597 2516 
Q 3050 2419 3304 2112 
Q 3559 1806 3559 1356 
Q 3559 666 3084 287 
Q 2609 -91 1734 -91 
Q 1441 -91 1130 -33 
Q 819 25 488 141 
L 488 750 
Q 750 597 1062 519 
Q 1375 441 1716 441 
Q 2309 441 2620 675 
Q 2931 909 2931 1356 
Q 2931 1769 2642 2001 
Q 2353 2234 1838 2234 
L 1294 2234 
L 1294 2753 
L 1863 2753 
Q 2328 2753 2575 2939 
Q 2822 3125 2822 3475 
Q 2822 3834 2567 4026 
Q 2313 4219 1838 4219 
Q 1578 4219 1281 4162 
Q 984 4106 628 3988 
L 628 4550 
Q 988 4650 1302 4700 
Q 1616 4750 1894 4750 
Q 2613 4750 3031 4423 
Q 3450 4097 3450 3541 
Q 3450 3153 3228 2886 
Q 3006 2619 2597 2516 
z
" transform="scale(0.015625)"/>
      </defs>
      <use xlink:href="#DejaVuSans-43"/>
      <use xlink:href="#DejaVuSans-6f" x="69.824219"/>
      <use xlink:href="#DejaVuSans-6c" x="131.005859"/>
      <use xlink:href="#DejaVuSans-6f" x="158.789062"/>
      <use xlink:href="#DejaVuSans-72" x="219.970703"/>
      <use xlink:href="#DejaVuSans-20" x="261.083984"/>
      <use xlink:href="#DejaVuSans-33" x="292.871094"/>
     </g>
    </g>
    <g id="patch_7">
     <path d="M 547.703906 89.989063 
L 567.703906 89.989063 
L 567.703906 82.989063 
L 547.703906 82.989063 
z
" style="fill: #ff964f; stroke: #ff964f; stroke-linejoin: miter"/>
    </g>
    <g id="text_7">
     <!-- Color 4 -->
     <g transform="translate(575.703906 89.989063) scale(0.1 -0.1)">
      <defs>
       <path id="DejaVuSans-34" d="M 2419 4116 
L 825 1625 
L 2419 1625 
L 2419 4116 
z
M 2253 4666 
L 3047 4666 
L 3047 1625 
L 3713 1625 
L 3713 1100 
L 3047 1100 
L 3047 0 
L 2419 0 
L 2419 1100 
L 313 1100 
L 313 1709 
L 2253 4666 
z
" transform="scale(0.015625)"/>
      </defs>
      <use xlink:href="#DejaVuSans-43"/>
      <use xlink:href="#DejaVuSans-6f" x="69.824219"/>
      <use xlink:href="#DejaVuSans-6c" x="131.005859"/>
      <use xlink:href="#DejaVuSans-6f" x="158.789062"/>
      <use xlink:href="#DejaVuSans-72" x="219.970703"/>
      <use xlink:href="#DejaVuSans-20" x="261.083984"/>
      <use xlink:href="#DejaVuSans-34" x="292.871094"/>
     </g>
    </g>
    <g id="patch_8">
     <path d="M 547.703906 104.667188 
L 567.703906 104.667188 
L 567.703906 97.667188 
L 547.703906 97.667188 
z
" style="fill: #ff0000; stroke: #ff0000; stroke-linejoin: miter"/>
    </g>
    <g id="text_8">
     <!-- Color 5 -->
     <g transform="translate(575.703906 104.667188) scale(0.1 -0.1)">
      <use xlink:href="#DejaVuSans-43"/>
      <use xlink:href="#DejaVuSans-6f" x="69.824219"/>
      <use xlink:href="#DejaVuSans-6c" x="131.005859"/>
      <use xlink:href="#DejaVuSans-6f" x="158.789062"/>
      <use xlink:href="#DejaVuSans-72" x="219.970703"/>
      <use xlink:href="#DejaVuSans-20" x="261.083984"/>
      <use xlink:href="#DejaVuSans-35" x="292.871094"/>
     </g>
    </g>
   </g>
  </g>
 </g>
 <defs>
  <clipPath id="p01c413cb79">
   <rect x="0" y="0" width="504" height="432"/>
  </clipPath>
 </defs>
</svg>
