<?xml version="1.0" encoding="utf-8" standalone="no"?>
<!DOCTYPE svg PUBLIC "-//W3C//DTD SVG 1.1//EN"
  "http://www.w3.org/Graphics/SVG/1.1/DTD/svg11.dtd">
<svg xmlns:xlink="http://www.w3.org/1999/xlink" width="504pt" height="432pt" viewBox="0 0 504 432" xmlns="http://www.w3.org/2000/svg" version="1.1">
 <metadata>
  <rdf:RDF xmlns:dc="http://purl.org/dc/elements/1.1/" xmlns:cc="http://creativecommons.org/ns#" xmlns:rdf="http://www.w3.org/1999/02/22-rdf-syntax-ns#">
   <cc:Work>
    <dc:type rdf:resource="http://purl.org/dc/dcmitype/StillImage"/>
    <dc:date>2025-05-08T21:15:44.643571</dc:date>
    <dc:format>image/svg+xml</dc:format>
    <dc:creator>
     <cc:Agent>
      <dc:title>Matplotlib v3.9.3, https://matplotlib.org/</dc:title>
     </cc:Agent>
    </dc:creator>
   </cc:Work>
  </rdf:RDF>
 </metadata>
 <defs>
  <style type="text/css">*{stroke-linejoin: round; stroke-linecap: butt}</style>
 </defs>
 <g id="figure_1">
  <g id="patch_1">
   <path d="M 0 432 
L 504 432 
L 504 0 
L 0 0 
z
" style="fill: #ffffff"/>
  </g>
  <g id="axes_1">
   <g id="LineCollection_1">
    <path d="M 185.71721 189.922638 
L 233.585036 186.796354 
" clip-path="url(#p6c8cc02f3f)" style="fill: none; stroke: #d3d3d3"/>
    <path d="M 185.71721 189.922638 
L 186.636133 167.786952 
" clip-path="url(#p6c8cc02f3f)" style="fill: none; stroke: #d3d3d3"/>
    <path d="M 185.71721 189.922638 
L 140.510532 174.606819 
" clip-path="url(#p6c8cc02f3f)" style="fill: none; stroke: #d3d3d3"/>
    <path d="M 185.71721 189.922638 
L 152.892432 209.661483 
" clip-path="url(#p6c8cc02f3f)" style="fill: none; stroke: #d3d3d3"/>
    <path d="M 233.585036 186.796354 
L 248.698806 223.177265 
" clip-path="url(#p6c8cc02f3f)" style="fill: none; stroke: #d3d3d3"/>
    <path d="M 233.585036 186.796354 
L 218.992406 149.764842 
" clip-path="url(#p6c8cc02f3f)" style="fill: none; stroke: #d3d3d3"/>
    <path d="M 233.585036 186.796354 
L 275.429691 164.069136 
" clip-path="url(#p6c8cc02f3f)" style="fill: none; stroke: #d3d3d3"/>
    <path d="M 186.636133 167.786952 
L 238.970589 160.863234 
" clip-path="url(#p6c8cc02f3f)" style="fill: none; stroke: #d3d3d3"/>
    <path d="M 186.636133 167.786952 
L 146.925233 138.694356 
" clip-path="url(#p6c8cc02f3f)" style="fill: none; stroke: #d3d3d3"/>
    <path d="M 186.636133 167.786952 
L 138.867872 153.673106 
" clip-path="url(#p6c8cc02f3f)" style="fill: none; stroke: #d3d3d3"/>
    <path d="M 140.510532 174.606819 
L 164.877017 149.42121 
" clip-path="url(#p6c8cc02f3f)" style="fill: none; stroke: #d3d3d3"/>
    <path d="M 140.510532 174.606819 
L 90.838723 171.021256 
" clip-path="url(#p6c8cc02f3f)" style="fill: none; stroke: #d3d3d3"/>
    <path d="M 140.510532 174.606819 
L 97.804169 157.109144 
" clip-path="url(#p6c8cc02f3f)" style="fill: none; stroke: #d3d3d3"/>
    <path d="M 152.892432 209.661483 
L 111.860614 227.385025 
" clip-path="url(#p6c8cc02f3f)" style="fill: none; stroke: #d3d3d3"/>
    <path d="M 152.892432 209.661483 
L 132.164002 232.872425 
" clip-path="url(#p6c8cc02f3f)" style="fill: none; stroke: #d3d3d3"/>
    <path d="M 248.698806 223.177265 
L 256.077269 254.636325 
" clip-path="url(#p6c8cc02f3f)" style="fill: none; stroke: #d3d3d3"/>
    <path d="M 248.698806 223.177265 
L 222.07948 250.325779 
" clip-path="url(#p6c8cc02f3f)" style="fill: none; stroke: #d3d3d3"/>
    <path d="M 248.698806 223.177265 
L 293.506636 222.637697 
" clip-path="url(#p6c8cc02f3f)" style="fill: none; stroke: #d3d3d3"/>
    <path d="M 218.992406 149.764842 
L 186.57285 116.987347 
" clip-path="url(#p6c8cc02f3f)" style="fill: none; stroke: #d3d3d3"/>
    <path d="M 218.992406 149.764842 
L 218.653056 113.739 
" clip-path="url(#p6c8cc02f3f)" style="fill: none; stroke: #d3d3d3"/>
    <path d="M 275.429691 164.069136 
L 300.742693 137.93271 
" clip-path="url(#p6c8cc02f3f)" style="fill: none; stroke: #d3d3d3"/>
    <path d="M 275.429691 164.069136 
L 324.718905 141.416701 
" clip-path="url(#p6c8cc02f3f)" style="fill: none; stroke: #d3d3d3"/>
    <path d="M 292.094816 165.757194 
L 238.970589 160.863234 
" clip-path="url(#p6c8cc02f3f)" style="fill: none; stroke: #d3d3d3"/>
    <path d="M 292.094816 165.757194 
L 291.639975 127.168422 
" clip-path="url(#p6c8cc02f3f)" style="fill: none; stroke: #d3d3d3"/>
    <path d="M 292.094816 165.757194 
L 299.809327 194.534002 
" clip-path="url(#p6c8cc02f3f)" style="fill: none; stroke: #d3d3d3"/>
    <path d="M 292.094816 165.757194 
L 342.938439 178.248307 
" clip-path="url(#p6c8cc02f3f)" style="fill: none; stroke: #d3d3d3"/>
    <path d="M 238.970589 160.863234 
L 206.185995 148.829882 
" clip-path="url(#p6c8cc02f3f)" style="fill: none; stroke: #d3d3d3"/>
    <path d="M 238.970589 160.863234 
L 209.324521 133.534519 
" clip-path="url(#p6c8cc02f3f)" style="fill: none; stroke: #d3d3d3"/>
    <path d="M 291.639975 127.168422 
L 310.305778 114.161098 
" clip-path="url(#p6c8cc02f3f)" style="fill: none; stroke: #d3d3d3"/>
    <path d="M 291.639975 127.168422 
L 298.802771 91.816623 
" clip-path="url(#p6c8cc02f3f)" style="fill: none; stroke: #d3d3d3"/>
    <path d="M 299.809327 194.534002 
L 293.506636 222.637697 
" clip-path="url(#p6c8cc02f3f)" style="fill: none; stroke: #d3d3d3"/>
    <path d="M 299.809327 194.534002 
L 345.67918 193.358074 
" clip-path="url(#p6c8cc02f3f)" style="fill: none; stroke: #d3d3d3"/>
    <path d="M 342.938439 178.248307 
L 374.499327 168.184716 
" clip-path="url(#p6c8cc02f3f)" style="fill: none; stroke: #d3d3d3"/>
    <path d="M 342.938439 178.248307 
L 380.857217 182.19951 
" clip-path="url(#p6c8cc02f3f)" style="fill: none; stroke: #d3d3d3"/>
    <path d="M 342.938439 178.248307 
L 371.648766 211.153653 
" clip-path="url(#p6c8cc02f3f)" style="fill: none; stroke: #d3d3d3"/>
    <path d="M 256.077269 254.636325 
L 222.07948 250.325779 
" clip-path="url(#p6c8cc02f3f)" style="fill: none; stroke: #d3d3d3"/>
    <path d="M 256.077269 254.636325 
L 248.614644 282.059113 
" clip-path="url(#p6c8cc02f3f)" style="fill: none; stroke: #d3d3d3"/>
    <path d="M 256.077269 254.636325 
L 290.551324 279.623589 
" clip-path="url(#p6c8cc02f3f)" style="fill: none; stroke: #d3d3d3"/>
    <path d="M 222.07948 250.325779 
L 193.270764 279.511294 
" clip-path="url(#p6c8cc02f3f)" style="fill: none; stroke: #d3d3d3"/>
    <path d="M 293.506636 222.637697 
L 335.00832 226.761412 
" clip-path="url(#p6c8cc02f3f)" style="fill: none; stroke: #d3d3d3"/>
    <path d="M 293.506636 222.637697 
L 336.257504 242.442281 
" clip-path="url(#p6c8cc02f3f)" style="fill: none; stroke: #d3d3d3"/>
    <path d="M 206.185995 148.829882 
L 164.877017 149.42121 
" clip-path="url(#p6c8cc02f3f)" style="fill: none; stroke: #d3d3d3"/>
    <path d="M 206.185995 148.829882 
L 209.324521 133.534519 
" clip-path="url(#p6c8cc02f3f)" style="fill: none; stroke: #d3d3d3"/>
    <path d="M 209.324521 133.534519 
L 164.877017 149.42121 
" clip-path="url(#p6c8cc02f3f)" style="fill: none; stroke: #d3d3d3"/>
    <path d="M 146.925233 138.694356 
L 102.92299 128.088093 
" clip-path="url(#p6c8cc02f3f)" style="fill: none; stroke: #d3d3d3"/>
    <path d="M 146.925233 138.694356 
L 138.867872 153.673106 
" clip-path="url(#p6c8cc02f3f)" style="fill: none; stroke: #d3d3d3"/>
    <path d="M 138.867872 153.673106 
L 102.92299 128.088093 
" clip-path="url(#p6c8cc02f3f)" style="fill: none; stroke: #d3d3d3"/>
    <path d="M 90.838723 171.021256 
L 68.253502 142.76613 
" clip-path="url(#p6c8cc02f3f)" style="fill: none; stroke: #d3d3d3"/>
    <path d="M 90.838723 171.021256 
L 97.804169 157.109144 
" clip-path="url(#p6c8cc02f3f)" style="fill: none; stroke: #d3d3d3"/>
    <path d="M 97.804169 157.109144 
L 68.253502 142.76613 
" clip-path="url(#p6c8cc02f3f)" style="fill: none; stroke: #d3d3d3"/>
    <path d="M 310.305778 114.161098 
L 298.802771 91.816623 
" clip-path="url(#p6c8cc02f3f)" style="fill: none; stroke: #d3d3d3"/>
    <path d="M 310.305778 114.161098 
L 300.742693 137.93271 
" clip-path="url(#p6c8cc02f3f)" style="fill: none; stroke: #d3d3d3"/>
    <path d="M 310.305778 114.161098 
L 324.718905 141.416701 
" clip-path="url(#p6c8cc02f3f)" style="fill: none; stroke: #d3d3d3"/>
    <path d="M 298.802771 91.816623 
L 265.871023 76.424048 
" clip-path="url(#p6c8cc02f3f)" style="fill: none; stroke: #d3d3d3"/>
    <path d="M 298.802771 91.816623 
L 314.252888 60.404553 
" clip-path="url(#p6c8cc02f3f)" style="fill: none; stroke: #d3d3d3"/>
    <path d="M 300.742693 137.93271 
L 342.182111 109.056656 
" clip-path="url(#p6c8cc02f3f)" style="fill: none; stroke: #d3d3d3"/>
    <path d="M 324.718905 141.416701 
L 357.934179 122.843029 
" clip-path="url(#p6c8cc02f3f)" style="fill: none; stroke: #d3d3d3"/>
    <path d="M 324.718905 141.416701 
L 376.915468 131.829403 
" clip-path="url(#p6c8cc02f3f)" style="fill: none; stroke: #d3d3d3"/>
    <path d="M 265.871023 76.424048 
L 226.61255 79.930216 
" clip-path="url(#p6c8cc02f3f)" style="fill: none; stroke: #d3d3d3"/>
    <path d="M 265.871023 76.424048 
L 251.420779 54.620506 
" clip-path="url(#p6c8cc02f3f)" style="fill: none; stroke: #d3d3d3"/>
    <path d="M 314.252888 60.404553 
L 295.605577 40.63119 
" clip-path="url(#p6c8cc02f3f)" style="fill: none; stroke: #d3d3d3"/>
    <path d="M 314.252888 60.404553 
L 275.545942 37.487603 
" clip-path="url(#p6c8cc02f3f)" style="fill: none; stroke: #d3d3d3"/>
    <path d="M 193.270764 279.511294 
L 153.380374 274.037239 
" clip-path="url(#p6c8cc02f3f)" style="fill: none; stroke: #d3d3d3"/>
    <path d="M 193.270764 279.511294 
L 165.240822 307.194641 
" clip-path="url(#p6c8cc02f3f)" style="fill: none; stroke: #d3d3d3"/>
    <path d="M 193.270764 279.511294 
L 222.360865 302.162272 
" clip-path="url(#p6c8cc02f3f)" style="fill: none; stroke: #d3d3d3"/>
    <path d="M 153.380374 274.037239 
L 118.757986 257.717505 
" clip-path="url(#p6c8cc02f3f)" style="fill: none; stroke: #d3d3d3"/>
    <path d="M 153.380374 274.037239 
L 113.425374 284.063609 
" clip-path="url(#p6c8cc02f3f)" style="fill: none; stroke: #d3d3d3"/>
    <path d="M 165.240822 307.194641 
L 122.430256 312.514607 
" clip-path="url(#p6c8cc02f3f)" style="fill: none; stroke: #d3d3d3"/>
    <path d="M 165.240822 307.194641 
L 138.696104 330.781733 
" clip-path="url(#p6c8cc02f3f)" style="fill: none; stroke: #d3d3d3"/>
    <path d="M 222.360865 302.162272 
L 248.614644 282.059113 
" clip-path="url(#p6c8cc02f3f)" style="fill: none; stroke: #d3d3d3"/>
    <path d="M 222.360865 302.162272 
L 256.975478 313.073862 
" clip-path="url(#p6c8cc02f3f)" style="fill: none; stroke: #d3d3d3"/>
    <path d="M 248.614644 282.059113 
L 256.975478 313.073862 
" clip-path="url(#p6c8cc02f3f)" style="fill: none; stroke: #d3d3d3"/>
    <path d="M 290.551324 279.623589 
L 320.176229 308.414964 
" clip-path="url(#p6c8cc02f3f)" style="fill: none; stroke: #d3d3d3"/>
    <path d="M 290.551324 279.623589 
L 289.299131 305.702652 
" clip-path="url(#p6c8cc02f3f)" style="fill: none; stroke: #d3d3d3"/>
    <path d="M 226.61255 79.930216 
L 251.420779 54.620506 
" clip-path="url(#p6c8cc02f3f)" style="fill: none; stroke: #d3d3d3"/>
    <path d="M 226.61255 79.930216 
L 218.653056 113.739 
" clip-path="url(#p6c8cc02f3f)" style="fill: none; stroke: #d3d3d3"/>
    <path d="M 226.61255 79.930216 
L 186.845002 61.784272 
" clip-path="url(#p6c8cc02f3f)" style="fill: none; stroke: #d3d3d3"/>
    <path d="M 251.420779 54.620506 
L 295.605577 40.63119 
" clip-path="url(#p6c8cc02f3f)" style="fill: none; stroke: #d3d3d3"/>
    <path d="M 251.420779 54.620506 
L 275.545942 37.487603 
" clip-path="url(#p6c8cc02f3f)" style="fill: none; stroke: #d3d3d3"/>
    <path d="M 218.653056 113.739 
L 186.57285 116.987347 
" clip-path="url(#p6c8cc02f3f)" style="fill: none; stroke: #d3d3d3"/>
    <path d="M 186.845002 61.784272 
L 176.086374 85.79088 
" clip-path="url(#p6c8cc02f3f)" style="fill: none; stroke: #d3d3d3"/>
    <path d="M 186.845002 61.784272 
L 156.585106 88.9106 
" clip-path="url(#p6c8cc02f3f)" style="fill: none; stroke: #d3d3d3"/>
    <path d="M 295.605577 40.63119 
L 275.545942 37.487603 
" clip-path="url(#p6c8cc02f3f)" style="fill: none; stroke: #d3d3d3"/>
    <path d="M 335.00832 226.761412 
L 371.648766 211.153653 
" clip-path="url(#p6c8cc02f3f)" style="fill: none; stroke: #d3d3d3"/>
    <path d="M 335.00832 226.761412 
L 336.257504 242.442281 
" clip-path="url(#p6c8cc02f3f)" style="fill: none; stroke: #d3d3d3"/>
    <path d="M 336.257504 242.442281 
L 385.207621 246.773664 
" clip-path="url(#p6c8cc02f3f)" style="fill: none; stroke: #d3d3d3"/>
    <path d="M 345.67918 193.358074 
L 374.499327 168.184716 
" clip-path="url(#p6c8cc02f3f)" style="fill: none; stroke: #d3d3d3"/>
    <path d="M 345.67918 193.358074 
L 380.857217 182.19951 
" clip-path="url(#p6c8cc02f3f)" style="fill: none; stroke: #d3d3d3"/>
    <path d="M 374.499327 168.184716 
L 380.857217 182.19951 
" clip-path="url(#p6c8cc02f3f)" style="fill: none; stroke: #d3d3d3"/>
    <path d="M 371.648766 211.153653 
L 412.222129 231.681493 
" clip-path="url(#p6c8cc02f3f)" style="fill: none; stroke: #d3d3d3"/>
    <path d="M 371.648766 211.153653 
L 411.223969 216.631605 
" clip-path="url(#p6c8cc02f3f)" style="fill: none; stroke: #d3d3d3"/>
    <path d="M 102.92299 128.088093 
L 68.253502 142.76613 
" clip-path="url(#p6c8cc02f3f)" style="fill: none; stroke: #d3d3d3"/>
    <path d="M 118.757986 257.717505 
L 113.425374 284.063609 
" clip-path="url(#p6c8cc02f3f)" style="fill: none; stroke: #d3d3d3"/>
    <path d="M 118.757986 257.717505 
L 111.860614 227.385025 
" clip-path="url(#p6c8cc02f3f)" style="fill: none; stroke: #d3d3d3"/>
    <path d="M 118.757986 257.717505 
L 132.164002 232.872425 
" clip-path="url(#p6c8cc02f3f)" style="fill: none; stroke: #d3d3d3"/>
    <path d="M 113.425374 284.063609 
L 122.430256 312.514607 
" clip-path="url(#p6c8cc02f3f)" style="fill: none; stroke: #d3d3d3"/>
    <path d="M 113.425374 284.063609 
L 72.508787 291.589523 
" clip-path="url(#p6c8cc02f3f)" style="fill: none; stroke: #d3d3d3"/>
    <path d="M 111.860614 227.385025 
L 132.164002 232.872425 
" clip-path="url(#p6c8cc02f3f)" style="fill: none; stroke: #d3d3d3"/>
    <path d="M 122.430256 312.514607 
L 119.267611 346.632374 
" clip-path="url(#p6c8cc02f3f)" style="fill: none; stroke: #d3d3d3"/>
    <path d="M 122.430256 312.514607 
L 70.562267 324.586245 
" clip-path="url(#p6c8cc02f3f)" style="fill: none; stroke: #d3d3d3"/>
    <path d="M 72.508787 291.589523 
L 82.166106 313.734476 
" clip-path="url(#p6c8cc02f3f)" style="fill: none; stroke: #d3d3d3"/>
    <path d="M 72.508787 291.589523 
L 98.582446 322.131104 
" clip-path="url(#p6c8cc02f3f)" style="fill: none; stroke: #d3d3d3"/>
    <path d="M 138.696104 330.781733 
L 126.640856 364.510664 
" clip-path="url(#p6c8cc02f3f)" style="fill: none; stroke: #d3d3d3"/>
    <path d="M 138.696104 330.781733 
L 82.166106 313.734476 
" clip-path="url(#p6c8cc02f3f)" style="fill: none; stroke: #d3d3d3"/>
    <path d="M 138.696104 330.781733 
L 98.582446 322.131104 
" clip-path="url(#p6c8cc02f3f)" style="fill: none; stroke: #d3d3d3"/>
    <path d="M 119.267611 346.632374 
L 83.032387 364.545484 
" clip-path="url(#p6c8cc02f3f)" style="fill: none; stroke: #d3d3d3"/>
    <path d="M 119.267611 346.632374 
L 141.523361 377.402101 
" clip-path="url(#p6c8cc02f3f)" style="fill: none; stroke: #d3d3d3"/>
    <path d="M 70.562267 324.586245 
L 43.735537 343.8183 
" clip-path="url(#p6c8cc02f3f)" style="fill: none; stroke: #d3d3d3"/>
    <path d="M 70.562267 324.586245 
L 54.206931 356.826808 
" clip-path="url(#p6c8cc02f3f)" style="fill: none; stroke: #d3d3d3"/>
    <path d="M 126.640856 364.510664 
L 83.032387 364.545484 
" clip-path="url(#p6c8cc02f3f)" style="fill: none; stroke: #d3d3d3"/>
    <path d="M 126.640856 364.510664 
L 116.278313 392.876161 
" clip-path="url(#p6c8cc02f3f)" style="fill: none; stroke: #d3d3d3"/>
    <path d="M 126.640856 364.510664 
L 146.297372 394.512397 
" clip-path="url(#p6c8cc02f3f)" style="fill: none; stroke: #d3d3d3"/>
    <path d="M 82.166106 313.734476 
L 98.582446 322.131104 
" clip-path="url(#p6c8cc02f3f)" style="fill: none; stroke: #d3d3d3"/>
    <path d="M 83.032387 364.545484 
L 43.735537 343.8183 
" clip-path="url(#p6c8cc02f3f)" style="fill: none; stroke: #d3d3d3"/>
    <path d="M 83.032387 364.545484 
L 54.206931 356.826808 
" clip-path="url(#p6c8cc02f3f)" style="fill: none; stroke: #d3d3d3"/>
    <path d="M 116.278313 392.876161 
L 141.523361 377.402101 
" clip-path="url(#p6c8cc02f3f)" style="fill: none; stroke: #d3d3d3"/>
    <path d="M 116.278313 392.876161 
L 146.297372 394.512397 
" clip-path="url(#p6c8cc02f3f)" style="fill: none; stroke: #d3d3d3"/>
    <path d="M 146.297372 394.512397 
L 141.523361 377.402101 
" clip-path="url(#p6c8cc02f3f)" style="fill: none; stroke: #d3d3d3"/>
    <path d="M 43.735537 343.8183 
L 54.206931 356.826808 
" clip-path="url(#p6c8cc02f3f)" style="fill: none; stroke: #d3d3d3"/>
    <path d="M 186.57285 116.987347 
L 176.086374 85.79088 
" clip-path="url(#p6c8cc02f3f)" style="fill: none; stroke: #d3d3d3"/>
    <path d="M 186.57285 116.987347 
L 156.585106 88.9106 
" clip-path="url(#p6c8cc02f3f)" style="fill: none; stroke: #d3d3d3"/>
    <path d="M 176.086374 85.79088 
L 156.585106 88.9106 
" clip-path="url(#p6c8cc02f3f)" style="fill: none; stroke: #d3d3d3"/>
    <path d="M 412.222129 231.681493 
L 385.207621 246.773664 
" clip-path="url(#p6c8cc02f3f)" style="fill: none; stroke: #d3d3d3"/>
    <path d="M 412.222129 231.681493 
L 449.650343 245.956942 
" clip-path="url(#p6c8cc02f3f)" style="fill: none; stroke: #d3d3d3"/>
    <path d="M 412.222129 231.681493 
L 460.264463 231.909468 
" clip-path="url(#p6c8cc02f3f)" style="fill: none; stroke: #d3d3d3"/>
    <path d="M 411.223969 216.631605 
L 385.207621 246.773664 
" clip-path="url(#p6c8cc02f3f)" style="fill: none; stroke: #d3d3d3"/>
    <path d="M 411.223969 216.631605 
L 458.176838 214.909837 
" clip-path="url(#p6c8cc02f3f)" style="fill: none; stroke: #d3d3d3"/>
    <path d="M 256.975478 313.073862 
L 289.299131 305.702652 
" clip-path="url(#p6c8cc02f3f)" style="fill: none; stroke: #d3d3d3"/>
    <path d="M 256.975478 313.073862 
L 283.169023 340.629711 
" clip-path="url(#p6c8cc02f3f)" style="fill: none; stroke: #d3d3d3"/>
    <path d="M 289.299131 305.702652 
L 320.176229 308.414964 
" clip-path="url(#p6c8cc02f3f)" style="fill: none; stroke: #d3d3d3"/>
    <path d="M 283.169023 340.629711 
L 314.508006 342.823599 
" clip-path="url(#p6c8cc02f3f)" style="fill: none; stroke: #d3d3d3"/>
    <path d="M 283.169023 340.629711 
L 331.504404 333.775426 
" clip-path="url(#p6c8cc02f3f)" style="fill: none; stroke: #d3d3d3"/>
    <path d="M 320.176229 308.414964 
L 314.508006 342.823599 
" clip-path="url(#p6c8cc02f3f)" style="fill: none; stroke: #d3d3d3"/>
    <path d="M 320.176229 308.414964 
L 331.504404 333.775426 
" clip-path="url(#p6c8cc02f3f)" style="fill: none; stroke: #d3d3d3"/>
    <path d="M 314.508006 342.823599 
L 331.504404 333.775426 
" clip-path="url(#p6c8cc02f3f)" style="fill: none; stroke: #d3d3d3"/>
    <path d="M 449.650343 245.956942 
L 458.176838 214.909837 
" clip-path="url(#p6c8cc02f3f)" style="fill: none; stroke: #d3d3d3"/>
    <path d="M 449.650343 245.956942 
L 460.264463 231.909468 
" clip-path="url(#p6c8cc02f3f)" style="fill: none; stroke: #d3d3d3"/>
    <path d="M 460.264463 231.909468 
L 458.176838 214.909837 
" clip-path="url(#p6c8cc02f3f)" style="fill: none; stroke: #d3d3d3"/>
    <path d="M 342.182111 109.056656 
L 382.907379 97.057207 
" clip-path="url(#p6c8cc02f3f)" style="fill: none; stroke: #d3d3d3"/>
    <path d="M 342.182111 109.056656 
L 357.934179 122.843029 
" clip-path="url(#p6c8cc02f3f)" style="fill: none; stroke: #d3d3d3"/>
    <path d="M 357.934179 122.843029 
L 382.907379 97.057207 
" clip-path="url(#p6c8cc02f3f)" style="fill: none; stroke: #d3d3d3"/>
    <path d="M 376.915468 131.829403 
L 414.320636 119.248255 
" clip-path="url(#p6c8cc02f3f)" style="fill: none; stroke: #d3d3d3"/>
    <path d="M 376.915468 131.829403 
L 408.498887 102.927445 
" clip-path="url(#p6c8cc02f3f)" style="fill: none; stroke: #d3d3d3"/>
    <path d="M 382.907379 97.057207 
L 414.320636 119.248255 
" clip-path="url(#p6c8cc02f3f)" style="fill: none; stroke: #d3d3d3"/>
    <path d="M 382.907379 97.057207 
L 408.498887 102.927445 
" clip-path="url(#p6c8cc02f3f)" style="fill: none; stroke: #d3d3d3"/>
    <path d="M 414.320636 119.248255 
L 408.498887 102.927445 
" clip-path="url(#p6c8cc02f3f)" style="fill: none; stroke: #d3d3d3"/>
   </g>
   <g id="PathCollection_1">
    <defs>
     <path id="C0_0_437be3bfe6" d="M 0 5 
C 1.326016 5 2.597899 4.473168 3.535534 3.535534 
C 4.473168 2.597899 5 1.326016 5 -0 
C 5 -1.326016 4.473168 -2.597899 3.535534 -3.535534 
C 2.597899 -4.473168 1.326016 -5 0 -5 
C -1.326016 -5 -2.597899 -4.473168 -3.535534 -3.535534 
C -4.473168 -2.597899 -5 -1.326016 -5 0 
C -5 1.326016 -4.473168 2.597899 -3.535534 3.535534 
C -2.597899 4.473168 -1.326016 5 0 5 
z
"/>
    </defs>
    <g clip-path="url(#p6c8cc02f3f)">
     <use xlink:href="#C0_0_437be3bfe6" x="185.71721" y="189.922638" style="fill: #ff0000; stroke: #ff0000"/>
    </g>
    <g clip-path="url(#p6c8cc02f3f)">
     <use xlink:href="#C0_0_437be3bfe6" x="233.585036" y="186.796354" style="fill: #ff0000; stroke: #ff0000"/>
    </g>
    <g clip-path="url(#p6c8cc02f3f)">
     <use xlink:href="#C0_0_437be3bfe6" x="186.636133" y="167.786952" style="fill: #ff0000; stroke: #ff0000"/>
    </g>
    <g clip-path="url(#p6c8cc02f3f)">
     <use xlink:href="#C0_0_437be3bfe6" x="140.510532" y="174.606819" style="fill: #ff0000; stroke: #ff0000"/>
    </g>
    <g clip-path="url(#p6c8cc02f3f)">
     <use xlink:href="#C0_0_437be3bfe6" x="152.892432" y="209.661483" style="fill: #ff0000; stroke: #ff0000"/>
    </g>
    <g clip-path="url(#p6c8cc02f3f)">
     <use xlink:href="#C0_0_437be3bfe6" x="248.698806" y="223.177265" style="fill: #ff0000; stroke: #ff0000"/>
    </g>
    <g clip-path="url(#p6c8cc02f3f)">
     <use xlink:href="#C0_0_437be3bfe6" x="218.992406" y="149.764842" style="fill: #ff0000; stroke: #ff0000"/>
    </g>
    <g clip-path="url(#p6c8cc02f3f)">
     <use xlink:href="#C0_0_437be3bfe6" x="275.429691" y="164.069136" style="fill: #ff0000; stroke: #ff0000"/>
    </g>
    <g clip-path="url(#p6c8cc02f3f)">
     <use xlink:href="#C0_0_437be3bfe6" x="292.094816" y="165.757194" style="fill: #8000ff; stroke: #8000ff"/>
    </g>
    <g clip-path="url(#p6c8cc02f3f)">
     <use xlink:href="#C0_0_437be3bfe6" x="238.970589" y="160.863234" style="fill: #8000ff; stroke: #8000ff"/>
    </g>
    <g clip-path="url(#p6c8cc02f3f)">
     <use xlink:href="#C0_0_437be3bfe6" x="291.639975" y="127.168422" style="fill: #8000ff; stroke: #8000ff"/>
    </g>
    <g clip-path="url(#p6c8cc02f3f)">
     <use xlink:href="#C0_0_437be3bfe6" x="299.809327" y="194.534002" style="fill: #ff0000; stroke: #ff0000"/>
    </g>
    <g clip-path="url(#p6c8cc02f3f)">
     <use xlink:href="#C0_0_437be3bfe6" x="342.938439" y="178.248307" style="fill: #8000ff; stroke: #8000ff"/>
    </g>
    <g clip-path="url(#p6c8cc02f3f)">
     <use xlink:href="#C0_0_437be3bfe6" x="256.077269" y="254.636325" style="fill: #8000ff; stroke: #8000ff"/>
    </g>
    <g clip-path="url(#p6c8cc02f3f)">
     <use xlink:href="#C0_0_437be3bfe6" x="222.07948" y="250.325779" style="fill: #8000ff; stroke: #8000ff"/>
    </g>
    <g clip-path="url(#p6c8cc02f3f)">
     <use xlink:href="#C0_0_437be3bfe6" x="293.506636" y="222.637697" style="fill: #8000ff; stroke: #8000ff"/>
    </g>
    <g clip-path="url(#p6c8cc02f3f)">
     <use xlink:href="#C0_0_437be3bfe6" x="206.185995" y="148.829882" style="fill: #8000ff; stroke: #8000ff"/>
    </g>
    <g clip-path="url(#p6c8cc02f3f)">
     <use xlink:href="#C0_0_437be3bfe6" x="209.324521" y="133.534519" style="fill: #8000ff; stroke: #8000ff"/>
    </g>
    <g clip-path="url(#p6c8cc02f3f)">
     <use xlink:href="#C0_0_437be3bfe6" x="146.925233" y="138.694356" style="fill: #8000ff; stroke: #8000ff"/>
    </g>
    <g clip-path="url(#p6c8cc02f3f)">
     <use xlink:href="#C0_0_437be3bfe6" x="138.867872" y="153.673106" style="fill: #8000ff; stroke: #8000ff"/>
    </g>
    <g clip-path="url(#p6c8cc02f3f)">
     <use xlink:href="#C0_0_437be3bfe6" x="164.877017" y="149.42121" style="fill: #8000ff; stroke: #8000ff"/>
    </g>
    <g clip-path="url(#p6c8cc02f3f)">
     <use xlink:href="#C0_0_437be3bfe6" x="90.838723" y="171.021256" style="fill: #ff0000; stroke: #ff0000"/>
    </g>
    <g clip-path="url(#p6c8cc02f3f)">
     <use xlink:href="#C0_0_437be3bfe6" x="97.804169" y="157.109144" style="fill: #ff0000; stroke: #ff0000"/>
    </g>
    <g clip-path="url(#p6c8cc02f3f)">
     <use xlink:href="#C0_0_437be3bfe6" x="310.305778" y="114.161098" style="fill: #ff0000; stroke: #ff0000"/>
    </g>
    <g clip-path="url(#p6c8cc02f3f)">
     <use xlink:href="#C0_0_437be3bfe6" x="298.802771" y="91.816623" style="fill: #ff0000; stroke: #ff0000"/>
    </g>
    <g clip-path="url(#p6c8cc02f3f)">
     <use xlink:href="#C0_0_437be3bfe6" x="300.742693" y="137.93271" style="fill: #8000ff; stroke: #8000ff"/>
    </g>
    <g clip-path="url(#p6c8cc02f3f)">
     <use xlink:href="#C0_0_437be3bfe6" x="324.718905" y="141.416701" style="fill: #ff0000; stroke: #ff0000"/>
    </g>
    <g clip-path="url(#p6c8cc02f3f)">
     <use xlink:href="#C0_0_437be3bfe6" x="265.871023" y="76.424048" style="fill: #ff0000; stroke: #ff0000"/>
    </g>
    <g clip-path="url(#p6c8cc02f3f)">
     <use xlink:href="#C0_0_437be3bfe6" x="314.252888" y="60.404553" style="fill: #ff0000; stroke: #ff0000"/>
    </g>
    <g clip-path="url(#p6c8cc02f3f)">
     <use xlink:href="#C0_0_437be3bfe6" x="193.270764" y="279.511294" style="fill: #ff0000; stroke: #ff0000"/>
    </g>
    <g clip-path="url(#p6c8cc02f3f)">
     <use xlink:href="#C0_0_437be3bfe6" x="153.380374" y="274.037239" style="fill: #ff0000; stroke: #ff0000"/>
    </g>
    <g clip-path="url(#p6c8cc02f3f)">
     <use xlink:href="#C0_0_437be3bfe6" x="165.240822" y="307.194641" style="fill: #8000ff; stroke: #8000ff"/>
    </g>
    <g clip-path="url(#p6c8cc02f3f)">
     <use xlink:href="#C0_0_437be3bfe6" x="222.360865" y="302.162272" style="fill: #ff0000; stroke: #ff0000"/>
    </g>
    <g clip-path="url(#p6c8cc02f3f)">
     <use xlink:href="#C0_0_437be3bfe6" x="248.614644" y="282.059113" style="fill: #ff0000; stroke: #ff0000"/>
    </g>
    <g clip-path="url(#p6c8cc02f3f)">
     <use xlink:href="#C0_0_437be3bfe6" x="290.551324" y="279.623589" style="fill: #ff0000; stroke: #ff0000"/>
    </g>
    <g clip-path="url(#p6c8cc02f3f)">
     <use xlink:href="#C0_0_437be3bfe6" x="226.61255" y="79.930216" style="fill: #ff0000; stroke: #ff0000"/>
    </g>
    <g clip-path="url(#p6c8cc02f3f)">
     <use xlink:href="#C0_0_437be3bfe6" x="251.420779" y="54.620506" style="fill: #ff0000; stroke: #ff0000"/>
    </g>
    <g clip-path="url(#p6c8cc02f3f)">
     <use xlink:href="#C0_0_437be3bfe6" x="218.653056" y="113.739" style="fill: #ff0000; stroke: #ff0000"/>
    </g>
    <g clip-path="url(#p6c8cc02f3f)">
     <use xlink:href="#C0_0_437be3bfe6" x="186.845002" y="61.784272" style="fill: #ff0000; stroke: #ff0000"/>
    </g>
    <g clip-path="url(#p6c8cc02f3f)">
     <use xlink:href="#C0_0_437be3bfe6" x="295.605577" y="40.63119" style="fill: #8000ff; stroke: #8000ff"/>
    </g>
    <g clip-path="url(#p6c8cc02f3f)">
     <use xlink:href="#C0_0_437be3bfe6" x="275.545942" y="37.487603" style="fill: #ff0000; stroke: #ff0000"/>
    </g>
    <g clip-path="url(#p6c8cc02f3f)">
     <use xlink:href="#C0_0_437be3bfe6" x="335.00832" y="226.761412" style="fill: #8000ff; stroke: #8000ff"/>
    </g>
    <g clip-path="url(#p6c8cc02f3f)">
     <use xlink:href="#C0_0_437be3bfe6" x="336.257504" y="242.442281" style="fill: #8000ff; stroke: #8000ff"/>
    </g>
    <g clip-path="url(#p6c8cc02f3f)">
     <use xlink:href="#C0_0_437be3bfe6" x="345.67918" y="193.358074" style="fill: #8000ff; stroke: #8000ff"/>
    </g>
    <g clip-path="url(#p6c8cc02f3f)">
     <use xlink:href="#C0_0_437be3bfe6" x="374.499327" y="168.184716" style="fill: #ff0000; stroke: #ff0000"/>
    </g>
    <g clip-path="url(#p6c8cc02f3f)">
     <use xlink:href="#C0_0_437be3bfe6" x="380.857217" y="182.19951" style="fill: #ff0000; stroke: #ff0000"/>
    </g>
    <g clip-path="url(#p6c8cc02f3f)">
     <use xlink:href="#C0_0_437be3bfe6" x="371.648766" y="211.153653" style="fill: #8000ff; stroke: #8000ff"/>
    </g>
    <g clip-path="url(#p6c8cc02f3f)">
     <use xlink:href="#C0_0_437be3bfe6" x="102.92299" y="128.088093" style="fill: #8000ff; stroke: #8000ff"/>
    </g>
    <g clip-path="url(#p6c8cc02f3f)">
     <use xlink:href="#C0_0_437be3bfe6" x="68.253502" y="142.76613" style="fill: #8000ff; stroke: #8000ff"/>
    </g>
    <g clip-path="url(#p6c8cc02f3f)">
     <use xlink:href="#C0_0_437be3bfe6" x="118.757986" y="257.717505" style="fill: #8000ff; stroke: #8000ff"/>
    </g>
    <g clip-path="url(#p6c8cc02f3f)">
     <use xlink:href="#C0_0_437be3bfe6" x="113.425374" y="284.063609" style="fill: #8000ff; stroke: #8000ff"/>
    </g>
    <g clip-path="url(#p6c8cc02f3f)">
     <use xlink:href="#C0_0_437be3bfe6" x="111.860614" y="227.385025" style="fill: #8000ff; stroke: #8000ff"/>
    </g>
    <g clip-path="url(#p6c8cc02f3f)">
     <use xlink:href="#C0_0_437be3bfe6" x="132.164002" y="232.872425" style="fill: #ff0000; stroke: #ff0000"/>
    </g>
    <g clip-path="url(#p6c8cc02f3f)">
     <use xlink:href="#C0_0_437be3bfe6" x="122.430256" y="312.514607" style="fill: #8000ff; stroke: #8000ff"/>
    </g>
    <g clip-path="url(#p6c8cc02f3f)">
     <use xlink:href="#C0_0_437be3bfe6" x="72.508787" y="291.589523" style="fill: #8000ff; stroke: #8000ff"/>
    </g>
    <g clip-path="url(#p6c8cc02f3f)">
     <use xlink:href="#C0_0_437be3bfe6" x="138.696104" y="330.781733" style="fill: #ff0000; stroke: #ff0000"/>
    </g>
    <g clip-path="url(#p6c8cc02f3f)">
     <use xlink:href="#C0_0_437be3bfe6" x="119.267611" y="346.632374" style="fill: #ff0000; stroke: #ff0000"/>
    </g>
    <g clip-path="url(#p6c8cc02f3f)">
     <use xlink:href="#C0_0_437be3bfe6" x="70.562267" y="324.586245" style="fill: #ff0000; stroke: #ff0000"/>
    </g>
    <g clip-path="url(#p6c8cc02f3f)">
     <use xlink:href="#C0_0_437be3bfe6" x="126.640856" y="364.510664" style="fill: #ff0000; stroke: #ff0000"/>
    </g>
    <g clip-path="url(#p6c8cc02f3f)">
     <use xlink:href="#C0_0_437be3bfe6" x="82.166106" y="313.734476" style="fill: #8000ff; stroke: #8000ff"/>
    </g>
    <g clip-path="url(#p6c8cc02f3f)">
     <use xlink:href="#C0_0_437be3bfe6" x="98.582446" y="322.131104" style="fill: #8000ff; stroke: #8000ff"/>
    </g>
    <g clip-path="url(#p6c8cc02f3f)">
     <use xlink:href="#C0_0_437be3bfe6" x="83.032387" y="364.545484" style="fill: #ff0000; stroke: #ff0000"/>
    </g>
    <g clip-path="url(#p6c8cc02f3f)">
     <use xlink:href="#C0_0_437be3bfe6" x="116.278313" y="392.876161" style="fill: #ff0000; stroke: #ff0000"/>
    </g>
    <g clip-path="url(#p6c8cc02f3f)">
     <use xlink:href="#C0_0_437be3bfe6" x="146.297372" y="394.512397" style="fill: #ff0000; stroke: #ff0000"/>
    </g>
    <g clip-path="url(#p6c8cc02f3f)">
     <use xlink:href="#C0_0_437be3bfe6" x="43.735537" y="343.8183" style="fill: #ff0000; stroke: #ff0000"/>
    </g>
    <g clip-path="url(#p6c8cc02f3f)">
     <use xlink:href="#C0_0_437be3bfe6" x="54.206931" y="356.826808" style="fill: #ff0000; stroke: #ff0000"/>
    </g>
    <g clip-path="url(#p6c8cc02f3f)">
     <use xlink:href="#C0_0_437be3bfe6" x="141.523361" y="377.402101" style="fill: #ff0000; stroke: #ff0000"/>
    </g>
    <g clip-path="url(#p6c8cc02f3f)">
     <use xlink:href="#C0_0_437be3bfe6" x="186.57285" y="116.987347" style="fill: #8000ff; stroke: #8000ff"/>
    </g>
    <g clip-path="url(#p6c8cc02f3f)">
     <use xlink:href="#C0_0_437be3bfe6" x="176.086374" y="85.79088" style="fill: #8000ff; stroke: #8000ff"/>
    </g>
    <g clip-path="url(#p6c8cc02f3f)">
     <use xlink:href="#C0_0_437be3bfe6" x="156.585106" y="88.9106" style="fill: #8000ff; stroke: #8000ff"/>
    </g>
    <g clip-path="url(#p6c8cc02f3f)">
     <use xlink:href="#C0_0_437be3bfe6" x="412.222129" y="231.681493" style="fill: #ff0000; stroke: #ff0000"/>
    </g>
    <g clip-path="url(#p6c8cc02f3f)">
     <use xlink:href="#C0_0_437be3bfe6" x="411.223969" y="216.631605" style="fill: #ff0000; stroke: #ff0000"/>
    </g>
    <g clip-path="url(#p6c8cc02f3f)">
     <use xlink:href="#C0_0_437be3bfe6" x="385.207621" y="246.773664" style="fill: #ff0000; stroke: #ff0000"/>
    </g>
    <g clip-path="url(#p6c8cc02f3f)">
     <use xlink:href="#C0_0_437be3bfe6" x="256.975478" y="313.073862" style="fill: #ff0000; stroke: #ff0000"/>
    </g>
    <g clip-path="url(#p6c8cc02f3f)">
     <use xlink:href="#C0_0_437be3bfe6" x="289.299131" y="305.702652" style="fill: #8000ff; stroke: #8000ff"/>
    </g>
    <g clip-path="url(#p6c8cc02f3f)">
     <use xlink:href="#C0_0_437be3bfe6" x="283.169023" y="340.629711" style="fill: #8000ff; stroke: #8000ff"/>
    </g>
    <g clip-path="url(#p6c8cc02f3f)">
     <use xlink:href="#C0_0_437be3bfe6" x="320.176229" y="308.414964" style="fill: #ff0000; stroke: #ff0000"/>
    </g>
    <g clip-path="url(#p6c8cc02f3f)">
     <use xlink:href="#C0_0_437be3bfe6" x="314.508006" y="342.823599" style="fill: #ff0000; stroke: #ff0000"/>
    </g>
    <g clip-path="url(#p6c8cc02f3f)">
     <use xlink:href="#C0_0_437be3bfe6" x="331.504404" y="333.775426" style="fill: #ff0000; stroke: #ff0000"/>
    </g>
    <g clip-path="url(#p6c8cc02f3f)">
     <use xlink:href="#C0_0_437be3bfe6" x="449.650343" y="245.956942" style="fill: #ff0000; stroke: #ff0000"/>
    </g>
    <g clip-path="url(#p6c8cc02f3f)">
     <use xlink:href="#C0_0_437be3bfe6" x="460.264463" y="231.909468" style="fill: #ff0000; stroke: #ff0000"/>
    </g>
    <g clip-path="url(#p6c8cc02f3f)">
     <use xlink:href="#C0_0_437be3bfe6" x="458.176838" y="214.909837" style="fill: #ff0000; stroke: #ff0000"/>
    </g>
    <g clip-path="url(#p6c8cc02f3f)">
     <use xlink:href="#C0_0_437be3bfe6" x="342.182111" y="109.056656" style="fill: #ff0000; stroke: #ff0000"/>
    </g>
    <g clip-path="url(#p6c8cc02f3f)">
     <use xlink:href="#C0_0_437be3bfe6" x="357.934179" y="122.843029" style="fill: #ff0000; stroke: #ff0000"/>
    </g>
    <g clip-path="url(#p6c8cc02f3f)">
     <use xlink:href="#C0_0_437be3bfe6" x="376.915468" y="131.829403" style="fill: #ff0000; stroke: #ff0000"/>
    </g>
    <g clip-path="url(#p6c8cc02f3f)">
     <use xlink:href="#C0_0_437be3bfe6" x="382.907379" y="97.057207" style="fill: #ff0000; stroke: #ff0000"/>
    </g>
    <g clip-path="url(#p6c8cc02f3f)">
     <use xlink:href="#C0_0_437be3bfe6" x="414.320636" y="119.248255" style="fill: #ff0000; stroke: #ff0000"/>
    </g>
    <g clip-path="url(#p6c8cc02f3f)">
     <use xlink:href="#C0_0_437be3bfe6" x="408.498887" y="102.927445" style="fill: #ff0000; stroke: #ff0000"/>
    </g>
   </g>
   <g id="text_1">
    <!-- Colored Graph - mug88_1.col -->
    <g transform="translate(164.226562 -6) scale(0.12 -0.12)">
     <defs>
      <path id="DejaVuSans-43" d="M 4122 4306 
L 4122 3641 
Q 3803 3938 3442 4084 
Q 3081 4231 2675 4231 
Q 1875 4231 1450 3742 
Q 1025 3253 1025 2328 
Q 1025 1406 1450 917 
Q 1875 428 2675 428 
Q 3081 428 3442 575 
Q 3803 722 4122 1019 
L 4122 359 
Q 3791 134 3420 21 
Q 3050 -91 2638 -91 
Q 1578 -91 968 557 
Q 359 1206 359 2328 
Q 359 3453 968 4101 
Q 1578 4750 2638 4750 
Q 3056 4750 3426 4639 
Q 3797 4528 4122 4306 
z
" transform="scale(0.015625)"/>
      <path id="DejaVuSans-6f" d="M 1959 3097 
Q 1497 3097 1228 2736 
Q 959 2375 959 1747 
Q 959 1119 1226 758 
Q 1494 397 1959 397 
Q 2419 397 2687 759 
Q 2956 1122 2956 1747 
Q 2956 2369 2687 2733 
Q 2419 3097 1959 3097 
z
M 1959 3584 
Q 2709 3584 3137 3096 
Q 3566 2609 3566 1747 
Q 3566 888 3137 398 
Q 2709 -91 1959 -91 
Q 1206 -91 779 398 
Q 353 888 353 1747 
Q 353 2609 779 3096 
Q 1206 3584 1959 3584 
z
" transform="scale(0.015625)"/>
      <path id="DejaVuSans-6c" d="M 603 4863 
L 1178 4863 
L 1178 0 
L 603 0 
L 603 4863 
z
" transform="scale(0.015625)"/>
      <path id="DejaVuSans-72" d="M 2631 2963 
Q 2534 3019 2420 3045 
Q 2306 3072 2169 3072 
Q 1681 3072 1420 2755 
Q 1159 2438 1159 1844 
L 1159 0 
L 581 0 
L 581 3500 
L 1159 3500 
L 1159 2956 
Q 1341 3275 1631 3429 
Q 1922 3584 2338 3584 
Q 2397 3584 2469 3576 
Q 2541 3569 2628 3553 
L 2631 2963 
z
" transform="scale(0.015625)"/>
      <path id="DejaVuSans-65" d="M 3597 1894 
L 3597 1613 
L 953 1613 
Q 991 1019 1311 708 
Q 1631 397 2203 397 
Q 2534 397 2845 478 
Q 3156 559 3463 722 
L 3463 178 
Q 3153 47 2828 -22 
Q 2503 -91 2169 -91 
Q 1331 -91 842 396 
Q 353 884 353 1716 
Q 353 2575 817 3079 
Q 1281 3584 2069 3584 
Q 2775 3584 3186 3129 
Q 3597 2675 3597 1894 
z
M 3022 2063 
Q 3016 2534 2758 2815 
Q 2500 3097 2075 3097 
Q 1594 3097 1305 2825 
Q 1016 2553 972 2059 
L 3022 2063 
z
" transform="scale(0.015625)"/>
      <path id="DejaVuSans-64" d="M 2906 2969 
L 2906 4863 
L 3481 4863 
L 3481 0 
L 2906 0 
L 2906 525 
Q 2725 213 2448 61 
Q 2172 -91 1784 -91 
Q 1150 -91 751 415 
Q 353 922 353 1747 
Q 353 2572 751 3078 
Q 1150 3584 1784 3584 
Q 2172 3584 2448 3432 
Q 2725 3281 2906 2969 
z
M 947 1747 
Q 947 1113 1208 752 
Q 1469 391 1925 391 
Q 2381 391 2643 752 
Q 2906 1113 2906 1747 
Q 2906 2381 2643 2742 
Q 2381 3103 1925 3103 
Q 1469 3103 1208 2742 
Q 947 2381 947 1747 
z
" transform="scale(0.015625)"/>
      <path id="DejaVuSans-20" transform="scale(0.015625)"/>
      <path id="DejaVuSans-47" d="M 3809 666 
L 3809 1919 
L 2778 1919 
L 2778 2438 
L 4434 2438 
L 4434 434 
Q 4069 175 3628 42 
Q 3188 -91 2688 -91 
Q 1594 -91 976 548 
Q 359 1188 359 2328 
Q 359 3472 976 4111 
Q 1594 4750 2688 4750 
Q 3144 4750 3555 4637 
Q 3966 4525 4313 4306 
L 4313 3634 
Q 3963 3931 3569 4081 
Q 3175 4231 2741 4231 
Q 1884 4231 1454 3753 
Q 1025 3275 1025 2328 
Q 1025 1384 1454 906 
Q 1884 428 2741 428 
Q 3075 428 3337 486 
Q 3600 544 3809 666 
z
" transform="scale(0.015625)"/>
      <path id="DejaVuSans-61" d="M 2194 1759 
Q 1497 1759 1228 1600 
Q 959 1441 959 1056 
Q 959 750 1161 570 
Q 1363 391 1709 391 
Q 2188 391 2477 730 
Q 2766 1069 2766 1631 
L 2766 1759 
L 2194 1759 
z
M 3341 1997 
L 3341 0 
L 2766 0 
L 2766 531 
Q 2569 213 2275 61 
Q 1981 -91 1556 -91 
Q 1019 -91 701 211 
Q 384 513 384 1019 
Q 384 1609 779 1909 
Q 1175 2209 1959 2209 
L 2766 2209 
L 2766 2266 
Q 2766 2663 2505 2880 
Q 2244 3097 1772 3097 
Q 1472 3097 1187 3025 
Q 903 2953 641 2809 
L 641 3341 
Q 956 3463 1253 3523 
Q 1550 3584 1831 3584 
Q 2591 3584 2966 3190 
Q 3341 2797 3341 1997 
z
" transform="scale(0.015625)"/>
      <path id="DejaVuSans-70" d="M 1159 525 
L 1159 -1331 
L 581 -1331 
L 581 3500 
L 1159 3500 
L 1159 2969 
Q 1341 3281 1617 3432 
Q 1894 3584 2278 3584 
Q 2916 3584 3314 3078 
Q 3713 2572 3713 1747 
Q 3713 922 3314 415 
Q 2916 -91 2278 -91 
Q 1894 -91 1617 61 
Q 1341 213 1159 525 
z
M 3116 1747 
Q 3116 2381 2855 2742 
Q 2594 3103 2138 3103 
Q 1681 3103 1420 2742 
Q 1159 2381 1159 1747 
Q 1159 1113 1420 752 
Q 1681 391 2138 391 
Q 2594 391 2855 752 
Q 3116 1113 3116 1747 
z
" transform="scale(0.015625)"/>
      <path id="DejaVuSans-68" d="M 3513 2113 
L 3513 0 
L 2938 0 
L 2938 2094 
Q 2938 2591 2744 2837 
Q 2550 3084 2163 3084 
Q 1697 3084 1428 2787 
Q 1159 2491 1159 1978 
L 1159 0 
L 581 0 
L 581 4863 
L 1159 4863 
L 1159 2956 
Q 1366 3272 1645 3428 
Q 1925 3584 2291 3584 
Q 2894 3584 3203 3211 
Q 3513 2838 3513 2113 
z
" transform="scale(0.015625)"/>
      <path id="DejaVuSans-2d" d="M 313 2009 
L 1997 2009 
L 1997 1497 
L 313 1497 
L 313 2009 
z
" transform="scale(0.015625)"/>
      <path id="DejaVuSans-6d" d="M 3328 2828 
Q 3544 3216 3844 3400 
Q 4144 3584 4550 3584 
Q 5097 3584 5394 3201 
Q 5691 2819 5691 2113 
L 5691 0 
L 5113 0 
L 5113 2094 
Q 5113 2597 4934 2840 
Q 4756 3084 4391 3084 
Q 3944 3084 3684 2787 
Q 3425 2491 3425 1978 
L 3425 0 
L 2847 0 
L 2847 2094 
Q 2847 2600 2669 2842 
Q 2491 3084 2119 3084 
Q 1678 3084 1418 2786 
Q 1159 2488 1159 1978 
L 1159 0 
L 581 0 
L 581 3500 
L 1159 3500 
L 1159 2956 
Q 1356 3278 1631 3431 
Q 1906 3584 2284 3584 
Q 2666 3584 2933 3390 
Q 3200 3197 3328 2828 
z
" transform="scale(0.015625)"/>
      <path id="DejaVuSans-75" d="M 544 1381 
L 544 3500 
L 1119 3500 
L 1119 1403 
Q 1119 906 1312 657 
Q 1506 409 1894 409 
Q 2359 409 2629 706 
Q 2900 1003 2900 1516 
L 2900 3500 
L 3475 3500 
L 3475 0 
L 2900 0 
L 2900 538 
Q 2691 219 2414 64 
Q 2138 -91 1772 -91 
Q 1169 -91 856 284 
Q 544 659 544 1381 
z
M 1991 3584 
L 1991 3584 
z
" transform="scale(0.015625)"/>
      <path id="DejaVuSans-67" d="M 2906 1791 
Q 2906 2416 2648 2759 
Q 2391 3103 1925 3103 
Q 1463 3103 1205 2759 
Q 947 2416 947 1791 
Q 947 1169 1205 825 
Q 1463 481 1925 481 
Q 2391 481 2648 825 
Q 2906 1169 2906 1791 
z
M 3481 434 
Q 3481 -459 3084 -895 
Q 2688 -1331 1869 -1331 
Q 1566 -1331 1297 -1286 
Q 1028 -1241 775 -1147 
L 775 -588 
Q 1028 -725 1275 -790 
Q 1522 -856 1778 -856 
Q 2344 -856 2625 -561 
Q 2906 -266 2906 331 
L 2906 616 
Q 2728 306 2450 153 
Q 2172 0 1784 0 
Q 1141 0 747 490 
Q 353 981 353 1791 
Q 353 2603 747 3093 
Q 1141 3584 1784 3584 
Q 2172 3584 2450 3431 
Q 2728 3278 2906 2969 
L 2906 3500 
L 3481 3500 
L 3481 434 
z
" transform="scale(0.015625)"/>
      <path id="DejaVuSans-38" d="M 2034 2216 
Q 1584 2216 1326 1975 
Q 1069 1734 1069 1313 
Q 1069 891 1326 650 
Q 1584 409 2034 409 
Q 2484 409 2743 651 
Q 3003 894 3003 1313 
Q 3003 1734 2745 1975 
Q 2488 2216 2034 2216 
z
M 1403 2484 
Q 997 2584 770 2862 
Q 544 3141 544 3541 
Q 544 4100 942 4425 
Q 1341 4750 2034 4750 
Q 2731 4750 3128 4425 
Q 3525 4100 3525 3541 
Q 3525 3141 3298 2862 
Q 3072 2584 2669 2484 
Q 3125 2378 3379 2068 
Q 3634 1759 3634 1313 
Q 3634 634 3220 271 
Q 2806 -91 2034 -91 
Q 1263 -91 848 271 
Q 434 634 434 1313 
Q 434 1759 690 2068 
Q 947 2378 1403 2484 
z
M 1172 3481 
Q 1172 3119 1398 2916 
Q 1625 2713 2034 2713 
Q 2441 2713 2670 2916 
Q 2900 3119 2900 3481 
Q 2900 3844 2670 4047 
Q 2441 4250 2034 4250 
Q 1625 4250 1398 4047 
Q 1172 3844 1172 3481 
z
" transform="scale(0.015625)"/>
      <path id="DejaVuSans-5f" d="M 3263 -1063 
L 3263 -1509 
L -63 -1509 
L -63 -1063 
L 3263 -1063 
z
" transform="scale(0.015625)"/>
      <path id="DejaVuSans-31" d="M 794 531 
L 1825 531 
L 1825 4091 
L 703 3866 
L 703 4441 
L 1819 4666 
L 2450 4666 
L 2450 531 
L 3481 531 
L 3481 0 
L 794 0 
L 794 531 
z
" transform="scale(0.015625)"/>
      <path id="DejaVuSans-2e" d="M 684 794 
L 1344 794 
L 1344 0 
L 684 0 
L 684 794 
z
" transform="scale(0.015625)"/>
      <path id="DejaVuSans-63" d="M 3122 3366 
L 3122 2828 
Q 2878 2963 2633 3030 
Q 2388 3097 2138 3097 
Q 1578 3097 1268 2742 
Q 959 2388 959 1747 
Q 959 1106 1268 751 
Q 1578 397 2138 397 
Q 2388 397 2633 464 
Q 2878 531 3122 666 
L 3122 134 
Q 2881 22 2623 -34 
Q 2366 -91 2075 -91 
Q 1284 -91 818 406 
Q 353 903 353 1747 
Q 353 2603 823 3093 
Q 1294 3584 2113 3584 
Q 2378 3584 2631 3529 
Q 2884 3475 3122 3366 
z
" transform="scale(0.015625)"/>
     </defs>
     <use xlink:href="#DejaVuSans-43"/>
     <use xlink:href="#DejaVuSans-6f" x="69.824219"/>
     <use xlink:href="#DejaVuSans-6c" x="131.005859"/>
     <use xlink:href="#DejaVuSans-6f" x="158.789062"/>
     <use xlink:href="#DejaVuSans-72" x="219.970703"/>
     <use xlink:href="#DejaVuSans-65" x="258.833984"/>
     <use xlink:href="#DejaVuSans-64" x="320.357422"/>
     <use xlink:href="#DejaVuSans-20" x="383.833984"/>
     <use xlink:href="#DejaVuSans-47" x="415.621094"/>
     <use xlink:href="#DejaVuSans-72" x="493.111328"/>
     <use xlink:href="#DejaVuSans-61" x="534.224609"/>
     <use xlink:href="#DejaVuSans-70" x="595.503906"/>
     <use xlink:href="#DejaVuSans-68" x="658.980469"/>
     <use xlink:href="#DejaVuSans-20" x="722.359375"/>
     <use xlink:href="#DejaVuSans-2d" x="754.146484"/>
     <use xlink:href="#DejaVuSans-20" x="790.230469"/>
     <use xlink:href="#DejaVuSans-6d" x="822.017578"/>
     <use xlink:href="#DejaVuSans-75" x="919.429688"/>
     <use xlink:href="#DejaVuSans-67" x="982.808594"/>
     <use xlink:href="#DejaVuSans-38" x="1046.285156"/>
     <use xlink:href="#DejaVuSans-38" x="1109.908203"/>
     <use xlink:href="#DejaVuSans-5f" x="1173.53125"/>
     <use xlink:href="#DejaVuSans-31" x="1223.53125"/>
     <use xlink:href="#DejaVuSans-2e" x="1287.154297"/>
     <use xlink:href="#DejaVuSans-63" x="1318.941406"/>
     <use xlink:href="#DejaVuSans-6f" x="1373.921875"/>
     <use xlink:href="#DejaVuSans-6c" x="1435.103516"/>
    </g>
   </g>
   <g id="legend_1">
    <g id="patch_2">
     <path d="M 536.2 52.034375 
L 603.85 52.034375 
Q 605.85 52.034375 605.85 50.034375 
L 605.85 7 
Q 605.85 5 603.85 5 
L 536.2 5 
Q 534.2 5 534.2 7 
L 534.2 50.034375 
Q 534.2 52.034375 536.2 52.034375 
z
" style="fill: #ffffff; opacity: 0.8; stroke: #cccccc; stroke-linejoin: miter"/>
    </g>
    <g id="text_2">
     <!-- Clase GNN -->
     <g transform="translate(543.454688 16.598437) scale(0.1 -0.1)">
      <defs>
       <path id="DejaVuSans-73" d="M 2834 3397 
L 2834 2853 
Q 2591 2978 2328 3040 
Q 2066 3103 1784 3103 
Q 1356 3103 1142 2972 
Q 928 2841 928 2578 
Q 928 2378 1081 2264 
Q 1234 2150 1697 2047 
L 1894 2003 
Q 2506 1872 2764 1633 
Q 3022 1394 3022 966 
Q 3022 478 2636 193 
Q 2250 -91 1575 -91 
Q 1294 -91 989 -36 
Q 684 19 347 128 
L 347 722 
Q 666 556 975 473 
Q 1284 391 1588 391 
Q 1994 391 2212 530 
Q 2431 669 2431 922 
Q 2431 1156 2273 1281 
Q 2116 1406 1581 1522 
L 1381 1569 
Q 847 1681 609 1914 
Q 372 2147 372 2553 
Q 372 3047 722 3315 
Q 1072 3584 1716 3584 
Q 2034 3584 2315 3537 
Q 2597 3491 2834 3397 
z
" transform="scale(0.015625)"/>
       <path id="DejaVuSans-4e" d="M 628 4666 
L 1478 4666 
L 3547 763 
L 3547 4666 
L 4159 4666 
L 4159 0 
L 3309 0 
L 1241 3903 
L 1241 0 
L 628 0 
L 628 4666 
z
" transform="scale(0.015625)"/>
      </defs>
      <use xlink:href="#DejaVuSans-43"/>
      <use xlink:href="#DejaVuSans-6c" x="69.824219"/>
      <use xlink:href="#DejaVuSans-61" x="97.607422"/>
      <use xlink:href="#DejaVuSans-73" x="158.886719"/>
      <use xlink:href="#DejaVuSans-65" x="210.986328"/>
      <use xlink:href="#DejaVuSans-20" x="272.509766"/>
      <use xlink:href="#DejaVuSans-47" x="304.296875"/>
      <use xlink:href="#DejaVuSans-4e" x="381.787109"/>
      <use xlink:href="#DejaVuSans-4e" x="456.591797"/>
     </g>
    </g>
    <g id="patch_3">
     <path d="M 538.2 31.276563 
L 558.2 31.276563 
L 558.2 24.276563 
L 538.2 24.276563 
z
" style="fill: #8000ff; stroke: #8000ff; stroke-linejoin: miter"/>
    </g>
    <g id="text_3">
     <!-- Color 0 -->
     <g transform="translate(566.2 31.276563) scale(0.1 -0.1)">
      <defs>
       <path id="DejaVuSans-30" d="M 2034 4250 
Q 1547 4250 1301 3770 
Q 1056 3291 1056 2328 
Q 1056 1369 1301 889 
Q 1547 409 2034 409 
Q 2525 409 2770 889 
Q 3016 1369 3016 2328 
Q 3016 3291 2770 3770 
Q 2525 4250 2034 4250 
z
M 2034 4750 
Q 2819 4750 3233 4129 
Q 3647 3509 3647 2328 
Q 3647 1150 3233 529 
Q 2819 -91 2034 -91 
Q 1250 -91 836 529 
Q 422 1150 422 2328 
Q 422 3509 836 4129 
Q 1250 4750 2034 4750 
z
" transform="scale(0.015625)"/>
      </defs>
      <use xlink:href="#DejaVuSans-43"/>
      <use xlink:href="#DejaVuSans-6f" x="69.824219"/>
      <use xlink:href="#DejaVuSans-6c" x="131.005859"/>
      <use xlink:href="#DejaVuSans-6f" x="158.789062"/>
      <use xlink:href="#DejaVuSans-72" x="219.970703"/>
      <use xlink:href="#DejaVuSans-20" x="261.083984"/>
      <use xlink:href="#DejaVuSans-30" x="292.871094"/>
     </g>
    </g>
    <g id="patch_4">
     <path d="M 538.2 45.954688 
L 558.2 45.954688 
L 558.2 38.954688 
L 538.2 38.954688 
z
" style="fill: #ff0000; stroke: #ff0000; stroke-linejoin: miter"/>
    </g>
    <g id="text_4">
     <!-- Color 2 -->
     <g transform="translate(566.2 45.954688) scale(0.1 -0.1)">
      <defs>
       <path id="DejaVuSans-32" d="M 1228 531 
L 3431 531 
L 3431 0 
L 469 0 
L 469 531 
Q 828 903 1448 1529 
Q 2069 2156 2228 2338 
Q 2531 2678 2651 2914 
Q 2772 3150 2772 3378 
Q 2772 3750 2511 3984 
Q 2250 4219 1831 4219 
Q 1534 4219 1204 4116 
Q 875 4013 500 3803 
L 500 4441 
Q 881 4594 1212 4672 
Q 1544 4750 1819 4750 
Q 2544 4750 2975 4387 
Q 3406 4025 3406 3419 
Q 3406 3131 3298 2873 
Q 3191 2616 2906 2266 
Q 2828 2175 2409 1742 
Q 1991 1309 1228 531 
z
" transform="scale(0.015625)"/>
      </defs>
      <use xlink:href="#DejaVuSans-43"/>
      <use xlink:href="#DejaVuSans-6f" x="69.824219"/>
      <use xlink:href="#DejaVuSans-6c" x="131.005859"/>
      <use xlink:href="#DejaVuSans-6f" x="158.789062"/>
      <use xlink:href="#DejaVuSans-72" x="219.970703"/>
      <use xlink:href="#DejaVuSans-20" x="261.083984"/>
      <use xlink:href="#DejaVuSans-32" x="292.871094"/>
     </g>
    </g>
   </g>
  </g>
 </g>
 <defs>
  <clipPath id="p6c8cc02f3f">
   <rect x="0" y="0" width="504" height="432"/>
  </clipPath>
 </defs>
</svg>
