<?xml version="1.0" encoding="utf-8" standalone="no"?>
<!DOCTYPE svg PUBLIC "-//W3C//DTD SVG 1.1//EN"
  "http://www.w3.org/Graphics/SVG/1.1/DTD/svg11.dtd">
<svg xmlns:xlink="http://www.w3.org/1999/xlink" width="504pt" height="432pt" viewBox="0 0 504 432" xmlns="http://www.w3.org/2000/svg" version="1.1">
 <metadata>
  <rdf:RDF xmlns:dc="http://purl.org/dc/elements/1.1/" xmlns:cc="http://creativecommons.org/ns#" xmlns:rdf="http://www.w3.org/1999/02/22-rdf-syntax-ns#">
   <cc:Work>
    <dc:type rdf:resource="http://purl.org/dc/dcmitype/StillImage"/>
    <dc:date>2025-06-04T22:28:54.023049</dc:date>
    <dc:format>image/svg+xml</dc:format>
    <dc:creator>
     <cc:Agent>
      <dc:title>Matplotlib v3.10.1, https://matplotlib.org/</dc:title>
     </cc:Agent>
    </dc:creator>
   </cc:Work>
  </rdf:RDF>
 </metadata>
 <defs>
  <style type="text/css">*{stroke-linejoin: round; stroke-linecap: butt}</style>
 </defs>
 <g id="figure_1">
  <g id="patch_1">
   <path d="M 0 432 
L 504 432 
L 504 0 
L 0 0 
z
" style="fill: #ffffff"/>
  </g>
  <g id="axes_1">
   <g id="LineCollection_1">
    <path d="M 371.984928 76.596162 
L 302.280704 110.136273 
" clip-path="url(#p72109524c4)" style="fill: none; stroke: #d3d3d3"/>
    <path d="M 274.4855 126.635685 
L 235.552243 184.300886 
" clip-path="url(#p72109524c4)" style="fill: none; stroke: #d3d3d3"/>
    <path d="M 274.4855 126.635685 
L 309.947764 142.894313 
" clip-path="url(#p72109524c4)" style="fill: none; stroke: #d3d3d3"/>
    <path d="M 274.4855 126.635685 
L 302.280704 110.136273 
" clip-path="url(#p72109524c4)" style="fill: none; stroke: #d3d3d3"/>
    <path d="M 134.31598 191.142036 
L 76.370947 121.437783 
" clip-path="url(#p72109524c4)" style="fill: none; stroke: #d3d3d3"/>
    <path d="M 134.31598 191.142036 
L 149.174008 157.699205 
" clip-path="url(#p72109524c4)" style="fill: none; stroke: #d3d3d3"/>
    <path d="M 134.31598 191.142036 
L 235.552243 184.300886 
" clip-path="url(#p72109524c4)" style="fill: none; stroke: #d3d3d3"/>
    <path d="M 134.31598 191.142036 
L 216.675812 201.840249 
" clip-path="url(#p72109524c4)" style="fill: none; stroke: #d3d3d3"/>
    <path d="M 134.31598 191.142036 
L 175.667021 150.832591 
" clip-path="url(#p72109524c4)" style="fill: none; stroke: #d3d3d3"/>
    <path d="M 134.31598 191.142036 
L 150.902413 142.728369 
" clip-path="url(#p72109524c4)" style="fill: none; stroke: #d3d3d3"/>
    <path d="M 134.31598 191.142036 
L 203.076797 243.326763 
" clip-path="url(#p72109524c4)" style="fill: none; stroke: #d3d3d3"/>
    <path d="M 134.31598 191.142036 
L 174.187056 229.824027 
" clip-path="url(#p72109524c4)" style="fill: none; stroke: #d3d3d3"/>
    <path d="M 134.31598 191.142036 
L 43.735537 202.739106 
" clip-path="url(#p72109524c4)" style="fill: none; stroke: #d3d3d3"/>
    <path d="M 134.31598 191.142036 
L 51.258267 181.379666 
" clip-path="url(#p72109524c4)" style="fill: none; stroke: #d3d3d3"/>
    <path d="M 134.31598 191.142036 
L 48.474984 224.847077 
" clip-path="url(#p72109524c4)" style="fill: none; stroke: #d3d3d3"/>
    <path d="M 134.31598 191.142036 
L 71.331808 205.503248 
" clip-path="url(#p72109524c4)" style="fill: none; stroke: #d3d3d3"/>
    <path d="M 134.31598 191.142036 
L 71.929976 172.825206 
" clip-path="url(#p72109524c4)" style="fill: none; stroke: #d3d3d3"/>
    <path d="M 134.31598 191.142036 
L 62.808102 238.45527 
" clip-path="url(#p72109524c4)" style="fill: none; stroke: #d3d3d3"/>
    <path d="M 134.31598 191.142036 
L 111.736979 240.57375 
" clip-path="url(#p72109524c4)" style="fill: none; stroke: #d3d3d3"/>
    <path d="M 342.718152 299.887893 
L 331.990436 317.862291 
" clip-path="url(#p72109524c4)" style="fill: none; stroke: #d3d3d3"/>
    <path d="M 342.718152 299.887893 
L 276.4076 325.208792 
" clip-path="url(#p72109524c4)" style="fill: none; stroke: #d3d3d3"/>
    <path d="M 342.718152 299.887893 
L 295.447607 311.86018 
" clip-path="url(#p72109524c4)" style="fill: none; stroke: #d3d3d3"/>
    <path d="M 342.718152 299.887893 
L 298.345636 251.845514 
" clip-path="url(#p72109524c4)" style="fill: none; stroke: #d3d3d3"/>
    <path d="M 342.718152 299.887893 
L 353.960008 276.533551 
" clip-path="url(#p72109524c4)" style="fill: none; stroke: #d3d3d3"/>
    <path d="M 342.718152 299.887893 
L 302.022903 293.324979 
" clip-path="url(#p72109524c4)" style="fill: none; stroke: #d3d3d3"/>
    <path d="M 342.718152 299.887893 
L 274.639095 300.191905 
" clip-path="url(#p72109524c4)" style="fill: none; stroke: #d3d3d3"/>
    <path d="M 342.718152 299.887893 
L 259.086308 316.418408 
" clip-path="url(#p72109524c4)" style="fill: none; stroke: #d3d3d3"/>
    <path d="M 342.718152 299.887893 
L 279.969527 249.746882 
" clip-path="url(#p72109524c4)" style="fill: none; stroke: #d3d3d3"/>
    <path d="M 342.718152 299.887893 
L 275.163742 260.808634 
" clip-path="url(#p72109524c4)" style="fill: none; stroke: #d3d3d3"/>
    <path d="M 175.667021 150.832591 
L 231.091213 111.881644 
" clip-path="url(#p72109524c4)" style="fill: none; stroke: #d3d3d3"/>
    <path d="M 175.667021 150.832591 
L 205.157451 108.027067 
" clip-path="url(#p72109524c4)" style="fill: none; stroke: #d3d3d3"/>
    <path d="M 175.667021 150.832591 
L 244.351252 140.191602 
" clip-path="url(#p72109524c4)" style="fill: none; stroke: #d3d3d3"/>
    <path d="M 175.667021 150.832591 
L 176.307328 120.310478 
" clip-path="url(#p72109524c4)" style="fill: none; stroke: #d3d3d3"/>
    <path d="M 175.667021 150.832591 
L 215.274586 136.583482 
" clip-path="url(#p72109524c4)" style="fill: none; stroke: #d3d3d3"/>
    <path d="M 175.667021 150.832591 
L 235.552243 184.300886 
" clip-path="url(#p72109524c4)" style="fill: none; stroke: #d3d3d3"/>
    <path d="M 175.667021 150.832591 
L 216.675812 201.840249 
" clip-path="url(#p72109524c4)" style="fill: none; stroke: #d3d3d3"/>
    <path d="M 282.764629 221.744276 
L 203.076797 243.326763 
" clip-path="url(#p72109524c4)" style="fill: none; stroke: #d3d3d3"/>
    <path d="M 282.764629 221.744276 
L 248.243466 288.553164 
" clip-path="url(#p72109524c4)" style="fill: none; stroke: #d3d3d3"/>
    <path d="M 282.764629 221.744276 
L 208.431325 292.193362 
" clip-path="url(#p72109524c4)" style="fill: none; stroke: #d3d3d3"/>
    <path d="M 282.764629 221.744276 
L 298.345636 251.845514 
" clip-path="url(#p72109524c4)" style="fill: none; stroke: #d3d3d3"/>
    <path d="M 282.764629 221.744276 
L 235.552243 184.300886 
" clip-path="url(#p72109524c4)" style="fill: none; stroke: #d3d3d3"/>
    <path d="M 282.764629 221.744276 
L 229.324602 229.011559 
" clip-path="url(#p72109524c4)" style="fill: none; stroke: #d3d3d3"/>
    <path d="M 282.764629 221.744276 
L 250.881886 237.117764 
" clip-path="url(#p72109524c4)" style="fill: none; stroke: #d3d3d3"/>
    <path d="M 282.764629 221.744276 
L 258.799738 221.445785 
" clip-path="url(#p72109524c4)" style="fill: none; stroke: #d3d3d3"/>
    <path d="M 282.764629 221.744276 
L 216.675812 201.840249 
" clip-path="url(#p72109524c4)" style="fill: none; stroke: #d3d3d3"/>
    <path d="M 295.447607 311.86018 
L 218.324574 260.901881 
" clip-path="url(#p72109524c4)" style="fill: none; stroke: #d3d3d3"/>
    <path d="M 295.447607 311.86018 
L 353.960008 276.533551 
" clip-path="url(#p72109524c4)" style="fill: none; stroke: #d3d3d3"/>
    <path d="M 295.447607 311.86018 
L 331.990436 317.862291 
" clip-path="url(#p72109524c4)" style="fill: none; stroke: #d3d3d3"/>
    <path d="M 295.447607 311.86018 
L 276.4076 325.208792 
" clip-path="url(#p72109524c4)" style="fill: none; stroke: #d3d3d3"/>
    <path d="M 295.447607 311.86018 
L 279.969527 249.746882 
" clip-path="url(#p72109524c4)" style="fill: none; stroke: #d3d3d3"/>
    <path d="M 295.447607 311.86018 
L 275.163742 260.808634 
" clip-path="url(#p72109524c4)" style="fill: none; stroke: #d3d3d3"/>
    <path d="M 295.447607 311.86018 
L 237.986657 322.983806 
" clip-path="url(#p72109524c4)" style="fill: none; stroke: #d3d3d3"/>
    <path d="M 295.447607 311.86018 
L 274.639095 300.191905 
" clip-path="url(#p72109524c4)" style="fill: none; stroke: #d3d3d3"/>
    <path d="M 295.447607 311.86018 
L 298.345636 251.845514 
" clip-path="url(#p72109524c4)" style="fill: none; stroke: #d3d3d3"/>
    <path d="M 295.447607 311.86018 
L 259.086308 316.418408 
" clip-path="url(#p72109524c4)" style="fill: none; stroke: #d3d3d3"/>
    <path d="M 295.447607 311.86018 
L 302.022903 293.324979 
" clip-path="url(#p72109524c4)" style="fill: none; stroke: #d3d3d3"/>
    <path d="M 387.716026 277.533973 
L 298.345636 251.845514 
" clip-path="url(#p72109524c4)" style="fill: none; stroke: #d3d3d3"/>
    <path d="M 387.716026 277.533973 
L 460.264463 308.611884 
" clip-path="url(#p72109524c4)" style="fill: none; stroke: #d3d3d3"/>
    <path d="M 279.969527 249.746882 
L 235.552243 184.300886 
" clip-path="url(#p72109524c4)" style="fill: none; stroke: #d3d3d3"/>
    <path d="M 279.969527 249.746882 
L 237.986657 322.983806 
" clip-path="url(#p72109524c4)" style="fill: none; stroke: #d3d3d3"/>
    <path d="M 279.969527 249.746882 
L 229.324602 229.011559 
" clip-path="url(#p72109524c4)" style="fill: none; stroke: #d3d3d3"/>
    <path d="M 279.969527 249.746882 
L 216.675812 201.840249 
" clip-path="url(#p72109524c4)" style="fill: none; stroke: #d3d3d3"/>
    <path d="M 279.969527 249.746882 
L 353.960008 276.533551 
" clip-path="url(#p72109524c4)" style="fill: none; stroke: #d3d3d3"/>
    <path d="M 279.969527 249.746882 
L 331.990436 317.862291 
" clip-path="url(#p72109524c4)" style="fill: none; stroke: #d3d3d3"/>
    <path d="M 279.969527 249.746882 
L 302.022903 293.324979 
" clip-path="url(#p72109524c4)" style="fill: none; stroke: #d3d3d3"/>
    <path d="M 279.969527 249.746882 
L 276.4076 325.208792 
" clip-path="url(#p72109524c4)" style="fill: none; stroke: #d3d3d3"/>
    <path d="M 279.969527 249.746882 
L 275.163742 260.808634 
" clip-path="url(#p72109524c4)" style="fill: none; stroke: #d3d3d3"/>
    <path d="M 279.969527 249.746882 
L 298.345636 251.845514 
" clip-path="url(#p72109524c4)" style="fill: none; stroke: #d3d3d3"/>
    <path d="M 279.969527 249.746882 
L 259.086308 316.418408 
" clip-path="url(#p72109524c4)" style="fill: none; stroke: #d3d3d3"/>
    <path d="M 279.969527 249.746882 
L 218.324574 260.901881 
" clip-path="url(#p72109524c4)" style="fill: none; stroke: #d3d3d3"/>
    <path d="M 279.969527 249.746882 
L 274.639095 300.191905 
" clip-path="url(#p72109524c4)" style="fill: none; stroke: #d3d3d3"/>
    <path d="M 205.157451 108.027067 
L 235.552243 184.300886 
" clip-path="url(#p72109524c4)" style="fill: none; stroke: #d3d3d3"/>
    <path d="M 205.157451 108.027067 
L 231.091213 111.881644 
" clip-path="url(#p72109524c4)" style="fill: none; stroke: #d3d3d3"/>
    <path d="M 205.157451 108.027067 
L 244.351252 140.191602 
" clip-path="url(#p72109524c4)" style="fill: none; stroke: #d3d3d3"/>
    <path d="M 205.157451 108.027067 
L 176.307328 120.310478 
" clip-path="url(#p72109524c4)" style="fill: none; stroke: #d3d3d3"/>
    <path d="M 205.157451 108.027067 
L 215.274586 136.583482 
" clip-path="url(#p72109524c4)" style="fill: none; stroke: #d3d3d3"/>
    <path d="M 386.89963 255.785985 
L 387.59681 231.468283 
" clip-path="url(#p72109524c4)" style="fill: none; stroke: #d3d3d3"/>
    <path d="M 386.89963 255.785985 
L 298.345636 251.845514 
" clip-path="url(#p72109524c4)" style="fill: none; stroke: #d3d3d3"/>
    <path d="M 346.203952 58.685455 
L 302.280704 110.136273 
" clip-path="url(#p72109524c4)" style="fill: none; stroke: #d3d3d3"/>
    <path d="M 147.088359 49.44901 
L 193.208572 120.900386 
" clip-path="url(#p72109524c4)" style="fill: none; stroke: #d3d3d3"/>
    <path d="M 302.280704 110.136273 
L 235.552243 184.300886 
" clip-path="url(#p72109524c4)" style="fill: none; stroke: #d3d3d3"/>
    <path d="M 302.280704 110.136273 
L 391.202765 97.444185 
" clip-path="url(#p72109524c4)" style="fill: none; stroke: #d3d3d3"/>
    <path d="M 302.280704 110.136273 
L 283.88065 39.205411 
" clip-path="url(#p72109524c4)" style="fill: none; stroke: #d3d3d3"/>
    <path d="M 302.280704 110.136273 
L 404.254463 119.67221 
" clip-path="url(#p72109524c4)" style="fill: none; stroke: #d3d3d3"/>
    <path d="M 302.280704 110.136273 
L 252.172669 37.487603 
" clip-path="url(#p72109524c4)" style="fill: none; stroke: #d3d3d3"/>
    <path d="M 302.280704 110.136273 
L 315.729631 45.998289 
" clip-path="url(#p72109524c4)" style="fill: none; stroke: #d3d3d3"/>
    <path d="M 302.280704 110.136273 
L 309.947764 142.894313 
" clip-path="url(#p72109524c4)" style="fill: none; stroke: #d3d3d3"/>
    <path d="M 218.324574 260.901881 
L 276.4076 325.208792 
" clip-path="url(#p72109524c4)" style="fill: none; stroke: #d3d3d3"/>
    <path d="M 218.324574 260.901881 
L 298.345636 251.845514 
" clip-path="url(#p72109524c4)" style="fill: none; stroke: #d3d3d3"/>
    <path d="M 218.324574 260.901881 
L 302.022903 293.324979 
" clip-path="url(#p72109524c4)" style="fill: none; stroke: #d3d3d3"/>
    <path d="M 218.324574 260.901881 
L 208.431325 292.193362 
" clip-path="url(#p72109524c4)" style="fill: none; stroke: #d3d3d3"/>
    <path d="M 218.324574 260.901881 
L 203.076797 243.326763 
" clip-path="url(#p72109524c4)" style="fill: none; stroke: #d3d3d3"/>
    <path d="M 218.324574 260.901881 
L 111.736979 240.57375 
" clip-path="url(#p72109524c4)" style="fill: none; stroke: #d3d3d3"/>
    <path d="M 218.324574 260.901881 
L 235.552243 184.300886 
" clip-path="url(#p72109524c4)" style="fill: none; stroke: #d3d3d3"/>
    <path d="M 218.324574 260.901881 
L 177.828729 210.577137 
" clip-path="url(#p72109524c4)" style="fill: none; stroke: #d3d3d3"/>
    <path d="M 218.324574 260.901881 
L 259.086308 316.418408 
" clip-path="url(#p72109524c4)" style="fill: none; stroke: #d3d3d3"/>
    <path d="M 218.324574 260.901881 
L 274.639095 300.191905 
" clip-path="url(#p72109524c4)" style="fill: none; stroke: #d3d3d3"/>
    <path d="M 218.324574 260.901881 
L 275.163742 260.808634 
" clip-path="url(#p72109524c4)" style="fill: none; stroke: #d3d3d3"/>
    <path d="M 218.324574 260.901881 
L 143.430499 283.339517 
" clip-path="url(#p72109524c4)" style="fill: none; stroke: #d3d3d3"/>
    <path d="M 218.324574 260.901881 
L 237.986657 322.983806 
" clip-path="url(#p72109524c4)" style="fill: none; stroke: #d3d3d3"/>
    <path d="M 218.324574 260.901881 
L 153.782225 304.678898 
" clip-path="url(#p72109524c4)" style="fill: none; stroke: #d3d3d3"/>
    <path d="M 218.324574 260.901881 
L 177.914684 332.712247 
" clip-path="url(#p72109524c4)" style="fill: none; stroke: #d3d3d3"/>
    <path d="M 218.324574 260.901881 
L 177.100625 245.498779 
" clip-path="url(#p72109524c4)" style="fill: none; stroke: #d3d3d3"/>
    <path d="M 218.324574 260.901881 
L 152.314791 218.580111 
" clip-path="url(#p72109524c4)" style="fill: none; stroke: #d3d3d3"/>
    <path d="M 248.243466 288.553164 
L 229.324602 229.011559 
" clip-path="url(#p72109524c4)" style="fill: none; stroke: #d3d3d3"/>
    <path d="M 248.243466 288.553164 
L 208.431325 292.193362 
" clip-path="url(#p72109524c4)" style="fill: none; stroke: #d3d3d3"/>
    <path d="M 248.243466 288.553164 
L 298.345636 251.845514 
" clip-path="url(#p72109524c4)" style="fill: none; stroke: #d3d3d3"/>
    <path d="M 248.243466 288.553164 
L 203.076797 243.326763 
" clip-path="url(#p72109524c4)" style="fill: none; stroke: #d3d3d3"/>
    <path d="M 248.243466 288.553164 
L 250.881886 237.117764 
" clip-path="url(#p72109524c4)" style="fill: none; stroke: #d3d3d3"/>
    <path d="M 248.243466 288.553164 
L 258.799738 221.445785 
" clip-path="url(#p72109524c4)" style="fill: none; stroke: #d3d3d3"/>
    <path d="M 215.274586 136.583482 
L 231.091213 111.881644 
" clip-path="url(#p72109524c4)" style="fill: none; stroke: #d3d3d3"/>
    <path d="M 215.274586 136.583482 
L 244.351252 140.191602 
" clip-path="url(#p72109524c4)" style="fill: none; stroke: #d3d3d3"/>
    <path d="M 215.274586 136.583482 
L 176.307328 120.310478 
" clip-path="url(#p72109524c4)" style="fill: none; stroke: #d3d3d3"/>
    <path d="M 215.274586 136.583482 
L 235.552243 184.300886 
" clip-path="url(#p72109524c4)" style="fill: none; stroke: #d3d3d3"/>
    <path d="M 166.040888 316.902566 
L 174.187056 229.824027 
" clip-path="url(#p72109524c4)" style="fill: none; stroke: #d3d3d3"/>
    <path d="M 166.040888 316.902566 
L 203.076797 243.326763 
" clip-path="url(#p72109524c4)" style="fill: none; stroke: #d3d3d3"/>
    <path d="M 166.040888 316.902566 
L 208.431325 292.193362 
" clip-path="url(#p72109524c4)" style="fill: none; stroke: #d3d3d3"/>
    <path d="M 302.022903 293.324979 
L 237.986657 322.983806 
" clip-path="url(#p72109524c4)" style="fill: none; stroke: #d3d3d3"/>
    <path d="M 302.022903 293.324979 
L 259.086308 316.418408 
" clip-path="url(#p72109524c4)" style="fill: none; stroke: #d3d3d3"/>
    <path d="M 302.022903 293.324979 
L 331.990436 317.862291 
" clip-path="url(#p72109524c4)" style="fill: none; stroke: #d3d3d3"/>
    <path d="M 302.022903 293.324979 
L 276.4076 325.208792 
" clip-path="url(#p72109524c4)" style="fill: none; stroke: #d3d3d3"/>
    <path d="M 302.022903 293.324979 
L 274.639095 300.191905 
" clip-path="url(#p72109524c4)" style="fill: none; stroke: #d3d3d3"/>
    <path d="M 302.022903 293.324979 
L 298.345636 251.845514 
" clip-path="url(#p72109524c4)" style="fill: none; stroke: #d3d3d3"/>
    <path d="M 302.022903 293.324979 
L 353.960008 276.533551 
" clip-path="url(#p72109524c4)" style="fill: none; stroke: #d3d3d3"/>
    <path d="M 302.022903 293.324979 
L 275.163742 260.808634 
" clip-path="url(#p72109524c4)" style="fill: none; stroke: #d3d3d3"/>
    <path d="M 244.351252 140.191602 
L 235.552243 184.300886 
" clip-path="url(#p72109524c4)" style="fill: none; stroke: #d3d3d3"/>
    <path d="M 244.351252 140.191602 
L 231.091213 111.881644 
" clip-path="url(#p72109524c4)" style="fill: none; stroke: #d3d3d3"/>
    <path d="M 244.351252 140.191602 
L 176.307328 120.310478 
" clip-path="url(#p72109524c4)" style="fill: none; stroke: #d3d3d3"/>
    <path d="M 231.091213 111.881644 
L 235.552243 184.300886 
" clip-path="url(#p72109524c4)" style="fill: none; stroke: #d3d3d3"/>
    <path d="M 231.091213 111.881644 
L 176.307328 120.310478 
" clip-path="url(#p72109524c4)" style="fill: none; stroke: #d3d3d3"/>
    <path d="M 177.914684 332.712247 
L 177.100625 245.498779 
" clip-path="url(#p72109524c4)" style="fill: none; stroke: #d3d3d3"/>
    <path d="M 71.331808 205.503248 
L 43.735537 202.739106 
" clip-path="url(#p72109524c4)" style="fill: none; stroke: #d3d3d3"/>
    <path d="M 71.331808 205.503248 
L 51.258267 181.379666 
" clip-path="url(#p72109524c4)" style="fill: none; stroke: #d3d3d3"/>
    <path d="M 71.331808 205.503248 
L 48.474984 224.847077 
" clip-path="url(#p72109524c4)" style="fill: none; stroke: #d3d3d3"/>
    <path d="M 71.331808 205.503248 
L 71.929976 172.825206 
" clip-path="url(#p72109524c4)" style="fill: none; stroke: #d3d3d3"/>
    <path d="M 71.331808 205.503248 
L 62.808102 238.45527 
" clip-path="url(#p72109524c4)" style="fill: none; stroke: #d3d3d3"/>
    <path d="M 71.331808 205.503248 
L 111.736979 240.57375 
" clip-path="url(#p72109524c4)" style="fill: none; stroke: #d3d3d3"/>
    <path d="M 143.430499 283.339517 
L 177.828729 210.577137 
" clip-path="url(#p72109524c4)" style="fill: none; stroke: #d3d3d3"/>
    <path d="M 143.430499 283.339517 
L 177.100625 245.498779 
" clip-path="url(#p72109524c4)" style="fill: none; stroke: #d3d3d3"/>
    <path d="M 143.430499 283.339517 
L 152.314791 218.580111 
" clip-path="url(#p72109524c4)" style="fill: none; stroke: #d3d3d3"/>
    <path d="M 71.929976 172.825206 
L 43.735537 202.739106 
" clip-path="url(#p72109524c4)" style="fill: none; stroke: #d3d3d3"/>
    <path d="M 71.929976 172.825206 
L 51.258267 181.379666 
" clip-path="url(#p72109524c4)" style="fill: none; stroke: #d3d3d3"/>
    <path d="M 71.929976 172.825206 
L 48.474984 224.847077 
" clip-path="url(#p72109524c4)" style="fill: none; stroke: #d3d3d3"/>
    <path d="M 71.929976 172.825206 
L 62.808102 238.45527 
" clip-path="url(#p72109524c4)" style="fill: none; stroke: #d3d3d3"/>
    <path d="M 71.929976 172.825206 
L 111.736979 240.57375 
" clip-path="url(#p72109524c4)" style="fill: none; stroke: #d3d3d3"/>
    <path d="M 216.675812 201.840249 
L 176.262061 169.122173 
" clip-path="url(#p72109524c4)" style="fill: none; stroke: #d3d3d3"/>
    <path d="M 216.675812 201.840249 
L 177.828729 210.577137 
" clip-path="url(#p72109524c4)" style="fill: none; stroke: #d3d3d3"/>
    <path d="M 216.675812 201.840249 
L 298.345636 251.845514 
" clip-path="url(#p72109524c4)" style="fill: none; stroke: #d3d3d3"/>
    <path d="M 216.675812 201.840249 
L 229.324602 229.011559 
" clip-path="url(#p72109524c4)" style="fill: none; stroke: #d3d3d3"/>
    <path d="M 216.675812 201.840249 
L 250.881886 237.117764 
" clip-path="url(#p72109524c4)" style="fill: none; stroke: #d3d3d3"/>
    <path d="M 216.675812 201.840249 
L 174.187056 229.824027 
" clip-path="url(#p72109524c4)" style="fill: none; stroke: #d3d3d3"/>
    <path d="M 216.675812 201.840249 
L 258.799738 221.445785 
" clip-path="url(#p72109524c4)" style="fill: none; stroke: #d3d3d3"/>
    <path d="M 216.675812 201.840249 
L 204.160592 160.386347 
" clip-path="url(#p72109524c4)" style="fill: none; stroke: #d3d3d3"/>
    <path d="M 216.675812 201.840249 
L 203.076797 243.326763 
" clip-path="url(#p72109524c4)" style="fill: none; stroke: #d3d3d3"/>
    <path d="M 216.675812 201.840249 
L 149.174008 157.699205 
" clip-path="url(#p72109524c4)" style="fill: none; stroke: #d3d3d3"/>
    <path d="M 216.675812 201.840249 
L 279.716995 169.225231 
" clip-path="url(#p72109524c4)" style="fill: none; stroke: #d3d3d3"/>
    <path d="M 216.675812 201.840249 
L 235.552243 184.300886 
" clip-path="url(#p72109524c4)" style="fill: none; stroke: #d3d3d3"/>
    <path d="M 216.675812 201.840249 
L 193.208572 120.900386 
" clip-path="url(#p72109524c4)" style="fill: none; stroke: #d3d3d3"/>
    <path d="M 152.314791 218.580111 
L 235.552243 184.300886 
" clip-path="url(#p72109524c4)" style="fill: none; stroke: #d3d3d3"/>
    <path d="M 152.314791 218.580111 
L 177.828729 210.577137 
" clip-path="url(#p72109524c4)" style="fill: none; stroke: #d3d3d3"/>
    <path d="M 152.314791 218.580111 
L 177.100625 245.498779 
" clip-path="url(#p72109524c4)" style="fill: none; stroke: #d3d3d3"/>
    <path d="M 152.314791 218.580111 
L 59.939343 161.092201 
" clip-path="url(#p72109524c4)" style="fill: none; stroke: #d3d3d3"/>
    <path d="M 152.314791 218.580111 
L 71.016187 278.135886 
" clip-path="url(#p72109524c4)" style="fill: none; stroke: #d3d3d3"/>
    <path d="M 176.262061 169.122173 
L 235.552243 184.300886 
" clip-path="url(#p72109524c4)" style="fill: none; stroke: #d3d3d3"/>
    <path d="M 176.262061 169.122173 
L 177.828729 210.577137 
" clip-path="url(#p72109524c4)" style="fill: none; stroke: #d3d3d3"/>
    <path d="M 279.716995 169.225231 
L 235.552243 184.300886 
" clip-path="url(#p72109524c4)" style="fill: none; stroke: #d3d3d3"/>
    <path d="M 111.736979 240.57375 
L 177.828729 210.577137 
" clip-path="url(#p72109524c4)" style="fill: none; stroke: #d3d3d3"/>
    <path d="M 111.736979 240.57375 
L 43.735537 202.739106 
" clip-path="url(#p72109524c4)" style="fill: none; stroke: #d3d3d3"/>
    <path d="M 111.736979 240.57375 
L 51.258267 181.379666 
" clip-path="url(#p72109524c4)" style="fill: none; stroke: #d3d3d3"/>
    <path d="M 111.736979 240.57375 
L 48.474984 224.847077 
" clip-path="url(#p72109524c4)" style="fill: none; stroke: #d3d3d3"/>
    <path d="M 111.736979 240.57375 
L 62.808102 238.45527 
" clip-path="url(#p72109524c4)" style="fill: none; stroke: #d3d3d3"/>
    <path d="M 274.639095 300.191905 
L 353.960008 276.533551 
" clip-path="url(#p72109524c4)" style="fill: none; stroke: #d3d3d3"/>
    <path d="M 274.639095 300.191905 
L 331.990436 317.862291 
" clip-path="url(#p72109524c4)" style="fill: none; stroke: #d3d3d3"/>
    <path d="M 274.639095 300.191905 
L 276.4076 325.208792 
" clip-path="url(#p72109524c4)" style="fill: none; stroke: #d3d3d3"/>
    <path d="M 274.639095 300.191905 
L 208.431325 292.193362 
" clip-path="url(#p72109524c4)" style="fill: none; stroke: #d3d3d3"/>
    <path d="M 274.639095 300.191905 
L 237.986657 322.983806 
" clip-path="url(#p72109524c4)" style="fill: none; stroke: #d3d3d3"/>
    <path d="M 274.639095 300.191905 
L 298.345636 251.845514 
" clip-path="url(#p72109524c4)" style="fill: none; stroke: #d3d3d3"/>
    <path d="M 274.639095 300.191905 
L 259.086308 316.418408 
" clip-path="url(#p72109524c4)" style="fill: none; stroke: #d3d3d3"/>
    <path d="M 274.639095 300.191905 
L 275.163742 260.808634 
" clip-path="url(#p72109524c4)" style="fill: none; stroke: #d3d3d3"/>
    <path d="M 229.324602 229.011559 
L 208.431325 292.193362 
" clip-path="url(#p72109524c4)" style="fill: none; stroke: #d3d3d3"/>
    <path d="M 229.324602 229.011559 
L 174.187056 229.824027 
" clip-path="url(#p72109524c4)" style="fill: none; stroke: #d3d3d3"/>
    <path d="M 229.324602 229.011559 
L 235.552243 184.300886 
" clip-path="url(#p72109524c4)" style="fill: none; stroke: #d3d3d3"/>
    <path d="M 229.324602 229.011559 
L 250.881886 237.117764 
" clip-path="url(#p72109524c4)" style="fill: none; stroke: #d3d3d3"/>
    <path d="M 229.324602 229.011559 
L 258.799738 221.445785 
" clip-path="url(#p72109524c4)" style="fill: none; stroke: #d3d3d3"/>
    <path d="M 229.324602 229.011559 
L 203.076797 243.326763 
" clip-path="url(#p72109524c4)" style="fill: none; stroke: #d3d3d3"/>
    <path d="M 235.552243 184.300886 
L 177.100625 245.498779 
" clip-path="url(#p72109524c4)" style="fill: none; stroke: #d3d3d3"/>
    <path d="M 235.552243 184.300886 
L 275.163742 260.808634 
" clip-path="url(#p72109524c4)" style="fill: none; stroke: #d3d3d3"/>
    <path d="M 235.552243 184.300886 
L 298.345636 251.845514 
" clip-path="url(#p72109524c4)" style="fill: none; stroke: #d3d3d3"/>
    <path d="M 235.552243 184.300886 
L 250.881886 237.117764 
" clip-path="url(#p72109524c4)" style="fill: none; stroke: #d3d3d3"/>
    <path d="M 235.552243 184.300886 
L 258.799738 221.445785 
" clip-path="url(#p72109524c4)" style="fill: none; stroke: #d3d3d3"/>
    <path d="M 235.552243 184.300886 
L 249.362611 117.436845 
" clip-path="url(#p72109524c4)" style="fill: none; stroke: #d3d3d3"/>
    <path d="M 235.552243 184.300886 
L 204.160592 160.386347 
" clip-path="url(#p72109524c4)" style="fill: none; stroke: #d3d3d3"/>
    <path d="M 235.552243 184.300886 
L 203.076797 243.326763 
" clip-path="url(#p72109524c4)" style="fill: none; stroke: #d3d3d3"/>
    <path d="M 235.552243 184.300886 
L 174.187056 229.824027 
" clip-path="url(#p72109524c4)" style="fill: none; stroke: #d3d3d3"/>
    <path d="M 235.552243 184.300886 
L 177.828729 210.577137 
" clip-path="url(#p72109524c4)" style="fill: none; stroke: #d3d3d3"/>
    <path d="M 235.552243 184.300886 
L 176.307328 120.310478 
" clip-path="url(#p72109524c4)" style="fill: none; stroke: #d3d3d3"/>
    <path d="M 235.552243 184.300886 
L 319.746726 161.061401 
" clip-path="url(#p72109524c4)" style="fill: none; stroke: #d3d3d3"/>
    <path d="M 235.552243 184.300886 
L 149.174008 157.699205 
" clip-path="url(#p72109524c4)" style="fill: none; stroke: #d3d3d3"/>
    <path d="M 235.552243 184.300886 
L 193.208572 120.900386 
" clip-path="url(#p72109524c4)" style="fill: none; stroke: #d3d3d3"/>
    <path d="M 235.552243 184.300886 
L 286.576691 147.443962 
" clip-path="url(#p72109524c4)" style="fill: none; stroke: #d3d3d3"/>
    <path d="M 235.552243 184.300886 
L 309.177842 179.980148 
" clip-path="url(#p72109524c4)" style="fill: none; stroke: #d3d3d3"/>
    <path d="M 235.552243 184.300886 
L 309.947764 142.894313 
" clip-path="url(#p72109524c4)" style="fill: none; stroke: #d3d3d3"/>
    <path d="M 235.552243 184.300886 
L 332.124274 175.999338 
" clip-path="url(#p72109524c4)" style="fill: none; stroke: #d3d3d3"/>
    <path d="M 235.552243 184.300886 
L 150.902413 142.728369 
" clip-path="url(#p72109524c4)" style="fill: none; stroke: #d3d3d3"/>
    <path d="M 235.552243 184.300886 
L 326.270846 192.510584 
" clip-path="url(#p72109524c4)" style="fill: none; stroke: #d3d3d3"/>
    <path d="M 237.986657 322.983806 
L 276.4076 325.208792 
" clip-path="url(#p72109524c4)" style="fill: none; stroke: #d3d3d3"/>
    <path d="M 237.986657 322.983806 
L 298.345636 251.845514 
" clip-path="url(#p72109524c4)" style="fill: none; stroke: #d3d3d3"/>
    <path d="M 237.986657 322.983806 
L 275.163742 260.808634 
" clip-path="url(#p72109524c4)" style="fill: none; stroke: #d3d3d3"/>
    <path d="M 237.986657 322.983806 
L 259.086308 316.418408 
" clip-path="url(#p72109524c4)" style="fill: none; stroke: #d3d3d3"/>
    <path d="M 237.986657 322.983806 
L 208.431325 292.193362 
" clip-path="url(#p72109524c4)" style="fill: none; stroke: #d3d3d3"/>
    <path d="M 237.986657 322.983806 
L 253.453018 394.512397 
" clip-path="url(#p72109524c4)" style="fill: none; stroke: #d3d3d3"/>
    <path d="M 51.258267 181.379666 
L 43.735537 202.739106 
" clip-path="url(#p72109524c4)" style="fill: none; stroke: #d3d3d3"/>
    <path d="M 51.258267 181.379666 
L 48.474984 224.847077 
" clip-path="url(#p72109524c4)" style="fill: none; stroke: #d3d3d3"/>
    <path d="M 51.258267 181.379666 
L 62.808102 238.45527 
" clip-path="url(#p72109524c4)" style="fill: none; stroke: #d3d3d3"/>
    <path d="M 387.59681 231.468283 
L 298.345636 251.845514 
" clip-path="url(#p72109524c4)" style="fill: none; stroke: #d3d3d3"/>
    <path d="M 193.208572 120.900386 
L 249.362611 117.436845 
" clip-path="url(#p72109524c4)" style="fill: none; stroke: #d3d3d3"/>
    <path d="M 174.187056 229.824027 
L 96.076536 281.147205 
" clip-path="url(#p72109524c4)" style="fill: none; stroke: #d3d3d3"/>
    <path d="M 174.187056 229.824027 
L 250.881886 237.117764 
" clip-path="url(#p72109524c4)" style="fill: none; stroke: #d3d3d3"/>
    <path d="M 174.187056 229.824027 
L 258.799738 221.445785 
" clip-path="url(#p72109524c4)" style="fill: none; stroke: #d3d3d3"/>
    <path d="M 174.187056 229.824027 
L 208.431325 292.193362 
" clip-path="url(#p72109524c4)" style="fill: none; stroke: #d3d3d3"/>
    <path d="M 174.187056 229.824027 
L 177.828729 210.577137 
" clip-path="url(#p72109524c4)" style="fill: none; stroke: #d3d3d3"/>
    <path d="M 174.187056 229.824027 
L 203.076797 243.326763 
" clip-path="url(#p72109524c4)" style="fill: none; stroke: #d3d3d3"/>
    <path d="M 71.016187 278.135886 
L 153.782225 304.678898 
" clip-path="url(#p72109524c4)" style="fill: none; stroke: #d3d3d3"/>
    <path d="M 149.174008 157.699205 
L 76.370947 121.437783 
" clip-path="url(#p72109524c4)" style="fill: none; stroke: #d3d3d3"/>
    <path d="M 353.960008 276.533551 
L 298.345636 251.845514 
" clip-path="url(#p72109524c4)" style="fill: none; stroke: #d3d3d3"/>
    <path d="M 353.960008 276.533551 
L 275.163742 260.808634 
" clip-path="url(#p72109524c4)" style="fill: none; stroke: #d3d3d3"/>
    <path d="M 208.431325 292.193362 
L 250.881886 237.117764 
" clip-path="url(#p72109524c4)" style="fill: none; stroke: #d3d3d3"/>
    <path d="M 208.431325 292.193362 
L 258.799738 221.445785 
" clip-path="url(#p72109524c4)" style="fill: none; stroke: #d3d3d3"/>
    <path d="M 208.431325 292.193362 
L 203.076797 243.326763 
" clip-path="url(#p72109524c4)" style="fill: none; stroke: #d3d3d3"/>
    <path d="M 331.990436 317.862291 
L 259.086308 316.418408 
" clip-path="url(#p72109524c4)" style="fill: none; stroke: #d3d3d3"/>
    <path d="M 331.990436 317.862291 
L 276.4076 325.208792 
" clip-path="url(#p72109524c4)" style="fill: none; stroke: #d3d3d3"/>
    <path d="M 331.990436 317.862291 
L 275.163742 260.808634 
" clip-path="url(#p72109524c4)" style="fill: none; stroke: #d3d3d3"/>
    <path d="M 331.990436 317.862291 
L 298.345636 251.845514 
" clip-path="url(#p72109524c4)" style="fill: none; stroke: #d3d3d3"/>
    <path d="M 126.553413 308.305683 
L 203.076797 243.326763 
" clip-path="url(#p72109524c4)" style="fill: none; stroke: #d3d3d3"/>
    <path d="M 250.881886 237.117764 
L 298.345636 251.845514 
" clip-path="url(#p72109524c4)" style="fill: none; stroke: #d3d3d3"/>
    <path d="M 250.881886 237.117764 
L 258.799738 221.445785 
" clip-path="url(#p72109524c4)" style="fill: none; stroke: #d3d3d3"/>
    <path d="M 250.881886 237.117764 
L 203.076797 243.326763 
" clip-path="url(#p72109524c4)" style="fill: none; stroke: #d3d3d3"/>
    <path d="M 203.076797 243.326763 
L 298.345636 251.845514 
" clip-path="url(#p72109524c4)" style="fill: none; stroke: #d3d3d3"/>
    <path d="M 203.076797 243.326763 
L 258.799738 221.445785 
" clip-path="url(#p72109524c4)" style="fill: none; stroke: #d3d3d3"/>
    <path d="M 203.076797 243.326763 
L 177.828729 210.577137 
" clip-path="url(#p72109524c4)" style="fill: none; stroke: #d3d3d3"/>
    <path d="M 203.076797 243.326763 
L 153.782225 304.678898 
" clip-path="url(#p72109524c4)" style="fill: none; stroke: #d3d3d3"/>
    <path d="M 258.799738 221.445785 
L 298.345636 251.845514 
" clip-path="url(#p72109524c4)" style="fill: none; stroke: #d3d3d3"/>
    <path d="M 177.828729 210.577137 
L 177.100625 245.498779 
" clip-path="url(#p72109524c4)" style="fill: none; stroke: #d3d3d3"/>
    <path d="M 177.828729 210.577137 
L 204.160592 160.386347 
" clip-path="url(#p72109524c4)" style="fill: none; stroke: #d3d3d3"/>
    <path d="M 43.735537 202.739106 
L 48.474984 224.847077 
" clip-path="url(#p72109524c4)" style="fill: none; stroke: #d3d3d3"/>
    <path d="M 43.735537 202.739106 
L 62.808102 238.45527 
" clip-path="url(#p72109524c4)" style="fill: none; stroke: #d3d3d3"/>
    <path d="M 275.163742 260.808634 
L 259.086308 316.418408 
" clip-path="url(#p72109524c4)" style="fill: none; stroke: #d3d3d3"/>
    <path d="M 275.163742 260.808634 
L 276.4076 325.208792 
" clip-path="url(#p72109524c4)" style="fill: none; stroke: #d3d3d3"/>
    <path d="M 275.163742 260.808634 
L 298.345636 251.845514 
" clip-path="url(#p72109524c4)" style="fill: none; stroke: #d3d3d3"/>
    <path d="M 259.086308 316.418408 
L 276.4076 325.208792 
" clip-path="url(#p72109524c4)" style="fill: none; stroke: #d3d3d3"/>
    <path d="M 259.086308 316.418408 
L 298.345636 251.845514 
" clip-path="url(#p72109524c4)" style="fill: none; stroke: #d3d3d3"/>
    <path d="M 48.474984 224.847077 
L 62.808102 238.45527 
" clip-path="url(#p72109524c4)" style="fill: none; stroke: #d3d3d3"/>
    <path d="M 298.345636 251.845514 
L 276.4076 325.208792 
" clip-path="url(#p72109524c4)" style="fill: none; stroke: #d3d3d3"/>
    <path d="M 96.076536 281.147205 
L 177.100625 245.498779 
" clip-path="url(#p72109524c4)" style="fill: none; stroke: #d3d3d3"/>
   </g>
   <g id="PathCollection_1">
    <defs>
     <path id="C0_0_f2ad9ecc55" d="M 0 5 
C 1.326016 5 2.597899 4.473168 3.535534 3.535534 
C 4.473168 2.597899 5 1.326016 5 -0 
C 5 -1.326016 4.473168 -2.597899 3.535534 -3.535534 
C 2.597899 -4.473168 1.326016 -5 0 -5 
C -1.326016 -5 -2.597899 -4.473168 -3.535534 -3.535534 
C -4.473168 -2.597899 -5 -1.326016 -5 0 
C -5 1.326016 -4.473168 2.597899 -3.535534 3.535534 
C -2.597899 4.473168 -1.326016 5 0 5 
z
"/>
    </defs>
    <g clip-path="url(#p72109524c4)">
     <use xlink:href="#C0_0_f2ad9ecc55" x="371.984928" y="76.596162" style="fill: #8000ff; stroke: #8000ff"/>
    </g>
    <g clip-path="url(#p72109524c4)">
     <use xlink:href="#C0_0_f2ad9ecc55" x="274.4855" y="126.635685" style="fill: #8000ff; stroke: #8000ff"/>
    </g>
    <g clip-path="url(#p72109524c4)">
     <use xlink:href="#C0_0_f2ad9ecc55" x="134.31598" y="191.142036" style="fill: #4856fb; stroke: #4856fb"/>
    </g>
    <g clip-path="url(#p72109524c4)">
     <use xlink:href="#C0_0_f2ad9ecc55" x="342.718152" y="299.887893" style="fill: #4856fb; stroke: #4856fb"/>
    </g>
    <g clip-path="url(#p72109524c4)">
     <use xlink:href="#C0_0_f2ad9ecc55" x="175.667021" y="150.832591" style="fill: #10a2f0; stroke: #10a2f0"/>
    </g>
    <g clip-path="url(#p72109524c4)">
     <use xlink:href="#C0_0_f2ad9ecc55" x="282.764629" y="221.744276" style="fill: #2adddd; stroke: #2adddd"/>
    </g>
    <g clip-path="url(#p72109524c4)">
     <use xlink:href="#C0_0_f2ad9ecc55" x="295.447607" y="311.86018" style="fill: #10a2f0; stroke: #10a2f0"/>
    </g>
    <g clip-path="url(#p72109524c4)">
     <use xlink:href="#C0_0_f2ad9ecc55" x="387.716026" y="277.533973" style="fill: #62fbc4; stroke: #62fbc4"/>
    </g>
    <g clip-path="url(#p72109524c4)">
     <use xlink:href="#C0_0_f2ad9ecc55" x="279.969527" y="249.746882" style="fill: #9cfba4; stroke: #9cfba4"/>
    </g>
    <g clip-path="url(#p72109524c4)">
     <use xlink:href="#C0_0_f2ad9ecc55" x="205.157451" y="108.027067" style="fill: #62fbc4; stroke: #62fbc4"/>
    </g>
    <g clip-path="url(#p72109524c4)">
     <use xlink:href="#C0_0_f2ad9ecc55" x="386.89963" y="255.785985" style="fill: #62fbc4; stroke: #62fbc4"/>
    </g>
    <g clip-path="url(#p72109524c4)">
     <use xlink:href="#C0_0_f2ad9ecc55" x="346.203952" y="58.685455" style="fill: #8000ff; stroke: #8000ff"/>
    </g>
    <g clip-path="url(#p72109524c4)">
     <use xlink:href="#C0_0_f2ad9ecc55" x="147.088359" y="49.44901" style="fill: #2adddd; stroke: #2adddd"/>
    </g>
    <g clip-path="url(#p72109524c4)">
     <use xlink:href="#C0_0_f2ad9ecc55" x="302.280704" y="110.136273" style="fill: #62fbc4; stroke: #62fbc4"/>
    </g>
    <g clip-path="url(#p72109524c4)">
     <use xlink:href="#C0_0_f2ad9ecc55" x="218.324574" y="260.901881" style="fill: #4856fb; stroke: #4856fb"/>
    </g>
    <g clip-path="url(#p72109524c4)">
     <use xlink:href="#C0_0_f2ad9ecc55" x="248.243466" y="288.553164" style="fill: #10a2f0; stroke: #10a2f0"/>
    </g>
    <g clip-path="url(#p72109524c4)">
     <use xlink:href="#C0_0_f2ad9ecc55" x="215.274586" y="136.583482" style="fill: #8000ff; stroke: #8000ff"/>
    </g>
    <g clip-path="url(#p72109524c4)">
     <use xlink:href="#C0_0_f2ad9ecc55" x="166.040888" y="316.902566" style="fill: #8000ff; stroke: #8000ff"/>
    </g>
    <g clip-path="url(#p72109524c4)">
     <use xlink:href="#C0_0_f2ad9ecc55" x="302.022903" y="293.324979" style="fill: #2adddd; stroke: #2adddd"/>
    </g>
    <g clip-path="url(#p72109524c4)">
     <use xlink:href="#C0_0_f2ad9ecc55" x="244.351252" y="140.191602" style="fill: #d4dd80; stroke: #d4dd80"/>
    </g>
    <g clip-path="url(#p72109524c4)">
     <use xlink:href="#C0_0_f2ad9ecc55" x="230.135581" y="147.94738" style="fill: #62fbc4; stroke: #62fbc4"/>
    </g>
    <g clip-path="url(#p72109524c4)">
     <use xlink:href="#C0_0_f2ad9ecc55" x="231.091213" y="111.881644" style="fill: #ffa256; stroke: #ffa256"/>
    </g>
    <g clip-path="url(#p72109524c4)">
     <use xlink:href="#C0_0_f2ad9ecc55" x="177.914684" y="332.712247" style="fill: #2adddd; stroke: #2adddd"/>
    </g>
    <g clip-path="url(#p72109524c4)">
     <use xlink:href="#C0_0_f2ad9ecc55" x="315.729631" y="45.998289" style="fill: #8000ff; stroke: #8000ff"/>
    </g>
    <g clip-path="url(#p72109524c4)">
     <use xlink:href="#C0_0_f2ad9ecc55" x="71.331808" y="205.503248" style="fill: #10a2f0; stroke: #10a2f0"/>
    </g>
    <g clip-path="url(#p72109524c4)">
     <use xlink:href="#C0_0_f2ad9ecc55" x="143.430499" y="283.339517" style="fill: #8000ff; stroke: #8000ff"/>
    </g>
    <g clip-path="url(#p72109524c4)">
     <use xlink:href="#C0_0_f2ad9ecc55" x="71.929976" y="172.825206" style="fill: #62fbc4; stroke: #62fbc4"/>
    </g>
    <g clip-path="url(#p72109524c4)">
     <use xlink:href="#C0_0_f2ad9ecc55" x="216.675812" y="201.840249" style="fill: #ffa256; stroke: #ffa256"/>
    </g>
    <g clip-path="url(#p72109524c4)">
     <use xlink:href="#C0_0_f2ad9ecc55" x="152.314791" y="218.580111" style="fill: #ffa256; stroke: #ffa256"/>
    </g>
    <g clip-path="url(#p72109524c4)">
     <use xlink:href="#C0_0_f2ad9ecc55" x="176.262061" y="169.122173" style="fill: #62fbc4; stroke: #62fbc4"/>
    </g>
    <g clip-path="url(#p72109524c4)">
     <use xlink:href="#C0_0_f2ad9ecc55" x="279.716995" y="169.225231" style="fill: #8000ff; stroke: #8000ff"/>
    </g>
    <g clip-path="url(#p72109524c4)">
     <use xlink:href="#C0_0_f2ad9ecc55" x="252.172669" y="37.487603" style="fill: #ffa256; stroke: #ffa256"/>
    </g>
    <g clip-path="url(#p72109524c4)">
     <use xlink:href="#C0_0_f2ad9ecc55" x="111.736979" y="240.57375" style="fill: #2adddd; stroke: #2adddd"/>
    </g>
    <g clip-path="url(#p72109524c4)">
     <use xlink:href="#C0_0_f2ad9ecc55" x="274.639095" y="300.191905" style="fill: #ff562c; stroke: #ff562c"/>
    </g>
    <g clip-path="url(#p72109524c4)">
     <use xlink:href="#C0_0_f2ad9ecc55" x="229.324602" y="229.011559" style="fill: #8000ff; stroke: #8000ff"/>
    </g>
    <g clip-path="url(#p72109524c4)">
     <use xlink:href="#C0_0_f2ad9ecc55" x="59.939343" y="161.092201" style="fill: #62fbc4; stroke: #62fbc4"/>
    </g>
    <g clip-path="url(#p72109524c4)">
     <use xlink:href="#C0_0_f2ad9ecc55" x="235.552243" y="184.300886" style="fill: #ff562c; stroke: #ff562c"/>
    </g>
    <g clip-path="url(#p72109524c4)">
     <use xlink:href="#C0_0_f2ad9ecc55" x="237.986657" y="322.983806" style="fill: #62fbc4; stroke: #62fbc4"/>
    </g>
    <g clip-path="url(#p72109524c4)">
     <use xlink:href="#C0_0_f2ad9ecc55" x="176.307328" y="120.310478" style="fill: #2adddd; stroke: #2adddd"/>
    </g>
    <g clip-path="url(#p72109524c4)">
     <use xlink:href="#C0_0_f2ad9ecc55" x="51.258267" y="181.379666" style="fill: #8000ff; stroke: #8000ff"/>
    </g>
    <g clip-path="url(#p72109524c4)">
     <use xlink:href="#C0_0_f2ad9ecc55" x="283.88065" y="39.205411" style="fill: #ff562c; stroke: #ff562c"/>
    </g>
    <g clip-path="url(#p72109524c4)">
     <use xlink:href="#C0_0_f2ad9ecc55" x="387.59681" y="231.468283" style="fill: #2adddd; stroke: #2adddd"/>
    </g>
    <g clip-path="url(#p72109524c4)">
     <use xlink:href="#C0_0_f2ad9ecc55" x="193.208572" y="120.900386" style="fill: #d4dd80; stroke: #d4dd80"/>
    </g>
    <g clip-path="url(#p72109524c4)">
     <use xlink:href="#C0_0_f2ad9ecc55" x="174.187056" y="229.824027" style="fill: #ff0000; stroke: #ff0000"/>
    </g>
    <g clip-path="url(#p72109524c4)">
     <use xlink:href="#C0_0_f2ad9ecc55" x="71.016187" y="278.135886" style="fill: #8000ff; stroke: #8000ff"/>
    </g>
    <g clip-path="url(#p72109524c4)">
     <use xlink:href="#C0_0_f2ad9ecc55" x="149.174008" y="157.699205" style="fill: #8000ff; stroke: #8000ff"/>
    </g>
    <g clip-path="url(#p72109524c4)">
     <use xlink:href="#C0_0_f2ad9ecc55" x="353.960008" y="276.533551" style="fill: #62fbc4; stroke: #62fbc4"/>
    </g>
    <g clip-path="url(#p72109524c4)">
     <use xlink:href="#C0_0_f2ad9ecc55" x="208.431325" y="292.193362" style="fill: #ffa256; stroke: #ffa256"/>
    </g>
    <g clip-path="url(#p72109524c4)">
     <use xlink:href="#C0_0_f2ad9ecc55" x="171.003531" y="241.084836" style="fill: #62fbc4; stroke: #62fbc4"/>
    </g>
    <g clip-path="url(#p72109524c4)">
     <use xlink:href="#C0_0_f2ad9ecc55" x="331.990436" y="317.862291" style="fill: #62fbc4; stroke: #62fbc4"/>
    </g>
    <g clip-path="url(#p72109524c4)">
     <use xlink:href="#C0_0_f2ad9ecc55" x="126.553413" y="308.305683" style="fill: #8000ff; stroke: #8000ff"/>
    </g>
    <g clip-path="url(#p72109524c4)">
     <use xlink:href="#C0_0_f2ad9ecc55" x="253.453018" y="394.512397" style="fill: #d4dd80; stroke: #d4dd80"/>
    </g>
    <g clip-path="url(#p72109524c4)">
     <use xlink:href="#C0_0_f2ad9ecc55" x="286.576691" y="147.443962" style="fill: #2adddd; stroke: #2adddd"/>
    </g>
    <g clip-path="url(#p72109524c4)">
     <use xlink:href="#C0_0_f2ad9ecc55" x="76.370947" y="121.437783" style="fill: #d4dd80; stroke: #d4dd80"/>
    </g>
    <g clip-path="url(#p72109524c4)">
     <use xlink:href="#C0_0_f2ad9ecc55" x="250.881886" y="237.117764" style="fill: #4856fb; stroke: #4856fb"/>
    </g>
    <g clip-path="url(#p72109524c4)">
     <use xlink:href="#C0_0_f2ad9ecc55" x="460.264463" y="308.611884" style="fill: #8000ff; stroke: #8000ff"/>
    </g>
    <g clip-path="url(#p72109524c4)">
     <use xlink:href="#C0_0_f2ad9ecc55" x="203.076797" y="243.326763" style="fill: #d4dd80; stroke: #d4dd80"/>
    </g>
    <g clip-path="url(#p72109524c4)">
     <use xlink:href="#C0_0_f2ad9ecc55" x="258.799738" y="221.445785" style="fill: #62fbc4; stroke: #62fbc4"/>
    </g>
    <g clip-path="url(#p72109524c4)">
     <use xlink:href="#C0_0_f2ad9ecc55" x="177.828729" y="210.577137" style="fill: #10a2f0; stroke: #10a2f0"/>
    </g>
    <g clip-path="url(#p72109524c4)">
     <use xlink:href="#C0_0_f2ad9ecc55" x="150.902413" y="142.728369" style="fill: #62fbc4; stroke: #62fbc4"/>
    </g>
    <g clip-path="url(#p72109524c4)">
     <use xlink:href="#C0_0_f2ad9ecc55" x="319.746726" y="161.061401" style="fill: #ffa256; stroke: #ffa256"/>
    </g>
    <g clip-path="url(#p72109524c4)">
     <use xlink:href="#C0_0_f2ad9ecc55" x="326.270846" y="192.510584" style="fill: #62fbc4; stroke: #62fbc4"/>
    </g>
    <g clip-path="url(#p72109524c4)">
     <use xlink:href="#C0_0_f2ad9ecc55" x="43.735537" y="202.739106" style="fill: #d4dd80; stroke: #d4dd80"/>
    </g>
    <g clip-path="url(#p72109524c4)">
     <use xlink:href="#C0_0_f2ad9ecc55" x="204.160592" y="160.386347" style="fill: #62fbc4; stroke: #62fbc4"/>
    </g>
    <g clip-path="url(#p72109524c4)">
     <use xlink:href="#C0_0_f2ad9ecc55" x="404.254463" y="119.67221" style="fill: #8000ff; stroke: #8000ff"/>
    </g>
    <g clip-path="url(#p72109524c4)">
     <use xlink:href="#C0_0_f2ad9ecc55" x="275.163742" y="260.808634" style="fill: #ff0000; stroke: #ff0000"/>
    </g>
    <g clip-path="url(#p72109524c4)">
     <use xlink:href="#C0_0_f2ad9ecc55" x="332.124274" y="175.999338" style="fill: #62fbc4; stroke: #62fbc4"/>
    </g>
    <g clip-path="url(#p72109524c4)">
     <use xlink:href="#C0_0_f2ad9ecc55" x="259.086308" y="316.418408" style="fill: #d4dd80; stroke: #d4dd80"/>
    </g>
    <g clip-path="url(#p72109524c4)">
     <use xlink:href="#C0_0_f2ad9ecc55" x="48.474984" y="224.847077" style="fill: #ffa256; stroke: #ffa256"/>
    </g>
    <g clip-path="url(#p72109524c4)">
     <use xlink:href="#C0_0_f2ad9ecc55" x="309.177842" y="179.980148" style="fill: #ffa256; stroke: #ffa256"/>
    </g>
    <g clip-path="url(#p72109524c4)">
     <use xlink:href="#C0_0_f2ad9ecc55" x="281.81919" y="248.075947" style="fill: #2adddd; stroke: #2adddd"/>
    </g>
    <g clip-path="url(#p72109524c4)">
     <use xlink:href="#C0_0_f2ad9ecc55" x="298.345636" y="251.845514" style="fill: #8000ff; stroke: #8000ff"/>
    </g>
    <g clip-path="url(#p72109524c4)">
     <use xlink:href="#C0_0_f2ad9ecc55" x="62.808102" y="238.45527" style="fill: #ff0000; stroke: #ff0000"/>
    </g>
    <g clip-path="url(#p72109524c4)">
     <use xlink:href="#C0_0_f2ad9ecc55" x="96.076536" y="281.147205" style="fill: #2adddd; stroke: #2adddd"/>
    </g>
    <g clip-path="url(#p72109524c4)">
     <use xlink:href="#C0_0_f2ad9ecc55" x="309.947764" y="142.894313" style="fill: #10a2f0; stroke: #10a2f0"/>
    </g>
    <g clip-path="url(#p72109524c4)">
     <use xlink:href="#C0_0_f2ad9ecc55" x="153.782225" y="304.678898" style="fill: #62fbc4; stroke: #62fbc4"/>
    </g>
    <g clip-path="url(#p72109524c4)">
     <use xlink:href="#C0_0_f2ad9ecc55" x="177.100625" y="245.498779" style="fill: #62fbc4; stroke: #62fbc4"/>
    </g>
    <g clip-path="url(#p72109524c4)">
     <use xlink:href="#C0_0_f2ad9ecc55" x="249.362611" y="117.436845" style="fill: #8000ff; stroke: #8000ff"/>
    </g>
    <g clip-path="url(#p72109524c4)">
     <use xlink:href="#C0_0_f2ad9ecc55" x="276.4076" y="325.208792" style="fill: #ffa256; stroke: #ffa256"/>
    </g>
    <g clip-path="url(#p72109524c4)">
     <use xlink:href="#C0_0_f2ad9ecc55" x="391.202765" y="97.444185" style="fill: #8000ff; stroke: #8000ff"/>
    </g>
   </g>
   <g id="text_1">
    <!-- Colored Graph - jean -->
    <g transform="translate(189.840937 -6) scale(0.12 -0.12)">
     <defs>
      <path id="DejaVuSans-43" d="M 4122 4306 
L 4122 3641 
Q 3803 3938 3442 4084 
Q 3081 4231 2675 4231 
Q 1875 4231 1450 3742 
Q 1025 3253 1025 2328 
Q 1025 1406 1450 917 
Q 1875 428 2675 428 
Q 3081 428 3442 575 
Q 3803 722 4122 1019 
L 4122 359 
Q 3791 134 3420 21 
Q 3050 -91 2638 -91 
Q 1578 -91 968 557 
Q 359 1206 359 2328 
Q 359 3453 968 4101 
Q 1578 4750 2638 4750 
Q 3056 4750 3426 4639 
Q 3797 4528 4122 4306 
z
" transform="scale(0.015625)"/>
      <path id="DejaVuSans-6f" d="M 1959 3097 
Q 1497 3097 1228 2736 
Q 959 2375 959 1747 
Q 959 1119 1226 758 
Q 1494 397 1959 397 
Q 2419 397 2687 759 
Q 2956 1122 2956 1747 
Q 2956 2369 2687 2733 
Q 2419 3097 1959 3097 
z
M 1959 3584 
Q 2709 3584 3137 3096 
Q 3566 2609 3566 1747 
Q 3566 888 3137 398 
Q 2709 -91 1959 -91 
Q 1206 -91 779 398 
Q 353 888 353 1747 
Q 353 2609 779 3096 
Q 1206 3584 1959 3584 
z
" transform="scale(0.015625)"/>
      <path id="DejaVuSans-6c" d="M 603 4863 
L 1178 4863 
L 1178 0 
L 603 0 
L 603 4863 
z
" transform="scale(0.015625)"/>
      <path id="DejaVuSans-72" d="M 2631 2963 
Q 2534 3019 2420 3045 
Q 2306 3072 2169 3072 
Q 1681 3072 1420 2755 
Q 1159 2438 1159 1844 
L 1159 0 
L 581 0 
L 581 3500 
L 1159 3500 
L 1159 2956 
Q 1341 3275 1631 3429 
Q 1922 3584 2338 3584 
Q 2397 3584 2469 3576 
Q 2541 3569 2628 3553 
L 2631 2963 
z
" transform="scale(0.015625)"/>
      <path id="DejaVuSans-65" d="M 3597 1894 
L 3597 1613 
L 953 1613 
Q 991 1019 1311 708 
Q 1631 397 2203 397 
Q 2534 397 2845 478 
Q 3156 559 3463 722 
L 3463 178 
Q 3153 47 2828 -22 
Q 2503 -91 2169 -91 
Q 1331 -91 842 396 
Q 353 884 353 1716 
Q 353 2575 817 3079 
Q 1281 3584 2069 3584 
Q 2775 3584 3186 3129 
Q 3597 2675 3597 1894 
z
M 3022 2063 
Q 3016 2534 2758 2815 
Q 2500 3097 2075 3097 
Q 1594 3097 1305 2825 
Q 1016 2553 972 2059 
L 3022 2063 
z
" transform="scale(0.015625)"/>
      <path id="DejaVuSans-64" d="M 2906 2969 
L 2906 4863 
L 3481 4863 
L 3481 0 
L 2906 0 
L 2906 525 
Q 2725 213 2448 61 
Q 2172 -91 1784 -91 
Q 1150 -91 751 415 
Q 353 922 353 1747 
Q 353 2572 751 3078 
Q 1150 3584 1784 3584 
Q 2172 3584 2448 3432 
Q 2725 3281 2906 2969 
z
M 947 1747 
Q 947 1113 1208 752 
Q 1469 391 1925 391 
Q 2381 391 2643 752 
Q 2906 1113 2906 1747 
Q 2906 2381 2643 2742 
Q 2381 3103 1925 3103 
Q 1469 3103 1208 2742 
Q 947 2381 947 1747 
z
" transform="scale(0.015625)"/>
      <path id="DejaVuSans-20" transform="scale(0.015625)"/>
      <path id="DejaVuSans-47" d="M 3809 666 
L 3809 1919 
L 2778 1919 
L 2778 2438 
L 4434 2438 
L 4434 434 
Q 4069 175 3628 42 
Q 3188 -91 2688 -91 
Q 1594 -91 976 548 
Q 359 1188 359 2328 
Q 359 3472 976 4111 
Q 1594 4750 2688 4750 
Q 3144 4750 3555 4637 
Q 3966 4525 4313 4306 
L 4313 3634 
Q 3963 3931 3569 4081 
Q 3175 4231 2741 4231 
Q 1884 4231 1454 3753 
Q 1025 3275 1025 2328 
Q 1025 1384 1454 906 
Q 1884 428 2741 428 
Q 3075 428 3337 486 
Q 3600 544 3809 666 
z
" transform="scale(0.015625)"/>
      <path id="DejaVuSans-61" d="M 2194 1759 
Q 1497 1759 1228 1600 
Q 959 1441 959 1056 
Q 959 750 1161 570 
Q 1363 391 1709 391 
Q 2188 391 2477 730 
Q 2766 1069 2766 1631 
L 2766 1759 
L 2194 1759 
z
M 3341 1997 
L 3341 0 
L 2766 0 
L 2766 531 
Q 2569 213 2275 61 
Q 1981 -91 1556 -91 
Q 1019 -91 701 211 
Q 384 513 384 1019 
Q 384 1609 779 1909 
Q 1175 2209 1959 2209 
L 2766 2209 
L 2766 2266 
Q 2766 2663 2505 2880 
Q 2244 3097 1772 3097 
Q 1472 3097 1187 3025 
Q 903 2953 641 2809 
L 641 3341 
Q 956 3463 1253 3523 
Q 1550 3584 1831 3584 
Q 2591 3584 2966 3190 
Q 3341 2797 3341 1997 
z
" transform="scale(0.015625)"/>
      <path id="DejaVuSans-70" d="M 1159 525 
L 1159 -1331 
L 581 -1331 
L 581 3500 
L 1159 3500 
L 1159 2969 
Q 1341 3281 1617 3432 
Q 1894 3584 2278 3584 
Q 2916 3584 3314 3078 
Q 3713 2572 3713 1747 
Q 3713 922 3314 415 
Q 2916 -91 2278 -91 
Q 1894 -91 1617 61 
Q 1341 213 1159 525 
z
M 3116 1747 
Q 3116 2381 2855 2742 
Q 2594 3103 2138 3103 
Q 1681 3103 1420 2742 
Q 1159 2381 1159 1747 
Q 1159 1113 1420 752 
Q 1681 391 2138 391 
Q 2594 391 2855 752 
Q 3116 1113 3116 1747 
z
" transform="scale(0.015625)"/>
      <path id="DejaVuSans-68" d="M 3513 2113 
L 3513 0 
L 2938 0 
L 2938 2094 
Q 2938 2591 2744 2837 
Q 2550 3084 2163 3084 
Q 1697 3084 1428 2787 
Q 1159 2491 1159 1978 
L 1159 0 
L 581 0 
L 581 4863 
L 1159 4863 
L 1159 2956 
Q 1366 3272 1645 3428 
Q 1925 3584 2291 3584 
Q 2894 3584 3203 3211 
Q 3513 2838 3513 2113 
z
" transform="scale(0.015625)"/>
      <path id="DejaVuSans-2d" d="M 313 2009 
L 1997 2009 
L 1997 1497 
L 313 1497 
L 313 2009 
z
" transform="scale(0.015625)"/>
      <path id="DejaVuSans-6a" d="M 603 3500 
L 1178 3500 
L 1178 -63 
Q 1178 -731 923 -1031 
Q 669 -1331 103 -1331 
L -116 -1331 
L -116 -844 
L 38 -844 
Q 366 -844 484 -692 
Q 603 -541 603 -63 
L 603 3500 
z
M 603 4863 
L 1178 4863 
L 1178 4134 
L 603 4134 
L 603 4863 
z
" transform="scale(0.015625)"/>
      <path id="DejaVuSans-6e" d="M 3513 2113 
L 3513 0 
L 2938 0 
L 2938 2094 
Q 2938 2591 2744 2837 
Q 2550 3084 2163 3084 
Q 1697 3084 1428 2787 
Q 1159 2491 1159 1978 
L 1159 0 
L 581 0 
L 581 3500 
L 1159 3500 
L 1159 2956 
Q 1366 3272 1645 3428 
Q 1925 3584 2291 3584 
Q 2894 3584 3203 3211 
Q 3513 2838 3513 2113 
z
" transform="scale(0.015625)"/>
     </defs>
     <use xlink:href="#DejaVuSans-43"/>
     <use xlink:href="#DejaVuSans-6f" transform="translate(69.824219 0)"/>
     <use xlink:href="#DejaVuSans-6c" transform="translate(131.005859 0)"/>
     <use xlink:href="#DejaVuSans-6f" transform="translate(158.789062 0)"/>
     <use xlink:href="#DejaVuSans-72" transform="translate(219.970703 0)"/>
     <use xlink:href="#DejaVuSans-65" transform="translate(258.833984 0)"/>
     <use xlink:href="#DejaVuSans-64" transform="translate(320.357422 0)"/>
     <use xlink:href="#DejaVuSans-20" transform="translate(383.833984 0)"/>
     <use xlink:href="#DejaVuSans-47" transform="translate(415.621094 0)"/>
     <use xlink:href="#DejaVuSans-72" transform="translate(493.111328 0)"/>
     <use xlink:href="#DejaVuSans-61" transform="translate(534.224609 0)"/>
     <use xlink:href="#DejaVuSans-70" transform="translate(595.503906 0)"/>
     <use xlink:href="#DejaVuSans-68" transform="translate(658.980469 0)"/>
     <use xlink:href="#DejaVuSans-20" transform="translate(722.359375 0)"/>
     <use xlink:href="#DejaVuSans-2d" transform="translate(754.146484 0)"/>
     <use xlink:href="#DejaVuSans-20" transform="translate(790.230469 0)"/>
     <use xlink:href="#DejaVuSans-6a" transform="translate(822.017578 0)"/>
     <use xlink:href="#DejaVuSans-65" transform="translate(849.800781 0)"/>
     <use xlink:href="#DejaVuSans-61" transform="translate(911.324219 0)"/>
     <use xlink:href="#DejaVuSans-6e" transform="translate(972.603516 0)"/>
    </g>
   </g>
   <g id="legend_1">
    <g id="patch_2">
     <path d="M 536.2 169.459375 
L 610.2125 169.459375 
Q 612.2125 169.459375 612.2125 167.459375 
L 612.2125 7 
Q 612.2125 5 610.2125 5 
L 536.2 5 
Q 534.2 5 534.2 7 
L 534.2 167.459375 
Q 534.2 169.459375 536.2 169.459375 
z
" style="fill: #ffffff; opacity: 0.8; stroke: #cccccc; stroke-linejoin: miter"/>
    </g>
    <g id="text_2">
     <!-- Colors -->
     <g transform="translate(557.546875 16.598437) scale(0.1 -0.1)">
      <defs>
       <path id="DejaVuSans-73" d="M 2834 3397 
L 2834 2853 
Q 2591 2978 2328 3040 
Q 2066 3103 1784 3103 
Q 1356 3103 1142 2972 
Q 928 2841 928 2578 
Q 928 2378 1081 2264 
Q 1234 2150 1697 2047 
L 1894 2003 
Q 2506 1872 2764 1633 
Q 3022 1394 3022 966 
Q 3022 478 2636 193 
Q 2250 -91 1575 -91 
Q 1294 -91 989 -36 
Q 684 19 347 128 
L 347 722 
Q 666 556 975 473 
Q 1284 391 1588 391 
Q 1994 391 2212 530 
Q 2431 669 2431 922 
Q 2431 1156 2273 1281 
Q 2116 1406 1581 1522 
L 1381 1569 
Q 847 1681 609 1914 
Q 372 2147 372 2553 
Q 372 3047 722 3315 
Q 1072 3584 1716 3584 
Q 2034 3584 2315 3537 
Q 2597 3491 2834 3397 
z
" transform="scale(0.015625)"/>
      </defs>
      <use xlink:href="#DejaVuSans-43"/>
      <use xlink:href="#DejaVuSans-6f" transform="translate(69.824219 0)"/>
      <use xlink:href="#DejaVuSans-6c" transform="translate(131.005859 0)"/>
      <use xlink:href="#DejaVuSans-6f" transform="translate(158.789062 0)"/>
      <use xlink:href="#DejaVuSans-72" transform="translate(219.970703 0)"/>
      <use xlink:href="#DejaVuSans-73" transform="translate(261.083984 0)"/>
     </g>
    </g>
    <g id="patch_3">
     <path d="M 538.2 31.276562 
L 558.2 31.276562 
L 558.2 24.276562 
L 538.2 24.276562 
z
" style="fill: #4e4dfc; stroke: #4e4dfc; stroke-linejoin: miter"/>
    </g>
    <g id="text_3">
     <!-- Color 1 -->
     <g transform="translate(566.2 31.276562) scale(0.1 -0.1)">
      <defs>
       <path id="DejaVuSans-31" d="M 794 531 
L 1825 531 
L 1825 4091 
L 703 3866 
L 703 4441 
L 1819 4666 
L 2450 4666 
L 2450 531 
L 3481 531 
L 3481 0 
L 794 0 
L 794 531 
z
" transform="scale(0.015625)"/>
      </defs>
      <use xlink:href="#DejaVuSans-43"/>
      <use xlink:href="#DejaVuSans-6f" transform="translate(69.824219 0)"/>
      <use xlink:href="#DejaVuSans-6c" transform="translate(131.005859 0)"/>
      <use xlink:href="#DejaVuSans-6f" transform="translate(158.789062 0)"/>
      <use xlink:href="#DejaVuSans-72" transform="translate(219.970703 0)"/>
      <use xlink:href="#DejaVuSans-20" transform="translate(261.083984 0)"/>
      <use xlink:href="#DejaVuSans-31" transform="translate(292.871094 0)"/>
     </g>
    </g>
    <g id="patch_4">
     <path d="M 538.2 45.954687 
L 558.2 45.954687 
L 558.2 38.954687 
L 538.2 38.954687 
z
" style="fill: #1996f3; stroke: #1996f3; stroke-linejoin: miter"/>
    </g>
    <g id="text_4">
     <!-- Color 2 -->
     <g transform="translate(566.2 45.954687) scale(0.1 -0.1)">
      <defs>
       <path id="DejaVuSans-32" d="M 1228 531 
L 3431 531 
L 3431 0 
L 469 0 
L 469 531 
Q 828 903 1448 1529 
Q 2069 2156 2228 2338 
Q 2531 2678 2651 2914 
Q 2772 3150 2772 3378 
Q 2772 3750 2511 3984 
Q 2250 4219 1831 4219 
Q 1534 4219 1204 4116 
Q 875 4013 500 3803 
L 500 4441 
Q 881 4594 1212 4672 
Q 1544 4750 1819 4750 
Q 2544 4750 2975 4387 
Q 3406 4025 3406 3419 
Q 3406 3131 3298 2873 
Q 3191 2616 2906 2266 
Q 2828 2175 2409 1742 
Q 1991 1309 1228 531 
z
" transform="scale(0.015625)"/>
      </defs>
      <use xlink:href="#DejaVuSans-43"/>
      <use xlink:href="#DejaVuSans-6f" transform="translate(69.824219 0)"/>
      <use xlink:href="#DejaVuSans-6c" transform="translate(131.005859 0)"/>
      <use xlink:href="#DejaVuSans-6f" transform="translate(158.789062 0)"/>
      <use xlink:href="#DejaVuSans-72" transform="translate(219.970703 0)"/>
      <use xlink:href="#DejaVuSans-20" transform="translate(261.083984 0)"/>
      <use xlink:href="#DejaVuSans-32" transform="translate(292.871094 0)"/>
     </g>
    </g>
    <g id="patch_5">
     <path d="M 538.2 60.632812 
L 558.2 60.632812 
L 558.2 53.632812 
L 538.2 53.632812 
z
" style="fill: #18cde4; stroke: #18cde4; stroke-linejoin: miter"/>
    </g>
    <g id="text_5">
     <!-- Color 3 -->
     <g transform="translate(566.2 60.632812) scale(0.1 -0.1)">
      <defs>
       <path id="DejaVuSans-33" d="M 2597 2516 
Q 3050 2419 3304 2112 
Q 3559 1806 3559 1356 
Q 3559 666 3084 287 
Q 2609 -91 1734 -91 
Q 1441 -91 1130 -33 
Q 819 25 488 141 
L 488 750 
Q 750 597 1062 519 
Q 1375 441 1716 441 
Q 2309 441 2620 675 
Q 2931 909 2931 1356 
Q 2931 1769 2642 2001 
Q 2353 2234 1838 2234 
L 1294 2234 
L 1294 2753 
L 1863 2753 
Q 2328 2753 2575 2939 
Q 2822 3125 2822 3475 
Q 2822 3834 2567 4026 
Q 2313 4219 1838 4219 
Q 1578 4219 1281 4162 
Q 984 4106 628 3988 
L 628 4550 
Q 988 4650 1302 4700 
Q 1616 4750 1894 4750 
Q 2613 4750 3031 4423 
Q 3450 4097 3450 3541 
Q 3450 3153 3228 2886 
Q 3006 2619 2597 2516 
z
" transform="scale(0.015625)"/>
      </defs>
      <use xlink:href="#DejaVuSans-43"/>
      <use xlink:href="#DejaVuSans-6f" transform="translate(69.824219 0)"/>
      <use xlink:href="#DejaVuSans-6c" transform="translate(131.005859 0)"/>
      <use xlink:href="#DejaVuSans-6f" transform="translate(158.789062 0)"/>
      <use xlink:href="#DejaVuSans-72" transform="translate(219.970703 0)"/>
      <use xlink:href="#DejaVuSans-20" transform="translate(261.083984 0)"/>
      <use xlink:href="#DejaVuSans-33" transform="translate(292.871094 0)"/>
     </g>
    </g>
    <g id="patch_6">
     <path d="M 538.2 75.310937 
L 558.2 75.310937 
L 558.2 68.310937 
L 538.2 68.310937 
z
" style="fill: #4df3ce; stroke: #4df3ce; stroke-linejoin: miter"/>
    </g>
    <g id="text_6">
     <!-- Color 4 -->
     <g transform="translate(566.2 75.310937) scale(0.1 -0.1)">
      <defs>
       <path id="DejaVuSans-34" d="M 2419 4116 
L 825 1625 
L 2419 1625 
L 2419 4116 
z
M 2253 4666 
L 3047 4666 
L 3047 1625 
L 3713 1625 
L 3713 1100 
L 3047 1100 
L 3047 0 
L 2419 0 
L 2419 1100 
L 313 1100 
L 313 1709 
L 2253 4666 
z
" transform="scale(0.015625)"/>
      </defs>
      <use xlink:href="#DejaVuSans-43"/>
      <use xlink:href="#DejaVuSans-6f" transform="translate(69.824219 0)"/>
      <use xlink:href="#DejaVuSans-6c" transform="translate(131.005859 0)"/>
      <use xlink:href="#DejaVuSans-6f" transform="translate(158.789062 0)"/>
      <use xlink:href="#DejaVuSans-72" transform="translate(219.970703 0)"/>
      <use xlink:href="#DejaVuSans-20" transform="translate(261.083984 0)"/>
      <use xlink:href="#DejaVuSans-34" transform="translate(292.871094 0)"/>
     </g>
    </g>
    <g id="patch_7">
     <path d="M 538.2 89.989062 
L 558.2 89.989062 
L 558.2 82.989062 
L 538.2 82.989062 
z
" style="fill: #80ffb4; stroke: #80ffb4; stroke-linejoin: miter"/>
    </g>
    <g id="text_7">
     <!-- Color 5 -->
     <g transform="translate(566.2 89.989062) scale(0.1 -0.1)">
      <defs>
       <path id="DejaVuSans-35" d="M 691 4666 
L 3169 4666 
L 3169 4134 
L 1269 4134 
L 1269 2991 
Q 1406 3038 1543 3061 
Q 1681 3084 1819 3084 
Q 2600 3084 3056 2656 
Q 3513 2228 3513 1497 
Q 3513 744 3044 326 
Q 2575 -91 1722 -91 
Q 1428 -91 1123 -41 
Q 819 9 494 109 
L 494 744 
Q 775 591 1075 516 
Q 1375 441 1709 441 
Q 2250 441 2565 725 
Q 2881 1009 2881 1497 
Q 2881 1984 2565 2268 
Q 2250 2553 1709 2553 
Q 1456 2553 1204 2497 
Q 953 2441 691 2322 
L 691 4666 
z
" transform="scale(0.015625)"/>
      </defs>
      <use xlink:href="#DejaVuSans-43"/>
      <use xlink:href="#DejaVuSans-6f" transform="translate(69.824219 0)"/>
      <use xlink:href="#DejaVuSans-6c" transform="translate(131.005859 0)"/>
      <use xlink:href="#DejaVuSans-6f" transform="translate(158.789062 0)"/>
      <use xlink:href="#DejaVuSans-72" transform="translate(219.970703 0)"/>
      <use xlink:href="#DejaVuSans-20" transform="translate(261.083984 0)"/>
      <use xlink:href="#DejaVuSans-35" transform="translate(292.871094 0)"/>
     </g>
    </g>
    <g id="patch_8">
     <path d="M 538.2 104.667187 
L 558.2 104.667187 
L 558.2 97.667187 
L 538.2 97.667187 
z
" style="fill: #b2f396; stroke: #b2f396; stroke-linejoin: miter"/>
    </g>
    <g id="text_8">
     <!-- Color 6 -->
     <g transform="translate(566.2 104.667187) scale(0.1 -0.1)">
      <defs>
       <path id="DejaVuSans-36" d="M 2113 2584 
Q 1688 2584 1439 2293 
Q 1191 2003 1191 1497 
Q 1191 994 1439 701 
Q 1688 409 2113 409 
Q 2538 409 2786 701 
Q 3034 994 3034 1497 
Q 3034 2003 2786 2293 
Q 2538 2584 2113 2584 
z
M 3366 4563 
L 3366 3988 
Q 3128 4100 2886 4159 
Q 2644 4219 2406 4219 
Q 1781 4219 1451 3797 
Q 1122 3375 1075 2522 
Q 1259 2794 1537 2939 
Q 1816 3084 2150 3084 
Q 2853 3084 3261 2657 
Q 3669 2231 3669 1497 
Q 3669 778 3244 343 
Q 2819 -91 2113 -91 
Q 1303 -91 875 529 
Q 447 1150 447 2328 
Q 447 3434 972 4092 
Q 1497 4750 2381 4750 
Q 2619 4750 2861 4703 
Q 3103 4656 3366 4563 
z
" transform="scale(0.015625)"/>
      </defs>
      <use xlink:href="#DejaVuSans-43"/>
      <use xlink:href="#DejaVuSans-6f" transform="translate(69.824219 0)"/>
      <use xlink:href="#DejaVuSans-6c" transform="translate(131.005859 0)"/>
      <use xlink:href="#DejaVuSans-6f" transform="translate(158.789062 0)"/>
      <use xlink:href="#DejaVuSans-72" transform="translate(219.970703 0)"/>
      <use xlink:href="#DejaVuSans-20" transform="translate(261.083984 0)"/>
      <use xlink:href="#DejaVuSans-36" transform="translate(292.871094 0)"/>
     </g>
    </g>
    <g id="patch_9">
     <path d="M 538.2 119.345312 
L 558.2 119.345312 
L 558.2 112.345312 
L 538.2 112.345312 
z
" style="fill: #e6cd73; stroke: #e6cd73; stroke-linejoin: miter"/>
    </g>
    <g id="text_9">
     <!-- Color 7 -->
     <g transform="translate(566.2 119.345312) scale(0.1 -0.1)">
      <defs>
       <path id="DejaVuSans-37" d="M 525 4666 
L 3525 4666 
L 3525 4397 
L 1831 0 
L 1172 0 
L 2766 4134 
L 525 4134 
L 525 4666 
z
" transform="scale(0.015625)"/>
      </defs>
      <use xlink:href="#DejaVuSans-43"/>
      <use xlink:href="#DejaVuSans-6f" transform="translate(69.824219 0)"/>
      <use xlink:href="#DejaVuSans-6c" transform="translate(131.005859 0)"/>
      <use xlink:href="#DejaVuSans-6f" transform="translate(158.789062 0)"/>
      <use xlink:href="#DejaVuSans-72" transform="translate(219.970703 0)"/>
      <use xlink:href="#DejaVuSans-20" transform="translate(261.083984 0)"/>
      <use xlink:href="#DejaVuSans-37" transform="translate(292.871094 0)"/>
     </g>
    </g>
    <g id="patch_10">
     <path d="M 538.2 134.023437 
L 558.2 134.023437 
L 558.2 127.023437 
L 538.2 127.023437 
z
" style="fill: #ff964f; stroke: #ff964f; stroke-linejoin: miter"/>
    </g>
    <g id="text_10">
     <!-- Color 8 -->
     <g transform="translate(566.2 134.023437) scale(0.1 -0.1)">
      <defs>
       <path id="DejaVuSans-38" d="M 2034 2216 
Q 1584 2216 1326 1975 
Q 1069 1734 1069 1313 
Q 1069 891 1326 650 
Q 1584 409 2034 409 
Q 2484 409 2743 651 
Q 3003 894 3003 1313 
Q 3003 1734 2745 1975 
Q 2488 2216 2034 2216 
z
M 1403 2484 
Q 997 2584 770 2862 
Q 544 3141 544 3541 
Q 544 4100 942 4425 
Q 1341 4750 2034 4750 
Q 2731 4750 3128 4425 
Q 3525 4100 3525 3541 
Q 3525 3141 3298 2862 
Q 3072 2584 2669 2484 
Q 3125 2378 3379 2068 
Q 3634 1759 3634 1313 
Q 3634 634 3220 271 
Q 2806 -91 2034 -91 
Q 1263 -91 848 271 
Q 434 634 434 1313 
Q 434 1759 690 2068 
Q 947 2378 1403 2484 
z
M 1172 3481 
Q 1172 3119 1398 2916 
Q 1625 2713 2034 2713 
Q 2441 2713 2670 2916 
Q 2900 3119 2900 3481 
Q 2900 3844 2670 4047 
Q 2441 4250 2034 4250 
Q 1625 4250 1398 4047 
Q 1172 3844 1172 3481 
z
" transform="scale(0.015625)"/>
      </defs>
      <use xlink:href="#DejaVuSans-43"/>
      <use xlink:href="#DejaVuSans-6f" transform="translate(69.824219 0)"/>
      <use xlink:href="#DejaVuSans-6c" transform="translate(131.005859 0)"/>
      <use xlink:href="#DejaVuSans-6f" transform="translate(158.789062 0)"/>
      <use xlink:href="#DejaVuSans-72" transform="translate(219.970703 0)"/>
      <use xlink:href="#DejaVuSans-20" transform="translate(261.083984 0)"/>
      <use xlink:href="#DejaVuSans-38" transform="translate(292.871094 0)"/>
     </g>
    </g>
    <g id="patch_11">
     <path d="M 538.2 148.701562 
L 558.2 148.701562 
L 558.2 141.701562 
L 538.2 141.701562 
z
" style="fill: #ff4d27; stroke: #ff4d27; stroke-linejoin: miter"/>
    </g>
    <g id="text_11">
     <!-- Color 9 -->
     <g transform="translate(566.2 148.701562) scale(0.1 -0.1)">
      <defs>
       <path id="DejaVuSans-39" d="M 703 97 
L 703 672 
Q 941 559 1184 500 
Q 1428 441 1663 441 
Q 2288 441 2617 861 
Q 2947 1281 2994 2138 
Q 2813 1869 2534 1725 
Q 2256 1581 1919 1581 
Q 1219 1581 811 2004 
Q 403 2428 403 3163 
Q 403 3881 828 4315 
Q 1253 4750 1959 4750 
Q 2769 4750 3195 4129 
Q 3622 3509 3622 2328 
Q 3622 1225 3098 567 
Q 2575 -91 1691 -91 
Q 1453 -91 1209 -44 
Q 966 3 703 97 
z
M 1959 2075 
Q 2384 2075 2632 2365 
Q 2881 2656 2881 3163 
Q 2881 3666 2632 3958 
Q 2384 4250 1959 4250 
Q 1534 4250 1286 3958 
Q 1038 3666 1038 3163 
Q 1038 2656 1286 2365 
Q 1534 2075 1959 2075 
z
" transform="scale(0.015625)"/>
      </defs>
      <use xlink:href="#DejaVuSans-43"/>
      <use xlink:href="#DejaVuSans-6f" transform="translate(69.824219 0)"/>
      <use xlink:href="#DejaVuSans-6c" transform="translate(131.005859 0)"/>
      <use xlink:href="#DejaVuSans-6f" transform="translate(158.789062 0)"/>
      <use xlink:href="#DejaVuSans-72" transform="translate(219.970703 0)"/>
      <use xlink:href="#DejaVuSans-20" transform="translate(261.083984 0)"/>
      <use xlink:href="#DejaVuSans-39" transform="translate(292.871094 0)"/>
     </g>
    </g>
    <g id="patch_12">
     <path d="M 538.2 163.379687 
L 558.2 163.379687 
L 558.2 156.379687 
L 538.2 156.379687 
z
" style="fill: #ff0000; stroke: #ff0000; stroke-linejoin: miter"/>
    </g>
    <g id="text_12">
     <!-- Color 10 -->
     <g transform="translate(566.2 163.379687) scale(0.1 -0.1)">
      <defs>
       <path id="DejaVuSans-30" d="M 2034 4250 
Q 1547 4250 1301 3770 
Q 1056 3291 1056 2328 
Q 1056 1369 1301 889 
Q 1547 409 2034 409 
Q 2525 409 2770 889 
Q 3016 1369 3016 2328 
Q 3016 3291 2770 3770 
Q 2525 4250 2034 4250 
z
M 2034 4750 
Q 2819 4750 3233 4129 
Q 3647 3509 3647 2328 
Q 3647 1150 3233 529 
Q 2819 -91 2034 -91 
Q 1250 -91 836 529 
Q 422 1150 422 2328 
Q 422 3509 836 4129 
Q 1250 4750 2034 4750 
z
" transform="scale(0.015625)"/>
      </defs>
      <use xlink:href="#DejaVuSans-43"/>
      <use xlink:href="#DejaVuSans-6f" transform="translate(69.824219 0)"/>
      <use xlink:href="#DejaVuSans-6c" transform="translate(131.005859 0)"/>
      <use xlink:href="#DejaVuSans-6f" transform="translate(158.789062 0)"/>
      <use xlink:href="#DejaVuSans-72" transform="translate(219.970703 0)"/>
      <use xlink:href="#DejaVuSans-20" transform="translate(261.083984 0)"/>
      <use xlink:href="#DejaVuSans-31" transform="translate(292.871094 0)"/>
      <use xlink:href="#DejaVuSans-30" transform="translate(356.494141 0)"/>
     </g>
    </g>
   </g>
  </g>
 </g>
 <defs>
  <clipPath id="p72109524c4">
   <rect x="0" y="0" width="504" height="432"/>
  </clipPath>
 </defs>
</svg>
