<?xml version="1.0" encoding="utf-8" standalone="no"?>
<!DOCTYPE svg PUBLIC "-//W3C//DTD SVG 1.1//EN"
  "http://www.w3.org/Graphics/SVG/1.1/DTD/svg11.dtd">
<svg xmlns:xlink="http://www.w3.org/1999/xlink" width="504pt" height="432pt" viewBox="0 0 504 432" xmlns="http://www.w3.org/2000/svg" version="1.1">
 <metadata>
  <rdf:RDF xmlns:dc="http://purl.org/dc/elements/1.1/" xmlns:cc="http://creativecommons.org/ns#" xmlns:rdf="http://www.w3.org/1999/02/22-rdf-syntax-ns#">
   <cc:Work>
    <dc:type rdf:resource="http://purl.org/dc/dcmitype/StillImage"/>
    <dc:date>2025-06-04T21:41:33.368873</dc:date>
    <dc:format>image/svg+xml</dc:format>
    <dc:creator>
     <cc:Agent>
      <dc:title>Matplotlib v3.10.1, https://matplotlib.org/</dc:title>
     </cc:Agent>
    </dc:creator>
   </cc:Work>
  </rdf:RDF>
 </metadata>
 <defs>
  <style type="text/css">*{stroke-linejoin: round; stroke-linecap: butt}</style>
 </defs>
 <g id="figure_1">
  <g id="patch_1">
   <path d="M 0 432 
L 504 432 
L 504 0 
L 0 0 
z
" style="fill: #ffffff"/>
  </g>
  <g id="axes_1">
   <g id="LineCollection_1">
    <path d="M 430.018526 96.056954 
L 402.795141 157.611176 
" clip-path="url(#p59bdce8c6e)" style="fill: none; stroke: #d3d3d3"/>
    <path d="M 430.018526 96.056954 
L 261.693399 204.357371 
" clip-path="url(#p59bdce8c6e)" style="fill: none; stroke: #d3d3d3"/>
    <path d="M 430.018526 96.056954 
L 316.2502 274.910751 
" clip-path="url(#p59bdce8c6e)" style="fill: none; stroke: #d3d3d3"/>
    <path d="M 430.018526 96.056954 
L 388.243927 320.341488 
" clip-path="url(#p59bdce8c6e)" style="fill: none; stroke: #d3d3d3"/>
    <path d="M 430.018526 96.056954 
L 351.920715 388.92567 
" clip-path="url(#p59bdce8c6e)" style="fill: none; stroke: #d3d3d3"/>
    <path d="M 430.018526 96.056954 
L 234.146464 111.019169 
" clip-path="url(#p59bdce8c6e)" style="fill: none; stroke: #d3d3d3"/>
    <path d="M 430.018526 96.056954 
L 326.122806 226.422128 
" clip-path="url(#p59bdce8c6e)" style="fill: none; stroke: #d3d3d3"/>
    <path d="M 430.018526 96.056954 
L 196.704957 37.487603 
" clip-path="url(#p59bdce8c6e)" style="fill: none; stroke: #d3d3d3"/>
    <path d="M 430.018526 96.056954 
L 349.595892 121.29274 
" clip-path="url(#p59bdce8c6e)" style="fill: none; stroke: #d3d3d3"/>
    <path d="M 430.018526 96.056954 
L 131.317007 204.398819 
" clip-path="url(#p59bdce8c6e)" style="fill: none; stroke: #d3d3d3"/>
    <path d="M 430.018526 96.056954 
L 258.190951 39.834589 
" clip-path="url(#p59bdce8c6e)" style="fill: none; stroke: #d3d3d3"/>
    <path d="M 430.018526 96.056954 
L 337.643081 71.67223 
" clip-path="url(#p59bdce8c6e)" style="fill: none; stroke: #d3d3d3"/>
    <path d="M 430.018526 96.056954 
L 229.840977 157.699021 
" clip-path="url(#p59bdce8c6e)" style="fill: none; stroke: #d3d3d3"/>
    <path d="M 430.018526 96.056954 
L 460.264463 197.232526 
" clip-path="url(#p59bdce8c6e)" style="fill: none; stroke: #d3d3d3"/>
    <path d="M 430.018526 96.056954 
L 351.617401 188.154598 
" clip-path="url(#p59bdce8c6e)" style="fill: none; stroke: #d3d3d3"/>
    <path d="M 234.146464 111.019169 
L 79.077377 193.49378 
" clip-path="url(#p59bdce8c6e)" style="fill: none; stroke: #d3d3d3"/>
    <path d="M 234.146464 111.019169 
L 91.593318 138.185412 
" clip-path="url(#p59bdce8c6e)" style="fill: none; stroke: #d3d3d3"/>
    <path d="M 234.146464 111.019169 
L 99.438545 316.166631 
" clip-path="url(#p59bdce8c6e)" style="fill: none; stroke: #d3d3d3"/>
    <path d="M 234.146464 111.019169 
L 134.548084 374.908754 
" clip-path="url(#p59bdce8c6e)" style="fill: none; stroke: #d3d3d3"/>
    <path d="M 234.146464 111.019169 
L 258.190951 39.834589 
" clip-path="url(#p59bdce8c6e)" style="fill: none; stroke: #d3d3d3"/>
    <path d="M 234.146464 111.019169 
L 326.122806 226.422128 
" clip-path="url(#p59bdce8c6e)" style="fill: none; stroke: #d3d3d3"/>
    <path d="M 234.146464 111.019169 
L 196.704957 37.487603 
" clip-path="url(#p59bdce8c6e)" style="fill: none; stroke: #d3d3d3"/>
    <path d="M 234.146464 111.019169 
L 349.595892 121.29274 
" clip-path="url(#p59bdce8c6e)" style="fill: none; stroke: #d3d3d3"/>
    <path d="M 234.146464 111.019169 
L 131.317007 204.398819 
" clip-path="url(#p59bdce8c6e)" style="fill: none; stroke: #d3d3d3"/>
    <path d="M 234.146464 111.019169 
L 402.795141 157.611176 
" clip-path="url(#p59bdce8c6e)" style="fill: none; stroke: #d3d3d3"/>
    <path d="M 234.146464 111.019169 
L 153.777998 99.966943 
" clip-path="url(#p59bdce8c6e)" style="fill: none; stroke: #d3d3d3"/>
    <path d="M 234.146464 111.019169 
L 387.05485 240.606792 
" clip-path="url(#p59bdce8c6e)" style="fill: none; stroke: #d3d3d3"/>
    <path d="M 234.146464 111.019169 
L 257.84197 284.997935 
" clip-path="url(#p59bdce8c6e)" style="fill: none; stroke: #d3d3d3"/>
    <path d="M 234.146464 111.019169 
L 428.124474 334.377398 
" clip-path="url(#p59bdce8c6e)" style="fill: none; stroke: #d3d3d3"/>
    <path d="M 326.122806 226.422128 
L 289.700645 107.831308 
" clip-path="url(#p59bdce8c6e)" style="fill: none; stroke: #d3d3d3"/>
    <path d="M 326.122806 226.422128 
L 176.246535 258.195435 
" clip-path="url(#p59bdce8c6e)" style="fill: none; stroke: #d3d3d3"/>
    <path d="M 326.122806 226.422128 
L 241.29662 394.512397 
" clip-path="url(#p59bdce8c6e)" style="fill: none; stroke: #d3d3d3"/>
    <path d="M 326.122806 226.422128 
L 402.795141 157.611176 
" clip-path="url(#p59bdce8c6e)" style="fill: none; stroke: #d3d3d3"/>
    <path d="M 326.122806 226.422128 
L 337.643081 71.67223 
" clip-path="url(#p59bdce8c6e)" style="fill: none; stroke: #d3d3d3"/>
    <path d="M 326.122806 226.422128 
L 196.704957 37.487603 
" clip-path="url(#p59bdce8c6e)" style="fill: none; stroke: #d3d3d3"/>
    <path d="M 326.122806 226.422128 
L 349.595892 121.29274 
" clip-path="url(#p59bdce8c6e)" style="fill: none; stroke: #d3d3d3"/>
    <path d="M 326.122806 226.422128 
L 131.317007 204.398819 
" clip-path="url(#p59bdce8c6e)" style="fill: none; stroke: #d3d3d3"/>
    <path d="M 326.122806 226.422128 
L 79.077377 193.49378 
" clip-path="url(#p59bdce8c6e)" style="fill: none; stroke: #d3d3d3"/>
    <path d="M 326.122806 226.422128 
L 261.693399 204.357371 
" clip-path="url(#p59bdce8c6e)" style="fill: none; stroke: #d3d3d3"/>
    <path d="M 326.122806 226.422128 
L 120.777605 275.429303 
" clip-path="url(#p59bdce8c6e)" style="fill: none; stroke: #d3d3d3"/>
    <path d="M 326.122806 226.422128 
L 312.772875 377.824405 
" clip-path="url(#p59bdce8c6e)" style="fill: none; stroke: #d3d3d3"/>
    <path d="M 326.122806 226.422128 
L 198.390366 392.193185 
" clip-path="url(#p59bdce8c6e)" style="fill: none; stroke: #d3d3d3"/>
    <path d="M 196.704957 37.487603 
L 153.078989 132.895458 
" clip-path="url(#p59bdce8c6e)" style="fill: none; stroke: #d3d3d3"/>
    <path d="M 196.704957 37.487603 
L 43.735537 251.327908 
" clip-path="url(#p59bdce8c6e)" style="fill: none; stroke: #d3d3d3"/>
    <path d="M 196.704957 37.487603 
L 79.077377 193.49378 
" clip-path="url(#p59bdce8c6e)" style="fill: none; stroke: #d3d3d3"/>
    <path d="M 196.704957 37.487603 
L 153.777998 99.966943 
" clip-path="url(#p59bdce8c6e)" style="fill: none; stroke: #d3d3d3"/>
    <path d="M 196.704957 37.487603 
L 229.840977 157.699021 
" clip-path="url(#p59bdce8c6e)" style="fill: none; stroke: #d3d3d3"/>
    <path d="M 196.704957 37.487603 
L 349.595892 121.29274 
" clip-path="url(#p59bdce8c6e)" style="fill: none; stroke: #d3d3d3"/>
    <path d="M 196.704957 37.487603 
L 131.317007 204.398819 
" clip-path="url(#p59bdce8c6e)" style="fill: none; stroke: #d3d3d3"/>
    <path d="M 196.704957 37.487603 
L 289.700645 107.831308 
" clip-path="url(#p59bdce8c6e)" style="fill: none; stroke: #d3d3d3"/>
    <path d="M 196.704957 37.487603 
L 91.593318 138.185412 
" clip-path="url(#p59bdce8c6e)" style="fill: none; stroke: #d3d3d3"/>
    <path d="M 196.704957 37.487603 
L 316.2502 274.910751 
" clip-path="url(#p59bdce8c6e)" style="fill: none; stroke: #d3d3d3"/>
    <path d="M 196.704957 37.487603 
L 197.068034 219.672557 
" clip-path="url(#p59bdce8c6e)" style="fill: none; stroke: #d3d3d3"/>
    <path d="M 196.704957 37.487603 
L 442.388635 257.275312 
" clip-path="url(#p59bdce8c6e)" style="fill: none; stroke: #d3d3d3"/>
    <path d="M 349.595892 121.29274 
L 195.032432 313.579464 
" clip-path="url(#p59bdce8c6e)" style="fill: none; stroke: #d3d3d3"/>
    <path d="M 349.595892 121.29274 
L 289.700645 107.831308 
" clip-path="url(#p59bdce8c6e)" style="fill: none; stroke: #d3d3d3"/>
    <path d="M 349.595892 121.29274 
L 261.693399 204.357371 
" clip-path="url(#p59bdce8c6e)" style="fill: none; stroke: #d3d3d3"/>
    <path d="M 349.595892 121.29274 
L 387.05485 240.606792 
" clip-path="url(#p59bdce8c6e)" style="fill: none; stroke: #d3d3d3"/>
    <path d="M 349.595892 121.29274 
L 460.264463 197.232526 
" clip-path="url(#p59bdce8c6e)" style="fill: none; stroke: #d3d3d3"/>
    <path d="M 349.595892 121.29274 
L 131.317007 204.398819 
" clip-path="url(#p59bdce8c6e)" style="fill: none; stroke: #d3d3d3"/>
    <path d="M 349.595892 121.29274 
L 153.078989 132.895458 
" clip-path="url(#p59bdce8c6e)" style="fill: none; stroke: #d3d3d3"/>
    <path d="M 349.595892 121.29274 
L 176.246535 258.195435 
" clip-path="url(#p59bdce8c6e)" style="fill: none; stroke: #d3d3d3"/>
    <path d="M 349.595892 121.29274 
L 99.438545 316.166631 
" clip-path="url(#p59bdce8c6e)" style="fill: none; stroke: #d3d3d3"/>
    <path d="M 349.595892 121.29274 
L 388.243927 320.341488 
" clip-path="url(#p59bdce8c6e)" style="fill: none; stroke: #d3d3d3"/>
    <path d="M 349.595892 121.29274 
L 270.462511 329.84568 
" clip-path="url(#p59bdce8c6e)" style="fill: none; stroke: #d3d3d3"/>
    <path d="M 131.317007 204.398819 
L 153.078989 132.895458 
" clip-path="url(#p59bdce8c6e)" style="fill: none; stroke: #d3d3d3"/>
    <path d="M 131.317007 204.398819 
L 91.593318 138.185412 
" clip-path="url(#p59bdce8c6e)" style="fill: none; stroke: #d3d3d3"/>
    <path d="M 131.317007 204.398819 
L 120.777605 275.429303 
" clip-path="url(#p59bdce8c6e)" style="fill: none; stroke: #d3d3d3"/>
    <path d="M 131.317007 204.398819 
L 257.84197 284.997935 
" clip-path="url(#p59bdce8c6e)" style="fill: none; stroke: #d3d3d3"/>
    <path d="M 131.317007 204.398819 
L 351.617401 188.154598 
" clip-path="url(#p59bdce8c6e)" style="fill: none; stroke: #d3d3d3"/>
    <path d="M 131.317007 204.398819 
L 195.032432 313.579464 
" clip-path="url(#p59bdce8c6e)" style="fill: none; stroke: #d3d3d3"/>
    <path d="M 131.317007 204.398819 
L 43.735537 251.327908 
" clip-path="url(#p59bdce8c6e)" style="fill: none; stroke: #d3d3d3"/>
    <path d="M 131.317007 204.398819 
L 241.29662 394.512397 
" clip-path="url(#p59bdce8c6e)" style="fill: none; stroke: #d3d3d3"/>
    <path d="M 131.317007 204.398819 
L 134.548084 374.908754 
" clip-path="url(#p59bdce8c6e)" style="fill: none; stroke: #d3d3d3"/>
    <path d="M 131.317007 204.398819 
L 351.920715 388.92567 
" clip-path="url(#p59bdce8c6e)" style="fill: none; stroke: #d3d3d3"/>
    <path d="M 258.190951 39.834589 
L 153.777998 99.966943 
" clip-path="url(#p59bdce8c6e)" style="fill: none; stroke: #d3d3d3"/>
    <path d="M 258.190951 39.834589 
L 120.777605 275.429303 
" clip-path="url(#p59bdce8c6e)" style="fill: none; stroke: #d3d3d3"/>
    <path d="M 258.190951 39.834589 
L 197.068034 219.672557 
" clip-path="url(#p59bdce8c6e)" style="fill: none; stroke: #d3d3d3"/>
    <path d="M 258.190951 39.834589 
L 270.462511 329.84568 
" clip-path="url(#p59bdce8c6e)" style="fill: none; stroke: #d3d3d3"/>
    <path d="M 258.190951 39.834589 
L 402.795141 157.611176 
" clip-path="url(#p59bdce8c6e)" style="fill: none; stroke: #d3d3d3"/>
    <path d="M 258.190951 39.834589 
L 79.077377 193.49378 
" clip-path="url(#p59bdce8c6e)" style="fill: none; stroke: #d3d3d3"/>
    <path d="M 258.190951 39.834589 
L 289.700645 107.831308 
" clip-path="url(#p59bdce8c6e)" style="fill: none; stroke: #d3d3d3"/>
    <path d="M 258.190951 39.834589 
L 153.078989 132.895458 
" clip-path="url(#p59bdce8c6e)" style="fill: none; stroke: #d3d3d3"/>
    <path d="M 258.190951 39.834589 
L 195.032432 313.579464 
" clip-path="url(#p59bdce8c6e)" style="fill: none; stroke: #d3d3d3"/>
    <path d="M 258.190951 39.834589 
L 337.643081 71.67223 
" clip-path="url(#p59bdce8c6e)" style="fill: none; stroke: #d3d3d3"/>
    <path d="M 258.190951 39.834589 
L 229.840977 157.699021 
" clip-path="url(#p59bdce8c6e)" style="fill: none; stroke: #d3d3d3"/>
    <path d="M 258.190951 39.834589 
L 460.264463 197.232526 
" clip-path="url(#p59bdce8c6e)" style="fill: none; stroke: #d3d3d3"/>
    <path d="M 258.190951 39.834589 
L 351.617401 188.154598 
" clip-path="url(#p59bdce8c6e)" style="fill: none; stroke: #d3d3d3"/>
    <path d="M 402.795141 157.611176 
L 261.693399 204.357371 
" clip-path="url(#p59bdce8c6e)" style="fill: none; stroke: #d3d3d3"/>
    <path d="M 402.795141 157.611176 
L 316.2502 274.910751 
" clip-path="url(#p59bdce8c6e)" style="fill: none; stroke: #d3d3d3"/>
    <path d="M 402.795141 157.611176 
L 388.243927 320.341488 
" clip-path="url(#p59bdce8c6e)" style="fill: none; stroke: #d3d3d3"/>
    <path d="M 402.795141 157.611176 
L 351.920715 388.92567 
" clip-path="url(#p59bdce8c6e)" style="fill: none; stroke: #d3d3d3"/>
    <path d="M 402.795141 157.611176 
L 337.643081 71.67223 
" clip-path="url(#p59bdce8c6e)" style="fill: none; stroke: #d3d3d3"/>
    <path d="M 402.795141 157.611176 
L 79.077377 193.49378 
" clip-path="url(#p59bdce8c6e)" style="fill: none; stroke: #d3d3d3"/>
    <path d="M 402.795141 157.611176 
L 289.700645 107.831308 
" clip-path="url(#p59bdce8c6e)" style="fill: none; stroke: #d3d3d3"/>
    <path d="M 402.795141 157.611176 
L 153.078989 132.895458 
" clip-path="url(#p59bdce8c6e)" style="fill: none; stroke: #d3d3d3"/>
    <path d="M 402.795141 157.611176 
L 195.032432 313.579464 
" clip-path="url(#p59bdce8c6e)" style="fill: none; stroke: #d3d3d3"/>
    <path d="M 402.795141 157.611176 
L 153.777998 99.966943 
" clip-path="url(#p59bdce8c6e)" style="fill: none; stroke: #d3d3d3"/>
    <path d="M 402.795141 157.611176 
L 387.05485 240.606792 
" clip-path="url(#p59bdce8c6e)" style="fill: none; stroke: #d3d3d3"/>
    <path d="M 402.795141 157.611176 
L 257.84197 284.997935 
" clip-path="url(#p59bdce8c6e)" style="fill: none; stroke: #d3d3d3"/>
    <path d="M 402.795141 157.611176 
L 428.124474 334.377398 
" clip-path="url(#p59bdce8c6e)" style="fill: none; stroke: #d3d3d3"/>
    <path d="M 79.077377 193.49378 
L 91.593318 138.185412 
" clip-path="url(#p59bdce8c6e)" style="fill: none; stroke: #d3d3d3"/>
    <path d="M 79.077377 193.49378 
L 99.438545 316.166631 
" clip-path="url(#p59bdce8c6e)" style="fill: none; stroke: #d3d3d3"/>
    <path d="M 79.077377 193.49378 
L 134.548084 374.908754 
" clip-path="url(#p59bdce8c6e)" style="fill: none; stroke: #d3d3d3"/>
    <path d="M 79.077377 193.49378 
L 153.777998 99.966943 
" clip-path="url(#p59bdce8c6e)" style="fill: none; stroke: #d3d3d3"/>
    <path d="M 79.077377 193.49378 
L 229.840977 157.699021 
" clip-path="url(#p59bdce8c6e)" style="fill: none; stroke: #d3d3d3"/>
    <path d="M 79.077377 193.49378 
L 289.700645 107.831308 
" clip-path="url(#p59bdce8c6e)" style="fill: none; stroke: #d3d3d3"/>
    <path d="M 79.077377 193.49378 
L 153.078989 132.895458 
" clip-path="url(#p59bdce8c6e)" style="fill: none; stroke: #d3d3d3"/>
    <path d="M 79.077377 193.49378 
L 195.032432 313.579464 
" clip-path="url(#p59bdce8c6e)" style="fill: none; stroke: #d3d3d3"/>
    <path d="M 79.077377 193.49378 
L 261.693399 204.357371 
" clip-path="url(#p59bdce8c6e)" style="fill: none; stroke: #d3d3d3"/>
    <path d="M 79.077377 193.49378 
L 120.777605 275.429303 
" clip-path="url(#p59bdce8c6e)" style="fill: none; stroke: #d3d3d3"/>
    <path d="M 79.077377 193.49378 
L 312.772875 377.824405 
" clip-path="url(#p59bdce8c6e)" style="fill: none; stroke: #d3d3d3"/>
    <path d="M 79.077377 193.49378 
L 198.390366 392.193185 
" clip-path="url(#p59bdce8c6e)" style="fill: none; stroke: #d3d3d3"/>
    <path d="M 289.700645 107.831308 
L 176.246535 258.195435 
" clip-path="url(#p59bdce8c6e)" style="fill: none; stroke: #d3d3d3"/>
    <path d="M 289.700645 107.831308 
L 241.29662 394.512397 
" clip-path="url(#p59bdce8c6e)" style="fill: none; stroke: #d3d3d3"/>
    <path d="M 289.700645 107.831308 
L 261.693399 204.357371 
" clip-path="url(#p59bdce8c6e)" style="fill: none; stroke: #d3d3d3"/>
    <path d="M 289.700645 107.831308 
L 387.05485 240.606792 
" clip-path="url(#p59bdce8c6e)" style="fill: none; stroke: #d3d3d3"/>
    <path d="M 289.700645 107.831308 
L 460.264463 197.232526 
" clip-path="url(#p59bdce8c6e)" style="fill: none; stroke: #d3d3d3"/>
    <path d="M 289.700645 107.831308 
L 153.078989 132.895458 
" clip-path="url(#p59bdce8c6e)" style="fill: none; stroke: #d3d3d3"/>
    <path d="M 289.700645 107.831308 
L 195.032432 313.579464 
" clip-path="url(#p59bdce8c6e)" style="fill: none; stroke: #d3d3d3"/>
    <path d="M 289.700645 107.831308 
L 91.593318 138.185412 
" clip-path="url(#p59bdce8c6e)" style="fill: none; stroke: #d3d3d3"/>
    <path d="M 289.700645 107.831308 
L 316.2502 274.910751 
" clip-path="url(#p59bdce8c6e)" style="fill: none; stroke: #d3d3d3"/>
    <path d="M 289.700645 107.831308 
L 197.068034 219.672557 
" clip-path="url(#p59bdce8c6e)" style="fill: none; stroke: #d3d3d3"/>
    <path d="M 289.700645 107.831308 
L 442.388635 257.275312 
" clip-path="url(#p59bdce8c6e)" style="fill: none; stroke: #d3d3d3"/>
    <path d="M 153.078989 132.895458 
L 43.735537 251.327908 
" clip-path="url(#p59bdce8c6e)" style="fill: none; stroke: #d3d3d3"/>
    <path d="M 153.078989 132.895458 
L 91.593318 138.185412 
" clip-path="url(#p59bdce8c6e)" style="fill: none; stroke: #d3d3d3"/>
    <path d="M 153.078989 132.895458 
L 120.777605 275.429303 
" clip-path="url(#p59bdce8c6e)" style="fill: none; stroke: #d3d3d3"/>
    <path d="M 153.078989 132.895458 
L 257.84197 284.997935 
" clip-path="url(#p59bdce8c6e)" style="fill: none; stroke: #d3d3d3"/>
    <path d="M 153.078989 132.895458 
L 351.617401 188.154598 
" clip-path="url(#p59bdce8c6e)" style="fill: none; stroke: #d3d3d3"/>
    <path d="M 153.078989 132.895458 
L 195.032432 313.579464 
" clip-path="url(#p59bdce8c6e)" style="fill: none; stroke: #d3d3d3"/>
    <path d="M 153.078989 132.895458 
L 176.246535 258.195435 
" clip-path="url(#p59bdce8c6e)" style="fill: none; stroke: #d3d3d3"/>
    <path d="M 153.078989 132.895458 
L 99.438545 316.166631 
" clip-path="url(#p59bdce8c6e)" style="fill: none; stroke: #d3d3d3"/>
    <path d="M 153.078989 132.895458 
L 388.243927 320.341488 
" clip-path="url(#p59bdce8c6e)" style="fill: none; stroke: #d3d3d3"/>
    <path d="M 153.078989 132.895458 
L 270.462511 329.84568 
" clip-path="url(#p59bdce8c6e)" style="fill: none; stroke: #d3d3d3"/>
    <path d="M 195.032432 313.579464 
L 176.246535 258.195435 
" clip-path="url(#p59bdce8c6e)" style="fill: none; stroke: #d3d3d3"/>
    <path d="M 195.032432 313.579464 
L 316.2502 274.910751 
" clip-path="url(#p59bdce8c6e)" style="fill: none; stroke: #d3d3d3"/>
    <path d="M 195.032432 313.579464 
L 312.772875 377.824405 
" clip-path="url(#p59bdce8c6e)" style="fill: none; stroke: #d3d3d3"/>
    <path d="M 195.032432 313.579464 
L 428.124474 334.377398 
" clip-path="url(#p59bdce8c6e)" style="fill: none; stroke: #d3d3d3"/>
    <path d="M 195.032432 313.579464 
L 43.735537 251.327908 
" clip-path="url(#p59bdce8c6e)" style="fill: none; stroke: #d3d3d3"/>
    <path d="M 195.032432 313.579464 
L 241.29662 394.512397 
" clip-path="url(#p59bdce8c6e)" style="fill: none; stroke: #d3d3d3"/>
    <path d="M 195.032432 313.579464 
L 134.548084 374.908754 
" clip-path="url(#p59bdce8c6e)" style="fill: none; stroke: #d3d3d3"/>
    <path d="M 195.032432 313.579464 
L 351.920715 388.92567 
" clip-path="url(#p59bdce8c6e)" style="fill: none; stroke: #d3d3d3"/>
    <path d="M 337.643081 71.67223 
L 387.05485 240.606792 
" clip-path="url(#p59bdce8c6e)" style="fill: none; stroke: #d3d3d3"/>
    <path d="M 337.643081 71.67223 
L 312.772875 377.824405 
" clip-path="url(#p59bdce8c6e)" style="fill: none; stroke: #d3d3d3"/>
    <path d="M 337.643081 71.67223 
L 442.388635 257.275312 
" clip-path="url(#p59bdce8c6e)" style="fill: none; stroke: #d3d3d3"/>
    <path d="M 337.643081 71.67223 
L 153.777998 99.966943 
" clip-path="url(#p59bdce8c6e)" style="fill: none; stroke: #d3d3d3"/>
    <path d="M 337.643081 71.67223 
L 261.693399 204.357371 
" clip-path="url(#p59bdce8c6e)" style="fill: none; stroke: #d3d3d3"/>
    <path d="M 337.643081 71.67223 
L 91.593318 138.185412 
" clip-path="url(#p59bdce8c6e)" style="fill: none; stroke: #d3d3d3"/>
    <path d="M 337.643081 71.67223 
L 176.246535 258.195435 
" clip-path="url(#p59bdce8c6e)" style="fill: none; stroke: #d3d3d3"/>
    <path d="M 337.643081 71.67223 
L 43.735537 251.327908 
" clip-path="url(#p59bdce8c6e)" style="fill: none; stroke: #d3d3d3"/>
    <path d="M 337.643081 71.67223 
L 229.840977 157.699021 
" clip-path="url(#p59bdce8c6e)" style="fill: none; stroke: #d3d3d3"/>
    <path d="M 337.643081 71.67223 
L 460.264463 197.232526 
" clip-path="url(#p59bdce8c6e)" style="fill: none; stroke: #d3d3d3"/>
    <path d="M 337.643081 71.67223 
L 351.617401 188.154598 
" clip-path="url(#p59bdce8c6e)" style="fill: none; stroke: #d3d3d3"/>
    <path d="M 153.777998 99.966943 
L 120.777605 275.429303 
" clip-path="url(#p59bdce8c6e)" style="fill: none; stroke: #d3d3d3"/>
    <path d="M 153.777998 99.966943 
L 197.068034 219.672557 
" clip-path="url(#p59bdce8c6e)" style="fill: none; stroke: #d3d3d3"/>
    <path d="M 153.777998 99.966943 
L 270.462511 329.84568 
" clip-path="url(#p59bdce8c6e)" style="fill: none; stroke: #d3d3d3"/>
    <path d="M 153.777998 99.966943 
L 229.840977 157.699021 
" clip-path="url(#p59bdce8c6e)" style="fill: none; stroke: #d3d3d3"/>
    <path d="M 153.777998 99.966943 
L 261.693399 204.357371 
" clip-path="url(#p59bdce8c6e)" style="fill: none; stroke: #d3d3d3"/>
    <path d="M 153.777998 99.966943 
L 91.593318 138.185412 
" clip-path="url(#p59bdce8c6e)" style="fill: none; stroke: #d3d3d3"/>
    <path d="M 153.777998 99.966943 
L 176.246535 258.195435 
" clip-path="url(#p59bdce8c6e)" style="fill: none; stroke: #d3d3d3"/>
    <path d="M 153.777998 99.966943 
L 43.735537 251.327908 
" clip-path="url(#p59bdce8c6e)" style="fill: none; stroke: #d3d3d3"/>
    <path d="M 153.777998 99.966943 
L 387.05485 240.606792 
" clip-path="url(#p59bdce8c6e)" style="fill: none; stroke: #d3d3d3"/>
    <path d="M 153.777998 99.966943 
L 257.84197 284.997935 
" clip-path="url(#p59bdce8c6e)" style="fill: none; stroke: #d3d3d3"/>
    <path d="M 153.777998 99.966943 
L 428.124474 334.377398 
" clip-path="url(#p59bdce8c6e)" style="fill: none; stroke: #d3d3d3"/>
    <path d="M 261.693399 204.357371 
L 316.2502 274.910751 
" clip-path="url(#p59bdce8c6e)" style="fill: none; stroke: #d3d3d3"/>
    <path d="M 261.693399 204.357371 
L 388.243927 320.341488 
" clip-path="url(#p59bdce8c6e)" style="fill: none; stroke: #d3d3d3"/>
    <path d="M 261.693399 204.357371 
L 351.920715 388.92567 
" clip-path="url(#p59bdce8c6e)" style="fill: none; stroke: #d3d3d3"/>
    <path d="M 261.693399 204.357371 
L 387.05485 240.606792 
" clip-path="url(#p59bdce8c6e)" style="fill: none; stroke: #d3d3d3"/>
    <path d="M 261.693399 204.357371 
L 460.264463 197.232526 
" clip-path="url(#p59bdce8c6e)" style="fill: none; stroke: #d3d3d3"/>
    <path d="M 261.693399 204.357371 
L 91.593318 138.185412 
" clip-path="url(#p59bdce8c6e)" style="fill: none; stroke: #d3d3d3"/>
    <path d="M 261.693399 204.357371 
L 176.246535 258.195435 
" clip-path="url(#p59bdce8c6e)" style="fill: none; stroke: #d3d3d3"/>
    <path d="M 261.693399 204.357371 
L 43.735537 251.327908 
" clip-path="url(#p59bdce8c6e)" style="fill: none; stroke: #d3d3d3"/>
    <path d="M 261.693399 204.357371 
L 120.777605 275.429303 
" clip-path="url(#p59bdce8c6e)" style="fill: none; stroke: #d3d3d3"/>
    <path d="M 261.693399 204.357371 
L 312.772875 377.824405 
" clip-path="url(#p59bdce8c6e)" style="fill: none; stroke: #d3d3d3"/>
    <path d="M 261.693399 204.357371 
L 198.390366 392.193185 
" clip-path="url(#p59bdce8c6e)" style="fill: none; stroke: #d3d3d3"/>
    <path d="M 91.593318 138.185412 
L 99.438545 316.166631 
" clip-path="url(#p59bdce8c6e)" style="fill: none; stroke: #d3d3d3"/>
    <path d="M 91.593318 138.185412 
L 134.548084 374.908754 
" clip-path="url(#p59bdce8c6e)" style="fill: none; stroke: #d3d3d3"/>
    <path d="M 91.593318 138.185412 
L 120.777605 275.429303 
" clip-path="url(#p59bdce8c6e)" style="fill: none; stroke: #d3d3d3"/>
    <path d="M 91.593318 138.185412 
L 257.84197 284.997935 
" clip-path="url(#p59bdce8c6e)" style="fill: none; stroke: #d3d3d3"/>
    <path d="M 91.593318 138.185412 
L 351.617401 188.154598 
" clip-path="url(#p59bdce8c6e)" style="fill: none; stroke: #d3d3d3"/>
    <path d="M 91.593318 138.185412 
L 176.246535 258.195435 
" clip-path="url(#p59bdce8c6e)" style="fill: none; stroke: #d3d3d3"/>
    <path d="M 91.593318 138.185412 
L 43.735537 251.327908 
" clip-path="url(#p59bdce8c6e)" style="fill: none; stroke: #d3d3d3"/>
    <path d="M 91.593318 138.185412 
L 316.2502 274.910751 
" clip-path="url(#p59bdce8c6e)" style="fill: none; stroke: #d3d3d3"/>
    <path d="M 91.593318 138.185412 
L 197.068034 219.672557 
" clip-path="url(#p59bdce8c6e)" style="fill: none; stroke: #d3d3d3"/>
    <path d="M 91.593318 138.185412 
L 442.388635 257.275312 
" clip-path="url(#p59bdce8c6e)" style="fill: none; stroke: #d3d3d3"/>
    <path d="M 176.246535 258.195435 
L 241.29662 394.512397 
" clip-path="url(#p59bdce8c6e)" style="fill: none; stroke: #d3d3d3"/>
    <path d="M 176.246535 258.195435 
L 316.2502 274.910751 
" clip-path="url(#p59bdce8c6e)" style="fill: none; stroke: #d3d3d3"/>
    <path d="M 176.246535 258.195435 
L 312.772875 377.824405 
" clip-path="url(#p59bdce8c6e)" style="fill: none; stroke: #d3d3d3"/>
    <path d="M 176.246535 258.195435 
L 428.124474 334.377398 
" clip-path="url(#p59bdce8c6e)" style="fill: none; stroke: #d3d3d3"/>
    <path d="M 176.246535 258.195435 
L 43.735537 251.327908 
" clip-path="url(#p59bdce8c6e)" style="fill: none; stroke: #d3d3d3"/>
    <path d="M 176.246535 258.195435 
L 99.438545 316.166631 
" clip-path="url(#p59bdce8c6e)" style="fill: none; stroke: #d3d3d3"/>
    <path d="M 176.246535 258.195435 
L 388.243927 320.341488 
" clip-path="url(#p59bdce8c6e)" style="fill: none; stroke: #d3d3d3"/>
    <path d="M 176.246535 258.195435 
L 270.462511 329.84568 
" clip-path="url(#p59bdce8c6e)" style="fill: none; stroke: #d3d3d3"/>
    <path d="M 43.735537 251.327908 
L 99.438545 316.166631 
" clip-path="url(#p59bdce8c6e)" style="fill: none; stroke: #d3d3d3"/>
    <path d="M 43.735537 251.327908 
L 197.068034 219.672557 
" clip-path="url(#p59bdce8c6e)" style="fill: none; stroke: #d3d3d3"/>
    <path d="M 43.735537 251.327908 
L 198.390366 392.193185 
" clip-path="url(#p59bdce8c6e)" style="fill: none; stroke: #d3d3d3"/>
    <path d="M 43.735537 251.327908 
L 241.29662 394.512397 
" clip-path="url(#p59bdce8c6e)" style="fill: none; stroke: #d3d3d3"/>
    <path d="M 43.735537 251.327908 
L 134.548084 374.908754 
" clip-path="url(#p59bdce8c6e)" style="fill: none; stroke: #d3d3d3"/>
    <path d="M 43.735537 251.327908 
L 351.920715 388.92567 
" clip-path="url(#p59bdce8c6e)" style="fill: none; stroke: #d3d3d3"/>
    <path d="M 229.840977 157.699021 
L 257.84197 284.997935 
" clip-path="url(#p59bdce8c6e)" style="fill: none; stroke: #d3d3d3"/>
    <path d="M 229.840977 157.699021 
L 198.390366 392.193185 
" clip-path="url(#p59bdce8c6e)" style="fill: none; stroke: #d3d3d3"/>
    <path d="M 229.840977 157.699021 
L 387.05485 240.606792 
" clip-path="url(#p59bdce8c6e)" style="fill: none; stroke: #d3d3d3"/>
    <path d="M 229.840977 157.699021 
L 120.777605 275.429303 
" clip-path="url(#p59bdce8c6e)" style="fill: none; stroke: #d3d3d3"/>
    <path d="M 229.840977 157.699021 
L 316.2502 274.910751 
" clip-path="url(#p59bdce8c6e)" style="fill: none; stroke: #d3d3d3"/>
    <path d="M 229.840977 157.699021 
L 99.438545 316.166631 
" clip-path="url(#p59bdce8c6e)" style="fill: none; stroke: #d3d3d3"/>
    <path d="M 229.840977 157.699021 
L 241.29662 394.512397 
" clip-path="url(#p59bdce8c6e)" style="fill: none; stroke: #d3d3d3"/>
    <path d="M 229.840977 157.699021 
L 460.264463 197.232526 
" clip-path="url(#p59bdce8c6e)" style="fill: none; stroke: #d3d3d3"/>
    <path d="M 229.840977 157.699021 
L 351.617401 188.154598 
" clip-path="url(#p59bdce8c6e)" style="fill: none; stroke: #d3d3d3"/>
    <path d="M 387.05485 240.606792 
L 312.772875 377.824405 
" clip-path="url(#p59bdce8c6e)" style="fill: none; stroke: #d3d3d3"/>
    <path d="M 387.05485 240.606792 
L 442.388635 257.275312 
" clip-path="url(#p59bdce8c6e)" style="fill: none; stroke: #d3d3d3"/>
    <path d="M 387.05485 240.606792 
L 460.264463 197.232526 
" clip-path="url(#p59bdce8c6e)" style="fill: none; stroke: #d3d3d3"/>
    <path d="M 387.05485 240.606792 
L 120.777605 275.429303 
" clip-path="url(#p59bdce8c6e)" style="fill: none; stroke: #d3d3d3"/>
    <path d="M 387.05485 240.606792 
L 316.2502 274.910751 
" clip-path="url(#p59bdce8c6e)" style="fill: none; stroke: #d3d3d3"/>
    <path d="M 387.05485 240.606792 
L 99.438545 316.166631 
" clip-path="url(#p59bdce8c6e)" style="fill: none; stroke: #d3d3d3"/>
    <path d="M 387.05485 240.606792 
L 241.29662 394.512397 
" clip-path="url(#p59bdce8c6e)" style="fill: none; stroke: #d3d3d3"/>
    <path d="M 387.05485 240.606792 
L 257.84197 284.997935 
" clip-path="url(#p59bdce8c6e)" style="fill: none; stroke: #d3d3d3"/>
    <path d="M 387.05485 240.606792 
L 428.124474 334.377398 
" clip-path="url(#p59bdce8c6e)" style="fill: none; stroke: #d3d3d3"/>
    <path d="M 120.777605 275.429303 
L 197.068034 219.672557 
" clip-path="url(#p59bdce8c6e)" style="fill: none; stroke: #d3d3d3"/>
    <path d="M 120.777605 275.429303 
L 270.462511 329.84568 
" clip-path="url(#p59bdce8c6e)" style="fill: none; stroke: #d3d3d3"/>
    <path d="M 120.777605 275.429303 
L 257.84197 284.997935 
" clip-path="url(#p59bdce8c6e)" style="fill: none; stroke: #d3d3d3"/>
    <path d="M 120.777605 275.429303 
L 351.617401 188.154598 
" clip-path="url(#p59bdce8c6e)" style="fill: none; stroke: #d3d3d3"/>
    <path d="M 120.777605 275.429303 
L 316.2502 274.910751 
" clip-path="url(#p59bdce8c6e)" style="fill: none; stroke: #d3d3d3"/>
    <path d="M 120.777605 275.429303 
L 99.438545 316.166631 
" clip-path="url(#p59bdce8c6e)" style="fill: none; stroke: #d3d3d3"/>
    <path d="M 120.777605 275.429303 
L 241.29662 394.512397 
" clip-path="url(#p59bdce8c6e)" style="fill: none; stroke: #d3d3d3"/>
    <path d="M 120.777605 275.429303 
L 312.772875 377.824405 
" clip-path="url(#p59bdce8c6e)" style="fill: none; stroke: #d3d3d3"/>
    <path d="M 120.777605 275.429303 
L 198.390366 392.193185 
" clip-path="url(#p59bdce8c6e)" style="fill: none; stroke: #d3d3d3"/>
    <path d="M 316.2502 274.910751 
L 388.243927 320.341488 
" clip-path="url(#p59bdce8c6e)" style="fill: none; stroke: #d3d3d3"/>
    <path d="M 316.2502 274.910751 
L 351.920715 388.92567 
" clip-path="url(#p59bdce8c6e)" style="fill: none; stroke: #d3d3d3"/>
    <path d="M 316.2502 274.910751 
L 312.772875 377.824405 
" clip-path="url(#p59bdce8c6e)" style="fill: none; stroke: #d3d3d3"/>
    <path d="M 316.2502 274.910751 
L 428.124474 334.377398 
" clip-path="url(#p59bdce8c6e)" style="fill: none; stroke: #d3d3d3"/>
    <path d="M 316.2502 274.910751 
L 99.438545 316.166631 
" clip-path="url(#p59bdce8c6e)" style="fill: none; stroke: #d3d3d3"/>
    <path d="M 316.2502 274.910751 
L 241.29662 394.512397 
" clip-path="url(#p59bdce8c6e)" style="fill: none; stroke: #d3d3d3"/>
    <path d="M 316.2502 274.910751 
L 197.068034 219.672557 
" clip-path="url(#p59bdce8c6e)" style="fill: none; stroke: #d3d3d3"/>
    <path d="M 316.2502 274.910751 
L 442.388635 257.275312 
" clip-path="url(#p59bdce8c6e)" style="fill: none; stroke: #d3d3d3"/>
    <path d="M 99.438545 316.166631 
L 134.548084 374.908754 
" clip-path="url(#p59bdce8c6e)" style="fill: none; stroke: #d3d3d3"/>
    <path d="M 99.438545 316.166631 
L 197.068034 219.672557 
" clip-path="url(#p59bdce8c6e)" style="fill: none; stroke: #d3d3d3"/>
    <path d="M 99.438545 316.166631 
L 198.390366 392.193185 
" clip-path="url(#p59bdce8c6e)" style="fill: none; stroke: #d3d3d3"/>
    <path d="M 99.438545 316.166631 
L 241.29662 394.512397 
" clip-path="url(#p59bdce8c6e)" style="fill: none; stroke: #d3d3d3"/>
    <path d="M 99.438545 316.166631 
L 388.243927 320.341488 
" clip-path="url(#p59bdce8c6e)" style="fill: none; stroke: #d3d3d3"/>
    <path d="M 99.438545 316.166631 
L 270.462511 329.84568 
" clip-path="url(#p59bdce8c6e)" style="fill: none; stroke: #d3d3d3"/>
    <path d="M 241.29662 394.512397 
L 388.243927 320.341488 
" clip-path="url(#p59bdce8c6e)" style="fill: none; stroke: #d3d3d3"/>
    <path d="M 241.29662 394.512397 
L 442.388635 257.275312 
" clip-path="url(#p59bdce8c6e)" style="fill: none; stroke: #d3d3d3"/>
    <path d="M 241.29662 394.512397 
L 134.548084 374.908754 
" clip-path="url(#p59bdce8c6e)" style="fill: none; stroke: #d3d3d3"/>
    <path d="M 241.29662 394.512397 
L 351.920715 388.92567 
" clip-path="url(#p59bdce8c6e)" style="fill: none; stroke: #d3d3d3"/>
    <path d="M 460.264463 197.232526 
L 428.124474 334.377398 
" clip-path="url(#p59bdce8c6e)" style="fill: none; stroke: #d3d3d3"/>
    <path d="M 460.264463 197.232526 
L 257.84197 284.997935 
" clip-path="url(#p59bdce8c6e)" style="fill: none; stroke: #d3d3d3"/>
    <path d="M 460.264463 197.232526 
L 312.772875 377.824405 
" clip-path="url(#p59bdce8c6e)" style="fill: none; stroke: #d3d3d3"/>
    <path d="M 460.264463 197.232526 
L 197.068034 219.672557 
" clip-path="url(#p59bdce8c6e)" style="fill: none; stroke: #d3d3d3"/>
    <path d="M 460.264463 197.232526 
L 388.243927 320.341488 
" clip-path="url(#p59bdce8c6e)" style="fill: none; stroke: #d3d3d3"/>
    <path d="M 460.264463 197.232526 
L 134.548084 374.908754 
" clip-path="url(#p59bdce8c6e)" style="fill: none; stroke: #d3d3d3"/>
    <path d="M 460.264463 197.232526 
L 351.617401 188.154598 
" clip-path="url(#p59bdce8c6e)" style="fill: none; stroke: #d3d3d3"/>
    <path d="M 257.84197 284.997935 
L 198.390366 392.193185 
" clip-path="url(#p59bdce8c6e)" style="fill: none; stroke: #d3d3d3"/>
    <path d="M 257.84197 284.997935 
L 351.617401 188.154598 
" clip-path="url(#p59bdce8c6e)" style="fill: none; stroke: #d3d3d3"/>
    <path d="M 257.84197 284.997935 
L 312.772875 377.824405 
" clip-path="url(#p59bdce8c6e)" style="fill: none; stroke: #d3d3d3"/>
    <path d="M 257.84197 284.997935 
L 197.068034 219.672557 
" clip-path="url(#p59bdce8c6e)" style="fill: none; stroke: #d3d3d3"/>
    <path d="M 257.84197 284.997935 
L 388.243927 320.341488 
" clip-path="url(#p59bdce8c6e)" style="fill: none; stroke: #d3d3d3"/>
    <path d="M 257.84197 284.997935 
L 134.548084 374.908754 
" clip-path="url(#p59bdce8c6e)" style="fill: none; stroke: #d3d3d3"/>
    <path d="M 257.84197 284.997935 
L 428.124474 334.377398 
" clip-path="url(#p59bdce8c6e)" style="fill: none; stroke: #d3d3d3"/>
    <path d="M 312.772875 377.824405 
L 442.388635 257.275312 
" clip-path="url(#p59bdce8c6e)" style="fill: none; stroke: #d3d3d3"/>
    <path d="M 312.772875 377.824405 
L 428.124474 334.377398 
" clip-path="url(#p59bdce8c6e)" style="fill: none; stroke: #d3d3d3"/>
    <path d="M 312.772875 377.824405 
L 197.068034 219.672557 
" clip-path="url(#p59bdce8c6e)" style="fill: none; stroke: #d3d3d3"/>
    <path d="M 312.772875 377.824405 
L 388.243927 320.341488 
" clip-path="url(#p59bdce8c6e)" style="fill: none; stroke: #d3d3d3"/>
    <path d="M 312.772875 377.824405 
L 134.548084 374.908754 
" clip-path="url(#p59bdce8c6e)" style="fill: none; stroke: #d3d3d3"/>
    <path d="M 312.772875 377.824405 
L 198.390366 392.193185 
" clip-path="url(#p59bdce8c6e)" style="fill: none; stroke: #d3d3d3"/>
    <path d="M 197.068034 219.672557 
L 270.462511 329.84568 
" clip-path="url(#p59bdce8c6e)" style="fill: none; stroke: #d3d3d3"/>
    <path d="M 197.068034 219.672557 
L 198.390366 392.193185 
" clip-path="url(#p59bdce8c6e)" style="fill: none; stroke: #d3d3d3"/>
    <path d="M 197.068034 219.672557 
L 388.243927 320.341488 
" clip-path="url(#p59bdce8c6e)" style="fill: none; stroke: #d3d3d3"/>
    <path d="M 197.068034 219.672557 
L 134.548084 374.908754 
" clip-path="url(#p59bdce8c6e)" style="fill: none; stroke: #d3d3d3"/>
    <path d="M 197.068034 219.672557 
L 442.388635 257.275312 
" clip-path="url(#p59bdce8c6e)" style="fill: none; stroke: #d3d3d3"/>
    <path d="M 388.243927 320.341488 
L 351.920715 388.92567 
" clip-path="url(#p59bdce8c6e)" style="fill: none; stroke: #d3d3d3"/>
    <path d="M 388.243927 320.341488 
L 442.388635 257.275312 
" clip-path="url(#p59bdce8c6e)" style="fill: none; stroke: #d3d3d3"/>
    <path d="M 388.243927 320.341488 
L 134.548084 374.908754 
" clip-path="url(#p59bdce8c6e)" style="fill: none; stroke: #d3d3d3"/>
    <path d="M 388.243927 320.341488 
L 270.462511 329.84568 
" clip-path="url(#p59bdce8c6e)" style="fill: none; stroke: #d3d3d3"/>
    <path d="M 134.548084 374.908754 
L 270.462511 329.84568 
" clip-path="url(#p59bdce8c6e)" style="fill: none; stroke: #d3d3d3"/>
    <path d="M 134.548084 374.908754 
L 351.920715 388.92567 
" clip-path="url(#p59bdce8c6e)" style="fill: none; stroke: #d3d3d3"/>
    <path d="M 351.617401 188.154598 
L 428.124474 334.377398 
" clip-path="url(#p59bdce8c6e)" style="fill: none; stroke: #d3d3d3"/>
    <path d="M 351.617401 188.154598 
L 198.390366 392.193185 
" clip-path="url(#p59bdce8c6e)" style="fill: none; stroke: #d3d3d3"/>
    <path d="M 351.617401 188.154598 
L 442.388635 257.275312 
" clip-path="url(#p59bdce8c6e)" style="fill: none; stroke: #d3d3d3"/>
    <path d="M 351.617401 188.154598 
L 270.462511 329.84568 
" clip-path="url(#p59bdce8c6e)" style="fill: none; stroke: #d3d3d3"/>
    <path d="M 351.617401 188.154598 
L 351.920715 388.92567 
" clip-path="url(#p59bdce8c6e)" style="fill: none; stroke: #d3d3d3"/>
    <path d="M 428.124474 334.377398 
L 198.390366 392.193185 
" clip-path="url(#p59bdce8c6e)" style="fill: none; stroke: #d3d3d3"/>
    <path d="M 428.124474 334.377398 
L 442.388635 257.275312 
" clip-path="url(#p59bdce8c6e)" style="fill: none; stroke: #d3d3d3"/>
    <path d="M 428.124474 334.377398 
L 270.462511 329.84568 
" clip-path="url(#p59bdce8c6e)" style="fill: none; stroke: #d3d3d3"/>
    <path d="M 428.124474 334.377398 
L 351.920715 388.92567 
" clip-path="url(#p59bdce8c6e)" style="fill: none; stroke: #d3d3d3"/>
    <path d="M 198.390366 392.193185 
L 442.388635 257.275312 
" clip-path="url(#p59bdce8c6e)" style="fill: none; stroke: #d3d3d3"/>
    <path d="M 198.390366 392.193185 
L 270.462511 329.84568 
" clip-path="url(#p59bdce8c6e)" style="fill: none; stroke: #d3d3d3"/>
    <path d="M 198.390366 392.193185 
L 351.920715 388.92567 
" clip-path="url(#p59bdce8c6e)" style="fill: none; stroke: #d3d3d3"/>
    <path d="M 442.388635 257.275312 
L 270.462511 329.84568 
" clip-path="url(#p59bdce8c6e)" style="fill: none; stroke: #d3d3d3"/>
    <path d="M 442.388635 257.275312 
L 351.920715 388.92567 
" clip-path="url(#p59bdce8c6e)" style="fill: none; stroke: #d3d3d3"/>
    <path d="M 270.462511 329.84568 
L 351.920715 388.92567 
" clip-path="url(#p59bdce8c6e)" style="fill: none; stroke: #d3d3d3"/>
   </g>
   <g id="PathCollection_1">
    <defs>
     <path id="C0_0_3779b60956" d="M 0 5 
C 1.326016 5 2.597899 4.473168 3.535534 3.535534 
C 4.473168 2.597899 5 1.326016 5 -0 
C 5 -1.326016 4.473168 -2.597899 3.535534 -3.535534 
C 2.597899 -4.473168 1.326016 -5 0 -5 
C -1.326016 -5 -2.597899 -4.473168 -3.535534 -3.535534 
C -4.473168 -2.597899 -5 -1.326016 -5 0 
C -5 1.326016 -4.473168 2.597899 -3.535534 3.535534 
C -2.597899 4.473168 -1.326016 5 0 5 
z
"/>
    </defs>
    <g clip-path="url(#p59bdce8c6e)">
     <use xlink:href="#C0_0_3779b60956" x="430.018526" y="96.056954" style="fill: #8000ff; stroke: #8000ff"/>
    </g>
    <g clip-path="url(#p59bdce8c6e)">
     <use xlink:href="#C0_0_3779b60956" x="234.146464" y="111.019169" style="fill: #386df9; stroke: #386df9"/>
    </g>
    <g clip-path="url(#p59bdce8c6e)">
     <use xlink:href="#C0_0_3779b60956" x="326.122806" y="226.422128" style="fill: #12c8e6; stroke: #12c8e6"/>
    </g>
    <g clip-path="url(#p59bdce8c6e)">
     <use xlink:href="#C0_0_3779b60956" x="196.704957" y="37.487603" style="fill: #5af8c8; stroke: #5af8c8"/>
    </g>
    <g clip-path="url(#p59bdce8c6e)">
     <use xlink:href="#C0_0_3779b60956" x="349.595892" y="121.29274" style="fill: #a4f89f; stroke: #a4f89f"/>
    </g>
    <g clip-path="url(#p59bdce8c6e)">
     <use xlink:href="#C0_0_3779b60956" x="131.317007" y="204.398819" style="fill: #ecc86f; stroke: #ecc86f"/>
    </g>
    <g clip-path="url(#p59bdce8c6e)">
     <use xlink:href="#C0_0_3779b60956" x="258.190951" y="39.834589" style="fill: #5af8c8; stroke: #5af8c8"/>
    </g>
    <g clip-path="url(#p59bdce8c6e)">
     <use xlink:href="#C0_0_3779b60956" x="402.795141" y="157.611176" style="fill: #ecc86f; stroke: #ecc86f"/>
    </g>
    <g clip-path="url(#p59bdce8c6e)">
     <use xlink:href="#C0_0_3779b60956" x="79.077377" y="193.49378" style="fill: #a4f89f; stroke: #a4f89f"/>
    </g>
    <g clip-path="url(#p59bdce8c6e)">
     <use xlink:href="#C0_0_3779b60956" x="289.700645" y="107.831308" style="fill: #ff6d38; stroke: #ff6d38"/>
    </g>
    <g clip-path="url(#p59bdce8c6e)">
     <use xlink:href="#C0_0_3779b60956" x="153.078989" y="132.895458" style="fill: #386df9; stroke: #386df9"/>
    </g>
    <g clip-path="url(#p59bdce8c6e)">
     <use xlink:href="#C0_0_3779b60956" x="195.032432" y="313.579464" style="fill: #ff0000; stroke: #ff0000"/>
    </g>
    <g clip-path="url(#p59bdce8c6e)">
     <use xlink:href="#C0_0_3779b60956" x="337.643081" y="71.67223" style="fill: #386df9; stroke: #386df9"/>
    </g>
    <g clip-path="url(#p59bdce8c6e)">
     <use xlink:href="#C0_0_3779b60956" x="153.777998" y="99.966943" style="fill: #8000ff; stroke: #8000ff"/>
    </g>
    <g clip-path="url(#p59bdce8c6e)">
     <use xlink:href="#C0_0_3779b60956" x="261.693399" y="204.357371" style="fill: #ff0000; stroke: #ff0000"/>
    </g>
    <g clip-path="url(#p59bdce8c6e)">
     <use xlink:href="#C0_0_3779b60956" x="91.593318" y="138.185412" style="fill: #12c8e6; stroke: #12c8e6"/>
    </g>
    <g clip-path="url(#p59bdce8c6e)">
     <use xlink:href="#C0_0_3779b60956" x="176.246535" y="258.195435" style="fill: #5af8c8; stroke: #5af8c8"/>
    </g>
    <g clip-path="url(#p59bdce8c6e)">
     <use xlink:href="#C0_0_3779b60956" x="43.735537" y="251.327908" style="fill: #a4f89f; stroke: #a4f89f"/>
    </g>
    <g clip-path="url(#p59bdce8c6e)">
     <use xlink:href="#C0_0_3779b60956" x="229.840977" y="157.699021" style="fill: #12c8e6; stroke: #12c8e6"/>
    </g>
    <g clip-path="url(#p59bdce8c6e)">
     <use xlink:href="#C0_0_3779b60956" x="387.05485" y="240.606792" style="fill: #5af8c8; stroke: #5af8c8"/>
    </g>
    <g clip-path="url(#p59bdce8c6e)">
     <use xlink:href="#C0_0_3779b60956" x="120.777605" y="275.429303" style="fill: #ff6d38; stroke: #ff6d38"/>
    </g>
    <g clip-path="url(#p59bdce8c6e)">
     <use xlink:href="#C0_0_3779b60956" x="316.2502" y="274.910751" style="fill: #a4f89f; stroke: #a4f89f"/>
    </g>
    <g clip-path="url(#p59bdce8c6e)">
     <use xlink:href="#C0_0_3779b60956" x="99.438545" y="316.166631" style="fill: #ff0000; stroke: #ff0000"/>
    </g>
    <g clip-path="url(#p59bdce8c6e)">
     <use xlink:href="#C0_0_3779b60956" x="241.29662" y="394.512397" style="fill: #8000ff; stroke: #8000ff"/>
    </g>
    <g clip-path="url(#p59bdce8c6e)">
     <use xlink:href="#C0_0_3779b60956" x="460.264463" y="197.232526" style="fill: #ecc86f; stroke: #ecc86f"/>
    </g>
    <g clip-path="url(#p59bdce8c6e)">
     <use xlink:href="#C0_0_3779b60956" x="257.84197" y="284.997935" style="fill: #ff0000; stroke: #ff0000"/>
    </g>
    <g clip-path="url(#p59bdce8c6e)">
     <use xlink:href="#C0_0_3779b60956" x="312.772875" y="377.824405" style="fill: #8000ff; stroke: #8000ff"/>
    </g>
    <g clip-path="url(#p59bdce8c6e)">
     <use xlink:href="#C0_0_3779b60956" x="197.068034" y="219.672557" style="fill: #386df9; stroke: #386df9"/>
    </g>
    <g clip-path="url(#p59bdce8c6e)">
     <use xlink:href="#C0_0_3779b60956" x="388.243927" y="320.341488" style="fill: #12c8e6; stroke: #12c8e6"/>
    </g>
    <g clip-path="url(#p59bdce8c6e)">
     <use xlink:href="#C0_0_3779b60956" x="134.548084" y="374.908754" style="fill: #5af8c8; stroke: #5af8c8"/>
    </g>
    <g clip-path="url(#p59bdce8c6e)">
     <use xlink:href="#C0_0_3779b60956" x="351.617401" y="188.154598" style="fill: #a4f89f; stroke: #a4f89f"/>
    </g>
    <g clip-path="url(#p59bdce8c6e)">
     <use xlink:href="#C0_0_3779b60956" x="428.124474" y="334.377398" style="fill: #12c8e6; stroke: #12c8e6"/>
    </g>
    <g clip-path="url(#p59bdce8c6e)">
     <use xlink:href="#C0_0_3779b60956" x="198.390366" y="392.193185" style="fill: #5af8c8; stroke: #5af8c8"/>
    </g>
    <g clip-path="url(#p59bdce8c6e)">
     <use xlink:href="#C0_0_3779b60956" x="442.388635" y="257.275312" style="fill: #ff0000; stroke: #ff0000"/>
    </g>
    <g clip-path="url(#p59bdce8c6e)">
     <use xlink:href="#C0_0_3779b60956" x="270.462511" y="329.84568" style="fill: #ecc86f; stroke: #ecc86f"/>
    </g>
    <g clip-path="url(#p59bdce8c6e)">
     <use xlink:href="#C0_0_3779b60956" x="351.920715" y="388.92567" style="fill: #386df9; stroke: #386df9"/>
    </g>
   </g>
   <g id="text_1">
    <!-- Colored Graph - queen6_6 -->
    <g transform="translate(173.24625 -6) scale(0.12 -0.12)">
     <defs>
      <path id="DejaVuSans-43" d="M 4122 4306 
L 4122 3641 
Q 3803 3938 3442 4084 
Q 3081 4231 2675 4231 
Q 1875 4231 1450 3742 
Q 1025 3253 1025 2328 
Q 1025 1406 1450 917 
Q 1875 428 2675 428 
Q 3081 428 3442 575 
Q 3803 722 4122 1019 
L 4122 359 
Q 3791 134 3420 21 
Q 3050 -91 2638 -91 
Q 1578 -91 968 557 
Q 359 1206 359 2328 
Q 359 3453 968 4101 
Q 1578 4750 2638 4750 
Q 3056 4750 3426 4639 
Q 3797 4528 4122 4306 
z
" transform="scale(0.015625)"/>
      <path id="DejaVuSans-6f" d="M 1959 3097 
Q 1497 3097 1228 2736 
Q 959 2375 959 1747 
Q 959 1119 1226 758 
Q 1494 397 1959 397 
Q 2419 397 2687 759 
Q 2956 1122 2956 1747 
Q 2956 2369 2687 2733 
Q 2419 3097 1959 3097 
z
M 1959 3584 
Q 2709 3584 3137 3096 
Q 3566 2609 3566 1747 
Q 3566 888 3137 398 
Q 2709 -91 1959 -91 
Q 1206 -91 779 398 
Q 353 888 353 1747 
Q 353 2609 779 3096 
Q 1206 3584 1959 3584 
z
" transform="scale(0.015625)"/>
      <path id="DejaVuSans-6c" d="M 603 4863 
L 1178 4863 
L 1178 0 
L 603 0 
L 603 4863 
z
" transform="scale(0.015625)"/>
      <path id="DejaVuSans-72" d="M 2631 2963 
Q 2534 3019 2420 3045 
Q 2306 3072 2169 3072 
Q 1681 3072 1420 2755 
Q 1159 2438 1159 1844 
L 1159 0 
L 581 0 
L 581 3500 
L 1159 3500 
L 1159 2956 
Q 1341 3275 1631 3429 
Q 1922 3584 2338 3584 
Q 2397 3584 2469 3576 
Q 2541 3569 2628 3553 
L 2631 2963 
z
" transform="scale(0.015625)"/>
      <path id="DejaVuSans-65" d="M 3597 1894 
L 3597 1613 
L 953 1613 
Q 991 1019 1311 708 
Q 1631 397 2203 397 
Q 2534 397 2845 478 
Q 3156 559 3463 722 
L 3463 178 
Q 3153 47 2828 -22 
Q 2503 -91 2169 -91 
Q 1331 -91 842 396 
Q 353 884 353 1716 
Q 353 2575 817 3079 
Q 1281 3584 2069 3584 
Q 2775 3584 3186 3129 
Q 3597 2675 3597 1894 
z
M 3022 2063 
Q 3016 2534 2758 2815 
Q 2500 3097 2075 3097 
Q 1594 3097 1305 2825 
Q 1016 2553 972 2059 
L 3022 2063 
z
" transform="scale(0.015625)"/>
      <path id="DejaVuSans-64" d="M 2906 2969 
L 2906 4863 
L 3481 4863 
L 3481 0 
L 2906 0 
L 2906 525 
Q 2725 213 2448 61 
Q 2172 -91 1784 -91 
Q 1150 -91 751 415 
Q 353 922 353 1747 
Q 353 2572 751 3078 
Q 1150 3584 1784 3584 
Q 2172 3584 2448 3432 
Q 2725 3281 2906 2969 
z
M 947 1747 
Q 947 1113 1208 752 
Q 1469 391 1925 391 
Q 2381 391 2643 752 
Q 2906 1113 2906 1747 
Q 2906 2381 2643 2742 
Q 2381 3103 1925 3103 
Q 1469 3103 1208 2742 
Q 947 2381 947 1747 
z
" transform="scale(0.015625)"/>
      <path id="DejaVuSans-20" transform="scale(0.015625)"/>
      <path id="DejaVuSans-47" d="M 3809 666 
L 3809 1919 
L 2778 1919 
L 2778 2438 
L 4434 2438 
L 4434 434 
Q 4069 175 3628 42 
Q 3188 -91 2688 -91 
Q 1594 -91 976 548 
Q 359 1188 359 2328 
Q 359 3472 976 4111 
Q 1594 4750 2688 4750 
Q 3144 4750 3555 4637 
Q 3966 4525 4313 4306 
L 4313 3634 
Q 3963 3931 3569 4081 
Q 3175 4231 2741 4231 
Q 1884 4231 1454 3753 
Q 1025 3275 1025 2328 
Q 1025 1384 1454 906 
Q 1884 428 2741 428 
Q 3075 428 3337 486 
Q 3600 544 3809 666 
z
" transform="scale(0.015625)"/>
      <path id="DejaVuSans-61" d="M 2194 1759 
Q 1497 1759 1228 1600 
Q 959 1441 959 1056 
Q 959 750 1161 570 
Q 1363 391 1709 391 
Q 2188 391 2477 730 
Q 2766 1069 2766 1631 
L 2766 1759 
L 2194 1759 
z
M 3341 1997 
L 3341 0 
L 2766 0 
L 2766 531 
Q 2569 213 2275 61 
Q 1981 -91 1556 -91 
Q 1019 -91 701 211 
Q 384 513 384 1019 
Q 384 1609 779 1909 
Q 1175 2209 1959 2209 
L 2766 2209 
L 2766 2266 
Q 2766 2663 2505 2880 
Q 2244 3097 1772 3097 
Q 1472 3097 1187 3025 
Q 903 2953 641 2809 
L 641 3341 
Q 956 3463 1253 3523 
Q 1550 3584 1831 3584 
Q 2591 3584 2966 3190 
Q 3341 2797 3341 1997 
z
" transform="scale(0.015625)"/>
      <path id="DejaVuSans-70" d="M 1159 525 
L 1159 -1331 
L 581 -1331 
L 581 3500 
L 1159 3500 
L 1159 2969 
Q 1341 3281 1617 3432 
Q 1894 3584 2278 3584 
Q 2916 3584 3314 3078 
Q 3713 2572 3713 1747 
Q 3713 922 3314 415 
Q 2916 -91 2278 -91 
Q 1894 -91 1617 61 
Q 1341 213 1159 525 
z
M 3116 1747 
Q 3116 2381 2855 2742 
Q 2594 3103 2138 3103 
Q 1681 3103 1420 2742 
Q 1159 2381 1159 1747 
Q 1159 1113 1420 752 
Q 1681 391 2138 391 
Q 2594 391 2855 752 
Q 3116 1113 3116 1747 
z
" transform="scale(0.015625)"/>
      <path id="DejaVuSans-68" d="M 3513 2113 
L 3513 0 
L 2938 0 
L 2938 2094 
Q 2938 2591 2744 2837 
Q 2550 3084 2163 3084 
Q 1697 3084 1428 2787 
Q 1159 2491 1159 1978 
L 1159 0 
L 581 0 
L 581 4863 
L 1159 4863 
L 1159 2956 
Q 1366 3272 1645 3428 
Q 1925 3584 2291 3584 
Q 2894 3584 3203 3211 
Q 3513 2838 3513 2113 
z
" transform="scale(0.015625)"/>
      <path id="DejaVuSans-2d" d="M 313 2009 
L 1997 2009 
L 1997 1497 
L 313 1497 
L 313 2009 
z
" transform="scale(0.015625)"/>
      <path id="DejaVuSans-71" d="M 947 1747 
Q 947 1113 1208 752 
Q 1469 391 1925 391 
Q 2381 391 2643 752 
Q 2906 1113 2906 1747 
Q 2906 2381 2643 2742 
Q 2381 3103 1925 3103 
Q 1469 3103 1208 2742 
Q 947 2381 947 1747 
z
M 2906 525 
Q 2725 213 2448 61 
Q 2172 -91 1784 -91 
Q 1150 -91 751 415 
Q 353 922 353 1747 
Q 353 2572 751 3078 
Q 1150 3584 1784 3584 
Q 2172 3584 2448 3432 
Q 2725 3281 2906 2969 
L 2906 3500 
L 3481 3500 
L 3481 -1331 
L 2906 -1331 
L 2906 525 
z
" transform="scale(0.015625)"/>
      <path id="DejaVuSans-75" d="M 544 1381 
L 544 3500 
L 1119 3500 
L 1119 1403 
Q 1119 906 1312 657 
Q 1506 409 1894 409 
Q 2359 409 2629 706 
Q 2900 1003 2900 1516 
L 2900 3500 
L 3475 3500 
L 3475 0 
L 2900 0 
L 2900 538 
Q 2691 219 2414 64 
Q 2138 -91 1772 -91 
Q 1169 -91 856 284 
Q 544 659 544 1381 
z
M 1991 3584 
L 1991 3584 
z
" transform="scale(0.015625)"/>
      <path id="DejaVuSans-6e" d="M 3513 2113 
L 3513 0 
L 2938 0 
L 2938 2094 
Q 2938 2591 2744 2837 
Q 2550 3084 2163 3084 
Q 1697 3084 1428 2787 
Q 1159 2491 1159 1978 
L 1159 0 
L 581 0 
L 581 3500 
L 1159 3500 
L 1159 2956 
Q 1366 3272 1645 3428 
Q 1925 3584 2291 3584 
Q 2894 3584 3203 3211 
Q 3513 2838 3513 2113 
z
" transform="scale(0.015625)"/>
      <path id="DejaVuSans-36" d="M 2113 2584 
Q 1688 2584 1439 2293 
Q 1191 2003 1191 1497 
Q 1191 994 1439 701 
Q 1688 409 2113 409 
Q 2538 409 2786 701 
Q 3034 994 3034 1497 
Q 3034 2003 2786 2293 
Q 2538 2584 2113 2584 
z
M 3366 4563 
L 3366 3988 
Q 3128 4100 2886 4159 
Q 2644 4219 2406 4219 
Q 1781 4219 1451 3797 
Q 1122 3375 1075 2522 
Q 1259 2794 1537 2939 
Q 1816 3084 2150 3084 
Q 2853 3084 3261 2657 
Q 3669 2231 3669 1497 
Q 3669 778 3244 343 
Q 2819 -91 2113 -91 
Q 1303 -91 875 529 
Q 447 1150 447 2328 
Q 447 3434 972 4092 
Q 1497 4750 2381 4750 
Q 2619 4750 2861 4703 
Q 3103 4656 3366 4563 
z
" transform="scale(0.015625)"/>
      <path id="DejaVuSans-5f" d="M 3263 -1063 
L 3263 -1509 
L -63 -1509 
L -63 -1063 
L 3263 -1063 
z
" transform="scale(0.015625)"/>
     </defs>
     <use xlink:href="#DejaVuSans-43"/>
     <use xlink:href="#DejaVuSans-6f" transform="translate(69.824219 0)"/>
     <use xlink:href="#DejaVuSans-6c" transform="translate(131.005859 0)"/>
     <use xlink:href="#DejaVuSans-6f" transform="translate(158.789062 0)"/>
     <use xlink:href="#DejaVuSans-72" transform="translate(219.970703 0)"/>
     <use xlink:href="#DejaVuSans-65" transform="translate(258.833984 0)"/>
     <use xlink:href="#DejaVuSans-64" transform="translate(320.357422 0)"/>
     <use xlink:href="#DejaVuSans-20" transform="translate(383.833984 0)"/>
     <use xlink:href="#DejaVuSans-47" transform="translate(415.621094 0)"/>
     <use xlink:href="#DejaVuSans-72" transform="translate(493.111328 0)"/>
     <use xlink:href="#DejaVuSans-61" transform="translate(534.224609 0)"/>
     <use xlink:href="#DejaVuSans-70" transform="translate(595.503906 0)"/>
     <use xlink:href="#DejaVuSans-68" transform="translate(658.980469 0)"/>
     <use xlink:href="#DejaVuSans-20" transform="translate(722.359375 0)"/>
     <use xlink:href="#DejaVuSans-2d" transform="translate(754.146484 0)"/>
     <use xlink:href="#DejaVuSans-20" transform="translate(790.230469 0)"/>
     <use xlink:href="#DejaVuSans-71" transform="translate(822.017578 0)"/>
     <use xlink:href="#DejaVuSans-75" transform="translate(885.494141 0)"/>
     <use xlink:href="#DejaVuSans-65" transform="translate(948.873047 0)"/>
     <use xlink:href="#DejaVuSans-65" transform="translate(1010.396484 0)"/>
     <use xlink:href="#DejaVuSans-6e" transform="translate(1071.919922 0)"/>
     <use xlink:href="#DejaVuSans-36" transform="translate(1135.298828 0)"/>
     <use xlink:href="#DejaVuSans-5f" transform="translate(1198.921875 0)"/>
     <use xlink:href="#DejaVuSans-36" transform="translate(1248.921875 0)"/>
    </g>
   </g>
   <g id="legend_1">
    <g id="patch_2">
     <path d="M 536.2 140.103125 
L 603.85 140.103125 
Q 605.85 140.103125 605.85 138.103125 
L 605.85 7 
Q 605.85 5 603.85 5 
L 536.2 5 
Q 534.2 5 534.2 7 
L 534.2 138.103125 
Q 534.2 140.103125 536.2 140.103125 
z
" style="fill: #ffffff; opacity: 0.8; stroke: #cccccc; stroke-linejoin: miter"/>
    </g>
    <g id="text_2">
     <!-- Colors -->
     <g transform="translate(554.365625 16.598437) scale(0.1 -0.1)">
      <defs>
       <path id="DejaVuSans-73" d="M 2834 3397 
L 2834 2853 
Q 2591 2978 2328 3040 
Q 2066 3103 1784 3103 
Q 1356 3103 1142 2972 
Q 928 2841 928 2578 
Q 928 2378 1081 2264 
Q 1234 2150 1697 2047 
L 1894 2003 
Q 2506 1872 2764 1633 
Q 3022 1394 3022 966 
Q 3022 478 2636 193 
Q 2250 -91 1575 -91 
Q 1294 -91 989 -36 
Q 684 19 347 128 
L 347 722 
Q 666 556 975 473 
Q 1284 391 1588 391 
Q 1994 391 2212 530 
Q 2431 669 2431 922 
Q 2431 1156 2273 1281 
Q 2116 1406 1581 1522 
L 1381 1569 
Q 847 1681 609 1914 
Q 372 2147 372 2553 
Q 372 3047 722 3315 
Q 1072 3584 1716 3584 
Q 2034 3584 2315 3537 
Q 2597 3491 2834 3397 
z
" transform="scale(0.015625)"/>
      </defs>
      <use xlink:href="#DejaVuSans-43"/>
      <use xlink:href="#DejaVuSans-6f" transform="translate(69.824219 0)"/>
      <use xlink:href="#DejaVuSans-6c" transform="translate(131.005859 0)"/>
      <use xlink:href="#DejaVuSans-6f" transform="translate(158.789062 0)"/>
      <use xlink:href="#DejaVuSans-72" transform="translate(219.970703 0)"/>
      <use xlink:href="#DejaVuSans-73" transform="translate(261.083984 0)"/>
     </g>
    </g>
    <g id="patch_3">
     <path d="M 538.2 31.276563 
L 558.2 31.276563 
L 558.2 24.276563 
L 538.2 24.276563 
z
" style="fill: #4062fa; stroke: #4062fa; stroke-linejoin: miter"/>
    </g>
    <g id="text_3">
     <!-- Color 1 -->
     <g transform="translate(566.2 31.276563) scale(0.1 -0.1)">
      <defs>
       <path id="DejaVuSans-31" d="M 794 531 
L 1825 531 
L 1825 4091 
L 703 3866 
L 703 4441 
L 1819 4666 
L 2450 4666 
L 2450 531 
L 3481 531 
L 3481 0 
L 794 0 
L 794 531 
z
" transform="scale(0.015625)"/>
      </defs>
      <use xlink:href="#DejaVuSans-43"/>
      <use xlink:href="#DejaVuSans-6f" transform="translate(69.824219 0)"/>
      <use xlink:href="#DejaVuSans-6c" transform="translate(131.005859 0)"/>
      <use xlink:href="#DejaVuSans-6f" transform="translate(158.789062 0)"/>
      <use xlink:href="#DejaVuSans-72" transform="translate(219.970703 0)"/>
      <use xlink:href="#DejaVuSans-20" transform="translate(261.083984 0)"/>
      <use xlink:href="#DejaVuSans-31" transform="translate(292.871094 0)"/>
     </g>
    </g>
    <g id="patch_4">
     <path d="M 538.2 45.954688 
L 558.2 45.954688 
L 558.2 38.954688 
L 538.2 38.954688 
z
" style="fill: #00b5eb; stroke: #00b5eb; stroke-linejoin: miter"/>
    </g>
    <g id="text_4">
     <!-- Color 2 -->
     <g transform="translate(566.2 45.954688) scale(0.1 -0.1)">
      <defs>
       <path id="DejaVuSans-32" d="M 1228 531 
L 3431 531 
L 3431 0 
L 469 0 
L 469 531 
Q 828 903 1448 1529 
Q 2069 2156 2228 2338 
Q 2531 2678 2651 2914 
Q 2772 3150 2772 3378 
Q 2772 3750 2511 3984 
Q 2250 4219 1831 4219 
Q 1534 4219 1204 4116 
Q 875 4013 500 3803 
L 500 4441 
Q 881 4594 1212 4672 
Q 1544 4750 1819 4750 
Q 2544 4750 2975 4387 
Q 3406 4025 3406 3419 
Q 3406 3131 3298 2873 
Q 3191 2616 2906 2266 
Q 2828 2175 2409 1742 
Q 1991 1309 1228 531 
z
" transform="scale(0.015625)"/>
      </defs>
      <use xlink:href="#DejaVuSans-43"/>
      <use xlink:href="#DejaVuSans-6f" transform="translate(69.824219 0)"/>
      <use xlink:href="#DejaVuSans-6c" transform="translate(131.005859 0)"/>
      <use xlink:href="#DejaVuSans-6f" transform="translate(158.789062 0)"/>
      <use xlink:href="#DejaVuSans-72" transform="translate(219.970703 0)"/>
      <use xlink:href="#DejaVuSans-20" transform="translate(261.083984 0)"/>
      <use xlink:href="#DejaVuSans-32" transform="translate(292.871094 0)"/>
     </g>
    </g>
    <g id="patch_5">
     <path d="M 538.2 60.632812 
L 558.2 60.632812 
L 558.2 53.632812 
L 538.2 53.632812 
z
" style="fill: #40ecd4; stroke: #40ecd4; stroke-linejoin: miter"/>
    </g>
    <g id="text_5">
     <!-- Color 3 -->
     <g transform="translate(566.2 60.632812) scale(0.1 -0.1)">
      <defs>
       <path id="DejaVuSans-33" d="M 2597 2516 
Q 3050 2419 3304 2112 
Q 3559 1806 3559 1356 
Q 3559 666 3084 287 
Q 2609 -91 1734 -91 
Q 1441 -91 1130 -33 
Q 819 25 488 141 
L 488 750 
Q 750 597 1062 519 
Q 1375 441 1716 441 
Q 2309 441 2620 675 
Q 2931 909 2931 1356 
Q 2931 1769 2642 2001 
Q 2353 2234 1838 2234 
L 1294 2234 
L 1294 2753 
L 1863 2753 
Q 2328 2753 2575 2939 
Q 2822 3125 2822 3475 
Q 2822 3834 2567 4026 
Q 2313 4219 1838 4219 
Q 1578 4219 1281 4162 
Q 984 4106 628 3988 
L 628 4550 
Q 988 4650 1302 4700 
Q 1616 4750 1894 4750 
Q 2613 4750 3031 4423 
Q 3450 4097 3450 3541 
Q 3450 3153 3228 2886 
Q 3006 2619 2597 2516 
z
" transform="scale(0.015625)"/>
      </defs>
      <use xlink:href="#DejaVuSans-43"/>
      <use xlink:href="#DejaVuSans-6f" transform="translate(69.824219 0)"/>
      <use xlink:href="#DejaVuSans-6c" transform="translate(131.005859 0)"/>
      <use xlink:href="#DejaVuSans-6f" transform="translate(158.789062 0)"/>
      <use xlink:href="#DejaVuSans-72" transform="translate(219.970703 0)"/>
      <use xlink:href="#DejaVuSans-20" transform="translate(261.083984 0)"/>
      <use xlink:href="#DejaVuSans-33" transform="translate(292.871094 0)"/>
     </g>
    </g>
    <g id="patch_6">
     <path d="M 538.2 75.310938 
L 558.2 75.310938 
L 558.2 68.310938 
L 538.2 68.310938 
z
" style="fill: #80ffb4; stroke: #80ffb4; stroke-linejoin: miter"/>
    </g>
    <g id="text_6">
     <!-- Color 4 -->
     <g transform="translate(566.2 75.310938) scale(0.1 -0.1)">
      <defs>
       <path id="DejaVuSans-34" d="M 2419 4116 
L 825 1625 
L 2419 1625 
L 2419 4116 
z
M 2253 4666 
L 3047 4666 
L 3047 1625 
L 3713 1625 
L 3713 1100 
L 3047 1100 
L 3047 0 
L 2419 0 
L 2419 1100 
L 313 1100 
L 313 1709 
L 2253 4666 
z
" transform="scale(0.015625)"/>
      </defs>
      <use xlink:href="#DejaVuSans-43"/>
      <use xlink:href="#DejaVuSans-6f" transform="translate(69.824219 0)"/>
      <use xlink:href="#DejaVuSans-6c" transform="translate(131.005859 0)"/>
      <use xlink:href="#DejaVuSans-6f" transform="translate(158.789062 0)"/>
      <use xlink:href="#DejaVuSans-72" transform="translate(219.970703 0)"/>
      <use xlink:href="#DejaVuSans-20" transform="translate(261.083984 0)"/>
      <use xlink:href="#DejaVuSans-34" transform="translate(292.871094 0)"/>
     </g>
    </g>
    <g id="patch_7">
     <path d="M 538.2 89.989063 
L 558.2 89.989063 
L 558.2 82.989063 
L 538.2 82.989063 
z
" style="fill: #c0eb8d; stroke: #c0eb8d; stroke-linejoin: miter"/>
    </g>
    <g id="text_7">
     <!-- Color 5 -->
     <g transform="translate(566.2 89.989063) scale(0.1 -0.1)">
      <defs>
       <path id="DejaVuSans-35" d="M 691 4666 
L 3169 4666 
L 3169 4134 
L 1269 4134 
L 1269 2991 
Q 1406 3038 1543 3061 
Q 1681 3084 1819 3084 
Q 2600 3084 3056 2656 
Q 3513 2228 3513 1497 
Q 3513 744 3044 326 
Q 2575 -91 1722 -91 
Q 1428 -91 1123 -41 
Q 819 9 494 109 
L 494 744 
Q 775 591 1075 516 
Q 1375 441 1709 441 
Q 2250 441 2565 725 
Q 2881 1009 2881 1497 
Q 2881 1984 2565 2268 
Q 2250 2553 1709 2553 
Q 1456 2553 1204 2497 
Q 953 2441 691 2322 
L 691 4666 
z
" transform="scale(0.015625)"/>
      </defs>
      <use xlink:href="#DejaVuSans-43"/>
      <use xlink:href="#DejaVuSans-6f" transform="translate(69.824219 0)"/>
      <use xlink:href="#DejaVuSans-6c" transform="translate(131.005859 0)"/>
      <use xlink:href="#DejaVuSans-6f" transform="translate(158.789062 0)"/>
      <use xlink:href="#DejaVuSans-72" transform="translate(219.970703 0)"/>
      <use xlink:href="#DejaVuSans-20" transform="translate(261.083984 0)"/>
      <use xlink:href="#DejaVuSans-35" transform="translate(292.871094 0)"/>
     </g>
    </g>
    <g id="patch_8">
     <path d="M 538.2 104.667188 
L 558.2 104.667188 
L 558.2 97.667188 
L 538.2 97.667188 
z
" style="fill: #ffb360; stroke: #ffb360; stroke-linejoin: miter"/>
    </g>
    <g id="text_8">
     <!-- Color 6 -->
     <g transform="translate(566.2 104.667188) scale(0.1 -0.1)">
      <use xlink:href="#DejaVuSans-43"/>
      <use xlink:href="#DejaVuSans-6f" transform="translate(69.824219 0)"/>
      <use xlink:href="#DejaVuSans-6c" transform="translate(131.005859 0)"/>
      <use xlink:href="#DejaVuSans-6f" transform="translate(158.789062 0)"/>
      <use xlink:href="#DejaVuSans-72" transform="translate(219.970703 0)"/>
      <use xlink:href="#DejaVuSans-20" transform="translate(261.083984 0)"/>
      <use xlink:href="#DejaVuSans-36" transform="translate(292.871094 0)"/>
     </g>
    </g>
    <g id="patch_9">
     <path d="M 538.2 119.345312 
L 558.2 119.345312 
L 558.2 112.345312 
L 538.2 112.345312 
z
" style="fill: #ff5f30; stroke: #ff5f30; stroke-linejoin: miter"/>
    </g>
    <g id="text_9">
     <!-- Color 7 -->
     <g transform="translate(566.2 119.345312) scale(0.1 -0.1)">
      <defs>
       <path id="DejaVuSans-37" d="M 525 4666 
L 3525 4666 
L 3525 4397 
L 1831 0 
L 1172 0 
L 2766 4134 
L 525 4134 
L 525 4666 
z
" transform="scale(0.015625)"/>
      </defs>
      <use xlink:href="#DejaVuSans-43"/>
      <use xlink:href="#DejaVuSans-6f" transform="translate(69.824219 0)"/>
      <use xlink:href="#DejaVuSans-6c" transform="translate(131.005859 0)"/>
      <use xlink:href="#DejaVuSans-6f" transform="translate(158.789062 0)"/>
      <use xlink:href="#DejaVuSans-72" transform="translate(219.970703 0)"/>
      <use xlink:href="#DejaVuSans-20" transform="translate(261.083984 0)"/>
      <use xlink:href="#DejaVuSans-37" transform="translate(292.871094 0)"/>
     </g>
    </g>
    <g id="patch_10">
     <path d="M 538.2 134.023438 
L 558.2 134.023438 
L 558.2 127.023438 
L 538.2 127.023438 
z
" style="fill: #ff0000; stroke: #ff0000; stroke-linejoin: miter"/>
    </g>
    <g id="text_10">
     <!-- Color 8 -->
     <g transform="translate(566.2 134.023438) scale(0.1 -0.1)">
      <defs>
       <path id="DejaVuSans-38" d="M 2034 2216 
Q 1584 2216 1326 1975 
Q 1069 1734 1069 1313 
Q 1069 891 1326 650 
Q 1584 409 2034 409 
Q 2484 409 2743 651 
Q 3003 894 3003 1313 
Q 3003 1734 2745 1975 
Q 2488 2216 2034 2216 
z
M 1403 2484 
Q 997 2584 770 2862 
Q 544 3141 544 3541 
Q 544 4100 942 4425 
Q 1341 4750 2034 4750 
Q 2731 4750 3128 4425 
Q 3525 4100 3525 3541 
Q 3525 3141 3298 2862 
Q 3072 2584 2669 2484 
Q 3125 2378 3379 2068 
Q 3634 1759 3634 1313 
Q 3634 634 3220 271 
Q 2806 -91 2034 -91 
Q 1263 -91 848 271 
Q 434 634 434 1313 
Q 434 1759 690 2068 
Q 947 2378 1403 2484 
z
M 1172 3481 
Q 1172 3119 1398 2916 
Q 1625 2713 2034 2713 
Q 2441 2713 2670 2916 
Q 2900 3119 2900 3481 
Q 2900 3844 2670 4047 
Q 2441 4250 2034 4250 
Q 1625 4250 1398 4047 
Q 1172 3844 1172 3481 
z
" transform="scale(0.015625)"/>
      </defs>
      <use xlink:href="#DejaVuSans-43"/>
      <use xlink:href="#DejaVuSans-6f" transform="translate(69.824219 0)"/>
      <use xlink:href="#DejaVuSans-6c" transform="translate(131.005859 0)"/>
      <use xlink:href="#DejaVuSans-6f" transform="translate(158.789062 0)"/>
      <use xlink:href="#DejaVuSans-72" transform="translate(219.970703 0)"/>
      <use xlink:href="#DejaVuSans-20" transform="translate(261.083984 0)"/>
      <use xlink:href="#DejaVuSans-38" transform="translate(292.871094 0)"/>
     </g>
    </g>
   </g>
  </g>
 </g>
 <defs>
  <clipPath id="p59bdce8c6e">
   <rect x="0" y="0" width="504" height="432"/>
  </clipPath>
 </defs>
</svg>
