<?xml version="1.0" encoding="utf-8" standalone="no"?>
<!DOCTYPE svg PUBLIC "-//W3C//DTD SVG 1.1//EN"
  "http://www.w3.org/Graphics/SVG/1.1/DTD/svg11.dtd">
<svg xmlns:xlink="http://www.w3.org/1999/xlink" width="504pt" height="432pt" viewBox="0 0 504 432" xmlns="http://www.w3.org/2000/svg" version="1.1">
 <metadata>
  <rdf:RDF xmlns:dc="http://purl.org/dc/elements/1.1/" xmlns:cc="http://creativecommons.org/ns#" xmlns:rdf="http://www.w3.org/1999/02/22-rdf-syntax-ns#">
   <cc:Work>
    <dc:type rdf:resource="http://purl.org/dc/dcmitype/StillImage"/>
    <dc:date>2025-05-08T15:07:36.678629</dc:date>
    <dc:format>image/svg+xml</dc:format>
    <dc:creator>
     <cc:Agent>
      <dc:title>Matplotlib v3.9.3, https://matplotlib.org/</dc:title>
     </cc:Agent>
    </dc:creator>
   </cc:Work>
  </rdf:RDF>
 </metadata>
 <defs>
  <style type="text/css">*{stroke-linejoin: round; stroke-linecap: butt}</style>
 </defs>
 <g id="figure_1">
  <g id="patch_1">
   <path d="M 0 432 
L 504 432 
L 504 0 
L 0 0 
z
" style="fill: #ffffff"/>
  </g>
  <g id="axes_1">
   <g id="LineCollection_1">
    <path d="M 185.71721 189.922638 
L 233.585036 186.796354 
" clip-path="url(#p0715b5ed7f)" style="fill: none; stroke: #d3d3d3"/>
    <path d="M 185.71721 189.922638 
L 186.636133 167.786952 
" clip-path="url(#p0715b5ed7f)" style="fill: none; stroke: #d3d3d3"/>
    <path d="M 185.71721 189.922638 
L 140.510532 174.606819 
" clip-path="url(#p0715b5ed7f)" style="fill: none; stroke: #d3d3d3"/>
    <path d="M 185.71721 189.922638 
L 152.892432 209.661483 
" clip-path="url(#p0715b5ed7f)" style="fill: none; stroke: #d3d3d3"/>
    <path d="M 233.585036 186.796354 
L 248.698806 223.177265 
" clip-path="url(#p0715b5ed7f)" style="fill: none; stroke: #d3d3d3"/>
    <path d="M 233.585036 186.796354 
L 218.992406 149.764842 
" clip-path="url(#p0715b5ed7f)" style="fill: none; stroke: #d3d3d3"/>
    <path d="M 233.585036 186.796354 
L 275.429691 164.069136 
" clip-path="url(#p0715b5ed7f)" style="fill: none; stroke: #d3d3d3"/>
    <path d="M 186.636133 167.786952 
L 238.970589 160.863234 
" clip-path="url(#p0715b5ed7f)" style="fill: none; stroke: #d3d3d3"/>
    <path d="M 186.636133 167.786952 
L 146.925233 138.694356 
" clip-path="url(#p0715b5ed7f)" style="fill: none; stroke: #d3d3d3"/>
    <path d="M 186.636133 167.786952 
L 138.867872 153.673106 
" clip-path="url(#p0715b5ed7f)" style="fill: none; stroke: #d3d3d3"/>
    <path d="M 140.510532 174.606819 
L 164.877017 149.42121 
" clip-path="url(#p0715b5ed7f)" style="fill: none; stroke: #d3d3d3"/>
    <path d="M 140.510532 174.606819 
L 90.838723 171.021256 
" clip-path="url(#p0715b5ed7f)" style="fill: none; stroke: #d3d3d3"/>
    <path d="M 140.510532 174.606819 
L 97.804169 157.109144 
" clip-path="url(#p0715b5ed7f)" style="fill: none; stroke: #d3d3d3"/>
    <path d="M 152.892432 209.661483 
L 111.860614 227.385025 
" clip-path="url(#p0715b5ed7f)" style="fill: none; stroke: #d3d3d3"/>
    <path d="M 152.892432 209.661483 
L 132.164002 232.872425 
" clip-path="url(#p0715b5ed7f)" style="fill: none; stroke: #d3d3d3"/>
    <path d="M 248.698806 223.177265 
L 256.077269 254.636325 
" clip-path="url(#p0715b5ed7f)" style="fill: none; stroke: #d3d3d3"/>
    <path d="M 248.698806 223.177265 
L 222.07948 250.325779 
" clip-path="url(#p0715b5ed7f)" style="fill: none; stroke: #d3d3d3"/>
    <path d="M 248.698806 223.177265 
L 293.506636 222.637697 
" clip-path="url(#p0715b5ed7f)" style="fill: none; stroke: #d3d3d3"/>
    <path d="M 218.992406 149.764842 
L 186.57285 116.987347 
" clip-path="url(#p0715b5ed7f)" style="fill: none; stroke: #d3d3d3"/>
    <path d="M 218.992406 149.764842 
L 218.653056 113.739 
" clip-path="url(#p0715b5ed7f)" style="fill: none; stroke: #d3d3d3"/>
    <path d="M 275.429691 164.069136 
L 300.742693 137.93271 
" clip-path="url(#p0715b5ed7f)" style="fill: none; stroke: #d3d3d3"/>
    <path d="M 275.429691 164.069136 
L 324.718905 141.416701 
" clip-path="url(#p0715b5ed7f)" style="fill: none; stroke: #d3d3d3"/>
    <path d="M 292.094816 165.757194 
L 238.970589 160.863234 
" clip-path="url(#p0715b5ed7f)" style="fill: none; stroke: #d3d3d3"/>
    <path d="M 292.094816 165.757194 
L 291.639975 127.168422 
" clip-path="url(#p0715b5ed7f)" style="fill: none; stroke: #d3d3d3"/>
    <path d="M 292.094816 165.757194 
L 299.809327 194.534002 
" clip-path="url(#p0715b5ed7f)" style="fill: none; stroke: #d3d3d3"/>
    <path d="M 292.094816 165.757194 
L 342.938439 178.248307 
" clip-path="url(#p0715b5ed7f)" style="fill: none; stroke: #d3d3d3"/>
    <path d="M 238.970589 160.863234 
L 206.185995 148.829882 
" clip-path="url(#p0715b5ed7f)" style="fill: none; stroke: #d3d3d3"/>
    <path d="M 238.970589 160.863234 
L 209.324521 133.534519 
" clip-path="url(#p0715b5ed7f)" style="fill: none; stroke: #d3d3d3"/>
    <path d="M 291.639975 127.168422 
L 310.305778 114.161098 
" clip-path="url(#p0715b5ed7f)" style="fill: none; stroke: #d3d3d3"/>
    <path d="M 291.639975 127.168422 
L 298.802771 91.816623 
" clip-path="url(#p0715b5ed7f)" style="fill: none; stroke: #d3d3d3"/>
    <path d="M 299.809327 194.534002 
L 293.506636 222.637697 
" clip-path="url(#p0715b5ed7f)" style="fill: none; stroke: #d3d3d3"/>
    <path d="M 299.809327 194.534002 
L 345.67918 193.358074 
" clip-path="url(#p0715b5ed7f)" style="fill: none; stroke: #d3d3d3"/>
    <path d="M 342.938439 178.248307 
L 374.499327 168.184716 
" clip-path="url(#p0715b5ed7f)" style="fill: none; stroke: #d3d3d3"/>
    <path d="M 342.938439 178.248307 
L 380.857217 182.19951 
" clip-path="url(#p0715b5ed7f)" style="fill: none; stroke: #d3d3d3"/>
    <path d="M 342.938439 178.248307 
L 371.648766 211.153653 
" clip-path="url(#p0715b5ed7f)" style="fill: none; stroke: #d3d3d3"/>
    <path d="M 256.077269 254.636325 
L 222.07948 250.325779 
" clip-path="url(#p0715b5ed7f)" style="fill: none; stroke: #d3d3d3"/>
    <path d="M 256.077269 254.636325 
L 248.614644 282.059113 
" clip-path="url(#p0715b5ed7f)" style="fill: none; stroke: #d3d3d3"/>
    <path d="M 256.077269 254.636325 
L 290.551324 279.623589 
" clip-path="url(#p0715b5ed7f)" style="fill: none; stroke: #d3d3d3"/>
    <path d="M 222.07948 250.325779 
L 193.270764 279.511294 
" clip-path="url(#p0715b5ed7f)" style="fill: none; stroke: #d3d3d3"/>
    <path d="M 293.506636 222.637697 
L 335.00832 226.761412 
" clip-path="url(#p0715b5ed7f)" style="fill: none; stroke: #d3d3d3"/>
    <path d="M 293.506636 222.637697 
L 336.257504 242.442281 
" clip-path="url(#p0715b5ed7f)" style="fill: none; stroke: #d3d3d3"/>
    <path d="M 206.185995 148.829882 
L 164.877017 149.42121 
" clip-path="url(#p0715b5ed7f)" style="fill: none; stroke: #d3d3d3"/>
    <path d="M 206.185995 148.829882 
L 209.324521 133.534519 
" clip-path="url(#p0715b5ed7f)" style="fill: none; stroke: #d3d3d3"/>
    <path d="M 209.324521 133.534519 
L 164.877017 149.42121 
" clip-path="url(#p0715b5ed7f)" style="fill: none; stroke: #d3d3d3"/>
    <path d="M 146.925233 138.694356 
L 102.92299 128.088093 
" clip-path="url(#p0715b5ed7f)" style="fill: none; stroke: #d3d3d3"/>
    <path d="M 146.925233 138.694356 
L 138.867872 153.673106 
" clip-path="url(#p0715b5ed7f)" style="fill: none; stroke: #d3d3d3"/>
    <path d="M 138.867872 153.673106 
L 102.92299 128.088093 
" clip-path="url(#p0715b5ed7f)" style="fill: none; stroke: #d3d3d3"/>
    <path d="M 90.838723 171.021256 
L 68.253502 142.76613 
" clip-path="url(#p0715b5ed7f)" style="fill: none; stroke: #d3d3d3"/>
    <path d="M 90.838723 171.021256 
L 97.804169 157.109144 
" clip-path="url(#p0715b5ed7f)" style="fill: none; stroke: #d3d3d3"/>
    <path d="M 97.804169 157.109144 
L 68.253502 142.76613 
" clip-path="url(#p0715b5ed7f)" style="fill: none; stroke: #d3d3d3"/>
    <path d="M 310.305778 114.161098 
L 298.802771 91.816623 
" clip-path="url(#p0715b5ed7f)" style="fill: none; stroke: #d3d3d3"/>
    <path d="M 310.305778 114.161098 
L 300.742693 137.93271 
" clip-path="url(#p0715b5ed7f)" style="fill: none; stroke: #d3d3d3"/>
    <path d="M 310.305778 114.161098 
L 324.718905 141.416701 
" clip-path="url(#p0715b5ed7f)" style="fill: none; stroke: #d3d3d3"/>
    <path d="M 298.802771 91.816623 
L 265.871023 76.424048 
" clip-path="url(#p0715b5ed7f)" style="fill: none; stroke: #d3d3d3"/>
    <path d="M 298.802771 91.816623 
L 314.252888 60.404553 
" clip-path="url(#p0715b5ed7f)" style="fill: none; stroke: #d3d3d3"/>
    <path d="M 300.742693 137.93271 
L 342.182111 109.056656 
" clip-path="url(#p0715b5ed7f)" style="fill: none; stroke: #d3d3d3"/>
    <path d="M 324.718905 141.416701 
L 357.934179 122.843029 
" clip-path="url(#p0715b5ed7f)" style="fill: none; stroke: #d3d3d3"/>
    <path d="M 324.718905 141.416701 
L 376.915468 131.829403 
" clip-path="url(#p0715b5ed7f)" style="fill: none; stroke: #d3d3d3"/>
    <path d="M 265.871023 76.424048 
L 226.61255 79.930216 
" clip-path="url(#p0715b5ed7f)" style="fill: none; stroke: #d3d3d3"/>
    <path d="M 265.871023 76.424048 
L 251.420779 54.620506 
" clip-path="url(#p0715b5ed7f)" style="fill: none; stroke: #d3d3d3"/>
    <path d="M 314.252888 60.404553 
L 295.605577 40.63119 
" clip-path="url(#p0715b5ed7f)" style="fill: none; stroke: #d3d3d3"/>
    <path d="M 314.252888 60.404553 
L 275.545942 37.487603 
" clip-path="url(#p0715b5ed7f)" style="fill: none; stroke: #d3d3d3"/>
    <path d="M 193.270764 279.511294 
L 153.380374 274.037239 
" clip-path="url(#p0715b5ed7f)" style="fill: none; stroke: #d3d3d3"/>
    <path d="M 193.270764 279.511294 
L 165.240822 307.194641 
" clip-path="url(#p0715b5ed7f)" style="fill: none; stroke: #d3d3d3"/>
    <path d="M 193.270764 279.511294 
L 222.360865 302.162272 
" clip-path="url(#p0715b5ed7f)" style="fill: none; stroke: #d3d3d3"/>
    <path d="M 153.380374 274.037239 
L 118.757986 257.717505 
" clip-path="url(#p0715b5ed7f)" style="fill: none; stroke: #d3d3d3"/>
    <path d="M 153.380374 274.037239 
L 113.425374 284.063609 
" clip-path="url(#p0715b5ed7f)" style="fill: none; stroke: #d3d3d3"/>
    <path d="M 165.240822 307.194641 
L 122.430256 312.514607 
" clip-path="url(#p0715b5ed7f)" style="fill: none; stroke: #d3d3d3"/>
    <path d="M 165.240822 307.194641 
L 138.696104 330.781733 
" clip-path="url(#p0715b5ed7f)" style="fill: none; stroke: #d3d3d3"/>
    <path d="M 222.360865 302.162272 
L 248.614644 282.059113 
" clip-path="url(#p0715b5ed7f)" style="fill: none; stroke: #d3d3d3"/>
    <path d="M 222.360865 302.162272 
L 256.975478 313.073862 
" clip-path="url(#p0715b5ed7f)" style="fill: none; stroke: #d3d3d3"/>
    <path d="M 248.614644 282.059113 
L 256.975478 313.073862 
" clip-path="url(#p0715b5ed7f)" style="fill: none; stroke: #d3d3d3"/>
    <path d="M 290.551324 279.623589 
L 320.176229 308.414964 
" clip-path="url(#p0715b5ed7f)" style="fill: none; stroke: #d3d3d3"/>
    <path d="M 290.551324 279.623589 
L 289.299131 305.702652 
" clip-path="url(#p0715b5ed7f)" style="fill: none; stroke: #d3d3d3"/>
    <path d="M 226.61255 79.930216 
L 251.420779 54.620506 
" clip-path="url(#p0715b5ed7f)" style="fill: none; stroke: #d3d3d3"/>
    <path d="M 226.61255 79.930216 
L 218.653056 113.739 
" clip-path="url(#p0715b5ed7f)" style="fill: none; stroke: #d3d3d3"/>
    <path d="M 226.61255 79.930216 
L 186.845002 61.784272 
" clip-path="url(#p0715b5ed7f)" style="fill: none; stroke: #d3d3d3"/>
    <path d="M 251.420779 54.620506 
L 295.605577 40.63119 
" clip-path="url(#p0715b5ed7f)" style="fill: none; stroke: #d3d3d3"/>
    <path d="M 251.420779 54.620506 
L 275.545942 37.487603 
" clip-path="url(#p0715b5ed7f)" style="fill: none; stroke: #d3d3d3"/>
    <path d="M 218.653056 113.739 
L 186.57285 116.987347 
" clip-path="url(#p0715b5ed7f)" style="fill: none; stroke: #d3d3d3"/>
    <path d="M 186.845002 61.784272 
L 176.086374 85.79088 
" clip-path="url(#p0715b5ed7f)" style="fill: none; stroke: #d3d3d3"/>
    <path d="M 186.845002 61.784272 
L 156.585106 88.9106 
" clip-path="url(#p0715b5ed7f)" style="fill: none; stroke: #d3d3d3"/>
    <path d="M 295.605577 40.63119 
L 275.545942 37.487603 
" clip-path="url(#p0715b5ed7f)" style="fill: none; stroke: #d3d3d3"/>
    <path d="M 335.00832 226.761412 
L 371.648766 211.153653 
" clip-path="url(#p0715b5ed7f)" style="fill: none; stroke: #d3d3d3"/>
    <path d="M 335.00832 226.761412 
L 336.257504 242.442281 
" clip-path="url(#p0715b5ed7f)" style="fill: none; stroke: #d3d3d3"/>
    <path d="M 336.257504 242.442281 
L 385.207621 246.773664 
" clip-path="url(#p0715b5ed7f)" style="fill: none; stroke: #d3d3d3"/>
    <path d="M 345.67918 193.358074 
L 374.499327 168.184716 
" clip-path="url(#p0715b5ed7f)" style="fill: none; stroke: #d3d3d3"/>
    <path d="M 345.67918 193.358074 
L 380.857217 182.19951 
" clip-path="url(#p0715b5ed7f)" style="fill: none; stroke: #d3d3d3"/>
    <path d="M 374.499327 168.184716 
L 380.857217 182.19951 
" clip-path="url(#p0715b5ed7f)" style="fill: none; stroke: #d3d3d3"/>
    <path d="M 371.648766 211.153653 
L 412.222129 231.681493 
" clip-path="url(#p0715b5ed7f)" style="fill: none; stroke: #d3d3d3"/>
    <path d="M 371.648766 211.153653 
L 411.223969 216.631605 
" clip-path="url(#p0715b5ed7f)" style="fill: none; stroke: #d3d3d3"/>
    <path d="M 102.92299 128.088093 
L 68.253502 142.76613 
" clip-path="url(#p0715b5ed7f)" style="fill: none; stroke: #d3d3d3"/>
    <path d="M 118.757986 257.717505 
L 113.425374 284.063609 
" clip-path="url(#p0715b5ed7f)" style="fill: none; stroke: #d3d3d3"/>
    <path d="M 118.757986 257.717505 
L 111.860614 227.385025 
" clip-path="url(#p0715b5ed7f)" style="fill: none; stroke: #d3d3d3"/>
    <path d="M 118.757986 257.717505 
L 132.164002 232.872425 
" clip-path="url(#p0715b5ed7f)" style="fill: none; stroke: #d3d3d3"/>
    <path d="M 113.425374 284.063609 
L 122.430256 312.514607 
" clip-path="url(#p0715b5ed7f)" style="fill: none; stroke: #d3d3d3"/>
    <path d="M 113.425374 284.063609 
L 72.508787 291.589523 
" clip-path="url(#p0715b5ed7f)" style="fill: none; stroke: #d3d3d3"/>
    <path d="M 111.860614 227.385025 
L 132.164002 232.872425 
" clip-path="url(#p0715b5ed7f)" style="fill: none; stroke: #d3d3d3"/>
    <path d="M 122.430256 312.514607 
L 119.267611 346.632374 
" clip-path="url(#p0715b5ed7f)" style="fill: none; stroke: #d3d3d3"/>
    <path d="M 122.430256 312.514607 
L 70.562267 324.586245 
" clip-path="url(#p0715b5ed7f)" style="fill: none; stroke: #d3d3d3"/>
    <path d="M 72.508787 291.589523 
L 82.166106 313.734476 
" clip-path="url(#p0715b5ed7f)" style="fill: none; stroke: #d3d3d3"/>
    <path d="M 72.508787 291.589523 
L 98.582446 322.131104 
" clip-path="url(#p0715b5ed7f)" style="fill: none; stroke: #d3d3d3"/>
    <path d="M 138.696104 330.781733 
L 126.640856 364.510664 
" clip-path="url(#p0715b5ed7f)" style="fill: none; stroke: #d3d3d3"/>
    <path d="M 138.696104 330.781733 
L 82.166106 313.734476 
" clip-path="url(#p0715b5ed7f)" style="fill: none; stroke: #d3d3d3"/>
    <path d="M 138.696104 330.781733 
L 98.582446 322.131104 
" clip-path="url(#p0715b5ed7f)" style="fill: none; stroke: #d3d3d3"/>
    <path d="M 119.267611 346.632374 
L 83.032387 364.545484 
" clip-path="url(#p0715b5ed7f)" style="fill: none; stroke: #d3d3d3"/>
    <path d="M 119.267611 346.632374 
L 141.523361 377.402101 
" clip-path="url(#p0715b5ed7f)" style="fill: none; stroke: #d3d3d3"/>
    <path d="M 70.562267 324.586245 
L 43.735537 343.8183 
" clip-path="url(#p0715b5ed7f)" style="fill: none; stroke: #d3d3d3"/>
    <path d="M 70.562267 324.586245 
L 54.206931 356.826808 
" clip-path="url(#p0715b5ed7f)" style="fill: none; stroke: #d3d3d3"/>
    <path d="M 126.640856 364.510664 
L 83.032387 364.545484 
" clip-path="url(#p0715b5ed7f)" style="fill: none; stroke: #d3d3d3"/>
    <path d="M 126.640856 364.510664 
L 116.278313 392.876161 
" clip-path="url(#p0715b5ed7f)" style="fill: none; stroke: #d3d3d3"/>
    <path d="M 126.640856 364.510664 
L 146.297372 394.512397 
" clip-path="url(#p0715b5ed7f)" style="fill: none; stroke: #d3d3d3"/>
    <path d="M 82.166106 313.734476 
L 98.582446 322.131104 
" clip-path="url(#p0715b5ed7f)" style="fill: none; stroke: #d3d3d3"/>
    <path d="M 83.032387 364.545484 
L 43.735537 343.8183 
" clip-path="url(#p0715b5ed7f)" style="fill: none; stroke: #d3d3d3"/>
    <path d="M 83.032387 364.545484 
L 54.206931 356.826808 
" clip-path="url(#p0715b5ed7f)" style="fill: none; stroke: #d3d3d3"/>
    <path d="M 116.278313 392.876161 
L 141.523361 377.402101 
" clip-path="url(#p0715b5ed7f)" style="fill: none; stroke: #d3d3d3"/>
    <path d="M 116.278313 392.876161 
L 146.297372 394.512397 
" clip-path="url(#p0715b5ed7f)" style="fill: none; stroke: #d3d3d3"/>
    <path d="M 146.297372 394.512397 
L 141.523361 377.402101 
" clip-path="url(#p0715b5ed7f)" style="fill: none; stroke: #d3d3d3"/>
    <path d="M 43.735537 343.8183 
L 54.206931 356.826808 
" clip-path="url(#p0715b5ed7f)" style="fill: none; stroke: #d3d3d3"/>
    <path d="M 186.57285 116.987347 
L 176.086374 85.79088 
" clip-path="url(#p0715b5ed7f)" style="fill: none; stroke: #d3d3d3"/>
    <path d="M 186.57285 116.987347 
L 156.585106 88.9106 
" clip-path="url(#p0715b5ed7f)" style="fill: none; stroke: #d3d3d3"/>
    <path d="M 176.086374 85.79088 
L 156.585106 88.9106 
" clip-path="url(#p0715b5ed7f)" style="fill: none; stroke: #d3d3d3"/>
    <path d="M 412.222129 231.681493 
L 385.207621 246.773664 
" clip-path="url(#p0715b5ed7f)" style="fill: none; stroke: #d3d3d3"/>
    <path d="M 412.222129 231.681493 
L 449.650343 245.956942 
" clip-path="url(#p0715b5ed7f)" style="fill: none; stroke: #d3d3d3"/>
    <path d="M 412.222129 231.681493 
L 460.264463 231.909468 
" clip-path="url(#p0715b5ed7f)" style="fill: none; stroke: #d3d3d3"/>
    <path d="M 411.223969 216.631605 
L 385.207621 246.773664 
" clip-path="url(#p0715b5ed7f)" style="fill: none; stroke: #d3d3d3"/>
    <path d="M 411.223969 216.631605 
L 458.176838 214.909837 
" clip-path="url(#p0715b5ed7f)" style="fill: none; stroke: #d3d3d3"/>
    <path d="M 256.975478 313.073862 
L 289.299131 305.702652 
" clip-path="url(#p0715b5ed7f)" style="fill: none; stroke: #d3d3d3"/>
    <path d="M 256.975478 313.073862 
L 283.169023 340.629711 
" clip-path="url(#p0715b5ed7f)" style="fill: none; stroke: #d3d3d3"/>
    <path d="M 289.299131 305.702652 
L 320.176229 308.414964 
" clip-path="url(#p0715b5ed7f)" style="fill: none; stroke: #d3d3d3"/>
    <path d="M 283.169023 340.629711 
L 314.508006 342.823599 
" clip-path="url(#p0715b5ed7f)" style="fill: none; stroke: #d3d3d3"/>
    <path d="M 283.169023 340.629711 
L 331.504404 333.775426 
" clip-path="url(#p0715b5ed7f)" style="fill: none; stroke: #d3d3d3"/>
    <path d="M 320.176229 308.414964 
L 314.508006 342.823599 
" clip-path="url(#p0715b5ed7f)" style="fill: none; stroke: #d3d3d3"/>
    <path d="M 320.176229 308.414964 
L 331.504404 333.775426 
" clip-path="url(#p0715b5ed7f)" style="fill: none; stroke: #d3d3d3"/>
    <path d="M 314.508006 342.823599 
L 331.504404 333.775426 
" clip-path="url(#p0715b5ed7f)" style="fill: none; stroke: #d3d3d3"/>
    <path d="M 449.650343 245.956942 
L 458.176838 214.909837 
" clip-path="url(#p0715b5ed7f)" style="fill: none; stroke: #d3d3d3"/>
    <path d="M 449.650343 245.956942 
L 460.264463 231.909468 
" clip-path="url(#p0715b5ed7f)" style="fill: none; stroke: #d3d3d3"/>
    <path d="M 460.264463 231.909468 
L 458.176838 214.909837 
" clip-path="url(#p0715b5ed7f)" style="fill: none; stroke: #d3d3d3"/>
    <path d="M 342.182111 109.056656 
L 382.907379 97.057207 
" clip-path="url(#p0715b5ed7f)" style="fill: none; stroke: #d3d3d3"/>
    <path d="M 342.182111 109.056656 
L 357.934179 122.843029 
" clip-path="url(#p0715b5ed7f)" style="fill: none; stroke: #d3d3d3"/>
    <path d="M 357.934179 122.843029 
L 382.907379 97.057207 
" clip-path="url(#p0715b5ed7f)" style="fill: none; stroke: #d3d3d3"/>
    <path d="M 376.915468 131.829403 
L 414.320636 119.248255 
" clip-path="url(#p0715b5ed7f)" style="fill: none; stroke: #d3d3d3"/>
    <path d="M 376.915468 131.829403 
L 408.498887 102.927445 
" clip-path="url(#p0715b5ed7f)" style="fill: none; stroke: #d3d3d3"/>
    <path d="M 382.907379 97.057207 
L 414.320636 119.248255 
" clip-path="url(#p0715b5ed7f)" style="fill: none; stroke: #d3d3d3"/>
    <path d="M 382.907379 97.057207 
L 408.498887 102.927445 
" clip-path="url(#p0715b5ed7f)" style="fill: none; stroke: #d3d3d3"/>
    <path d="M 414.320636 119.248255 
L 408.498887 102.927445 
" clip-path="url(#p0715b5ed7f)" style="fill: none; stroke: #d3d3d3"/>
   </g>
   <g id="PathCollection_1">
    <defs>
     <path id="C0_0_d21a191575" d="M 0 5 
C 1.326016 5 2.597899 4.473168 3.535534 3.535534 
C 4.473168 2.597899 5 1.326016 5 -0 
C 5 -1.326016 4.473168 -2.597899 3.535534 -3.535534 
C 2.597899 -4.473168 1.326016 -5 0 -5 
C -1.326016 -5 -2.597899 -4.473168 -3.535534 -3.535534 
C -4.473168 -2.597899 -5 -1.326016 -5 0 
C -5 1.326016 -4.473168 2.597899 -3.535534 3.535534 
C -2.597899 4.473168 -1.326016 5 0 5 
z
"/>
    </defs>
    <g clip-path="url(#p0715b5ed7f)">
     <use xlink:href="#C0_0_d21a191575" x="185.71721" y="189.922638" style="fill: #8000ff; stroke: #8000ff"/>
    </g>
    <g clip-path="url(#p0715b5ed7f)">
     <use xlink:href="#C0_0_d21a191575" x="233.585036" y="186.796354" style="fill: #2adddd; stroke: #2adddd"/>
    </g>
    <g clip-path="url(#p0715b5ed7f)">
     <use xlink:href="#C0_0_d21a191575" x="186.636133" y="167.786952" style="fill: #8000ff; stroke: #8000ff"/>
    </g>
    <g clip-path="url(#p0715b5ed7f)">
     <use xlink:href="#C0_0_d21a191575" x="140.510532" y="174.606819" style="fill: #8000ff; stroke: #8000ff"/>
    </g>
    <g clip-path="url(#p0715b5ed7f)">
     <use xlink:href="#C0_0_d21a191575" x="152.892432" y="209.661483" style="fill: #d4dd80; stroke: #d4dd80"/>
    </g>
    <g clip-path="url(#p0715b5ed7f)">
     <use xlink:href="#C0_0_d21a191575" x="248.698806" y="223.177265" style="fill: #2adddd; stroke: #2adddd"/>
    </g>
    <g clip-path="url(#p0715b5ed7f)">
     <use xlink:href="#C0_0_d21a191575" x="218.992406" y="149.764842" style="fill: #2adddd; stroke: #2adddd"/>
    </g>
    <g clip-path="url(#p0715b5ed7f)">
     <use xlink:href="#C0_0_d21a191575" x="275.429691" y="164.069136" style="fill: #d4dd80; stroke: #d4dd80"/>
    </g>
    <g clip-path="url(#p0715b5ed7f)">
     <use xlink:href="#C0_0_d21a191575" x="292.094816" y="165.757194" style="fill: #8000ff; stroke: #8000ff"/>
    </g>
    <g clip-path="url(#p0715b5ed7f)">
     <use xlink:href="#C0_0_d21a191575" x="238.970589" y="160.863234" style="fill: #2adddd; stroke: #2adddd"/>
    </g>
    <g clip-path="url(#p0715b5ed7f)">
     <use xlink:href="#C0_0_d21a191575" x="291.639975" y="127.168422" style="fill: #8000ff; stroke: #8000ff"/>
    </g>
    <g clip-path="url(#p0715b5ed7f)">
     <use xlink:href="#C0_0_d21a191575" x="299.809327" y="194.534002" style="fill: #2adddd; stroke: #2adddd"/>
    </g>
    <g clip-path="url(#p0715b5ed7f)">
     <use xlink:href="#C0_0_d21a191575" x="342.938439" y="178.248307" style="fill: #d4dd80; stroke: #d4dd80"/>
    </g>
    <g clip-path="url(#p0715b5ed7f)">
     <use xlink:href="#C0_0_d21a191575" x="256.077269" y="254.636325" style="fill: #8000ff; stroke: #8000ff"/>
    </g>
    <g clip-path="url(#p0715b5ed7f)">
     <use xlink:href="#C0_0_d21a191575" x="222.07948" y="250.325779" style="fill: #d4dd80; stroke: #d4dd80"/>
    </g>
    <g clip-path="url(#p0715b5ed7f)">
     <use xlink:href="#C0_0_d21a191575" x="293.506636" y="222.637697" style="fill: #2adddd; stroke: #2adddd"/>
    </g>
    <g clip-path="url(#p0715b5ed7f)">
     <use xlink:href="#C0_0_d21a191575" x="206.185995" y="148.829882" style="fill: #8000ff; stroke: #8000ff"/>
    </g>
    <g clip-path="url(#p0715b5ed7f)">
     <use xlink:href="#C0_0_d21a191575" x="209.324521" y="133.534519" style="fill: #d4dd80; stroke: #d4dd80"/>
    </g>
    <g clip-path="url(#p0715b5ed7f)">
     <use xlink:href="#C0_0_d21a191575" x="146.925233" y="138.694356" style="fill: #ff0000; stroke: #ff0000"/>
    </g>
    <g clip-path="url(#p0715b5ed7f)">
     <use xlink:href="#C0_0_d21a191575" x="138.867872" y="153.673106" style="fill: #2adddd; stroke: #2adddd"/>
    </g>
    <g clip-path="url(#p0715b5ed7f)">
     <use xlink:href="#C0_0_d21a191575" x="164.877017" y="149.42121" style="fill: #d4dd80; stroke: #d4dd80"/>
    </g>
    <g clip-path="url(#p0715b5ed7f)">
     <use xlink:href="#C0_0_d21a191575" x="90.838723" y="171.021256" style="fill: #2adddd; stroke: #2adddd"/>
    </g>
    <g clip-path="url(#p0715b5ed7f)">
     <use xlink:href="#C0_0_d21a191575" x="97.804169" y="157.109144" style="fill: #2adddd; stroke: #2adddd"/>
    </g>
    <g clip-path="url(#p0715b5ed7f)">
     <use xlink:href="#C0_0_d21a191575" x="310.305778" y="114.161098" style="fill: #8000ff; stroke: #8000ff"/>
    </g>
    <g clip-path="url(#p0715b5ed7f)">
     <use xlink:href="#C0_0_d21a191575" x="298.802771" y="91.816623" style="fill: #d4dd80; stroke: #d4dd80"/>
    </g>
    <g clip-path="url(#p0715b5ed7f)">
     <use xlink:href="#C0_0_d21a191575" x="300.742693" y="137.93271" style="fill: #8000ff; stroke: #8000ff"/>
    </g>
    <g clip-path="url(#p0715b5ed7f)">
     <use xlink:href="#C0_0_d21a191575" x="324.718905" y="141.416701" style="fill: #d4dd80; stroke: #d4dd80"/>
    </g>
    <g clip-path="url(#p0715b5ed7f)">
     <use xlink:href="#C0_0_d21a191575" x="265.871023" y="76.424048" style="fill: #ff0000; stroke: #ff0000"/>
    </g>
    <g clip-path="url(#p0715b5ed7f)">
     <use xlink:href="#C0_0_d21a191575" x="314.252888" y="60.404553" style="fill: #8000ff; stroke: #8000ff"/>
    </g>
    <g clip-path="url(#p0715b5ed7f)">
     <use xlink:href="#C0_0_d21a191575" x="193.270764" y="279.511294" style="fill: #d4dd80; stroke: #d4dd80"/>
    </g>
    <g clip-path="url(#p0715b5ed7f)">
     <use xlink:href="#C0_0_d21a191575" x="153.380374" y="274.037239" style="fill: #2adddd; stroke: #2adddd"/>
    </g>
    <g clip-path="url(#p0715b5ed7f)">
     <use xlink:href="#C0_0_d21a191575" x="165.240822" y="307.194641" style="fill: #2adddd; stroke: #2adddd"/>
    </g>
    <g clip-path="url(#p0715b5ed7f)">
     <use xlink:href="#C0_0_d21a191575" x="222.360865" y="302.162272" style="fill: #8000ff; stroke: #8000ff"/>
    </g>
    <g clip-path="url(#p0715b5ed7f)">
     <use xlink:href="#C0_0_d21a191575" x="248.614644" y="282.059113" style="fill: #8000ff; stroke: #8000ff"/>
    </g>
    <g clip-path="url(#p0715b5ed7f)">
     <use xlink:href="#C0_0_d21a191575" x="290.551324" y="279.623589" style="fill: #2adddd; stroke: #2adddd"/>
    </g>
    <g clip-path="url(#p0715b5ed7f)">
     <use xlink:href="#C0_0_d21a191575" x="226.61255" y="79.930216" style="fill: #8000ff; stroke: #8000ff"/>
    </g>
    <g clip-path="url(#p0715b5ed7f)">
     <use xlink:href="#C0_0_d21a191575" x="251.420779" y="54.620506" style="fill: #2adddd; stroke: #2adddd"/>
    </g>
    <g clip-path="url(#p0715b5ed7f)">
     <use xlink:href="#C0_0_d21a191575" x="218.653056" y="113.739" style="fill: #d4dd80; stroke: #d4dd80"/>
    </g>
    <g clip-path="url(#p0715b5ed7f)">
     <use xlink:href="#C0_0_d21a191575" x="186.845002" y="61.784272" style="fill: #8000ff; stroke: #8000ff"/>
    </g>
    <g clip-path="url(#p0715b5ed7f)">
     <use xlink:href="#C0_0_d21a191575" x="295.605577" y="40.63119" style="fill: #2adddd; stroke: #2adddd"/>
    </g>
    <g clip-path="url(#p0715b5ed7f)">
     <use xlink:href="#C0_0_d21a191575" x="275.545942" y="37.487603" style="fill: #8000ff; stroke: #8000ff"/>
    </g>
    <g clip-path="url(#p0715b5ed7f)">
     <use xlink:href="#C0_0_d21a191575" x="335.00832" y="226.761412" style="fill: #d4dd80; stroke: #d4dd80"/>
    </g>
    <g clip-path="url(#p0715b5ed7f)">
     <use xlink:href="#C0_0_d21a191575" x="336.257504" y="242.442281" style="fill: #8000ff; stroke: #8000ff"/>
    </g>
    <g clip-path="url(#p0715b5ed7f)">
     <use xlink:href="#C0_0_d21a191575" x="345.67918" y="193.358074" style="fill: #2adddd; stroke: #2adddd"/>
    </g>
    <g clip-path="url(#p0715b5ed7f)">
     <use xlink:href="#C0_0_d21a191575" x="374.499327" y="168.184716" style="fill: #d4dd80; stroke: #d4dd80"/>
    </g>
    <g clip-path="url(#p0715b5ed7f)">
     <use xlink:href="#C0_0_d21a191575" x="380.857217" y="182.19951" style="fill: #8000ff; stroke: #8000ff"/>
    </g>
    <g clip-path="url(#p0715b5ed7f)">
     <use xlink:href="#C0_0_d21a191575" x="371.648766" y="211.153653" style="fill: #d4dd80; stroke: #d4dd80"/>
    </g>
    <g clip-path="url(#p0715b5ed7f)">
     <use xlink:href="#C0_0_d21a191575" x="102.92299" y="128.088093" style="fill: #8000ff; stroke: #8000ff"/>
    </g>
    <g clip-path="url(#p0715b5ed7f)">
     <use xlink:href="#C0_0_d21a191575" x="68.253502" y="142.76613" style="fill: #2adddd; stroke: #2adddd"/>
    </g>
    <g clip-path="url(#p0715b5ed7f)">
     <use xlink:href="#C0_0_d21a191575" x="118.757986" y="257.717505" style="fill: #d4dd80; stroke: #d4dd80"/>
    </g>
    <g clip-path="url(#p0715b5ed7f)">
     <use xlink:href="#C0_0_d21a191575" x="113.425374" y="284.063609" style="fill: #2adddd; stroke: #2adddd"/>
    </g>
    <g clip-path="url(#p0715b5ed7f)">
     <use xlink:href="#C0_0_d21a191575" x="111.860614" y="227.385025" style="fill: #2adddd; stroke: #2adddd"/>
    </g>
    <g clip-path="url(#p0715b5ed7f)">
     <use xlink:href="#C0_0_d21a191575" x="132.164002" y="232.872425" style="fill: #8000ff; stroke: #8000ff"/>
    </g>
    <g clip-path="url(#p0715b5ed7f)">
     <use xlink:href="#C0_0_d21a191575" x="122.430256" y="312.514607" style="fill: #2adddd; stroke: #2adddd"/>
    </g>
    <g clip-path="url(#p0715b5ed7f)">
     <use xlink:href="#C0_0_d21a191575" x="72.508787" y="291.589523" style="fill: #2adddd; stroke: #2adddd"/>
    </g>
    <g clip-path="url(#p0715b5ed7f)">
     <use xlink:href="#C0_0_d21a191575" x="138.696104" y="330.781733" style="fill: #8000ff; stroke: #8000ff"/>
    </g>
    <g clip-path="url(#p0715b5ed7f)">
     <use xlink:href="#C0_0_d21a191575" x="119.267611" y="346.632374" style="fill: #2adddd; stroke: #2adddd"/>
    </g>
    <g clip-path="url(#p0715b5ed7f)">
     <use xlink:href="#C0_0_d21a191575" x="70.562267" y="324.586245" style="fill: #d4dd80; stroke: #d4dd80"/>
    </g>
    <g clip-path="url(#p0715b5ed7f)">
     <use xlink:href="#C0_0_d21a191575" x="126.640856" y="364.510664" style="fill: #d4dd80; stroke: #d4dd80"/>
    </g>
    <g clip-path="url(#p0715b5ed7f)">
     <use xlink:href="#C0_0_d21a191575" x="82.166106" y="313.734476" style="fill: #8000ff; stroke: #8000ff"/>
    </g>
    <g clip-path="url(#p0715b5ed7f)">
     <use xlink:href="#C0_0_d21a191575" x="98.582446" y="322.131104" style="fill: #2adddd; stroke: #2adddd"/>
    </g>
    <g clip-path="url(#p0715b5ed7f)">
     <use xlink:href="#C0_0_d21a191575" x="83.032387" y="364.545484" style="fill: #2adddd; stroke: #2adddd"/>
    </g>
    <g clip-path="url(#p0715b5ed7f)">
     <use xlink:href="#C0_0_d21a191575" x="116.278313" y="392.876161" style="fill: #d4dd80; stroke: #d4dd80"/>
    </g>
    <g clip-path="url(#p0715b5ed7f)">
     <use xlink:href="#C0_0_d21a191575" x="146.297372" y="394.512397" style="fill: #ff0000; stroke: #ff0000"/>
    </g>
    <g clip-path="url(#p0715b5ed7f)">
     <use xlink:href="#C0_0_d21a191575" x="43.735537" y="343.8183" style="fill: #2adddd; stroke: #2adddd"/>
    </g>
    <g clip-path="url(#p0715b5ed7f)">
     <use xlink:href="#C0_0_d21a191575" x="54.206931" y="356.826808" style="fill: #d4dd80; stroke: #d4dd80"/>
    </g>
    <g clip-path="url(#p0715b5ed7f)">
     <use xlink:href="#C0_0_d21a191575" x="141.523361" y="377.402101" style="fill: #ff0000; stroke: #ff0000"/>
    </g>
    <g clip-path="url(#p0715b5ed7f)">
     <use xlink:href="#C0_0_d21a191575" x="186.57285" y="116.987347" style="fill: #2adddd; stroke: #2adddd"/>
    </g>
    <g clip-path="url(#p0715b5ed7f)">
     <use xlink:href="#C0_0_d21a191575" x="176.086374" y="85.79088" style="fill: #d4dd80; stroke: #d4dd80"/>
    </g>
    <g clip-path="url(#p0715b5ed7f)">
     <use xlink:href="#C0_0_d21a191575" x="156.585106" y="88.9106" style="fill: #ff0000; stroke: #ff0000"/>
    </g>
    <g clip-path="url(#p0715b5ed7f)">
     <use xlink:href="#C0_0_d21a191575" x="412.222129" y="231.681493" style="fill: #d4dd80; stroke: #d4dd80"/>
    </g>
    <g clip-path="url(#p0715b5ed7f)">
     <use xlink:href="#C0_0_d21a191575" x="411.223969" y="216.631605" style="fill: #8000ff; stroke: #8000ff"/>
    </g>
    <g clip-path="url(#p0715b5ed7f)">
     <use xlink:href="#C0_0_d21a191575" x="385.207621" y="246.773664" style="fill: #ff0000; stroke: #ff0000"/>
    </g>
    <g clip-path="url(#p0715b5ed7f)">
     <use xlink:href="#C0_0_d21a191575" x="256.975478" y="313.073862" style="fill: #2adddd; stroke: #2adddd"/>
    </g>
    <g clip-path="url(#p0715b5ed7f)">
     <use xlink:href="#C0_0_d21a191575" x="289.299131" y="305.702652" style="fill: #d4dd80; stroke: #d4dd80"/>
    </g>
    <g clip-path="url(#p0715b5ed7f)">
     <use xlink:href="#C0_0_d21a191575" x="283.169023" y="340.629711" style="fill: #ff0000; stroke: #ff0000"/>
    </g>
    <g clip-path="url(#p0715b5ed7f)">
     <use xlink:href="#C0_0_d21a191575" x="320.176229" y="308.414964" style="fill: #ff0000; stroke: #ff0000"/>
    </g>
    <g clip-path="url(#p0715b5ed7f)">
     <use xlink:href="#C0_0_d21a191575" x="314.508006" y="342.823599" style="fill: #8000ff; stroke: #8000ff"/>
    </g>
    <g clip-path="url(#p0715b5ed7f)">
     <use xlink:href="#C0_0_d21a191575" x="331.504404" y="333.775426" style="fill: #d4dd80; stroke: #d4dd80"/>
    </g>
    <g clip-path="url(#p0715b5ed7f)">
     <use xlink:href="#C0_0_d21a191575" x="449.650343" y="245.956942" style="fill: #ff0000; stroke: #ff0000"/>
    </g>
    <g clip-path="url(#p0715b5ed7f)">
     <use xlink:href="#C0_0_d21a191575" x="460.264463" y="231.909468" style="fill: #8000ff; stroke: #8000ff"/>
    </g>
    <g clip-path="url(#p0715b5ed7f)">
     <use xlink:href="#C0_0_d21a191575" x="458.176838" y="214.909837" style="fill: #d4dd80; stroke: #d4dd80"/>
    </g>
    <g clip-path="url(#p0715b5ed7f)">
     <use xlink:href="#C0_0_d21a191575" x="342.182111" y="109.056656" style="fill: #8000ff; stroke: #8000ff"/>
    </g>
    <g clip-path="url(#p0715b5ed7f)">
     <use xlink:href="#C0_0_d21a191575" x="357.934179" y="122.843029" style="fill: #2adddd; stroke: #2adddd"/>
    </g>
    <g clip-path="url(#p0715b5ed7f)">
     <use xlink:href="#C0_0_d21a191575" x="376.915468" y="131.829403" style="fill: #d4dd80; stroke: #d4dd80"/>
    </g>
    <g clip-path="url(#p0715b5ed7f)">
     <use xlink:href="#C0_0_d21a191575" x="382.907379" y="97.057207" style="fill: #ff0000; stroke: #ff0000"/>
    </g>
    <g clip-path="url(#p0715b5ed7f)">
     <use xlink:href="#C0_0_d21a191575" x="414.320636" y="119.248255" style="fill: #8000ff; stroke: #8000ff"/>
    </g>
    <g clip-path="url(#p0715b5ed7f)">
     <use xlink:href="#C0_0_d21a191575" x="408.498887" y="102.927445" style="fill: #d4dd80; stroke: #d4dd80"/>
    </g>
   </g>
   <g id="text_1">
    <!-- Colorare euristică - mug88_1 (χ ≈ 4) -->
    <g transform="translate(142.378125 -6) scale(0.12 -0.12)">
     <defs>
      <path id="DejaVuSans-43" d="M 4122 4306 
L 4122 3641 
Q 3803 3938 3442 4084 
Q 3081 4231 2675 4231 
Q 1875 4231 1450 3742 
Q 1025 3253 1025 2328 
Q 1025 1406 1450 917 
Q 1875 428 2675 428 
Q 3081 428 3442 575 
Q 3803 722 4122 1019 
L 4122 359 
Q 3791 134 3420 21 
Q 3050 -91 2638 -91 
Q 1578 -91 968 557 
Q 359 1206 359 2328 
Q 359 3453 968 4101 
Q 1578 4750 2638 4750 
Q 3056 4750 3426 4639 
Q 3797 4528 4122 4306 
z
" transform="scale(0.015625)"/>
      <path id="DejaVuSans-6f" d="M 1959 3097 
Q 1497 3097 1228 2736 
Q 959 2375 959 1747 
Q 959 1119 1226 758 
Q 1494 397 1959 397 
Q 2419 397 2687 759 
Q 2956 1122 2956 1747 
Q 2956 2369 2687 2733 
Q 2419 3097 1959 3097 
z
M 1959 3584 
Q 2709 3584 3137 3096 
Q 3566 2609 3566 1747 
Q 3566 888 3137 398 
Q 2709 -91 1959 -91 
Q 1206 -91 779 398 
Q 353 888 353 1747 
Q 353 2609 779 3096 
Q 1206 3584 1959 3584 
z
" transform="scale(0.015625)"/>
      <path id="DejaVuSans-6c" d="M 603 4863 
L 1178 4863 
L 1178 0 
L 603 0 
L 603 4863 
z
" transform="scale(0.015625)"/>
      <path id="DejaVuSans-72" d="M 2631 2963 
Q 2534 3019 2420 3045 
Q 2306 3072 2169 3072 
Q 1681 3072 1420 2755 
Q 1159 2438 1159 1844 
L 1159 0 
L 581 0 
L 581 3500 
L 1159 3500 
L 1159 2956 
Q 1341 3275 1631 3429 
Q 1922 3584 2338 3584 
Q 2397 3584 2469 3576 
Q 2541 3569 2628 3553 
L 2631 2963 
z
" transform="scale(0.015625)"/>
      <path id="DejaVuSans-61" d="M 2194 1759 
Q 1497 1759 1228 1600 
Q 959 1441 959 1056 
Q 959 750 1161 570 
Q 1363 391 1709 391 
Q 2188 391 2477 730 
Q 2766 1069 2766 1631 
L 2766 1759 
L 2194 1759 
z
M 3341 1997 
L 3341 0 
L 2766 0 
L 2766 531 
Q 2569 213 2275 61 
Q 1981 -91 1556 -91 
Q 1019 -91 701 211 
Q 384 513 384 1019 
Q 384 1609 779 1909 
Q 1175 2209 1959 2209 
L 2766 2209 
L 2766 2266 
Q 2766 2663 2505 2880 
Q 2244 3097 1772 3097 
Q 1472 3097 1187 3025 
Q 903 2953 641 2809 
L 641 3341 
Q 956 3463 1253 3523 
Q 1550 3584 1831 3584 
Q 2591 3584 2966 3190 
Q 3341 2797 3341 1997 
z
" transform="scale(0.015625)"/>
      <path id="DejaVuSans-65" d="M 3597 1894 
L 3597 1613 
L 953 1613 
Q 991 1019 1311 708 
Q 1631 397 2203 397 
Q 2534 397 2845 478 
Q 3156 559 3463 722 
L 3463 178 
Q 3153 47 2828 -22 
Q 2503 -91 2169 -91 
Q 1331 -91 842 396 
Q 353 884 353 1716 
Q 353 2575 817 3079 
Q 1281 3584 2069 3584 
Q 2775 3584 3186 3129 
Q 3597 2675 3597 1894 
z
M 3022 2063 
Q 3016 2534 2758 2815 
Q 2500 3097 2075 3097 
Q 1594 3097 1305 2825 
Q 1016 2553 972 2059 
L 3022 2063 
z
" transform="scale(0.015625)"/>
      <path id="DejaVuSans-20" transform="scale(0.015625)"/>
      <path id="DejaVuSans-75" d="M 544 1381 
L 544 3500 
L 1119 3500 
L 1119 1403 
Q 1119 906 1312 657 
Q 1506 409 1894 409 
Q 2359 409 2629 706 
Q 2900 1003 2900 1516 
L 2900 3500 
L 3475 3500 
L 3475 0 
L 2900 0 
L 2900 538 
Q 2691 219 2414 64 
Q 2138 -91 1772 -91 
Q 1169 -91 856 284 
Q 544 659 544 1381 
z
M 1991 3584 
L 1991 3584 
z
" transform="scale(0.015625)"/>
      <path id="DejaVuSans-69" d="M 603 3500 
L 1178 3500 
L 1178 0 
L 603 0 
L 603 3500 
z
M 603 4863 
L 1178 4863 
L 1178 4134 
L 603 4134 
L 603 4863 
z
" transform="scale(0.015625)"/>
      <path id="DejaVuSans-73" d="M 2834 3397 
L 2834 2853 
Q 2591 2978 2328 3040 
Q 2066 3103 1784 3103 
Q 1356 3103 1142 2972 
Q 928 2841 928 2578 
Q 928 2378 1081 2264 
Q 1234 2150 1697 2047 
L 1894 2003 
Q 2506 1872 2764 1633 
Q 3022 1394 3022 966 
Q 3022 478 2636 193 
Q 2250 -91 1575 -91 
Q 1294 -91 989 -36 
Q 684 19 347 128 
L 347 722 
Q 666 556 975 473 
Q 1284 391 1588 391 
Q 1994 391 2212 530 
Q 2431 669 2431 922 
Q 2431 1156 2273 1281 
Q 2116 1406 1581 1522 
L 1381 1569 
Q 847 1681 609 1914 
Q 372 2147 372 2553 
Q 372 3047 722 3315 
Q 1072 3584 1716 3584 
Q 2034 3584 2315 3537 
Q 2597 3491 2834 3397 
z
" transform="scale(0.015625)"/>
      <path id="DejaVuSans-74" d="M 1172 4494 
L 1172 3500 
L 2356 3500 
L 2356 3053 
L 1172 3053 
L 1172 1153 
Q 1172 725 1289 603 
Q 1406 481 1766 481 
L 2356 481 
L 2356 0 
L 1766 0 
Q 1100 0 847 248 
Q 594 497 594 1153 
L 594 3053 
L 172 3053 
L 172 3500 
L 594 3500 
L 594 4494 
L 1172 4494 
z
" transform="scale(0.015625)"/>
      <path id="DejaVuSans-63" d="M 3122 3366 
L 3122 2828 
Q 2878 2963 2633 3030 
Q 2388 3097 2138 3097 
Q 1578 3097 1268 2742 
Q 959 2388 959 1747 
Q 959 1106 1268 751 
Q 1578 397 2138 397 
Q 2388 397 2633 464 
Q 2878 531 3122 666 
L 3122 134 
Q 2881 22 2623 -34 
Q 2366 -91 2075 -91 
Q 1284 -91 818 406 
Q 353 903 353 1747 
Q 353 2603 823 3093 
Q 1294 3584 2113 3584 
Q 2378 3584 2631 3529 
Q 2884 3475 3122 3366 
z
" transform="scale(0.015625)"/>
      <path id="DejaVuSans-103" d="M 870 4897 
L 1239 4897 
Q 1273 4663 1424 4545 
Q 1576 4428 1848 4428 
Q 2117 4428 2267 4544 
Q 2417 4660 2457 4897 
L 2826 4897 
Q 2795 4450 2548 4225 
Q 2301 4000 1848 4000 
Q 1395 4000 1148 4225 
Q 901 4450 870 4897 
z
M 2194 1759 
Q 1497 1759 1228 1600 
Q 959 1441 959 1056 
Q 959 750 1161 570 
Q 1363 391 1709 391 
Q 2188 391 2477 730 
Q 2766 1069 2766 1631 
L 2766 1759 
L 2194 1759 
z
M 3341 1997 
L 3341 0 
L 2766 0 
L 2766 531 
Q 2569 213 2275 61 
Q 1981 -91 1556 -91 
Q 1019 -91 701 211 
Q 384 513 384 1019 
Q 384 1609 779 1909 
Q 1175 2209 1959 2209 
L 2766 2209 
L 2766 2266 
Q 2766 2663 2505 2880 
Q 2244 3097 1772 3097 
Q 1472 3097 1187 3025 
Q 903 2953 641 2809 
L 641 3341 
Q 956 3463 1253 3523 
Q 1550 3584 1831 3584 
Q 2591 3584 2966 3190 
Q 3341 2797 3341 1997 
z
" transform="scale(0.015625)"/>
      <path id="DejaVuSans-2d" d="M 313 2009 
L 1997 2009 
L 1997 1497 
L 313 1497 
L 313 2009 
z
" transform="scale(0.015625)"/>
      <path id="DejaVuSans-6d" d="M 3328 2828 
Q 3544 3216 3844 3400 
Q 4144 3584 4550 3584 
Q 5097 3584 5394 3201 
Q 5691 2819 5691 2113 
L 5691 0 
L 5113 0 
L 5113 2094 
Q 5113 2597 4934 2840 
Q 4756 3084 4391 3084 
Q 3944 3084 3684 2787 
Q 3425 2491 3425 1978 
L 3425 0 
L 2847 0 
L 2847 2094 
Q 2847 2600 2669 2842 
Q 2491 3084 2119 3084 
Q 1678 3084 1418 2786 
Q 1159 2488 1159 1978 
L 1159 0 
L 581 0 
L 581 3500 
L 1159 3500 
L 1159 2956 
Q 1356 3278 1631 3431 
Q 1906 3584 2284 3584 
Q 2666 3584 2933 3390 
Q 3200 3197 3328 2828 
z
" transform="scale(0.015625)"/>
      <path id="DejaVuSans-67" d="M 2906 1791 
Q 2906 2416 2648 2759 
Q 2391 3103 1925 3103 
Q 1463 3103 1205 2759 
Q 947 2416 947 1791 
Q 947 1169 1205 825 
Q 1463 481 1925 481 
Q 2391 481 2648 825 
Q 2906 1169 2906 1791 
z
M 3481 434 
Q 3481 -459 3084 -895 
Q 2688 -1331 1869 -1331 
Q 1566 -1331 1297 -1286 
Q 1028 -1241 775 -1147 
L 775 -588 
Q 1028 -725 1275 -790 
Q 1522 -856 1778 -856 
Q 2344 -856 2625 -561 
Q 2906 -266 2906 331 
L 2906 616 
Q 2728 306 2450 153 
Q 2172 0 1784 0 
Q 1141 0 747 490 
Q 353 981 353 1791 
Q 353 2603 747 3093 
Q 1141 3584 1784 3584 
Q 2172 3584 2450 3431 
Q 2728 3278 2906 2969 
L 2906 3500 
L 3481 3500 
L 3481 434 
z
" transform="scale(0.015625)"/>
      <path id="DejaVuSans-38" d="M 2034 2216 
Q 1584 2216 1326 1975 
Q 1069 1734 1069 1313 
Q 1069 891 1326 650 
Q 1584 409 2034 409 
Q 2484 409 2743 651 
Q 3003 894 3003 1313 
Q 3003 1734 2745 1975 
Q 2488 2216 2034 2216 
z
M 1403 2484 
Q 997 2584 770 2862 
Q 544 3141 544 3541 
Q 544 4100 942 4425 
Q 1341 4750 2034 4750 
Q 2731 4750 3128 4425 
Q 3525 4100 3525 3541 
Q 3525 3141 3298 2862 
Q 3072 2584 2669 2484 
Q 3125 2378 3379 2068 
Q 3634 1759 3634 1313 
Q 3634 634 3220 271 
Q 2806 -91 2034 -91 
Q 1263 -91 848 271 
Q 434 634 434 1313 
Q 434 1759 690 2068 
Q 947 2378 1403 2484 
z
M 1172 3481 
Q 1172 3119 1398 2916 
Q 1625 2713 2034 2713 
Q 2441 2713 2670 2916 
Q 2900 3119 2900 3481 
Q 2900 3844 2670 4047 
Q 2441 4250 2034 4250 
Q 1625 4250 1398 4047 
Q 1172 3844 1172 3481 
z
" transform="scale(0.015625)"/>
      <path id="DejaVuSans-5f" d="M 3263 -1063 
L 3263 -1509 
L -63 -1509 
L -63 -1063 
L 3263 -1063 
z
" transform="scale(0.015625)"/>
      <path id="DejaVuSans-31" d="M 794 531 
L 1825 531 
L 1825 4091 
L 703 3866 
L 703 4441 
L 1819 4666 
L 2450 4666 
L 2450 531 
L 3481 531 
L 3481 0 
L 794 0 
L 794 531 
z
" transform="scale(0.015625)"/>
      <path id="DejaVuSans-28" d="M 1984 4856 
Q 1566 4138 1362 3434 
Q 1159 2731 1159 2009 
Q 1159 1288 1364 580 
Q 1569 -128 1984 -844 
L 1484 -844 
Q 1016 -109 783 600 
Q 550 1309 550 2009 
Q 550 2706 781 3412 
Q 1013 4119 1484 4856 
L 1984 4856 
z
" transform="scale(0.015625)"/>
      <path id="DejaVuSans-3c7" d="M 2288 -781 
L 1822 416 
L 863 -1334 
L 184 -1334 
L 1541 1141 
L 972 2613 
Q 819 3006 338 3006 
L 184 3006 
L 184 3500 
L 403 3494 
Q 1209 3472 1413 2950 
L 1875 1753 
L 2834 3503 
L 3513 3503 
L 2156 1028 
L 2725 -444 
Q 2878 -838 3359 -838 
L 3513 -838 
L 3513 -1331 
L 3294 -1325 
Q 2488 -1303 2288 -781 
z
" transform="scale(0.015625)"/>
      <path id="DejaVuSans-2248" d="M 4684 1947 
L 4684 1388 
Q 4356 1144 4076 1036 
Q 3797 928 3494 928 
Q 3150 928 2694 1113 
Q 2663 1125 2641 1134 
Q 2622 1141 2575 1159 
Q 2091 1350 1797 1350 
Q 1522 1350 1253 1231 
Q 984 1113 678 850 
L 678 1409 
Q 1006 1653 1286 1761 
Q 1566 1869 1869 1869 
Q 2213 1869 2672 1684 
Q 2706 1669 2722 1663 
Q 2741 1656 2788 1638 
Q 3272 1447 3566 1447 
Q 3834 1447 4098 1564 
Q 4363 1681 4684 1947 
z
M 4684 3163 
L 4684 2606 
Q 4356 2359 4076 2251 
Q 3797 2144 3494 2144 
Q 3150 2144 2694 2328 
Q 2663 2341 2641 2350 
Q 2622 2356 2575 2375 
Q 2091 2566 1797 2566 
Q 1522 2566 1253 2447 
Q 984 2328 678 2069 
L 678 2625 
Q 1006 2869 1286 2976 
Q 1566 3084 1869 3084 
Q 2213 3084 2672 2900 
Q 2703 2888 2719 2881 
Q 2741 2872 2788 2853 
Q 3272 2663 3566 2663 
Q 3834 2663 4098 2780 
Q 4363 2897 4684 3163 
z
" transform="scale(0.015625)"/>
      <path id="DejaVuSans-34" d="M 2419 4116 
L 825 1625 
L 2419 1625 
L 2419 4116 
z
M 2253 4666 
L 3047 4666 
L 3047 1625 
L 3713 1625 
L 3713 1100 
L 3047 1100 
L 3047 0 
L 2419 0 
L 2419 1100 
L 313 1100 
L 313 1709 
L 2253 4666 
z
" transform="scale(0.015625)"/>
      <path id="DejaVuSans-29" d="M 513 4856 
L 1013 4856 
Q 1481 4119 1714 3412 
Q 1947 2706 1947 2009 
Q 1947 1309 1714 600 
Q 1481 -109 1013 -844 
L 513 -844 
Q 928 -128 1133 580 
Q 1338 1288 1338 2009 
Q 1338 2731 1133 3434 
Q 928 4138 513 4856 
z
" transform="scale(0.015625)"/>
     </defs>
     <use xlink:href="#DejaVuSans-43"/>
     <use xlink:href="#DejaVuSans-6f" x="69.824219"/>
     <use xlink:href="#DejaVuSans-6c" x="131.005859"/>
     <use xlink:href="#DejaVuSans-6f" x="158.789062"/>
     <use xlink:href="#DejaVuSans-72" x="219.970703"/>
     <use xlink:href="#DejaVuSans-61" x="261.083984"/>
     <use xlink:href="#DejaVuSans-72" x="322.363281"/>
     <use xlink:href="#DejaVuSans-65" x="361.226562"/>
     <use xlink:href="#DejaVuSans-20" x="422.75"/>
     <use xlink:href="#DejaVuSans-65" x="454.537109"/>
     <use xlink:href="#DejaVuSans-75" x="516.060547"/>
     <use xlink:href="#DejaVuSans-72" x="579.439453"/>
     <use xlink:href="#DejaVuSans-69" x="620.552734"/>
     <use xlink:href="#DejaVuSans-73" x="648.335938"/>
     <use xlink:href="#DejaVuSans-74" x="700.435547"/>
     <use xlink:href="#DejaVuSans-69" x="739.644531"/>
     <use xlink:href="#DejaVuSans-63" x="767.427734"/>
     <use xlink:href="#DejaVuSans-103" x="822.408203"/>
     <use xlink:href="#DejaVuSans-20" x="883.6875"/>
     <use xlink:href="#DejaVuSans-2d" x="915.474609"/>
     <use xlink:href="#DejaVuSans-20" x="951.558594"/>
     <use xlink:href="#DejaVuSans-6d" x="983.345703"/>
     <use xlink:href="#DejaVuSans-75" x="1080.757812"/>
     <use xlink:href="#DejaVuSans-67" x="1144.136719"/>
     <use xlink:href="#DejaVuSans-38" x="1207.613281"/>
     <use xlink:href="#DejaVuSans-38" x="1271.236328"/>
     <use xlink:href="#DejaVuSans-5f" x="1334.859375"/>
     <use xlink:href="#DejaVuSans-31" x="1384.859375"/>
     <use xlink:href="#DejaVuSans-20" x="1448.482422"/>
     <use xlink:href="#DejaVuSans-28" x="1480.269531"/>
     <use xlink:href="#DejaVuSans-3c7" x="1519.283203"/>
     <use xlink:href="#DejaVuSans-20" x="1577.046875"/>
     <use xlink:href="#DejaVuSans-2248" x="1608.833984"/>
     <use xlink:href="#DejaVuSans-20" x="1692.623047"/>
     <use xlink:href="#DejaVuSans-34" x="1724.410156"/>
     <use xlink:href="#DejaVuSans-29" x="1788.033203"/>
    </g>
   </g>
   <g id="legend_1">
    <g id="patch_2">
     <path d="M 536.2 81.390625 
L 622.857813 81.390625 
Q 624.857813 81.390625 624.857813 79.390625 
L 624.857813 7 
Q 624.857813 5 622.857813 5 
L 536.2 5 
Q 534.2 5 534.2 7 
L 534.2 79.390625 
Q 534.2 81.390625 536.2 81.390625 
z
" style="fill: #ffffff; opacity: 0.8; stroke: #cccccc; stroke-linejoin: miter"/>
    </g>
    <g id="text_2">
     <!-- Colorare corectă -->
     <g transform="translate(538.2 16.598437) scale(0.1 -0.1)">
      <use xlink:href="#DejaVuSans-43"/>
      <use xlink:href="#DejaVuSans-6f" x="69.824219"/>
      <use xlink:href="#DejaVuSans-6c" x="131.005859"/>
      <use xlink:href="#DejaVuSans-6f" x="158.789062"/>
      <use xlink:href="#DejaVuSans-72" x="219.970703"/>
      <use xlink:href="#DejaVuSans-61" x="261.083984"/>
      <use xlink:href="#DejaVuSans-72" x="322.363281"/>
      <use xlink:href="#DejaVuSans-65" x="361.226562"/>
      <use xlink:href="#DejaVuSans-20" x="422.75"/>
      <use xlink:href="#DejaVuSans-63" x="454.537109"/>
      <use xlink:href="#DejaVuSans-6f" x="509.517578"/>
      <use xlink:href="#DejaVuSans-72" x="570.699219"/>
      <use xlink:href="#DejaVuSans-65" x="609.5625"/>
      <use xlink:href="#DejaVuSans-63" x="671.085938"/>
      <use xlink:href="#DejaVuSans-74" x="726.066406"/>
      <use xlink:href="#DejaVuSans-103" x="765.275391"/>
     </g>
    </g>
    <g id="patch_3">
     <path d="M 547.703906 31.276563 
L 567.703906 31.276563 
L 567.703906 24.276563 
L 547.703906 24.276563 
z
" style="fill: #8000ff; stroke: #8000ff; stroke-linejoin: miter"/>
    </g>
    <g id="text_3">
     <!-- Color 0 -->
     <g transform="translate(575.703906 31.276563) scale(0.1 -0.1)">
      <defs>
       <path id="DejaVuSans-30" d="M 2034 4250 
Q 1547 4250 1301 3770 
Q 1056 3291 1056 2328 
Q 1056 1369 1301 889 
Q 1547 409 2034 409 
Q 2525 409 2770 889 
Q 3016 1369 3016 2328 
Q 3016 3291 2770 3770 
Q 2525 4250 2034 4250 
z
M 2034 4750 
Q 2819 4750 3233 4129 
Q 3647 3509 3647 2328 
Q 3647 1150 3233 529 
Q 2819 -91 2034 -91 
Q 1250 -91 836 529 
Q 422 1150 422 2328 
Q 422 3509 836 4129 
Q 1250 4750 2034 4750 
z
" transform="scale(0.015625)"/>
      </defs>
      <use xlink:href="#DejaVuSans-43"/>
      <use xlink:href="#DejaVuSans-6f" x="69.824219"/>
      <use xlink:href="#DejaVuSans-6c" x="131.005859"/>
      <use xlink:href="#DejaVuSans-6f" x="158.789062"/>
      <use xlink:href="#DejaVuSans-72" x="219.970703"/>
      <use xlink:href="#DejaVuSans-20" x="261.083984"/>
      <use xlink:href="#DejaVuSans-30" x="292.871094"/>
     </g>
    </g>
    <g id="patch_4">
     <path d="M 547.703906 45.954688 
L 567.703906 45.954688 
L 567.703906 38.954688 
L 547.703906 38.954688 
z
" style="fill: #2adddd; stroke: #2adddd; stroke-linejoin: miter"/>
    </g>
    <g id="text_4">
     <!-- Color 1 -->
     <g transform="translate(575.703906 45.954688) scale(0.1 -0.1)">
      <use xlink:href="#DejaVuSans-43"/>
      <use xlink:href="#DejaVuSans-6f" x="69.824219"/>
      <use xlink:href="#DejaVuSans-6c" x="131.005859"/>
      <use xlink:href="#DejaVuSans-6f" x="158.789062"/>
      <use xlink:href="#DejaVuSans-72" x="219.970703"/>
      <use xlink:href="#DejaVuSans-20" x="261.083984"/>
      <use xlink:href="#DejaVuSans-31" x="292.871094"/>
     </g>
    </g>
    <g id="patch_5">
     <path d="M 547.703906 60.632812 
L 567.703906 60.632812 
L 567.703906 53.632812 
L 547.703906 53.632812 
z
" style="fill: #d4dd80; stroke: #d4dd80; stroke-linejoin: miter"/>
    </g>
    <g id="text_5">
     <!-- Color 2 -->
     <g transform="translate(575.703906 60.632812) scale(0.1 -0.1)">
      <defs>
       <path id="DejaVuSans-32" d="M 1228 531 
L 3431 531 
L 3431 0 
L 469 0 
L 469 531 
Q 828 903 1448 1529 
Q 2069 2156 2228 2338 
Q 2531 2678 2651 2914 
Q 2772 3150 2772 3378 
Q 2772 3750 2511 3984 
Q 2250 4219 1831 4219 
Q 1534 4219 1204 4116 
Q 875 4013 500 3803 
L 500 4441 
Q 881 4594 1212 4672 
Q 1544 4750 1819 4750 
Q 2544 4750 2975 4387 
Q 3406 4025 3406 3419 
Q 3406 3131 3298 2873 
Q 3191 2616 2906 2266 
Q 2828 2175 2409 1742 
Q 1991 1309 1228 531 
z
" transform="scale(0.015625)"/>
      </defs>
      <use xlink:href="#DejaVuSans-43"/>
      <use xlink:href="#DejaVuSans-6f" x="69.824219"/>
      <use xlink:href="#DejaVuSans-6c" x="131.005859"/>
      <use xlink:href="#DejaVuSans-6f" x="158.789062"/>
      <use xlink:href="#DejaVuSans-72" x="219.970703"/>
      <use xlink:href="#DejaVuSans-20" x="261.083984"/>
      <use xlink:href="#DejaVuSans-32" x="292.871094"/>
     </g>
    </g>
    <g id="patch_6">
     <path d="M 547.703906 75.310938 
L 567.703906 75.310938 
L 567.703906 68.310938 
L 547.703906 68.310938 
z
" style="fill: #ff0000; stroke: #ff0000; stroke-linejoin: miter"/>
    </g>
    <g id="text_6">
     <!-- Color 3 -->
     <g transform="translate(575.703906 75.310938) scale(0.1 -0.1)">
      <defs>
       <path id="DejaVuSans-33" d="M 2597 2516 
Q 3050 2419 3304 2112 
Q 3559 1806 3559 1356 
Q 3559 666 3084 287 
Q 2609 -91 1734 -91 
Q 1441 -91 1130 -33 
Q 819 25 488 141 
L 488 750 
Q 750 597 1062 519 
Q 1375 441 1716 441 
Q 2309 441 2620 675 
Q 2931 909 2931 1356 
Q 2931 1769 2642 2001 
Q 2353 2234 1838 2234 
L 1294 2234 
L 1294 2753 
L 1863 2753 
Q 2328 2753 2575 2939 
Q 2822 3125 2822 3475 
Q 2822 3834 2567 4026 
Q 2313 4219 1838 4219 
Q 1578 4219 1281 4162 
Q 984 4106 628 3988 
L 628 4550 
Q 988 4650 1302 4700 
Q 1616 4750 1894 4750 
Q 2613 4750 3031 4423 
Q 3450 4097 3450 3541 
Q 3450 3153 3228 2886 
Q 3006 2619 2597 2516 
z
" transform="scale(0.015625)"/>
      </defs>
      <use xlink:href="#DejaVuSans-43"/>
      <use xlink:href="#DejaVuSans-6f" x="69.824219"/>
      <use xlink:href="#DejaVuSans-6c" x="131.005859"/>
      <use xlink:href="#DejaVuSans-6f" x="158.789062"/>
      <use xlink:href="#DejaVuSans-72" x="219.970703"/>
      <use xlink:href="#DejaVuSans-20" x="261.083984"/>
      <use xlink:href="#DejaVuSans-33" x="292.871094"/>
     </g>
    </g>
   </g>
  </g>
 </g>
 <defs>
  <clipPath id="p0715b5ed7f">
   <rect x="0" y="0" width="504" height="432"/>
  </clipPath>
 </defs>
</svg>
