<?xml version="1.0" encoding="utf-8" standalone="no"?>
<!DOCTYPE svg PUBLIC "-//W3C//DTD SVG 1.1//EN"
  "http://www.w3.org/Graphics/SVG/1.1/DTD/svg11.dtd">
<svg xmlns:xlink="http://www.w3.org/1999/xlink" width="504pt" height="432pt" viewBox="0 0 504 432" xmlns="http://www.w3.org/2000/svg" version="1.1">
 <metadata>
  <rdf:RDF xmlns:dc="http://purl.org/dc/elements/1.1/" xmlns:cc="http://creativecommons.org/ns#" xmlns:rdf="http://www.w3.org/1999/02/22-rdf-syntax-ns#">
   <cc:Work>
    <dc:type rdf:resource="http://purl.org/dc/dcmitype/StillImage"/>
    <dc:date>2025-05-08T14:23:03.325239</dc:date>
    <dc:format>image/svg+xml</dc:format>
    <dc:creator>
     <cc:Agent>
      <dc:title>Matplotlib v3.9.3, https://matplotlib.org/</dc:title>
     </cc:Agent>
    </dc:creator>
   </cc:Work>
  </rdf:RDF>
 </metadata>
 <defs>
  <style type="text/css">*{stroke-linejoin: round; stroke-linecap: butt}</style>
 </defs>
 <g id="figure_1">
  <g id="patch_1">
   <path d="M 0 432 
L 504 432 
L 504 0 
L 0 0 
z
" style="fill: #ffffff"/>
  </g>
  <g id="axes_1">
   <g id="LineCollection_1">
    <path d="M 255.442556 136.622342 
L 176.605616 245.039341 
" clip-path="url(#pdf57048fd8)" style="fill: none; stroke: #d3d3d3"/>
    <path d="M 255.442556 136.622342 
L 286.069813 261.495727 
" clip-path="url(#pdf57048fd8)" style="fill: none; stroke: #d3d3d3"/>
    <path d="M 255.442556 136.622342 
L 174.950068 279.857928 
" clip-path="url(#pdf57048fd8)" style="fill: none; stroke: #d3d3d3"/>
    <path d="M 255.442556 136.622342 
L 362.869061 256.101454 
" clip-path="url(#pdf57048fd8)" style="fill: none; stroke: #d3d3d3"/>
    <path d="M 255.442556 136.622342 
L 332.631603 316.382428 
" clip-path="url(#pdf57048fd8)" style="fill: none; stroke: #d3d3d3"/>
    <path d="M 255.442556 136.622342 
L 229.065255 305.19796 
" clip-path="url(#pdf57048fd8)" style="fill: none; stroke: #d3d3d3"/>
    <path d="M 255.442556 136.622342 
L 430.02498 245.290321 
" clip-path="url(#pdf57048fd8)" style="fill: none; stroke: #d3d3d3"/>
    <path d="M 255.442556 136.622342 
L 444.033267 167.658412 
" clip-path="url(#pdf57048fd8)" style="fill: none; stroke: #d3d3d3"/>
    <path d="M 255.442556 136.622342 
L 176.968015 37.487603 
" clip-path="url(#pdf57048fd8)" style="fill: none; stroke: #d3d3d3"/>
    <path d="M 255.442556 136.622342 
L 375.458437 115.598297 
" clip-path="url(#pdf57048fd8)" style="fill: none; stroke: #d3d3d3"/>
    <path d="M 255.442556 136.622342 
L 329.892223 47.832705 
" clip-path="url(#pdf57048fd8)" style="fill: none; stroke: #d3d3d3"/>
    <path d="M 255.442556 136.622342 
L 416.320447 141.218985 
" clip-path="url(#pdf57048fd8)" style="fill: none; stroke: #d3d3d3"/>
    <path d="M 255.442556 136.622342 
L 209.060133 40.384471 
" clip-path="url(#pdf57048fd8)" style="fill: none; stroke: #d3d3d3"/>
    <path d="M 255.442556 136.622342 
L 75.889253 109.892031 
" clip-path="url(#pdf57048fd8)" style="fill: none; stroke: #d3d3d3"/>
    <path d="M 255.442556 136.622342 
L 124.802945 76.32642 
" clip-path="url(#pdf57048fd8)" style="fill: none; stroke: #d3d3d3"/>
    <path d="M 255.442556 136.622342 
L 68.915424 150.129481 
" clip-path="url(#pdf57048fd8)" style="fill: none; stroke: #d3d3d3"/>
    <path d="M 176.605616 245.039341 
L 299.099744 185.880702 
" clip-path="url(#pdf57048fd8)" style="fill: none; stroke: #d3d3d3"/>
    <path d="M 176.605616 245.039341 
L 160.028176 163.118973 
" clip-path="url(#pdf57048fd8)" style="fill: none; stroke: #d3d3d3"/>
    <path d="M 176.605616 245.039341 
L 340.621157 195.500092 
" clip-path="url(#pdf57048fd8)" style="fill: none; stroke: #d3d3d3"/>
    <path d="M 176.605616 245.039341 
L 271.383614 93.347288 
" clip-path="url(#pdf57048fd8)" style="fill: none; stroke: #d3d3d3"/>
    <path d="M 176.605616 245.039341 
L 157.6306 106.305741 
" clip-path="url(#pdf57048fd8)" style="fill: none; stroke: #d3d3d3"/>
    <path d="M 176.605616 245.039341 
L 291.267666 48.035469 
" clip-path="url(#pdf57048fd8)" style="fill: none; stroke: #d3d3d3"/>
    <path d="M 176.605616 245.039341 
L 255.954787 37.667786 
" clip-path="url(#pdf57048fd8)" style="fill: none; stroke: #d3d3d3"/>
    <path d="M 176.605616 245.039341 
L 373.057483 353.865054 
" clip-path="url(#pdf57048fd8)" style="fill: none; stroke: #d3d3d3"/>
    <path d="M 176.605616 245.039341 
L 286.591627 364.155764 
" clip-path="url(#pdf57048fd8)" style="fill: none; stroke: #d3d3d3"/>
    <path d="M 176.605616 245.039341 
L 173.490184 383.578891 
" clip-path="url(#pdf57048fd8)" style="fill: none; stroke: #d3d3d3"/>
    <path d="M 176.605616 245.039341 
L 219.763029 379.935911 
" clip-path="url(#pdf57048fd8)" style="fill: none; stroke: #d3d3d3"/>
    <path d="M 176.605616 245.039341 
L 245.260092 394.512397 
" clip-path="url(#pdf57048fd8)" style="fill: none; stroke: #d3d3d3"/>
    <path d="M 176.605616 245.039341 
L 43.735537 205.343881 
" clip-path="url(#pdf57048fd8)" style="fill: none; stroke: #d3d3d3"/>
    <path d="M 176.605616 245.039341 
L 62.359693 251.966455 
" clip-path="url(#pdf57048fd8)" style="fill: none; stroke: #d3d3d3"/>
    <path d="M 176.605616 245.039341 
L 63.657462 286.081251 
" clip-path="url(#pdf57048fd8)" style="fill: none; stroke: #d3d3d3"/>
    <path d="M 286.069813 261.495727 
L 206.452387 177.312001 
" clip-path="url(#pdf57048fd8)" style="fill: none; stroke: #d3d3d3"/>
    <path d="M 286.069813 261.495727 
L 160.028176 163.118973 
" clip-path="url(#pdf57048fd8)" style="fill: none; stroke: #d3d3d3"/>
    <path d="M 286.069813 261.495727 
L 139.043601 218.217941 
" clip-path="url(#pdf57048fd8)" style="fill: none; stroke: #d3d3d3"/>
    <path d="M 286.069813 261.495727 
L 271.383614 93.347288 
" clip-path="url(#pdf57048fd8)" style="fill: none; stroke: #d3d3d3"/>
    <path d="M 286.069813 261.495727 
L 415.319217 303.052034 
" clip-path="url(#pdf57048fd8)" style="fill: none; stroke: #d3d3d3"/>
    <path d="M 286.069813 261.495727 
L 291.267666 48.035469 
" clip-path="url(#pdf57048fd8)" style="fill: none; stroke: #d3d3d3"/>
    <path d="M 286.069813 261.495727 
L 432.571436 268.415955 
" clip-path="url(#pdf57048fd8)" style="fill: none; stroke: #d3d3d3"/>
    <path d="M 286.069813 261.495727 
L 373.057483 353.865054 
" clip-path="url(#pdf57048fd8)" style="fill: none; stroke: #d3d3d3"/>
    <path d="M 286.069813 261.495727 
L 365.337285 87.432756 
" clip-path="url(#pdf57048fd8)" style="fill: none; stroke: #d3d3d3"/>
    <path d="M 286.069813 261.495727 
L 173.490184 383.578891 
" clip-path="url(#pdf57048fd8)" style="fill: none; stroke: #d3d3d3"/>
    <path d="M 286.069813 261.495727 
L 111.804113 303.229904 
" clip-path="url(#pdf57048fd8)" style="fill: none; stroke: #d3d3d3"/>
    <path d="M 286.069813 261.495727 
L 245.260092 394.512397 
" clip-path="url(#pdf57048fd8)" style="fill: none; stroke: #d3d3d3"/>
    <path d="M 286.069813 261.495727 
L 460.264463 214.911623 
" clip-path="url(#pdf57048fd8)" style="fill: none; stroke: #d3d3d3"/>
    <path d="M 286.069813 261.495727 
L 62.359693 251.966455 
" clip-path="url(#pdf57048fd8)" style="fill: none; stroke: #d3d3d3"/>
    <path d="M 286.069813 261.495727 
L 331.234347 378.735121 
" clip-path="url(#pdf57048fd8)" style="fill: none; stroke: #d3d3d3"/>
    <path d="M 174.950068 279.857928 
L 299.099744 185.880702 
" clip-path="url(#pdf57048fd8)" style="fill: none; stroke: #d3d3d3"/>
    <path d="M 174.950068 279.857928 
L 251.604926 222.051206 
" clip-path="url(#pdf57048fd8)" style="fill: none; stroke: #d3d3d3"/>
    <path d="M 174.950068 279.857928 
L 271.383614 93.347288 
" clip-path="url(#pdf57048fd8)" style="fill: none; stroke: #d3d3d3"/>
    <path d="M 174.950068 279.857928 
L 157.6306 106.305741 
" clip-path="url(#pdf57048fd8)" style="fill: none; stroke: #d3d3d3"/>
    <path d="M 174.950068 279.857928 
L 281.869543 296.493761 
" clip-path="url(#pdf57048fd8)" style="fill: none; stroke: #d3d3d3"/>
    <path d="M 174.950068 279.857928 
L 373.057483 353.865054 
" clip-path="url(#pdf57048fd8)" style="fill: none; stroke: #d3d3d3"/>
    <path d="M 174.950068 279.857928 
L 286.591627 364.155764 
" clip-path="url(#pdf57048fd8)" style="fill: none; stroke: #d3d3d3"/>
    <path d="M 174.950068 279.857928 
L 334.943728 125.445562 
" clip-path="url(#pdf57048fd8)" style="fill: none; stroke: #d3d3d3"/>
    <path d="M 174.950068 279.857928 
L 245.260092 394.512397 
" clip-path="url(#pdf57048fd8)" style="fill: none; stroke: #d3d3d3"/>
    <path d="M 174.950068 279.857928 
L 43.735537 205.343881 
" clip-path="url(#pdf57048fd8)" style="fill: none; stroke: #d3d3d3"/>
    <path d="M 174.950068 279.857928 
L 142.434297 339.194093 
" clip-path="url(#pdf57048fd8)" style="fill: none; stroke: #d3d3d3"/>
    <path d="M 362.869061 256.101454 
L 206.452387 177.312001 
" clip-path="url(#pdf57048fd8)" style="fill: none; stroke: #d3d3d3"/>
    <path d="M 362.869061 256.101454 
L 251.604926 222.051206 
" clip-path="url(#pdf57048fd8)" style="fill: none; stroke: #d3d3d3"/>
    <path d="M 362.869061 256.101454 
L 271.383614 93.347288 
" clip-path="url(#pdf57048fd8)" style="fill: none; stroke: #d3d3d3"/>
    <path d="M 362.869061 256.101454 
L 415.319217 303.052034 
" clip-path="url(#pdf57048fd8)" style="fill: none; stroke: #d3d3d3"/>
    <path d="M 362.869061 256.101454 
L 281.869543 296.493761 
" clip-path="url(#pdf57048fd8)" style="fill: none; stroke: #d3d3d3"/>
    <path d="M 362.869061 256.101454 
L 373.057483 353.865054 
" clip-path="url(#pdf57048fd8)" style="fill: none; stroke: #d3d3d3"/>
    <path d="M 362.869061 256.101454 
L 365.337285 87.432756 
" clip-path="url(#pdf57048fd8)" style="fill: none; stroke: #d3d3d3"/>
    <path d="M 362.869061 256.101454 
L 334.943728 125.445562 
" clip-path="url(#pdf57048fd8)" style="fill: none; stroke: #d3d3d3"/>
    <path d="M 362.869061 256.101454 
L 245.260092 394.512397 
" clip-path="url(#pdf57048fd8)" style="fill: none; stroke: #d3d3d3"/>
    <path d="M 362.869061 256.101454 
L 460.264463 214.911623 
" clip-path="url(#pdf57048fd8)" style="fill: none; stroke: #d3d3d3"/>
    <path d="M 362.869061 256.101454 
L 142.434297 339.194093 
" clip-path="url(#pdf57048fd8)" style="fill: none; stroke: #d3d3d3"/>
    <path d="M 332.631603 316.382428 
L 299.099744 185.880702 
" clip-path="url(#pdf57048fd8)" style="fill: none; stroke: #d3d3d3"/>
    <path d="M 332.631603 316.382428 
L 160.028176 163.118973 
" clip-path="url(#pdf57048fd8)" style="fill: none; stroke: #d3d3d3"/>
    <path d="M 332.631603 316.382428 
L 340.621157 195.500092 
" clip-path="url(#pdf57048fd8)" style="fill: none; stroke: #d3d3d3"/>
    <path d="M 332.631603 316.382428 
L 240.251351 201.424987 
" clip-path="url(#pdf57048fd8)" style="fill: none; stroke: #d3d3d3"/>
    <path d="M 332.631603 316.382428 
L 373.057483 353.865054 
" clip-path="url(#pdf57048fd8)" style="fill: none; stroke: #d3d3d3"/>
    <path d="M 332.631603 316.382428 
L 286.591627 364.155764 
" clip-path="url(#pdf57048fd8)" style="fill: none; stroke: #d3d3d3"/>
    <path d="M 332.631603 316.382428 
L 173.490184 383.578891 
" clip-path="url(#pdf57048fd8)" style="fill: none; stroke: #d3d3d3"/>
    <path d="M 332.631603 316.382428 
L 219.763029 379.935911 
" clip-path="url(#pdf57048fd8)" style="fill: none; stroke: #d3d3d3"/>
    <path d="M 332.631603 316.382428 
L 375.54954 168.175963 
" clip-path="url(#pdf57048fd8)" style="fill: none; stroke: #d3d3d3"/>
    <path d="M 229.065255 305.19796 
L 206.452387 177.312001 
" clip-path="url(#pdf57048fd8)" style="fill: none; stroke: #d3d3d3"/>
    <path d="M 229.065255 305.19796 
L 160.028176 163.118973 
" clip-path="url(#pdf57048fd8)" style="fill: none; stroke: #d3d3d3"/>
    <path d="M 229.065255 305.19796 
L 139.043601 218.217941 
" clip-path="url(#pdf57048fd8)" style="fill: none; stroke: #d3d3d3"/>
    <path d="M 229.065255 305.19796 
L 240.251351 201.424987 
" clip-path="url(#pdf57048fd8)" style="fill: none; stroke: #d3d3d3"/>
    <path d="M 229.065255 305.19796 
L 373.057483 353.865054 
" clip-path="url(#pdf57048fd8)" style="fill: none; stroke: #d3d3d3"/>
    <path d="M 229.065255 305.19796 
L 365.337285 87.432756 
" clip-path="url(#pdf57048fd8)" style="fill: none; stroke: #d3d3d3"/>
    <path d="M 229.065255 305.19796 
L 173.490184 383.578891 
" clip-path="url(#pdf57048fd8)" style="fill: none; stroke: #d3d3d3"/>
    <path d="M 229.065255 305.19796 
L 111.804113 303.229904 
" clip-path="url(#pdf57048fd8)" style="fill: none; stroke: #d3d3d3"/>
    <path d="M 229.065255 305.19796 
L 375.54954 168.175963 
" clip-path="url(#pdf57048fd8)" style="fill: none; stroke: #d3d3d3"/>
    <path d="M 430.02498 245.290321 
L 299.099744 185.880702 
" clip-path="url(#pdf57048fd8)" style="fill: none; stroke: #d3d3d3"/>
    <path d="M 430.02498 245.290321 
L 251.604926 222.051206 
" clip-path="url(#pdf57048fd8)" style="fill: none; stroke: #d3d3d3"/>
    <path d="M 430.02498 245.290321 
L 240.251351 201.424987 
" clip-path="url(#pdf57048fd8)" style="fill: none; stroke: #d3d3d3"/>
    <path d="M 430.02498 245.290321 
L 373.057483 353.865054 
" clip-path="url(#pdf57048fd8)" style="fill: none; stroke: #d3d3d3"/>
    <path d="M 430.02498 245.290321 
L 286.591627 364.155764 
" clip-path="url(#pdf57048fd8)" style="fill: none; stroke: #d3d3d3"/>
    <path d="M 430.02498 245.290321 
L 334.943728 125.445562 
" clip-path="url(#pdf57048fd8)" style="fill: none; stroke: #d3d3d3"/>
    <path d="M 430.02498 245.290321 
L 375.54954 168.175963 
" clip-path="url(#pdf57048fd8)" style="fill: none; stroke: #d3d3d3"/>
    <path d="M 444.033267 167.658412 
L 206.452387 177.312001 
" clip-path="url(#pdf57048fd8)" style="fill: none; stroke: #d3d3d3"/>
    <path d="M 444.033267 167.658412 
L 251.604926 222.051206 
" clip-path="url(#pdf57048fd8)" style="fill: none; stroke: #d3d3d3"/>
    <path d="M 444.033267 167.658412 
L 240.251351 201.424987 
" clip-path="url(#pdf57048fd8)" style="fill: none; stroke: #d3d3d3"/>
    <path d="M 444.033267 167.658412 
L 373.057483 353.865054 
" clip-path="url(#pdf57048fd8)" style="fill: none; stroke: #d3d3d3"/>
    <path d="M 444.033267 167.658412 
L 365.337285 87.432756 
" clip-path="url(#pdf57048fd8)" style="fill: none; stroke: #d3d3d3"/>
    <path d="M 444.033267 167.658412 
L 334.943728 125.445562 
" clip-path="url(#pdf57048fd8)" style="fill: none; stroke: #d3d3d3"/>
    <path d="M 444.033267 167.658412 
L 375.54954 168.175963 
" clip-path="url(#pdf57048fd8)" style="fill: none; stroke: #d3d3d3"/>
    <path d="M 176.968015 37.487603 
L 299.099744 185.880702 
" clip-path="url(#pdf57048fd8)" style="fill: none; stroke: #d3d3d3"/>
    <path d="M 176.968015 37.487603 
L 160.028176 163.118973 
" clip-path="url(#pdf57048fd8)" style="fill: none; stroke: #d3d3d3"/>
    <path d="M 176.968015 37.487603 
L 340.621157 195.500092 
" clip-path="url(#pdf57048fd8)" style="fill: none; stroke: #d3d3d3"/>
    <path d="M 176.968015 37.487603 
L 271.383614 93.347288 
" clip-path="url(#pdf57048fd8)" style="fill: none; stroke: #d3d3d3"/>
    <path d="M 176.968015 37.487603 
L 157.6306 106.305741 
" clip-path="url(#pdf57048fd8)" style="fill: none; stroke: #d3d3d3"/>
    <path d="M 176.968015 37.487603 
L 291.267666 48.035469 
" clip-path="url(#pdf57048fd8)" style="fill: none; stroke: #d3d3d3"/>
    <path d="M 176.968015 37.487603 
L 255.954787 37.667786 
" clip-path="url(#pdf57048fd8)" style="fill: none; stroke: #d3d3d3"/>
    <path d="M 176.968015 37.487603 
L 218.308 217.932168 
" clip-path="url(#pdf57048fd8)" style="fill: none; stroke: #d3d3d3"/>
    <path d="M 375.458437 115.598297 
L 206.452387 177.312001 
" clip-path="url(#pdf57048fd8)" style="fill: none; stroke: #d3d3d3"/>
    <path d="M 375.458437 115.598297 
L 160.028176 163.118973 
" clip-path="url(#pdf57048fd8)" style="fill: none; stroke: #d3d3d3"/>
    <path d="M 375.458437 115.598297 
L 139.043601 218.217941 
" clip-path="url(#pdf57048fd8)" style="fill: none; stroke: #d3d3d3"/>
    <path d="M 375.458437 115.598297 
L 271.383614 93.347288 
" clip-path="url(#pdf57048fd8)" style="fill: none; stroke: #d3d3d3"/>
    <path d="M 375.458437 115.598297 
L 415.319217 303.052034 
" clip-path="url(#pdf57048fd8)" style="fill: none; stroke: #d3d3d3"/>
    <path d="M 375.458437 115.598297 
L 291.267666 48.035469 
" clip-path="url(#pdf57048fd8)" style="fill: none; stroke: #d3d3d3"/>
    <path d="M 375.458437 115.598297 
L 432.571436 268.415955 
" clip-path="url(#pdf57048fd8)" style="fill: none; stroke: #d3d3d3"/>
    <path d="M 375.458437 115.598297 
L 218.308 217.932168 
" clip-path="url(#pdf57048fd8)" style="fill: none; stroke: #d3d3d3"/>
    <path d="M 329.892223 47.832705 
L 299.099744 185.880702 
" clip-path="url(#pdf57048fd8)" style="fill: none; stroke: #d3d3d3"/>
    <path d="M 329.892223 47.832705 
L 251.604926 222.051206 
" clip-path="url(#pdf57048fd8)" style="fill: none; stroke: #d3d3d3"/>
    <path d="M 329.892223 47.832705 
L 271.383614 93.347288 
" clip-path="url(#pdf57048fd8)" style="fill: none; stroke: #d3d3d3"/>
    <path d="M 329.892223 47.832705 
L 157.6306 106.305741 
" clip-path="url(#pdf57048fd8)" style="fill: none; stroke: #d3d3d3"/>
    <path d="M 329.892223 47.832705 
L 281.869543 296.493761 
" clip-path="url(#pdf57048fd8)" style="fill: none; stroke: #d3d3d3"/>
    <path d="M 329.892223 47.832705 
L 218.308 217.932168 
" clip-path="url(#pdf57048fd8)" style="fill: none; stroke: #d3d3d3"/>
    <path d="M 416.320447 141.218985 
L 206.452387 177.312001 
" clip-path="url(#pdf57048fd8)" style="fill: none; stroke: #d3d3d3"/>
    <path d="M 416.320447 141.218985 
L 251.604926 222.051206 
" clip-path="url(#pdf57048fd8)" style="fill: none; stroke: #d3d3d3"/>
    <path d="M 416.320447 141.218985 
L 271.383614 93.347288 
" clip-path="url(#pdf57048fd8)" style="fill: none; stroke: #d3d3d3"/>
    <path d="M 416.320447 141.218985 
L 415.319217 303.052034 
" clip-path="url(#pdf57048fd8)" style="fill: none; stroke: #d3d3d3"/>
    <path d="M 416.320447 141.218985 
L 281.869543 296.493761 
" clip-path="url(#pdf57048fd8)" style="fill: none; stroke: #d3d3d3"/>
    <path d="M 416.320447 141.218985 
L 218.308 217.932168 
" clip-path="url(#pdf57048fd8)" style="fill: none; stroke: #d3d3d3"/>
    <path d="M 209.060133 40.384471 
L 299.099744 185.880702 
" clip-path="url(#pdf57048fd8)" style="fill: none; stroke: #d3d3d3"/>
    <path d="M 209.060133 40.384471 
L 160.028176 163.118973 
" clip-path="url(#pdf57048fd8)" style="fill: none; stroke: #d3d3d3"/>
    <path d="M 209.060133 40.384471 
L 340.621157 195.500092 
" clip-path="url(#pdf57048fd8)" style="fill: none; stroke: #d3d3d3"/>
    <path d="M 209.060133 40.384471 
L 240.251351 201.424987 
" clip-path="url(#pdf57048fd8)" style="fill: none; stroke: #d3d3d3"/>
    <path d="M 209.060133 40.384471 
L 218.308 217.932168 
" clip-path="url(#pdf57048fd8)" style="fill: none; stroke: #d3d3d3"/>
    <path d="M 75.889253 109.892031 
L 206.452387 177.312001 
" clip-path="url(#pdf57048fd8)" style="fill: none; stroke: #d3d3d3"/>
    <path d="M 75.889253 109.892031 
L 160.028176 163.118973 
" clip-path="url(#pdf57048fd8)" style="fill: none; stroke: #d3d3d3"/>
    <path d="M 75.889253 109.892031 
L 139.043601 218.217941 
" clip-path="url(#pdf57048fd8)" style="fill: none; stroke: #d3d3d3"/>
    <path d="M 75.889253 109.892031 
L 240.251351 201.424987 
" clip-path="url(#pdf57048fd8)" style="fill: none; stroke: #d3d3d3"/>
    <path d="M 75.889253 109.892031 
L 218.308 217.932168 
" clip-path="url(#pdf57048fd8)" style="fill: none; stroke: #d3d3d3"/>
    <path d="M 124.802945 76.32642 
L 299.099744 185.880702 
" clip-path="url(#pdf57048fd8)" style="fill: none; stroke: #d3d3d3"/>
    <path d="M 124.802945 76.32642 
L 251.604926 222.051206 
" clip-path="url(#pdf57048fd8)" style="fill: none; stroke: #d3d3d3"/>
    <path d="M 124.802945 76.32642 
L 240.251351 201.424987 
" clip-path="url(#pdf57048fd8)" style="fill: none; stroke: #d3d3d3"/>
    <path d="M 124.802945 76.32642 
L 218.308 217.932168 
" clip-path="url(#pdf57048fd8)" style="fill: none; stroke: #d3d3d3"/>
    <path d="M 68.915424 150.129481 
L 206.452387 177.312001 
" clip-path="url(#pdf57048fd8)" style="fill: none; stroke: #d3d3d3"/>
    <path d="M 68.915424 150.129481 
L 251.604926 222.051206 
" clip-path="url(#pdf57048fd8)" style="fill: none; stroke: #d3d3d3"/>
    <path d="M 68.915424 150.129481 
L 240.251351 201.424987 
" clip-path="url(#pdf57048fd8)" style="fill: none; stroke: #d3d3d3"/>
    <path d="M 68.915424 150.129481 
L 218.308 217.932168 
" clip-path="url(#pdf57048fd8)" style="fill: none; stroke: #d3d3d3"/>
    <path d="M 299.099744 185.880702 
L 206.452387 177.312001 
" clip-path="url(#pdf57048fd8)" style="fill: none; stroke: #d3d3d3"/>
    <path d="M 299.099744 185.880702 
L 139.043601 218.217941 
" clip-path="url(#pdf57048fd8)" style="fill: none; stroke: #d3d3d3"/>
    <path d="M 299.099744 185.880702 
L 415.319217 303.052034 
" clip-path="url(#pdf57048fd8)" style="fill: none; stroke: #d3d3d3"/>
    <path d="M 299.099744 185.880702 
L 432.571436 268.415955 
" clip-path="url(#pdf57048fd8)" style="fill: none; stroke: #d3d3d3"/>
    <path d="M 299.099744 185.880702 
L 365.337285 87.432756 
" clip-path="url(#pdf57048fd8)" style="fill: none; stroke: #d3d3d3"/>
    <path d="M 299.099744 185.880702 
L 111.804113 303.229904 
" clip-path="url(#pdf57048fd8)" style="fill: none; stroke: #d3d3d3"/>
    <path d="M 299.099744 185.880702 
L 460.264463 214.911623 
" clip-path="url(#pdf57048fd8)" style="fill: none; stroke: #d3d3d3"/>
    <path d="M 299.099744 185.880702 
L 331.234347 378.735121 
" clip-path="url(#pdf57048fd8)" style="fill: none; stroke: #d3d3d3"/>
    <path d="M 160.028176 163.118973 
L 251.604926 222.051206 
" clip-path="url(#pdf57048fd8)" style="fill: none; stroke: #d3d3d3"/>
    <path d="M 160.028176 163.118973 
L 281.869543 296.493761 
" clip-path="url(#pdf57048fd8)" style="fill: none; stroke: #d3d3d3"/>
    <path d="M 160.028176 163.118973 
L 334.943728 125.445562 
" clip-path="url(#pdf57048fd8)" style="fill: none; stroke: #d3d3d3"/>
    <path d="M 160.028176 163.118973 
L 142.434297 339.194093 
" clip-path="url(#pdf57048fd8)" style="fill: none; stroke: #d3d3d3"/>
    <path d="M 340.621157 195.500092 
L 206.452387 177.312001 
" clip-path="url(#pdf57048fd8)" style="fill: none; stroke: #d3d3d3"/>
    <path d="M 340.621157 195.500092 
L 251.604926 222.051206 
" clip-path="url(#pdf57048fd8)" style="fill: none; stroke: #d3d3d3"/>
    <path d="M 340.621157 195.500092 
L 415.319217 303.052034 
" clip-path="url(#pdf57048fd8)" style="fill: none; stroke: #d3d3d3"/>
    <path d="M 340.621157 195.500092 
L 281.869543 296.493761 
" clip-path="url(#pdf57048fd8)" style="fill: none; stroke: #d3d3d3"/>
    <path d="M 340.621157 195.500092 
L 365.337285 87.432756 
" clip-path="url(#pdf57048fd8)" style="fill: none; stroke: #d3d3d3"/>
    <path d="M 340.621157 195.500092 
L 334.943728 125.445562 
" clip-path="url(#pdf57048fd8)" style="fill: none; stroke: #d3d3d3"/>
    <path d="M 340.621157 195.500092 
L 460.264463 214.911623 
" clip-path="url(#pdf57048fd8)" style="fill: none; stroke: #d3d3d3"/>
    <path d="M 340.621157 195.500092 
L 142.434297 339.194093 
" clip-path="url(#pdf57048fd8)" style="fill: none; stroke: #d3d3d3"/>
    <path d="M 271.383614 93.347288 
L 240.251351 201.424987 
" clip-path="url(#pdf57048fd8)" style="fill: none; stroke: #d3d3d3"/>
    <path d="M 271.383614 93.347288 
L 375.54954 168.175963 
" clip-path="url(#pdf57048fd8)" style="fill: none; stroke: #d3d3d3"/>
    <path d="M 157.6306 106.305741 
L 206.452387 177.312001 
" clip-path="url(#pdf57048fd8)" style="fill: none; stroke: #d3d3d3"/>
    <path d="M 157.6306 106.305741 
L 139.043601 218.217941 
" clip-path="url(#pdf57048fd8)" style="fill: none; stroke: #d3d3d3"/>
    <path d="M 157.6306 106.305741 
L 240.251351 201.424987 
" clip-path="url(#pdf57048fd8)" style="fill: none; stroke: #d3d3d3"/>
    <path d="M 157.6306 106.305741 
L 365.337285 87.432756 
" clip-path="url(#pdf57048fd8)" style="fill: none; stroke: #d3d3d3"/>
    <path d="M 157.6306 106.305741 
L 111.804113 303.229904 
" clip-path="url(#pdf57048fd8)" style="fill: none; stroke: #d3d3d3"/>
    <path d="M 157.6306 106.305741 
L 375.54954 168.175963 
" clip-path="url(#pdf57048fd8)" style="fill: none; stroke: #d3d3d3"/>
    <path d="M 291.267666 48.035469 
L 251.604926 222.051206 
" clip-path="url(#pdf57048fd8)" style="fill: none; stroke: #d3d3d3"/>
    <path d="M 291.267666 48.035469 
L 240.251351 201.424987 
" clip-path="url(#pdf57048fd8)" style="fill: none; stroke: #d3d3d3"/>
    <path d="M 291.267666 48.035469 
L 334.943728 125.445562 
" clip-path="url(#pdf57048fd8)" style="fill: none; stroke: #d3d3d3"/>
    <path d="M 291.267666 48.035469 
L 375.54954 168.175963 
" clip-path="url(#pdf57048fd8)" style="fill: none; stroke: #d3d3d3"/>
    <path d="M 255.954787 37.667786 
L 206.452387 177.312001 
" clip-path="url(#pdf57048fd8)" style="fill: none; stroke: #d3d3d3"/>
    <path d="M 255.954787 37.667786 
L 251.604926 222.051206 
" clip-path="url(#pdf57048fd8)" style="fill: none; stroke: #d3d3d3"/>
    <path d="M 255.954787 37.667786 
L 240.251351 201.424987 
" clip-path="url(#pdf57048fd8)" style="fill: none; stroke: #d3d3d3"/>
    <path d="M 255.954787 37.667786 
L 365.337285 87.432756 
" clip-path="url(#pdf57048fd8)" style="fill: none; stroke: #d3d3d3"/>
    <path d="M 255.954787 37.667786 
L 334.943728 125.445562 
" clip-path="url(#pdf57048fd8)" style="fill: none; stroke: #d3d3d3"/>
    <path d="M 255.954787 37.667786 
L 375.54954 168.175963 
" clip-path="url(#pdf57048fd8)" style="fill: none; stroke: #d3d3d3"/>
    <path d="M 373.057483 353.865054 
L 218.308 217.932168 
" clip-path="url(#pdf57048fd8)" style="fill: none; stroke: #d3d3d3"/>
    <path d="M 286.591627 364.155764 
L 206.452387 177.312001 
" clip-path="url(#pdf57048fd8)" style="fill: none; stroke: #d3d3d3"/>
    <path d="M 286.591627 364.155764 
L 139.043601 218.217941 
" clip-path="url(#pdf57048fd8)" style="fill: none; stroke: #d3d3d3"/>
    <path d="M 286.591627 364.155764 
L 415.319217 303.052034 
" clip-path="url(#pdf57048fd8)" style="fill: none; stroke: #d3d3d3"/>
    <path d="M 286.591627 364.155764 
L 432.571436 268.415955 
" clip-path="url(#pdf57048fd8)" style="fill: none; stroke: #d3d3d3"/>
    <path d="M 286.591627 364.155764 
L 218.308 217.932168 
" clip-path="url(#pdf57048fd8)" style="fill: none; stroke: #d3d3d3"/>
    <path d="M 173.490184 383.578891 
L 251.604926 222.051206 
" clip-path="url(#pdf57048fd8)" style="fill: none; stroke: #d3d3d3"/>
    <path d="M 173.490184 383.578891 
L 281.869543 296.493761 
" clip-path="url(#pdf57048fd8)" style="fill: none; stroke: #d3d3d3"/>
    <path d="M 173.490184 383.578891 
L 218.308 217.932168 
" clip-path="url(#pdf57048fd8)" style="fill: none; stroke: #d3d3d3"/>
    <path d="M 219.763029 379.935911 
L 206.452387 177.312001 
" clip-path="url(#pdf57048fd8)" style="fill: none; stroke: #d3d3d3"/>
    <path d="M 219.763029 379.935911 
L 251.604926 222.051206 
" clip-path="url(#pdf57048fd8)" style="fill: none; stroke: #d3d3d3"/>
    <path d="M 219.763029 379.935911 
L 415.319217 303.052034 
" clip-path="url(#pdf57048fd8)" style="fill: none; stroke: #d3d3d3"/>
    <path d="M 219.763029 379.935911 
L 281.869543 296.493761 
" clip-path="url(#pdf57048fd8)" style="fill: none; stroke: #d3d3d3"/>
    <path d="M 219.763029 379.935911 
L 218.308 217.932168 
" clip-path="url(#pdf57048fd8)" style="fill: none; stroke: #d3d3d3"/>
    <path d="M 245.260092 394.512397 
L 240.251351 201.424987 
" clip-path="url(#pdf57048fd8)" style="fill: none; stroke: #d3d3d3"/>
    <path d="M 245.260092 394.512397 
L 218.308 217.932168 
" clip-path="url(#pdf57048fd8)" style="fill: none; stroke: #d3d3d3"/>
    <path d="M 43.735537 205.343881 
L 206.452387 177.312001 
" clip-path="url(#pdf57048fd8)" style="fill: none; stroke: #d3d3d3"/>
    <path d="M 43.735537 205.343881 
L 139.043601 218.217941 
" clip-path="url(#pdf57048fd8)" style="fill: none; stroke: #d3d3d3"/>
    <path d="M 43.735537 205.343881 
L 240.251351 201.424987 
" clip-path="url(#pdf57048fd8)" style="fill: none; stroke: #d3d3d3"/>
    <path d="M 43.735537 205.343881 
L 218.308 217.932168 
" clip-path="url(#pdf57048fd8)" style="fill: none; stroke: #d3d3d3"/>
    <path d="M 62.359693 251.966455 
L 251.604926 222.051206 
" clip-path="url(#pdf57048fd8)" style="fill: none; stroke: #d3d3d3"/>
    <path d="M 62.359693 251.966455 
L 240.251351 201.424987 
" clip-path="url(#pdf57048fd8)" style="fill: none; stroke: #d3d3d3"/>
    <path d="M 62.359693 251.966455 
L 218.308 217.932168 
" clip-path="url(#pdf57048fd8)" style="fill: none; stroke: #d3d3d3"/>
    <path d="M 63.657462 286.081251 
L 206.452387 177.312001 
" clip-path="url(#pdf57048fd8)" style="fill: none; stroke: #d3d3d3"/>
    <path d="M 63.657462 286.081251 
L 251.604926 222.051206 
" clip-path="url(#pdf57048fd8)" style="fill: none; stroke: #d3d3d3"/>
    <path d="M 63.657462 286.081251 
L 240.251351 201.424987 
" clip-path="url(#pdf57048fd8)" style="fill: none; stroke: #d3d3d3"/>
    <path d="M 63.657462 286.081251 
L 218.308 217.932168 
" clip-path="url(#pdf57048fd8)" style="fill: none; stroke: #d3d3d3"/>
    <path d="M 139.043601 218.217941 
L 251.604926 222.051206 
" clip-path="url(#pdf57048fd8)" style="fill: none; stroke: #d3d3d3"/>
    <path d="M 139.043601 218.217941 
L 281.869543 296.493761 
" clip-path="url(#pdf57048fd8)" style="fill: none; stroke: #d3d3d3"/>
    <path d="M 139.043601 218.217941 
L 334.943728 125.445562 
" clip-path="url(#pdf57048fd8)" style="fill: none; stroke: #d3d3d3"/>
    <path d="M 139.043601 218.217941 
L 142.434297 339.194093 
" clip-path="url(#pdf57048fd8)" style="fill: none; stroke: #d3d3d3"/>
    <path d="M 415.319217 303.052034 
L 240.251351 201.424987 
" clip-path="url(#pdf57048fd8)" style="fill: none; stroke: #d3d3d3"/>
    <path d="M 415.319217 303.052034 
L 375.54954 168.175963 
" clip-path="url(#pdf57048fd8)" style="fill: none; stroke: #d3d3d3"/>
    <path d="M 432.571436 268.415955 
L 251.604926 222.051206 
" clip-path="url(#pdf57048fd8)" style="fill: none; stroke: #d3d3d3"/>
    <path d="M 432.571436 268.415955 
L 240.251351 201.424987 
" clip-path="url(#pdf57048fd8)" style="fill: none; stroke: #d3d3d3"/>
    <path d="M 432.571436 268.415955 
L 334.943728 125.445562 
" clip-path="url(#pdf57048fd8)" style="fill: none; stroke: #d3d3d3"/>
    <path d="M 432.571436 268.415955 
L 375.54954 168.175963 
" clip-path="url(#pdf57048fd8)" style="fill: none; stroke: #d3d3d3"/>
    <path d="M 365.337285 87.432756 
L 218.308 217.932168 
" clip-path="url(#pdf57048fd8)" style="fill: none; stroke: #d3d3d3"/>
    <path d="M 111.804113 303.229904 
L 251.604926 222.051206 
" clip-path="url(#pdf57048fd8)" style="fill: none; stroke: #d3d3d3"/>
    <path d="M 111.804113 303.229904 
L 281.869543 296.493761 
" clip-path="url(#pdf57048fd8)" style="fill: none; stroke: #d3d3d3"/>
    <path d="M 111.804113 303.229904 
L 218.308 217.932168 
" clip-path="url(#pdf57048fd8)" style="fill: none; stroke: #d3d3d3"/>
    <path d="M 460.264463 214.911623 
L 240.251351 201.424987 
" clip-path="url(#pdf57048fd8)" style="fill: none; stroke: #d3d3d3"/>
    <path d="M 460.264463 214.911623 
L 218.308 217.932168 
" clip-path="url(#pdf57048fd8)" style="fill: none; stroke: #d3d3d3"/>
    <path d="M 331.234347 378.735121 
L 251.604926 222.051206 
" clip-path="url(#pdf57048fd8)" style="fill: none; stroke: #d3d3d3"/>
    <path d="M 331.234347 378.735121 
L 240.251351 201.424987 
" clip-path="url(#pdf57048fd8)" style="fill: none; stroke: #d3d3d3"/>
    <path d="M 331.234347 378.735121 
L 218.308 217.932168 
" clip-path="url(#pdf57048fd8)" style="fill: none; stroke: #d3d3d3"/>
    <path d="M 281.869543 296.493761 
L 240.251351 201.424987 
" clip-path="url(#pdf57048fd8)" style="fill: none; stroke: #d3d3d3"/>
    <path d="M 281.869543 296.493761 
L 375.54954 168.175963 
" clip-path="url(#pdf57048fd8)" style="fill: none; stroke: #d3d3d3"/>
    <path d="M 334.943728 125.445562 
L 218.308 217.932168 
" clip-path="url(#pdf57048fd8)" style="fill: none; stroke: #d3d3d3"/>
    <path d="M 142.434297 339.194093 
L 240.251351 201.424987 
" clip-path="url(#pdf57048fd8)" style="fill: none; stroke: #d3d3d3"/>
    <path d="M 142.434297 339.194093 
L 218.308 217.932168 
" clip-path="url(#pdf57048fd8)" style="fill: none; stroke: #d3d3d3"/>
    <path d="M 375.54954 168.175963 
L 218.308 217.932168 
" clip-path="url(#pdf57048fd8)" style="fill: none; stroke: #d3d3d3"/>
   </g>
   <g id="PathCollection_1">
    <defs>
     <path id="C0_0_c9697c6f45" d="M 0 5 
C 1.326016 5 2.597899 4.473168 3.535534 3.535534 
C 4.473168 2.597899 5 1.326016 5 -0 
C 5 -1.326016 4.473168 -2.597899 3.535534 -3.535534 
C 2.597899 -4.473168 1.326016 -5 0 -5 
C -1.326016 -5 -2.597899 -4.473168 -3.535534 -3.535534 
C -4.473168 -2.597899 -5 -1.326016 -5 0 
C -5 1.326016 -4.473168 2.597899 -3.535534 3.535534 
C -2.597899 4.473168 -1.326016 5 0 5 
z
"/>
    </defs>
    <g clip-path="url(#pdf57048fd8)">
     <use xlink:href="#C0_0_c9697c6f45" x="255.442556" y="136.622342" style="fill: #8000ff; stroke: #8000ff"/>
    </g>
    <g clip-path="url(#pdf57048fd8)">
     <use xlink:href="#C0_0_c9697c6f45" x="176.605616" y="245.039341" style="fill: #8000ff; stroke: #8000ff"/>
    </g>
    <g clip-path="url(#pdf57048fd8)">
     <use xlink:href="#C0_0_c9697c6f45" x="286.069813" y="261.495727" style="fill: #ff0000; stroke: #ff0000"/>
    </g>
    <g clip-path="url(#pdf57048fd8)">
     <use xlink:href="#C0_0_c9697c6f45" x="174.950068" y="279.857928" style="fill: #8000ff; stroke: #8000ff"/>
    </g>
    <g clip-path="url(#pdf57048fd8)">
     <use xlink:href="#C0_0_c9697c6f45" x="362.869061" y="256.101454" style="fill: #ff0000; stroke: #ff0000"/>
    </g>
    <g clip-path="url(#pdf57048fd8)">
     <use xlink:href="#C0_0_c9697c6f45" x="332.631603" y="316.382428" style="fill: #8000ff; stroke: #8000ff"/>
    </g>
    <g clip-path="url(#pdf57048fd8)">
     <use xlink:href="#C0_0_c9697c6f45" x="229.065255" y="305.19796" style="fill: #ff0000; stroke: #ff0000"/>
    </g>
    <g clip-path="url(#pdf57048fd8)">
     <use xlink:href="#C0_0_c9697c6f45" x="430.02498" y="245.290321" style="fill: #ff0000; stroke: #ff0000"/>
    </g>
    <g clip-path="url(#pdf57048fd8)">
     <use xlink:href="#C0_0_c9697c6f45" x="444.033267" y="167.658412" style="fill: #8000ff; stroke: #8000ff"/>
    </g>
    <g clip-path="url(#pdf57048fd8)">
     <use xlink:href="#C0_0_c9697c6f45" x="176.968015" y="37.487603" style="fill: #ff0000; stroke: #ff0000"/>
    </g>
    <g clip-path="url(#pdf57048fd8)">
     <use xlink:href="#C0_0_c9697c6f45" x="375.458437" y="115.598297" style="fill: #ff0000; stroke: #ff0000"/>
    </g>
    <g clip-path="url(#pdf57048fd8)">
     <use xlink:href="#C0_0_c9697c6f45" x="329.892223" y="47.832705" style="fill: #8000ff; stroke: #8000ff"/>
    </g>
    <g clip-path="url(#pdf57048fd8)">
     <use xlink:href="#C0_0_c9697c6f45" x="416.320447" y="141.218985" style="fill: #ff0000; stroke: #ff0000"/>
    </g>
    <g clip-path="url(#pdf57048fd8)">
     <use xlink:href="#C0_0_c9697c6f45" x="209.060133" y="40.384471" style="fill: #ff0000; stroke: #ff0000"/>
    </g>
    <g clip-path="url(#pdf57048fd8)">
     <use xlink:href="#C0_0_c9697c6f45" x="75.889253" y="109.892031" style="fill: #ff0000; stroke: #ff0000"/>
    </g>
    <g clip-path="url(#pdf57048fd8)">
     <use xlink:href="#C0_0_c9697c6f45" x="124.802945" y="76.32642" style="fill: #ff0000; stroke: #ff0000"/>
    </g>
    <g clip-path="url(#pdf57048fd8)">
     <use xlink:href="#C0_0_c9697c6f45" x="68.915424" y="150.129481" style="fill: #ff0000; stroke: #ff0000"/>
    </g>
    <g clip-path="url(#pdf57048fd8)">
     <use xlink:href="#C0_0_c9697c6f45" x="299.099744" y="185.880702" style="fill: #ff0000; stroke: #ff0000"/>
    </g>
    <g clip-path="url(#pdf57048fd8)">
     <use xlink:href="#C0_0_c9697c6f45" x="160.028176" y="163.118973" style="fill: #ff0000; stroke: #ff0000"/>
    </g>
    <g clip-path="url(#pdf57048fd8)">
     <use xlink:href="#C0_0_c9697c6f45" x="340.621157" y="195.500092" style="fill: #ff0000; stroke: #ff0000"/>
    </g>
    <g clip-path="url(#pdf57048fd8)">
     <use xlink:href="#C0_0_c9697c6f45" x="271.383614" y="93.347288" style="fill: #ff0000; stroke: #ff0000"/>
    </g>
    <g clip-path="url(#pdf57048fd8)">
     <use xlink:href="#C0_0_c9697c6f45" x="157.6306" y="106.305741" style="fill: #ff0000; stroke: #ff0000"/>
    </g>
    <g clip-path="url(#pdf57048fd8)">
     <use xlink:href="#C0_0_c9697c6f45" x="291.267666" y="48.035469" style="fill: #ff0000; stroke: #ff0000"/>
    </g>
    <g clip-path="url(#pdf57048fd8)">
     <use xlink:href="#C0_0_c9697c6f45" x="255.954787" y="37.667786" style="fill: #ff0000; stroke: #ff0000"/>
    </g>
    <g clip-path="url(#pdf57048fd8)">
     <use xlink:href="#C0_0_c9697c6f45" x="373.057483" y="353.865054" style="fill: #ff0000; stroke: #ff0000"/>
    </g>
    <g clip-path="url(#pdf57048fd8)">
     <use xlink:href="#C0_0_c9697c6f45" x="286.591627" y="364.155764" style="fill: #ff0000; stroke: #ff0000"/>
    </g>
    <g clip-path="url(#pdf57048fd8)">
     <use xlink:href="#C0_0_c9697c6f45" x="173.490184" y="383.578891" style="fill: #ff0000; stroke: #ff0000"/>
    </g>
    <g clip-path="url(#pdf57048fd8)">
     <use xlink:href="#C0_0_c9697c6f45" x="219.763029" y="379.935911" style="fill: #ff0000; stroke: #ff0000"/>
    </g>
    <g clip-path="url(#pdf57048fd8)">
     <use xlink:href="#C0_0_c9697c6f45" x="245.260092" y="394.512397" style="fill: #ff0000; stroke: #ff0000"/>
    </g>
    <g clip-path="url(#pdf57048fd8)">
     <use xlink:href="#C0_0_c9697c6f45" x="43.735537" y="205.343881" style="fill: #ff0000; stroke: #ff0000"/>
    </g>
    <g clip-path="url(#pdf57048fd8)">
     <use xlink:href="#C0_0_c9697c6f45" x="62.359693" y="251.966455" style="fill: #ff0000; stroke: #ff0000"/>
    </g>
    <g clip-path="url(#pdf57048fd8)">
     <use xlink:href="#C0_0_c9697c6f45" x="63.657462" y="286.081251" style="fill: #ff0000; stroke: #ff0000"/>
    </g>
    <g clip-path="url(#pdf57048fd8)">
     <use xlink:href="#C0_0_c9697c6f45" x="206.452387" y="177.312001" style="fill: #ff0000; stroke: #ff0000"/>
    </g>
    <g clip-path="url(#pdf57048fd8)">
     <use xlink:href="#C0_0_c9697c6f45" x="139.043601" y="218.217941" style="fill: #ff0000; stroke: #ff0000"/>
    </g>
    <g clip-path="url(#pdf57048fd8)">
     <use xlink:href="#C0_0_c9697c6f45" x="415.319217" y="303.052034" style="fill: #ff0000; stroke: #ff0000"/>
    </g>
    <g clip-path="url(#pdf57048fd8)">
     <use xlink:href="#C0_0_c9697c6f45" x="432.571436" y="268.415955" style="fill: #ff0000; stroke: #ff0000"/>
    </g>
    <g clip-path="url(#pdf57048fd8)">
     <use xlink:href="#C0_0_c9697c6f45" x="365.337285" y="87.432756" style="fill: #ff0000; stroke: #ff0000"/>
    </g>
    <g clip-path="url(#pdf57048fd8)">
     <use xlink:href="#C0_0_c9697c6f45" x="111.804113" y="303.229904" style="fill: #ff0000; stroke: #ff0000"/>
    </g>
    <g clip-path="url(#pdf57048fd8)">
     <use xlink:href="#C0_0_c9697c6f45" x="460.264463" y="214.911623" style="fill: #ff0000; stroke: #ff0000"/>
    </g>
    <g clip-path="url(#pdf57048fd8)">
     <use xlink:href="#C0_0_c9697c6f45" x="331.234347" y="378.735121" style="fill: #ff0000; stroke: #ff0000"/>
    </g>
    <g clip-path="url(#pdf57048fd8)">
     <use xlink:href="#C0_0_c9697c6f45" x="251.604926" y="222.051206" style="fill: #ff0000; stroke: #ff0000"/>
    </g>
    <g clip-path="url(#pdf57048fd8)">
     <use xlink:href="#C0_0_c9697c6f45" x="281.869543" y="296.493761" style="fill: #ff0000; stroke: #ff0000"/>
    </g>
    <g clip-path="url(#pdf57048fd8)">
     <use xlink:href="#C0_0_c9697c6f45" x="334.943728" y="125.445562" style="fill: #ff0000; stroke: #ff0000"/>
    </g>
    <g clip-path="url(#pdf57048fd8)">
     <use xlink:href="#C0_0_c9697c6f45" x="142.434297" y="339.194093" style="fill: #ff0000; stroke: #ff0000"/>
    </g>
    <g clip-path="url(#pdf57048fd8)">
     <use xlink:href="#C0_0_c9697c6f45" x="240.251351" y="201.424987" style="fill: #ff0000; stroke: #ff0000"/>
    </g>
    <g clip-path="url(#pdf57048fd8)">
     <use xlink:href="#C0_0_c9697c6f45" x="375.54954" y="168.175963" style="fill: #ff0000; stroke: #ff0000"/>
    </g>
    <g clip-path="url(#pdf57048fd8)">
     <use xlink:href="#C0_0_c9697c6f45" x="218.308" y="217.932168" style="fill: #ff0000; stroke: #ff0000"/>
    </g>
   </g>
   <g id="text_1">
    <!-- Colored Graph - myciel5.col -->
    <g transform="translate(168.597188 -6) scale(0.12 -0.12)">
     <defs>
      <path id="DejaVuSans-43" d="M 4122 4306 
L 4122 3641 
Q 3803 3938 3442 4084 
Q 3081 4231 2675 4231 
Q 1875 4231 1450 3742 
Q 1025 3253 1025 2328 
Q 1025 1406 1450 917 
Q 1875 428 2675 428 
Q 3081 428 3442 575 
Q 3803 722 4122 1019 
L 4122 359 
Q 3791 134 3420 21 
Q 3050 -91 2638 -91 
Q 1578 -91 968 557 
Q 359 1206 359 2328 
Q 359 3453 968 4101 
Q 1578 4750 2638 4750 
Q 3056 4750 3426 4639 
Q 3797 4528 4122 4306 
z
" transform="scale(0.015625)"/>
      <path id="DejaVuSans-6f" d="M 1959 3097 
Q 1497 3097 1228 2736 
Q 959 2375 959 1747 
Q 959 1119 1226 758 
Q 1494 397 1959 397 
Q 2419 397 2687 759 
Q 2956 1122 2956 1747 
Q 2956 2369 2687 2733 
Q 2419 3097 1959 3097 
z
M 1959 3584 
Q 2709 3584 3137 3096 
Q 3566 2609 3566 1747 
Q 3566 888 3137 398 
Q 2709 -91 1959 -91 
Q 1206 -91 779 398 
Q 353 888 353 1747 
Q 353 2609 779 3096 
Q 1206 3584 1959 3584 
z
" transform="scale(0.015625)"/>
      <path id="DejaVuSans-6c" d="M 603 4863 
L 1178 4863 
L 1178 0 
L 603 0 
L 603 4863 
z
" transform="scale(0.015625)"/>
      <path id="DejaVuSans-72" d="M 2631 2963 
Q 2534 3019 2420 3045 
Q 2306 3072 2169 3072 
Q 1681 3072 1420 2755 
Q 1159 2438 1159 1844 
L 1159 0 
L 581 0 
L 581 3500 
L 1159 3500 
L 1159 2956 
Q 1341 3275 1631 3429 
Q 1922 3584 2338 3584 
Q 2397 3584 2469 3576 
Q 2541 3569 2628 3553 
L 2631 2963 
z
" transform="scale(0.015625)"/>
      <path id="DejaVuSans-65" d="M 3597 1894 
L 3597 1613 
L 953 1613 
Q 991 1019 1311 708 
Q 1631 397 2203 397 
Q 2534 397 2845 478 
Q 3156 559 3463 722 
L 3463 178 
Q 3153 47 2828 -22 
Q 2503 -91 2169 -91 
Q 1331 -91 842 396 
Q 353 884 353 1716 
Q 353 2575 817 3079 
Q 1281 3584 2069 3584 
Q 2775 3584 3186 3129 
Q 3597 2675 3597 1894 
z
M 3022 2063 
Q 3016 2534 2758 2815 
Q 2500 3097 2075 3097 
Q 1594 3097 1305 2825 
Q 1016 2553 972 2059 
L 3022 2063 
z
" transform="scale(0.015625)"/>
      <path id="DejaVuSans-64" d="M 2906 2969 
L 2906 4863 
L 3481 4863 
L 3481 0 
L 2906 0 
L 2906 525 
Q 2725 213 2448 61 
Q 2172 -91 1784 -91 
Q 1150 -91 751 415 
Q 353 922 353 1747 
Q 353 2572 751 3078 
Q 1150 3584 1784 3584 
Q 2172 3584 2448 3432 
Q 2725 3281 2906 2969 
z
M 947 1747 
Q 947 1113 1208 752 
Q 1469 391 1925 391 
Q 2381 391 2643 752 
Q 2906 1113 2906 1747 
Q 2906 2381 2643 2742 
Q 2381 3103 1925 3103 
Q 1469 3103 1208 2742 
Q 947 2381 947 1747 
z
" transform="scale(0.015625)"/>
      <path id="DejaVuSans-20" transform="scale(0.015625)"/>
      <path id="DejaVuSans-47" d="M 3809 666 
L 3809 1919 
L 2778 1919 
L 2778 2438 
L 4434 2438 
L 4434 434 
Q 4069 175 3628 42 
Q 3188 -91 2688 -91 
Q 1594 -91 976 548 
Q 359 1188 359 2328 
Q 359 3472 976 4111 
Q 1594 4750 2688 4750 
Q 3144 4750 3555 4637 
Q 3966 4525 4313 4306 
L 4313 3634 
Q 3963 3931 3569 4081 
Q 3175 4231 2741 4231 
Q 1884 4231 1454 3753 
Q 1025 3275 1025 2328 
Q 1025 1384 1454 906 
Q 1884 428 2741 428 
Q 3075 428 3337 486 
Q 3600 544 3809 666 
z
" transform="scale(0.015625)"/>
      <path id="DejaVuSans-61" d="M 2194 1759 
Q 1497 1759 1228 1600 
Q 959 1441 959 1056 
Q 959 750 1161 570 
Q 1363 391 1709 391 
Q 2188 391 2477 730 
Q 2766 1069 2766 1631 
L 2766 1759 
L 2194 1759 
z
M 3341 1997 
L 3341 0 
L 2766 0 
L 2766 531 
Q 2569 213 2275 61 
Q 1981 -91 1556 -91 
Q 1019 -91 701 211 
Q 384 513 384 1019 
Q 384 1609 779 1909 
Q 1175 2209 1959 2209 
L 2766 2209 
L 2766 2266 
Q 2766 2663 2505 2880 
Q 2244 3097 1772 3097 
Q 1472 3097 1187 3025 
Q 903 2953 641 2809 
L 641 3341 
Q 956 3463 1253 3523 
Q 1550 3584 1831 3584 
Q 2591 3584 2966 3190 
Q 3341 2797 3341 1997 
z
" transform="scale(0.015625)"/>
      <path id="DejaVuSans-70" d="M 1159 525 
L 1159 -1331 
L 581 -1331 
L 581 3500 
L 1159 3500 
L 1159 2969 
Q 1341 3281 1617 3432 
Q 1894 3584 2278 3584 
Q 2916 3584 3314 3078 
Q 3713 2572 3713 1747 
Q 3713 922 3314 415 
Q 2916 -91 2278 -91 
Q 1894 -91 1617 61 
Q 1341 213 1159 525 
z
M 3116 1747 
Q 3116 2381 2855 2742 
Q 2594 3103 2138 3103 
Q 1681 3103 1420 2742 
Q 1159 2381 1159 1747 
Q 1159 1113 1420 752 
Q 1681 391 2138 391 
Q 2594 391 2855 752 
Q 3116 1113 3116 1747 
z
" transform="scale(0.015625)"/>
      <path id="DejaVuSans-68" d="M 3513 2113 
L 3513 0 
L 2938 0 
L 2938 2094 
Q 2938 2591 2744 2837 
Q 2550 3084 2163 3084 
Q 1697 3084 1428 2787 
Q 1159 2491 1159 1978 
L 1159 0 
L 581 0 
L 581 4863 
L 1159 4863 
L 1159 2956 
Q 1366 3272 1645 3428 
Q 1925 3584 2291 3584 
Q 2894 3584 3203 3211 
Q 3513 2838 3513 2113 
z
" transform="scale(0.015625)"/>
      <path id="DejaVuSans-2d" d="M 313 2009 
L 1997 2009 
L 1997 1497 
L 313 1497 
L 313 2009 
z
" transform="scale(0.015625)"/>
      <path id="DejaVuSans-6d" d="M 3328 2828 
Q 3544 3216 3844 3400 
Q 4144 3584 4550 3584 
Q 5097 3584 5394 3201 
Q 5691 2819 5691 2113 
L 5691 0 
L 5113 0 
L 5113 2094 
Q 5113 2597 4934 2840 
Q 4756 3084 4391 3084 
Q 3944 3084 3684 2787 
Q 3425 2491 3425 1978 
L 3425 0 
L 2847 0 
L 2847 2094 
Q 2847 2600 2669 2842 
Q 2491 3084 2119 3084 
Q 1678 3084 1418 2786 
Q 1159 2488 1159 1978 
L 1159 0 
L 581 0 
L 581 3500 
L 1159 3500 
L 1159 2956 
Q 1356 3278 1631 3431 
Q 1906 3584 2284 3584 
Q 2666 3584 2933 3390 
Q 3200 3197 3328 2828 
z
" transform="scale(0.015625)"/>
      <path id="DejaVuSans-79" d="M 2059 -325 
Q 1816 -950 1584 -1140 
Q 1353 -1331 966 -1331 
L 506 -1331 
L 506 -850 
L 844 -850 
Q 1081 -850 1212 -737 
Q 1344 -625 1503 -206 
L 1606 56 
L 191 3500 
L 800 3500 
L 1894 763 
L 2988 3500 
L 3597 3500 
L 2059 -325 
z
" transform="scale(0.015625)"/>
      <path id="DejaVuSans-63" d="M 3122 3366 
L 3122 2828 
Q 2878 2963 2633 3030 
Q 2388 3097 2138 3097 
Q 1578 3097 1268 2742 
Q 959 2388 959 1747 
Q 959 1106 1268 751 
Q 1578 397 2138 397 
Q 2388 397 2633 464 
Q 2878 531 3122 666 
L 3122 134 
Q 2881 22 2623 -34 
Q 2366 -91 2075 -91 
Q 1284 -91 818 406 
Q 353 903 353 1747 
Q 353 2603 823 3093 
Q 1294 3584 2113 3584 
Q 2378 3584 2631 3529 
Q 2884 3475 3122 3366 
z
" transform="scale(0.015625)"/>
      <path id="DejaVuSans-69" d="M 603 3500 
L 1178 3500 
L 1178 0 
L 603 0 
L 603 3500 
z
M 603 4863 
L 1178 4863 
L 1178 4134 
L 603 4134 
L 603 4863 
z
" transform="scale(0.015625)"/>
      <path id="DejaVuSans-35" d="M 691 4666 
L 3169 4666 
L 3169 4134 
L 1269 4134 
L 1269 2991 
Q 1406 3038 1543 3061 
Q 1681 3084 1819 3084 
Q 2600 3084 3056 2656 
Q 3513 2228 3513 1497 
Q 3513 744 3044 326 
Q 2575 -91 1722 -91 
Q 1428 -91 1123 -41 
Q 819 9 494 109 
L 494 744 
Q 775 591 1075 516 
Q 1375 441 1709 441 
Q 2250 441 2565 725 
Q 2881 1009 2881 1497 
Q 2881 1984 2565 2268 
Q 2250 2553 1709 2553 
Q 1456 2553 1204 2497 
Q 953 2441 691 2322 
L 691 4666 
z
" transform="scale(0.015625)"/>
      <path id="DejaVuSans-2e" d="M 684 794 
L 1344 794 
L 1344 0 
L 684 0 
L 684 794 
z
" transform="scale(0.015625)"/>
     </defs>
     <use xlink:href="#DejaVuSans-43"/>
     <use xlink:href="#DejaVuSans-6f" x="69.824219"/>
     <use xlink:href="#DejaVuSans-6c" x="131.005859"/>
     <use xlink:href="#DejaVuSans-6f" x="158.789062"/>
     <use xlink:href="#DejaVuSans-72" x="219.970703"/>
     <use xlink:href="#DejaVuSans-65" x="258.833984"/>
     <use xlink:href="#DejaVuSans-64" x="320.357422"/>
     <use xlink:href="#DejaVuSans-20" x="383.833984"/>
     <use xlink:href="#DejaVuSans-47" x="415.621094"/>
     <use xlink:href="#DejaVuSans-72" x="493.111328"/>
     <use xlink:href="#DejaVuSans-61" x="534.224609"/>
     <use xlink:href="#DejaVuSans-70" x="595.503906"/>
     <use xlink:href="#DejaVuSans-68" x="658.980469"/>
     <use xlink:href="#DejaVuSans-20" x="722.359375"/>
     <use xlink:href="#DejaVuSans-2d" x="754.146484"/>
     <use xlink:href="#DejaVuSans-20" x="790.230469"/>
     <use xlink:href="#DejaVuSans-6d" x="822.017578"/>
     <use xlink:href="#DejaVuSans-79" x="919.429688"/>
     <use xlink:href="#DejaVuSans-63" x="978.609375"/>
     <use xlink:href="#DejaVuSans-69" x="1033.589844"/>
     <use xlink:href="#DejaVuSans-65" x="1061.373047"/>
     <use xlink:href="#DejaVuSans-6c" x="1122.896484"/>
     <use xlink:href="#DejaVuSans-35" x="1150.679688"/>
     <use xlink:href="#DejaVuSans-2e" x="1214.302734"/>
     <use xlink:href="#DejaVuSans-63" x="1246.089844"/>
     <use xlink:href="#DejaVuSans-6f" x="1301.070312"/>
     <use xlink:href="#DejaVuSans-6c" x="1362.251953"/>
    </g>
   </g>
   <g id="legend_1">
    <g id="patch_2">
     <path d="M 536.2 52.034375 
L 603.85 52.034375 
Q 605.85 52.034375 605.85 50.034375 
L 605.85 7 
Q 605.85 5 603.85 5 
L 536.2 5 
Q 534.2 5 534.2 7 
L 534.2 50.034375 
Q 534.2 52.034375 536.2 52.034375 
z
" style="fill: #ffffff; opacity: 0.8; stroke: #cccccc; stroke-linejoin: miter"/>
    </g>
    <g id="text_2">
     <!-- Clase GNN -->
     <g transform="translate(543.454688 16.598437) scale(0.1 -0.1)">
      <defs>
       <path id="DejaVuSans-73" d="M 2834 3397 
L 2834 2853 
Q 2591 2978 2328 3040 
Q 2066 3103 1784 3103 
Q 1356 3103 1142 2972 
Q 928 2841 928 2578 
Q 928 2378 1081 2264 
Q 1234 2150 1697 2047 
L 1894 2003 
Q 2506 1872 2764 1633 
Q 3022 1394 3022 966 
Q 3022 478 2636 193 
Q 2250 -91 1575 -91 
Q 1294 -91 989 -36 
Q 684 19 347 128 
L 347 722 
Q 666 556 975 473 
Q 1284 391 1588 391 
Q 1994 391 2212 530 
Q 2431 669 2431 922 
Q 2431 1156 2273 1281 
Q 2116 1406 1581 1522 
L 1381 1569 
Q 847 1681 609 1914 
Q 372 2147 372 2553 
Q 372 3047 722 3315 
Q 1072 3584 1716 3584 
Q 2034 3584 2315 3537 
Q 2597 3491 2834 3397 
z
" transform="scale(0.015625)"/>
       <path id="DejaVuSans-4e" d="M 628 4666 
L 1478 4666 
L 3547 763 
L 3547 4666 
L 4159 4666 
L 4159 0 
L 3309 0 
L 1241 3903 
L 1241 0 
L 628 0 
L 628 4666 
z
" transform="scale(0.015625)"/>
      </defs>
      <use xlink:href="#DejaVuSans-43"/>
      <use xlink:href="#DejaVuSans-6c" x="69.824219"/>
      <use xlink:href="#DejaVuSans-61" x="97.607422"/>
      <use xlink:href="#DejaVuSans-73" x="158.886719"/>
      <use xlink:href="#DejaVuSans-65" x="210.986328"/>
      <use xlink:href="#DejaVuSans-20" x="272.509766"/>
      <use xlink:href="#DejaVuSans-47" x="304.296875"/>
      <use xlink:href="#DejaVuSans-4e" x="381.787109"/>
      <use xlink:href="#DejaVuSans-4e" x="456.591797"/>
     </g>
    </g>
    <g id="patch_3">
     <path d="M 538.2 31.276563 
L 558.2 31.276563 
L 558.2 24.276563 
L 538.2 24.276563 
z
" style="fill: #ffb360; stroke: #ffb360; stroke-linejoin: miter"/>
    </g>
    <g id="text_3">
     <!-- Color 3 -->
     <g transform="translate(566.2 31.276563) scale(0.1 -0.1)">
      <defs>
       <path id="DejaVuSans-33" d="M 2597 2516 
Q 3050 2419 3304 2112 
Q 3559 1806 3559 1356 
Q 3559 666 3084 287 
Q 2609 -91 1734 -91 
Q 1441 -91 1130 -33 
Q 819 25 488 141 
L 488 750 
Q 750 597 1062 519 
Q 1375 441 1716 441 
Q 2309 441 2620 675 
Q 2931 909 2931 1356 
Q 2931 1769 2642 2001 
Q 2353 2234 1838 2234 
L 1294 2234 
L 1294 2753 
L 1863 2753 
Q 2328 2753 2575 2939 
Q 2822 3125 2822 3475 
Q 2822 3834 2567 4026 
Q 2313 4219 1838 4219 
Q 1578 4219 1281 4162 
Q 984 4106 628 3988 
L 628 4550 
Q 988 4650 1302 4700 
Q 1616 4750 1894 4750 
Q 2613 4750 3031 4423 
Q 3450 4097 3450 3541 
Q 3450 3153 3228 2886 
Q 3006 2619 2597 2516 
z
" transform="scale(0.015625)"/>
      </defs>
      <use xlink:href="#DejaVuSans-43"/>
      <use xlink:href="#DejaVuSans-6f" x="69.824219"/>
      <use xlink:href="#DejaVuSans-6c" x="131.005859"/>
      <use xlink:href="#DejaVuSans-6f" x="158.789062"/>
      <use xlink:href="#DejaVuSans-72" x="219.970703"/>
      <use xlink:href="#DejaVuSans-20" x="261.083984"/>
      <use xlink:href="#DejaVuSans-33" x="292.871094"/>
     </g>
    </g>
    <g id="patch_4">
     <path d="M 538.2 45.954688 
L 558.2 45.954688 
L 558.2 38.954688 
L 538.2 38.954688 
z
" style="fill: #ff0000; stroke: #ff0000; stroke-linejoin: miter"/>
    </g>
    <g id="text_4">
     <!-- Color 4 -->
     <g transform="translate(566.2 45.954688) scale(0.1 -0.1)">
      <defs>
       <path id="DejaVuSans-34" d="M 2419 4116 
L 825 1625 
L 2419 1625 
L 2419 4116 
z
M 2253 4666 
L 3047 4666 
L 3047 1625 
L 3713 1625 
L 3713 1100 
L 3047 1100 
L 3047 0 
L 2419 0 
L 2419 1100 
L 313 1100 
L 313 1709 
L 2253 4666 
z
" transform="scale(0.015625)"/>
      </defs>
      <use xlink:href="#DejaVuSans-43"/>
      <use xlink:href="#DejaVuSans-6f" x="69.824219"/>
      <use xlink:href="#DejaVuSans-6c" x="131.005859"/>
      <use xlink:href="#DejaVuSans-6f" x="158.789062"/>
      <use xlink:href="#DejaVuSans-72" x="219.970703"/>
      <use xlink:href="#DejaVuSans-20" x="261.083984"/>
      <use xlink:href="#DejaVuSans-34" x="292.871094"/>
     </g>
    </g>
   </g>
  </g>
 </g>
 <defs>
  <clipPath id="pdf57048fd8">
   <rect x="0" y="0" width="504" height="432"/>
  </clipPath>
 </defs>
</svg>
