<?xml version="1.0" encoding="utf-8" standalone="no"?>
<!DOCTYPE svg PUBLIC "-//W3C//DTD SVG 1.1//EN"
  "http://www.w3.org/Graphics/SVG/1.1/DTD/svg11.dtd">
<svg xmlns:xlink="http://www.w3.org/1999/xlink" width="504pt" height="432pt" viewBox="0 0 504 432" xmlns="http://www.w3.org/2000/svg" version="1.1">
 <metadata>
  <rdf:RDF xmlns:dc="http://purl.org/dc/elements/1.1/" xmlns:cc="http://creativecommons.org/ns#" xmlns:rdf="http://www.w3.org/1999/02/22-rdf-syntax-ns#">
   <cc:Work>
    <dc:type rdf:resource="http://purl.org/dc/dcmitype/StillImage"/>
    <dc:date>2025-05-08T14:20:37.584964</dc:date>
    <dc:format>image/svg+xml</dc:format>
    <dc:creator>
     <cc:Agent>
      <dc:title>Matplotlib v3.9.3, https://matplotlib.org/</dc:title>
     </cc:Agent>
    </dc:creator>
   </cc:Work>
  </rdf:RDF>
 </metadata>
 <defs>
  <style type="text/css">*{stroke-linejoin: round; stroke-linecap: butt}</style>
 </defs>
 <g id="figure_1">
  <g id="patch_1">
   <path d="M 0 432 
L 504 432 
L 504 0 
L 0 0 
z
" style="fill: #ffffff"/>
  </g>
  <g id="axes_1">
   <g id="LineCollection_1">
    <path d="M 313.887547 37.487603 
L 360.297888 152.130795 
" clip-path="url(#pd88ee7d454)" style="fill: none; stroke: #d3d3d3"/>
    <path d="M 313.887547 37.487603 
L 367.74586 215.201188 
" clip-path="url(#pd88ee7d454)" style="fill: none; stroke: #d3d3d3"/>
    <path d="M 313.887547 37.487603 
L 284.49404 287.326623 
" clip-path="url(#pd88ee7d454)" style="fill: none; stroke: #d3d3d3"/>
    <path d="M 313.887547 37.487603 
L 458.211788 325.585417 
" clip-path="url(#pd88ee7d454)" style="fill: none; stroke: #d3d3d3"/>
    <path d="M 313.887547 37.487603 
L 230.425649 124.580575 
" clip-path="url(#pd88ee7d454)" style="fill: none; stroke: #d3d3d3"/>
    <path d="M 313.887547 37.487603 
L 401.888291 74.680178 
" clip-path="url(#pd88ee7d454)" style="fill: none; stroke: #d3d3d3"/>
    <path d="M 313.887547 37.487603 
L 152.37176 76.826395 
" clip-path="url(#pd88ee7d454)" style="fill: none; stroke: #d3d3d3"/>
    <path d="M 313.887547 37.487603 
L 460.264463 151.640355 
" clip-path="url(#pd88ee7d454)" style="fill: none; stroke: #d3d3d3"/>
    <path d="M 313.887547 37.487603 
L 85.167243 109.140539 
" clip-path="url(#pd88ee7d454)" style="fill: none; stroke: #d3d3d3"/>
    <path d="M 313.887547 37.487603 
L 218.69962 78.61565 
" clip-path="url(#pd88ee7d454)" style="fill: none; stroke: #d3d3d3"/>
    <path d="M 313.887547 37.487603 
L 43.735537 237.164877 
" clip-path="url(#pd88ee7d454)" style="fill: none; stroke: #d3d3d3"/>
    <path d="M 313.887547 37.487603 
L 274.640332 214.75241 
" clip-path="url(#pd88ee7d454)" style="fill: none; stroke: #d3d3d3"/>
    <path d="M 360.297888 152.130795 
L 230.425649 124.580575 
" clip-path="url(#pd88ee7d454)" style="fill: none; stroke: #d3d3d3"/>
    <path d="M 360.297888 152.130795 
L 401.888291 74.680178 
" clip-path="url(#pd88ee7d454)" style="fill: none; stroke: #d3d3d3"/>
    <path d="M 360.297888 152.130795 
L 85.167243 109.140539 
" clip-path="url(#pd88ee7d454)" style="fill: none; stroke: #d3d3d3"/>
    <path d="M 360.297888 152.130795 
L 367.74586 215.201188 
" clip-path="url(#pd88ee7d454)" style="fill: none; stroke: #d3d3d3"/>
    <path d="M 360.297888 152.130795 
L 284.49404 287.326623 
" clip-path="url(#pd88ee7d454)" style="fill: none; stroke: #d3d3d3"/>
    <path d="M 360.297888 152.130795 
L 458.211788 325.585417 
" clip-path="url(#pd88ee7d454)" style="fill: none; stroke: #d3d3d3"/>
    <path d="M 360.297888 152.130795 
L 218.69962 78.61565 
" clip-path="url(#pd88ee7d454)" style="fill: none; stroke: #d3d3d3"/>
    <path d="M 360.297888 152.130795 
L 189.908039 197.051495 
" clip-path="url(#pd88ee7d454)" style="fill: none; stroke: #d3d3d3"/>
    <path d="M 360.297888 152.130795 
L 290.739228 102.544543 
" clip-path="url(#pd88ee7d454)" style="fill: none; stroke: #d3d3d3"/>
    <path d="M 360.297888 152.130795 
L 332.757635 278.93836 
" clip-path="url(#pd88ee7d454)" style="fill: none; stroke: #d3d3d3"/>
    <path d="M 360.297888 152.130795 
L 88.602678 188.203742 
" clip-path="url(#pd88ee7d454)" style="fill: none; stroke: #d3d3d3"/>
    <path d="M 360.297888 152.130795 
L 204.124972 277.351215 
" clip-path="url(#pd88ee7d454)" style="fill: none; stroke: #d3d3d3"/>
    <path d="M 360.297888 152.130795 
L 218.746717 394.512397 
" clip-path="url(#pd88ee7d454)" style="fill: none; stroke: #d3d3d3"/>
    <path d="M 367.74586 215.201188 
L 401.888291 74.680178 
" clip-path="url(#pd88ee7d454)" style="fill: none; stroke: #d3d3d3"/>
    <path d="M 367.74586 215.201188 
L 460.264463 151.640355 
" clip-path="url(#pd88ee7d454)" style="fill: none; stroke: #d3d3d3"/>
    <path d="M 367.74586 215.201188 
L 189.908039 197.051495 
" clip-path="url(#pd88ee7d454)" style="fill: none; stroke: #d3d3d3"/>
    <path d="M 367.74586 215.201188 
L 290.739228 102.544543 
" clip-path="url(#pd88ee7d454)" style="fill: none; stroke: #d3d3d3"/>
    <path d="M 367.74586 215.201188 
L 218.69962 78.61565 
" clip-path="url(#pd88ee7d454)" style="fill: none; stroke: #d3d3d3"/>
    <path d="M 367.74586 215.201188 
L 88.602678 188.203742 
" clip-path="url(#pd88ee7d454)" style="fill: none; stroke: #d3d3d3"/>
    <path d="M 367.74586 215.201188 
L 284.49404 287.326623 
" clip-path="url(#pd88ee7d454)" style="fill: none; stroke: #d3d3d3"/>
    <path d="M 367.74586 215.201188 
L 458.211788 325.585417 
" clip-path="url(#pd88ee7d454)" style="fill: none; stroke: #d3d3d3"/>
    <path d="M 367.74586 215.201188 
L 204.124972 277.351215 
" clip-path="url(#pd88ee7d454)" style="fill: none; stroke: #d3d3d3"/>
    <path d="M 367.74586 215.201188 
L 274.640332 214.75241 
" clip-path="url(#pd88ee7d454)" style="fill: none; stroke: #d3d3d3"/>
    <path d="M 367.74586 215.201188 
L 141.646051 256.955065 
" clip-path="url(#pd88ee7d454)" style="fill: none; stroke: #d3d3d3"/>
    <path d="M 367.74586 215.201188 
L 454.422647 234.657194 
" clip-path="url(#pd88ee7d454)" style="fill: none; stroke: #d3d3d3"/>
    <path d="M 367.74586 215.201188 
L 104.014782 330.144584 
" clip-path="url(#pd88ee7d454)" style="fill: none; stroke: #d3d3d3"/>
    <path d="M 367.74586 215.201188 
L 361.207753 357.308238 
" clip-path="url(#pd88ee7d454)" style="fill: none; stroke: #d3d3d3"/>
    <path d="M 284.49404 287.326623 
L 152.37176 76.826395 
" clip-path="url(#pd88ee7d454)" style="fill: none; stroke: #d3d3d3"/>
    <path d="M 284.49404 287.326623 
L 290.739228 102.544543 
" clip-path="url(#pd88ee7d454)" style="fill: none; stroke: #d3d3d3"/>
    <path d="M 284.49404 287.326623 
L 141.646051 256.955065 
" clip-path="url(#pd88ee7d454)" style="fill: none; stroke: #d3d3d3"/>
    <path d="M 284.49404 287.326623 
L 454.422647 234.657194 
" clip-path="url(#pd88ee7d454)" style="fill: none; stroke: #d3d3d3"/>
    <path d="M 284.49404 287.326623 
L 43.735537 237.164877 
" clip-path="url(#pd88ee7d454)" style="fill: none; stroke: #d3d3d3"/>
    <path d="M 284.49404 287.326623 
L 204.124972 277.351215 
" clip-path="url(#pd88ee7d454)" style="fill: none; stroke: #d3d3d3"/>
    <path d="M 284.49404 287.326623 
L 104.014782 330.144584 
" clip-path="url(#pd88ee7d454)" style="fill: none; stroke: #d3d3d3"/>
    <path d="M 284.49404 287.326623 
L 458.211788 325.585417 
" clip-path="url(#pd88ee7d454)" style="fill: none; stroke: #d3d3d3"/>
    <path d="M 284.49404 287.326623 
L 361.207753 357.308238 
" clip-path="url(#pd88ee7d454)" style="fill: none; stroke: #d3d3d3"/>
    <path d="M 284.49404 287.326623 
L 291.479912 388.004549 
" clip-path="url(#pd88ee7d454)" style="fill: none; stroke: #d3d3d3"/>
    <path d="M 284.49404 287.326623 
L 151.914704 352.211143 
" clip-path="url(#pd88ee7d454)" style="fill: none; stroke: #d3d3d3"/>
    <path d="M 458.211788 325.585417 
L 460.264463 151.640355 
" clip-path="url(#pd88ee7d454)" style="fill: none; stroke: #d3d3d3"/>
    <path d="M 458.211788 325.585417 
L 332.757635 278.93836 
" clip-path="url(#pd88ee7d454)" style="fill: none; stroke: #d3d3d3"/>
    <path d="M 458.211788 325.585417 
L 454.422647 234.657194 
" clip-path="url(#pd88ee7d454)" style="fill: none; stroke: #d3d3d3"/>
    <path d="M 458.211788 325.585417 
L 291.479912 388.004549 
" clip-path="url(#pd88ee7d454)" style="fill: none; stroke: #d3d3d3"/>
    <path d="M 458.211788 325.585417 
L 274.640332 214.75241 
" clip-path="url(#pd88ee7d454)" style="fill: none; stroke: #d3d3d3"/>
    <path d="M 458.211788 325.585417 
L 218.746717 394.512397 
" clip-path="url(#pd88ee7d454)" style="fill: none; stroke: #d3d3d3"/>
    <path d="M 458.211788 325.585417 
L 361.207753 357.308238 
" clip-path="url(#pd88ee7d454)" style="fill: none; stroke: #d3d3d3"/>
    <path d="M 458.211788 325.585417 
L 151.914704 352.211143 
" clip-path="url(#pd88ee7d454)" style="fill: none; stroke: #d3d3d3"/>
    <path d="M 230.425649 124.580575 
L 189.908039 197.051495 
" clip-path="url(#pd88ee7d454)" style="fill: none; stroke: #d3d3d3"/>
    <path d="M 230.425649 124.580575 
L 141.646051 256.955065 
" clip-path="url(#pd88ee7d454)" style="fill: none; stroke: #d3d3d3"/>
    <path d="M 230.425649 124.580575 
L 291.479912 388.004549 
" clip-path="url(#pd88ee7d454)" style="fill: none; stroke: #d3d3d3"/>
    <path d="M 230.425649 124.580575 
L 85.167243 109.140539 
" clip-path="url(#pd88ee7d454)" style="fill: none; stroke: #d3d3d3"/>
    <path d="M 230.425649 124.580575 
L 401.888291 74.680178 
" clip-path="url(#pd88ee7d454)" style="fill: none; stroke: #d3d3d3"/>
    <path d="M 230.425649 124.580575 
L 152.37176 76.826395 
" clip-path="url(#pd88ee7d454)" style="fill: none; stroke: #d3d3d3"/>
    <path d="M 230.425649 124.580575 
L 460.264463 151.640355 
" clip-path="url(#pd88ee7d454)" style="fill: none; stroke: #d3d3d3"/>
    <path d="M 230.425649 124.580575 
L 88.602678 188.203742 
" clip-path="url(#pd88ee7d454)" style="fill: none; stroke: #d3d3d3"/>
    <path d="M 230.425649 124.580575 
L 204.124972 277.351215 
" clip-path="url(#pd88ee7d454)" style="fill: none; stroke: #d3d3d3"/>
    <path d="M 230.425649 124.580575 
L 218.746717 394.512397 
" clip-path="url(#pd88ee7d454)" style="fill: none; stroke: #d3d3d3"/>
    <path d="M 401.888291 74.680178 
L 290.739228 102.544543 
" clip-path="url(#pd88ee7d454)" style="fill: none; stroke: #d3d3d3"/>
    <path d="M 401.888291 74.680178 
L 454.422647 234.657194 
" clip-path="url(#pd88ee7d454)" style="fill: none; stroke: #d3d3d3"/>
    <path d="M 401.888291 74.680178 
L 218.69962 78.61565 
" clip-path="url(#pd88ee7d454)" style="fill: none; stroke: #d3d3d3"/>
    <path d="M 401.888291 74.680178 
L 152.37176 76.826395 
" clip-path="url(#pd88ee7d454)" style="fill: none; stroke: #d3d3d3"/>
    <path d="M 401.888291 74.680178 
L 460.264463 151.640355 
" clip-path="url(#pd88ee7d454)" style="fill: none; stroke: #d3d3d3"/>
    <path d="M 401.888291 74.680178 
L 189.908039 197.051495 
" clip-path="url(#pd88ee7d454)" style="fill: none; stroke: #d3d3d3"/>
    <path d="M 401.888291 74.680178 
L 104.014782 330.144584 
" clip-path="url(#pd88ee7d454)" style="fill: none; stroke: #d3d3d3"/>
    <path d="M 401.888291 74.680178 
L 361.207753 357.308238 
" clip-path="url(#pd88ee7d454)" style="fill: none; stroke: #d3d3d3"/>
    <path d="M 152.37176 76.826395 
L 332.757635 278.93836 
" clip-path="url(#pd88ee7d454)" style="fill: none; stroke: #d3d3d3"/>
    <path d="M 152.37176 76.826395 
L 189.908039 197.051495 
" clip-path="url(#pd88ee7d454)" style="fill: none; stroke: #d3d3d3"/>
    <path d="M 152.37176 76.826395 
L 88.602678 188.203742 
" clip-path="url(#pd88ee7d454)" style="fill: none; stroke: #d3d3d3"/>
    <path d="M 152.37176 76.826395 
L 43.735537 237.164877 
" clip-path="url(#pd88ee7d454)" style="fill: none; stroke: #d3d3d3"/>
    <path d="M 152.37176 76.826395 
L 460.264463 151.640355 
" clip-path="url(#pd88ee7d454)" style="fill: none; stroke: #d3d3d3"/>
    <path d="M 152.37176 76.826395 
L 290.739228 102.544543 
" clip-path="url(#pd88ee7d454)" style="fill: none; stroke: #d3d3d3"/>
    <path d="M 152.37176 76.826395 
L 141.646051 256.955065 
" clip-path="url(#pd88ee7d454)" style="fill: none; stroke: #d3d3d3"/>
    <path d="M 152.37176 76.826395 
L 151.914704 352.211143 
" clip-path="url(#pd88ee7d454)" style="fill: none; stroke: #d3d3d3"/>
    <path d="M 460.264463 151.640355 
L 290.739228 102.544543 
" clip-path="url(#pd88ee7d454)" style="fill: none; stroke: #d3d3d3"/>
    <path d="M 460.264463 151.640355 
L 204.124972 277.351215 
" clip-path="url(#pd88ee7d454)" style="fill: none; stroke: #d3d3d3"/>
    <path d="M 460.264463 151.640355 
L 274.640332 214.75241 
" clip-path="url(#pd88ee7d454)" style="fill: none; stroke: #d3d3d3"/>
    <path d="M 460.264463 151.640355 
L 332.757635 278.93836 
" clip-path="url(#pd88ee7d454)" style="fill: none; stroke: #d3d3d3"/>
    <path d="M 460.264463 151.640355 
L 454.422647 234.657194 
" clip-path="url(#pd88ee7d454)" style="fill: none; stroke: #d3d3d3"/>
    <path d="M 460.264463 151.640355 
L 291.479912 388.004549 
" clip-path="url(#pd88ee7d454)" style="fill: none; stroke: #d3d3d3"/>
    <path d="M 85.167243 109.140539 
L 88.602678 188.203742 
" clip-path="url(#pd88ee7d454)" style="fill: none; stroke: #d3d3d3"/>
    <path d="M 85.167243 109.140539 
L 104.014782 330.144584 
" clip-path="url(#pd88ee7d454)" style="fill: none; stroke: #d3d3d3"/>
    <path d="M 85.167243 109.140539 
L 151.914704 352.211143 
" clip-path="url(#pd88ee7d454)" style="fill: none; stroke: #d3d3d3"/>
    <path d="M 85.167243 109.140539 
L 189.908039 197.051495 
" clip-path="url(#pd88ee7d454)" style="fill: none; stroke: #d3d3d3"/>
    <path d="M 85.167243 109.140539 
L 290.739228 102.544543 
" clip-path="url(#pd88ee7d454)" style="fill: none; stroke: #d3d3d3"/>
    <path d="M 85.167243 109.140539 
L 332.757635 278.93836 
" clip-path="url(#pd88ee7d454)" style="fill: none; stroke: #d3d3d3"/>
    <path d="M 85.167243 109.140539 
L 218.69962 78.61565 
" clip-path="url(#pd88ee7d454)" style="fill: none; stroke: #d3d3d3"/>
    <path d="M 85.167243 109.140539 
L 43.735537 237.164877 
" clip-path="url(#pd88ee7d454)" style="fill: none; stroke: #d3d3d3"/>
    <path d="M 85.167243 109.140539 
L 274.640332 214.75241 
" clip-path="url(#pd88ee7d454)" style="fill: none; stroke: #d3d3d3"/>
    <path d="M 218.69962 78.61565 
L 204.124972 277.351215 
" clip-path="url(#pd88ee7d454)" style="fill: none; stroke: #d3d3d3"/>
    <path d="M 218.69962 78.61565 
L 361.207753 357.308238 
" clip-path="url(#pd88ee7d454)" style="fill: none; stroke: #d3d3d3"/>
    <path d="M 218.69962 78.61565 
L 88.602678 188.203742 
" clip-path="url(#pd88ee7d454)" style="fill: none; stroke: #d3d3d3"/>
    <path d="M 218.69962 78.61565 
L 141.646051 256.955065 
" clip-path="url(#pd88ee7d454)" style="fill: none; stroke: #d3d3d3"/>
    <path d="M 218.69962 78.61565 
L 454.422647 234.657194 
" clip-path="url(#pd88ee7d454)" style="fill: none; stroke: #d3d3d3"/>
    <path d="M 218.69962 78.61565 
L 43.735537 237.164877 
" clip-path="url(#pd88ee7d454)" style="fill: none; stroke: #d3d3d3"/>
    <path d="M 218.69962 78.61565 
L 274.640332 214.75241 
" clip-path="url(#pd88ee7d454)" style="fill: none; stroke: #d3d3d3"/>
    <path d="M 43.735537 237.164877 
L 189.908039 197.051495 
" clip-path="url(#pd88ee7d454)" style="fill: none; stroke: #d3d3d3"/>
    <path d="M 43.735537 237.164877 
L 88.602678 188.203742 
" clip-path="url(#pd88ee7d454)" style="fill: none; stroke: #d3d3d3"/>
    <path d="M 43.735537 237.164877 
L 218.746717 394.512397 
" clip-path="url(#pd88ee7d454)" style="fill: none; stroke: #d3d3d3"/>
    <path d="M 43.735537 237.164877 
L 204.124972 277.351215 
" clip-path="url(#pd88ee7d454)" style="fill: none; stroke: #d3d3d3"/>
    <path d="M 43.735537 237.164877 
L 104.014782 330.144584 
" clip-path="url(#pd88ee7d454)" style="fill: none; stroke: #d3d3d3"/>
    <path d="M 43.735537 237.164877 
L 291.479912 388.004549 
" clip-path="url(#pd88ee7d454)" style="fill: none; stroke: #d3d3d3"/>
    <path d="M 43.735537 237.164877 
L 274.640332 214.75241 
" clip-path="url(#pd88ee7d454)" style="fill: none; stroke: #d3d3d3"/>
    <path d="M 274.640332 214.75241 
L 290.739228 102.544543 
" clip-path="url(#pd88ee7d454)" style="fill: none; stroke: #d3d3d3"/>
    <path d="M 274.640332 214.75241 
L 204.124972 277.351215 
" clip-path="url(#pd88ee7d454)" style="fill: none; stroke: #d3d3d3"/>
    <path d="M 274.640332 214.75241 
L 218.746717 394.512397 
" clip-path="url(#pd88ee7d454)" style="fill: none; stroke: #d3d3d3"/>
    <path d="M 274.640332 214.75241 
L 361.207753 357.308238 
" clip-path="url(#pd88ee7d454)" style="fill: none; stroke: #d3d3d3"/>
    <path d="M 274.640332 214.75241 
L 151.914704 352.211143 
" clip-path="url(#pd88ee7d454)" style="fill: none; stroke: #d3d3d3"/>
    <path d="M 189.908039 197.051495 
L 141.646051 256.955065 
" clip-path="url(#pd88ee7d454)" style="fill: none; stroke: #d3d3d3"/>
    <path d="M 189.908039 197.051495 
L 291.479912 388.004549 
" clip-path="url(#pd88ee7d454)" style="fill: none; stroke: #d3d3d3"/>
    <path d="M 189.908039 197.051495 
L 88.602678 188.203742 
" clip-path="url(#pd88ee7d454)" style="fill: none; stroke: #d3d3d3"/>
    <path d="M 189.908039 197.051495 
L 290.739228 102.544543 
" clip-path="url(#pd88ee7d454)" style="fill: none; stroke: #d3d3d3"/>
    <path d="M 189.908039 197.051495 
L 332.757635 278.93836 
" clip-path="url(#pd88ee7d454)" style="fill: none; stroke: #d3d3d3"/>
    <path d="M 189.908039 197.051495 
L 104.014782 330.144584 
" clip-path="url(#pd88ee7d454)" style="fill: none; stroke: #d3d3d3"/>
    <path d="M 189.908039 197.051495 
L 361.207753 357.308238 
" clip-path="url(#pd88ee7d454)" style="fill: none; stroke: #d3d3d3"/>
    <path d="M 141.646051 256.955065 
L 290.739228 102.544543 
" clip-path="url(#pd88ee7d454)" style="fill: none; stroke: #d3d3d3"/>
    <path d="M 141.646051 256.955065 
L 332.757635 278.93836 
" clip-path="url(#pd88ee7d454)" style="fill: none; stroke: #d3d3d3"/>
    <path d="M 141.646051 256.955065 
L 88.602678 188.203742 
" clip-path="url(#pd88ee7d454)" style="fill: none; stroke: #d3d3d3"/>
    <path d="M 141.646051 256.955065 
L 291.479912 388.004549 
" clip-path="url(#pd88ee7d454)" style="fill: none; stroke: #d3d3d3"/>
    <path d="M 141.646051 256.955065 
L 104.014782 330.144584 
" clip-path="url(#pd88ee7d454)" style="fill: none; stroke: #d3d3d3"/>
    <path d="M 141.646051 256.955065 
L 218.746717 394.512397 
" clip-path="url(#pd88ee7d454)" style="fill: none; stroke: #d3d3d3"/>
    <path d="M 141.646051 256.955065 
L 454.422647 234.657194 
" clip-path="url(#pd88ee7d454)" style="fill: none; stroke: #d3d3d3"/>
    <path d="M 141.646051 256.955065 
L 151.914704 352.211143 
" clip-path="url(#pd88ee7d454)" style="fill: none; stroke: #d3d3d3"/>
    <path d="M 291.479912 388.004549 
L 332.757635 278.93836 
" clip-path="url(#pd88ee7d454)" style="fill: none; stroke: #d3d3d3"/>
    <path d="M 291.479912 388.004549 
L 454.422647 234.657194 
" clip-path="url(#pd88ee7d454)" style="fill: none; stroke: #d3d3d3"/>
    <path d="M 291.479912 388.004549 
L 204.124972 277.351215 
" clip-path="url(#pd88ee7d454)" style="fill: none; stroke: #d3d3d3"/>
    <path d="M 291.479912 388.004549 
L 104.014782 330.144584 
" clip-path="url(#pd88ee7d454)" style="fill: none; stroke: #d3d3d3"/>
    <path d="M 291.479912 388.004549 
L 151.914704 352.211143 
" clip-path="url(#pd88ee7d454)" style="fill: none; stroke: #d3d3d3"/>
    <path d="M 88.602678 188.203742 
L 104.014782 330.144584 
" clip-path="url(#pd88ee7d454)" style="fill: none; stroke: #d3d3d3"/>
    <path d="M 88.602678 188.203742 
L 151.914704 352.211143 
" clip-path="url(#pd88ee7d454)" style="fill: none; stroke: #d3d3d3"/>
    <path d="M 88.602678 188.203742 
L 454.422647 234.657194 
" clip-path="url(#pd88ee7d454)" style="fill: none; stroke: #d3d3d3"/>
    <path d="M 88.602678 188.203742 
L 204.124972 277.351215 
" clip-path="url(#pd88ee7d454)" style="fill: none; stroke: #d3d3d3"/>
    <path d="M 88.602678 188.203742 
L 218.746717 394.512397 
" clip-path="url(#pd88ee7d454)" style="fill: none; stroke: #d3d3d3"/>
    <path d="M 204.124972 277.351215 
L 290.739228 102.544543 
" clip-path="url(#pd88ee7d454)" style="fill: none; stroke: #d3d3d3"/>
    <path d="M 204.124972 277.351215 
L 361.207753 357.308238 
" clip-path="url(#pd88ee7d454)" style="fill: none; stroke: #d3d3d3"/>
    <path d="M 204.124972 277.351215 
L 104.014782 330.144584 
" clip-path="url(#pd88ee7d454)" style="fill: none; stroke: #d3d3d3"/>
    <path d="M 204.124972 277.351215 
L 218.746717 394.512397 
" clip-path="url(#pd88ee7d454)" style="fill: none; stroke: #d3d3d3"/>
    <path d="M 218.746717 394.512397 
L 332.757635 278.93836 
" clip-path="url(#pd88ee7d454)" style="fill: none; stroke: #d3d3d3"/>
    <path d="M 218.746717 394.512397 
L 104.014782 330.144584 
" clip-path="url(#pd88ee7d454)" style="fill: none; stroke: #d3d3d3"/>
    <path d="M 218.746717 394.512397 
L 361.207753 357.308238 
" clip-path="url(#pd88ee7d454)" style="fill: none; stroke: #d3d3d3"/>
    <path d="M 218.746717 394.512397 
L 151.914704 352.211143 
" clip-path="url(#pd88ee7d454)" style="fill: none; stroke: #d3d3d3"/>
    <path d="M 290.739228 102.544543 
L 454.422647 234.657194 
" clip-path="url(#pd88ee7d454)" style="fill: none; stroke: #d3d3d3"/>
    <path d="M 290.739228 102.544543 
L 332.757635 278.93836 
" clip-path="url(#pd88ee7d454)" style="fill: none; stroke: #d3d3d3"/>
    <path d="M 290.739228 102.544543 
L 151.914704 352.211143 
" clip-path="url(#pd88ee7d454)" style="fill: none; stroke: #d3d3d3"/>
    <path d="M 454.422647 234.657194 
L 332.757635 278.93836 
" clip-path="url(#pd88ee7d454)" style="fill: none; stroke: #d3d3d3"/>
    <path d="M 454.422647 234.657194 
L 361.207753 357.308238 
" clip-path="url(#pd88ee7d454)" style="fill: none; stroke: #d3d3d3"/>
    <path d="M 104.014782 330.144584 
L 332.757635 278.93836 
" clip-path="url(#pd88ee7d454)" style="fill: none; stroke: #d3d3d3"/>
    <path d="M 104.014782 330.144584 
L 151.914704 352.211143 
" clip-path="url(#pd88ee7d454)" style="fill: none; stroke: #d3d3d3"/>
    <path d="M 104.014782 330.144584 
L 361.207753 357.308238 
" clip-path="url(#pd88ee7d454)" style="fill: none; stroke: #d3d3d3"/>
    <path d="M 361.207753 357.308238 
L 151.914704 352.211143 
" clip-path="url(#pd88ee7d454)" style="fill: none; stroke: #d3d3d3"/>
   </g>
   <g id="PathCollection_1">
    <defs>
     <path id="C0_0_64d53a4f80" d="M 0 5 
C 1.326016 5 2.597899 4.473168 3.535534 3.535534 
C 4.473168 2.597899 5 1.326016 5 -0 
C 5 -1.326016 4.473168 -2.597899 3.535534 -3.535534 
C 2.597899 -4.473168 1.326016 -5 0 -5 
C -1.326016 -5 -2.597899 -4.473168 -3.535534 -3.535534 
C -4.473168 -2.597899 -5 -1.326016 -5 0 
C -5 1.326016 -4.473168 2.597899 -3.535534 3.535534 
C -2.597899 4.473168 -1.326016 5 0 5 
z
"/>
    </defs>
    <g clip-path="url(#pd88ee7d454)">
     <use xlink:href="#C0_0_64d53a4f80" x="313.887547" y="37.487603" style="fill: #8000ff; stroke: #8000ff"/>
    </g>
    <g clip-path="url(#pd88ee7d454)">
     <use xlink:href="#C0_0_64d53a4f80" x="360.297888" y="152.130795" style="fill: #8000ff; stroke: #8000ff"/>
    </g>
    <g clip-path="url(#pd88ee7d454)">
     <use xlink:href="#C0_0_64d53a4f80" x="367.74586" y="215.201188" style="fill: #8000ff; stroke: #8000ff"/>
    </g>
    <g clip-path="url(#pd88ee7d454)">
     <use xlink:href="#C0_0_64d53a4f80" x="284.49404" y="287.326623" style="fill: #8000ff; stroke: #8000ff"/>
    </g>
    <g clip-path="url(#pd88ee7d454)">
     <use xlink:href="#C0_0_64d53a4f80" x="458.211788" y="325.585417" style="fill: #8000ff; stroke: #8000ff"/>
    </g>
    <g clip-path="url(#pd88ee7d454)">
     <use xlink:href="#C0_0_64d53a4f80" x="230.425649" y="124.580575" style="fill: #8000ff; stroke: #8000ff"/>
    </g>
    <g clip-path="url(#pd88ee7d454)">
     <use xlink:href="#C0_0_64d53a4f80" x="401.888291" y="74.680178" style="fill: #8000ff; stroke: #8000ff"/>
    </g>
    <g clip-path="url(#pd88ee7d454)">
     <use xlink:href="#C0_0_64d53a4f80" x="152.37176" y="76.826395" style="fill: #8000ff; stroke: #8000ff"/>
    </g>
    <g clip-path="url(#pd88ee7d454)">
     <use xlink:href="#C0_0_64d53a4f80" x="460.264463" y="151.640355" style="fill: #8000ff; stroke: #8000ff"/>
    </g>
    <g clip-path="url(#pd88ee7d454)">
     <use xlink:href="#C0_0_64d53a4f80" x="85.167243" y="109.140539" style="fill: #8000ff; stroke: #8000ff"/>
    </g>
    <g clip-path="url(#pd88ee7d454)">
     <use xlink:href="#C0_0_64d53a4f80" x="218.69962" y="78.61565" style="fill: #8000ff; stroke: #8000ff"/>
    </g>
    <g clip-path="url(#pd88ee7d454)">
     <use xlink:href="#C0_0_64d53a4f80" x="43.735537" y="237.164877" style="fill: #8000ff; stroke: #8000ff"/>
    </g>
    <g clip-path="url(#pd88ee7d454)">
     <use xlink:href="#C0_0_64d53a4f80" x="274.640332" y="214.75241" style="fill: #8000ff; stroke: #8000ff"/>
    </g>
    <g clip-path="url(#pd88ee7d454)">
     <use xlink:href="#C0_0_64d53a4f80" x="189.908039" y="197.051495" style="fill: #8000ff; stroke: #8000ff"/>
    </g>
    <g clip-path="url(#pd88ee7d454)">
     <use xlink:href="#C0_0_64d53a4f80" x="141.646051" y="256.955065" style="fill: #8000ff; stroke: #8000ff"/>
    </g>
    <g clip-path="url(#pd88ee7d454)">
     <use xlink:href="#C0_0_64d53a4f80" x="291.479912" y="388.004549" style="fill: #8000ff; stroke: #8000ff"/>
    </g>
    <g clip-path="url(#pd88ee7d454)">
     <use xlink:href="#C0_0_64d53a4f80" x="88.602678" y="188.203742" style="fill: #8000ff; stroke: #8000ff"/>
    </g>
    <g clip-path="url(#pd88ee7d454)">
     <use xlink:href="#C0_0_64d53a4f80" x="204.124972" y="277.351215" style="fill: #8000ff; stroke: #8000ff"/>
    </g>
    <g clip-path="url(#pd88ee7d454)">
     <use xlink:href="#C0_0_64d53a4f80" x="218.746717" y="394.512397" style="fill: #8000ff; stroke: #8000ff"/>
    </g>
    <g clip-path="url(#pd88ee7d454)">
     <use xlink:href="#C0_0_64d53a4f80" x="290.739228" y="102.544543" style="fill: #8000ff; stroke: #8000ff"/>
    </g>
    <g clip-path="url(#pd88ee7d454)">
     <use xlink:href="#C0_0_64d53a4f80" x="454.422647" y="234.657194" style="fill: #8000ff; stroke: #8000ff"/>
    </g>
    <g clip-path="url(#pd88ee7d454)">
     <use xlink:href="#C0_0_64d53a4f80" x="104.014782" y="330.144584" style="fill: #8000ff; stroke: #8000ff"/>
    </g>
    <g clip-path="url(#pd88ee7d454)">
     <use xlink:href="#C0_0_64d53a4f80" x="361.207753" y="357.308238" style="fill: #8000ff; stroke: #8000ff"/>
    </g>
    <g clip-path="url(#pd88ee7d454)">
     <use xlink:href="#C0_0_64d53a4f80" x="332.757635" y="278.93836" style="fill: #8000ff; stroke: #8000ff"/>
    </g>
    <g clip-path="url(#pd88ee7d454)">
     <use xlink:href="#C0_0_64d53a4f80" x="151.914704" y="352.211143" style="fill: #8000ff; stroke: #8000ff"/>
    </g>
   </g>
   <g id="text_1">
    <!-- Colored Graph - queen5_5.col -->
    <g transform="translate(162.702188 -6) scale(0.12 -0.12)">
     <defs>
      <path id="DejaVuSans-43" d="M 4122 4306 
L 4122 3641 
Q 3803 3938 3442 4084 
Q 3081 4231 2675 4231 
Q 1875 4231 1450 3742 
Q 1025 3253 1025 2328 
Q 1025 1406 1450 917 
Q 1875 428 2675 428 
Q 3081 428 3442 575 
Q 3803 722 4122 1019 
L 4122 359 
Q 3791 134 3420 21 
Q 3050 -91 2638 -91 
Q 1578 -91 968 557 
Q 359 1206 359 2328 
Q 359 3453 968 4101 
Q 1578 4750 2638 4750 
Q 3056 4750 3426 4639 
Q 3797 4528 4122 4306 
z
" transform="scale(0.015625)"/>
      <path id="DejaVuSans-6f" d="M 1959 3097 
Q 1497 3097 1228 2736 
Q 959 2375 959 1747 
Q 959 1119 1226 758 
Q 1494 397 1959 397 
Q 2419 397 2687 759 
Q 2956 1122 2956 1747 
Q 2956 2369 2687 2733 
Q 2419 3097 1959 3097 
z
M 1959 3584 
Q 2709 3584 3137 3096 
Q 3566 2609 3566 1747 
Q 3566 888 3137 398 
Q 2709 -91 1959 -91 
Q 1206 -91 779 398 
Q 353 888 353 1747 
Q 353 2609 779 3096 
Q 1206 3584 1959 3584 
z
" transform="scale(0.015625)"/>
      <path id="DejaVuSans-6c" d="M 603 4863 
L 1178 4863 
L 1178 0 
L 603 0 
L 603 4863 
z
" transform="scale(0.015625)"/>
      <path id="DejaVuSans-72" d="M 2631 2963 
Q 2534 3019 2420 3045 
Q 2306 3072 2169 3072 
Q 1681 3072 1420 2755 
Q 1159 2438 1159 1844 
L 1159 0 
L 581 0 
L 581 3500 
L 1159 3500 
L 1159 2956 
Q 1341 3275 1631 3429 
Q 1922 3584 2338 3584 
Q 2397 3584 2469 3576 
Q 2541 3569 2628 3553 
L 2631 2963 
z
" transform="scale(0.015625)"/>
      <path id="DejaVuSans-65" d="M 3597 1894 
L 3597 1613 
L 953 1613 
Q 991 1019 1311 708 
Q 1631 397 2203 397 
Q 2534 397 2845 478 
Q 3156 559 3463 722 
L 3463 178 
Q 3153 47 2828 -22 
Q 2503 -91 2169 -91 
Q 1331 -91 842 396 
Q 353 884 353 1716 
Q 353 2575 817 3079 
Q 1281 3584 2069 3584 
Q 2775 3584 3186 3129 
Q 3597 2675 3597 1894 
z
M 3022 2063 
Q 3016 2534 2758 2815 
Q 2500 3097 2075 3097 
Q 1594 3097 1305 2825 
Q 1016 2553 972 2059 
L 3022 2063 
z
" transform="scale(0.015625)"/>
      <path id="DejaVuSans-64" d="M 2906 2969 
L 2906 4863 
L 3481 4863 
L 3481 0 
L 2906 0 
L 2906 525 
Q 2725 213 2448 61 
Q 2172 -91 1784 -91 
Q 1150 -91 751 415 
Q 353 922 353 1747 
Q 353 2572 751 3078 
Q 1150 3584 1784 3584 
Q 2172 3584 2448 3432 
Q 2725 3281 2906 2969 
z
M 947 1747 
Q 947 1113 1208 752 
Q 1469 391 1925 391 
Q 2381 391 2643 752 
Q 2906 1113 2906 1747 
Q 2906 2381 2643 2742 
Q 2381 3103 1925 3103 
Q 1469 3103 1208 2742 
Q 947 2381 947 1747 
z
" transform="scale(0.015625)"/>
      <path id="DejaVuSans-20" transform="scale(0.015625)"/>
      <path id="DejaVuSans-47" d="M 3809 666 
L 3809 1919 
L 2778 1919 
L 2778 2438 
L 4434 2438 
L 4434 434 
Q 4069 175 3628 42 
Q 3188 -91 2688 -91 
Q 1594 -91 976 548 
Q 359 1188 359 2328 
Q 359 3472 976 4111 
Q 1594 4750 2688 4750 
Q 3144 4750 3555 4637 
Q 3966 4525 4313 4306 
L 4313 3634 
Q 3963 3931 3569 4081 
Q 3175 4231 2741 4231 
Q 1884 4231 1454 3753 
Q 1025 3275 1025 2328 
Q 1025 1384 1454 906 
Q 1884 428 2741 428 
Q 3075 428 3337 486 
Q 3600 544 3809 666 
z
" transform="scale(0.015625)"/>
      <path id="DejaVuSans-61" d="M 2194 1759 
Q 1497 1759 1228 1600 
Q 959 1441 959 1056 
Q 959 750 1161 570 
Q 1363 391 1709 391 
Q 2188 391 2477 730 
Q 2766 1069 2766 1631 
L 2766 1759 
L 2194 1759 
z
M 3341 1997 
L 3341 0 
L 2766 0 
L 2766 531 
Q 2569 213 2275 61 
Q 1981 -91 1556 -91 
Q 1019 -91 701 211 
Q 384 513 384 1019 
Q 384 1609 779 1909 
Q 1175 2209 1959 2209 
L 2766 2209 
L 2766 2266 
Q 2766 2663 2505 2880 
Q 2244 3097 1772 3097 
Q 1472 3097 1187 3025 
Q 903 2953 641 2809 
L 641 3341 
Q 956 3463 1253 3523 
Q 1550 3584 1831 3584 
Q 2591 3584 2966 3190 
Q 3341 2797 3341 1997 
z
" transform="scale(0.015625)"/>
      <path id="DejaVuSans-70" d="M 1159 525 
L 1159 -1331 
L 581 -1331 
L 581 3500 
L 1159 3500 
L 1159 2969 
Q 1341 3281 1617 3432 
Q 1894 3584 2278 3584 
Q 2916 3584 3314 3078 
Q 3713 2572 3713 1747 
Q 3713 922 3314 415 
Q 2916 -91 2278 -91 
Q 1894 -91 1617 61 
Q 1341 213 1159 525 
z
M 3116 1747 
Q 3116 2381 2855 2742 
Q 2594 3103 2138 3103 
Q 1681 3103 1420 2742 
Q 1159 2381 1159 1747 
Q 1159 1113 1420 752 
Q 1681 391 2138 391 
Q 2594 391 2855 752 
Q 3116 1113 3116 1747 
z
" transform="scale(0.015625)"/>
      <path id="DejaVuSans-68" d="M 3513 2113 
L 3513 0 
L 2938 0 
L 2938 2094 
Q 2938 2591 2744 2837 
Q 2550 3084 2163 3084 
Q 1697 3084 1428 2787 
Q 1159 2491 1159 1978 
L 1159 0 
L 581 0 
L 581 4863 
L 1159 4863 
L 1159 2956 
Q 1366 3272 1645 3428 
Q 1925 3584 2291 3584 
Q 2894 3584 3203 3211 
Q 3513 2838 3513 2113 
z
" transform="scale(0.015625)"/>
      <path id="DejaVuSans-2d" d="M 313 2009 
L 1997 2009 
L 1997 1497 
L 313 1497 
L 313 2009 
z
" transform="scale(0.015625)"/>
      <path id="DejaVuSans-71" d="M 947 1747 
Q 947 1113 1208 752 
Q 1469 391 1925 391 
Q 2381 391 2643 752 
Q 2906 1113 2906 1747 
Q 2906 2381 2643 2742 
Q 2381 3103 1925 3103 
Q 1469 3103 1208 2742 
Q 947 2381 947 1747 
z
M 2906 525 
Q 2725 213 2448 61 
Q 2172 -91 1784 -91 
Q 1150 -91 751 415 
Q 353 922 353 1747 
Q 353 2572 751 3078 
Q 1150 3584 1784 3584 
Q 2172 3584 2448 3432 
Q 2725 3281 2906 2969 
L 2906 3500 
L 3481 3500 
L 3481 -1331 
L 2906 -1331 
L 2906 525 
z
" transform="scale(0.015625)"/>
      <path id="DejaVuSans-75" d="M 544 1381 
L 544 3500 
L 1119 3500 
L 1119 1403 
Q 1119 906 1312 657 
Q 1506 409 1894 409 
Q 2359 409 2629 706 
Q 2900 1003 2900 1516 
L 2900 3500 
L 3475 3500 
L 3475 0 
L 2900 0 
L 2900 538 
Q 2691 219 2414 64 
Q 2138 -91 1772 -91 
Q 1169 -91 856 284 
Q 544 659 544 1381 
z
M 1991 3584 
L 1991 3584 
z
" transform="scale(0.015625)"/>
      <path id="DejaVuSans-6e" d="M 3513 2113 
L 3513 0 
L 2938 0 
L 2938 2094 
Q 2938 2591 2744 2837 
Q 2550 3084 2163 3084 
Q 1697 3084 1428 2787 
Q 1159 2491 1159 1978 
L 1159 0 
L 581 0 
L 581 3500 
L 1159 3500 
L 1159 2956 
Q 1366 3272 1645 3428 
Q 1925 3584 2291 3584 
Q 2894 3584 3203 3211 
Q 3513 2838 3513 2113 
z
" transform="scale(0.015625)"/>
      <path id="DejaVuSans-35" d="M 691 4666 
L 3169 4666 
L 3169 4134 
L 1269 4134 
L 1269 2991 
Q 1406 3038 1543 3061 
Q 1681 3084 1819 3084 
Q 2600 3084 3056 2656 
Q 3513 2228 3513 1497 
Q 3513 744 3044 326 
Q 2575 -91 1722 -91 
Q 1428 -91 1123 -41 
Q 819 9 494 109 
L 494 744 
Q 775 591 1075 516 
Q 1375 441 1709 441 
Q 2250 441 2565 725 
Q 2881 1009 2881 1497 
Q 2881 1984 2565 2268 
Q 2250 2553 1709 2553 
Q 1456 2553 1204 2497 
Q 953 2441 691 2322 
L 691 4666 
z
" transform="scale(0.015625)"/>
      <path id="DejaVuSans-5f" d="M 3263 -1063 
L 3263 -1509 
L -63 -1509 
L -63 -1063 
L 3263 -1063 
z
" transform="scale(0.015625)"/>
      <path id="DejaVuSans-2e" d="M 684 794 
L 1344 794 
L 1344 0 
L 684 0 
L 684 794 
z
" transform="scale(0.015625)"/>
      <path id="DejaVuSans-63" d="M 3122 3366 
L 3122 2828 
Q 2878 2963 2633 3030 
Q 2388 3097 2138 3097 
Q 1578 3097 1268 2742 
Q 959 2388 959 1747 
Q 959 1106 1268 751 
Q 1578 397 2138 397 
Q 2388 397 2633 464 
Q 2878 531 3122 666 
L 3122 134 
Q 2881 22 2623 -34 
Q 2366 -91 2075 -91 
Q 1284 -91 818 406 
Q 353 903 353 1747 
Q 353 2603 823 3093 
Q 1294 3584 2113 3584 
Q 2378 3584 2631 3529 
Q 2884 3475 3122 3366 
z
" transform="scale(0.015625)"/>
     </defs>
     <use xlink:href="#DejaVuSans-43"/>
     <use xlink:href="#DejaVuSans-6f" x="69.824219"/>
     <use xlink:href="#DejaVuSans-6c" x="131.005859"/>
     <use xlink:href="#DejaVuSans-6f" x="158.789062"/>
     <use xlink:href="#DejaVuSans-72" x="219.970703"/>
     <use xlink:href="#DejaVuSans-65" x="258.833984"/>
     <use xlink:href="#DejaVuSans-64" x="320.357422"/>
     <use xlink:href="#DejaVuSans-20" x="383.833984"/>
     <use xlink:href="#DejaVuSans-47" x="415.621094"/>
     <use xlink:href="#DejaVuSans-72" x="493.111328"/>
     <use xlink:href="#DejaVuSans-61" x="534.224609"/>
     <use xlink:href="#DejaVuSans-70" x="595.503906"/>
     <use xlink:href="#DejaVuSans-68" x="658.980469"/>
     <use xlink:href="#DejaVuSans-20" x="722.359375"/>
     <use xlink:href="#DejaVuSans-2d" x="754.146484"/>
     <use xlink:href="#DejaVuSans-20" x="790.230469"/>
     <use xlink:href="#DejaVuSans-71" x="822.017578"/>
     <use xlink:href="#DejaVuSans-75" x="885.494141"/>
     <use xlink:href="#DejaVuSans-65" x="948.873047"/>
     <use xlink:href="#DejaVuSans-65" x="1010.396484"/>
     <use xlink:href="#DejaVuSans-6e" x="1071.919922"/>
     <use xlink:href="#DejaVuSans-35" x="1135.298828"/>
     <use xlink:href="#DejaVuSans-5f" x="1198.921875"/>
     <use xlink:href="#DejaVuSans-35" x="1248.921875"/>
     <use xlink:href="#DejaVuSans-2e" x="1312.544922"/>
     <use xlink:href="#DejaVuSans-63" x="1344.332031"/>
     <use xlink:href="#DejaVuSans-6f" x="1399.3125"/>
     <use xlink:href="#DejaVuSans-6c" x="1460.494141"/>
    </g>
   </g>
   <g id="legend_1">
    <g id="patch_2">
     <path d="M 536.2 37.35625 
L 603.85 37.35625 
Q 605.85 37.35625 605.85 35.35625 
L 605.85 7 
Q 605.85 5 603.85 5 
L 536.2 5 
Q 534.2 5 534.2 7 
L 534.2 35.35625 
Q 534.2 37.35625 536.2 37.35625 
z
" style="fill: #ffffff; opacity: 0.8; stroke: #cccccc; stroke-linejoin: miter"/>
    </g>
    <g id="text_2">
     <!-- Clase GNN -->
     <g transform="translate(543.454688 16.598437) scale(0.1 -0.1)">
      <defs>
       <path id="DejaVuSans-73" d="M 2834 3397 
L 2834 2853 
Q 2591 2978 2328 3040 
Q 2066 3103 1784 3103 
Q 1356 3103 1142 2972 
Q 928 2841 928 2578 
Q 928 2378 1081 2264 
Q 1234 2150 1697 2047 
L 1894 2003 
Q 2506 1872 2764 1633 
Q 3022 1394 3022 966 
Q 3022 478 2636 193 
Q 2250 -91 1575 -91 
Q 1294 -91 989 -36 
Q 684 19 347 128 
L 347 722 
Q 666 556 975 473 
Q 1284 391 1588 391 
Q 1994 391 2212 530 
Q 2431 669 2431 922 
Q 2431 1156 2273 1281 
Q 2116 1406 1581 1522 
L 1381 1569 
Q 847 1681 609 1914 
Q 372 2147 372 2553 
Q 372 3047 722 3315 
Q 1072 3584 1716 3584 
Q 2034 3584 2315 3537 
Q 2597 3491 2834 3397 
z
" transform="scale(0.015625)"/>
       <path id="DejaVuSans-4e" d="M 628 4666 
L 1478 4666 
L 3547 763 
L 3547 4666 
L 4159 4666 
L 4159 0 
L 3309 0 
L 1241 3903 
L 1241 0 
L 628 0 
L 628 4666 
z
" transform="scale(0.015625)"/>
      </defs>
      <use xlink:href="#DejaVuSans-43"/>
      <use xlink:href="#DejaVuSans-6c" x="69.824219"/>
      <use xlink:href="#DejaVuSans-61" x="97.607422"/>
      <use xlink:href="#DejaVuSans-73" x="158.886719"/>
      <use xlink:href="#DejaVuSans-65" x="210.986328"/>
      <use xlink:href="#DejaVuSans-20" x="272.509766"/>
      <use xlink:href="#DejaVuSans-47" x="304.296875"/>
      <use xlink:href="#DejaVuSans-4e" x="381.787109"/>
      <use xlink:href="#DejaVuSans-4e" x="456.591797"/>
     </g>
    </g>
    <g id="patch_3">
     <path d="M 538.2 31.276563 
L 558.2 31.276563 
L 558.2 24.276563 
L 538.2 24.276563 
z
" style="fill: #ff0000; stroke: #ff0000; stroke-linejoin: miter"/>
    </g>
    <g id="text_3">
     <!-- Color 1 -->
     <g transform="translate(566.2 31.276563) scale(0.1 -0.1)">
      <defs>
       <path id="DejaVuSans-31" d="M 794 531 
L 1825 531 
L 1825 4091 
L 703 3866 
L 703 4441 
L 1819 4666 
L 2450 4666 
L 2450 531 
L 3481 531 
L 3481 0 
L 794 0 
L 794 531 
z
" transform="scale(0.015625)"/>
      </defs>
      <use xlink:href="#DejaVuSans-43"/>
      <use xlink:href="#DejaVuSans-6f" x="69.824219"/>
      <use xlink:href="#DejaVuSans-6c" x="131.005859"/>
      <use xlink:href="#DejaVuSans-6f" x="158.789062"/>
      <use xlink:href="#DejaVuSans-72" x="219.970703"/>
      <use xlink:href="#DejaVuSans-20" x="261.083984"/>
      <use xlink:href="#DejaVuSans-31" x="292.871094"/>
     </g>
    </g>
   </g>
  </g>
 </g>
 <defs>
  <clipPath id="pd88ee7d454">
   <rect x="0" y="0" width="504" height="432"/>
  </clipPath>
 </defs>
</svg>
