<?xml version="1.0" encoding="utf-8" standalone="no"?>
<!DOCTYPE svg PUBLIC "-//W3C//DTD SVG 1.1//EN"
  "http://www.w3.org/Graphics/SVG/1.1/DTD/svg11.dtd">
<svg xmlns:xlink="http://www.w3.org/1999/xlink" width="504pt" height="432pt" viewBox="0 0 504 432" xmlns="http://www.w3.org/2000/svg" version="1.1">
 <metadata>
  <rdf:RDF xmlns:dc="http://purl.org/dc/elements/1.1/" xmlns:cc="http://creativecommons.org/ns#" xmlns:rdf="http://www.w3.org/1999/02/22-rdf-syntax-ns#">
   <cc:Work>
    <dc:type rdf:resource="http://purl.org/dc/dcmitype/StillImage"/>
    <dc:date>2025-06-04T19:21:41.860900</dc:date>
    <dc:format>image/svg+xml</dc:format>
    <dc:creator>
     <cc:Agent>
      <dc:title>Matplotlib v3.10.1, https://matplotlib.org/</dc:title>
     </cc:Agent>
    </dc:creator>
   </cc:Work>
  </rdf:RDF>
 </metadata>
 <defs>
  <style type="text/css">*{stroke-linejoin: round; stroke-linecap: butt}</style>
 </defs>
 <g id="figure_1">
  <g id="patch_1">
   <path d="M 0 432 
L 504 432 
L 504 0 
L 0 0 
z
" style="fill: #ffffff"/>
  </g>
  <g id="axes_1">
   <g id="LineCollection_1">
    <path d="M 230.534122 232.355782 
L 334.136154 189.362252 
" clip-path="url(#p2132ff16f1)" style="fill: none; stroke: #d3d3d3"/>
    <path d="M 230.534122 232.355782 
L 256.807812 291.157245 
" clip-path="url(#p2132ff16f1)" style="fill: none; stroke: #d3d3d3"/>
    <path d="M 230.534122 232.355782 
L 292.062293 231.077997 
" clip-path="url(#p2132ff16f1)" style="fill: none; stroke: #d3d3d3"/>
    <path d="M 230.534122 232.355782 
L 143.410692 247.006457 
" clip-path="url(#p2132ff16f1)" style="fill: none; stroke: #d3d3d3"/>
    <path d="M 230.534122 232.355782 
L 161.295707 202.548071 
" clip-path="url(#p2132ff16f1)" style="fill: none; stroke: #d3d3d3"/>
    <path d="M 230.534122 232.355782 
L 124.404987 225.919742 
" clip-path="url(#p2132ff16f1)" style="fill: none; stroke: #d3d3d3"/>
    <path d="M 230.534122 232.355782 
L 158.613526 228.325094 
" clip-path="url(#p2132ff16f1)" style="fill: none; stroke: #d3d3d3"/>
    <path d="M 230.534122 232.355782 
L 149.82526 174.172141 
" clip-path="url(#p2132ff16f1)" style="fill: none; stroke: #d3d3d3"/>
    <path d="M 230.534122 232.355782 
L 122.16798 205.360071 
" clip-path="url(#p2132ff16f1)" style="fill: none; stroke: #d3d3d3"/>
    <path d="M 230.534122 232.355782 
L 179.386334 181.439705 
" clip-path="url(#p2132ff16f1)" style="fill: none; stroke: #d3d3d3"/>
    <path d="M 230.534122 232.355782 
L 127.648972 185.305934 
" clip-path="url(#p2132ff16f1)" style="fill: none; stroke: #d3d3d3"/>
    <path d="M 230.534122 232.355782 
L 267.465652 173.252557 
" clip-path="url(#p2132ff16f1)" style="fill: none; stroke: #d3d3d3"/>
    <path d="M 230.534122 232.355782 
L 281.470125 348.935196 
" clip-path="url(#p2132ff16f1)" style="fill: none; stroke: #d3d3d3"/>
    <path d="M 230.534122 232.355782 
L 333.047993 261.007194 
" clip-path="url(#p2132ff16f1)" style="fill: none; stroke: #d3d3d3"/>
    <path d="M 230.534122 232.355782 
L 320.588262 206.204767 
" clip-path="url(#p2132ff16f1)" style="fill: none; stroke: #d3d3d3"/>
    <path d="M 230.534122 232.355782 
L 251.859332 211.666237 
" clip-path="url(#p2132ff16f1)" style="fill: none; stroke: #d3d3d3"/>
    <path d="M 230.534122 232.355782 
L 209.33333 185.063547 
" clip-path="url(#p2132ff16f1)" style="fill: none; stroke: #d3d3d3"/>
    <path d="M 230.534122 232.355782 
L 205.78464 224.196325 
" clip-path="url(#p2132ff16f1)" style="fill: none; stroke: #d3d3d3"/>
    <path d="M 331.144869 303.348482 
L 285.981984 258.876221 
" clip-path="url(#p2132ff16f1)" style="fill: none; stroke: #d3d3d3"/>
    <path d="M 331.144869 303.348482 
L 251.859332 211.666237 
" clip-path="url(#p2132ff16f1)" style="fill: none; stroke: #d3d3d3"/>
    <path d="M 331.144869 303.348482 
L 312.621158 259.973721 
" clip-path="url(#p2132ff16f1)" style="fill: none; stroke: #d3d3d3"/>
    <path d="M 331.144869 303.348482 
L 256.807812 291.157245 
" clip-path="url(#p2132ff16f1)" style="fill: none; stroke: #d3d3d3"/>
    <path d="M 331.144869 303.348482 
L 360.289884 375.383906 
" clip-path="url(#p2132ff16f1)" style="fill: none; stroke: #d3d3d3"/>
    <path d="M 331.144869 303.348482 
L 321.862904 358.74819 
" clip-path="url(#p2132ff16f1)" style="fill: none; stroke: #d3d3d3"/>
    <path d="M 331.144869 303.348482 
L 295.988382 394.512397 
" clip-path="url(#p2132ff16f1)" style="fill: none; stroke: #d3d3d3"/>
    <path d="M 331.144869 303.348482 
L 263.72257 314.098796 
" clip-path="url(#p2132ff16f1)" style="fill: none; stroke: #d3d3d3"/>
    <path d="M 331.144869 303.348482 
L 278.626793 306.516409 
" clip-path="url(#p2132ff16f1)" style="fill: none; stroke: #d3d3d3"/>
    <path d="M 335.97035 137.43019 
L 301.837928 146.408152 
" clip-path="url(#p2132ff16f1)" style="fill: none; stroke: #d3d3d3"/>
    <path d="M 335.97035 137.43019 
L 371.246052 172.793104 
" clip-path="url(#p2132ff16f1)" style="fill: none; stroke: #d3d3d3"/>
    <path d="M 335.97035 137.43019 
L 251.859332 211.666237 
" clip-path="url(#p2132ff16f1)" style="fill: none; stroke: #d3d3d3"/>
    <path d="M 335.97035 137.43019 
L 320.588262 206.204767 
" clip-path="url(#p2132ff16f1)" style="fill: none; stroke: #d3d3d3"/>
    <path d="M 256.807812 291.157245 
L 292.062293 231.077997 
" clip-path="url(#p2132ff16f1)" style="fill: none; stroke: #d3d3d3"/>
    <path d="M 256.807812 291.157245 
L 320.588262 206.204767 
" clip-path="url(#p2132ff16f1)" style="fill: none; stroke: #d3d3d3"/>
    <path d="M 256.807812 291.157245 
L 333.047993 261.007194 
" clip-path="url(#p2132ff16f1)" style="fill: none; stroke: #d3d3d3"/>
    <path d="M 256.807812 291.157245 
L 205.78464 224.196325 
" clip-path="url(#p2132ff16f1)" style="fill: none; stroke: #d3d3d3"/>
    <path d="M 256.807812 291.157245 
L 281.470125 348.935196 
" clip-path="url(#p2132ff16f1)" style="fill: none; stroke: #d3d3d3"/>
    <path d="M 256.807812 291.157245 
L 189.598081 267.652085 
" clip-path="url(#p2132ff16f1)" style="fill: none; stroke: #d3d3d3"/>
    <path d="M 256.807812 291.157245 
L 207.806834 309.375394 
" clip-path="url(#p2132ff16f1)" style="fill: none; stroke: #d3d3d3"/>
    <path d="M 256.807812 291.157245 
L 177.840221 286.194588 
" clip-path="url(#p2132ff16f1)" style="fill: none; stroke: #d3d3d3"/>
    <path d="M 256.807812 291.157245 
L 182.633245 304.593851 
" clip-path="url(#p2132ff16f1)" style="fill: none; stroke: #d3d3d3"/>
    <path d="M 256.807812 291.157245 
L 222.253431 267.354707 
" clip-path="url(#p2132ff16f1)" style="fill: none; stroke: #d3d3d3"/>
    <path d="M 256.807812 291.157245 
L 285.981984 258.876221 
" clip-path="url(#p2132ff16f1)" style="fill: none; stroke: #d3d3d3"/>
    <path d="M 256.807812 291.157245 
L 251.859332 211.666237 
" clip-path="url(#p2132ff16f1)" style="fill: none; stroke: #d3d3d3"/>
    <path d="M 256.807812 291.157245 
L 261.937282 272.05616 
" clip-path="url(#p2132ff16f1)" style="fill: none; stroke: #d3d3d3"/>
    <path d="M 256.807812 291.157245 
L 321.862904 358.74819 
" clip-path="url(#p2132ff16f1)" style="fill: none; stroke: #d3d3d3"/>
    <path d="M 256.807812 291.157245 
L 312.621158 259.973721 
" clip-path="url(#p2132ff16f1)" style="fill: none; stroke: #d3d3d3"/>
    <path d="M 256.807812 291.157245 
L 231.955716 302.493924 
" clip-path="url(#p2132ff16f1)" style="fill: none; stroke: #d3d3d3"/>
    <path d="M 256.807812 291.157245 
L 315.021287 292.829817 
" clip-path="url(#p2132ff16f1)" style="fill: none; stroke: #d3d3d3"/>
    <path d="M 256.807812 291.157245 
L 340.497102 282.953638 
" clip-path="url(#p2132ff16f1)" style="fill: none; stroke: #d3d3d3"/>
    <path d="M 256.807812 291.157245 
L 263.72257 314.098796 
" clip-path="url(#p2132ff16f1)" style="fill: none; stroke: #d3d3d3"/>
    <path d="M 256.807812 291.157245 
L 163.957419 372.07545 
" clip-path="url(#p2132ff16f1)" style="fill: none; stroke: #d3d3d3"/>
    <path d="M 256.807812 291.157245 
L 242.679592 392.441022 
" clip-path="url(#p2132ff16f1)" style="fill: none; stroke: #d3d3d3"/>
    <path d="M 256.807812 291.157245 
L 194.611605 383.941656 
" clip-path="url(#p2132ff16f1)" style="fill: none; stroke: #d3d3d3"/>
    <path d="M 256.807812 291.157245 
L 278.626793 306.516409 
" clip-path="url(#p2132ff16f1)" style="fill: none; stroke: #d3d3d3"/>
    <path d="M 179.386334 181.439705 
L 143.410692 247.006457 
" clip-path="url(#p2132ff16f1)" style="fill: none; stroke: #d3d3d3"/>
    <path d="M 179.386334 181.439705 
L 161.295707 202.548071 
" clip-path="url(#p2132ff16f1)" style="fill: none; stroke: #d3d3d3"/>
    <path d="M 179.386334 181.439705 
L 124.404987 225.919742 
" clip-path="url(#p2132ff16f1)" style="fill: none; stroke: #d3d3d3"/>
    <path d="M 179.386334 181.439705 
L 158.613526 228.325094 
" clip-path="url(#p2132ff16f1)" style="fill: none; stroke: #d3d3d3"/>
    <path d="M 179.386334 181.439705 
L 149.82526 174.172141 
" clip-path="url(#p2132ff16f1)" style="fill: none; stroke: #d3d3d3"/>
    <path d="M 179.386334 181.439705 
L 122.16798 205.360071 
" clip-path="url(#p2132ff16f1)" style="fill: none; stroke: #d3d3d3"/>
    <path d="M 179.386334 181.439705 
L 127.648972 185.305934 
" clip-path="url(#p2132ff16f1)" style="fill: none; stroke: #d3d3d3"/>
    <path d="M 179.386334 181.439705 
L 205.78464 224.196325 
" clip-path="url(#p2132ff16f1)" style="fill: none; stroke: #d3d3d3"/>
    <path d="M 179.386334 181.439705 
L 251.859332 211.666237 
" clip-path="url(#p2132ff16f1)" style="fill: none; stroke: #d3d3d3"/>
    <path d="M 262.229753 133.091878 
L 255.861883 109.62701 
" clip-path="url(#p2132ff16f1)" style="fill: none; stroke: #d3d3d3"/>
    <path d="M 262.229753 133.091878 
L 209.882878 130.007601 
" clip-path="url(#p2132ff16f1)" style="fill: none; stroke: #d3d3d3"/>
    <path d="M 262.229753 133.091878 
L 228.470855 108.472582 
" clip-path="url(#p2132ff16f1)" style="fill: none; stroke: #d3d3d3"/>
    <path d="M 262.229753 133.091878 
L 191.009447 111.58701 
" clip-path="url(#p2132ff16f1)" style="fill: none; stroke: #d3d3d3"/>
    <path d="M 262.229753 133.091878 
L 168.397687 132.831579 
" clip-path="url(#p2132ff16f1)" style="fill: none; stroke: #d3d3d3"/>
    <path d="M 262.229753 133.091878 
L 188.286155 149.682195 
" clip-path="url(#p2132ff16f1)" style="fill: none; stroke: #d3d3d3"/>
    <path d="M 262.229753 133.091878 
L 235.211078 149.258863 
" clip-path="url(#p2132ff16f1)" style="fill: none; stroke: #d3d3d3"/>
    <path d="M 262.229753 133.091878 
L 251.859332 211.666237 
" clip-path="url(#p2132ff16f1)" style="fill: none; stroke: #d3d3d3"/>
    <path d="M 339.329694 190.266576 
L 343.308773 262.104494 
" clip-path="url(#p2132ff16f1)" style="fill: none; stroke: #d3d3d3"/>
    <path d="M 454.992129 194.532006 
L 448.309076 163.095081 
" clip-path="url(#p2132ff16f1)" style="fill: none; stroke: #d3d3d3"/>
    <path d="M 454.992129 194.532006 
L 334.136154 189.362252 
" clip-path="url(#p2132ff16f1)" style="fill: none; stroke: #d3d3d3"/>
    <path d="M 454.992129 194.532006 
L 320.588262 206.204767 
" clip-path="url(#p2132ff16f1)" style="fill: none; stroke: #d3d3d3"/>
    <path d="M 454.992129 194.532006 
L 371.246052 172.793104 
" clip-path="url(#p2132ff16f1)" style="fill: none; stroke: #d3d3d3"/>
    <path d="M 454.992129 194.532006 
L 427.65117 133.154609 
" clip-path="url(#p2132ff16f1)" style="fill: none; stroke: #d3d3d3"/>
    <path d="M 454.992129 194.532006 
L 362.874141 152.492252 
" clip-path="url(#p2132ff16f1)" style="fill: none; stroke: #d3d3d3"/>
    <path d="M 454.992129 194.532006 
L 382.370069 201.320495 
" clip-path="url(#p2132ff16f1)" style="fill: none; stroke: #d3d3d3"/>
    <path d="M 320.588262 206.204767 
L 292.062293 231.077997 
" clip-path="url(#p2132ff16f1)" style="fill: none; stroke: #d3d3d3"/>
    <path d="M 320.588262 206.204767 
L 209.33333 185.063547 
" clip-path="url(#p2132ff16f1)" style="fill: none; stroke: #d3d3d3"/>
    <path d="M 320.588262 206.204767 
L 267.465652 173.252557 
" clip-path="url(#p2132ff16f1)" style="fill: none; stroke: #d3d3d3"/>
    <path d="M 320.588262 206.204767 
L 376.221001 226.356448 
" clip-path="url(#p2132ff16f1)" style="fill: none; stroke: #d3d3d3"/>
    <path d="M 320.588262 206.204767 
L 205.78464 224.196325 
" clip-path="url(#p2132ff16f1)" style="fill: none; stroke: #d3d3d3"/>
    <path d="M 320.588262 206.204767 
L 448.309076 163.095081 
" clip-path="url(#p2132ff16f1)" style="fill: none; stroke: #d3d3d3"/>
    <path d="M 320.588262 206.204767 
L 334.136154 189.362252 
" clip-path="url(#p2132ff16f1)" style="fill: none; stroke: #d3d3d3"/>
    <path d="M 320.588262 206.204767 
L 427.65117 133.154609 
" clip-path="url(#p2132ff16f1)" style="fill: none; stroke: #d3d3d3"/>
    <path d="M 320.588262 206.204767 
L 362.874141 152.492252 
" clip-path="url(#p2132ff16f1)" style="fill: none; stroke: #d3d3d3"/>
    <path d="M 320.588262 206.204767 
L 382.370069 201.320495 
" clip-path="url(#p2132ff16f1)" style="fill: none; stroke: #d3d3d3"/>
    <path d="M 320.588262 206.204767 
L 301.837928 146.408152 
" clip-path="url(#p2132ff16f1)" style="fill: none; stroke: #d3d3d3"/>
    <path d="M 320.588262 206.204767 
L 371.246052 172.793104 
" clip-path="url(#p2132ff16f1)" style="fill: none; stroke: #d3d3d3"/>
    <path d="M 320.588262 206.204767 
L 333.047993 261.007194 
" clip-path="url(#p2132ff16f1)" style="fill: none; stroke: #d3d3d3"/>
    <path d="M 320.588262 206.204767 
L 251.859332 211.666237 
" clip-path="url(#p2132ff16f1)" style="fill: none; stroke: #d3d3d3"/>
    <path d="M 267.465652 173.252557 
L 209.33333 185.063547 
" clip-path="url(#p2132ff16f1)" style="fill: none; stroke: #d3d3d3"/>
    <path d="M 267.465652 173.252557 
L 205.78464 224.196325 
" clip-path="url(#p2132ff16f1)" style="fill: none; stroke: #d3d3d3"/>
    <path d="M 267.465652 173.252557 
L 251.859332 211.666237 
" clip-path="url(#p2132ff16f1)" style="fill: none; stroke: #d3d3d3"/>
    <path d="M 149.82526 174.172141 
L 143.410692 247.006457 
" clip-path="url(#p2132ff16f1)" style="fill: none; stroke: #d3d3d3"/>
    <path d="M 149.82526 174.172141 
L 161.295707 202.548071 
" clip-path="url(#p2132ff16f1)" style="fill: none; stroke: #d3d3d3"/>
    <path d="M 149.82526 174.172141 
L 124.404987 225.919742 
" clip-path="url(#p2132ff16f1)" style="fill: none; stroke: #d3d3d3"/>
    <path d="M 149.82526 174.172141 
L 158.613526 228.325094 
" clip-path="url(#p2132ff16f1)" style="fill: none; stroke: #d3d3d3"/>
    <path d="M 149.82526 174.172141 
L 122.16798 205.360071 
" clip-path="url(#p2132ff16f1)" style="fill: none; stroke: #d3d3d3"/>
    <path d="M 149.82526 174.172141 
L 127.648972 185.305934 
" clip-path="url(#p2132ff16f1)" style="fill: none; stroke: #d3d3d3"/>
    <path d="M 149.82526 174.172141 
L 205.78464 224.196325 
" clip-path="url(#p2132ff16f1)" style="fill: none; stroke: #d3d3d3"/>
    <path d="M 149.82526 174.172141 
L 251.859332 211.666237 
" clip-path="url(#p2132ff16f1)" style="fill: none; stroke: #d3d3d3"/>
    <path d="M 340.497102 282.953638 
L 251.859332 211.666237 
" clip-path="url(#p2132ff16f1)" style="fill: none; stroke: #d3d3d3"/>
    <path d="M 340.497102 282.953638 
L 261.937282 272.05616 
" clip-path="url(#p2132ff16f1)" style="fill: none; stroke: #d3d3d3"/>
    <path d="M 340.497102 282.953638 
L 321.862904 358.74819 
" clip-path="url(#p2132ff16f1)" style="fill: none; stroke: #d3d3d3"/>
    <path d="M 340.497102 282.953638 
L 312.621158 259.973721 
" clip-path="url(#p2132ff16f1)" style="fill: none; stroke: #d3d3d3"/>
    <path d="M 340.497102 282.953638 
L 231.955716 302.493924 
" clip-path="url(#p2132ff16f1)" style="fill: none; stroke: #d3d3d3"/>
    <path d="M 340.497102 282.953638 
L 315.021287 292.829817 
" clip-path="url(#p2132ff16f1)" style="fill: none; stroke: #d3d3d3"/>
    <path d="M 340.497102 282.953638 
L 263.72257 314.098796 
" clip-path="url(#p2132ff16f1)" style="fill: none; stroke: #d3d3d3"/>
    <path d="M 340.497102 282.953638 
L 278.626793 306.516409 
" clip-path="url(#p2132ff16f1)" style="fill: none; stroke: #d3d3d3"/>
    <path d="M 161.295707 202.548071 
L 143.410692 247.006457 
" clip-path="url(#p2132ff16f1)" style="fill: none; stroke: #d3d3d3"/>
    <path d="M 161.295707 202.548071 
L 124.404987 225.919742 
" clip-path="url(#p2132ff16f1)" style="fill: none; stroke: #d3d3d3"/>
    <path d="M 161.295707 202.548071 
L 158.613526 228.325094 
" clip-path="url(#p2132ff16f1)" style="fill: none; stroke: #d3d3d3"/>
    <path d="M 161.295707 202.548071 
L 122.16798 205.360071 
" clip-path="url(#p2132ff16f1)" style="fill: none; stroke: #d3d3d3"/>
    <path d="M 161.295707 202.548071 
L 127.648972 185.305934 
" clip-path="url(#p2132ff16f1)" style="fill: none; stroke: #d3d3d3"/>
    <path d="M 161.295707 202.548071 
L 205.78464 224.196325 
" clip-path="url(#p2132ff16f1)" style="fill: none; stroke: #d3d3d3"/>
    <path d="M 161.295707 202.548071 
L 251.859332 211.666237 
" clip-path="url(#p2132ff16f1)" style="fill: none; stroke: #d3d3d3"/>
    <path d="M 448.309076 163.095081 
L 334.136154 189.362252 
" clip-path="url(#p2132ff16f1)" style="fill: none; stroke: #d3d3d3"/>
    <path d="M 448.309076 163.095081 
L 371.246052 172.793104 
" clip-path="url(#p2132ff16f1)" style="fill: none; stroke: #d3d3d3"/>
    <path d="M 448.309076 163.095081 
L 427.65117 133.154609 
" clip-path="url(#p2132ff16f1)" style="fill: none; stroke: #d3d3d3"/>
    <path d="M 448.309076 163.095081 
L 362.874141 152.492252 
" clip-path="url(#p2132ff16f1)" style="fill: none; stroke: #d3d3d3"/>
    <path d="M 448.309076 163.095081 
L 382.370069 201.320495 
" clip-path="url(#p2132ff16f1)" style="fill: none; stroke: #d3d3d3"/>
    <path d="M 377.244179 242.196755 
L 333.047993 261.007194 
" clip-path="url(#p2132ff16f1)" style="fill: none; stroke: #d3d3d3"/>
    <path d="M 377.244179 242.196755 
L 251.859332 211.666237 
" clip-path="url(#p2132ff16f1)" style="fill: none; stroke: #d3d3d3"/>
    <path d="M 281.492761 114.047767 
L 315.694013 122.493897 
" clip-path="url(#p2132ff16f1)" style="fill: none; stroke: #d3d3d3"/>
    <path d="M 281.492761 114.047767 
L 251.859332 211.666237 
" clip-path="url(#p2132ff16f1)" style="fill: none; stroke: #d3d3d3"/>
    <path d="M 191.009447 111.58701 
L 153.365441 37.487603 
" clip-path="url(#p2132ff16f1)" style="fill: none; stroke: #d3d3d3"/>
    <path d="M 191.009447 111.58701 
L 143.724836 147.975721 
" clip-path="url(#p2132ff16f1)" style="fill: none; stroke: #d3d3d3"/>
    <path d="M 191.009447 111.58701 
L 255.861883 109.62701 
" clip-path="url(#p2132ff16f1)" style="fill: none; stroke: #d3d3d3"/>
    <path d="M 191.009447 111.58701 
L 209.882878 130.007601 
" clip-path="url(#p2132ff16f1)" style="fill: none; stroke: #d3d3d3"/>
    <path d="M 191.009447 111.58701 
L 228.470855 108.472582 
" clip-path="url(#p2132ff16f1)" style="fill: none; stroke: #d3d3d3"/>
    <path d="M 191.009447 111.58701 
L 168.397687 132.831579 
" clip-path="url(#p2132ff16f1)" style="fill: none; stroke: #d3d3d3"/>
    <path d="M 191.009447 111.58701 
L 188.286155 149.682195 
" clip-path="url(#p2132ff16f1)" style="fill: none; stroke: #d3d3d3"/>
    <path d="M 191.009447 111.58701 
L 235.211078 149.258863 
" clip-path="url(#p2132ff16f1)" style="fill: none; stroke: #d3d3d3"/>
    <path d="M 191.009447 111.58701 
L 251.859332 211.666237 
" clip-path="url(#p2132ff16f1)" style="fill: none; stroke: #d3d3d3"/>
    <path d="M 382.370069 201.320495 
L 333.047993 261.007194 
" clip-path="url(#p2132ff16f1)" style="fill: none; stroke: #d3d3d3"/>
    <path d="M 382.370069 201.320495 
L 334.136154 189.362252 
" clip-path="url(#p2132ff16f1)" style="fill: none; stroke: #d3d3d3"/>
    <path d="M 382.370069 201.320495 
L 371.246052 172.793104 
" clip-path="url(#p2132ff16f1)" style="fill: none; stroke: #d3d3d3"/>
    <path d="M 382.370069 201.320495 
L 427.65117 133.154609 
" clip-path="url(#p2132ff16f1)" style="fill: none; stroke: #d3d3d3"/>
    <path d="M 382.370069 201.320495 
L 325.217591 160.574158 
" clip-path="url(#p2132ff16f1)" style="fill: none; stroke: #d3d3d3"/>
    <path d="M 382.370069 201.320495 
L 362.874141 152.492252 
" clip-path="url(#p2132ff16f1)" style="fill: none; stroke: #d3d3d3"/>
    <path d="M 382.370069 201.320495 
L 251.859332 211.666237 
" clip-path="url(#p2132ff16f1)" style="fill: none; stroke: #d3d3d3"/>
    <path d="M 177.840221 286.194588 
L 189.598081 267.652085 
" clip-path="url(#p2132ff16f1)" style="fill: none; stroke: #d3d3d3"/>
    <path d="M 177.840221 286.194588 
L 251.859332 211.666237 
" clip-path="url(#p2132ff16f1)" style="fill: none; stroke: #d3d3d3"/>
    <path d="M 177.840221 286.194588 
L 207.806834 309.375394 
" clip-path="url(#p2132ff16f1)" style="fill: none; stroke: #d3d3d3"/>
    <path d="M 177.840221 286.194588 
L 261.937282 272.05616 
" clip-path="url(#p2132ff16f1)" style="fill: none; stroke: #d3d3d3"/>
    <path d="M 177.840221 286.194588 
L 182.633245 304.593851 
" clip-path="url(#p2132ff16f1)" style="fill: none; stroke: #d3d3d3"/>
    <path d="M 177.840221 286.194588 
L 222.253431 267.354707 
" clip-path="url(#p2132ff16f1)" style="fill: none; stroke: #d3d3d3"/>
    <path d="M 177.840221 286.194588 
L 263.72257 314.098796 
" clip-path="url(#p2132ff16f1)" style="fill: none; stroke: #d3d3d3"/>
    <path d="M 177.840221 286.194588 
L 278.626793 306.516409 
" clip-path="url(#p2132ff16f1)" style="fill: none; stroke: #d3d3d3"/>
    <path d="M 235.211078 149.258863 
L 255.861883 109.62701 
" clip-path="url(#p2132ff16f1)" style="fill: none; stroke: #d3d3d3"/>
    <path d="M 235.211078 149.258863 
L 209.882878 130.007601 
" clip-path="url(#p2132ff16f1)" style="fill: none; stroke: #d3d3d3"/>
    <path d="M 235.211078 149.258863 
L 228.470855 108.472582 
" clip-path="url(#p2132ff16f1)" style="fill: none; stroke: #d3d3d3"/>
    <path d="M 235.211078 149.258863 
L 168.397687 132.831579 
" clip-path="url(#p2132ff16f1)" style="fill: none; stroke: #d3d3d3"/>
    <path d="M 235.211078 149.258863 
L 188.286155 149.682195 
" clip-path="url(#p2132ff16f1)" style="fill: none; stroke: #d3d3d3"/>
    <path d="M 235.211078 149.258863 
L 251.859332 211.666237 
" clip-path="url(#p2132ff16f1)" style="fill: none; stroke: #d3d3d3"/>
    <path d="M 228.470855 108.472582 
L 255.861883 109.62701 
" clip-path="url(#p2132ff16f1)" style="fill: none; stroke: #d3d3d3"/>
    <path d="M 228.470855 108.472582 
L 209.882878 130.007601 
" clip-path="url(#p2132ff16f1)" style="fill: none; stroke: #d3d3d3"/>
    <path d="M 228.470855 108.472582 
L 168.397687 132.831579 
" clip-path="url(#p2132ff16f1)" style="fill: none; stroke: #d3d3d3"/>
    <path d="M 228.470855 108.472582 
L 188.286155 149.682195 
" clip-path="url(#p2132ff16f1)" style="fill: none; stroke: #d3d3d3"/>
    <path d="M 228.470855 108.472582 
L 251.859332 211.666237 
" clip-path="url(#p2132ff16f1)" style="fill: none; stroke: #d3d3d3"/>
    <path d="M 333.047993 261.007194 
L 334.136154 189.362252 
" clip-path="url(#p2132ff16f1)" style="fill: none; stroke: #d3d3d3"/>
    <path d="M 333.047993 261.007194 
L 292.062293 231.077997 
" clip-path="url(#p2132ff16f1)" style="fill: none; stroke: #d3d3d3"/>
    <path d="M 333.047993 261.007194 
L 205.78464 224.196325 
" clip-path="url(#p2132ff16f1)" style="fill: none; stroke: #d3d3d3"/>
    <path d="M 333.047993 261.007194 
L 376.221001 226.356448 
" clip-path="url(#p2132ff16f1)" style="fill: none; stroke: #d3d3d3"/>
    <path d="M 333.047993 261.007194 
L 281.470125 348.935196 
" clip-path="url(#p2132ff16f1)" style="fill: none; stroke: #d3d3d3"/>
    <path d="M 333.047993 261.007194 
L 460.264463 285.552787 
" clip-path="url(#p2132ff16f1)" style="fill: none; stroke: #d3d3d3"/>
    <path d="M 333.047993 261.007194 
L 438.383762 318.55937 
" clip-path="url(#p2132ff16f1)" style="fill: none; stroke: #d3d3d3"/>
    <path d="M 333.047993 261.007194 
L 263.72257 314.098796 
" clip-path="url(#p2132ff16f1)" style="fill: none; stroke: #d3d3d3"/>
    <path d="M 333.047993 261.007194 
L 278.626793 306.516409 
" clip-path="url(#p2132ff16f1)" style="fill: none; stroke: #d3d3d3"/>
    <path d="M 333.047993 261.007194 
L 360.330379 209.790703 
" clip-path="url(#p2132ff16f1)" style="fill: none; stroke: #d3d3d3"/>
    <path d="M 333.047993 261.007194 
L 251.859332 211.666237 
" clip-path="url(#p2132ff16f1)" style="fill: none; stroke: #d3d3d3"/>
    <path d="M 209.882878 130.007601 
L 143.724836 147.975721 
" clip-path="url(#p2132ff16f1)" style="fill: none; stroke: #d3d3d3"/>
    <path d="M 209.882878 130.007601 
L 255.861883 109.62701 
" clip-path="url(#p2132ff16f1)" style="fill: none; stroke: #d3d3d3"/>
    <path d="M 209.882878 130.007601 
L 168.397687 132.831579 
" clip-path="url(#p2132ff16f1)" style="fill: none; stroke: #d3d3d3"/>
    <path d="M 209.882878 130.007601 
L 188.286155 149.682195 
" clip-path="url(#p2132ff16f1)" style="fill: none; stroke: #d3d3d3"/>
    <path d="M 209.882878 130.007601 
L 251.859332 211.666237 
" clip-path="url(#p2132ff16f1)" style="fill: none; stroke: #d3d3d3"/>
    <path d="M 325.217591 160.574158 
L 362.874141 152.492252 
" clip-path="url(#p2132ff16f1)" style="fill: none; stroke: #d3d3d3"/>
    <path d="M 325.217591 160.574158 
L 360.330379 209.790703 
" clip-path="url(#p2132ff16f1)" style="fill: none; stroke: #d3d3d3"/>
    <path d="M 325.217591 160.574158 
L 251.859332 211.666237 
" clip-path="url(#p2132ff16f1)" style="fill: none; stroke: #d3d3d3"/>
    <path d="M 127.648972 185.305934 
L 143.410692 247.006457 
" clip-path="url(#p2132ff16f1)" style="fill: none; stroke: #d3d3d3"/>
    <path d="M 127.648972 185.305934 
L 124.404987 225.919742 
" clip-path="url(#p2132ff16f1)" style="fill: none; stroke: #d3d3d3"/>
    <path d="M 127.648972 185.305934 
L 158.613526 228.325094 
" clip-path="url(#p2132ff16f1)" style="fill: none; stroke: #d3d3d3"/>
    <path d="M 127.648972 185.305934 
L 122.16798 205.360071 
" clip-path="url(#p2132ff16f1)" style="fill: none; stroke: #d3d3d3"/>
    <path d="M 127.648972 185.305934 
L 205.78464 224.196325 
" clip-path="url(#p2132ff16f1)" style="fill: none; stroke: #d3d3d3"/>
    <path d="M 127.648972 185.305934 
L 251.859332 211.666237 
" clip-path="url(#p2132ff16f1)" style="fill: none; stroke: #d3d3d3"/>
    <path d="M 222.253431 267.354707 
L 189.598081 267.652085 
" clip-path="url(#p2132ff16f1)" style="fill: none; stroke: #d3d3d3"/>
    <path d="M 222.253431 267.354707 
L 251.859332 211.666237 
" clip-path="url(#p2132ff16f1)" style="fill: none; stroke: #d3d3d3"/>
    <path d="M 222.253431 267.354707 
L 207.806834 309.375394 
" clip-path="url(#p2132ff16f1)" style="fill: none; stroke: #d3d3d3"/>
    <path d="M 222.253431 267.354707 
L 261.937282 272.05616 
" clip-path="url(#p2132ff16f1)" style="fill: none; stroke: #d3d3d3"/>
    <path d="M 222.253431 267.354707 
L 263.72257 314.098796 
" clip-path="url(#p2132ff16f1)" style="fill: none; stroke: #d3d3d3"/>
    <path d="M 222.253431 267.354707 
L 278.626793 306.516409 
" clip-path="url(#p2132ff16f1)" style="fill: none; stroke: #d3d3d3"/>
    <path d="M 222.253431 267.354707 
L 182.633245 304.593851 
" clip-path="url(#p2132ff16f1)" style="fill: none; stroke: #d3d3d3"/>
    <path d="M 222.253431 267.354707 
L 312.621158 259.973721 
" clip-path="url(#p2132ff16f1)" style="fill: none; stroke: #d3d3d3"/>
    <path d="M 124.404987 225.919742 
L 143.410692 247.006457 
" clip-path="url(#p2132ff16f1)" style="fill: none; stroke: #d3d3d3"/>
    <path d="M 124.404987 225.919742 
L 158.613526 228.325094 
" clip-path="url(#p2132ff16f1)" style="fill: none; stroke: #d3d3d3"/>
    <path d="M 124.404987 225.919742 
L 122.16798 205.360071 
" clip-path="url(#p2132ff16f1)" style="fill: none; stroke: #d3d3d3"/>
    <path d="M 124.404987 225.919742 
L 205.78464 224.196325 
" clip-path="url(#p2132ff16f1)" style="fill: none; stroke: #d3d3d3"/>
    <path d="M 124.404987 225.919742 
L 251.859332 211.666237 
" clip-path="url(#p2132ff16f1)" style="fill: none; stroke: #d3d3d3"/>
    <path d="M 143.724836 147.975721 
L 251.859332 211.666237 
" clip-path="url(#p2132ff16f1)" style="fill: none; stroke: #d3d3d3"/>
    <path d="M 362.874141 152.492252 
L 334.136154 189.362252 
" clip-path="url(#p2132ff16f1)" style="fill: none; stroke: #d3d3d3"/>
    <path d="M 362.874141 152.492252 
L 371.246052 172.793104 
" clip-path="url(#p2132ff16f1)" style="fill: none; stroke: #d3d3d3"/>
    <path d="M 362.874141 152.492252 
L 427.65117 133.154609 
" clip-path="url(#p2132ff16f1)" style="fill: none; stroke: #d3d3d3"/>
    <path d="M 362.874141 152.492252 
L 251.859332 211.666237 
" clip-path="url(#p2132ff16f1)" style="fill: none; stroke: #d3d3d3"/>
    <path d="M 163.957419 372.07545 
L 242.679592 392.441022 
" clip-path="url(#p2132ff16f1)" style="fill: none; stroke: #d3d3d3"/>
    <path d="M 43.735537 201.505551 
L 205.78464 224.196325 
" clip-path="url(#p2132ff16f1)" style="fill: none; stroke: #d3d3d3"/>
    <path d="M 168.397687 132.831579 
L 255.861883 109.62701 
" clip-path="url(#p2132ff16f1)" style="fill: none; stroke: #d3d3d3"/>
    <path d="M 168.397687 132.831579 
L 188.286155 149.682195 
" clip-path="url(#p2132ff16f1)" style="fill: none; stroke: #d3d3d3"/>
    <path d="M 168.397687 132.831579 
L 251.859332 211.666237 
" clip-path="url(#p2132ff16f1)" style="fill: none; stroke: #d3d3d3"/>
    <path d="M 199.026861 224.425179 
L 171.867353 293.187682 
" clip-path="url(#p2132ff16f1)" style="fill: none; stroke: #d3d3d3"/>
    <path d="M 199.026861 224.425179 
L 262.391311 277.010096 
" clip-path="url(#p2132ff16f1)" style="fill: none; stroke: #d3d3d3"/>
    <path d="M 159.529381 285.056963 
L 207.806834 309.375394 
" clip-path="url(#p2132ff16f1)" style="fill: none; stroke: #d3d3d3"/>
    <path d="M 159.529381 285.056963 
L 251.859332 211.666237 
" clip-path="url(#p2132ff16f1)" style="fill: none; stroke: #d3d3d3"/>
    <path d="M 159.529381 285.056963 
L 263.72257 314.098796 
" clip-path="url(#p2132ff16f1)" style="fill: none; stroke: #d3d3d3"/>
    <path d="M 159.529381 285.056963 
L 278.626793 306.516409 
" clip-path="url(#p2132ff16f1)" style="fill: none; stroke: #d3d3d3"/>
    <path d="M 59.94999 257.698059 
L 209.33333 185.063547 
" clip-path="url(#p2132ff16f1)" style="fill: none; stroke: #d3d3d3"/>
    <path d="M 59.94999 257.698059 
L 205.78464 224.196325 
" clip-path="url(#p2132ff16f1)" style="fill: none; stroke: #d3d3d3"/>
    <path d="M 427.65117 133.154609 
L 334.136154 189.362252 
" clip-path="url(#p2132ff16f1)" style="fill: none; stroke: #d3d3d3"/>
    <path d="M 427.65117 133.154609 
L 371.246052 172.793104 
" clip-path="url(#p2132ff16f1)" style="fill: none; stroke: #d3d3d3"/>
    <path d="M 188.286155 149.682195 
L 255.861883 109.62701 
" clip-path="url(#p2132ff16f1)" style="fill: none; stroke: #d3d3d3"/>
    <path d="M 188.286155 149.682195 
L 251.859332 211.666237 
" clip-path="url(#p2132ff16f1)" style="fill: none; stroke: #d3d3d3"/>
    <path d="M 158.613526 228.325094 
L 143.410692 247.006457 
" clip-path="url(#p2132ff16f1)" style="fill: none; stroke: #d3d3d3"/>
    <path d="M 158.613526 228.325094 
L 122.16798 205.360071 
" clip-path="url(#p2132ff16f1)" style="fill: none; stroke: #d3d3d3"/>
    <path d="M 158.613526 228.325094 
L 205.78464 224.196325 
" clip-path="url(#p2132ff16f1)" style="fill: none; stroke: #d3d3d3"/>
    <path d="M 158.613526 228.325094 
L 251.859332 211.666237 
" clip-path="url(#p2132ff16f1)" style="fill: none; stroke: #d3d3d3"/>
    <path d="M 278.626793 306.516409 
L 189.598081 267.652085 
" clip-path="url(#p2132ff16f1)" style="fill: none; stroke: #d3d3d3"/>
    <path d="M 278.626793 306.516409 
L 207.806834 309.375394 
" clip-path="url(#p2132ff16f1)" style="fill: none; stroke: #d3d3d3"/>
    <path d="M 278.626793 306.516409 
L 261.937282 272.05616 
" clip-path="url(#p2132ff16f1)" style="fill: none; stroke: #d3d3d3"/>
    <path d="M 278.626793 306.516409 
L 182.633245 304.593851 
" clip-path="url(#p2132ff16f1)" style="fill: none; stroke: #d3d3d3"/>
    <path d="M 278.626793 306.516409 
L 285.981984 258.876221 
" clip-path="url(#p2132ff16f1)" style="fill: none; stroke: #d3d3d3"/>
    <path d="M 278.626793 306.516409 
L 360.289884 375.383906 
" clip-path="url(#p2132ff16f1)" style="fill: none; stroke: #d3d3d3"/>
    <path d="M 278.626793 306.516409 
L 321.862904 358.74819 
" clip-path="url(#p2132ff16f1)" style="fill: none; stroke: #d3d3d3"/>
    <path d="M 278.626793 306.516409 
L 295.988382 394.512397 
" clip-path="url(#p2132ff16f1)" style="fill: none; stroke: #d3d3d3"/>
    <path d="M 278.626793 306.516409 
L 312.621158 259.973721 
" clip-path="url(#p2132ff16f1)" style="fill: none; stroke: #d3d3d3"/>
    <path d="M 278.626793 306.516409 
L 231.955716 302.493924 
" clip-path="url(#p2132ff16f1)" style="fill: none; stroke: #d3d3d3"/>
    <path d="M 278.626793 306.516409 
L 315.021287 292.829817 
" clip-path="url(#p2132ff16f1)" style="fill: none; stroke: #d3d3d3"/>
    <path d="M 278.626793 306.516409 
L 263.72257 314.098796 
" clip-path="url(#p2132ff16f1)" style="fill: none; stroke: #d3d3d3"/>
    <path d="M 278.626793 306.516409 
L 251.859332 211.666237 
" clip-path="url(#p2132ff16f1)" style="fill: none; stroke: #d3d3d3"/>
    <path d="M 360.330379 209.790703 
L 251.859332 211.666237 
" clip-path="url(#p2132ff16f1)" style="fill: none; stroke: #d3d3d3"/>
    <path d="M 321.862904 358.74819 
L 231.955716 302.493924 
" clip-path="url(#p2132ff16f1)" style="fill: none; stroke: #d3d3d3"/>
    <path d="M 321.862904 358.74819 
L 315.021287 292.829817 
" clip-path="url(#p2132ff16f1)" style="fill: none; stroke: #d3d3d3"/>
    <path d="M 321.862904 358.74819 
L 261.937282 272.05616 
" clip-path="url(#p2132ff16f1)" style="fill: none; stroke: #d3d3d3"/>
    <path d="M 321.862904 358.74819 
L 360.289884 375.383906 
" clip-path="url(#p2132ff16f1)" style="fill: none; stroke: #d3d3d3"/>
    <path d="M 321.862904 358.74819 
L 295.988382 394.512397 
" clip-path="url(#p2132ff16f1)" style="fill: none; stroke: #d3d3d3"/>
    <path d="M 321.862904 358.74819 
L 263.72257 314.098796 
" clip-path="url(#p2132ff16f1)" style="fill: none; stroke: #d3d3d3"/>
    <path d="M 334.136154 189.362252 
L 251.859332 211.666237 
" clip-path="url(#p2132ff16f1)" style="fill: none; stroke: #d3d3d3"/>
    <path d="M 334.136154 189.362252 
L 205.78464 224.196325 
" clip-path="url(#p2132ff16f1)" style="fill: none; stroke: #d3d3d3"/>
    <path d="M 334.136154 189.362252 
L 371.246052 172.793104 
" clip-path="url(#p2132ff16f1)" style="fill: none; stroke: #d3d3d3"/>
    <path d="M 194.611605 383.941656 
L 242.679592 392.441022 
" clip-path="url(#p2132ff16f1)" style="fill: none; stroke: #d3d3d3"/>
    <path d="M 285.981984 258.876221 
L 251.859332 211.666237 
" clip-path="url(#p2132ff16f1)" style="fill: none; stroke: #d3d3d3"/>
    <path d="M 285.981984 258.876221 
L 312.621158 259.973721 
" clip-path="url(#p2132ff16f1)" style="fill: none; stroke: #d3d3d3"/>
    <path d="M 285.981984 258.876221 
L 263.72257 314.098796 
" clip-path="url(#p2132ff16f1)" style="fill: none; stroke: #d3d3d3"/>
    <path d="M 231.955716 302.493924 
L 251.859332 211.666237 
" clip-path="url(#p2132ff16f1)" style="fill: none; stroke: #d3d3d3"/>
    <path d="M 231.955716 302.493924 
L 261.937282 272.05616 
" clip-path="url(#p2132ff16f1)" style="fill: none; stroke: #d3d3d3"/>
    <path d="M 231.955716 302.493924 
L 312.621158 259.973721 
" clip-path="url(#p2132ff16f1)" style="fill: none; stroke: #d3d3d3"/>
    <path d="M 231.955716 302.493924 
L 315.021287 292.829817 
" clip-path="url(#p2132ff16f1)" style="fill: none; stroke: #d3d3d3"/>
    <path d="M 231.955716 302.493924 
L 263.72257 314.098796 
" clip-path="url(#p2132ff16f1)" style="fill: none; stroke: #d3d3d3"/>
    <path d="M 171.867353 293.187682 
L 262.391311 277.010096 
" clip-path="url(#p2132ff16f1)" style="fill: none; stroke: #d3d3d3"/>
    <path d="M 205.78464 224.196325 
L 292.062293 231.077997 
" clip-path="url(#p2132ff16f1)" style="fill: none; stroke: #d3d3d3"/>
    <path d="M 205.78464 224.196325 
L 143.410692 247.006457 
" clip-path="url(#p2132ff16f1)" style="fill: none; stroke: #d3d3d3"/>
    <path d="M 205.78464 224.196325 
L 122.16798 205.360071 
" clip-path="url(#p2132ff16f1)" style="fill: none; stroke: #d3d3d3"/>
    <path d="M 205.78464 224.196325 
L 251.859332 211.666237 
" clip-path="url(#p2132ff16f1)" style="fill: none; stroke: #d3d3d3"/>
    <path d="M 205.78464 224.196325 
L 209.33333 185.063547 
" clip-path="url(#p2132ff16f1)" style="fill: none; stroke: #d3d3d3"/>
    <path d="M 122.16798 205.360071 
L 143.410692 247.006457 
" clip-path="url(#p2132ff16f1)" style="fill: none; stroke: #d3d3d3"/>
    <path d="M 122.16798 205.360071 
L 251.859332 211.666237 
" clip-path="url(#p2132ff16f1)" style="fill: none; stroke: #d3d3d3"/>
    <path d="M 295.988382 394.512397 
L 360.289884 375.383906 
" clip-path="url(#p2132ff16f1)" style="fill: none; stroke: #d3d3d3"/>
    <path d="M 295.988382 394.512397 
L 263.72257 314.098796 
" clip-path="url(#p2132ff16f1)" style="fill: none; stroke: #d3d3d3"/>
    <path d="M 371.246052 172.793104 
L 301.837928 146.408152 
" clip-path="url(#p2132ff16f1)" style="fill: none; stroke: #d3d3d3"/>
    <path d="M 371.246052 172.793104 
L 251.859332 211.666237 
" clip-path="url(#p2132ff16f1)" style="fill: none; stroke: #d3d3d3"/>
    <path d="M 301.837928 146.408152 
L 251.859332 211.666237 
" clip-path="url(#p2132ff16f1)" style="fill: none; stroke: #d3d3d3"/>
    <path d="M 117.358826 248.563118 
L 251.859332 211.666237 
" clip-path="url(#p2132ff16f1)" style="fill: none; stroke: #d3d3d3"/>
    <path d="M 251.859332 211.666237 
L 143.410692 247.006457 
" clip-path="url(#p2132ff16f1)" style="fill: none; stroke: #d3d3d3"/>
    <path d="M 251.859332 211.666237 
L 292.062293 231.077997 
" clip-path="url(#p2132ff16f1)" style="fill: none; stroke: #d3d3d3"/>
    <path d="M 251.859332 211.666237 
L 376.221001 226.356448 
" clip-path="url(#p2132ff16f1)" style="fill: none; stroke: #d3d3d3"/>
    <path d="M 251.859332 211.666237 
L 209.33333 185.063547 
" clip-path="url(#p2132ff16f1)" style="fill: none; stroke: #d3d3d3"/>
    <path d="M 251.859332 211.666237 
L 189.598081 267.652085 
" clip-path="url(#p2132ff16f1)" style="fill: none; stroke: #d3d3d3"/>
    <path d="M 251.859332 211.666237 
L 207.806834 309.375394 
" clip-path="url(#p2132ff16f1)" style="fill: none; stroke: #d3d3d3"/>
    <path d="M 251.859332 211.666237 
L 261.937282 272.05616 
" clip-path="url(#p2132ff16f1)" style="fill: none; stroke: #d3d3d3"/>
    <path d="M 251.859332 211.666237 
L 182.633245 304.593851 
" clip-path="url(#p2132ff16f1)" style="fill: none; stroke: #d3d3d3"/>
    <path d="M 251.859332 211.666237 
L 312.621158 259.973721 
" clip-path="url(#p2132ff16f1)" style="fill: none; stroke: #d3d3d3"/>
    <path d="M 251.859332 211.666237 
L 315.021287 292.829817 
" clip-path="url(#p2132ff16f1)" style="fill: none; stroke: #d3d3d3"/>
    <path d="M 251.859332 211.666237 
L 263.72257 314.098796 
" clip-path="url(#p2132ff16f1)" style="fill: none; stroke: #d3d3d3"/>
    <path d="M 251.859332 211.666237 
L 255.861883 109.62701 
" clip-path="url(#p2132ff16f1)" style="fill: none; stroke: #d3d3d3"/>
    <path d="M 251.859332 211.666237 
L 315.694013 122.493897 
" clip-path="url(#p2132ff16f1)" style="fill: none; stroke: #d3d3d3"/>
    <path d="M 182.633245 304.593851 
L 189.598081 267.652085 
" clip-path="url(#p2132ff16f1)" style="fill: none; stroke: #d3d3d3"/>
    <path d="M 182.633245 304.593851 
L 207.806834 309.375394 
" clip-path="url(#p2132ff16f1)" style="fill: none; stroke: #d3d3d3"/>
    <path d="M 182.633245 304.593851 
L 261.937282 272.05616 
" clip-path="url(#p2132ff16f1)" style="fill: none; stroke: #d3d3d3"/>
    <path d="M 182.633245 304.593851 
L 263.72257 314.098796 
" clip-path="url(#p2132ff16f1)" style="fill: none; stroke: #d3d3d3"/>
    <path d="M 263.72257 314.098796 
L 189.598081 267.652085 
" clip-path="url(#p2132ff16f1)" style="fill: none; stroke: #d3d3d3"/>
    <path d="M 263.72257 314.098796 
L 207.806834 309.375394 
" clip-path="url(#p2132ff16f1)" style="fill: none; stroke: #d3d3d3"/>
    <path d="M 263.72257 314.098796 
L 261.937282 272.05616 
" clip-path="url(#p2132ff16f1)" style="fill: none; stroke: #d3d3d3"/>
    <path d="M 263.72257 314.098796 
L 360.289884 375.383906 
" clip-path="url(#p2132ff16f1)" style="fill: none; stroke: #d3d3d3"/>
    <path d="M 263.72257 314.098796 
L 312.621158 259.973721 
" clip-path="url(#p2132ff16f1)" style="fill: none; stroke: #d3d3d3"/>
    <path d="M 263.72257 314.098796 
L 315.021287 292.829817 
" clip-path="url(#p2132ff16f1)" style="fill: none; stroke: #d3d3d3"/>
    <path d="M 207.806834 309.375394 
L 189.598081 267.652085 
" clip-path="url(#p2132ff16f1)" style="fill: none; stroke: #d3d3d3"/>
    <path d="M 207.806834 309.375394 
L 261.937282 272.05616 
" clip-path="url(#p2132ff16f1)" style="fill: none; stroke: #d3d3d3"/>
    <path d="M 312.621158 259.973721 
L 315.021287 292.829817 
" clip-path="url(#p2132ff16f1)" style="fill: none; stroke: #d3d3d3"/>
    <path d="M 315.021287 292.829817 
L 261.937282 272.05616 
" clip-path="url(#p2132ff16f1)" style="fill: none; stroke: #d3d3d3"/>
    <path d="M 189.598081 267.652085 
L 261.937282 272.05616 
" clip-path="url(#p2132ff16f1)" style="fill: none; stroke: #d3d3d3"/>
   </g>
   <g id="PathCollection_1">
    <defs>
     <path id="C0_0_aca8d064c6" d="M 0 5 
C 1.326016 5 2.597899 4.473168 3.535534 3.535534 
C 4.473168 2.597899 5 1.326016 5 -0 
C 5 -1.326016 4.473168 -2.597899 3.535534 -3.535534 
C 2.597899 -4.473168 1.326016 -5 0 -5 
C -1.326016 -5 -2.597899 -4.473168 -3.535534 -3.535534 
C -4.473168 -2.597899 -5 -1.326016 -5 0 
C -5 1.326016 -4.473168 2.597899 -3.535534 3.535534 
C -2.597899 4.473168 -1.326016 5 0 5 
z
"/>
    </defs>
    <g clip-path="url(#p2132ff16f1)">
     <use xlink:href="#C0_0_aca8d064c6" x="230.534122" y="232.355782" style="fill: #8000ff; stroke: #8000ff"/>
    </g>
    <g clip-path="url(#p2132ff16f1)">
     <use xlink:href="#C0_0_aca8d064c6" x="331.144869" y="303.348482" style="fill: #4e4dfc; stroke: #4e4dfc"/>
    </g>
    <g clip-path="url(#p2132ff16f1)">
     <use xlink:href="#C0_0_aca8d064c6" x="335.97035" y="137.43019" style="fill: #1996f3; stroke: #1996f3"/>
    </g>
    <g clip-path="url(#p2132ff16f1)">
     <use xlink:href="#C0_0_aca8d064c6" x="256.807812" y="291.157245" style="fill: #18cde4; stroke: #18cde4"/>
    </g>
    <g clip-path="url(#p2132ff16f1)">
     <use xlink:href="#C0_0_aca8d064c6" x="179.386334" y="181.439705" style="fill: #18cde4; stroke: #18cde4"/>
    </g>
    <g clip-path="url(#p2132ff16f1)">
     <use xlink:href="#C0_0_aca8d064c6" x="262.229753" y="133.091878" style="fill: #4e4dfc; stroke: #4e4dfc"/>
    </g>
    <g clip-path="url(#p2132ff16f1)">
     <use xlink:href="#C0_0_aca8d064c6" x="339.329694" y="190.266576" style="fill: #4df3ce; stroke: #4df3ce"/>
    </g>
    <g clip-path="url(#p2132ff16f1)">
     <use xlink:href="#C0_0_aca8d064c6" x="454.992129" y="194.532006" style="fill: #4e4dfc; stroke: #4e4dfc"/>
    </g>
    <g clip-path="url(#p2132ff16f1)">
     <use xlink:href="#C0_0_aca8d064c6" x="320.588262" y="206.204767" style="fill: #4df3ce; stroke: #4df3ce"/>
    </g>
    <g clip-path="url(#p2132ff16f1)">
     <use xlink:href="#C0_0_aca8d064c6" x="267.465652" y="173.252557" style="fill: #1996f3; stroke: #1996f3"/>
    </g>
    <g clip-path="url(#p2132ff16f1)">
     <use xlink:href="#C0_0_aca8d064c6" x="149.82526" y="174.172141" style="fill: #1996f3; stroke: #1996f3"/>
    </g>
    <g clip-path="url(#p2132ff16f1)">
     <use xlink:href="#C0_0_aca8d064c6" x="340.497102" y="282.953638" style="fill: #80ffb4; stroke: #80ffb4"/>
    </g>
    <g clip-path="url(#p2132ff16f1)">
     <use xlink:href="#C0_0_aca8d064c6" x="161.295707" y="202.548071" style="fill: #80ffb4; stroke: #80ffb4"/>
    </g>
    <g clip-path="url(#p2132ff16f1)">
     <use xlink:href="#C0_0_aca8d064c6" x="448.309076" y="163.095081" style="fill: #b2f396; stroke: #b2f396"/>
    </g>
    <g clip-path="url(#p2132ff16f1)">
     <use xlink:href="#C0_0_aca8d064c6" x="377.244179" y="242.196755" style="fill: #e6cd73; stroke: #e6cd73"/>
    </g>
    <g clip-path="url(#p2132ff16f1)">
     <use xlink:href="#C0_0_aca8d064c6" x="281.492761" y="114.047767" style="fill: #e6cd73; stroke: #e6cd73"/>
    </g>
    <g clip-path="url(#p2132ff16f1)">
     <use xlink:href="#C0_0_aca8d064c6" x="191.009447" y="111.58701" style="fill: #80ffb4; stroke: #80ffb4"/>
    </g>
    <g clip-path="url(#p2132ff16f1)">
     <use xlink:href="#C0_0_aca8d064c6" x="382.370069" y="201.320495" style="fill: #ff964f; stroke: #ff964f"/>
    </g>
    <g clip-path="url(#p2132ff16f1)">
     <use xlink:href="#C0_0_aca8d064c6" x="177.840221" y="286.194588" style="fill: #1996f3; stroke: #1996f3"/>
    </g>
    <g clip-path="url(#p2132ff16f1)">
     <use xlink:href="#C0_0_aca8d064c6" x="235.211078" y="149.258863" style="fill: #1996f3; stroke: #1996f3"/>
    </g>
    <g clip-path="url(#p2132ff16f1)">
     <use xlink:href="#C0_0_aca8d064c6" x="228.470855" y="108.472582" style="fill: #ff964f; stroke: #ff964f"/>
    </g>
    <g clip-path="url(#p2132ff16f1)">
     <use xlink:href="#C0_0_aca8d064c6" x="333.047993" y="261.007194" style="fill: #80ffb4; stroke: #80ffb4"/>
    </g>
    <g clip-path="url(#p2132ff16f1)">
     <use xlink:href="#C0_0_aca8d064c6" x="209.882878" y="130.007601" style="fill: #e6cd73; stroke: #e6cd73"/>
    </g>
    <g clip-path="url(#p2132ff16f1)">
     <use xlink:href="#C0_0_aca8d064c6" x="325.217591" y="160.574158" style="fill: #e6cd73; stroke: #e6cd73"/>
    </g>
    <g clip-path="url(#p2132ff16f1)">
     <use xlink:href="#C0_0_aca8d064c6" x="127.648972" y="185.305934" style="fill: #4e4dfc; stroke: #4e4dfc"/>
    </g>
    <g clip-path="url(#p2132ff16f1)">
     <use xlink:href="#C0_0_aca8d064c6" x="438.383762" y="318.55937" style="fill: #4e4dfc; stroke: #4e4dfc"/>
    </g>
    <g clip-path="url(#p2132ff16f1)">
     <use xlink:href="#C0_0_aca8d064c6" x="222.253431" y="267.354707" style="fill: #80ffb4; stroke: #80ffb4"/>
    </g>
    <g clip-path="url(#p2132ff16f1)">
     <use xlink:href="#C0_0_aca8d064c6" x="153.365441" y="37.487603" style="fill: #ff964f; stroke: #ff964f"/>
    </g>
    <g clip-path="url(#p2132ff16f1)">
     <use xlink:href="#C0_0_aca8d064c6" x="124.404987" y="225.919742" style="fill: #b2f396; stroke: #b2f396"/>
    </g>
    <g clip-path="url(#p2132ff16f1)">
     <use xlink:href="#C0_0_aca8d064c6" x="143.724836" y="147.975721" style="fill: #4e4dfc; stroke: #4e4dfc"/>
    </g>
    <g clip-path="url(#p2132ff16f1)">
     <use xlink:href="#C0_0_aca8d064c6" x="362.874141" y="152.492252" style="fill: #80ffb4; stroke: #80ffb4"/>
    </g>
    <g clip-path="url(#p2132ff16f1)">
     <use xlink:href="#C0_0_aca8d064c6" x="163.957419" y="372.07545" style="fill: #b2f396; stroke: #b2f396"/>
    </g>
    <g clip-path="url(#p2132ff16f1)">
     <use xlink:href="#C0_0_aca8d064c6" x="43.735537" y="201.505551" style="fill: #80ffb4; stroke: #80ffb4"/>
    </g>
    <g clip-path="url(#p2132ff16f1)">
     <use xlink:href="#C0_0_aca8d064c6" x="168.397687" y="132.831579" style="fill: #8000ff; stroke: #8000ff"/>
    </g>
    <g clip-path="url(#p2132ff16f1)">
     <use xlink:href="#C0_0_aca8d064c6" x="199.026861" y="224.425179" style="fill: #80ffb4; stroke: #80ffb4"/>
    </g>
    <g clip-path="url(#p2132ff16f1)">
     <use xlink:href="#C0_0_aca8d064c6" x="159.529381" y="285.056963" style="fill: #80ffb4; stroke: #80ffb4"/>
    </g>
    <g clip-path="url(#p2132ff16f1)">
     <use xlink:href="#C0_0_aca8d064c6" x="59.94999" y="257.698059" style="fill: #ff4d27; stroke: #ff4d27"/>
    </g>
    <g clip-path="url(#p2132ff16f1)">
     <use xlink:href="#C0_0_aca8d064c6" x="427.65117" y="133.154609" style="fill: #1996f3; stroke: #1996f3"/>
    </g>
    <g clip-path="url(#p2132ff16f1)">
     <use xlink:href="#C0_0_aca8d064c6" x="188.286155" y="149.682195" style="fill: #4df3ce; stroke: #4df3ce"/>
    </g>
    <g clip-path="url(#p2132ff16f1)">
     <use xlink:href="#C0_0_aca8d064c6" x="158.613526" y="228.325094" style="fill: #ff964f; stroke: #ff964f"/>
    </g>
    <g clip-path="url(#p2132ff16f1)">
     <use xlink:href="#C0_0_aca8d064c6" x="278.626793" y="306.516409" style="fill: #e6cd73; stroke: #e6cd73"/>
    </g>
    <g clip-path="url(#p2132ff16f1)">
     <use xlink:href="#C0_0_aca8d064c6" x="360.330379" y="209.790703" style="fill: #4e4dfc; stroke: #4e4dfc"/>
    </g>
    <g clip-path="url(#p2132ff16f1)">
     <use xlink:href="#C0_0_aca8d064c6" x="321.862904" y="358.74819" style="fill: #1996f3; stroke: #1996f3"/>
    </g>
    <g clip-path="url(#p2132ff16f1)">
     <use xlink:href="#C0_0_aca8d064c6" x="334.136154" y="189.362252" style="fill: #ff4d27; stroke: #ff4d27"/>
    </g>
    <g clip-path="url(#p2132ff16f1)">
     <use xlink:href="#C0_0_aca8d064c6" x="194.611605" y="383.941656" style="fill: #e6cd73; stroke: #e6cd73"/>
    </g>
    <g clip-path="url(#p2132ff16f1)">
     <use xlink:href="#C0_0_aca8d064c6" x="285.981984" y="258.876221" style="fill: #80ffb4; stroke: #80ffb4"/>
    </g>
    <g clip-path="url(#p2132ff16f1)">
     <use xlink:href="#C0_0_aca8d064c6" x="231.955716" y="302.493924" style="fill: #ff4d27; stroke: #ff4d27"/>
    </g>
    <g clip-path="url(#p2132ff16f1)">
     <use xlink:href="#C0_0_aca8d064c6" x="171.867353" y="293.187682" style="fill: #e6cd73; stroke: #e6cd73"/>
    </g>
    <g clip-path="url(#p2132ff16f1)">
     <use xlink:href="#C0_0_aca8d064c6" x="205.78464" y="224.196325" style="fill: #e6cd73; stroke: #e6cd73"/>
    </g>
    <g clip-path="url(#p2132ff16f1)">
     <use xlink:href="#C0_0_aca8d064c6" x="122.16798" y="205.360071" style="fill: #4df3ce; stroke: #4df3ce"/>
    </g>
    <g clip-path="url(#p2132ff16f1)">
     <use xlink:href="#C0_0_aca8d064c6" x="295.988382" y="394.512397" style="fill: #4df3ce; stroke: #4df3ce"/>
    </g>
    <g clip-path="url(#p2132ff16f1)">
     <use xlink:href="#C0_0_aca8d064c6" x="371.246052" y="172.793104" style="fill: #e6cd73; stroke: #e6cd73"/>
    </g>
    <g clip-path="url(#p2132ff16f1)">
     <use xlink:href="#C0_0_aca8d064c6" x="301.837928" y="146.408152" style="fill: #80ffb4; stroke: #80ffb4"/>
    </g>
    <g clip-path="url(#p2132ff16f1)">
     <use xlink:href="#C0_0_aca8d064c6" x="117.358826" y="248.563118" style="fill: #e6cd73; stroke: #e6cd73"/>
    </g>
    <g clip-path="url(#p2132ff16f1)">
     <use xlink:href="#C0_0_aca8d064c6" x="251.859332" y="211.666237" style="fill: #ff0000; stroke: #ff0000"/>
    </g>
    <g clip-path="url(#p2132ff16f1)">
     <use xlink:href="#C0_0_aca8d064c6" x="182.633245" y="304.593851" style="fill: #8000ff; stroke: #8000ff"/>
    </g>
    <g clip-path="url(#p2132ff16f1)">
     <use xlink:href="#C0_0_aca8d064c6" x="263.72257" y="314.098796" style="fill: #b2f396; stroke: #b2f396"/>
    </g>
    <g clip-path="url(#p2132ff16f1)">
     <use xlink:href="#C0_0_aca8d064c6" x="262.391311" y="277.010096" style="fill: #4e4dfc; stroke: #4e4dfc"/>
    </g>
    <g clip-path="url(#p2132ff16f1)">
     <use xlink:href="#C0_0_aca8d064c6" x="143.410692" y="247.006457" style="fill: #ff4d27; stroke: #ff4d27"/>
    </g>
    <g clip-path="url(#p2132ff16f1)">
     <use xlink:href="#C0_0_aca8d064c6" x="207.806834" y="309.375394" style="fill: #ff4d27; stroke: #ff4d27"/>
    </g>
    <g clip-path="url(#p2132ff16f1)">
     <use xlink:href="#C0_0_aca8d064c6" x="460.264463" y="285.552787" style="fill: #e6cd73; stroke: #e6cd73"/>
    </g>
    <g clip-path="url(#p2132ff16f1)">
     <use xlink:href="#C0_0_aca8d064c6" x="312.621158" y="259.973721" style="fill: #4df3ce; stroke: #4df3ce"/>
    </g>
    <g clip-path="url(#p2132ff16f1)">
     <use xlink:href="#C0_0_aca8d064c6" x="281.470125" y="348.935196" style="fill: #4e4dfc; stroke: #4e4dfc"/>
    </g>
    <g clip-path="url(#p2132ff16f1)">
     <use xlink:href="#C0_0_aca8d064c6" x="255.861883" y="109.62701" style="fill: #ff4d27; stroke: #ff4d27"/>
    </g>
    <g clip-path="url(#p2132ff16f1)">
     <use xlink:href="#C0_0_aca8d064c6" x="315.694013" y="122.493897" style="fill: #1996f3; stroke: #1996f3"/>
    </g>
    <g clip-path="url(#p2132ff16f1)">
     <use xlink:href="#C0_0_aca8d064c6" x="376.221001" y="226.356448" style="fill: #1996f3; stroke: #1996f3"/>
    </g>
    <g clip-path="url(#p2132ff16f1)">
     <use xlink:href="#C0_0_aca8d064c6" x="315.021287" y="292.829817" style="fill: #4e4dfc; stroke: #4e4dfc"/>
    </g>
    <g clip-path="url(#p2132ff16f1)">
     <use xlink:href="#C0_0_aca8d064c6" x="189.598081" y="267.652085" style="fill: #4e4dfc; stroke: #4e4dfc"/>
    </g>
    <g clip-path="url(#p2132ff16f1)">
     <use xlink:href="#C0_0_aca8d064c6" x="292.062293" y="231.077997" style="fill: #ff964f; stroke: #ff964f"/>
    </g>
    <g clip-path="url(#p2132ff16f1)">
     <use xlink:href="#C0_0_aca8d064c6" x="343.308773" y="262.104494" style="fill: #4e4dfc; stroke: #4e4dfc"/>
    </g>
    <g clip-path="url(#p2132ff16f1)">
     <use xlink:href="#C0_0_aca8d064c6" x="242.679592" y="392.441022" style="fill: #4e4dfc; stroke: #4e4dfc"/>
    </g>
    <g clip-path="url(#p2132ff16f1)">
     <use xlink:href="#C0_0_aca8d064c6" x="209.33333" y="185.063547" style="fill: #4e4dfc; stroke: #4e4dfc"/>
    </g>
    <g clip-path="url(#p2132ff16f1)">
     <use xlink:href="#C0_0_aca8d064c6" x="261.937282" y="272.05616" style="fill: #4df3ce; stroke: #4df3ce"/>
    </g>
    <g clip-path="url(#p2132ff16f1)">
     <use xlink:href="#C0_0_aca8d064c6" x="360.289884" y="375.383906" style="fill: #80ffb4; stroke: #80ffb4"/>
    </g>
   </g>
   <g id="text_1">
    <!-- Colored Graph - huck -->
    <g transform="translate(188.300625 -6) scale(0.12 -0.12)">
     <defs>
      <path id="DejaVuSans-43" d="M 4122 4306 
L 4122 3641 
Q 3803 3938 3442 4084 
Q 3081 4231 2675 4231 
Q 1875 4231 1450 3742 
Q 1025 3253 1025 2328 
Q 1025 1406 1450 917 
Q 1875 428 2675 428 
Q 3081 428 3442 575 
Q 3803 722 4122 1019 
L 4122 359 
Q 3791 134 3420 21 
Q 3050 -91 2638 -91 
Q 1578 -91 968 557 
Q 359 1206 359 2328 
Q 359 3453 968 4101 
Q 1578 4750 2638 4750 
Q 3056 4750 3426 4639 
Q 3797 4528 4122 4306 
z
" transform="scale(0.015625)"/>
      <path id="DejaVuSans-6f" d="M 1959 3097 
Q 1497 3097 1228 2736 
Q 959 2375 959 1747 
Q 959 1119 1226 758 
Q 1494 397 1959 397 
Q 2419 397 2687 759 
Q 2956 1122 2956 1747 
Q 2956 2369 2687 2733 
Q 2419 3097 1959 3097 
z
M 1959 3584 
Q 2709 3584 3137 3096 
Q 3566 2609 3566 1747 
Q 3566 888 3137 398 
Q 2709 -91 1959 -91 
Q 1206 -91 779 398 
Q 353 888 353 1747 
Q 353 2609 779 3096 
Q 1206 3584 1959 3584 
z
" transform="scale(0.015625)"/>
      <path id="DejaVuSans-6c" d="M 603 4863 
L 1178 4863 
L 1178 0 
L 603 0 
L 603 4863 
z
" transform="scale(0.015625)"/>
      <path id="DejaVuSans-72" d="M 2631 2963 
Q 2534 3019 2420 3045 
Q 2306 3072 2169 3072 
Q 1681 3072 1420 2755 
Q 1159 2438 1159 1844 
L 1159 0 
L 581 0 
L 581 3500 
L 1159 3500 
L 1159 2956 
Q 1341 3275 1631 3429 
Q 1922 3584 2338 3584 
Q 2397 3584 2469 3576 
Q 2541 3569 2628 3553 
L 2631 2963 
z
" transform="scale(0.015625)"/>
      <path id="DejaVuSans-65" d="M 3597 1894 
L 3597 1613 
L 953 1613 
Q 991 1019 1311 708 
Q 1631 397 2203 397 
Q 2534 397 2845 478 
Q 3156 559 3463 722 
L 3463 178 
Q 3153 47 2828 -22 
Q 2503 -91 2169 -91 
Q 1331 -91 842 396 
Q 353 884 353 1716 
Q 353 2575 817 3079 
Q 1281 3584 2069 3584 
Q 2775 3584 3186 3129 
Q 3597 2675 3597 1894 
z
M 3022 2063 
Q 3016 2534 2758 2815 
Q 2500 3097 2075 3097 
Q 1594 3097 1305 2825 
Q 1016 2553 972 2059 
L 3022 2063 
z
" transform="scale(0.015625)"/>
      <path id="DejaVuSans-64" d="M 2906 2969 
L 2906 4863 
L 3481 4863 
L 3481 0 
L 2906 0 
L 2906 525 
Q 2725 213 2448 61 
Q 2172 -91 1784 -91 
Q 1150 -91 751 415 
Q 353 922 353 1747 
Q 353 2572 751 3078 
Q 1150 3584 1784 3584 
Q 2172 3584 2448 3432 
Q 2725 3281 2906 2969 
z
M 947 1747 
Q 947 1113 1208 752 
Q 1469 391 1925 391 
Q 2381 391 2643 752 
Q 2906 1113 2906 1747 
Q 2906 2381 2643 2742 
Q 2381 3103 1925 3103 
Q 1469 3103 1208 2742 
Q 947 2381 947 1747 
z
" transform="scale(0.015625)"/>
      <path id="DejaVuSans-20" transform="scale(0.015625)"/>
      <path id="DejaVuSans-47" d="M 3809 666 
L 3809 1919 
L 2778 1919 
L 2778 2438 
L 4434 2438 
L 4434 434 
Q 4069 175 3628 42 
Q 3188 -91 2688 -91 
Q 1594 -91 976 548 
Q 359 1188 359 2328 
Q 359 3472 976 4111 
Q 1594 4750 2688 4750 
Q 3144 4750 3555 4637 
Q 3966 4525 4313 4306 
L 4313 3634 
Q 3963 3931 3569 4081 
Q 3175 4231 2741 4231 
Q 1884 4231 1454 3753 
Q 1025 3275 1025 2328 
Q 1025 1384 1454 906 
Q 1884 428 2741 428 
Q 3075 428 3337 486 
Q 3600 544 3809 666 
z
" transform="scale(0.015625)"/>
      <path id="DejaVuSans-61" d="M 2194 1759 
Q 1497 1759 1228 1600 
Q 959 1441 959 1056 
Q 959 750 1161 570 
Q 1363 391 1709 391 
Q 2188 391 2477 730 
Q 2766 1069 2766 1631 
L 2766 1759 
L 2194 1759 
z
M 3341 1997 
L 3341 0 
L 2766 0 
L 2766 531 
Q 2569 213 2275 61 
Q 1981 -91 1556 -91 
Q 1019 -91 701 211 
Q 384 513 384 1019 
Q 384 1609 779 1909 
Q 1175 2209 1959 2209 
L 2766 2209 
L 2766 2266 
Q 2766 2663 2505 2880 
Q 2244 3097 1772 3097 
Q 1472 3097 1187 3025 
Q 903 2953 641 2809 
L 641 3341 
Q 956 3463 1253 3523 
Q 1550 3584 1831 3584 
Q 2591 3584 2966 3190 
Q 3341 2797 3341 1997 
z
" transform="scale(0.015625)"/>
      <path id="DejaVuSans-70" d="M 1159 525 
L 1159 -1331 
L 581 -1331 
L 581 3500 
L 1159 3500 
L 1159 2969 
Q 1341 3281 1617 3432 
Q 1894 3584 2278 3584 
Q 2916 3584 3314 3078 
Q 3713 2572 3713 1747 
Q 3713 922 3314 415 
Q 2916 -91 2278 -91 
Q 1894 -91 1617 61 
Q 1341 213 1159 525 
z
M 3116 1747 
Q 3116 2381 2855 2742 
Q 2594 3103 2138 3103 
Q 1681 3103 1420 2742 
Q 1159 2381 1159 1747 
Q 1159 1113 1420 752 
Q 1681 391 2138 391 
Q 2594 391 2855 752 
Q 3116 1113 3116 1747 
z
" transform="scale(0.015625)"/>
      <path id="DejaVuSans-68" d="M 3513 2113 
L 3513 0 
L 2938 0 
L 2938 2094 
Q 2938 2591 2744 2837 
Q 2550 3084 2163 3084 
Q 1697 3084 1428 2787 
Q 1159 2491 1159 1978 
L 1159 0 
L 581 0 
L 581 4863 
L 1159 4863 
L 1159 2956 
Q 1366 3272 1645 3428 
Q 1925 3584 2291 3584 
Q 2894 3584 3203 3211 
Q 3513 2838 3513 2113 
z
" transform="scale(0.015625)"/>
      <path id="DejaVuSans-2d" d="M 313 2009 
L 1997 2009 
L 1997 1497 
L 313 1497 
L 313 2009 
z
" transform="scale(0.015625)"/>
      <path id="DejaVuSans-75" d="M 544 1381 
L 544 3500 
L 1119 3500 
L 1119 1403 
Q 1119 906 1312 657 
Q 1506 409 1894 409 
Q 2359 409 2629 706 
Q 2900 1003 2900 1516 
L 2900 3500 
L 3475 3500 
L 3475 0 
L 2900 0 
L 2900 538 
Q 2691 219 2414 64 
Q 2138 -91 1772 -91 
Q 1169 -91 856 284 
Q 544 659 544 1381 
z
M 1991 3584 
L 1991 3584 
z
" transform="scale(0.015625)"/>
      <path id="DejaVuSans-63" d="M 3122 3366 
L 3122 2828 
Q 2878 2963 2633 3030 
Q 2388 3097 2138 3097 
Q 1578 3097 1268 2742 
Q 959 2388 959 1747 
Q 959 1106 1268 751 
Q 1578 397 2138 397 
Q 2388 397 2633 464 
Q 2878 531 3122 666 
L 3122 134 
Q 2881 22 2623 -34 
Q 2366 -91 2075 -91 
Q 1284 -91 818 406 
Q 353 903 353 1747 
Q 353 2603 823 3093 
Q 1294 3584 2113 3584 
Q 2378 3584 2631 3529 
Q 2884 3475 3122 3366 
z
" transform="scale(0.015625)"/>
      <path id="DejaVuSans-6b" d="M 581 4863 
L 1159 4863 
L 1159 1991 
L 2875 3500 
L 3609 3500 
L 1753 1863 
L 3688 0 
L 2938 0 
L 1159 1709 
L 1159 0 
L 581 0 
L 581 4863 
z
" transform="scale(0.015625)"/>
     </defs>
     <use xlink:href="#DejaVuSans-43"/>
     <use xlink:href="#DejaVuSans-6f" transform="translate(69.824219 0)"/>
     <use xlink:href="#DejaVuSans-6c" transform="translate(131.005859 0)"/>
     <use xlink:href="#DejaVuSans-6f" transform="translate(158.789062 0)"/>
     <use xlink:href="#DejaVuSans-72" transform="translate(219.970703 0)"/>
     <use xlink:href="#DejaVuSans-65" transform="translate(258.833984 0)"/>
     <use xlink:href="#DejaVuSans-64" transform="translate(320.357422 0)"/>
     <use xlink:href="#DejaVuSans-20" transform="translate(383.833984 0)"/>
     <use xlink:href="#DejaVuSans-47" transform="translate(415.621094 0)"/>
     <use xlink:href="#DejaVuSans-72" transform="translate(493.111328 0)"/>
     <use xlink:href="#DejaVuSans-61" transform="translate(534.224609 0)"/>
     <use xlink:href="#DejaVuSans-70" transform="translate(595.503906 0)"/>
     <use xlink:href="#DejaVuSans-68" transform="translate(658.980469 0)"/>
     <use xlink:href="#DejaVuSans-20" transform="translate(722.359375 0)"/>
     <use xlink:href="#DejaVuSans-2d" transform="translate(754.146484 0)"/>
     <use xlink:href="#DejaVuSans-20" transform="translate(790.230469 0)"/>
     <use xlink:href="#DejaVuSans-68" transform="translate(822.017578 0)"/>
     <use xlink:href="#DejaVuSans-75" transform="translate(885.396484 0)"/>
     <use xlink:href="#DejaVuSans-63" transform="translate(948.775391 0)"/>
     <use xlink:href="#DejaVuSans-6b" transform="translate(1003.755859 0)"/>
    </g>
   </g>
   <g id="legend_1">
    <g id="patch_2">
     <path d="M 536.2 184.1375 
L 610.2125 184.1375 
Q 612.2125 184.1375 612.2125 182.1375 
L 612.2125 7 
Q 612.2125 5 610.2125 5 
L 536.2 5 
Q 534.2 5 534.2 7 
L 534.2 182.1375 
Q 534.2 184.1375 536.2 184.1375 
z
" style="fill: #ffffff; opacity: 0.8; stroke: #cccccc; stroke-linejoin: miter"/>
    </g>
    <g id="text_2">
     <!-- Colors -->
     <g transform="translate(557.546875 16.598437) scale(0.1 -0.1)">
      <defs>
       <path id="DejaVuSans-73" d="M 2834 3397 
L 2834 2853 
Q 2591 2978 2328 3040 
Q 2066 3103 1784 3103 
Q 1356 3103 1142 2972 
Q 928 2841 928 2578 
Q 928 2378 1081 2264 
Q 1234 2150 1697 2047 
L 1894 2003 
Q 2506 1872 2764 1633 
Q 3022 1394 3022 966 
Q 3022 478 2636 193 
Q 2250 -91 1575 -91 
Q 1294 -91 989 -36 
Q 684 19 347 128 
L 347 722 
Q 666 556 975 473 
Q 1284 391 1588 391 
Q 1994 391 2212 530 
Q 2431 669 2431 922 
Q 2431 1156 2273 1281 
Q 2116 1406 1581 1522 
L 1381 1569 
Q 847 1681 609 1914 
Q 372 2147 372 2553 
Q 372 3047 722 3315 
Q 1072 3584 1716 3584 
Q 2034 3584 2315 3537 
Q 2597 3491 2834 3397 
z
" transform="scale(0.015625)"/>
      </defs>
      <use xlink:href="#DejaVuSans-43"/>
      <use xlink:href="#DejaVuSans-6f" transform="translate(69.824219 0)"/>
      <use xlink:href="#DejaVuSans-6c" transform="translate(131.005859 0)"/>
      <use xlink:href="#DejaVuSans-6f" transform="translate(158.789062 0)"/>
      <use xlink:href="#DejaVuSans-72" transform="translate(219.970703 0)"/>
      <use xlink:href="#DejaVuSans-73" transform="translate(261.083984 0)"/>
     </g>
    </g>
    <g id="patch_3">
     <path d="M 538.2 31.276562 
L 558.2 31.276562 
L 558.2 24.276562 
L 538.2 24.276562 
z
" style="fill: #5247fc; stroke: #5247fc; stroke-linejoin: miter"/>
    </g>
    <g id="text_3">
     <!-- Color 1 -->
     <g transform="translate(566.2 31.276562) scale(0.1 -0.1)">
      <defs>
       <path id="DejaVuSans-31" d="M 794 531 
L 1825 531 
L 1825 4091 
L 703 3866 
L 703 4441 
L 1819 4666 
L 2450 4666 
L 2450 531 
L 3481 531 
L 3481 0 
L 794 0 
L 794 531 
z
" transform="scale(0.015625)"/>
      </defs>
      <use xlink:href="#DejaVuSans-43"/>
      <use xlink:href="#DejaVuSans-6f" transform="translate(69.824219 0)"/>
      <use xlink:href="#DejaVuSans-6c" transform="translate(131.005859 0)"/>
      <use xlink:href="#DejaVuSans-6f" transform="translate(158.789062 0)"/>
      <use xlink:href="#DejaVuSans-72" transform="translate(219.970703 0)"/>
      <use xlink:href="#DejaVuSans-20" transform="translate(261.083984 0)"/>
      <use xlink:href="#DejaVuSans-31" transform="translate(292.871094 0)"/>
     </g>
    </g>
    <g id="patch_4">
     <path d="M 538.2 45.954687 
L 558.2 45.954687 
L 558.2 38.954687 
L 538.2 38.954687 
z
" style="fill: #2489f5; stroke: #2489f5; stroke-linejoin: miter"/>
    </g>
    <g id="text_4">
     <!-- Color 2 -->
     <g transform="translate(566.2 45.954687) scale(0.1 -0.1)">
      <defs>
       <path id="DejaVuSans-32" d="M 1228 531 
L 3431 531 
L 3431 0 
L 469 0 
L 469 531 
Q 828 903 1448 1529 
Q 2069 2156 2228 2338 
Q 2531 2678 2651 2914 
Q 2772 3150 2772 3378 
Q 2772 3750 2511 3984 
Q 2250 4219 1831 4219 
Q 1534 4219 1204 4116 
Q 875 4013 500 3803 
L 500 4441 
Q 881 4594 1212 4672 
Q 1544 4750 1819 4750 
Q 2544 4750 2975 4387 
Q 3406 4025 3406 3419 
Q 3406 3131 3298 2873 
Q 3191 2616 2906 2266 
Q 2828 2175 2409 1742 
Q 1991 1309 1228 531 
z
" transform="scale(0.015625)"/>
      </defs>
      <use xlink:href="#DejaVuSans-43"/>
      <use xlink:href="#DejaVuSans-6f" transform="translate(69.824219 0)"/>
      <use xlink:href="#DejaVuSans-6c" transform="translate(131.005859 0)"/>
      <use xlink:href="#DejaVuSans-6f" transform="translate(158.789062 0)"/>
      <use xlink:href="#DejaVuSans-72" transform="translate(219.970703 0)"/>
      <use xlink:href="#DejaVuSans-20" transform="translate(261.083984 0)"/>
      <use xlink:href="#DejaVuSans-32" transform="translate(292.871094 0)"/>
     </g>
    </g>
    <g id="patch_5">
     <path d="M 538.2 60.632812 
L 558.2 60.632812 
L 558.2 53.632812 
L 538.2 53.632812 
z
" style="fill: #0ac0e8; stroke: #0ac0e8; stroke-linejoin: miter"/>
    </g>
    <g id="text_5">
     <!-- Color 3 -->
     <g transform="translate(566.2 60.632812) scale(0.1 -0.1)">
      <defs>
       <path id="DejaVuSans-33" d="M 2597 2516 
Q 3050 2419 3304 2112 
Q 3559 1806 3559 1356 
Q 3559 666 3084 287 
Q 2609 -91 1734 -91 
Q 1441 -91 1130 -33 
Q 819 25 488 141 
L 488 750 
Q 750 597 1062 519 
Q 1375 441 1716 441 
Q 2309 441 2620 675 
Q 2931 909 2931 1356 
Q 2931 1769 2642 2001 
Q 2353 2234 1838 2234 
L 1294 2234 
L 1294 2753 
L 1863 2753 
Q 2328 2753 2575 2939 
Q 2822 3125 2822 3475 
Q 2822 3834 2567 4026 
Q 2313 4219 1838 4219 
Q 1578 4219 1281 4162 
Q 984 4106 628 3988 
L 628 4550 
Q 988 4650 1302 4700 
Q 1616 4750 1894 4750 
Q 2613 4750 3031 4423 
Q 3450 4097 3450 3541 
Q 3450 3153 3228 2886 
Q 3006 2619 2597 2516 
z
" transform="scale(0.015625)"/>
      </defs>
      <use xlink:href="#DejaVuSans-43"/>
      <use xlink:href="#DejaVuSans-6f" transform="translate(69.824219 0)"/>
      <use xlink:href="#DejaVuSans-6c" transform="translate(131.005859 0)"/>
      <use xlink:href="#DejaVuSans-6f" transform="translate(158.789062 0)"/>
      <use xlink:href="#DejaVuSans-72" transform="translate(219.970703 0)"/>
      <use xlink:href="#DejaVuSans-20" transform="translate(261.083984 0)"/>
      <use xlink:href="#DejaVuSans-33" transform="translate(292.871094 0)"/>
     </g>
    </g>
    <g id="patch_6">
     <path d="M 538.2 75.310937 
L 558.2 75.310937 
L 558.2 68.310937 
L 538.2 68.310937 
z
" style="fill: #3ae8d6; stroke: #3ae8d6; stroke-linejoin: miter"/>
    </g>
    <g id="text_6">
     <!-- Color 4 -->
     <g transform="translate(566.2 75.310937) scale(0.1 -0.1)">
      <defs>
       <path id="DejaVuSans-34" d="M 2419 4116 
L 825 1625 
L 2419 1625 
L 2419 4116 
z
M 2253 4666 
L 3047 4666 
L 3047 1625 
L 3713 1625 
L 3713 1100 
L 3047 1100 
L 3047 0 
L 2419 0 
L 2419 1100 
L 313 1100 
L 313 1709 
L 2253 4666 
z
" transform="scale(0.015625)"/>
      </defs>
      <use xlink:href="#DejaVuSans-43"/>
      <use xlink:href="#DejaVuSans-6f" transform="translate(69.824219 0)"/>
      <use xlink:href="#DejaVuSans-6c" transform="translate(131.005859 0)"/>
      <use xlink:href="#DejaVuSans-6f" transform="translate(158.789062 0)"/>
      <use xlink:href="#DejaVuSans-72" transform="translate(219.970703 0)"/>
      <use xlink:href="#DejaVuSans-20" transform="translate(261.083984 0)"/>
      <use xlink:href="#DejaVuSans-34" transform="translate(292.871094 0)"/>
     </g>
    </g>
    <g id="patch_7">
     <path d="M 538.2 89.989062 
L 558.2 89.989062 
L 558.2 82.989062 
L 538.2 82.989062 
z
" style="fill: #68fcc1; stroke: #68fcc1; stroke-linejoin: miter"/>
    </g>
    <g id="text_7">
     <!-- Color 5 -->
     <g transform="translate(566.2 89.989062) scale(0.1 -0.1)">
      <defs>
       <path id="DejaVuSans-35" d="M 691 4666 
L 3169 4666 
L 3169 4134 
L 1269 4134 
L 1269 2991 
Q 1406 3038 1543 3061 
Q 1681 3084 1819 3084 
Q 2600 3084 3056 2656 
Q 3513 2228 3513 1497 
Q 3513 744 3044 326 
Q 2575 -91 1722 -91 
Q 1428 -91 1123 -41 
Q 819 9 494 109 
L 494 744 
Q 775 591 1075 516 
Q 1375 441 1709 441 
Q 2250 441 2565 725 
Q 2881 1009 2881 1497 
Q 2881 1984 2565 2268 
Q 2250 2553 1709 2553 
Q 1456 2553 1204 2497 
Q 953 2441 691 2322 
L 691 4666 
z
" transform="scale(0.015625)"/>
      </defs>
      <use xlink:href="#DejaVuSans-43"/>
      <use xlink:href="#DejaVuSans-6f" transform="translate(69.824219 0)"/>
      <use xlink:href="#DejaVuSans-6c" transform="translate(131.005859 0)"/>
      <use xlink:href="#DejaVuSans-6f" transform="translate(158.789062 0)"/>
      <use xlink:href="#DejaVuSans-72" transform="translate(219.970703 0)"/>
      <use xlink:href="#DejaVuSans-20" transform="translate(261.083984 0)"/>
      <use xlink:href="#DejaVuSans-35" transform="translate(292.871094 0)"/>
     </g>
    </g>
    <g id="patch_8">
     <path d="M 538.2 104.667187 
L 558.2 104.667187 
L 558.2 97.667187 
L 538.2 97.667187 
z
" style="fill: #96fca7; stroke: #96fca7; stroke-linejoin: miter"/>
    </g>
    <g id="text_8">
     <!-- Color 6 -->
     <g transform="translate(566.2 104.667187) scale(0.1 -0.1)">
      <defs>
       <path id="DejaVuSans-36" d="M 2113 2584 
Q 1688 2584 1439 2293 
Q 1191 2003 1191 1497 
Q 1191 994 1439 701 
Q 1688 409 2113 409 
Q 2538 409 2786 701 
Q 3034 994 3034 1497 
Q 3034 2003 2786 2293 
Q 2538 2584 2113 2584 
z
M 3366 4563 
L 3366 3988 
Q 3128 4100 2886 4159 
Q 2644 4219 2406 4219 
Q 1781 4219 1451 3797 
Q 1122 3375 1075 2522 
Q 1259 2794 1537 2939 
Q 1816 3084 2150 3084 
Q 2853 3084 3261 2657 
Q 3669 2231 3669 1497 
Q 3669 778 3244 343 
Q 2819 -91 2113 -91 
Q 1303 -91 875 529 
Q 447 1150 447 2328 
Q 447 3434 972 4092 
Q 1497 4750 2381 4750 
Q 2619 4750 2861 4703 
Q 3103 4656 3366 4563 
z
" transform="scale(0.015625)"/>
      </defs>
      <use xlink:href="#DejaVuSans-43"/>
      <use xlink:href="#DejaVuSans-6f" transform="translate(69.824219 0)"/>
      <use xlink:href="#DejaVuSans-6c" transform="translate(131.005859 0)"/>
      <use xlink:href="#DejaVuSans-6f" transform="translate(158.789062 0)"/>
      <use xlink:href="#DejaVuSans-72" transform="translate(219.970703 0)"/>
      <use xlink:href="#DejaVuSans-20" transform="translate(261.083984 0)"/>
      <use xlink:href="#DejaVuSans-36" transform="translate(292.871094 0)"/>
     </g>
    </g>
    <g id="patch_9">
     <path d="M 538.2 119.345312 
L 558.2 119.345312 
L 558.2 112.345312 
L 538.2 112.345312 
z
" style="fill: #c4e88a; stroke: #c4e88a; stroke-linejoin: miter"/>
    </g>
    <g id="text_9">
     <!-- Color 7 -->
     <g transform="translate(566.2 119.345312) scale(0.1 -0.1)">
      <defs>
       <path id="DejaVuSans-37" d="M 525 4666 
L 3525 4666 
L 3525 4397 
L 1831 0 
L 1172 0 
L 2766 4134 
L 525 4134 
L 525 4666 
z
" transform="scale(0.015625)"/>
      </defs>
      <use xlink:href="#DejaVuSans-43"/>
      <use xlink:href="#DejaVuSans-6f" transform="translate(69.824219 0)"/>
      <use xlink:href="#DejaVuSans-6c" transform="translate(131.005859 0)"/>
      <use xlink:href="#DejaVuSans-6f" transform="translate(158.789062 0)"/>
      <use xlink:href="#DejaVuSans-72" transform="translate(219.970703 0)"/>
      <use xlink:href="#DejaVuSans-20" transform="translate(261.083984 0)"/>
      <use xlink:href="#DejaVuSans-37" transform="translate(292.871094 0)"/>
     </g>
    </g>
    <g id="patch_10">
     <path d="M 538.2 134.023437 
L 558.2 134.023437 
L 558.2 127.023437 
L 538.2 127.023437 
z
" style="fill: #f4c069; stroke: #f4c069; stroke-linejoin: miter"/>
    </g>
    <g id="text_10">
     <!-- Color 8 -->
     <g transform="translate(566.2 134.023437) scale(0.1 -0.1)">
      <defs>
       <path id="DejaVuSans-38" d="M 2034 2216 
Q 1584 2216 1326 1975 
Q 1069 1734 1069 1313 
Q 1069 891 1326 650 
Q 1584 409 2034 409 
Q 2484 409 2743 651 
Q 3003 894 3003 1313 
Q 3003 1734 2745 1975 
Q 2488 2216 2034 2216 
z
M 1403 2484 
Q 997 2584 770 2862 
Q 544 3141 544 3541 
Q 544 4100 942 4425 
Q 1341 4750 2034 4750 
Q 2731 4750 3128 4425 
Q 3525 4100 3525 3541 
Q 3525 3141 3298 2862 
Q 3072 2584 2669 2484 
Q 3125 2378 3379 2068 
Q 3634 1759 3634 1313 
Q 3634 634 3220 271 
Q 2806 -91 2034 -91 
Q 1263 -91 848 271 
Q 434 634 434 1313 
Q 434 1759 690 2068 
Q 947 2378 1403 2484 
z
M 1172 3481 
Q 1172 3119 1398 2916 
Q 1625 2713 2034 2713 
Q 2441 2713 2670 2916 
Q 2900 3119 2900 3481 
Q 2900 3844 2670 4047 
Q 2441 4250 2034 4250 
Q 1625 4250 1398 4047 
Q 1172 3844 1172 3481 
z
" transform="scale(0.015625)"/>
      </defs>
      <use xlink:href="#DejaVuSans-43"/>
      <use xlink:href="#DejaVuSans-6f" transform="translate(69.824219 0)"/>
      <use xlink:href="#DejaVuSans-6c" transform="translate(131.005859 0)"/>
      <use xlink:href="#DejaVuSans-6f" transform="translate(158.789062 0)"/>
      <use xlink:href="#DejaVuSans-72" transform="translate(219.970703 0)"/>
      <use xlink:href="#DejaVuSans-20" transform="translate(261.083984 0)"/>
      <use xlink:href="#DejaVuSans-38" transform="translate(292.871094 0)"/>
     </g>
    </g>
    <g id="patch_11">
     <path d="M 538.2 148.701562 
L 558.2 148.701562 
L 558.2 141.701562 
L 538.2 141.701562 
z
" style="fill: #ff8947; stroke: #ff8947; stroke-linejoin: miter"/>
    </g>
    <g id="text_11">
     <!-- Color 9 -->
     <g transform="translate(566.2 148.701562) scale(0.1 -0.1)">
      <defs>
       <path id="DejaVuSans-39" d="M 703 97 
L 703 672 
Q 941 559 1184 500 
Q 1428 441 1663 441 
Q 2288 441 2617 861 
Q 2947 1281 2994 2138 
Q 2813 1869 2534 1725 
Q 2256 1581 1919 1581 
Q 1219 1581 811 2004 
Q 403 2428 403 3163 
Q 403 3881 828 4315 
Q 1253 4750 1959 4750 
Q 2769 4750 3195 4129 
Q 3622 3509 3622 2328 
Q 3622 1225 3098 567 
Q 2575 -91 1691 -91 
Q 1453 -91 1209 -44 
Q 966 3 703 97 
z
M 1959 2075 
Q 2384 2075 2632 2365 
Q 2881 2656 2881 3163 
Q 2881 3666 2632 3958 
Q 2384 4250 1959 4250 
Q 1534 4250 1286 3958 
Q 1038 3666 1038 3163 
Q 1038 2656 1286 2365 
Q 1534 2075 1959 2075 
z
" transform="scale(0.015625)"/>
      </defs>
      <use xlink:href="#DejaVuSans-43"/>
      <use xlink:href="#DejaVuSans-6f" transform="translate(69.824219 0)"/>
      <use xlink:href="#DejaVuSans-6c" transform="translate(131.005859 0)"/>
      <use xlink:href="#DejaVuSans-6f" transform="translate(158.789062 0)"/>
      <use xlink:href="#DejaVuSans-72" transform="translate(219.970703 0)"/>
      <use xlink:href="#DejaVuSans-20" transform="translate(261.083984 0)"/>
      <use xlink:href="#DejaVuSans-39" transform="translate(292.871094 0)"/>
     </g>
    </g>
    <g id="patch_12">
     <path d="M 538.2 163.379687 
L 558.2 163.379687 
L 558.2 156.379687 
L 538.2 156.379687 
z
" style="fill: #ff4724; stroke: #ff4724; stroke-linejoin: miter"/>
    </g>
    <g id="text_12">
     <!-- Color 10 -->
     <g transform="translate(566.2 163.379687) scale(0.1 -0.1)">
      <defs>
       <path id="DejaVuSans-30" d="M 2034 4250 
Q 1547 4250 1301 3770 
Q 1056 3291 1056 2328 
Q 1056 1369 1301 889 
Q 1547 409 2034 409 
Q 2525 409 2770 889 
Q 3016 1369 3016 2328 
Q 3016 3291 2770 3770 
Q 2525 4250 2034 4250 
z
M 2034 4750 
Q 2819 4750 3233 4129 
Q 3647 3509 3647 2328 
Q 3647 1150 3233 529 
Q 2819 -91 2034 -91 
Q 1250 -91 836 529 
Q 422 1150 422 2328 
Q 422 3509 836 4129 
Q 1250 4750 2034 4750 
z
" transform="scale(0.015625)"/>
      </defs>
      <use xlink:href="#DejaVuSans-43"/>
      <use xlink:href="#DejaVuSans-6f" transform="translate(69.824219 0)"/>
      <use xlink:href="#DejaVuSans-6c" transform="translate(131.005859 0)"/>
      <use xlink:href="#DejaVuSans-6f" transform="translate(158.789062 0)"/>
      <use xlink:href="#DejaVuSans-72" transform="translate(219.970703 0)"/>
      <use xlink:href="#DejaVuSans-20" transform="translate(261.083984 0)"/>
      <use xlink:href="#DejaVuSans-31" transform="translate(292.871094 0)"/>
      <use xlink:href="#DejaVuSans-30" transform="translate(356.494141 0)"/>
     </g>
    </g>
    <g id="patch_13">
     <path d="M 538.2 178.057812 
L 558.2 178.057812 
L 558.2 171.057812 
L 538.2 171.057812 
z
" style="fill: #ff0000; stroke: #ff0000; stroke-linejoin: miter"/>
    </g>
    <g id="text_13">
     <!-- Color 11 -->
     <g transform="translate(566.2 178.057812) scale(0.1 -0.1)">
      <use xlink:href="#DejaVuSans-43"/>
      <use xlink:href="#DejaVuSans-6f" transform="translate(69.824219 0)"/>
      <use xlink:href="#DejaVuSans-6c" transform="translate(131.005859 0)"/>
      <use xlink:href="#DejaVuSans-6f" transform="translate(158.789062 0)"/>
      <use xlink:href="#DejaVuSans-72" transform="translate(219.970703 0)"/>
      <use xlink:href="#DejaVuSans-20" transform="translate(261.083984 0)"/>
      <use xlink:href="#DejaVuSans-31" transform="translate(292.871094 0)"/>
      <use xlink:href="#DejaVuSans-31" transform="translate(356.494141 0)"/>
     </g>
    </g>
   </g>
  </g>
 </g>
 <defs>
  <clipPath id="p2132ff16f1">
   <rect x="0" y="0" width="504" height="432"/>
  </clipPath>
 </defs>
</svg>
