<?xml version="1.0" encoding="utf-8" standalone="no"?>
<!DOCTYPE svg PUBLIC "-//W3C//DTD SVG 1.1//EN"
  "http://www.w3.org/Graphics/SVG/1.1/DTD/svg11.dtd">
<svg xmlns:xlink="http://www.w3.org/1999/xlink" width="504pt" height="432pt" viewBox="0 0 504 432" xmlns="http://www.w3.org/2000/svg" version="1.1">
 <metadata>
  <rdf:RDF xmlns:dc="http://purl.org/dc/elements/1.1/" xmlns:cc="http://creativecommons.org/ns#" xmlns:rdf="http://www.w3.org/1999/02/22-rdf-syntax-ns#">
   <cc:Work>
    <dc:type rdf:resource="http://purl.org/dc/dcmitype/StillImage"/>
    <dc:date>2025-06-04T19:03:10.148227</dc:date>
    <dc:format>image/svg+xml</dc:format>
    <dc:creator>
     <cc:Agent>
      <dc:title>Matplotlib v3.10.1, https://matplotlib.org/</dc:title>
     </cc:Agent>
    </dc:creator>
   </cc:Work>
  </rdf:RDF>
 </metadata>
 <defs>
  <style type="text/css">*{stroke-linejoin: round; stroke-linecap: butt}</style>
 </defs>
 <g id="figure_1">
  <g id="patch_1">
   <path d="M 0 432 
L 504 432 
L 504 0 
L 0 0 
z
" style="fill: #ffffff"/>
  </g>
  <g id="axes_1">
   <g id="LineCollection_1">
    <path d="M 303.754821 264.72672 
L 196.332455 271.1898 
" clip-path="url(#p7287ac4832)" style="fill: none; stroke: #d3d3d3"/>
    <path d="M 303.754821 264.72672 
L 217.41202 200.030749 
" clip-path="url(#p7287ac4832)" style="fill: none; stroke: #d3d3d3"/>
    <path d="M 303.754821 264.72672 
L 325.356343 141.045005 
" clip-path="url(#p7287ac4832)" style="fill: none; stroke: #d3d3d3"/>
    <path d="M 303.754821 264.72672 
L 262.20339 134.616985 
" clip-path="url(#p7287ac4832)" style="fill: none; stroke: #d3d3d3"/>
    <path d="M 303.754821 264.72672 
L 91.163032 221.789618 
" clip-path="url(#p7287ac4832)" style="fill: none; stroke: #d3d3d3"/>
    <path d="M 303.754821 264.72672 
L 115.769942 250.552739 
" clip-path="url(#p7287ac4832)" style="fill: none; stroke: #d3d3d3"/>
    <path d="M 303.754821 264.72672 
L 286.922649 59.950394 
" clip-path="url(#p7287ac4832)" style="fill: none; stroke: #d3d3d3"/>
    <path d="M 303.754821 264.72672 
L 236.708886 79.274547 
" clip-path="url(#p7287ac4832)" style="fill: none; stroke: #d3d3d3"/>
    <path d="M 303.754821 264.72672 
L 341.392176 93.690354 
" clip-path="url(#p7287ac4832)" style="fill: none; stroke: #d3d3d3"/>
    <path d="M 303.754821 264.72672 
L 199.316121 126.908045 
" clip-path="url(#p7287ac4832)" style="fill: none; stroke: #d3d3d3"/>
    <path d="M 303.754821 264.72672 
L 148.175124 350.011751 
" clip-path="url(#p7287ac4832)" style="fill: none; stroke: #d3d3d3"/>
    <path d="M 303.754821 264.72672 
L 86.520477 320.085486 
" clip-path="url(#p7287ac4832)" style="fill: none; stroke: #d3d3d3"/>
    <path d="M 303.754821 264.72672 
L 425.295444 311.424535 
" clip-path="url(#p7287ac4832)" style="fill: none; stroke: #d3d3d3"/>
    <path d="M 303.754821 264.72672 
L 460.264463 262.37599 
" clip-path="url(#p7287ac4832)" style="fill: none; stroke: #d3d3d3"/>
    <path d="M 303.754821 264.72672 
L 327.134479 375.290662 
" clip-path="url(#p7287ac4832)" style="fill: none; stroke: #d3d3d3"/>
    <path d="M 303.754821 264.72672 
L 366.369136 368.964621 
" clip-path="url(#p7287ac4832)" style="fill: none; stroke: #d3d3d3"/>
    <path d="M 196.332455 271.1898 
L 268.546784 212.279932 
" clip-path="url(#p7287ac4832)" style="fill: none; stroke: #d3d3d3"/>
    <path d="M 196.332455 271.1898 
L 357.638444 212.803843 
" clip-path="url(#p7287ac4832)" style="fill: none; stroke: #d3d3d3"/>
    <path d="M 196.332455 271.1898 
L 288.033024 163.145522 
" clip-path="url(#p7287ac4832)" style="fill: none; stroke: #d3d3d3"/>
    <path d="M 196.332455 271.1898 
L 97.613111 177.337789 
" clip-path="url(#p7287ac4832)" style="fill: none; stroke: #d3d3d3"/>
    <path d="M 196.332455 271.1898 
L 144.803499 202.54037 
" clip-path="url(#p7287ac4832)" style="fill: none; stroke: #d3d3d3"/>
    <path d="M 196.332455 271.1898 
L 253.130153 43.681644 
" clip-path="url(#p7287ac4832)" style="fill: none; stroke: #d3d3d3"/>
    <path d="M 196.332455 271.1898 
L 188.577789 74.059156 
" clip-path="url(#p7287ac4832)" style="fill: none; stroke: #d3d3d3"/>
    <path d="M 196.332455 271.1898 
L 125.267339 94.946473 
" clip-path="url(#p7287ac4832)" style="fill: none; stroke: #d3d3d3"/>
    <path d="M 196.332455 271.1898 
L 148.935526 123.707313 
" clip-path="url(#p7287ac4832)" style="fill: none; stroke: #d3d3d3"/>
    <path d="M 196.332455 271.1898 
L 43.735537 292.229554 
" clip-path="url(#p7287ac4832)" style="fill: none; stroke: #d3d3d3"/>
    <path d="M 196.332455 271.1898 
L 97.315978 349.990239 
" clip-path="url(#p7287ac4832)" style="fill: none; stroke: #d3d3d3"/>
    <path d="M 196.332455 271.1898 
L 375.050105 308.320301 
" clip-path="url(#p7287ac4832)" style="fill: none; stroke: #d3d3d3"/>
    <path d="M 196.332455 271.1898 
L 423.921032 278.08385 
" clip-path="url(#p7287ac4832)" style="fill: none; stroke: #d3d3d3"/>
    <path d="M 196.332455 271.1898 
L 234.938017 386.275368 
" clip-path="url(#p7287ac4832)" style="fill: none; stroke: #d3d3d3"/>
    <path d="M 196.332455 271.1898 
L 277.666631 394.512397 
" clip-path="url(#p7287ac4832)" style="fill: none; stroke: #d3d3d3"/>
    <path d="M 268.546784 212.279932 
L 244.531698 289.028067 
" clip-path="url(#p7287ac4832)" style="fill: none; stroke: #d3d3d3"/>
    <path d="M 268.546784 212.279932 
L 325.356343 141.045005 
" clip-path="url(#p7287ac4832)" style="fill: none; stroke: #d3d3d3"/>
    <path d="M 268.546784 212.279932 
L 356.528433 168.40379 
" clip-path="url(#p7287ac4832)" style="fill: none; stroke: #d3d3d3"/>
    <path d="M 268.546784 212.279932 
L 91.163032 221.789618 
" clip-path="url(#p7287ac4832)" style="fill: none; stroke: #d3d3d3"/>
    <path d="M 268.546784 212.279932 
L 59.618523 197.6923 
" clip-path="url(#p7287ac4832)" style="fill: none; stroke: #d3d3d3"/>
    <path d="M 268.546784 212.279932 
L 286.922649 59.950394 
" clip-path="url(#p7287ac4832)" style="fill: none; stroke: #d3d3d3"/>
    <path d="M 268.546784 212.279932 
L 209.50715 37.487603 
" clip-path="url(#p7287ac4832)" style="fill: none; stroke: #d3d3d3"/>
    <path d="M 268.546784 212.279932 
L 341.392176 93.690354 
" clip-path="url(#p7287ac4832)" style="fill: none; stroke: #d3d3d3"/>
    <path d="M 268.546784 212.279932 
L 82.053692 131.516415 
" clip-path="url(#p7287ac4832)" style="fill: none; stroke: #d3d3d3"/>
    <path d="M 268.546784 212.279932 
L 148.175124 350.011751 
" clip-path="url(#p7287ac4832)" style="fill: none; stroke: #d3d3d3"/>
    <path d="M 268.546784 212.279932 
L 179.317575 365.779219 
" clip-path="url(#p7287ac4832)" style="fill: none; stroke: #d3d3d3"/>
    <path d="M 268.546784 212.279932 
L 425.295444 311.424535 
" clip-path="url(#p7287ac4832)" style="fill: none; stroke: #d3d3d3"/>
    <path d="M 268.546784 212.279932 
L 437.421301 161.504868 
" clip-path="url(#p7287ac4832)" style="fill: none; stroke: #d3d3d3"/>
    <path d="M 268.546784 212.279932 
L 327.134479 375.290662 
" clip-path="url(#p7287ac4832)" style="fill: none; stroke: #d3d3d3"/>
    <path d="M 268.546784 212.279932 
L 447.081041 215.450119 
" clip-path="url(#p7287ac4832)" style="fill: none; stroke: #d3d3d3"/>
    <path d="M 217.41202 200.030749 
L 244.531698 289.028067 
" clip-path="url(#p7287ac4832)" style="fill: none; stroke: #d3d3d3"/>
    <path d="M 217.41202 200.030749 
L 357.638444 212.803843 
" clip-path="url(#p7287ac4832)" style="fill: none; stroke: #d3d3d3"/>
    <path d="M 217.41202 200.030749 
L 356.528433 168.40379 
" clip-path="url(#p7287ac4832)" style="fill: none; stroke: #d3d3d3"/>
    <path d="M 217.41202 200.030749 
L 97.613111 177.337789 
" clip-path="url(#p7287ac4832)" style="fill: none; stroke: #d3d3d3"/>
    <path d="M 217.41202 200.030749 
L 59.618523 197.6923 
" clip-path="url(#p7287ac4832)" style="fill: none; stroke: #d3d3d3"/>
    <path d="M 217.41202 200.030749 
L 253.130153 43.681644 
" clip-path="url(#p7287ac4832)" style="fill: none; stroke: #d3d3d3"/>
    <path d="M 217.41202 200.030749 
L 209.50715 37.487603 
" clip-path="url(#p7287ac4832)" style="fill: none; stroke: #d3d3d3"/>
    <path d="M 217.41202 200.030749 
L 125.267339 94.946473 
" clip-path="url(#p7287ac4832)" style="fill: none; stroke: #d3d3d3"/>
    <path d="M 217.41202 200.030749 
L 82.053692 131.516415 
" clip-path="url(#p7287ac4832)" style="fill: none; stroke: #d3d3d3"/>
    <path d="M 217.41202 200.030749 
L 43.735537 292.229554 
" clip-path="url(#p7287ac4832)" style="fill: none; stroke: #d3d3d3"/>
    <path d="M 217.41202 200.030749 
L 179.317575 365.779219 
" clip-path="url(#p7287ac4832)" style="fill: none; stroke: #d3d3d3"/>
    <path d="M 217.41202 200.030749 
L 375.050105 308.320301 
" clip-path="url(#p7287ac4832)" style="fill: none; stroke: #d3d3d3"/>
    <path d="M 217.41202 200.030749 
L 437.421301 161.504868 
" clip-path="url(#p7287ac4832)" style="fill: none; stroke: #d3d3d3"/>
    <path d="M 217.41202 200.030749 
L 234.938017 386.275368 
" clip-path="url(#p7287ac4832)" style="fill: none; stroke: #d3d3d3"/>
    <path d="M 217.41202 200.030749 
L 447.081041 215.450119 
" clip-path="url(#p7287ac4832)" style="fill: none; stroke: #d3d3d3"/>
    <path d="M 244.531698 289.028067 
L 288.033024 163.145522 
" clip-path="url(#p7287ac4832)" style="fill: none; stroke: #d3d3d3"/>
    <path d="M 244.531698 289.028067 
L 262.20339 134.616985 
" clip-path="url(#p7287ac4832)" style="fill: none; stroke: #d3d3d3"/>
    <path d="M 244.531698 289.028067 
L 144.803499 202.54037 
" clip-path="url(#p7287ac4832)" style="fill: none; stroke: #d3d3d3"/>
    <path d="M 244.531698 289.028067 
L 115.769942 250.552739 
" clip-path="url(#p7287ac4832)" style="fill: none; stroke: #d3d3d3"/>
    <path d="M 244.531698 289.028067 
L 188.577789 74.059156 
" clip-path="url(#p7287ac4832)" style="fill: none; stroke: #d3d3d3"/>
    <path d="M 244.531698 289.028067 
L 236.708886 79.274547 
" clip-path="url(#p7287ac4832)" style="fill: none; stroke: #d3d3d3"/>
    <path d="M 244.531698 289.028067 
L 148.935526 123.707313 
" clip-path="url(#p7287ac4832)" style="fill: none; stroke: #d3d3d3"/>
    <path d="M 244.531698 289.028067 
L 199.316121 126.908045 
" clip-path="url(#p7287ac4832)" style="fill: none; stroke: #d3d3d3"/>
    <path d="M 244.531698 289.028067 
L 97.315978 349.990239 
" clip-path="url(#p7287ac4832)" style="fill: none; stroke: #d3d3d3"/>
    <path d="M 244.531698 289.028067 
L 86.520477 320.085486 
" clip-path="url(#p7287ac4832)" style="fill: none; stroke: #d3d3d3"/>
    <path d="M 244.531698 289.028067 
L 423.921032 278.08385 
" clip-path="url(#p7287ac4832)" style="fill: none; stroke: #d3d3d3"/>
    <path d="M 244.531698 289.028067 
L 460.264463 262.37599 
" clip-path="url(#p7287ac4832)" style="fill: none; stroke: #d3d3d3"/>
    <path d="M 244.531698 289.028067 
L 277.666631 394.512397 
" clip-path="url(#p7287ac4832)" style="fill: none; stroke: #d3d3d3"/>
    <path d="M 244.531698 289.028067 
L 366.369136 368.964621 
" clip-path="url(#p7287ac4832)" style="fill: none; stroke: #d3d3d3"/>
    <path d="M 357.638444 212.803843 
L 234.721043 246.049865 
" clip-path="url(#p7287ac4832)" style="fill: none; stroke: #d3d3d3"/>
    <path d="M 357.638444 212.803843 
L 91.163032 221.789618 
" clip-path="url(#p7287ac4832)" style="fill: none; stroke: #d3d3d3"/>
    <path d="M 357.638444 212.803843 
L 115.769942 250.552739 
" clip-path="url(#p7287ac4832)" style="fill: none; stroke: #d3d3d3"/>
    <path d="M 357.638444 212.803843 
L 159.941853 257.914346 
" clip-path="url(#p7287ac4832)" style="fill: none; stroke: #d3d3d3"/>
    <path d="M 357.638444 212.803843 
L 341.392176 93.690354 
" clip-path="url(#p7287ac4832)" style="fill: none; stroke: #d3d3d3"/>
    <path d="M 357.638444 212.803843 
L 199.316121 126.908045 
" clip-path="url(#p7287ac4832)" style="fill: none; stroke: #d3d3d3"/>
    <path d="M 357.638444 212.803843 
L 370.648098 59.246445 
" clip-path="url(#p7287ac4832)" style="fill: none; stroke: #d3d3d3"/>
    <path d="M 357.638444 212.803843 
L 425.295444 311.424535 
" clip-path="url(#p7287ac4832)" style="fill: none; stroke: #d3d3d3"/>
    <path d="M 357.638444 212.803843 
L 460.264463 262.37599 
" clip-path="url(#p7287ac4832)" style="fill: none; stroke: #d3d3d3"/>
    <path d="M 357.638444 212.803843 
L 441.764003 122.640859 
" clip-path="url(#p7287ac4832)" style="fill: none; stroke: #d3d3d3"/>
    <path d="M 325.356343 141.045005 
L 234.721043 246.049865 
" clip-path="url(#p7287ac4832)" style="fill: none; stroke: #d3d3d3"/>
    <path d="M 325.356343 141.045005 
L 97.613111 177.337789 
" clip-path="url(#p7287ac4832)" style="fill: none; stroke: #d3d3d3"/>
    <path d="M 325.356343 141.045005 
L 144.803499 202.54037 
" clip-path="url(#p7287ac4832)" style="fill: none; stroke: #d3d3d3"/>
    <path d="M 325.356343 141.045005 
L 159.941853 257.914346 
" clip-path="url(#p7287ac4832)" style="fill: none; stroke: #d3d3d3"/>
    <path d="M 325.356343 141.045005 
L 125.267339 94.946473 
" clip-path="url(#p7287ac4832)" style="fill: none; stroke: #d3d3d3"/>
    <path d="M 325.356343 141.045005 
L 148.935526 123.707313 
" clip-path="url(#p7287ac4832)" style="fill: none; stroke: #d3d3d3"/>
    <path d="M 325.356343 141.045005 
L 370.648098 59.246445 
" clip-path="url(#p7287ac4832)" style="fill: none; stroke: #d3d3d3"/>
    <path d="M 325.356343 141.045005 
L 375.050105 308.320301 
" clip-path="url(#p7287ac4832)" style="fill: none; stroke: #d3d3d3"/>
    <path d="M 325.356343 141.045005 
L 423.921032 278.08385 
" clip-path="url(#p7287ac4832)" style="fill: none; stroke: #d3d3d3"/>
    <path d="M 325.356343 141.045005 
L 441.764003 122.640859 
" clip-path="url(#p7287ac4832)" style="fill: none; stroke: #d3d3d3"/>
    <path d="M 288.033024 163.145522 
L 234.721043 246.049865 
" clip-path="url(#p7287ac4832)" style="fill: none; stroke: #d3d3d3"/>
    <path d="M 288.033024 163.145522 
L 91.163032 221.789618 
" clip-path="url(#p7287ac4832)" style="fill: none; stroke: #d3d3d3"/>
    <path d="M 288.033024 163.145522 
L 59.618523 197.6923 
" clip-path="url(#p7287ac4832)" style="fill: none; stroke: #d3d3d3"/>
    <path d="M 288.033024 163.145522 
L 159.941853 257.914346 
" clip-path="url(#p7287ac4832)" style="fill: none; stroke: #d3d3d3"/>
    <path d="M 288.033024 163.145522 
L 341.392176 93.690354 
" clip-path="url(#p7287ac4832)" style="fill: none; stroke: #d3d3d3"/>
    <path d="M 288.033024 163.145522 
L 82.053692 131.516415 
" clip-path="url(#p7287ac4832)" style="fill: none; stroke: #d3d3d3"/>
    <path d="M 288.033024 163.145522 
L 370.648098 59.246445 
" clip-path="url(#p7287ac4832)" style="fill: none; stroke: #d3d3d3"/>
    <path d="M 288.033024 163.145522 
L 425.295444 311.424535 
" clip-path="url(#p7287ac4832)" style="fill: none; stroke: #d3d3d3"/>
    <path d="M 288.033024 163.145522 
L 437.421301 161.504868 
" clip-path="url(#p7287ac4832)" style="fill: none; stroke: #d3d3d3"/>
    <path d="M 288.033024 163.145522 
L 441.764003 122.640859 
" clip-path="url(#p7287ac4832)" style="fill: none; stroke: #d3d3d3"/>
    <path d="M 262.20339 134.616985 
L 234.721043 246.049865 
" clip-path="url(#p7287ac4832)" style="fill: none; stroke: #d3d3d3"/>
    <path d="M 262.20339 134.616985 
L 97.613111 177.337789 
" clip-path="url(#p7287ac4832)" style="fill: none; stroke: #d3d3d3"/>
    <path d="M 262.20339 134.616985 
L 59.618523 197.6923 
" clip-path="url(#p7287ac4832)" style="fill: none; stroke: #d3d3d3"/>
    <path d="M 262.20339 134.616985 
L 159.941853 257.914346 
" clip-path="url(#p7287ac4832)" style="fill: none; stroke: #d3d3d3"/>
    <path d="M 262.20339 134.616985 
L 125.267339 94.946473 
" clip-path="url(#p7287ac4832)" style="fill: none; stroke: #d3d3d3"/>
    <path d="M 262.20339 134.616985 
L 82.053692 131.516415 
" clip-path="url(#p7287ac4832)" style="fill: none; stroke: #d3d3d3"/>
    <path d="M 262.20339 134.616985 
L 370.648098 59.246445 
" clip-path="url(#p7287ac4832)" style="fill: none; stroke: #d3d3d3"/>
    <path d="M 262.20339 134.616985 
L 375.050105 308.320301 
" clip-path="url(#p7287ac4832)" style="fill: none; stroke: #d3d3d3"/>
    <path d="M 262.20339 134.616985 
L 437.421301 161.504868 
" clip-path="url(#p7287ac4832)" style="fill: none; stroke: #d3d3d3"/>
    <path d="M 262.20339 134.616985 
L 441.764003 122.640859 
" clip-path="url(#p7287ac4832)" style="fill: none; stroke: #d3d3d3"/>
    <path d="M 356.528433 168.40379 
L 234.721043 246.049865 
" clip-path="url(#p7287ac4832)" style="fill: none; stroke: #d3d3d3"/>
    <path d="M 356.528433 168.40379 
L 144.803499 202.54037 
" clip-path="url(#p7287ac4832)" style="fill: none; stroke: #d3d3d3"/>
    <path d="M 356.528433 168.40379 
L 115.769942 250.552739 
" clip-path="url(#p7287ac4832)" style="fill: none; stroke: #d3d3d3"/>
    <path d="M 356.528433 168.40379 
L 159.941853 257.914346 
" clip-path="url(#p7287ac4832)" style="fill: none; stroke: #d3d3d3"/>
    <path d="M 356.528433 168.40379 
L 148.935526 123.707313 
" clip-path="url(#p7287ac4832)" style="fill: none; stroke: #d3d3d3"/>
    <path d="M 356.528433 168.40379 
L 199.316121 126.908045 
" clip-path="url(#p7287ac4832)" style="fill: none; stroke: #d3d3d3"/>
    <path d="M 356.528433 168.40379 
L 370.648098 59.246445 
" clip-path="url(#p7287ac4832)" style="fill: none; stroke: #d3d3d3"/>
    <path d="M 356.528433 168.40379 
L 423.921032 278.08385 
" clip-path="url(#p7287ac4832)" style="fill: none; stroke: #d3d3d3"/>
    <path d="M 356.528433 168.40379 
L 460.264463 262.37599 
" clip-path="url(#p7287ac4832)" style="fill: none; stroke: #d3d3d3"/>
    <path d="M 356.528433 168.40379 
L 441.764003 122.640859 
" clip-path="url(#p7287ac4832)" style="fill: none; stroke: #d3d3d3"/>
    <path d="M 234.721043 246.049865 
L 253.130153 43.681644 
" clip-path="url(#p7287ac4832)" style="fill: none; stroke: #d3d3d3"/>
    <path d="M 234.721043 246.049865 
L 286.922649 59.950394 
" clip-path="url(#p7287ac4832)" style="fill: none; stroke: #d3d3d3"/>
    <path d="M 234.721043 246.049865 
L 188.577789 74.059156 
" clip-path="url(#p7287ac4832)" style="fill: none; stroke: #d3d3d3"/>
    <path d="M 234.721043 246.049865 
L 236.708886 79.274547 
" clip-path="url(#p7287ac4832)" style="fill: none; stroke: #d3d3d3"/>
    <path d="M 234.721043 246.049865 
L 209.50715 37.487603 
" clip-path="url(#p7287ac4832)" style="fill: none; stroke: #d3d3d3"/>
    <path d="M 234.721043 246.049865 
L 43.735537 292.229554 
" clip-path="url(#p7287ac4832)" style="fill: none; stroke: #d3d3d3"/>
    <path d="M 234.721043 246.049865 
L 148.175124 350.011751 
" clip-path="url(#p7287ac4832)" style="fill: none; stroke: #d3d3d3"/>
    <path d="M 234.721043 246.049865 
L 97.315978 349.990239 
" clip-path="url(#p7287ac4832)" style="fill: none; stroke: #d3d3d3"/>
    <path d="M 234.721043 246.049865 
L 86.520477 320.085486 
" clip-path="url(#p7287ac4832)" style="fill: none; stroke: #d3d3d3"/>
    <path d="M 234.721043 246.049865 
L 179.317575 365.779219 
" clip-path="url(#p7287ac4832)" style="fill: none; stroke: #d3d3d3"/>
    <path d="M 234.721043 246.049865 
L 234.938017 386.275368 
" clip-path="url(#p7287ac4832)" style="fill: none; stroke: #d3d3d3"/>
    <path d="M 234.721043 246.049865 
L 327.134479 375.290662 
" clip-path="url(#p7287ac4832)" style="fill: none; stroke: #d3d3d3"/>
    <path d="M 234.721043 246.049865 
L 277.666631 394.512397 
" clip-path="url(#p7287ac4832)" style="fill: none; stroke: #d3d3d3"/>
    <path d="M 234.721043 246.049865 
L 366.369136 368.964621 
" clip-path="url(#p7287ac4832)" style="fill: none; stroke: #d3d3d3"/>
    <path d="M 234.721043 246.049865 
L 447.081041 215.450119 
" clip-path="url(#p7287ac4832)" style="fill: none; stroke: #d3d3d3"/>
    <path d="M 97.613111 177.337789 
L 300.52378 219.277422 
" clip-path="url(#p7287ac4832)" style="fill: none; stroke: #d3d3d3"/>
    <path d="M 97.613111 177.337789 
L 341.392176 93.690354 
" clip-path="url(#p7287ac4832)" style="fill: none; stroke: #d3d3d3"/>
    <path d="M 97.613111 177.337789 
L 199.316121 126.908045 
" clip-path="url(#p7287ac4832)" style="fill: none; stroke: #d3d3d3"/>
    <path d="M 97.613111 177.337789 
L 148.175124 350.011751 
" clip-path="url(#p7287ac4832)" style="fill: none; stroke: #d3d3d3"/>
    <path d="M 97.613111 177.337789 
L 86.520477 320.085486 
" clip-path="url(#p7287ac4832)" style="fill: none; stroke: #d3d3d3"/>
    <path d="M 97.613111 177.337789 
L 86.77949 96.167027 
" clip-path="url(#p7287ac4832)" style="fill: none; stroke: #d3d3d3"/>
    <path d="M 91.163032 221.789618 
L 300.52378 219.277422 
" clip-path="url(#p7287ac4832)" style="fill: none; stroke: #d3d3d3"/>
    <path d="M 91.163032 221.789618 
L 125.267339 94.946473 
" clip-path="url(#p7287ac4832)" style="fill: none; stroke: #d3d3d3"/>
    <path d="M 91.163032 221.789618 
L 148.935526 123.707313 
" clip-path="url(#p7287ac4832)" style="fill: none; stroke: #d3d3d3"/>
    <path d="M 91.163032 221.789618 
L 43.735537 292.229554 
" clip-path="url(#p7287ac4832)" style="fill: none; stroke: #d3d3d3"/>
    <path d="M 91.163032 221.789618 
L 97.315978 349.990239 
" clip-path="url(#p7287ac4832)" style="fill: none; stroke: #d3d3d3"/>
    <path d="M 91.163032 221.789618 
L 86.77949 96.167027 
" clip-path="url(#p7287ac4832)" style="fill: none; stroke: #d3d3d3"/>
    <path d="M 144.803499 202.54037 
L 300.52378 219.277422 
" clip-path="url(#p7287ac4832)" style="fill: none; stroke: #d3d3d3"/>
    <path d="M 144.803499 202.54037 
L 341.392176 93.690354 
" clip-path="url(#p7287ac4832)" style="fill: none; stroke: #d3d3d3"/>
    <path d="M 144.803499 202.54037 
L 82.053692 131.516415 
" clip-path="url(#p7287ac4832)" style="fill: none; stroke: #d3d3d3"/>
    <path d="M 144.803499 202.54037 
L 148.175124 350.011751 
" clip-path="url(#p7287ac4832)" style="fill: none; stroke: #d3d3d3"/>
    <path d="M 144.803499 202.54037 
L 179.317575 365.779219 
" clip-path="url(#p7287ac4832)" style="fill: none; stroke: #d3d3d3"/>
    <path d="M 144.803499 202.54037 
L 86.77949 96.167027 
" clip-path="url(#p7287ac4832)" style="fill: none; stroke: #d3d3d3"/>
    <path d="M 115.769942 250.552739 
L 300.52378 219.277422 
" clip-path="url(#p7287ac4832)" style="fill: none; stroke: #d3d3d3"/>
    <path d="M 115.769942 250.552739 
L 125.267339 94.946473 
" clip-path="url(#p7287ac4832)" style="fill: none; stroke: #d3d3d3"/>
    <path d="M 115.769942 250.552739 
L 82.053692 131.516415 
" clip-path="url(#p7287ac4832)" style="fill: none; stroke: #d3d3d3"/>
    <path d="M 115.769942 250.552739 
L 43.735537 292.229554 
" clip-path="url(#p7287ac4832)" style="fill: none; stroke: #d3d3d3"/>
    <path d="M 115.769942 250.552739 
L 179.317575 365.779219 
" clip-path="url(#p7287ac4832)" style="fill: none; stroke: #d3d3d3"/>
    <path d="M 115.769942 250.552739 
L 86.77949 96.167027 
" clip-path="url(#p7287ac4832)" style="fill: none; stroke: #d3d3d3"/>
    <path d="M 59.618523 197.6923 
L 300.52378 219.277422 
" clip-path="url(#p7287ac4832)" style="fill: none; stroke: #d3d3d3"/>
    <path d="M 59.618523 197.6923 
L 148.935526 123.707313 
" clip-path="url(#p7287ac4832)" style="fill: none; stroke: #d3d3d3"/>
    <path d="M 59.618523 197.6923 
L 199.316121 126.908045 
" clip-path="url(#p7287ac4832)" style="fill: none; stroke: #d3d3d3"/>
    <path d="M 59.618523 197.6923 
L 97.315978 349.990239 
" clip-path="url(#p7287ac4832)" style="fill: none; stroke: #d3d3d3"/>
    <path d="M 59.618523 197.6923 
L 86.520477 320.085486 
" clip-path="url(#p7287ac4832)" style="fill: none; stroke: #d3d3d3"/>
    <path d="M 59.618523 197.6923 
L 86.77949 96.167027 
" clip-path="url(#p7287ac4832)" style="fill: none; stroke: #d3d3d3"/>
    <path d="M 253.130153 43.681644 
L 300.52378 219.277422 
" clip-path="url(#p7287ac4832)" style="fill: none; stroke: #d3d3d3"/>
    <path d="M 253.130153 43.681644 
L 341.392176 93.690354 
" clip-path="url(#p7287ac4832)" style="fill: none; stroke: #d3d3d3"/>
    <path d="M 253.130153 43.681644 
L 199.316121 126.908045 
" clip-path="url(#p7287ac4832)" style="fill: none; stroke: #d3d3d3"/>
    <path d="M 253.130153 43.681644 
L 370.648098 59.246445 
" clip-path="url(#p7287ac4832)" style="fill: none; stroke: #d3d3d3"/>
    <path d="M 253.130153 43.681644 
L 86.77949 96.167027 
" clip-path="url(#p7287ac4832)" style="fill: none; stroke: #d3d3d3"/>
    <path d="M 286.922649 59.950394 
L 300.52378 219.277422 
" clip-path="url(#p7287ac4832)" style="fill: none; stroke: #d3d3d3"/>
    <path d="M 286.922649 59.950394 
L 125.267339 94.946473 
" clip-path="url(#p7287ac4832)" style="fill: none; stroke: #d3d3d3"/>
    <path d="M 286.922649 59.950394 
L 148.935526 123.707313 
" clip-path="url(#p7287ac4832)" style="fill: none; stroke: #d3d3d3"/>
    <path d="M 286.922649 59.950394 
L 370.648098 59.246445 
" clip-path="url(#p7287ac4832)" style="fill: none; stroke: #d3d3d3"/>
    <path d="M 286.922649 59.950394 
L 86.77949 96.167027 
" clip-path="url(#p7287ac4832)" style="fill: none; stroke: #d3d3d3"/>
    <path d="M 188.577789 74.059156 
L 300.52378 219.277422 
" clip-path="url(#p7287ac4832)" style="fill: none; stroke: #d3d3d3"/>
    <path d="M 188.577789 74.059156 
L 341.392176 93.690354 
" clip-path="url(#p7287ac4832)" style="fill: none; stroke: #d3d3d3"/>
    <path d="M 188.577789 74.059156 
L 82.053692 131.516415 
" clip-path="url(#p7287ac4832)" style="fill: none; stroke: #d3d3d3"/>
    <path d="M 188.577789 74.059156 
L 370.648098 59.246445 
" clip-path="url(#p7287ac4832)" style="fill: none; stroke: #d3d3d3"/>
    <path d="M 188.577789 74.059156 
L 86.77949 96.167027 
" clip-path="url(#p7287ac4832)" style="fill: none; stroke: #d3d3d3"/>
    <path d="M 236.708886 79.274547 
L 300.52378 219.277422 
" clip-path="url(#p7287ac4832)" style="fill: none; stroke: #d3d3d3"/>
    <path d="M 236.708886 79.274547 
L 125.267339 94.946473 
" clip-path="url(#p7287ac4832)" style="fill: none; stroke: #d3d3d3"/>
    <path d="M 236.708886 79.274547 
L 82.053692 131.516415 
" clip-path="url(#p7287ac4832)" style="fill: none; stroke: #d3d3d3"/>
    <path d="M 236.708886 79.274547 
L 370.648098 59.246445 
" clip-path="url(#p7287ac4832)" style="fill: none; stroke: #d3d3d3"/>
    <path d="M 236.708886 79.274547 
L 86.77949 96.167027 
" clip-path="url(#p7287ac4832)" style="fill: none; stroke: #d3d3d3"/>
    <path d="M 209.50715 37.487603 
L 300.52378 219.277422 
" clip-path="url(#p7287ac4832)" style="fill: none; stroke: #d3d3d3"/>
    <path d="M 209.50715 37.487603 
L 148.935526 123.707313 
" clip-path="url(#p7287ac4832)" style="fill: none; stroke: #d3d3d3"/>
    <path d="M 209.50715 37.487603 
L 199.316121 126.908045 
" clip-path="url(#p7287ac4832)" style="fill: none; stroke: #d3d3d3"/>
    <path d="M 209.50715 37.487603 
L 370.648098 59.246445 
" clip-path="url(#p7287ac4832)" style="fill: none; stroke: #d3d3d3"/>
    <path d="M 209.50715 37.487603 
L 86.77949 96.167027 
" clip-path="url(#p7287ac4832)" style="fill: none; stroke: #d3d3d3"/>
    <path d="M 159.941853 257.914346 
L 300.52378 219.277422 
" clip-path="url(#p7287ac4832)" style="fill: none; stroke: #d3d3d3"/>
    <path d="M 159.941853 257.914346 
L 43.735537 292.229554 
" clip-path="url(#p7287ac4832)" style="fill: none; stroke: #d3d3d3"/>
    <path d="M 159.941853 257.914346 
L 148.175124 350.011751 
" clip-path="url(#p7287ac4832)" style="fill: none; stroke: #d3d3d3"/>
    <path d="M 159.941853 257.914346 
L 97.315978 349.990239 
" clip-path="url(#p7287ac4832)" style="fill: none; stroke: #d3d3d3"/>
    <path d="M 159.941853 257.914346 
L 86.520477 320.085486 
" clip-path="url(#p7287ac4832)" style="fill: none; stroke: #d3d3d3"/>
    <path d="M 159.941853 257.914346 
L 179.317575 365.779219 
" clip-path="url(#p7287ac4832)" style="fill: none; stroke: #d3d3d3"/>
    <path d="M 159.941853 257.914346 
L 86.77949 96.167027 
" clip-path="url(#p7287ac4832)" style="fill: none; stroke: #d3d3d3"/>
    <path d="M 300.52378 219.277422 
L 375.050105 308.320301 
" clip-path="url(#p7287ac4832)" style="fill: none; stroke: #d3d3d3"/>
    <path d="M 300.52378 219.277422 
L 425.295444 311.424535 
" clip-path="url(#p7287ac4832)" style="fill: none; stroke: #d3d3d3"/>
    <path d="M 300.52378 219.277422 
L 423.921032 278.08385 
" clip-path="url(#p7287ac4832)" style="fill: none; stroke: #d3d3d3"/>
    <path d="M 300.52378 219.277422 
L 460.264463 262.37599 
" clip-path="url(#p7287ac4832)" style="fill: none; stroke: #d3d3d3"/>
    <path d="M 300.52378 219.277422 
L 437.421301 161.504868 
" clip-path="url(#p7287ac4832)" style="fill: none; stroke: #d3d3d3"/>
    <path d="M 300.52378 219.277422 
L 234.938017 386.275368 
" clip-path="url(#p7287ac4832)" style="fill: none; stroke: #d3d3d3"/>
    <path d="M 300.52378 219.277422 
L 327.134479 375.290662 
" clip-path="url(#p7287ac4832)" style="fill: none; stroke: #d3d3d3"/>
    <path d="M 300.52378 219.277422 
L 277.666631 394.512397 
" clip-path="url(#p7287ac4832)" style="fill: none; stroke: #d3d3d3"/>
    <path d="M 300.52378 219.277422 
L 366.369136 368.964621 
" clip-path="url(#p7287ac4832)" style="fill: none; stroke: #d3d3d3"/>
    <path d="M 300.52378 219.277422 
L 447.081041 215.450119 
" clip-path="url(#p7287ac4832)" style="fill: none; stroke: #d3d3d3"/>
    <path d="M 300.52378 219.277422 
L 441.764003 122.640859 
" clip-path="url(#p7287ac4832)" style="fill: none; stroke: #d3d3d3"/>
    <path d="M 125.267339 94.946473 
L 271.892022 256.419426 
" clip-path="url(#p7287ac4832)" style="fill: none; stroke: #d3d3d3"/>
    <path d="M 341.392176 93.690354 
L 271.892022 256.419426 
" clip-path="url(#p7287ac4832)" style="fill: none; stroke: #d3d3d3"/>
    <path d="M 148.935526 123.707313 
L 271.892022 256.419426 
" clip-path="url(#p7287ac4832)" style="fill: none; stroke: #d3d3d3"/>
    <path d="M 199.316121 126.908045 
L 271.892022 256.419426 
" clip-path="url(#p7287ac4832)" style="fill: none; stroke: #d3d3d3"/>
    <path d="M 82.053692 131.516415 
L 271.892022 256.419426 
" clip-path="url(#p7287ac4832)" style="fill: none; stroke: #d3d3d3"/>
    <path d="M 43.735537 292.229554 
L 271.892022 256.419426 
" clip-path="url(#p7287ac4832)" style="fill: none; stroke: #d3d3d3"/>
    <path d="M 148.175124 350.011751 
L 271.892022 256.419426 
" clip-path="url(#p7287ac4832)" style="fill: none; stroke: #d3d3d3"/>
    <path d="M 97.315978 349.990239 
L 271.892022 256.419426 
" clip-path="url(#p7287ac4832)" style="fill: none; stroke: #d3d3d3"/>
    <path d="M 86.520477 320.085486 
L 271.892022 256.419426 
" clip-path="url(#p7287ac4832)" style="fill: none; stroke: #d3d3d3"/>
    <path d="M 179.317575 365.779219 
L 271.892022 256.419426 
" clip-path="url(#p7287ac4832)" style="fill: none; stroke: #d3d3d3"/>
    <path d="M 370.648098 59.246445 
L 271.892022 256.419426 
" clip-path="url(#p7287ac4832)" style="fill: none; stroke: #d3d3d3"/>
    <path d="M 375.050105 308.320301 
L 271.892022 256.419426 
" clip-path="url(#p7287ac4832)" style="fill: none; stroke: #d3d3d3"/>
    <path d="M 425.295444 311.424535 
L 271.892022 256.419426 
" clip-path="url(#p7287ac4832)" style="fill: none; stroke: #d3d3d3"/>
    <path d="M 423.921032 278.08385 
L 271.892022 256.419426 
" clip-path="url(#p7287ac4832)" style="fill: none; stroke: #d3d3d3"/>
    <path d="M 460.264463 262.37599 
L 271.892022 256.419426 
" clip-path="url(#p7287ac4832)" style="fill: none; stroke: #d3d3d3"/>
    <path d="M 437.421301 161.504868 
L 271.892022 256.419426 
" clip-path="url(#p7287ac4832)" style="fill: none; stroke: #d3d3d3"/>
    <path d="M 234.938017 386.275368 
L 271.892022 256.419426 
" clip-path="url(#p7287ac4832)" style="fill: none; stroke: #d3d3d3"/>
    <path d="M 327.134479 375.290662 
L 271.892022 256.419426 
" clip-path="url(#p7287ac4832)" style="fill: none; stroke: #d3d3d3"/>
    <path d="M 277.666631 394.512397 
L 271.892022 256.419426 
" clip-path="url(#p7287ac4832)" style="fill: none; stroke: #d3d3d3"/>
    <path d="M 366.369136 368.964621 
L 271.892022 256.419426 
" clip-path="url(#p7287ac4832)" style="fill: none; stroke: #d3d3d3"/>
    <path d="M 447.081041 215.450119 
L 271.892022 256.419426 
" clip-path="url(#p7287ac4832)" style="fill: none; stroke: #d3d3d3"/>
    <path d="M 441.764003 122.640859 
L 271.892022 256.419426 
" clip-path="url(#p7287ac4832)" style="fill: none; stroke: #d3d3d3"/>
    <path d="M 86.77949 96.167027 
L 271.892022 256.419426 
" clip-path="url(#p7287ac4832)" style="fill: none; stroke: #d3d3d3"/>
   </g>
   <g id="PathCollection_1">
    <defs>
     <path id="C0_0_6af9156770" d="M 0 5 
C 1.326016 5 2.597899 4.473168 3.535534 3.535534 
C 4.473168 2.597899 5 1.326016 5 -0 
C 5 -1.326016 4.473168 -2.597899 3.535534 -3.535534 
C 2.597899 -4.473168 1.326016 -5 0 -5 
C -1.326016 -5 -2.597899 -4.473168 -3.535534 -3.535534 
C -4.473168 -2.597899 -5 -1.326016 -5 0 
C -5 1.326016 -4.473168 2.597899 -3.535534 3.535534 
C -2.597899 4.473168 -1.326016 5 0 5 
z
"/>
    </defs>
    <g clip-path="url(#p7287ac4832)">
     <use xlink:href="#C0_0_6af9156770" x="303.754821" y="264.72672" style="fill: #8000ff; stroke: #8000ff"/>
    </g>
    <g clip-path="url(#p7287ac4832)">
     <use xlink:href="#C0_0_6af9156770" x="196.332455" y="271.1898" style="fill: #1996f3; stroke: #1996f3"/>
    </g>
    <g clip-path="url(#p7287ac4832)">
     <use xlink:href="#C0_0_6af9156770" x="268.546784" y="212.279932" style="fill: #4df3ce; stroke: #4df3ce"/>
    </g>
    <g clip-path="url(#p7287ac4832)">
     <use xlink:href="#C0_0_6af9156770" x="217.41202" y="200.030749" style="fill: #b2f396; stroke: #b2f396"/>
    </g>
    <g clip-path="url(#p7287ac4832)">
     <use xlink:href="#C0_0_6af9156770" x="244.531698" y="289.028067" style="fill: #8000ff; stroke: #8000ff"/>
    </g>
    <g clip-path="url(#p7287ac4832)">
     <use xlink:href="#C0_0_6af9156770" x="357.638444" y="212.803843" style="fill: #8000ff; stroke: #8000ff"/>
    </g>
    <g clip-path="url(#p7287ac4832)">
     <use xlink:href="#C0_0_6af9156770" x="325.356343" y="141.045005" style="fill: #1996f3; stroke: #1996f3"/>
    </g>
    <g clip-path="url(#p7287ac4832)">
     <use xlink:href="#C0_0_6af9156770" x="288.033024" y="163.145522" style="fill: #4df3ce; stroke: #4df3ce"/>
    </g>
    <g clip-path="url(#p7287ac4832)">
     <use xlink:href="#C0_0_6af9156770" x="262.20339" y="134.616985" style="fill: #1996f3; stroke: #1996f3"/>
    </g>
    <g clip-path="url(#p7287ac4832)">
     <use xlink:href="#C0_0_6af9156770" x="356.528433" y="168.40379" style="fill: #8000ff; stroke: #8000ff"/>
    </g>
    <g clip-path="url(#p7287ac4832)">
     <use xlink:href="#C0_0_6af9156770" x="234.721043" y="246.049865" style="fill: #b2f396; stroke: #b2f396"/>
    </g>
    <g clip-path="url(#p7287ac4832)">
     <use xlink:href="#C0_0_6af9156770" x="97.613111" y="177.337789" style="fill: #ff964f; stroke: #ff964f"/>
    </g>
    <g clip-path="url(#p7287ac4832)">
     <use xlink:href="#C0_0_6af9156770" x="91.163032" y="221.789618" style="fill: #ff964f; stroke: #ff964f"/>
    </g>
    <g clip-path="url(#p7287ac4832)">
     <use xlink:href="#C0_0_6af9156770" x="144.803499" y="202.54037" style="fill: #b2f396; stroke: #b2f396"/>
    </g>
    <g clip-path="url(#p7287ac4832)">
     <use xlink:href="#C0_0_6af9156770" x="115.769942" y="250.552739" style="fill: #ff964f; stroke: #ff964f"/>
    </g>
    <g clip-path="url(#p7287ac4832)">
     <use xlink:href="#C0_0_6af9156770" x="59.618523" y="197.6923" style="fill: #ff964f; stroke: #ff964f"/>
    </g>
    <g clip-path="url(#p7287ac4832)">
     <use xlink:href="#C0_0_6af9156770" x="253.130153" y="43.681644" style="fill: #ff964f; stroke: #ff964f"/>
    </g>
    <g clip-path="url(#p7287ac4832)">
     <use xlink:href="#C0_0_6af9156770" x="286.922649" y="59.950394" style="fill: #ff964f; stroke: #ff964f"/>
    </g>
    <g clip-path="url(#p7287ac4832)">
     <use xlink:href="#C0_0_6af9156770" x="188.577789" y="74.059156" style="fill: #ff964f; stroke: #ff964f"/>
    </g>
    <g clip-path="url(#p7287ac4832)">
     <use xlink:href="#C0_0_6af9156770" x="236.708886" y="79.274547" style="fill: #ff964f; stroke: #ff964f"/>
    </g>
    <g clip-path="url(#p7287ac4832)">
     <use xlink:href="#C0_0_6af9156770" x="209.50715" y="37.487603" style="fill: #ff964f; stroke: #ff964f"/>
    </g>
    <g clip-path="url(#p7287ac4832)">
     <use xlink:href="#C0_0_6af9156770" x="159.941853" y="257.914346" style="fill: #ff964f; stroke: #ff964f"/>
    </g>
    <g clip-path="url(#p7287ac4832)">
     <use xlink:href="#C0_0_6af9156770" x="300.52378" y="219.277422" style="fill: #8000ff; stroke: #8000ff"/>
    </g>
    <g clip-path="url(#p7287ac4832)">
     <use xlink:href="#C0_0_6af9156770" x="125.267339" y="94.946473" style="fill: #ff0000; stroke: #ff0000"/>
    </g>
    <g clip-path="url(#p7287ac4832)">
     <use xlink:href="#C0_0_6af9156770" x="341.392176" y="93.690354" style="fill: #ff0000; stroke: #ff0000"/>
    </g>
    <g clip-path="url(#p7287ac4832)">
     <use xlink:href="#C0_0_6af9156770" x="148.935526" y="123.707313" style="fill: #ff0000; stroke: #ff0000"/>
    </g>
    <g clip-path="url(#p7287ac4832)">
     <use xlink:href="#C0_0_6af9156770" x="199.316121" y="126.908045" style="fill: #ff0000; stroke: #ff0000"/>
    </g>
    <g clip-path="url(#p7287ac4832)">
     <use xlink:href="#C0_0_6af9156770" x="82.053692" y="131.516415" style="fill: #8000ff; stroke: #8000ff"/>
    </g>
    <g clip-path="url(#p7287ac4832)">
     <use xlink:href="#C0_0_6af9156770" x="43.735537" y="292.229554" style="fill: #ff0000; stroke: #ff0000"/>
    </g>
    <g clip-path="url(#p7287ac4832)">
     <use xlink:href="#C0_0_6af9156770" x="148.175124" y="350.011751" style="fill: #ff0000; stroke: #ff0000"/>
    </g>
    <g clip-path="url(#p7287ac4832)">
     <use xlink:href="#C0_0_6af9156770" x="97.315978" y="349.990239" style="fill: #ff0000; stroke: #ff0000"/>
    </g>
    <g clip-path="url(#p7287ac4832)">
     <use xlink:href="#C0_0_6af9156770" x="86.520477" y="320.085486" style="fill: #ff0000; stroke: #ff0000"/>
    </g>
    <g clip-path="url(#p7287ac4832)">
     <use xlink:href="#C0_0_6af9156770" x="179.317575" y="365.779219" style="fill: #8000ff; stroke: #8000ff"/>
    </g>
    <g clip-path="url(#p7287ac4832)">
     <use xlink:href="#C0_0_6af9156770" x="370.648098" y="59.246445" style="fill: #ff0000; stroke: #ff0000"/>
    </g>
    <g clip-path="url(#p7287ac4832)">
     <use xlink:href="#C0_0_6af9156770" x="375.050105" y="308.320301" style="fill: #4df3ce; stroke: #4df3ce"/>
    </g>
    <g clip-path="url(#p7287ac4832)">
     <use xlink:href="#C0_0_6af9156770" x="425.295444" y="311.424535" style="fill: #ff0000; stroke: #ff0000"/>
    </g>
    <g clip-path="url(#p7287ac4832)">
     <use xlink:href="#C0_0_6af9156770" x="423.921032" y="278.08385" style="fill: #ff0000; stroke: #ff0000"/>
    </g>
    <g clip-path="url(#p7287ac4832)">
     <use xlink:href="#C0_0_6af9156770" x="460.264463" y="262.37599" style="fill: #ff0000; stroke: #ff0000"/>
    </g>
    <g clip-path="url(#p7287ac4832)">
     <use xlink:href="#C0_0_6af9156770" x="437.421301" y="161.504868" style="fill: #ff0000; stroke: #ff0000"/>
    </g>
    <g clip-path="url(#p7287ac4832)">
     <use xlink:href="#C0_0_6af9156770" x="234.938017" y="386.275368" style="fill: #ff0000; stroke: #ff0000"/>
    </g>
    <g clip-path="url(#p7287ac4832)">
     <use xlink:href="#C0_0_6af9156770" x="327.134479" y="375.290662" style="fill: #ff0000; stroke: #ff0000"/>
    </g>
    <g clip-path="url(#p7287ac4832)">
     <use xlink:href="#C0_0_6af9156770" x="277.666631" y="394.512397" style="fill: #ff0000; stroke: #ff0000"/>
    </g>
    <g clip-path="url(#p7287ac4832)">
     <use xlink:href="#C0_0_6af9156770" x="366.369136" y="368.964621" style="fill: #ff0000; stroke: #ff0000"/>
    </g>
    <g clip-path="url(#p7287ac4832)">
     <use xlink:href="#C0_0_6af9156770" x="447.081041" y="215.450119" style="fill: #ff0000; stroke: #ff0000"/>
    </g>
    <g clip-path="url(#p7287ac4832)">
     <use xlink:href="#C0_0_6af9156770" x="441.764003" y="122.640859" style="fill: #ff0000; stroke: #ff0000"/>
    </g>
    <g clip-path="url(#p7287ac4832)">
     <use xlink:href="#C0_0_6af9156770" x="86.77949" y="96.167027" style="fill: #4df3ce; stroke: #4df3ce"/>
    </g>
    <g clip-path="url(#p7287ac4832)">
     <use xlink:href="#C0_0_6af9156770" x="271.892022" y="256.419426" style="fill: #ff964f; stroke: #ff964f"/>
    </g>
   </g>
   <g id="text_1">
    <!-- Colored Graph - myciel5 -->
    <g transform="translate(179.14125 -6) scale(0.12 -0.12)">
     <defs>
      <path id="DejaVuSans-43" d="M 4122 4306 
L 4122 3641 
Q 3803 3938 3442 4084 
Q 3081 4231 2675 4231 
Q 1875 4231 1450 3742 
Q 1025 3253 1025 2328 
Q 1025 1406 1450 917 
Q 1875 428 2675 428 
Q 3081 428 3442 575 
Q 3803 722 4122 1019 
L 4122 359 
Q 3791 134 3420 21 
Q 3050 -91 2638 -91 
Q 1578 -91 968 557 
Q 359 1206 359 2328 
Q 359 3453 968 4101 
Q 1578 4750 2638 4750 
Q 3056 4750 3426 4639 
Q 3797 4528 4122 4306 
z
" transform="scale(0.015625)"/>
      <path id="DejaVuSans-6f" d="M 1959 3097 
Q 1497 3097 1228 2736 
Q 959 2375 959 1747 
Q 959 1119 1226 758 
Q 1494 397 1959 397 
Q 2419 397 2687 759 
Q 2956 1122 2956 1747 
Q 2956 2369 2687 2733 
Q 2419 3097 1959 3097 
z
M 1959 3584 
Q 2709 3584 3137 3096 
Q 3566 2609 3566 1747 
Q 3566 888 3137 398 
Q 2709 -91 1959 -91 
Q 1206 -91 779 398 
Q 353 888 353 1747 
Q 353 2609 779 3096 
Q 1206 3584 1959 3584 
z
" transform="scale(0.015625)"/>
      <path id="DejaVuSans-6c" d="M 603 4863 
L 1178 4863 
L 1178 0 
L 603 0 
L 603 4863 
z
" transform="scale(0.015625)"/>
      <path id="DejaVuSans-72" d="M 2631 2963 
Q 2534 3019 2420 3045 
Q 2306 3072 2169 3072 
Q 1681 3072 1420 2755 
Q 1159 2438 1159 1844 
L 1159 0 
L 581 0 
L 581 3500 
L 1159 3500 
L 1159 2956 
Q 1341 3275 1631 3429 
Q 1922 3584 2338 3584 
Q 2397 3584 2469 3576 
Q 2541 3569 2628 3553 
L 2631 2963 
z
" transform="scale(0.015625)"/>
      <path id="DejaVuSans-65" d="M 3597 1894 
L 3597 1613 
L 953 1613 
Q 991 1019 1311 708 
Q 1631 397 2203 397 
Q 2534 397 2845 478 
Q 3156 559 3463 722 
L 3463 178 
Q 3153 47 2828 -22 
Q 2503 -91 2169 -91 
Q 1331 -91 842 396 
Q 353 884 353 1716 
Q 353 2575 817 3079 
Q 1281 3584 2069 3584 
Q 2775 3584 3186 3129 
Q 3597 2675 3597 1894 
z
M 3022 2063 
Q 3016 2534 2758 2815 
Q 2500 3097 2075 3097 
Q 1594 3097 1305 2825 
Q 1016 2553 972 2059 
L 3022 2063 
z
" transform="scale(0.015625)"/>
      <path id="DejaVuSans-64" d="M 2906 2969 
L 2906 4863 
L 3481 4863 
L 3481 0 
L 2906 0 
L 2906 525 
Q 2725 213 2448 61 
Q 2172 -91 1784 -91 
Q 1150 -91 751 415 
Q 353 922 353 1747 
Q 353 2572 751 3078 
Q 1150 3584 1784 3584 
Q 2172 3584 2448 3432 
Q 2725 3281 2906 2969 
z
M 947 1747 
Q 947 1113 1208 752 
Q 1469 391 1925 391 
Q 2381 391 2643 752 
Q 2906 1113 2906 1747 
Q 2906 2381 2643 2742 
Q 2381 3103 1925 3103 
Q 1469 3103 1208 2742 
Q 947 2381 947 1747 
z
" transform="scale(0.015625)"/>
      <path id="DejaVuSans-20" transform="scale(0.015625)"/>
      <path id="DejaVuSans-47" d="M 3809 666 
L 3809 1919 
L 2778 1919 
L 2778 2438 
L 4434 2438 
L 4434 434 
Q 4069 175 3628 42 
Q 3188 -91 2688 -91 
Q 1594 -91 976 548 
Q 359 1188 359 2328 
Q 359 3472 976 4111 
Q 1594 4750 2688 4750 
Q 3144 4750 3555 4637 
Q 3966 4525 4313 4306 
L 4313 3634 
Q 3963 3931 3569 4081 
Q 3175 4231 2741 4231 
Q 1884 4231 1454 3753 
Q 1025 3275 1025 2328 
Q 1025 1384 1454 906 
Q 1884 428 2741 428 
Q 3075 428 3337 486 
Q 3600 544 3809 666 
z
" transform="scale(0.015625)"/>
      <path id="DejaVuSans-61" d="M 2194 1759 
Q 1497 1759 1228 1600 
Q 959 1441 959 1056 
Q 959 750 1161 570 
Q 1363 391 1709 391 
Q 2188 391 2477 730 
Q 2766 1069 2766 1631 
L 2766 1759 
L 2194 1759 
z
M 3341 1997 
L 3341 0 
L 2766 0 
L 2766 531 
Q 2569 213 2275 61 
Q 1981 -91 1556 -91 
Q 1019 -91 701 211 
Q 384 513 384 1019 
Q 384 1609 779 1909 
Q 1175 2209 1959 2209 
L 2766 2209 
L 2766 2266 
Q 2766 2663 2505 2880 
Q 2244 3097 1772 3097 
Q 1472 3097 1187 3025 
Q 903 2953 641 2809 
L 641 3341 
Q 956 3463 1253 3523 
Q 1550 3584 1831 3584 
Q 2591 3584 2966 3190 
Q 3341 2797 3341 1997 
z
" transform="scale(0.015625)"/>
      <path id="DejaVuSans-70" d="M 1159 525 
L 1159 -1331 
L 581 -1331 
L 581 3500 
L 1159 3500 
L 1159 2969 
Q 1341 3281 1617 3432 
Q 1894 3584 2278 3584 
Q 2916 3584 3314 3078 
Q 3713 2572 3713 1747 
Q 3713 922 3314 415 
Q 2916 -91 2278 -91 
Q 1894 -91 1617 61 
Q 1341 213 1159 525 
z
M 3116 1747 
Q 3116 2381 2855 2742 
Q 2594 3103 2138 3103 
Q 1681 3103 1420 2742 
Q 1159 2381 1159 1747 
Q 1159 1113 1420 752 
Q 1681 391 2138 391 
Q 2594 391 2855 752 
Q 3116 1113 3116 1747 
z
" transform="scale(0.015625)"/>
      <path id="DejaVuSans-68" d="M 3513 2113 
L 3513 0 
L 2938 0 
L 2938 2094 
Q 2938 2591 2744 2837 
Q 2550 3084 2163 3084 
Q 1697 3084 1428 2787 
Q 1159 2491 1159 1978 
L 1159 0 
L 581 0 
L 581 4863 
L 1159 4863 
L 1159 2956 
Q 1366 3272 1645 3428 
Q 1925 3584 2291 3584 
Q 2894 3584 3203 3211 
Q 3513 2838 3513 2113 
z
" transform="scale(0.015625)"/>
      <path id="DejaVuSans-2d" d="M 313 2009 
L 1997 2009 
L 1997 1497 
L 313 1497 
L 313 2009 
z
" transform="scale(0.015625)"/>
      <path id="DejaVuSans-6d" d="M 3328 2828 
Q 3544 3216 3844 3400 
Q 4144 3584 4550 3584 
Q 5097 3584 5394 3201 
Q 5691 2819 5691 2113 
L 5691 0 
L 5113 0 
L 5113 2094 
Q 5113 2597 4934 2840 
Q 4756 3084 4391 3084 
Q 3944 3084 3684 2787 
Q 3425 2491 3425 1978 
L 3425 0 
L 2847 0 
L 2847 2094 
Q 2847 2600 2669 2842 
Q 2491 3084 2119 3084 
Q 1678 3084 1418 2786 
Q 1159 2488 1159 1978 
L 1159 0 
L 581 0 
L 581 3500 
L 1159 3500 
L 1159 2956 
Q 1356 3278 1631 3431 
Q 1906 3584 2284 3584 
Q 2666 3584 2933 3390 
Q 3200 3197 3328 2828 
z
" transform="scale(0.015625)"/>
      <path id="DejaVuSans-79" d="M 2059 -325 
Q 1816 -950 1584 -1140 
Q 1353 -1331 966 -1331 
L 506 -1331 
L 506 -850 
L 844 -850 
Q 1081 -850 1212 -737 
Q 1344 -625 1503 -206 
L 1606 56 
L 191 3500 
L 800 3500 
L 1894 763 
L 2988 3500 
L 3597 3500 
L 2059 -325 
z
" transform="scale(0.015625)"/>
      <path id="DejaVuSans-63" d="M 3122 3366 
L 3122 2828 
Q 2878 2963 2633 3030 
Q 2388 3097 2138 3097 
Q 1578 3097 1268 2742 
Q 959 2388 959 1747 
Q 959 1106 1268 751 
Q 1578 397 2138 397 
Q 2388 397 2633 464 
Q 2878 531 3122 666 
L 3122 134 
Q 2881 22 2623 -34 
Q 2366 -91 2075 -91 
Q 1284 -91 818 406 
Q 353 903 353 1747 
Q 353 2603 823 3093 
Q 1294 3584 2113 3584 
Q 2378 3584 2631 3529 
Q 2884 3475 3122 3366 
z
" transform="scale(0.015625)"/>
      <path id="DejaVuSans-69" d="M 603 3500 
L 1178 3500 
L 1178 0 
L 603 0 
L 603 3500 
z
M 603 4863 
L 1178 4863 
L 1178 4134 
L 603 4134 
L 603 4863 
z
" transform="scale(0.015625)"/>
      <path id="DejaVuSans-35" d="M 691 4666 
L 3169 4666 
L 3169 4134 
L 1269 4134 
L 1269 2991 
Q 1406 3038 1543 3061 
Q 1681 3084 1819 3084 
Q 2600 3084 3056 2656 
Q 3513 2228 3513 1497 
Q 3513 744 3044 326 
Q 2575 -91 1722 -91 
Q 1428 -91 1123 -41 
Q 819 9 494 109 
L 494 744 
Q 775 591 1075 516 
Q 1375 441 1709 441 
Q 2250 441 2565 725 
Q 2881 1009 2881 1497 
Q 2881 1984 2565 2268 
Q 2250 2553 1709 2553 
Q 1456 2553 1204 2497 
Q 953 2441 691 2322 
L 691 4666 
z
" transform="scale(0.015625)"/>
     </defs>
     <use xlink:href="#DejaVuSans-43"/>
     <use xlink:href="#DejaVuSans-6f" transform="translate(69.824219 0)"/>
     <use xlink:href="#DejaVuSans-6c" transform="translate(131.005859 0)"/>
     <use xlink:href="#DejaVuSans-6f" transform="translate(158.789062 0)"/>
     <use xlink:href="#DejaVuSans-72" transform="translate(219.970703 0)"/>
     <use xlink:href="#DejaVuSans-65" transform="translate(258.833984 0)"/>
     <use xlink:href="#DejaVuSans-64" transform="translate(320.357422 0)"/>
     <use xlink:href="#DejaVuSans-20" transform="translate(383.833984 0)"/>
     <use xlink:href="#DejaVuSans-47" transform="translate(415.621094 0)"/>
     <use xlink:href="#DejaVuSans-72" transform="translate(493.111328 0)"/>
     <use xlink:href="#DejaVuSans-61" transform="translate(534.224609 0)"/>
     <use xlink:href="#DejaVuSans-70" transform="translate(595.503906 0)"/>
     <use xlink:href="#DejaVuSans-68" transform="translate(658.980469 0)"/>
     <use xlink:href="#DejaVuSans-20" transform="translate(722.359375 0)"/>
     <use xlink:href="#DejaVuSans-2d" transform="translate(754.146484 0)"/>
     <use xlink:href="#DejaVuSans-20" transform="translate(790.230469 0)"/>
     <use xlink:href="#DejaVuSans-6d" transform="translate(822.017578 0)"/>
     <use xlink:href="#DejaVuSans-79" transform="translate(919.429688 0)"/>
     <use xlink:href="#DejaVuSans-63" transform="translate(978.609375 0)"/>
     <use xlink:href="#DejaVuSans-69" transform="translate(1033.589844 0)"/>
     <use xlink:href="#DejaVuSans-65" transform="translate(1061.373047 0)"/>
     <use xlink:href="#DejaVuSans-6c" transform="translate(1122.896484 0)"/>
     <use xlink:href="#DejaVuSans-35" transform="translate(1150.679688 0)"/>
    </g>
   </g>
   <g id="legend_1">
    <g id="patch_2">
     <path d="M 536.2 110.746875 
L 603.85 110.746875 
Q 605.85 110.746875 605.85 108.746875 
L 605.85 7 
Q 605.85 5 603.85 5 
L 536.2 5 
Q 534.2 5 534.2 7 
L 534.2 108.746875 
Q 534.2 110.746875 536.2 110.746875 
z
" style="fill: #ffffff; opacity: 0.8; stroke: #cccccc; stroke-linejoin: miter"/>
    </g>
    <g id="text_2">
     <!-- Colors -->
     <g transform="translate(554.365625 16.598437) scale(0.1 -0.1)">
      <defs>
       <path id="DejaVuSans-73" d="M 2834 3397 
L 2834 2853 
Q 2591 2978 2328 3040 
Q 2066 3103 1784 3103 
Q 1356 3103 1142 2972 
Q 928 2841 928 2578 
Q 928 2378 1081 2264 
Q 1234 2150 1697 2047 
L 1894 2003 
Q 2506 1872 2764 1633 
Q 3022 1394 3022 966 
Q 3022 478 2636 193 
Q 2250 -91 1575 -91 
Q 1294 -91 989 -36 
Q 684 19 347 128 
L 347 722 
Q 666 556 975 473 
Q 1284 391 1588 391 
Q 1994 391 2212 530 
Q 2431 669 2431 922 
Q 2431 1156 2273 1281 
Q 2116 1406 1581 1522 
L 1381 1569 
Q 847 1681 609 1914 
Q 372 2147 372 2553 
Q 372 3047 722 3315 
Q 1072 3584 1716 3584 
Q 2034 3584 2315 3537 
Q 2597 3491 2834 3397 
z
" transform="scale(0.015625)"/>
      </defs>
      <use xlink:href="#DejaVuSans-43"/>
      <use xlink:href="#DejaVuSans-6f" transform="translate(69.824219 0)"/>
      <use xlink:href="#DejaVuSans-6c" transform="translate(131.005859 0)"/>
      <use xlink:href="#DejaVuSans-6f" transform="translate(158.789062 0)"/>
      <use xlink:href="#DejaVuSans-72" transform="translate(219.970703 0)"/>
      <use xlink:href="#DejaVuSans-73" transform="translate(261.083984 0)"/>
     </g>
    </g>
    <g id="patch_3">
     <path d="M 538.2 31.276563 
L 558.2 31.276563 
L 558.2 24.276563 
L 538.2 24.276563 
z
" style="fill: #2c7ef7; stroke: #2c7ef7; stroke-linejoin: miter"/>
    </g>
    <g id="text_3">
     <!-- Color 1 -->
     <g transform="translate(566.2 31.276563) scale(0.1 -0.1)">
      <defs>
       <path id="DejaVuSans-31" d="M 794 531 
L 1825 531 
L 1825 4091 
L 703 3866 
L 703 4441 
L 1819 4666 
L 2450 4666 
L 2450 531 
L 3481 531 
L 3481 0 
L 794 0 
L 794 531 
z
" transform="scale(0.015625)"/>
      </defs>
      <use xlink:href="#DejaVuSans-43"/>
      <use xlink:href="#DejaVuSans-6f" transform="translate(69.824219 0)"/>
      <use xlink:href="#DejaVuSans-6c" transform="translate(131.005859 0)"/>
      <use xlink:href="#DejaVuSans-6f" transform="translate(158.789062 0)"/>
      <use xlink:href="#DejaVuSans-72" transform="translate(219.970703 0)"/>
      <use xlink:href="#DejaVuSans-20" transform="translate(261.083984 0)"/>
      <use xlink:href="#DejaVuSans-31" transform="translate(292.871094 0)"/>
     </g>
    </g>
    <g id="patch_4">
     <path d="M 538.2 45.954688 
L 558.2 45.954688 
L 558.2 38.954688 
L 538.2 38.954688 
z
" style="fill: #2adddd; stroke: #2adddd; stroke-linejoin: miter"/>
    </g>
    <g id="text_4">
     <!-- Color 2 -->
     <g transform="translate(566.2 45.954688) scale(0.1 -0.1)">
      <defs>
       <path id="DejaVuSans-32" d="M 1228 531 
L 3431 531 
L 3431 0 
L 469 0 
L 469 531 
Q 828 903 1448 1529 
Q 2069 2156 2228 2338 
Q 2531 2678 2651 2914 
Q 2772 3150 2772 3378 
Q 2772 3750 2511 3984 
Q 2250 4219 1831 4219 
Q 1534 4219 1204 4116 
Q 875 4013 500 3803 
L 500 4441 
Q 881 4594 1212 4672 
Q 1544 4750 1819 4750 
Q 2544 4750 2975 4387 
Q 3406 4025 3406 3419 
Q 3406 3131 3298 2873 
Q 3191 2616 2906 2266 
Q 2828 2175 2409 1742 
Q 1991 1309 1228 531 
z
" transform="scale(0.015625)"/>
      </defs>
      <use xlink:href="#DejaVuSans-43"/>
      <use xlink:href="#DejaVuSans-6f" transform="translate(69.824219 0)"/>
      <use xlink:href="#DejaVuSans-6c" transform="translate(131.005859 0)"/>
      <use xlink:href="#DejaVuSans-6f" transform="translate(158.789062 0)"/>
      <use xlink:href="#DejaVuSans-72" transform="translate(219.970703 0)"/>
      <use xlink:href="#DejaVuSans-20" transform="translate(261.083984 0)"/>
      <use xlink:href="#DejaVuSans-32" transform="translate(292.871094 0)"/>
     </g>
    </g>
    <g id="patch_5">
     <path d="M 538.2 60.632812 
L 558.2 60.632812 
L 558.2 53.632812 
L 538.2 53.632812 
z
" style="fill: #80ffb4; stroke: #80ffb4; stroke-linejoin: miter"/>
    </g>
    <g id="text_5">
     <!-- Color 3 -->
     <g transform="translate(566.2 60.632812) scale(0.1 -0.1)">
      <defs>
       <path id="DejaVuSans-33" d="M 2597 2516 
Q 3050 2419 3304 2112 
Q 3559 1806 3559 1356 
Q 3559 666 3084 287 
Q 2609 -91 1734 -91 
Q 1441 -91 1130 -33 
Q 819 25 488 141 
L 488 750 
Q 750 597 1062 519 
Q 1375 441 1716 441 
Q 2309 441 2620 675 
Q 2931 909 2931 1356 
Q 2931 1769 2642 2001 
Q 2353 2234 1838 2234 
L 1294 2234 
L 1294 2753 
L 1863 2753 
Q 2328 2753 2575 2939 
Q 2822 3125 2822 3475 
Q 2822 3834 2567 4026 
Q 2313 4219 1838 4219 
Q 1578 4219 1281 4162 
Q 984 4106 628 3988 
L 628 4550 
Q 988 4650 1302 4700 
Q 1616 4750 1894 4750 
Q 2613 4750 3031 4423 
Q 3450 4097 3450 3541 
Q 3450 3153 3228 2886 
Q 3006 2619 2597 2516 
z
" transform="scale(0.015625)"/>
      </defs>
      <use xlink:href="#DejaVuSans-43"/>
      <use xlink:href="#DejaVuSans-6f" transform="translate(69.824219 0)"/>
      <use xlink:href="#DejaVuSans-6c" transform="translate(131.005859 0)"/>
      <use xlink:href="#DejaVuSans-6f" transform="translate(158.789062 0)"/>
      <use xlink:href="#DejaVuSans-72" transform="translate(219.970703 0)"/>
      <use xlink:href="#DejaVuSans-20" transform="translate(261.083984 0)"/>
      <use xlink:href="#DejaVuSans-33" transform="translate(292.871094 0)"/>
     </g>
    </g>
    <g id="patch_6">
     <path d="M 538.2 75.310938 
L 558.2 75.310938 
L 558.2 68.310938 
L 538.2 68.310938 
z
" style="fill: #d4dd80; stroke: #d4dd80; stroke-linejoin: miter"/>
    </g>
    <g id="text_6">
     <!-- Color 4 -->
     <g transform="translate(566.2 75.310938) scale(0.1 -0.1)">
      <defs>
       <path id="DejaVuSans-34" d="M 2419 4116 
L 825 1625 
L 2419 1625 
L 2419 4116 
z
M 2253 4666 
L 3047 4666 
L 3047 1625 
L 3713 1625 
L 3713 1100 
L 3047 1100 
L 3047 0 
L 2419 0 
L 2419 1100 
L 313 1100 
L 313 1709 
L 2253 4666 
z
" transform="scale(0.015625)"/>
      </defs>
      <use xlink:href="#DejaVuSans-43"/>
      <use xlink:href="#DejaVuSans-6f" transform="translate(69.824219 0)"/>
      <use xlink:href="#DejaVuSans-6c" transform="translate(131.005859 0)"/>
      <use xlink:href="#DejaVuSans-6f" transform="translate(158.789062 0)"/>
      <use xlink:href="#DejaVuSans-72" transform="translate(219.970703 0)"/>
      <use xlink:href="#DejaVuSans-20" transform="translate(261.083984 0)"/>
      <use xlink:href="#DejaVuSans-34" transform="translate(292.871094 0)"/>
     </g>
    </g>
    <g id="patch_7">
     <path d="M 538.2 89.989063 
L 558.2 89.989063 
L 558.2 82.989063 
L 538.2 82.989063 
z
" style="fill: #ff7e41; stroke: #ff7e41; stroke-linejoin: miter"/>
    </g>
    <g id="text_7">
     <!-- Color 5 -->
     <g transform="translate(566.2 89.989063) scale(0.1 -0.1)">
      <use xlink:href="#DejaVuSans-43"/>
      <use xlink:href="#DejaVuSans-6f" transform="translate(69.824219 0)"/>
      <use xlink:href="#DejaVuSans-6c" transform="translate(131.005859 0)"/>
      <use xlink:href="#DejaVuSans-6f" transform="translate(158.789062 0)"/>
      <use xlink:href="#DejaVuSans-72" transform="translate(219.970703 0)"/>
      <use xlink:href="#DejaVuSans-20" transform="translate(261.083984 0)"/>
      <use xlink:href="#DejaVuSans-35" transform="translate(292.871094 0)"/>
     </g>
    </g>
    <g id="patch_8">
     <path d="M 538.2 104.667188 
L 558.2 104.667188 
L 558.2 97.667188 
L 538.2 97.667188 
z
" style="fill: #ff0000; stroke: #ff0000; stroke-linejoin: miter"/>
    </g>
    <g id="text_8">
     <!-- Color 6 -->
     <g transform="translate(566.2 104.667188) scale(0.1 -0.1)">
      <defs>
       <path id="DejaVuSans-36" d="M 2113 2584 
Q 1688 2584 1439 2293 
Q 1191 2003 1191 1497 
Q 1191 994 1439 701 
Q 1688 409 2113 409 
Q 2538 409 2786 701 
Q 3034 994 3034 1497 
Q 3034 2003 2786 2293 
Q 2538 2584 2113 2584 
z
M 3366 4563 
L 3366 3988 
Q 3128 4100 2886 4159 
Q 2644 4219 2406 4219 
Q 1781 4219 1451 3797 
Q 1122 3375 1075 2522 
Q 1259 2794 1537 2939 
Q 1816 3084 2150 3084 
Q 2853 3084 3261 2657 
Q 3669 2231 3669 1497 
Q 3669 778 3244 343 
Q 2819 -91 2113 -91 
Q 1303 -91 875 529 
Q 447 1150 447 2328 
Q 447 3434 972 4092 
Q 1497 4750 2381 4750 
Q 2619 4750 2861 4703 
Q 3103 4656 3366 4563 
z
" transform="scale(0.015625)"/>
      </defs>
      <use xlink:href="#DejaVuSans-43"/>
      <use xlink:href="#DejaVuSans-6f" transform="translate(69.824219 0)"/>
      <use xlink:href="#DejaVuSans-6c" transform="translate(131.005859 0)"/>
      <use xlink:href="#DejaVuSans-6f" transform="translate(158.789062 0)"/>
      <use xlink:href="#DejaVuSans-72" transform="translate(219.970703 0)"/>
      <use xlink:href="#DejaVuSans-20" transform="translate(261.083984 0)"/>
      <use xlink:href="#DejaVuSans-36" transform="translate(292.871094 0)"/>
     </g>
    </g>
   </g>
  </g>
 </g>
 <defs>
  <clipPath id="p7287ac4832">
   <rect x="0" y="0" width="504" height="432"/>
  </clipPath>
 </defs>
</svg>
