<?xml version="1.0" encoding="utf-8" standalone="no"?>
<!DOCTYPE svg PUBLIC "-//W3C//DTD SVG 1.1//EN"
  "http://www.w3.org/Graphics/SVG/1.1/DTD/svg11.dtd">
<svg xmlns:xlink="http://www.w3.org/1999/xlink" width="504pt" height="432pt" viewBox="0 0 504 432" xmlns="http://www.w3.org/2000/svg" version="1.1">
 <metadata>
  <rdf:RDF xmlns:dc="http://purl.org/dc/elements/1.1/" xmlns:cc="http://creativecommons.org/ns#" xmlns:rdf="http://www.w3.org/1999/02/22-rdf-syntax-ns#">
   <cc:Work>
    <dc:type rdf:resource="http://purl.org/dc/dcmitype/StillImage"/>
    <dc:date>2025-06-04T21:55:34.688584</dc:date>
    <dc:format>image/svg+xml</dc:format>
    <dc:creator>
     <cc:Agent>
      <dc:title>Matplotlib v3.10.1, https://matplotlib.org/</dc:title>
     </cc:Agent>
    </dc:creator>
   </cc:Work>
  </rdf:RDF>
 </metadata>
 <defs>
  <style type="text/css">*{stroke-linejoin: round; stroke-linecap: butt}</style>
 </defs>
 <g id="figure_1">
  <g id="patch_1">
   <path d="M 0 432 
L 504 432 
L 504 0 
L 0 0 
z
" style="fill: #ffffff"/>
  </g>
  <g id="axes_1">
   <g id="LineCollection_1">
    <path d="M 443.768433 106.605733 
L 365.662611 111.167594 
" clip-path="url(#pcf0b912f9d)" style="fill: none; stroke: #d3d3d3"/>
    <path d="M 443.768433 106.605733 
L 307.284925 179.343165 
" clip-path="url(#pcf0b912f9d)" style="fill: none; stroke: #d3d3d3"/>
    <path d="M 443.768433 106.605733 
L 247.018918 217.020328 
" clip-path="url(#pcf0b912f9d)" style="fill: none; stroke: #d3d3d3"/>
    <path d="M 443.768433 106.605733 
L 300.955691 260.756227 
" clip-path="url(#pcf0b912f9d)" style="fill: none; stroke: #d3d3d3"/>
    <path d="M 443.768433 106.605733 
L 348.278534 334.534792 
" clip-path="url(#pcf0b912f9d)" style="fill: none; stroke: #d3d3d3"/>
    <path d="M 443.768433 106.605733 
L 425.033134 347.30952 
" clip-path="url(#pcf0b912f9d)" style="fill: none; stroke: #d3d3d3"/>
    <path d="M 443.768433 106.605733 
L 271.641522 148.179017 
" clip-path="url(#pcf0b912f9d)" style="fill: none; stroke: #d3d3d3"/>
    <path d="M 443.768433 106.605733 
L 405.862559 190.404743 
" clip-path="url(#pcf0b912f9d)" style="fill: none; stroke: #d3d3d3"/>
    <path d="M 443.768433 106.605733 
L 197.785795 56.872098 
" clip-path="url(#pcf0b912f9d)" style="fill: none; stroke: #d3d3d3"/>
    <path d="M 443.768433 106.605733 
L 364.152492 57.822392 
" clip-path="url(#pcf0b912f9d)" style="fill: none; stroke: #d3d3d3"/>
    <path d="M 443.768433 106.605733 
L 259.184066 88.188188 
" clip-path="url(#pcf0b912f9d)" style="fill: none; stroke: #d3d3d3"/>
    <path d="M 443.768433 106.605733 
L 456.88587 249.956452 
" clip-path="url(#pcf0b912f9d)" style="fill: none; stroke: #d3d3d3"/>
    <path d="M 443.768433 106.605733 
L 241.692523 37.487603 
" clip-path="url(#pcf0b912f9d)" style="fill: none; stroke: #d3d3d3"/>
    <path d="M 443.768433 106.605733 
L 319.923731 56.207303 
" clip-path="url(#pcf0b912f9d)" style="fill: none; stroke: #d3d3d3"/>
    <path d="M 443.768433 106.605733 
L 89.090044 111.00264 
" clip-path="url(#pcf0b912f9d)" style="fill: none; stroke: #d3d3d3"/>
    <path d="M 443.768433 106.605733 
L 364.534219 189.99703 
" clip-path="url(#pcf0b912f9d)" style="fill: none; stroke: #d3d3d3"/>
    <path d="M 443.768433 106.605733 
L 227.691309 175.503025 
" clip-path="url(#pcf0b912f9d)" style="fill: none; stroke: #d3d3d3"/>
    <path d="M 443.768433 106.605733 
L 460.264463 206.522406 
" clip-path="url(#pcf0b912f9d)" style="fill: none; stroke: #d3d3d3"/>
    <path d="M 271.641522 148.179017 
L 149.504214 191.26638 
" clip-path="url(#pcf0b912f9d)" style="fill: none; stroke: #d3d3d3"/>
    <path d="M 271.641522 148.179017 
L 68.302154 143.546526 
" clip-path="url(#pcf0b912f9d)" style="fill: none; stroke: #d3d3d3"/>
    <path d="M 271.641522 148.179017 
L 43.735537 228.682002 
" clip-path="url(#pcf0b912f9d)" style="fill: none; stroke: #d3d3d3"/>
    <path d="M 271.641522 148.179017 
L 130.030223 339.447429 
" clip-path="url(#pcf0b912f9d)" style="fill: none; stroke: #d3d3d3"/>
    <path d="M 271.641522 148.179017 
L 213.905017 394.512397 
" clip-path="url(#pcf0b912f9d)" style="fill: none; stroke: #d3d3d3"/>
    <path d="M 271.641522 148.179017 
L 241.692523 37.487603 
" clip-path="url(#pcf0b912f9d)" style="fill: none; stroke: #d3d3d3"/>
    <path d="M 271.641522 148.179017 
L 405.862559 190.404743 
" clip-path="url(#pcf0b912f9d)" style="fill: none; stroke: #d3d3d3"/>
    <path d="M 271.641522 148.179017 
L 197.785795 56.872098 
" clip-path="url(#pcf0b912f9d)" style="fill: none; stroke: #d3d3d3"/>
    <path d="M 271.641522 148.179017 
L 364.152492 57.822392 
" clip-path="url(#pcf0b912f9d)" style="fill: none; stroke: #d3d3d3"/>
    <path d="M 271.641522 148.179017 
L 259.184066 88.188188 
" clip-path="url(#pcf0b912f9d)" style="fill: none; stroke: #d3d3d3"/>
    <path d="M 271.641522 148.179017 
L 456.88587 249.956452 
" clip-path="url(#pcf0b912f9d)" style="fill: none; stroke: #d3d3d3"/>
    <path d="M 271.641522 148.179017 
L 365.662611 111.167594 
" clip-path="url(#pcf0b912f9d)" style="fill: none; stroke: #d3d3d3"/>
    <path d="M 271.641522 148.179017 
L 149.970336 83.240475 
" clip-path="url(#pcf0b912f9d)" style="fill: none; stroke: #d3d3d3"/>
    <path d="M 271.641522 148.179017 
L 170.405054 148.519399 
" clip-path="url(#pcf0b912f9d)" style="fill: none; stroke: #d3d3d3"/>
    <path d="M 271.641522 148.179017 
L 106.967267 241.339962 
" clip-path="url(#pcf0b912f9d)" style="fill: none; stroke: #d3d3d3"/>
    <path d="M 271.641522 148.179017 
L 374.782296 291.850112 
" clip-path="url(#pcf0b912f9d)" style="fill: none; stroke: #d3d3d3"/>
    <path d="M 271.641522 148.179017 
L 239.107063 346.076236 
" clip-path="url(#pcf0b912f9d)" style="fill: none; stroke: #d3d3d3"/>
    <path d="M 405.862559 190.404743 
L 210.283011 111.363902 
" clip-path="url(#pcf0b912f9d)" style="fill: none; stroke: #d3d3d3"/>
    <path d="M 405.862559 190.404743 
L 313.521143 126.978182 
" clip-path="url(#pcf0b912f9d)" style="fill: none; stroke: #d3d3d3"/>
    <path d="M 405.862559 190.404743 
L 160.420526 276.863799 
" clip-path="url(#pcf0b912f9d)" style="fill: none; stroke: #d3d3d3"/>
    <path d="M 405.862559 190.404743 
L 294.394905 384.21049 
" clip-path="url(#pcf0b912f9d)" style="fill: none; stroke: #d3d3d3"/>
    <path d="M 405.862559 190.404743 
L 365.662611 111.167594 
" clip-path="url(#pcf0b912f9d)" style="fill: none; stroke: #d3d3d3"/>
    <path d="M 405.862559 190.404743 
L 319.923731 56.207303 
" clip-path="url(#pcf0b912f9d)" style="fill: none; stroke: #d3d3d3"/>
    <path d="M 405.862559 190.404743 
L 197.785795 56.872098 
" clip-path="url(#pcf0b912f9d)" style="fill: none; stroke: #d3d3d3"/>
    <path d="M 405.862559 190.404743 
L 364.152492 57.822392 
" clip-path="url(#pcf0b912f9d)" style="fill: none; stroke: #d3d3d3"/>
    <path d="M 405.862559 190.404743 
L 259.184066 88.188188 
" clip-path="url(#pcf0b912f9d)" style="fill: none; stroke: #d3d3d3"/>
    <path d="M 405.862559 190.404743 
L 456.88587 249.956452 
" clip-path="url(#pcf0b912f9d)" style="fill: none; stroke: #d3d3d3"/>
    <path d="M 405.862559 190.404743 
L 149.504214 191.26638 
" clip-path="url(#pcf0b912f9d)" style="fill: none; stroke: #d3d3d3"/>
    <path d="M 405.862559 190.404743 
L 307.284925 179.343165 
" clip-path="url(#pcf0b912f9d)" style="fill: none; stroke: #d3d3d3"/>
    <path d="M 405.862559 190.404743 
L 47.212806 183.982668 
" clip-path="url(#pcf0b912f9d)" style="fill: none; stroke: #d3d3d3"/>
    <path d="M 405.862559 190.404743 
L 299.011179 313.347666 
" clip-path="url(#pcf0b912f9d)" style="fill: none; stroke: #d3d3d3"/>
    <path d="M 405.862559 190.404743 
L 103.220236 349.378252 
" clip-path="url(#pcf0b912f9d)" style="fill: none; stroke: #d3d3d3"/>
    <path d="M 405.862559 190.404743 
L 338.507069 387.281373 
" clip-path="url(#pcf0b912f9d)" style="fill: none; stroke: #d3d3d3"/>
    <path d="M 197.785795 56.872098 
L 124.923301 70.560302 
" clip-path="url(#pcf0b912f9d)" style="fill: none; stroke: #d3d3d3"/>
    <path d="M 197.785795 56.872098 
L 111.890824 178.105784 
" clip-path="url(#pcf0b912f9d)" style="fill: none; stroke: #d3d3d3"/>
    <path d="M 197.785795 56.872098 
L 73.955641 305.48367 
" clip-path="url(#pcf0b912f9d)" style="fill: none; stroke: #d3d3d3"/>
    <path d="M 197.785795 56.872098 
L 149.504214 191.26638 
" clip-path="url(#pcf0b912f9d)" style="fill: none; stroke: #d3d3d3"/>
    <path d="M 197.785795 56.872098 
L 149.970336 83.240475 
" clip-path="url(#pcf0b912f9d)" style="fill: none; stroke: #d3d3d3"/>
    <path d="M 197.785795 56.872098 
L 89.090044 111.00264 
" clip-path="url(#pcf0b912f9d)" style="fill: none; stroke: #d3d3d3"/>
    <path d="M 197.785795 56.872098 
L 364.152492 57.822392 
" clip-path="url(#pcf0b912f9d)" style="fill: none; stroke: #d3d3d3"/>
    <path d="M 197.785795 56.872098 
L 259.184066 88.188188 
" clip-path="url(#pcf0b912f9d)" style="fill: none; stroke: #d3d3d3"/>
    <path d="M 197.785795 56.872098 
L 456.88587 249.956452 
" clip-path="url(#pcf0b912f9d)" style="fill: none; stroke: #d3d3d3"/>
    <path d="M 197.785795 56.872098 
L 210.283011 111.363902 
" clip-path="url(#pcf0b912f9d)" style="fill: none; stroke: #d3d3d3"/>
    <path d="M 197.785795 56.872098 
L 68.302154 143.546526 
" clip-path="url(#pcf0b912f9d)" style="fill: none; stroke: #d3d3d3"/>
    <path d="M 197.785795 56.872098 
L 247.018918 217.020328 
" clip-path="url(#pcf0b912f9d)" style="fill: none; stroke: #d3d3d3"/>
    <path d="M 197.785795 56.872098 
L 58.382225 271.01228 
" clip-path="url(#pcf0b912f9d)" style="fill: none; stroke: #d3d3d3"/>
    <path d="M 197.785795 56.872098 
L 194.20403 317.927011 
" clip-path="url(#pcf0b912f9d)" style="fill: none; stroke: #d3d3d3"/>
    <path d="M 197.785795 56.872098 
L 173.362268 370.651453 
" clip-path="url(#pcf0b912f9d)" style="fill: none; stroke: #d3d3d3"/>
    <path d="M 364.152492 57.822392 
L 385.33958 156.299198 
" clip-path="url(#pcf0b912f9d)" style="fill: none; stroke: #d3d3d3"/>
    <path d="M 364.152492 57.822392 
L 359.38526 256.226499 
" clip-path="url(#pcf0b912f9d)" style="fill: none; stroke: #d3d3d3"/>
    <path d="M 364.152492 57.822392 
L 210.283011 111.363902 
" clip-path="url(#pcf0b912f9d)" style="fill: none; stroke: #d3d3d3"/>
    <path d="M 364.152492 57.822392 
L 307.284925 179.343165 
" clip-path="url(#pcf0b912f9d)" style="fill: none; stroke: #d3d3d3"/>
    <path d="M 364.152492 57.822392 
L 170.405054 148.519399 
" clip-path="url(#pcf0b912f9d)" style="fill: none; stroke: #d3d3d3"/>
    <path d="M 364.152492 57.822392 
L 364.534219 189.99703 
" clip-path="url(#pcf0b912f9d)" style="fill: none; stroke: #d3d3d3"/>
    <path d="M 364.152492 57.822392 
L 259.184066 88.188188 
" clip-path="url(#pcf0b912f9d)" style="fill: none; stroke: #d3d3d3"/>
    <path d="M 364.152492 57.822392 
L 456.88587 249.956452 
" clip-path="url(#pcf0b912f9d)" style="fill: none; stroke: #d3d3d3"/>
    <path d="M 364.152492 57.822392 
L 124.923301 70.560302 
" clip-path="url(#pcf0b912f9d)" style="fill: none; stroke: #d3d3d3"/>
    <path d="M 364.152492 57.822392 
L 313.521143 126.978182 
" clip-path="url(#pcf0b912f9d)" style="fill: none; stroke: #d3d3d3"/>
    <path d="M 364.152492 57.822392 
L 43.735537 228.682002 
" clip-path="url(#pcf0b912f9d)" style="fill: none; stroke: #d3d3d3"/>
    <path d="M 364.152492 57.822392 
L 300.955691 260.756227 
" clip-path="url(#pcf0b912f9d)" style="fill: none; stroke: #d3d3d3"/>
    <path d="M 364.152492 57.822392 
L 146.31579 232.264607 
" clip-path="url(#pcf0b912f9d)" style="fill: none; stroke: #d3d3d3"/>
    <path d="M 364.152492 57.822392 
L 400.433672 260.200792 
" clip-path="url(#pcf0b912f9d)" style="fill: none; stroke: #d3d3d3"/>
    <path d="M 259.184066 88.188188 
L 221.419762 256.15342 
" clip-path="url(#pcf0b912f9d)" style="fill: none; stroke: #d3d3d3"/>
    <path d="M 259.184066 88.188188 
L 124.923301 70.560302 
" clip-path="url(#pcf0b912f9d)" style="fill: none; stroke: #d3d3d3"/>
    <path d="M 259.184066 88.188188 
L 68.302154 143.546526 
" clip-path="url(#pcf0b912f9d)" style="fill: none; stroke: #d3d3d3"/>
    <path d="M 259.184066 88.188188 
L 47.212806 183.982668 
" clip-path="url(#pcf0b912f9d)" style="fill: none; stroke: #d3d3d3"/>
    <path d="M 259.184066 88.188188 
L 106.967267 241.339962 
" clip-path="url(#pcf0b912f9d)" style="fill: none; stroke: #d3d3d3"/>
    <path d="M 259.184066 88.188188 
L 227.691309 175.503025 
" clip-path="url(#pcf0b912f9d)" style="fill: none; stroke: #d3d3d3"/>
    <path d="M 259.184066 88.188188 
L 456.88587 249.956452 
" clip-path="url(#pcf0b912f9d)" style="fill: none; stroke: #d3d3d3"/>
    <path d="M 259.184066 88.188188 
L 385.33958 156.299198 
" clip-path="url(#pcf0b912f9d)" style="fill: none; stroke: #d3d3d3"/>
    <path d="M 259.184066 88.188188 
L 111.890824 178.105784 
" clip-path="url(#pcf0b912f9d)" style="fill: none; stroke: #d3d3d3"/>
    <path d="M 259.184066 88.188188 
L 160.420526 276.863799 
" clip-path="url(#pcf0b912f9d)" style="fill: none; stroke: #d3d3d3"/>
    <path d="M 259.184066 88.188188 
L 130.030223 339.447429 
" clip-path="url(#pcf0b912f9d)" style="fill: none; stroke: #d3d3d3"/>
    <path d="M 259.184066 88.188188 
L 348.278534 334.534792 
" clip-path="url(#pcf0b912f9d)" style="fill: none; stroke: #d3d3d3"/>
    <path d="M 259.184066 88.188188 
L 260.770777 287.894508 
" clip-path="url(#pcf0b912f9d)" style="fill: none; stroke: #d3d3d3"/>
    <path d="M 456.88587 249.956452 
L 385.33958 156.299198 
" clip-path="url(#pcf0b912f9d)" style="fill: none; stroke: #d3d3d3"/>
    <path d="M 456.88587 249.956452 
L 313.521143 126.978182 
" clip-path="url(#pcf0b912f9d)" style="fill: none; stroke: #d3d3d3"/>
    <path d="M 456.88587 249.956452 
L 247.018918 217.020328 
" clip-path="url(#pcf0b912f9d)" style="fill: none; stroke: #d3d3d3"/>
    <path d="M 456.88587 249.956452 
L 299.011179 313.347666 
" clip-path="url(#pcf0b912f9d)" style="fill: none; stroke: #d3d3d3"/>
    <path d="M 456.88587 249.956452 
L 374.782296 291.850112 
" clip-path="url(#pcf0b912f9d)" style="fill: none; stroke: #d3d3d3"/>
    <path d="M 456.88587 249.956452 
L 460.264463 206.522406 
" clip-path="url(#pcf0b912f9d)" style="fill: none; stroke: #d3d3d3"/>
    <path d="M 456.88587 249.956452 
L 221.419762 256.15342 
" clip-path="url(#pcf0b912f9d)" style="fill: none; stroke: #d3d3d3"/>
    <path d="M 456.88587 249.956452 
L 359.38526 256.226499 
" clip-path="url(#pcf0b912f9d)" style="fill: none; stroke: #d3d3d3"/>
    <path d="M 456.88587 249.956452 
L 73.955641 305.48367 
" clip-path="url(#pcf0b912f9d)" style="fill: none; stroke: #d3d3d3"/>
    <path d="M 456.88587 249.956452 
L 294.394905 384.21049 
" clip-path="url(#pcf0b912f9d)" style="fill: none; stroke: #d3d3d3"/>
    <path d="M 456.88587 249.956452 
L 213.905017 394.512397 
" clip-path="url(#pcf0b912f9d)" style="fill: none; stroke: #d3d3d3"/>
    <path d="M 456.88587 249.956452 
L 425.033134 347.30952 
" clip-path="url(#pcf0b912f9d)" style="fill: none; stroke: #d3d3d3"/>
    <path d="M 241.692523 37.487603 
L 149.970336 83.240475 
" clip-path="url(#pcf0b912f9d)" style="fill: none; stroke: #d3d3d3"/>
    <path d="M 241.692523 37.487603 
L 47.212806 183.982668 
" clip-path="url(#pcf0b912f9d)" style="fill: none; stroke: #d3d3d3"/>
    <path d="M 241.692523 37.487603 
L 58.382225 271.01228 
" clip-path="url(#pcf0b912f9d)" style="fill: none; stroke: #d3d3d3"/>
    <path d="M 241.692523 37.487603 
L 146.31579 232.264607 
" clip-path="url(#pcf0b912f9d)" style="fill: none; stroke: #d3d3d3"/>
    <path d="M 241.692523 37.487603 
L 260.770777 287.894508 
" clip-path="url(#pcf0b912f9d)" style="fill: none; stroke: #d3d3d3"/>
    <path d="M 241.692523 37.487603 
L 365.662611 111.167594 
" clip-path="url(#pcf0b912f9d)" style="fill: none; stroke: #d3d3d3"/>
    <path d="M 241.692523 37.487603 
L 149.504214 191.26638 
" clip-path="url(#pcf0b912f9d)" style="fill: none; stroke: #d3d3d3"/>
    <path d="M 241.692523 37.487603 
L 210.283011 111.363902 
" clip-path="url(#pcf0b912f9d)" style="fill: none; stroke: #d3d3d3"/>
    <path d="M 241.692523 37.487603 
L 124.923301 70.560302 
" clip-path="url(#pcf0b912f9d)" style="fill: none; stroke: #d3d3d3"/>
    <path d="M 241.692523 37.487603 
L 385.33958 156.299198 
" clip-path="url(#pcf0b912f9d)" style="fill: none; stroke: #d3d3d3"/>
    <path d="M 241.692523 37.487603 
L 221.419762 256.15342 
" clip-path="url(#pcf0b912f9d)" style="fill: none; stroke: #d3d3d3"/>
    <path d="M 241.692523 37.487603 
L 319.923731 56.207303 
" clip-path="url(#pcf0b912f9d)" style="fill: none; stroke: #d3d3d3"/>
    <path d="M 241.692523 37.487603 
L 89.090044 111.00264 
" clip-path="url(#pcf0b912f9d)" style="fill: none; stroke: #d3d3d3"/>
    <path d="M 241.692523 37.487603 
L 364.534219 189.99703 
" clip-path="url(#pcf0b912f9d)" style="fill: none; stroke: #d3d3d3"/>
    <path d="M 241.692523 37.487603 
L 227.691309 175.503025 
" clip-path="url(#pcf0b912f9d)" style="fill: none; stroke: #d3d3d3"/>
    <path d="M 241.692523 37.487603 
L 460.264463 206.522406 
" clip-path="url(#pcf0b912f9d)" style="fill: none; stroke: #d3d3d3"/>
    <path d="M 365.662611 111.167594 
L 307.284925 179.343165 
" clip-path="url(#pcf0b912f9d)" style="fill: none; stroke: #d3d3d3"/>
    <path d="M 365.662611 111.167594 
L 247.018918 217.020328 
" clip-path="url(#pcf0b912f9d)" style="fill: none; stroke: #d3d3d3"/>
    <path d="M 365.662611 111.167594 
L 300.955691 260.756227 
" clip-path="url(#pcf0b912f9d)" style="fill: none; stroke: #d3d3d3"/>
    <path d="M 365.662611 111.167594 
L 348.278534 334.534792 
" clip-path="url(#pcf0b912f9d)" style="fill: none; stroke: #d3d3d3"/>
    <path d="M 365.662611 111.167594 
L 425.033134 347.30952 
" clip-path="url(#pcf0b912f9d)" style="fill: none; stroke: #d3d3d3"/>
    <path d="M 365.662611 111.167594 
L 319.923731 56.207303 
" clip-path="url(#pcf0b912f9d)" style="fill: none; stroke: #d3d3d3"/>
    <path d="M 365.662611 111.167594 
L 149.504214 191.26638 
" clip-path="url(#pcf0b912f9d)" style="fill: none; stroke: #d3d3d3"/>
    <path d="M 365.662611 111.167594 
L 210.283011 111.363902 
" clip-path="url(#pcf0b912f9d)" style="fill: none; stroke: #d3d3d3"/>
    <path d="M 365.662611 111.167594 
L 124.923301 70.560302 
" clip-path="url(#pcf0b912f9d)" style="fill: none; stroke: #d3d3d3"/>
    <path d="M 365.662611 111.167594 
L 385.33958 156.299198 
" clip-path="url(#pcf0b912f9d)" style="fill: none; stroke: #d3d3d3"/>
    <path d="M 365.662611 111.167594 
L 221.419762 256.15342 
" clip-path="url(#pcf0b912f9d)" style="fill: none; stroke: #d3d3d3"/>
    <path d="M 365.662611 111.167594 
L 149.970336 83.240475 
" clip-path="url(#pcf0b912f9d)" style="fill: none; stroke: #d3d3d3"/>
    <path d="M 365.662611 111.167594 
L 170.405054 148.519399 
" clip-path="url(#pcf0b912f9d)" style="fill: none; stroke: #d3d3d3"/>
    <path d="M 365.662611 111.167594 
L 106.967267 241.339962 
" clip-path="url(#pcf0b912f9d)" style="fill: none; stroke: #d3d3d3"/>
    <path d="M 365.662611 111.167594 
L 374.782296 291.850112 
" clip-path="url(#pcf0b912f9d)" style="fill: none; stroke: #d3d3d3"/>
    <path d="M 365.662611 111.167594 
L 239.107063 346.076236 
" clip-path="url(#pcf0b912f9d)" style="fill: none; stroke: #d3d3d3"/>
    <path d="M 149.504214 191.26638 
L 68.302154 143.546526 
" clip-path="url(#pcf0b912f9d)" style="fill: none; stroke: #d3d3d3"/>
    <path d="M 149.504214 191.26638 
L 43.735537 228.682002 
" clip-path="url(#pcf0b912f9d)" style="fill: none; stroke: #d3d3d3"/>
    <path d="M 149.504214 191.26638 
L 130.030223 339.447429 
" clip-path="url(#pcf0b912f9d)" style="fill: none; stroke: #d3d3d3"/>
    <path d="M 149.504214 191.26638 
L 213.905017 394.512397 
" clip-path="url(#pcf0b912f9d)" style="fill: none; stroke: #d3d3d3"/>
    <path d="M 149.504214 191.26638 
L 149.970336 83.240475 
" clip-path="url(#pcf0b912f9d)" style="fill: none; stroke: #d3d3d3"/>
    <path d="M 149.504214 191.26638 
L 89.090044 111.00264 
" clip-path="url(#pcf0b912f9d)" style="fill: none; stroke: #d3d3d3"/>
    <path d="M 149.504214 191.26638 
L 210.283011 111.363902 
" clip-path="url(#pcf0b912f9d)" style="fill: none; stroke: #d3d3d3"/>
    <path d="M 149.504214 191.26638 
L 124.923301 70.560302 
" clip-path="url(#pcf0b912f9d)" style="fill: none; stroke: #d3d3d3"/>
    <path d="M 149.504214 191.26638 
L 385.33958 156.299198 
" clip-path="url(#pcf0b912f9d)" style="fill: none; stroke: #d3d3d3"/>
    <path d="M 149.504214 191.26638 
L 221.419762 256.15342 
" clip-path="url(#pcf0b912f9d)" style="fill: none; stroke: #d3d3d3"/>
    <path d="M 149.504214 191.26638 
L 307.284925 179.343165 
" clip-path="url(#pcf0b912f9d)" style="fill: none; stroke: #d3d3d3"/>
    <path d="M 149.504214 191.26638 
L 47.212806 183.982668 
" clip-path="url(#pcf0b912f9d)" style="fill: none; stroke: #d3d3d3"/>
    <path d="M 149.504214 191.26638 
L 299.011179 313.347666 
" clip-path="url(#pcf0b912f9d)" style="fill: none; stroke: #d3d3d3"/>
    <path d="M 149.504214 191.26638 
L 103.220236 349.378252 
" clip-path="url(#pcf0b912f9d)" style="fill: none; stroke: #d3d3d3"/>
    <path d="M 149.504214 191.26638 
L 338.507069 387.281373 
" clip-path="url(#pcf0b912f9d)" style="fill: none; stroke: #d3d3d3"/>
    <path d="M 210.283011 111.363902 
L 313.521143 126.978182 
" clip-path="url(#pcf0b912f9d)" style="fill: none; stroke: #d3d3d3"/>
    <path d="M 210.283011 111.363902 
L 160.420526 276.863799 
" clip-path="url(#pcf0b912f9d)" style="fill: none; stroke: #d3d3d3"/>
    <path d="M 210.283011 111.363902 
L 294.394905 384.21049 
" clip-path="url(#pcf0b912f9d)" style="fill: none; stroke: #d3d3d3"/>
    <path d="M 210.283011 111.363902 
L 307.284925 179.343165 
" clip-path="url(#pcf0b912f9d)" style="fill: none; stroke: #d3d3d3"/>
    <path d="M 210.283011 111.363902 
L 170.405054 148.519399 
" clip-path="url(#pcf0b912f9d)" style="fill: none; stroke: #d3d3d3"/>
    <path d="M 210.283011 111.363902 
L 364.534219 189.99703 
" clip-path="url(#pcf0b912f9d)" style="fill: none; stroke: #d3d3d3"/>
    <path d="M 210.283011 111.363902 
L 124.923301 70.560302 
" clip-path="url(#pcf0b912f9d)" style="fill: none; stroke: #d3d3d3"/>
    <path d="M 210.283011 111.363902 
L 385.33958 156.299198 
" clip-path="url(#pcf0b912f9d)" style="fill: none; stroke: #d3d3d3"/>
    <path d="M 210.283011 111.363902 
L 221.419762 256.15342 
" clip-path="url(#pcf0b912f9d)" style="fill: none; stroke: #d3d3d3"/>
    <path d="M 210.283011 111.363902 
L 68.302154 143.546526 
" clip-path="url(#pcf0b912f9d)" style="fill: none; stroke: #d3d3d3"/>
    <path d="M 210.283011 111.363902 
L 247.018918 217.020328 
" clip-path="url(#pcf0b912f9d)" style="fill: none; stroke: #d3d3d3"/>
    <path d="M 210.283011 111.363902 
L 58.382225 271.01228 
" clip-path="url(#pcf0b912f9d)" style="fill: none; stroke: #d3d3d3"/>
    <path d="M 210.283011 111.363902 
L 194.20403 317.927011 
" clip-path="url(#pcf0b912f9d)" style="fill: none; stroke: #d3d3d3"/>
    <path d="M 210.283011 111.363902 
L 173.362268 370.651453 
" clip-path="url(#pcf0b912f9d)" style="fill: none; stroke: #d3d3d3"/>
    <path d="M 124.923301 70.560302 
L 111.890824 178.105784 
" clip-path="url(#pcf0b912f9d)" style="fill: none; stroke: #d3d3d3"/>
    <path d="M 124.923301 70.560302 
L 73.955641 305.48367 
" clip-path="url(#pcf0b912f9d)" style="fill: none; stroke: #d3d3d3"/>
    <path d="M 124.923301 70.560302 
L 68.302154 143.546526 
" clip-path="url(#pcf0b912f9d)" style="fill: none; stroke: #d3d3d3"/>
    <path d="M 124.923301 70.560302 
L 47.212806 183.982668 
" clip-path="url(#pcf0b912f9d)" style="fill: none; stroke: #d3d3d3"/>
    <path d="M 124.923301 70.560302 
L 106.967267 241.339962 
" clip-path="url(#pcf0b912f9d)" style="fill: none; stroke: #d3d3d3"/>
    <path d="M 124.923301 70.560302 
L 227.691309 175.503025 
" clip-path="url(#pcf0b912f9d)" style="fill: none; stroke: #d3d3d3"/>
    <path d="M 124.923301 70.560302 
L 385.33958 156.299198 
" clip-path="url(#pcf0b912f9d)" style="fill: none; stroke: #d3d3d3"/>
    <path d="M 124.923301 70.560302 
L 221.419762 256.15342 
" clip-path="url(#pcf0b912f9d)" style="fill: none; stroke: #d3d3d3"/>
    <path d="M 124.923301 70.560302 
L 313.521143 126.978182 
" clip-path="url(#pcf0b912f9d)" style="fill: none; stroke: #d3d3d3"/>
    <path d="M 124.923301 70.560302 
L 43.735537 228.682002 
" clip-path="url(#pcf0b912f9d)" style="fill: none; stroke: #d3d3d3"/>
    <path d="M 124.923301 70.560302 
L 300.955691 260.756227 
" clip-path="url(#pcf0b912f9d)" style="fill: none; stroke: #d3d3d3"/>
    <path d="M 124.923301 70.560302 
L 146.31579 232.264607 
" clip-path="url(#pcf0b912f9d)" style="fill: none; stroke: #d3d3d3"/>
    <path d="M 124.923301 70.560302 
L 400.433672 260.200792 
" clip-path="url(#pcf0b912f9d)" style="fill: none; stroke: #d3d3d3"/>
    <path d="M 385.33958 156.299198 
L 359.38526 256.226499 
" clip-path="url(#pcf0b912f9d)" style="fill: none; stroke: #d3d3d3"/>
    <path d="M 385.33958 156.299198 
L 313.521143 126.978182 
" clip-path="url(#pcf0b912f9d)" style="fill: none; stroke: #d3d3d3"/>
    <path d="M 385.33958 156.299198 
L 247.018918 217.020328 
" clip-path="url(#pcf0b912f9d)" style="fill: none; stroke: #d3d3d3"/>
    <path d="M 385.33958 156.299198 
L 299.011179 313.347666 
" clip-path="url(#pcf0b912f9d)" style="fill: none; stroke: #d3d3d3"/>
    <path d="M 385.33958 156.299198 
L 374.782296 291.850112 
" clip-path="url(#pcf0b912f9d)" style="fill: none; stroke: #d3d3d3"/>
    <path d="M 385.33958 156.299198 
L 460.264463 206.522406 
" clip-path="url(#pcf0b912f9d)" style="fill: none; stroke: #d3d3d3"/>
    <path d="M 385.33958 156.299198 
L 221.419762 256.15342 
" clip-path="url(#pcf0b912f9d)" style="fill: none; stroke: #d3d3d3"/>
    <path d="M 385.33958 156.299198 
L 111.890824 178.105784 
" clip-path="url(#pcf0b912f9d)" style="fill: none; stroke: #d3d3d3"/>
    <path d="M 385.33958 156.299198 
L 160.420526 276.863799 
" clip-path="url(#pcf0b912f9d)" style="fill: none; stroke: #d3d3d3"/>
    <path d="M 385.33958 156.299198 
L 130.030223 339.447429 
" clip-path="url(#pcf0b912f9d)" style="fill: none; stroke: #d3d3d3"/>
    <path d="M 385.33958 156.299198 
L 348.278534 334.534792 
" clip-path="url(#pcf0b912f9d)" style="fill: none; stroke: #d3d3d3"/>
    <path d="M 385.33958 156.299198 
L 260.770777 287.894508 
" clip-path="url(#pcf0b912f9d)" style="fill: none; stroke: #d3d3d3"/>
    <path d="M 221.419762 256.15342 
L 111.890824 178.105784 
" clip-path="url(#pcf0b912f9d)" style="fill: none; stroke: #d3d3d3"/>
    <path d="M 221.419762 256.15342 
L 43.735537 228.682002 
" clip-path="url(#pcf0b912f9d)" style="fill: none; stroke: #d3d3d3"/>
    <path d="M 221.419762 256.15342 
L 58.382225 271.01228 
" clip-path="url(#pcf0b912f9d)" style="fill: none; stroke: #d3d3d3"/>
    <path d="M 221.419762 256.15342 
L 103.220236 349.378252 
" clip-path="url(#pcf0b912f9d)" style="fill: none; stroke: #d3d3d3"/>
    <path d="M 221.419762 256.15342 
L 239.107063 346.076236 
" clip-path="url(#pcf0b912f9d)" style="fill: none; stroke: #d3d3d3"/>
    <path d="M 221.419762 256.15342 
L 359.38526 256.226499 
" clip-path="url(#pcf0b912f9d)" style="fill: none; stroke: #d3d3d3"/>
    <path d="M 221.419762 256.15342 
L 73.955641 305.48367 
" clip-path="url(#pcf0b912f9d)" style="fill: none; stroke: #d3d3d3"/>
    <path d="M 221.419762 256.15342 
L 294.394905 384.21049 
" clip-path="url(#pcf0b912f9d)" style="fill: none; stroke: #d3d3d3"/>
    <path d="M 221.419762 256.15342 
L 213.905017 394.512397 
" clip-path="url(#pcf0b912f9d)" style="fill: none; stroke: #d3d3d3"/>
    <path d="M 221.419762 256.15342 
L 425.033134 347.30952 
" clip-path="url(#pcf0b912f9d)" style="fill: none; stroke: #d3d3d3"/>
    <path d="M 319.923731 56.207303 
L 170.405054 148.519399 
" clip-path="url(#pcf0b912f9d)" style="fill: none; stroke: #d3d3d3"/>
    <path d="M 319.923731 56.207303 
L 299.011179 313.347666 
" clip-path="url(#pcf0b912f9d)" style="fill: none; stroke: #d3d3d3"/>
    <path d="M 319.923731 56.207303 
L 194.20403 317.927011 
" clip-path="url(#pcf0b912f9d)" style="fill: none; stroke: #d3d3d3"/>
    <path d="M 319.923731 56.207303 
L 400.433672 260.200792 
" clip-path="url(#pcf0b912f9d)" style="fill: none; stroke: #d3d3d3"/>
    <path d="M 319.923731 56.207303 
L 149.970336 83.240475 
" clip-path="url(#pcf0b912f9d)" style="fill: none; stroke: #d3d3d3"/>
    <path d="M 319.923731 56.207303 
L 307.284925 179.343165 
" clip-path="url(#pcf0b912f9d)" style="fill: none; stroke: #d3d3d3"/>
    <path d="M 319.923731 56.207303 
L 68.302154 143.546526 
" clip-path="url(#pcf0b912f9d)" style="fill: none; stroke: #d3d3d3"/>
    <path d="M 319.923731 56.207303 
L 313.521143 126.978182 
" clip-path="url(#pcf0b912f9d)" style="fill: none; stroke: #d3d3d3"/>
    <path d="M 319.923731 56.207303 
L 111.890824 178.105784 
" clip-path="url(#pcf0b912f9d)" style="fill: none; stroke: #d3d3d3"/>
    <path d="M 319.923731 56.207303 
L 359.38526 256.226499 
" clip-path="url(#pcf0b912f9d)" style="fill: none; stroke: #d3d3d3"/>
    <path d="M 319.923731 56.207303 
L 89.090044 111.00264 
" clip-path="url(#pcf0b912f9d)" style="fill: none; stroke: #d3d3d3"/>
    <path d="M 319.923731 56.207303 
L 364.534219 189.99703 
" clip-path="url(#pcf0b912f9d)" style="fill: none; stroke: #d3d3d3"/>
    <path d="M 319.923731 56.207303 
L 227.691309 175.503025 
" clip-path="url(#pcf0b912f9d)" style="fill: none; stroke: #d3d3d3"/>
    <path d="M 319.923731 56.207303 
L 460.264463 206.522406 
" clip-path="url(#pcf0b912f9d)" style="fill: none; stroke: #d3d3d3"/>
    <path d="M 149.970336 83.240475 
L 47.212806 183.982668 
" clip-path="url(#pcf0b912f9d)" style="fill: none; stroke: #d3d3d3"/>
    <path d="M 149.970336 83.240475 
L 58.382225 271.01228 
" clip-path="url(#pcf0b912f9d)" style="fill: none; stroke: #d3d3d3"/>
    <path d="M 149.970336 83.240475 
L 146.31579 232.264607 
" clip-path="url(#pcf0b912f9d)" style="fill: none; stroke: #d3d3d3"/>
    <path d="M 149.970336 83.240475 
L 260.770777 287.894508 
" clip-path="url(#pcf0b912f9d)" style="fill: none; stroke: #d3d3d3"/>
    <path d="M 149.970336 83.240475 
L 89.090044 111.00264 
" clip-path="url(#pcf0b912f9d)" style="fill: none; stroke: #d3d3d3"/>
    <path d="M 149.970336 83.240475 
L 307.284925 179.343165 
" clip-path="url(#pcf0b912f9d)" style="fill: none; stroke: #d3d3d3"/>
    <path d="M 149.970336 83.240475 
L 68.302154 143.546526 
" clip-path="url(#pcf0b912f9d)" style="fill: none; stroke: #d3d3d3"/>
    <path d="M 149.970336 83.240475 
L 313.521143 126.978182 
" clip-path="url(#pcf0b912f9d)" style="fill: none; stroke: #d3d3d3"/>
    <path d="M 149.970336 83.240475 
L 111.890824 178.105784 
" clip-path="url(#pcf0b912f9d)" style="fill: none; stroke: #d3d3d3"/>
    <path d="M 149.970336 83.240475 
L 359.38526 256.226499 
" clip-path="url(#pcf0b912f9d)" style="fill: none; stroke: #d3d3d3"/>
    <path d="M 149.970336 83.240475 
L 170.405054 148.519399 
" clip-path="url(#pcf0b912f9d)" style="fill: none; stroke: #d3d3d3"/>
    <path d="M 149.970336 83.240475 
L 106.967267 241.339962 
" clip-path="url(#pcf0b912f9d)" style="fill: none; stroke: #d3d3d3"/>
    <path d="M 149.970336 83.240475 
L 374.782296 291.850112 
" clip-path="url(#pcf0b912f9d)" style="fill: none; stroke: #d3d3d3"/>
    <path d="M 149.970336 83.240475 
L 239.107063 346.076236 
" clip-path="url(#pcf0b912f9d)" style="fill: none; stroke: #d3d3d3"/>
    <path d="M 307.284925 179.343165 
L 247.018918 217.020328 
" clip-path="url(#pcf0b912f9d)" style="fill: none; stroke: #d3d3d3"/>
    <path d="M 307.284925 179.343165 
L 300.955691 260.756227 
" clip-path="url(#pcf0b912f9d)" style="fill: none; stroke: #d3d3d3"/>
    <path d="M 307.284925 179.343165 
L 348.278534 334.534792 
" clip-path="url(#pcf0b912f9d)" style="fill: none; stroke: #d3d3d3"/>
    <path d="M 307.284925 179.343165 
L 425.033134 347.30952 
" clip-path="url(#pcf0b912f9d)" style="fill: none; stroke: #d3d3d3"/>
    <path d="M 307.284925 179.343165 
L 170.405054 148.519399 
" clip-path="url(#pcf0b912f9d)" style="fill: none; stroke: #d3d3d3"/>
    <path d="M 307.284925 179.343165 
L 364.534219 189.99703 
" clip-path="url(#pcf0b912f9d)" style="fill: none; stroke: #d3d3d3"/>
    <path d="M 307.284925 179.343165 
L 68.302154 143.546526 
" clip-path="url(#pcf0b912f9d)" style="fill: none; stroke: #d3d3d3"/>
    <path d="M 307.284925 179.343165 
L 313.521143 126.978182 
" clip-path="url(#pcf0b912f9d)" style="fill: none; stroke: #d3d3d3"/>
    <path d="M 307.284925 179.343165 
L 111.890824 178.105784 
" clip-path="url(#pcf0b912f9d)" style="fill: none; stroke: #d3d3d3"/>
    <path d="M 307.284925 179.343165 
L 359.38526 256.226499 
" clip-path="url(#pcf0b912f9d)" style="fill: none; stroke: #d3d3d3"/>
    <path d="M 307.284925 179.343165 
L 47.212806 183.982668 
" clip-path="url(#pcf0b912f9d)" style="fill: none; stroke: #d3d3d3"/>
    <path d="M 307.284925 179.343165 
L 299.011179 313.347666 
" clip-path="url(#pcf0b912f9d)" style="fill: none; stroke: #d3d3d3"/>
    <path d="M 307.284925 179.343165 
L 103.220236 349.378252 
" clip-path="url(#pcf0b912f9d)" style="fill: none; stroke: #d3d3d3"/>
    <path d="M 307.284925 179.343165 
L 338.507069 387.281373 
" clip-path="url(#pcf0b912f9d)" style="fill: none; stroke: #d3d3d3"/>
    <path d="M 68.302154 143.546526 
L 43.735537 228.682002 
" clip-path="url(#pcf0b912f9d)" style="fill: none; stroke: #d3d3d3"/>
    <path d="M 68.302154 143.546526 
L 130.030223 339.447429 
" clip-path="url(#pcf0b912f9d)" style="fill: none; stroke: #d3d3d3"/>
    <path d="M 68.302154 143.546526 
L 213.905017 394.512397 
" clip-path="url(#pcf0b912f9d)" style="fill: none; stroke: #d3d3d3"/>
    <path d="M 68.302154 143.546526 
L 47.212806 183.982668 
" clip-path="url(#pcf0b912f9d)" style="fill: none; stroke: #d3d3d3"/>
    <path d="M 68.302154 143.546526 
L 106.967267 241.339962 
" clip-path="url(#pcf0b912f9d)" style="fill: none; stroke: #d3d3d3"/>
    <path d="M 68.302154 143.546526 
L 227.691309 175.503025 
" clip-path="url(#pcf0b912f9d)" style="fill: none; stroke: #d3d3d3"/>
    <path d="M 68.302154 143.546526 
L 313.521143 126.978182 
" clip-path="url(#pcf0b912f9d)" style="fill: none; stroke: #d3d3d3"/>
    <path d="M 68.302154 143.546526 
L 111.890824 178.105784 
" clip-path="url(#pcf0b912f9d)" style="fill: none; stroke: #d3d3d3"/>
    <path d="M 68.302154 143.546526 
L 359.38526 256.226499 
" clip-path="url(#pcf0b912f9d)" style="fill: none; stroke: #d3d3d3"/>
    <path d="M 68.302154 143.546526 
L 247.018918 217.020328 
" clip-path="url(#pcf0b912f9d)" style="fill: none; stroke: #d3d3d3"/>
    <path d="M 68.302154 143.546526 
L 58.382225 271.01228 
" clip-path="url(#pcf0b912f9d)" style="fill: none; stroke: #d3d3d3"/>
    <path d="M 68.302154 143.546526 
L 194.20403 317.927011 
" clip-path="url(#pcf0b912f9d)" style="fill: none; stroke: #d3d3d3"/>
    <path d="M 68.302154 143.546526 
L 173.362268 370.651453 
" clip-path="url(#pcf0b912f9d)" style="fill: none; stroke: #d3d3d3"/>
    <path d="M 313.521143 126.978182 
L 160.420526 276.863799 
" clip-path="url(#pcf0b912f9d)" style="fill: none; stroke: #d3d3d3"/>
    <path d="M 313.521143 126.978182 
L 294.394905 384.21049 
" clip-path="url(#pcf0b912f9d)" style="fill: none; stroke: #d3d3d3"/>
    <path d="M 313.521143 126.978182 
L 247.018918 217.020328 
" clip-path="url(#pcf0b912f9d)" style="fill: none; stroke: #d3d3d3"/>
    <path d="M 313.521143 126.978182 
L 299.011179 313.347666 
" clip-path="url(#pcf0b912f9d)" style="fill: none; stroke: #d3d3d3"/>
    <path d="M 313.521143 126.978182 
L 374.782296 291.850112 
" clip-path="url(#pcf0b912f9d)" style="fill: none; stroke: #d3d3d3"/>
    <path d="M 313.521143 126.978182 
L 460.264463 206.522406 
" clip-path="url(#pcf0b912f9d)" style="fill: none; stroke: #d3d3d3"/>
    <path d="M 313.521143 126.978182 
L 111.890824 178.105784 
" clip-path="url(#pcf0b912f9d)" style="fill: none; stroke: #d3d3d3"/>
    <path d="M 313.521143 126.978182 
L 359.38526 256.226499 
" clip-path="url(#pcf0b912f9d)" style="fill: none; stroke: #d3d3d3"/>
    <path d="M 313.521143 126.978182 
L 43.735537 228.682002 
" clip-path="url(#pcf0b912f9d)" style="fill: none; stroke: #d3d3d3"/>
    <path d="M 313.521143 126.978182 
L 300.955691 260.756227 
" clip-path="url(#pcf0b912f9d)" style="fill: none; stroke: #d3d3d3"/>
    <path d="M 313.521143 126.978182 
L 146.31579 232.264607 
" clip-path="url(#pcf0b912f9d)" style="fill: none; stroke: #d3d3d3"/>
    <path d="M 313.521143 126.978182 
L 400.433672 260.200792 
" clip-path="url(#pcf0b912f9d)" style="fill: none; stroke: #d3d3d3"/>
    <path d="M 111.890824 178.105784 
L 73.955641 305.48367 
" clip-path="url(#pcf0b912f9d)" style="fill: none; stroke: #d3d3d3"/>
    <path d="M 111.890824 178.105784 
L 43.735537 228.682002 
" clip-path="url(#pcf0b912f9d)" style="fill: none; stroke: #d3d3d3"/>
    <path d="M 111.890824 178.105784 
L 58.382225 271.01228 
" clip-path="url(#pcf0b912f9d)" style="fill: none; stroke: #d3d3d3"/>
    <path d="M 111.890824 178.105784 
L 103.220236 349.378252 
" clip-path="url(#pcf0b912f9d)" style="fill: none; stroke: #d3d3d3"/>
    <path d="M 111.890824 178.105784 
L 239.107063 346.076236 
" clip-path="url(#pcf0b912f9d)" style="fill: none; stroke: #d3d3d3"/>
    <path d="M 111.890824 178.105784 
L 359.38526 256.226499 
" clip-path="url(#pcf0b912f9d)" style="fill: none; stroke: #d3d3d3"/>
    <path d="M 111.890824 178.105784 
L 160.420526 276.863799 
" clip-path="url(#pcf0b912f9d)" style="fill: none; stroke: #d3d3d3"/>
    <path d="M 111.890824 178.105784 
L 130.030223 339.447429 
" clip-path="url(#pcf0b912f9d)" style="fill: none; stroke: #d3d3d3"/>
    <path d="M 111.890824 178.105784 
L 348.278534 334.534792 
" clip-path="url(#pcf0b912f9d)" style="fill: none; stroke: #d3d3d3"/>
    <path d="M 111.890824 178.105784 
L 260.770777 287.894508 
" clip-path="url(#pcf0b912f9d)" style="fill: none; stroke: #d3d3d3"/>
    <path d="M 359.38526 256.226499 
L 160.420526 276.863799 
" clip-path="url(#pcf0b912f9d)" style="fill: none; stroke: #d3d3d3"/>
    <path d="M 359.38526 256.226499 
L 300.955691 260.756227 
" clip-path="url(#pcf0b912f9d)" style="fill: none; stroke: #d3d3d3"/>
    <path d="M 359.38526 256.226499 
L 194.20403 317.927011 
" clip-path="url(#pcf0b912f9d)" style="fill: none; stroke: #d3d3d3"/>
    <path d="M 359.38526 256.226499 
L 338.507069 387.281373 
" clip-path="url(#pcf0b912f9d)" style="fill: none; stroke: #d3d3d3"/>
    <path d="M 359.38526 256.226499 
L 73.955641 305.48367 
" clip-path="url(#pcf0b912f9d)" style="fill: none; stroke: #d3d3d3"/>
    <path d="M 359.38526 256.226499 
L 294.394905 384.21049 
" clip-path="url(#pcf0b912f9d)" style="fill: none; stroke: #d3d3d3"/>
    <path d="M 359.38526 256.226499 
L 213.905017 394.512397 
" clip-path="url(#pcf0b912f9d)" style="fill: none; stroke: #d3d3d3"/>
    <path d="M 359.38526 256.226499 
L 425.033134 347.30952 
" clip-path="url(#pcf0b912f9d)" style="fill: none; stroke: #d3d3d3"/>
    <path d="M 89.090044 111.00264 
L 106.967267 241.339962 
" clip-path="url(#pcf0b912f9d)" style="fill: none; stroke: #d3d3d3"/>
    <path d="M 89.090044 111.00264 
L 103.220236 349.378252 
" clip-path="url(#pcf0b912f9d)" style="fill: none; stroke: #d3d3d3"/>
    <path d="M 89.090044 111.00264 
L 173.362268 370.651453 
" clip-path="url(#pcf0b912f9d)" style="fill: none; stroke: #d3d3d3"/>
    <path d="M 89.090044 111.00264 
L 170.405054 148.519399 
" clip-path="url(#pcf0b912f9d)" style="fill: none; stroke: #d3d3d3"/>
    <path d="M 89.090044 111.00264 
L 47.212806 183.982668 
" clip-path="url(#pcf0b912f9d)" style="fill: none; stroke: #d3d3d3"/>
    <path d="M 89.090044 111.00264 
L 247.018918 217.020328 
" clip-path="url(#pcf0b912f9d)" style="fill: none; stroke: #d3d3d3"/>
    <path d="M 89.090044 111.00264 
L 43.735537 228.682002 
" clip-path="url(#pcf0b912f9d)" style="fill: none; stroke: #d3d3d3"/>
    <path d="M 89.090044 111.00264 
L 160.420526 276.863799 
" clip-path="url(#pcf0b912f9d)" style="fill: none; stroke: #d3d3d3"/>
    <path d="M 89.090044 111.00264 
L 73.955641 305.48367 
" clip-path="url(#pcf0b912f9d)" style="fill: none; stroke: #d3d3d3"/>
    <path d="M 89.090044 111.00264 
L 364.534219 189.99703 
" clip-path="url(#pcf0b912f9d)" style="fill: none; stroke: #d3d3d3"/>
    <path d="M 89.090044 111.00264 
L 227.691309 175.503025 
" clip-path="url(#pcf0b912f9d)" style="fill: none; stroke: #d3d3d3"/>
    <path d="M 89.090044 111.00264 
L 460.264463 206.522406 
" clip-path="url(#pcf0b912f9d)" style="fill: none; stroke: #d3d3d3"/>
    <path d="M 170.405054 148.519399 
L 299.011179 313.347666 
" clip-path="url(#pcf0b912f9d)" style="fill: none; stroke: #d3d3d3"/>
    <path d="M 170.405054 148.519399 
L 194.20403 317.927011 
" clip-path="url(#pcf0b912f9d)" style="fill: none; stroke: #d3d3d3"/>
    <path d="M 170.405054 148.519399 
L 400.433672 260.200792 
" clip-path="url(#pcf0b912f9d)" style="fill: none; stroke: #d3d3d3"/>
    <path d="M 170.405054 148.519399 
L 364.534219 189.99703 
" clip-path="url(#pcf0b912f9d)" style="fill: none; stroke: #d3d3d3"/>
    <path d="M 170.405054 148.519399 
L 47.212806 183.982668 
" clip-path="url(#pcf0b912f9d)" style="fill: none; stroke: #d3d3d3"/>
    <path d="M 170.405054 148.519399 
L 247.018918 217.020328 
" clip-path="url(#pcf0b912f9d)" style="fill: none; stroke: #d3d3d3"/>
    <path d="M 170.405054 148.519399 
L 43.735537 228.682002 
" clip-path="url(#pcf0b912f9d)" style="fill: none; stroke: #d3d3d3"/>
    <path d="M 170.405054 148.519399 
L 160.420526 276.863799 
" clip-path="url(#pcf0b912f9d)" style="fill: none; stroke: #d3d3d3"/>
    <path d="M 170.405054 148.519399 
L 73.955641 305.48367 
" clip-path="url(#pcf0b912f9d)" style="fill: none; stroke: #d3d3d3"/>
    <path d="M 170.405054 148.519399 
L 106.967267 241.339962 
" clip-path="url(#pcf0b912f9d)" style="fill: none; stroke: #d3d3d3"/>
    <path d="M 170.405054 148.519399 
L 374.782296 291.850112 
" clip-path="url(#pcf0b912f9d)" style="fill: none; stroke: #d3d3d3"/>
    <path d="M 170.405054 148.519399 
L 239.107063 346.076236 
" clip-path="url(#pcf0b912f9d)" style="fill: none; stroke: #d3d3d3"/>
    <path d="M 47.212806 183.982668 
L 58.382225 271.01228 
" clip-path="url(#pcf0b912f9d)" style="fill: none; stroke: #d3d3d3"/>
    <path d="M 47.212806 183.982668 
L 146.31579 232.264607 
" clip-path="url(#pcf0b912f9d)" style="fill: none; stroke: #d3d3d3"/>
    <path d="M 47.212806 183.982668 
L 260.770777 287.894508 
" clip-path="url(#pcf0b912f9d)" style="fill: none; stroke: #d3d3d3"/>
    <path d="M 47.212806 183.982668 
L 106.967267 241.339962 
" clip-path="url(#pcf0b912f9d)" style="fill: none; stroke: #d3d3d3"/>
    <path d="M 47.212806 183.982668 
L 227.691309 175.503025 
" clip-path="url(#pcf0b912f9d)" style="fill: none; stroke: #d3d3d3"/>
    <path d="M 47.212806 183.982668 
L 247.018918 217.020328 
" clip-path="url(#pcf0b912f9d)" style="fill: none; stroke: #d3d3d3"/>
    <path d="M 47.212806 183.982668 
L 43.735537 228.682002 
" clip-path="url(#pcf0b912f9d)" style="fill: none; stroke: #d3d3d3"/>
    <path d="M 47.212806 183.982668 
L 160.420526 276.863799 
" clip-path="url(#pcf0b912f9d)" style="fill: none; stroke: #d3d3d3"/>
    <path d="M 47.212806 183.982668 
L 73.955641 305.48367 
" clip-path="url(#pcf0b912f9d)" style="fill: none; stroke: #d3d3d3"/>
    <path d="M 47.212806 183.982668 
L 299.011179 313.347666 
" clip-path="url(#pcf0b912f9d)" style="fill: none; stroke: #d3d3d3"/>
    <path d="M 47.212806 183.982668 
L 103.220236 349.378252 
" clip-path="url(#pcf0b912f9d)" style="fill: none; stroke: #d3d3d3"/>
    <path d="M 47.212806 183.982668 
L 338.507069 387.281373 
" clip-path="url(#pcf0b912f9d)" style="fill: none; stroke: #d3d3d3"/>
    <path d="M 247.018918 217.020328 
L 300.955691 260.756227 
" clip-path="url(#pcf0b912f9d)" style="fill: none; stroke: #d3d3d3"/>
    <path d="M 247.018918 217.020328 
L 348.278534 334.534792 
" clip-path="url(#pcf0b912f9d)" style="fill: none; stroke: #d3d3d3"/>
    <path d="M 247.018918 217.020328 
L 425.033134 347.30952 
" clip-path="url(#pcf0b912f9d)" style="fill: none; stroke: #d3d3d3"/>
    <path d="M 247.018918 217.020328 
L 299.011179 313.347666 
" clip-path="url(#pcf0b912f9d)" style="fill: none; stroke: #d3d3d3"/>
    <path d="M 247.018918 217.020328 
L 374.782296 291.850112 
" clip-path="url(#pcf0b912f9d)" style="fill: none; stroke: #d3d3d3"/>
    <path d="M 247.018918 217.020328 
L 460.264463 206.522406 
" clip-path="url(#pcf0b912f9d)" style="fill: none; stroke: #d3d3d3"/>
    <path d="M 247.018918 217.020328 
L 43.735537 228.682002 
" clip-path="url(#pcf0b912f9d)" style="fill: none; stroke: #d3d3d3"/>
    <path d="M 247.018918 217.020328 
L 160.420526 276.863799 
" clip-path="url(#pcf0b912f9d)" style="fill: none; stroke: #d3d3d3"/>
    <path d="M 247.018918 217.020328 
L 73.955641 305.48367 
" clip-path="url(#pcf0b912f9d)" style="fill: none; stroke: #d3d3d3"/>
    <path d="M 247.018918 217.020328 
L 58.382225 271.01228 
" clip-path="url(#pcf0b912f9d)" style="fill: none; stroke: #d3d3d3"/>
    <path d="M 247.018918 217.020328 
L 194.20403 317.927011 
" clip-path="url(#pcf0b912f9d)" style="fill: none; stroke: #d3d3d3"/>
    <path d="M 247.018918 217.020328 
L 173.362268 370.651453 
" clip-path="url(#pcf0b912f9d)" style="fill: none; stroke: #d3d3d3"/>
    <path d="M 43.735537 228.682002 
L 130.030223 339.447429 
" clip-path="url(#pcf0b912f9d)" style="fill: none; stroke: #d3d3d3"/>
    <path d="M 43.735537 228.682002 
L 213.905017 394.512397 
" clip-path="url(#pcf0b912f9d)" style="fill: none; stroke: #d3d3d3"/>
    <path d="M 43.735537 228.682002 
L 58.382225 271.01228 
" clip-path="url(#pcf0b912f9d)" style="fill: none; stroke: #d3d3d3"/>
    <path d="M 43.735537 228.682002 
L 103.220236 349.378252 
" clip-path="url(#pcf0b912f9d)" style="fill: none; stroke: #d3d3d3"/>
    <path d="M 43.735537 228.682002 
L 239.107063 346.076236 
" clip-path="url(#pcf0b912f9d)" style="fill: none; stroke: #d3d3d3"/>
    <path d="M 43.735537 228.682002 
L 160.420526 276.863799 
" clip-path="url(#pcf0b912f9d)" style="fill: none; stroke: #d3d3d3"/>
    <path d="M 43.735537 228.682002 
L 73.955641 305.48367 
" clip-path="url(#pcf0b912f9d)" style="fill: none; stroke: #d3d3d3"/>
    <path d="M 43.735537 228.682002 
L 300.955691 260.756227 
" clip-path="url(#pcf0b912f9d)" style="fill: none; stroke: #d3d3d3"/>
    <path d="M 43.735537 228.682002 
L 146.31579 232.264607 
" clip-path="url(#pcf0b912f9d)" style="fill: none; stroke: #d3d3d3"/>
    <path d="M 43.735537 228.682002 
L 400.433672 260.200792 
" clip-path="url(#pcf0b912f9d)" style="fill: none; stroke: #d3d3d3"/>
    <path d="M 160.420526 276.863799 
L 294.394905 384.21049 
" clip-path="url(#pcf0b912f9d)" style="fill: none; stroke: #d3d3d3"/>
    <path d="M 160.420526 276.863799 
L 300.955691 260.756227 
" clip-path="url(#pcf0b912f9d)" style="fill: none; stroke: #d3d3d3"/>
    <path d="M 160.420526 276.863799 
L 194.20403 317.927011 
" clip-path="url(#pcf0b912f9d)" style="fill: none; stroke: #d3d3d3"/>
    <path d="M 160.420526 276.863799 
L 338.507069 387.281373 
" clip-path="url(#pcf0b912f9d)" style="fill: none; stroke: #d3d3d3"/>
    <path d="M 160.420526 276.863799 
L 73.955641 305.48367 
" clip-path="url(#pcf0b912f9d)" style="fill: none; stroke: #d3d3d3"/>
    <path d="M 160.420526 276.863799 
L 130.030223 339.447429 
" clip-path="url(#pcf0b912f9d)" style="fill: none; stroke: #d3d3d3"/>
    <path d="M 160.420526 276.863799 
L 348.278534 334.534792 
" clip-path="url(#pcf0b912f9d)" style="fill: none; stroke: #d3d3d3"/>
    <path d="M 160.420526 276.863799 
L 260.770777 287.894508 
" clip-path="url(#pcf0b912f9d)" style="fill: none; stroke: #d3d3d3"/>
    <path d="M 73.955641 305.48367 
L 130.030223 339.447429 
" clip-path="url(#pcf0b912f9d)" style="fill: none; stroke: #d3d3d3"/>
    <path d="M 73.955641 305.48367 
L 146.31579 232.264607 
" clip-path="url(#pcf0b912f9d)" style="fill: none; stroke: #d3d3d3"/>
    <path d="M 73.955641 305.48367 
L 173.362268 370.651453 
" clip-path="url(#pcf0b912f9d)" style="fill: none; stroke: #d3d3d3"/>
    <path d="M 73.955641 305.48367 
L 294.394905 384.21049 
" clip-path="url(#pcf0b912f9d)" style="fill: none; stroke: #d3d3d3"/>
    <path d="M 73.955641 305.48367 
L 213.905017 394.512397 
" clip-path="url(#pcf0b912f9d)" style="fill: none; stroke: #d3d3d3"/>
    <path d="M 73.955641 305.48367 
L 425.033134 347.30952 
" clip-path="url(#pcf0b912f9d)" style="fill: none; stroke: #d3d3d3"/>
    <path d="M 364.534219 189.99703 
L 374.782296 291.850112 
" clip-path="url(#pcf0b912f9d)" style="fill: none; stroke: #d3d3d3"/>
    <path d="M 364.534219 189.99703 
L 338.507069 387.281373 
" clip-path="url(#pcf0b912f9d)" style="fill: none; stroke: #d3d3d3"/>
    <path d="M 364.534219 189.99703 
L 106.967267 241.339962 
" clip-path="url(#pcf0b912f9d)" style="fill: none; stroke: #d3d3d3"/>
    <path d="M 364.534219 189.99703 
L 299.011179 313.347666 
" clip-path="url(#pcf0b912f9d)" style="fill: none; stroke: #d3d3d3"/>
    <path d="M 364.534219 189.99703 
L 58.382225 271.01228 
" clip-path="url(#pcf0b912f9d)" style="fill: none; stroke: #d3d3d3"/>
    <path d="M 364.534219 189.99703 
L 300.955691 260.756227 
" clip-path="url(#pcf0b912f9d)" style="fill: none; stroke: #d3d3d3"/>
    <path d="M 364.534219 189.99703 
L 130.030223 339.447429 
" clip-path="url(#pcf0b912f9d)" style="fill: none; stroke: #d3d3d3"/>
    <path d="M 364.534219 189.99703 
L 294.394905 384.21049 
" clip-path="url(#pcf0b912f9d)" style="fill: none; stroke: #d3d3d3"/>
    <path d="M 364.534219 189.99703 
L 227.691309 175.503025 
" clip-path="url(#pcf0b912f9d)" style="fill: none; stroke: #d3d3d3"/>
    <path d="M 364.534219 189.99703 
L 460.264463 206.522406 
" clip-path="url(#pcf0b912f9d)" style="fill: none; stroke: #d3d3d3"/>
    <path d="M 106.967267 241.339962 
L 103.220236 349.378252 
" clip-path="url(#pcf0b912f9d)" style="fill: none; stroke: #d3d3d3"/>
    <path d="M 106.967267 241.339962 
L 173.362268 370.651453 
" clip-path="url(#pcf0b912f9d)" style="fill: none; stroke: #d3d3d3"/>
    <path d="M 106.967267 241.339962 
L 227.691309 175.503025 
" clip-path="url(#pcf0b912f9d)" style="fill: none; stroke: #d3d3d3"/>
    <path d="M 106.967267 241.339962 
L 299.011179 313.347666 
" clip-path="url(#pcf0b912f9d)" style="fill: none; stroke: #d3d3d3"/>
    <path d="M 106.967267 241.339962 
L 58.382225 271.01228 
" clip-path="url(#pcf0b912f9d)" style="fill: none; stroke: #d3d3d3"/>
    <path d="M 106.967267 241.339962 
L 300.955691 260.756227 
" clip-path="url(#pcf0b912f9d)" style="fill: none; stroke: #d3d3d3"/>
    <path d="M 106.967267 241.339962 
L 130.030223 339.447429 
" clip-path="url(#pcf0b912f9d)" style="fill: none; stroke: #d3d3d3"/>
    <path d="M 106.967267 241.339962 
L 294.394905 384.21049 
" clip-path="url(#pcf0b912f9d)" style="fill: none; stroke: #d3d3d3"/>
    <path d="M 106.967267 241.339962 
L 374.782296 291.850112 
" clip-path="url(#pcf0b912f9d)" style="fill: none; stroke: #d3d3d3"/>
    <path d="M 106.967267 241.339962 
L 239.107063 346.076236 
" clip-path="url(#pcf0b912f9d)" style="fill: none; stroke: #d3d3d3"/>
    <path d="M 299.011179 313.347666 
L 194.20403 317.927011 
" clip-path="url(#pcf0b912f9d)" style="fill: none; stroke: #d3d3d3"/>
    <path d="M 299.011179 313.347666 
L 400.433672 260.200792 
" clip-path="url(#pcf0b912f9d)" style="fill: none; stroke: #d3d3d3"/>
    <path d="M 299.011179 313.347666 
L 374.782296 291.850112 
" clip-path="url(#pcf0b912f9d)" style="fill: none; stroke: #d3d3d3"/>
    <path d="M 299.011179 313.347666 
L 460.264463 206.522406 
" clip-path="url(#pcf0b912f9d)" style="fill: none; stroke: #d3d3d3"/>
    <path d="M 299.011179 313.347666 
L 58.382225 271.01228 
" clip-path="url(#pcf0b912f9d)" style="fill: none; stroke: #d3d3d3"/>
    <path d="M 299.011179 313.347666 
L 300.955691 260.756227 
" clip-path="url(#pcf0b912f9d)" style="fill: none; stroke: #d3d3d3"/>
    <path d="M 299.011179 313.347666 
L 130.030223 339.447429 
" clip-path="url(#pcf0b912f9d)" style="fill: none; stroke: #d3d3d3"/>
    <path d="M 299.011179 313.347666 
L 294.394905 384.21049 
" clip-path="url(#pcf0b912f9d)" style="fill: none; stroke: #d3d3d3"/>
    <path d="M 299.011179 313.347666 
L 103.220236 349.378252 
" clip-path="url(#pcf0b912f9d)" style="fill: none; stroke: #d3d3d3"/>
    <path d="M 299.011179 313.347666 
L 338.507069 387.281373 
" clip-path="url(#pcf0b912f9d)" style="fill: none; stroke: #d3d3d3"/>
    <path d="M 58.382225 271.01228 
L 146.31579 232.264607 
" clip-path="url(#pcf0b912f9d)" style="fill: none; stroke: #d3d3d3"/>
    <path d="M 58.382225 271.01228 
L 260.770777 287.894508 
" clip-path="url(#pcf0b912f9d)" style="fill: none; stroke: #d3d3d3"/>
    <path d="M 58.382225 271.01228 
L 103.220236 349.378252 
" clip-path="url(#pcf0b912f9d)" style="fill: none; stroke: #d3d3d3"/>
    <path d="M 58.382225 271.01228 
L 239.107063 346.076236 
" clip-path="url(#pcf0b912f9d)" style="fill: none; stroke: #d3d3d3"/>
    <path d="M 58.382225 271.01228 
L 300.955691 260.756227 
" clip-path="url(#pcf0b912f9d)" style="fill: none; stroke: #d3d3d3"/>
    <path d="M 58.382225 271.01228 
L 130.030223 339.447429 
" clip-path="url(#pcf0b912f9d)" style="fill: none; stroke: #d3d3d3"/>
    <path d="M 58.382225 271.01228 
L 294.394905 384.21049 
" clip-path="url(#pcf0b912f9d)" style="fill: none; stroke: #d3d3d3"/>
    <path d="M 58.382225 271.01228 
L 194.20403 317.927011 
" clip-path="url(#pcf0b912f9d)" style="fill: none; stroke: #d3d3d3"/>
    <path d="M 58.382225 271.01228 
L 173.362268 370.651453 
" clip-path="url(#pcf0b912f9d)" style="fill: none; stroke: #d3d3d3"/>
    <path d="M 300.955691 260.756227 
L 348.278534 334.534792 
" clip-path="url(#pcf0b912f9d)" style="fill: none; stroke: #d3d3d3"/>
    <path d="M 300.955691 260.756227 
L 425.033134 347.30952 
" clip-path="url(#pcf0b912f9d)" style="fill: none; stroke: #d3d3d3"/>
    <path d="M 300.955691 260.756227 
L 194.20403 317.927011 
" clip-path="url(#pcf0b912f9d)" style="fill: none; stroke: #d3d3d3"/>
    <path d="M 300.955691 260.756227 
L 338.507069 387.281373 
" clip-path="url(#pcf0b912f9d)" style="fill: none; stroke: #d3d3d3"/>
    <path d="M 300.955691 260.756227 
L 130.030223 339.447429 
" clip-path="url(#pcf0b912f9d)" style="fill: none; stroke: #d3d3d3"/>
    <path d="M 300.955691 260.756227 
L 294.394905 384.21049 
" clip-path="url(#pcf0b912f9d)" style="fill: none; stroke: #d3d3d3"/>
    <path d="M 300.955691 260.756227 
L 146.31579 232.264607 
" clip-path="url(#pcf0b912f9d)" style="fill: none; stroke: #d3d3d3"/>
    <path d="M 300.955691 260.756227 
L 400.433672 260.200792 
" clip-path="url(#pcf0b912f9d)" style="fill: none; stroke: #d3d3d3"/>
    <path d="M 130.030223 339.447429 
L 213.905017 394.512397 
" clip-path="url(#pcf0b912f9d)" style="fill: none; stroke: #d3d3d3"/>
    <path d="M 130.030223 339.447429 
L 146.31579 232.264607 
" clip-path="url(#pcf0b912f9d)" style="fill: none; stroke: #d3d3d3"/>
    <path d="M 130.030223 339.447429 
L 173.362268 370.651453 
" clip-path="url(#pcf0b912f9d)" style="fill: none; stroke: #d3d3d3"/>
    <path d="M 130.030223 339.447429 
L 294.394905 384.21049 
" clip-path="url(#pcf0b912f9d)" style="fill: none; stroke: #d3d3d3"/>
    <path d="M 130.030223 339.447429 
L 348.278534 334.534792 
" clip-path="url(#pcf0b912f9d)" style="fill: none; stroke: #d3d3d3"/>
    <path d="M 130.030223 339.447429 
L 260.770777 287.894508 
" clip-path="url(#pcf0b912f9d)" style="fill: none; stroke: #d3d3d3"/>
    <path d="M 294.394905 384.21049 
L 348.278534 334.534792 
" clip-path="url(#pcf0b912f9d)" style="fill: none; stroke: #d3d3d3"/>
    <path d="M 294.394905 384.21049 
L 400.433672 260.200792 
" clip-path="url(#pcf0b912f9d)" style="fill: none; stroke: #d3d3d3"/>
    <path d="M 294.394905 384.21049 
L 213.905017 394.512397 
" clip-path="url(#pcf0b912f9d)" style="fill: none; stroke: #d3d3d3"/>
    <path d="M 294.394905 384.21049 
L 425.033134 347.30952 
" clip-path="url(#pcf0b912f9d)" style="fill: none; stroke: #d3d3d3"/>
    <path d="M 227.691309 175.503025 
L 239.107063 346.076236 
" clip-path="url(#pcf0b912f9d)" style="fill: none; stroke: #d3d3d3"/>
    <path d="M 227.691309 175.503025 
L 374.782296 291.850112 
" clip-path="url(#pcf0b912f9d)" style="fill: none; stroke: #d3d3d3"/>
    <path d="M 227.691309 175.503025 
L 103.220236 349.378252 
" clip-path="url(#pcf0b912f9d)" style="fill: none; stroke: #d3d3d3"/>
    <path d="M 227.691309 175.503025 
L 194.20403 317.927011 
" clip-path="url(#pcf0b912f9d)" style="fill: none; stroke: #d3d3d3"/>
    <path d="M 227.691309 175.503025 
L 146.31579 232.264607 
" clip-path="url(#pcf0b912f9d)" style="fill: none; stroke: #d3d3d3"/>
    <path d="M 227.691309 175.503025 
L 348.278534 334.534792 
" clip-path="url(#pcf0b912f9d)" style="fill: none; stroke: #d3d3d3"/>
    <path d="M 227.691309 175.503025 
L 213.905017 394.512397 
" clip-path="url(#pcf0b912f9d)" style="fill: none; stroke: #d3d3d3"/>
    <path d="M 227.691309 175.503025 
L 460.264463 206.522406 
" clip-path="url(#pcf0b912f9d)" style="fill: none; stroke: #d3d3d3"/>
    <path d="M 374.782296 291.850112 
L 338.507069 387.281373 
" clip-path="url(#pcf0b912f9d)" style="fill: none; stroke: #d3d3d3"/>
    <path d="M 374.782296 291.850112 
L 460.264463 206.522406 
" clip-path="url(#pcf0b912f9d)" style="fill: none; stroke: #d3d3d3"/>
    <path d="M 374.782296 291.850112 
L 103.220236 349.378252 
" clip-path="url(#pcf0b912f9d)" style="fill: none; stroke: #d3d3d3"/>
    <path d="M 374.782296 291.850112 
L 194.20403 317.927011 
" clip-path="url(#pcf0b912f9d)" style="fill: none; stroke: #d3d3d3"/>
    <path d="M 374.782296 291.850112 
L 146.31579 232.264607 
" clip-path="url(#pcf0b912f9d)" style="fill: none; stroke: #d3d3d3"/>
    <path d="M 374.782296 291.850112 
L 348.278534 334.534792 
" clip-path="url(#pcf0b912f9d)" style="fill: none; stroke: #d3d3d3"/>
    <path d="M 374.782296 291.850112 
L 213.905017 394.512397 
" clip-path="url(#pcf0b912f9d)" style="fill: none; stroke: #d3d3d3"/>
    <path d="M 374.782296 291.850112 
L 239.107063 346.076236 
" clip-path="url(#pcf0b912f9d)" style="fill: none; stroke: #d3d3d3"/>
    <path d="M 103.220236 349.378252 
L 173.362268 370.651453 
" clip-path="url(#pcf0b912f9d)" style="fill: none; stroke: #d3d3d3"/>
    <path d="M 103.220236 349.378252 
L 239.107063 346.076236 
" clip-path="url(#pcf0b912f9d)" style="fill: none; stroke: #d3d3d3"/>
    <path d="M 103.220236 349.378252 
L 194.20403 317.927011 
" clip-path="url(#pcf0b912f9d)" style="fill: none; stroke: #d3d3d3"/>
    <path d="M 103.220236 349.378252 
L 146.31579 232.264607 
" clip-path="url(#pcf0b912f9d)" style="fill: none; stroke: #d3d3d3"/>
    <path d="M 103.220236 349.378252 
L 348.278534 334.534792 
" clip-path="url(#pcf0b912f9d)" style="fill: none; stroke: #d3d3d3"/>
    <path d="M 103.220236 349.378252 
L 213.905017 394.512397 
" clip-path="url(#pcf0b912f9d)" style="fill: none; stroke: #d3d3d3"/>
    <path d="M 103.220236 349.378252 
L 338.507069 387.281373 
" clip-path="url(#pcf0b912f9d)" style="fill: none; stroke: #d3d3d3"/>
    <path d="M 194.20403 317.927011 
L 400.433672 260.200792 
" clip-path="url(#pcf0b912f9d)" style="fill: none; stroke: #d3d3d3"/>
    <path d="M 194.20403 317.927011 
L 338.507069 387.281373 
" clip-path="url(#pcf0b912f9d)" style="fill: none; stroke: #d3d3d3"/>
    <path d="M 194.20403 317.927011 
L 146.31579 232.264607 
" clip-path="url(#pcf0b912f9d)" style="fill: none; stroke: #d3d3d3"/>
    <path d="M 194.20403 317.927011 
L 348.278534 334.534792 
" clip-path="url(#pcf0b912f9d)" style="fill: none; stroke: #d3d3d3"/>
    <path d="M 194.20403 317.927011 
L 213.905017 394.512397 
" clip-path="url(#pcf0b912f9d)" style="fill: none; stroke: #d3d3d3"/>
    <path d="M 194.20403 317.927011 
L 173.362268 370.651453 
" clip-path="url(#pcf0b912f9d)" style="fill: none; stroke: #d3d3d3"/>
    <path d="M 146.31579 232.264607 
L 260.770777 287.894508 
" clip-path="url(#pcf0b912f9d)" style="fill: none; stroke: #d3d3d3"/>
    <path d="M 146.31579 232.264607 
L 173.362268 370.651453 
" clip-path="url(#pcf0b912f9d)" style="fill: none; stroke: #d3d3d3"/>
    <path d="M 146.31579 232.264607 
L 348.278534 334.534792 
" clip-path="url(#pcf0b912f9d)" style="fill: none; stroke: #d3d3d3"/>
    <path d="M 146.31579 232.264607 
L 213.905017 394.512397 
" clip-path="url(#pcf0b912f9d)" style="fill: none; stroke: #d3d3d3"/>
    <path d="M 146.31579 232.264607 
L 400.433672 260.200792 
" clip-path="url(#pcf0b912f9d)" style="fill: none; stroke: #d3d3d3"/>
    <path d="M 348.278534 334.534792 
L 425.033134 347.30952 
" clip-path="url(#pcf0b912f9d)" style="fill: none; stroke: #d3d3d3"/>
    <path d="M 348.278534 334.534792 
L 400.433672 260.200792 
" clip-path="url(#pcf0b912f9d)" style="fill: none; stroke: #d3d3d3"/>
    <path d="M 348.278534 334.534792 
L 213.905017 394.512397 
" clip-path="url(#pcf0b912f9d)" style="fill: none; stroke: #d3d3d3"/>
    <path d="M 348.278534 334.534792 
L 260.770777 287.894508 
" clip-path="url(#pcf0b912f9d)" style="fill: none; stroke: #d3d3d3"/>
    <path d="M 213.905017 394.512397 
L 260.770777 287.894508 
" clip-path="url(#pcf0b912f9d)" style="fill: none; stroke: #d3d3d3"/>
    <path d="M 213.905017 394.512397 
L 425.033134 347.30952 
" clip-path="url(#pcf0b912f9d)" style="fill: none; stroke: #d3d3d3"/>
    <path d="M 460.264463 206.522406 
L 239.107063 346.076236 
" clip-path="url(#pcf0b912f9d)" style="fill: none; stroke: #d3d3d3"/>
    <path d="M 460.264463 206.522406 
L 338.507069 387.281373 
" clip-path="url(#pcf0b912f9d)" style="fill: none; stroke: #d3d3d3"/>
    <path d="M 460.264463 206.522406 
L 173.362268 370.651453 
" clip-path="url(#pcf0b912f9d)" style="fill: none; stroke: #d3d3d3"/>
    <path d="M 460.264463 206.522406 
L 400.433672 260.200792 
" clip-path="url(#pcf0b912f9d)" style="fill: none; stroke: #d3d3d3"/>
    <path d="M 460.264463 206.522406 
L 260.770777 287.894508 
" clip-path="url(#pcf0b912f9d)" style="fill: none; stroke: #d3d3d3"/>
    <path d="M 460.264463 206.522406 
L 425.033134 347.30952 
" clip-path="url(#pcf0b912f9d)" style="fill: none; stroke: #d3d3d3"/>
    <path d="M 239.107063 346.076236 
L 338.507069 387.281373 
" clip-path="url(#pcf0b912f9d)" style="fill: none; stroke: #d3d3d3"/>
    <path d="M 239.107063 346.076236 
L 173.362268 370.651453 
" clip-path="url(#pcf0b912f9d)" style="fill: none; stroke: #d3d3d3"/>
    <path d="M 239.107063 346.076236 
L 400.433672 260.200792 
" clip-path="url(#pcf0b912f9d)" style="fill: none; stroke: #d3d3d3"/>
    <path d="M 239.107063 346.076236 
L 260.770777 287.894508 
" clip-path="url(#pcf0b912f9d)" style="fill: none; stroke: #d3d3d3"/>
    <path d="M 239.107063 346.076236 
L 425.033134 347.30952 
" clip-path="url(#pcf0b912f9d)" style="fill: none; stroke: #d3d3d3"/>
    <path d="M 338.507069 387.281373 
L 173.362268 370.651453 
" clip-path="url(#pcf0b912f9d)" style="fill: none; stroke: #d3d3d3"/>
    <path d="M 338.507069 387.281373 
L 400.433672 260.200792 
" clip-path="url(#pcf0b912f9d)" style="fill: none; stroke: #d3d3d3"/>
    <path d="M 338.507069 387.281373 
L 260.770777 287.894508 
" clip-path="url(#pcf0b912f9d)" style="fill: none; stroke: #d3d3d3"/>
    <path d="M 338.507069 387.281373 
L 425.033134 347.30952 
" clip-path="url(#pcf0b912f9d)" style="fill: none; stroke: #d3d3d3"/>
    <path d="M 173.362268 370.651453 
L 400.433672 260.200792 
" clip-path="url(#pcf0b912f9d)" style="fill: none; stroke: #d3d3d3"/>
    <path d="M 173.362268 370.651453 
L 260.770777 287.894508 
" clip-path="url(#pcf0b912f9d)" style="fill: none; stroke: #d3d3d3"/>
    <path d="M 173.362268 370.651453 
L 425.033134 347.30952 
" clip-path="url(#pcf0b912f9d)" style="fill: none; stroke: #d3d3d3"/>
    <path d="M 400.433672 260.200792 
L 260.770777 287.894508 
" clip-path="url(#pcf0b912f9d)" style="fill: none; stroke: #d3d3d3"/>
    <path d="M 400.433672 260.200792 
L 425.033134 347.30952 
" clip-path="url(#pcf0b912f9d)" style="fill: none; stroke: #d3d3d3"/>
    <path d="M 260.770777 287.894508 
L 425.033134 347.30952 
" clip-path="url(#pcf0b912f9d)" style="fill: none; stroke: #d3d3d3"/>
   </g>
   <g id="PathCollection_1">
    <defs>
     <path id="C0_0_7f6e458d8d" d="M 0 5 
C 1.326016 5 2.597899 4.473168 3.535534 3.535534 
C 4.473168 2.597899 5 1.326016 5 -0 
C 5 -1.326016 4.473168 -2.597899 3.535534 -3.535534 
C 2.597899 -4.473168 1.326016 -5 0 -5 
C -1.326016 -5 -2.597899 -4.473168 -3.535534 -3.535534 
C -4.473168 -2.597899 -5 -1.326016 -5 0 
C -5 1.326016 -4.473168 2.597899 -3.535534 3.535534 
C -2.597899 4.473168 -1.326016 5 0 5 
z
"/>
    </defs>
    <g clip-path="url(#pcf0b912f9d)">
     <use xlink:href="#C0_0_7f6e458d8d" x="443.768433" y="106.605733" style="fill: #8000ff; stroke: #8000ff"/>
    </g>
    <g clip-path="url(#pcf0b912f9d)">
     <use xlink:href="#C0_0_7f6e458d8d" x="271.641522" y="148.179017" style="fill: #4856fb; stroke: #4856fb"/>
    </g>
    <g clip-path="url(#pcf0b912f9d)">
     <use xlink:href="#C0_0_7f6e458d8d" x="405.862559" y="190.404743" style="fill: #10a2f0; stroke: #10a2f0"/>
    </g>
    <g clip-path="url(#pcf0b912f9d)">
     <use xlink:href="#C0_0_7f6e458d8d" x="197.785795" y="56.872098" style="fill: #2adddd; stroke: #2adddd"/>
    </g>
    <g clip-path="url(#pcf0b912f9d)">
     <use xlink:href="#C0_0_7f6e458d8d" x="364.152492" y="57.822392" style="fill: #62fbc4; stroke: #62fbc4"/>
    </g>
    <g clip-path="url(#pcf0b912f9d)">
     <use xlink:href="#C0_0_7f6e458d8d" x="259.184066" y="88.188188" style="fill: #9cfba4; stroke: #9cfba4"/>
    </g>
    <g clip-path="url(#pcf0b912f9d)">
     <use xlink:href="#C0_0_7f6e458d8d" x="456.88587" y="249.956452" style="fill: #d4dd80; stroke: #d4dd80"/>
    </g>
    <g clip-path="url(#pcf0b912f9d)">
     <use xlink:href="#C0_0_7f6e458d8d" x="241.692523" y="37.487603" style="fill: #ffa256; stroke: #ffa256"/>
    </g>
    <g clip-path="url(#pcf0b912f9d)">
     <use xlink:href="#C0_0_7f6e458d8d" x="365.662611" y="111.167594" style="fill: #ff562c; stroke: #ff562c"/>
    </g>
    <g clip-path="url(#pcf0b912f9d)">
     <use xlink:href="#C0_0_7f6e458d8d" x="149.504214" y="191.26638" style="fill: #9cfba4; stroke: #9cfba4"/>
    </g>
    <g clip-path="url(#pcf0b912f9d)">
     <use xlink:href="#C0_0_7f6e458d8d" x="210.283011" y="111.363902" style="fill: #d4dd80; stroke: #d4dd80"/>
    </g>
    <g clip-path="url(#pcf0b912f9d)">
     <use xlink:href="#C0_0_7f6e458d8d" x="124.923301" y="70.560302" style="fill: #10a2f0; stroke: #10a2f0"/>
    </g>
    <g clip-path="url(#pcf0b912f9d)">
     <use xlink:href="#C0_0_7f6e458d8d" x="385.33958" y="156.299198" style="fill: #ff0000; stroke: #ff0000"/>
    </g>
    <g clip-path="url(#pcf0b912f9d)">
     <use xlink:href="#C0_0_7f6e458d8d" x="221.419762" y="256.15342" style="fill: #62fbc4; stroke: #62fbc4"/>
    </g>
    <g clip-path="url(#pcf0b912f9d)">
     <use xlink:href="#C0_0_7f6e458d8d" x="319.923731" y="56.207303" style="fill: #9cfba4; stroke: #9cfba4"/>
    </g>
    <g clip-path="url(#pcf0b912f9d)">
     <use xlink:href="#C0_0_7f6e458d8d" x="149.970336" y="83.240475" style="fill: #10a2f0; stroke: #10a2f0"/>
    </g>
    <g clip-path="url(#pcf0b912f9d)">
     <use xlink:href="#C0_0_7f6e458d8d" x="307.284925" y="179.343165" style="fill: #2adddd; stroke: #2adddd"/>
    </g>
    <g clip-path="url(#pcf0b912f9d)">
     <use xlink:href="#C0_0_7f6e458d8d" x="68.302154" y="143.546526" style="fill: #ff0000; stroke: #ff0000"/>
    </g>
    <g clip-path="url(#pcf0b912f9d)">
     <use xlink:href="#C0_0_7f6e458d8d" x="313.521143" y="126.978182" style="fill: #8000ff; stroke: #8000ff"/>
    </g>
    <g clip-path="url(#pcf0b912f9d)">
     <use xlink:href="#C0_0_7f6e458d8d" x="111.890824" y="178.105784" style="fill: #4856fb; stroke: #4856fb"/>
    </g>
    <g clip-path="url(#pcf0b912f9d)">
     <use xlink:href="#C0_0_7f6e458d8d" x="359.38526" y="256.226499" style="fill: #ff562c; stroke: #ff562c"/>
    </g>
    <g clip-path="url(#pcf0b912f9d)">
     <use xlink:href="#C0_0_7f6e458d8d" x="89.090044" y="111.00264" style="fill: #d4dd80; stroke: #d4dd80"/>
    </g>
    <g clip-path="url(#pcf0b912f9d)">
     <use xlink:href="#C0_0_7f6e458d8d" x="170.405054" y="148.519399" style="fill: #8000ff; stroke: #8000ff"/>
    </g>
    <g clip-path="url(#pcf0b912f9d)">
     <use xlink:href="#C0_0_7f6e458d8d" x="47.212806" y="183.982668" style="fill: #4856fb; stroke: #4856fb"/>
    </g>
    <g clip-path="url(#pcf0b912f9d)">
     <use xlink:href="#C0_0_7f6e458d8d" x="247.018918" y="217.020328" style="fill: #9cfba4; stroke: #9cfba4"/>
    </g>
    <g clip-path="url(#pcf0b912f9d)">
     <use xlink:href="#C0_0_7f6e458d8d" x="43.735537" y="228.682002" style="fill: #2adddd; stroke: #2adddd"/>
    </g>
    <g clip-path="url(#pcf0b912f9d)">
     <use xlink:href="#C0_0_7f6e458d8d" x="160.420526" y="276.863799" style="fill: #62fbc4; stroke: #62fbc4"/>
    </g>
    <g clip-path="url(#pcf0b912f9d)">
     <use xlink:href="#C0_0_7f6e458d8d" x="73.955641" y="305.48367" style="fill: #ff0000; stroke: #ff0000"/>
    </g>
    <g clip-path="url(#pcf0b912f9d)">
     <use xlink:href="#C0_0_7f6e458d8d" x="364.534219" y="189.99703" style="fill: #4856fb; stroke: #4856fb"/>
    </g>
    <g clip-path="url(#pcf0b912f9d)">
     <use xlink:href="#C0_0_7f6e458d8d" x="106.967267" y="241.339962" style="fill: #ffa256; stroke: #ffa256"/>
    </g>
    <g clip-path="url(#pcf0b912f9d)">
     <use xlink:href="#C0_0_7f6e458d8d" x="299.011179" y="313.347666" style="fill: #62fbc4; stroke: #62fbc4"/>
    </g>
    <g clip-path="url(#pcf0b912f9d)">
     <use xlink:href="#C0_0_7f6e458d8d" x="58.382225" y="271.01228" style="fill: #ff562c; stroke: #ff562c"/>
    </g>
    <g clip-path="url(#pcf0b912f9d)">
     <use xlink:href="#C0_0_7f6e458d8d" x="300.955691" y="260.756227" style="fill: #ff0000; stroke: #ff0000"/>
    </g>
    <g clip-path="url(#pcf0b912f9d)">
     <use xlink:href="#C0_0_7f6e458d8d" x="130.030223" y="339.447429" style="fill: #8000ff; stroke: #8000ff"/>
    </g>
    <g clip-path="url(#pcf0b912f9d)">
     <use xlink:href="#C0_0_7f6e458d8d" x="294.394905" y="384.21049" style="fill: #9cfba4; stroke: #9cfba4"/>
    </g>
    <g clip-path="url(#pcf0b912f9d)">
     <use xlink:href="#C0_0_7f6e458d8d" x="227.691309" y="175.503025" style="fill: #62fbc4; stroke: #62fbc4"/>
    </g>
    <g clip-path="url(#pcf0b912f9d)">
     <use xlink:href="#C0_0_7f6e458d8d" x="374.782296" y="291.850112" style="fill: #2adddd; stroke: #2adddd"/>
    </g>
    <g clip-path="url(#pcf0b912f9d)">
     <use xlink:href="#C0_0_7f6e458d8d" x="103.220236" y="349.378252" style="fill: #8000ff; stroke: #8000ff"/>
    </g>
    <g clip-path="url(#pcf0b912f9d)">
     <use xlink:href="#C0_0_7f6e458d8d" x="194.20403" y="317.927011" style="fill: #4856fb; stroke: #4856fb"/>
    </g>
    <g clip-path="url(#pcf0b912f9d)">
     <use xlink:href="#C0_0_7f6e458d8d" x="146.31579" y="232.264607" style="fill: #9cfba4; stroke: #9cfba4"/>
    </g>
    <g clip-path="url(#pcf0b912f9d)">
     <use xlink:href="#C0_0_7f6e458d8d" x="348.278534" y="334.534792" style="fill: #d4dd80; stroke: #d4dd80"/>
    </g>
    <g clip-path="url(#pcf0b912f9d)">
     <use xlink:href="#C0_0_7f6e458d8d" x="213.905017" y="394.512397" style="fill: #10a2f0; stroke: #10a2f0"/>
    </g>
    <g clip-path="url(#pcf0b912f9d)">
     <use xlink:href="#C0_0_7f6e458d8d" x="460.264463" y="206.522406" style="fill: #ff562c; stroke: #ff562c"/>
    </g>
    <g clip-path="url(#pcf0b912f9d)">
     <use xlink:href="#C0_0_7f6e458d8d" x="239.107063" y="346.076236" style="fill: #9cfba4; stroke: #9cfba4"/>
    </g>
    <g clip-path="url(#pcf0b912f9d)">
     <use xlink:href="#C0_0_7f6e458d8d" x="338.507069" y="387.281373" style="fill: #d4dd80; stroke: #d4dd80"/>
    </g>
    <g clip-path="url(#pcf0b912f9d)">
     <use xlink:href="#C0_0_7f6e458d8d" x="173.362268" y="370.651453" style="fill: #10a2f0; stroke: #10a2f0"/>
    </g>
    <g clip-path="url(#pcf0b912f9d)">
     <use xlink:href="#C0_0_7f6e458d8d" x="400.433672" y="260.200792" style="fill: #ffa256; stroke: #ffa256"/>
    </g>
    <g clip-path="url(#pcf0b912f9d)">
     <use xlink:href="#C0_0_7f6e458d8d" x="260.770777" y="287.894508" style="fill: #2adddd; stroke: #2adddd"/>
    </g>
    <g clip-path="url(#pcf0b912f9d)">
     <use xlink:href="#C0_0_7f6e458d8d" x="425.033134" y="347.30952" style="fill: #4856fb; stroke: #4856fb"/>
    </g>
   </g>
   <g id="text_1">
    <!-- Colored Graph - queen7_7 -->
    <g transform="translate(173.24625 -6) scale(0.12 -0.12)">
     <defs>
      <path id="DejaVuSans-43" d="M 4122 4306 
L 4122 3641 
Q 3803 3938 3442 4084 
Q 3081 4231 2675 4231 
Q 1875 4231 1450 3742 
Q 1025 3253 1025 2328 
Q 1025 1406 1450 917 
Q 1875 428 2675 428 
Q 3081 428 3442 575 
Q 3803 722 4122 1019 
L 4122 359 
Q 3791 134 3420 21 
Q 3050 -91 2638 -91 
Q 1578 -91 968 557 
Q 359 1206 359 2328 
Q 359 3453 968 4101 
Q 1578 4750 2638 4750 
Q 3056 4750 3426 4639 
Q 3797 4528 4122 4306 
z
" transform="scale(0.015625)"/>
      <path id="DejaVuSans-6f" d="M 1959 3097 
Q 1497 3097 1228 2736 
Q 959 2375 959 1747 
Q 959 1119 1226 758 
Q 1494 397 1959 397 
Q 2419 397 2687 759 
Q 2956 1122 2956 1747 
Q 2956 2369 2687 2733 
Q 2419 3097 1959 3097 
z
M 1959 3584 
Q 2709 3584 3137 3096 
Q 3566 2609 3566 1747 
Q 3566 888 3137 398 
Q 2709 -91 1959 -91 
Q 1206 -91 779 398 
Q 353 888 353 1747 
Q 353 2609 779 3096 
Q 1206 3584 1959 3584 
z
" transform="scale(0.015625)"/>
      <path id="DejaVuSans-6c" d="M 603 4863 
L 1178 4863 
L 1178 0 
L 603 0 
L 603 4863 
z
" transform="scale(0.015625)"/>
      <path id="DejaVuSans-72" d="M 2631 2963 
Q 2534 3019 2420 3045 
Q 2306 3072 2169 3072 
Q 1681 3072 1420 2755 
Q 1159 2438 1159 1844 
L 1159 0 
L 581 0 
L 581 3500 
L 1159 3500 
L 1159 2956 
Q 1341 3275 1631 3429 
Q 1922 3584 2338 3584 
Q 2397 3584 2469 3576 
Q 2541 3569 2628 3553 
L 2631 2963 
z
" transform="scale(0.015625)"/>
      <path id="DejaVuSans-65" d="M 3597 1894 
L 3597 1613 
L 953 1613 
Q 991 1019 1311 708 
Q 1631 397 2203 397 
Q 2534 397 2845 478 
Q 3156 559 3463 722 
L 3463 178 
Q 3153 47 2828 -22 
Q 2503 -91 2169 -91 
Q 1331 -91 842 396 
Q 353 884 353 1716 
Q 353 2575 817 3079 
Q 1281 3584 2069 3584 
Q 2775 3584 3186 3129 
Q 3597 2675 3597 1894 
z
M 3022 2063 
Q 3016 2534 2758 2815 
Q 2500 3097 2075 3097 
Q 1594 3097 1305 2825 
Q 1016 2553 972 2059 
L 3022 2063 
z
" transform="scale(0.015625)"/>
      <path id="DejaVuSans-64" d="M 2906 2969 
L 2906 4863 
L 3481 4863 
L 3481 0 
L 2906 0 
L 2906 525 
Q 2725 213 2448 61 
Q 2172 -91 1784 -91 
Q 1150 -91 751 415 
Q 353 922 353 1747 
Q 353 2572 751 3078 
Q 1150 3584 1784 3584 
Q 2172 3584 2448 3432 
Q 2725 3281 2906 2969 
z
M 947 1747 
Q 947 1113 1208 752 
Q 1469 391 1925 391 
Q 2381 391 2643 752 
Q 2906 1113 2906 1747 
Q 2906 2381 2643 2742 
Q 2381 3103 1925 3103 
Q 1469 3103 1208 2742 
Q 947 2381 947 1747 
z
" transform="scale(0.015625)"/>
      <path id="DejaVuSans-20" transform="scale(0.015625)"/>
      <path id="DejaVuSans-47" d="M 3809 666 
L 3809 1919 
L 2778 1919 
L 2778 2438 
L 4434 2438 
L 4434 434 
Q 4069 175 3628 42 
Q 3188 -91 2688 -91 
Q 1594 -91 976 548 
Q 359 1188 359 2328 
Q 359 3472 976 4111 
Q 1594 4750 2688 4750 
Q 3144 4750 3555 4637 
Q 3966 4525 4313 4306 
L 4313 3634 
Q 3963 3931 3569 4081 
Q 3175 4231 2741 4231 
Q 1884 4231 1454 3753 
Q 1025 3275 1025 2328 
Q 1025 1384 1454 906 
Q 1884 428 2741 428 
Q 3075 428 3337 486 
Q 3600 544 3809 666 
z
" transform="scale(0.015625)"/>
      <path id="DejaVuSans-61" d="M 2194 1759 
Q 1497 1759 1228 1600 
Q 959 1441 959 1056 
Q 959 750 1161 570 
Q 1363 391 1709 391 
Q 2188 391 2477 730 
Q 2766 1069 2766 1631 
L 2766 1759 
L 2194 1759 
z
M 3341 1997 
L 3341 0 
L 2766 0 
L 2766 531 
Q 2569 213 2275 61 
Q 1981 -91 1556 -91 
Q 1019 -91 701 211 
Q 384 513 384 1019 
Q 384 1609 779 1909 
Q 1175 2209 1959 2209 
L 2766 2209 
L 2766 2266 
Q 2766 2663 2505 2880 
Q 2244 3097 1772 3097 
Q 1472 3097 1187 3025 
Q 903 2953 641 2809 
L 641 3341 
Q 956 3463 1253 3523 
Q 1550 3584 1831 3584 
Q 2591 3584 2966 3190 
Q 3341 2797 3341 1997 
z
" transform="scale(0.015625)"/>
      <path id="DejaVuSans-70" d="M 1159 525 
L 1159 -1331 
L 581 -1331 
L 581 3500 
L 1159 3500 
L 1159 2969 
Q 1341 3281 1617 3432 
Q 1894 3584 2278 3584 
Q 2916 3584 3314 3078 
Q 3713 2572 3713 1747 
Q 3713 922 3314 415 
Q 2916 -91 2278 -91 
Q 1894 -91 1617 61 
Q 1341 213 1159 525 
z
M 3116 1747 
Q 3116 2381 2855 2742 
Q 2594 3103 2138 3103 
Q 1681 3103 1420 2742 
Q 1159 2381 1159 1747 
Q 1159 1113 1420 752 
Q 1681 391 2138 391 
Q 2594 391 2855 752 
Q 3116 1113 3116 1747 
z
" transform="scale(0.015625)"/>
      <path id="DejaVuSans-68" d="M 3513 2113 
L 3513 0 
L 2938 0 
L 2938 2094 
Q 2938 2591 2744 2837 
Q 2550 3084 2163 3084 
Q 1697 3084 1428 2787 
Q 1159 2491 1159 1978 
L 1159 0 
L 581 0 
L 581 4863 
L 1159 4863 
L 1159 2956 
Q 1366 3272 1645 3428 
Q 1925 3584 2291 3584 
Q 2894 3584 3203 3211 
Q 3513 2838 3513 2113 
z
" transform="scale(0.015625)"/>
      <path id="DejaVuSans-2d" d="M 313 2009 
L 1997 2009 
L 1997 1497 
L 313 1497 
L 313 2009 
z
" transform="scale(0.015625)"/>
      <path id="DejaVuSans-71" d="M 947 1747 
Q 947 1113 1208 752 
Q 1469 391 1925 391 
Q 2381 391 2643 752 
Q 2906 1113 2906 1747 
Q 2906 2381 2643 2742 
Q 2381 3103 1925 3103 
Q 1469 3103 1208 2742 
Q 947 2381 947 1747 
z
M 2906 525 
Q 2725 213 2448 61 
Q 2172 -91 1784 -91 
Q 1150 -91 751 415 
Q 353 922 353 1747 
Q 353 2572 751 3078 
Q 1150 3584 1784 3584 
Q 2172 3584 2448 3432 
Q 2725 3281 2906 2969 
L 2906 3500 
L 3481 3500 
L 3481 -1331 
L 2906 -1331 
L 2906 525 
z
" transform="scale(0.015625)"/>
      <path id="DejaVuSans-75" d="M 544 1381 
L 544 3500 
L 1119 3500 
L 1119 1403 
Q 1119 906 1312 657 
Q 1506 409 1894 409 
Q 2359 409 2629 706 
Q 2900 1003 2900 1516 
L 2900 3500 
L 3475 3500 
L 3475 0 
L 2900 0 
L 2900 538 
Q 2691 219 2414 64 
Q 2138 -91 1772 -91 
Q 1169 -91 856 284 
Q 544 659 544 1381 
z
M 1991 3584 
L 1991 3584 
z
" transform="scale(0.015625)"/>
      <path id="DejaVuSans-6e" d="M 3513 2113 
L 3513 0 
L 2938 0 
L 2938 2094 
Q 2938 2591 2744 2837 
Q 2550 3084 2163 3084 
Q 1697 3084 1428 2787 
Q 1159 2491 1159 1978 
L 1159 0 
L 581 0 
L 581 3500 
L 1159 3500 
L 1159 2956 
Q 1366 3272 1645 3428 
Q 1925 3584 2291 3584 
Q 2894 3584 3203 3211 
Q 3513 2838 3513 2113 
z
" transform="scale(0.015625)"/>
      <path id="DejaVuSans-37" d="M 525 4666 
L 3525 4666 
L 3525 4397 
L 1831 0 
L 1172 0 
L 2766 4134 
L 525 4134 
L 525 4666 
z
" transform="scale(0.015625)"/>
      <path id="DejaVuSans-5f" d="M 3263 -1063 
L 3263 -1509 
L -63 -1509 
L -63 -1063 
L 3263 -1063 
z
" transform="scale(0.015625)"/>
     </defs>
     <use xlink:href="#DejaVuSans-43"/>
     <use xlink:href="#DejaVuSans-6f" transform="translate(69.824219 0)"/>
     <use xlink:href="#DejaVuSans-6c" transform="translate(131.005859 0)"/>
     <use xlink:href="#DejaVuSans-6f" transform="translate(158.789062 0)"/>
     <use xlink:href="#DejaVuSans-72" transform="translate(219.970703 0)"/>
     <use xlink:href="#DejaVuSans-65" transform="translate(258.833984 0)"/>
     <use xlink:href="#DejaVuSans-64" transform="translate(320.357422 0)"/>
     <use xlink:href="#DejaVuSans-20" transform="translate(383.833984 0)"/>
     <use xlink:href="#DejaVuSans-47" transform="translate(415.621094 0)"/>
     <use xlink:href="#DejaVuSans-72" transform="translate(493.111328 0)"/>
     <use xlink:href="#DejaVuSans-61" transform="translate(534.224609 0)"/>
     <use xlink:href="#DejaVuSans-70" transform="translate(595.503906 0)"/>
     <use xlink:href="#DejaVuSans-68" transform="translate(658.980469 0)"/>
     <use xlink:href="#DejaVuSans-20" transform="translate(722.359375 0)"/>
     <use xlink:href="#DejaVuSans-2d" transform="translate(754.146484 0)"/>
     <use xlink:href="#DejaVuSans-20" transform="translate(790.230469 0)"/>
     <use xlink:href="#DejaVuSans-71" transform="translate(822.017578 0)"/>
     <use xlink:href="#DejaVuSans-75" transform="translate(885.494141 0)"/>
     <use xlink:href="#DejaVuSans-65" transform="translate(948.873047 0)"/>
     <use xlink:href="#DejaVuSans-65" transform="translate(1010.396484 0)"/>
     <use xlink:href="#DejaVuSans-6e" transform="translate(1071.919922 0)"/>
     <use xlink:href="#DejaVuSans-37" transform="translate(1135.298828 0)"/>
     <use xlink:href="#DejaVuSans-5f" transform="translate(1198.921875 0)"/>
     <use xlink:href="#DejaVuSans-37" transform="translate(1248.921875 0)"/>
    </g>
   </g>
   <g id="legend_1">
    <g id="patch_2">
     <path d="M 536.2 169.459375 
L 610.2125 169.459375 
Q 612.2125 169.459375 612.2125 167.459375 
L 612.2125 7 
Q 612.2125 5 610.2125 5 
L 536.2 5 
Q 534.2 5 534.2 7 
L 534.2 167.459375 
Q 534.2 169.459375 536.2 169.459375 
z
" style="fill: #ffffff; opacity: 0.8; stroke: #cccccc; stroke-linejoin: miter"/>
    </g>
    <g id="text_2">
     <!-- Colors -->
     <g transform="translate(557.546875 16.598437) scale(0.1 -0.1)">
      <defs>
       <path id="DejaVuSans-73" d="M 2834 3397 
L 2834 2853 
Q 2591 2978 2328 3040 
Q 2066 3103 1784 3103 
Q 1356 3103 1142 2972 
Q 928 2841 928 2578 
Q 928 2378 1081 2264 
Q 1234 2150 1697 2047 
L 1894 2003 
Q 2506 1872 2764 1633 
Q 3022 1394 3022 966 
Q 3022 478 2636 193 
Q 2250 -91 1575 -91 
Q 1294 -91 989 -36 
Q 684 19 347 128 
L 347 722 
Q 666 556 975 473 
Q 1284 391 1588 391 
Q 1994 391 2212 530 
Q 2431 669 2431 922 
Q 2431 1156 2273 1281 
Q 2116 1406 1581 1522 
L 1381 1569 
Q 847 1681 609 1914 
Q 372 2147 372 2553 
Q 372 3047 722 3315 
Q 1072 3584 1716 3584 
Q 2034 3584 2315 3537 
Q 2597 3491 2834 3397 
z
" transform="scale(0.015625)"/>
      </defs>
      <use xlink:href="#DejaVuSans-43"/>
      <use xlink:href="#DejaVuSans-6f" transform="translate(69.824219 0)"/>
      <use xlink:href="#DejaVuSans-6c" transform="translate(131.005859 0)"/>
      <use xlink:href="#DejaVuSans-6f" transform="translate(158.789062 0)"/>
      <use xlink:href="#DejaVuSans-72" transform="translate(219.970703 0)"/>
      <use xlink:href="#DejaVuSans-73" transform="translate(261.083984 0)"/>
     </g>
    </g>
    <g id="patch_3">
     <path d="M 538.2 31.276562 
L 558.2 31.276562 
L 558.2 24.276562 
L 538.2 24.276562 
z
" style="fill: #4e4dfc; stroke: #4e4dfc; stroke-linejoin: miter"/>
    </g>
    <g id="text_3">
     <!-- Color 1 -->
     <g transform="translate(566.2 31.276562) scale(0.1 -0.1)">
      <defs>
       <path id="DejaVuSans-31" d="M 794 531 
L 1825 531 
L 1825 4091 
L 703 3866 
L 703 4441 
L 1819 4666 
L 2450 4666 
L 2450 531 
L 3481 531 
L 3481 0 
L 794 0 
L 794 531 
z
" transform="scale(0.015625)"/>
      </defs>
      <use xlink:href="#DejaVuSans-43"/>
      <use xlink:href="#DejaVuSans-6f" transform="translate(69.824219 0)"/>
      <use xlink:href="#DejaVuSans-6c" transform="translate(131.005859 0)"/>
      <use xlink:href="#DejaVuSans-6f" transform="translate(158.789062 0)"/>
      <use xlink:href="#DejaVuSans-72" transform="translate(219.970703 0)"/>
      <use xlink:href="#DejaVuSans-20" transform="translate(261.083984 0)"/>
      <use xlink:href="#DejaVuSans-31" transform="translate(292.871094 0)"/>
     </g>
    </g>
    <g id="patch_4">
     <path d="M 538.2 45.954687 
L 558.2 45.954687 
L 558.2 38.954687 
L 538.2 38.954687 
z
" style="fill: #1996f3; stroke: #1996f3; stroke-linejoin: miter"/>
    </g>
    <g id="text_4">
     <!-- Color 2 -->
     <g transform="translate(566.2 45.954687) scale(0.1 -0.1)">
      <defs>
       <path id="DejaVuSans-32" d="M 1228 531 
L 3431 531 
L 3431 0 
L 469 0 
L 469 531 
Q 828 903 1448 1529 
Q 2069 2156 2228 2338 
Q 2531 2678 2651 2914 
Q 2772 3150 2772 3378 
Q 2772 3750 2511 3984 
Q 2250 4219 1831 4219 
Q 1534 4219 1204 4116 
Q 875 4013 500 3803 
L 500 4441 
Q 881 4594 1212 4672 
Q 1544 4750 1819 4750 
Q 2544 4750 2975 4387 
Q 3406 4025 3406 3419 
Q 3406 3131 3298 2873 
Q 3191 2616 2906 2266 
Q 2828 2175 2409 1742 
Q 1991 1309 1228 531 
z
" transform="scale(0.015625)"/>
      </defs>
      <use xlink:href="#DejaVuSans-43"/>
      <use xlink:href="#DejaVuSans-6f" transform="translate(69.824219 0)"/>
      <use xlink:href="#DejaVuSans-6c" transform="translate(131.005859 0)"/>
      <use xlink:href="#DejaVuSans-6f" transform="translate(158.789062 0)"/>
      <use xlink:href="#DejaVuSans-72" transform="translate(219.970703 0)"/>
      <use xlink:href="#DejaVuSans-20" transform="translate(261.083984 0)"/>
      <use xlink:href="#DejaVuSans-32" transform="translate(292.871094 0)"/>
     </g>
    </g>
    <g id="patch_5">
     <path d="M 538.2 60.632812 
L 558.2 60.632812 
L 558.2 53.632812 
L 538.2 53.632812 
z
" style="fill: #18cde4; stroke: #18cde4; stroke-linejoin: miter"/>
    </g>
    <g id="text_5">
     <!-- Color 3 -->
     <g transform="translate(566.2 60.632812) scale(0.1 -0.1)">
      <defs>
       <path id="DejaVuSans-33" d="M 2597 2516 
Q 3050 2419 3304 2112 
Q 3559 1806 3559 1356 
Q 3559 666 3084 287 
Q 2609 -91 1734 -91 
Q 1441 -91 1130 -33 
Q 819 25 488 141 
L 488 750 
Q 750 597 1062 519 
Q 1375 441 1716 441 
Q 2309 441 2620 675 
Q 2931 909 2931 1356 
Q 2931 1769 2642 2001 
Q 2353 2234 1838 2234 
L 1294 2234 
L 1294 2753 
L 1863 2753 
Q 2328 2753 2575 2939 
Q 2822 3125 2822 3475 
Q 2822 3834 2567 4026 
Q 2313 4219 1838 4219 
Q 1578 4219 1281 4162 
Q 984 4106 628 3988 
L 628 4550 
Q 988 4650 1302 4700 
Q 1616 4750 1894 4750 
Q 2613 4750 3031 4423 
Q 3450 4097 3450 3541 
Q 3450 3153 3228 2886 
Q 3006 2619 2597 2516 
z
" transform="scale(0.015625)"/>
      </defs>
      <use xlink:href="#DejaVuSans-43"/>
      <use xlink:href="#DejaVuSans-6f" transform="translate(69.824219 0)"/>
      <use xlink:href="#DejaVuSans-6c" transform="translate(131.005859 0)"/>
      <use xlink:href="#DejaVuSans-6f" transform="translate(158.789062 0)"/>
      <use xlink:href="#DejaVuSans-72" transform="translate(219.970703 0)"/>
      <use xlink:href="#DejaVuSans-20" transform="translate(261.083984 0)"/>
      <use xlink:href="#DejaVuSans-33" transform="translate(292.871094 0)"/>
     </g>
    </g>
    <g id="patch_6">
     <path d="M 538.2 75.310937 
L 558.2 75.310937 
L 558.2 68.310937 
L 538.2 68.310937 
z
" style="fill: #4df3ce; stroke: #4df3ce; stroke-linejoin: miter"/>
    </g>
    <g id="text_6">
     <!-- Color 4 -->
     <g transform="translate(566.2 75.310937) scale(0.1 -0.1)">
      <defs>
       <path id="DejaVuSans-34" d="M 2419 4116 
L 825 1625 
L 2419 1625 
L 2419 4116 
z
M 2253 4666 
L 3047 4666 
L 3047 1625 
L 3713 1625 
L 3713 1100 
L 3047 1100 
L 3047 0 
L 2419 0 
L 2419 1100 
L 313 1100 
L 313 1709 
L 2253 4666 
z
" transform="scale(0.015625)"/>
      </defs>
      <use xlink:href="#DejaVuSans-43"/>
      <use xlink:href="#DejaVuSans-6f" transform="translate(69.824219 0)"/>
      <use xlink:href="#DejaVuSans-6c" transform="translate(131.005859 0)"/>
      <use xlink:href="#DejaVuSans-6f" transform="translate(158.789062 0)"/>
      <use xlink:href="#DejaVuSans-72" transform="translate(219.970703 0)"/>
      <use xlink:href="#DejaVuSans-20" transform="translate(261.083984 0)"/>
      <use xlink:href="#DejaVuSans-34" transform="translate(292.871094 0)"/>
     </g>
    </g>
    <g id="patch_7">
     <path d="M 538.2 89.989062 
L 558.2 89.989062 
L 558.2 82.989062 
L 538.2 82.989062 
z
" style="fill: #80ffb4; stroke: #80ffb4; stroke-linejoin: miter"/>
    </g>
    <g id="text_7">
     <!-- Color 5 -->
     <g transform="translate(566.2 89.989062) scale(0.1 -0.1)">
      <defs>
       <path id="DejaVuSans-35" d="M 691 4666 
L 3169 4666 
L 3169 4134 
L 1269 4134 
L 1269 2991 
Q 1406 3038 1543 3061 
Q 1681 3084 1819 3084 
Q 2600 3084 3056 2656 
Q 3513 2228 3513 1497 
Q 3513 744 3044 326 
Q 2575 -91 1722 -91 
Q 1428 -91 1123 -41 
Q 819 9 494 109 
L 494 744 
Q 775 591 1075 516 
Q 1375 441 1709 441 
Q 2250 441 2565 725 
Q 2881 1009 2881 1497 
Q 2881 1984 2565 2268 
Q 2250 2553 1709 2553 
Q 1456 2553 1204 2497 
Q 953 2441 691 2322 
L 691 4666 
z
" transform="scale(0.015625)"/>
      </defs>
      <use xlink:href="#DejaVuSans-43"/>
      <use xlink:href="#DejaVuSans-6f" transform="translate(69.824219 0)"/>
      <use xlink:href="#DejaVuSans-6c" transform="translate(131.005859 0)"/>
      <use xlink:href="#DejaVuSans-6f" transform="translate(158.789062 0)"/>
      <use xlink:href="#DejaVuSans-72" transform="translate(219.970703 0)"/>
      <use xlink:href="#DejaVuSans-20" transform="translate(261.083984 0)"/>
      <use xlink:href="#DejaVuSans-35" transform="translate(292.871094 0)"/>
     </g>
    </g>
    <g id="patch_8">
     <path d="M 538.2 104.667187 
L 558.2 104.667187 
L 558.2 97.667187 
L 538.2 97.667187 
z
" style="fill: #b2f396; stroke: #b2f396; stroke-linejoin: miter"/>
    </g>
    <g id="text_8">
     <!-- Color 6 -->
     <g transform="translate(566.2 104.667187) scale(0.1 -0.1)">
      <defs>
       <path id="DejaVuSans-36" d="M 2113 2584 
Q 1688 2584 1439 2293 
Q 1191 2003 1191 1497 
Q 1191 994 1439 701 
Q 1688 409 2113 409 
Q 2538 409 2786 701 
Q 3034 994 3034 1497 
Q 3034 2003 2786 2293 
Q 2538 2584 2113 2584 
z
M 3366 4563 
L 3366 3988 
Q 3128 4100 2886 4159 
Q 2644 4219 2406 4219 
Q 1781 4219 1451 3797 
Q 1122 3375 1075 2522 
Q 1259 2794 1537 2939 
Q 1816 3084 2150 3084 
Q 2853 3084 3261 2657 
Q 3669 2231 3669 1497 
Q 3669 778 3244 343 
Q 2819 -91 2113 -91 
Q 1303 -91 875 529 
Q 447 1150 447 2328 
Q 447 3434 972 4092 
Q 1497 4750 2381 4750 
Q 2619 4750 2861 4703 
Q 3103 4656 3366 4563 
z
" transform="scale(0.015625)"/>
      </defs>
      <use xlink:href="#DejaVuSans-43"/>
      <use xlink:href="#DejaVuSans-6f" transform="translate(69.824219 0)"/>
      <use xlink:href="#DejaVuSans-6c" transform="translate(131.005859 0)"/>
      <use xlink:href="#DejaVuSans-6f" transform="translate(158.789062 0)"/>
      <use xlink:href="#DejaVuSans-72" transform="translate(219.970703 0)"/>
      <use xlink:href="#DejaVuSans-20" transform="translate(261.083984 0)"/>
      <use xlink:href="#DejaVuSans-36" transform="translate(292.871094 0)"/>
     </g>
    </g>
    <g id="patch_9">
     <path d="M 538.2 119.345312 
L 558.2 119.345312 
L 558.2 112.345312 
L 538.2 112.345312 
z
" style="fill: #e6cd73; stroke: #e6cd73; stroke-linejoin: miter"/>
    </g>
    <g id="text_9">
     <!-- Color 7 -->
     <g transform="translate(566.2 119.345312) scale(0.1 -0.1)">
      <use xlink:href="#DejaVuSans-43"/>
      <use xlink:href="#DejaVuSans-6f" transform="translate(69.824219 0)"/>
      <use xlink:href="#DejaVuSans-6c" transform="translate(131.005859 0)"/>
      <use xlink:href="#DejaVuSans-6f" transform="translate(158.789062 0)"/>
      <use xlink:href="#DejaVuSans-72" transform="translate(219.970703 0)"/>
      <use xlink:href="#DejaVuSans-20" transform="translate(261.083984 0)"/>
      <use xlink:href="#DejaVuSans-37" transform="translate(292.871094 0)"/>
     </g>
    </g>
    <g id="patch_10">
     <path d="M 538.2 134.023437 
L 558.2 134.023437 
L 558.2 127.023437 
L 538.2 127.023437 
z
" style="fill: #ff964f; stroke: #ff964f; stroke-linejoin: miter"/>
    </g>
    <g id="text_10">
     <!-- Color 8 -->
     <g transform="translate(566.2 134.023437) scale(0.1 -0.1)">
      <defs>
       <path id="DejaVuSans-38" d="M 2034 2216 
Q 1584 2216 1326 1975 
Q 1069 1734 1069 1313 
Q 1069 891 1326 650 
Q 1584 409 2034 409 
Q 2484 409 2743 651 
Q 3003 894 3003 1313 
Q 3003 1734 2745 1975 
Q 2488 2216 2034 2216 
z
M 1403 2484 
Q 997 2584 770 2862 
Q 544 3141 544 3541 
Q 544 4100 942 4425 
Q 1341 4750 2034 4750 
Q 2731 4750 3128 4425 
Q 3525 4100 3525 3541 
Q 3525 3141 3298 2862 
Q 3072 2584 2669 2484 
Q 3125 2378 3379 2068 
Q 3634 1759 3634 1313 
Q 3634 634 3220 271 
Q 2806 -91 2034 -91 
Q 1263 -91 848 271 
Q 434 634 434 1313 
Q 434 1759 690 2068 
Q 947 2378 1403 2484 
z
M 1172 3481 
Q 1172 3119 1398 2916 
Q 1625 2713 2034 2713 
Q 2441 2713 2670 2916 
Q 2900 3119 2900 3481 
Q 2900 3844 2670 4047 
Q 2441 4250 2034 4250 
Q 1625 4250 1398 4047 
Q 1172 3844 1172 3481 
z
" transform="scale(0.015625)"/>
      </defs>
      <use xlink:href="#DejaVuSans-43"/>
      <use xlink:href="#DejaVuSans-6f" transform="translate(69.824219 0)"/>
      <use xlink:href="#DejaVuSans-6c" transform="translate(131.005859 0)"/>
      <use xlink:href="#DejaVuSans-6f" transform="translate(158.789062 0)"/>
      <use xlink:href="#DejaVuSans-72" transform="translate(219.970703 0)"/>
      <use xlink:href="#DejaVuSans-20" transform="translate(261.083984 0)"/>
      <use xlink:href="#DejaVuSans-38" transform="translate(292.871094 0)"/>
     </g>
    </g>
    <g id="patch_11">
     <path d="M 538.2 148.701562 
L 558.2 148.701562 
L 558.2 141.701562 
L 538.2 141.701562 
z
" style="fill: #ff4d27; stroke: #ff4d27; stroke-linejoin: miter"/>
    </g>
    <g id="text_11">
     <!-- Color 9 -->
     <g transform="translate(566.2 148.701562) scale(0.1 -0.1)">
      <defs>
       <path id="DejaVuSans-39" d="M 703 97 
L 703 672 
Q 941 559 1184 500 
Q 1428 441 1663 441 
Q 2288 441 2617 861 
Q 2947 1281 2994 2138 
Q 2813 1869 2534 1725 
Q 2256 1581 1919 1581 
Q 1219 1581 811 2004 
Q 403 2428 403 3163 
Q 403 3881 828 4315 
Q 1253 4750 1959 4750 
Q 2769 4750 3195 4129 
Q 3622 3509 3622 2328 
Q 3622 1225 3098 567 
Q 2575 -91 1691 -91 
Q 1453 -91 1209 -44 
Q 966 3 703 97 
z
M 1959 2075 
Q 2384 2075 2632 2365 
Q 2881 2656 2881 3163 
Q 2881 3666 2632 3958 
Q 2384 4250 1959 4250 
Q 1534 4250 1286 3958 
Q 1038 3666 1038 3163 
Q 1038 2656 1286 2365 
Q 1534 2075 1959 2075 
z
" transform="scale(0.015625)"/>
      </defs>
      <use xlink:href="#DejaVuSans-43"/>
      <use xlink:href="#DejaVuSans-6f" transform="translate(69.824219 0)"/>
      <use xlink:href="#DejaVuSans-6c" transform="translate(131.005859 0)"/>
      <use xlink:href="#DejaVuSans-6f" transform="translate(158.789062 0)"/>
      <use xlink:href="#DejaVuSans-72" transform="translate(219.970703 0)"/>
      <use xlink:href="#DejaVuSans-20" transform="translate(261.083984 0)"/>
      <use xlink:href="#DejaVuSans-39" transform="translate(292.871094 0)"/>
     </g>
    </g>
    <g id="patch_12">
     <path d="M 538.2 163.379687 
L 558.2 163.379687 
L 558.2 156.379687 
L 538.2 156.379687 
z
" style="fill: #ff0000; stroke: #ff0000; stroke-linejoin: miter"/>
    </g>
    <g id="text_12">
     <!-- Color 10 -->
     <g transform="translate(566.2 163.379687) scale(0.1 -0.1)">
      <defs>
       <path id="DejaVuSans-30" d="M 2034 4250 
Q 1547 4250 1301 3770 
Q 1056 3291 1056 2328 
Q 1056 1369 1301 889 
Q 1547 409 2034 409 
Q 2525 409 2770 889 
Q 3016 1369 3016 2328 
Q 3016 3291 2770 3770 
Q 2525 4250 2034 4250 
z
M 2034 4750 
Q 2819 4750 3233 4129 
Q 3647 3509 3647 2328 
Q 3647 1150 3233 529 
Q 2819 -91 2034 -91 
Q 1250 -91 836 529 
Q 422 1150 422 2328 
Q 422 3509 836 4129 
Q 1250 4750 2034 4750 
z
" transform="scale(0.015625)"/>
      </defs>
      <use xlink:href="#DejaVuSans-43"/>
      <use xlink:href="#DejaVuSans-6f" transform="translate(69.824219 0)"/>
      <use xlink:href="#DejaVuSans-6c" transform="translate(131.005859 0)"/>
      <use xlink:href="#DejaVuSans-6f" transform="translate(158.789062 0)"/>
      <use xlink:href="#DejaVuSans-72" transform="translate(219.970703 0)"/>
      <use xlink:href="#DejaVuSans-20" transform="translate(261.083984 0)"/>
      <use xlink:href="#DejaVuSans-31" transform="translate(292.871094 0)"/>
      <use xlink:href="#DejaVuSans-30" transform="translate(356.494141 0)"/>
     </g>
    </g>
   </g>
  </g>
 </g>
 <defs>
  <clipPath id="pcf0b912f9d">
   <rect x="0" y="0" width="504" height="432"/>
  </clipPath>
 </defs>
</svg>
