<?xml version="1.0" encoding="utf-8" standalone="no"?>
<!DOCTYPE svg PUBLIC "-//W3C//DTD SVG 1.1//EN"
  "http://www.w3.org/Graphics/SVG/1.1/DTD/svg11.dtd">
<svg xmlns:xlink="http://www.w3.org/1999/xlink" width="504pt" height="432pt" viewBox="0 0 504 432" xmlns="http://www.w3.org/2000/svg" version="1.1">
 <metadata>
  <rdf:RDF xmlns:dc="http://purl.org/dc/elements/1.1/" xmlns:cc="http://creativecommons.org/ns#" xmlns:rdf="http://www.w3.org/1999/02/22-rdf-syntax-ns#">
   <cc:Work>
    <dc:type rdf:resource="http://purl.org/dc/dcmitype/StillImage"/>
    <dc:date>2025-05-20T14:42:59.420393</dc:date>
    <dc:format>image/svg+xml</dc:format>
    <dc:creator>
     <cc:Agent>
      <dc:title>Matplotlib v3.9.3, https://matplotlib.org/</dc:title>
     </cc:Agent>
    </dc:creator>
   </cc:Work>
  </rdf:RDF>
 </metadata>
 <defs>
  <style type="text/css">*{stroke-linejoin: round; stroke-linecap: butt}</style>
 </defs>
 <g id="figure_1">
  <g id="patch_1">
   <path d="M 0 432 
L 504 432 
L 504 0 
L 0 0 
z
" style="fill: #ffffff"/>
  </g>
  <g id="axes_1">
   <g id="LineCollection_1">
    <path d="M 326.864438 37.487603 
L 261.830651 70.33364 
" clip-path="url(#p470c768e30)" style="fill: none; stroke: #d3d3d3"/>
    <path d="M 326.864438 37.487603 
L 387.723169 179.198851 
" clip-path="url(#p470c768e30)" style="fill: none; stroke: #d3d3d3"/>
    <path d="M 326.864438 37.487603 
L 317.525851 201.370003 
" clip-path="url(#p470c768e30)" style="fill: none; stroke: #d3d3d3"/>
    <path d="M 326.864438 37.487603 
L 376.126046 236.371989 
" clip-path="url(#p470c768e30)" style="fill: none; stroke: #d3d3d3"/>
    <path d="M 326.864438 37.487603 
L 302.274924 312.809531 
" clip-path="url(#p470c768e30)" style="fill: none; stroke: #d3d3d3"/>
    <path d="M 326.864438 37.487603 
L 417.749705 329.1774 
" clip-path="url(#p470c768e30)" style="fill: none; stroke: #d3d3d3"/>
    <path d="M 326.864438 37.487603 
L 106.812537 96.424617 
" clip-path="url(#p470c768e30)" style="fill: none; stroke: #d3d3d3"/>
    <path d="M 326.864438 37.487603 
L 336.811325 161.042086 
" clip-path="url(#p470c768e30)" style="fill: none; stroke: #d3d3d3"/>
    <path d="M 326.864438 37.487603 
L 233.711209 53.568389 
" clip-path="url(#p470c768e30)" style="fill: none; stroke: #d3d3d3"/>
    <path d="M 326.864438 37.487603 
L 419.486933 89.831381 
" clip-path="url(#p470c768e30)" style="fill: none; stroke: #d3d3d3"/>
    <path d="M 326.864438 37.487603 
L 223.557672 114.194063 
" clip-path="url(#p470c768e30)" style="fill: none; stroke: #d3d3d3"/>
    <path d="M 326.864438 37.487603 
L 443.493544 184.637039 
" clip-path="url(#p470c768e30)" style="fill: none; stroke: #d3d3d3"/>
    <path d="M 326.864438 37.487603 
L 169.362914 39.889419 
" clip-path="url(#p470c768e30)" style="fill: none; stroke: #d3d3d3"/>
    <path d="M 326.864438 37.487603 
L 342.721992 82.729846 
" clip-path="url(#p470c768e30)" style="fill: none; stroke: #d3d3d3"/>
    <path d="M 326.864438 37.487603 
L 90.408721 132.356404 
" clip-path="url(#p470c768e30)" style="fill: none; stroke: #d3d3d3"/>
    <path d="M 326.864438 37.487603 
L 201.381729 98.337418 
" clip-path="url(#p470c768e30)" style="fill: none; stroke: #d3d3d3"/>
    <path d="M 326.864438 37.487603 
L 64.814339 161.415416 
" clip-path="url(#p470c768e30)" style="fill: none; stroke: #d3d3d3"/>
    <path d="M 326.864438 37.487603 
L 261.462233 187.417827 
" clip-path="url(#p470c768e30)" style="fill: none; stroke: #d3d3d3"/>
    <path d="M 261.830651 70.33364 
L 106.812537 96.424617 
" clip-path="url(#p470c768e30)" style="fill: none; stroke: #d3d3d3"/>
    <path d="M 261.830651 70.33364 
L 336.811325 161.042086 
" clip-path="url(#p470c768e30)" style="fill: none; stroke: #d3d3d3"/>
    <path d="M 261.830651 70.33364 
L 169.362914 39.889419 
" clip-path="url(#p470c768e30)" style="fill: none; stroke: #d3d3d3"/>
    <path d="M 261.830651 70.33364 
L 387.723169 179.198851 
" clip-path="url(#p470c768e30)" style="fill: none; stroke: #d3d3d3"/>
    <path d="M 261.830651 70.33364 
L 317.525851 201.370003 
" clip-path="url(#p470c768e30)" style="fill: none; stroke: #d3d3d3"/>
    <path d="M 261.830651 70.33364 
L 376.126046 236.371989 
" clip-path="url(#p470c768e30)" style="fill: none; stroke: #d3d3d3"/>
    <path d="M 261.830651 70.33364 
L 302.274924 312.809531 
" clip-path="url(#p470c768e30)" style="fill: none; stroke: #d3d3d3"/>
    <path d="M 261.830651 70.33364 
L 417.749705 329.1774 
" clip-path="url(#p470c768e30)" style="fill: none; stroke: #d3d3d3"/>
    <path d="M 261.830651 70.33364 
L 342.721992 82.729846 
" clip-path="url(#p470c768e30)" style="fill: none; stroke: #d3d3d3"/>
    <path d="M 261.830651 70.33364 
L 144.166239 174.049253 
" clip-path="url(#p470c768e30)" style="fill: none; stroke: #d3d3d3"/>
    <path d="M 261.830651 70.33364 
L 354.776656 105.238177 
" clip-path="url(#p470c768e30)" style="fill: none; stroke: #d3d3d3"/>
    <path d="M 261.830651 70.33364 
L 287.733491 127.308442 
" clip-path="url(#p470c768e30)" style="fill: none; stroke: #d3d3d3"/>
    <path d="M 261.830651 70.33364 
L 396.651931 150.906228 
" clip-path="url(#p470c768e30)" style="fill: none; stroke: #d3d3d3"/>
    <path d="M 261.830651 70.33364 
L 333.036856 256.277676 
" clip-path="url(#p470c768e30)" style="fill: none; stroke: #d3d3d3"/>
    <path d="M 261.830651 70.33364 
L 156.363195 102.003092 
" clip-path="url(#p470c768e30)" style="fill: none; stroke: #d3d3d3"/>
    <path d="M 261.830651 70.33364 
L 216.477541 165.605832 
" clip-path="url(#p470c768e30)" style="fill: none; stroke: #d3d3d3"/>
    <path d="M 261.830651 70.33364 
L 43.735537 209.074228 
" clip-path="url(#p470c768e30)" style="fill: none; stroke: #d3d3d3"/>
    <path d="M 261.830651 70.33364 
L 150.008476 239.853571 
" clip-path="url(#p470c768e30)" style="fill: none; stroke: #d3d3d3"/>
    <path d="M 261.830651 70.33364 
L 75.291439 285.10568 
" clip-path="url(#p470c768e30)" style="fill: none; stroke: #d3d3d3"/>
    <path d="M 387.723169 179.198851 
L 336.811325 161.042086 
" clip-path="url(#p470c768e30)" style="fill: none; stroke: #d3d3d3"/>
    <path d="M 387.723169 179.198851 
L 419.486933 89.831381 
" clip-path="url(#p470c768e30)" style="fill: none; stroke: #d3d3d3"/>
    <path d="M 387.723169 179.198851 
L 144.166239 174.049253 
" clip-path="url(#p470c768e30)" style="fill: none; stroke: #d3d3d3"/>
    <path d="M 387.723169 179.198851 
L 354.776656 105.238177 
" clip-path="url(#p470c768e30)" style="fill: none; stroke: #d3d3d3"/>
    <path d="M 387.723169 179.198851 
L 342.721992 82.729846 
" clip-path="url(#p470c768e30)" style="fill: none; stroke: #d3d3d3"/>
    <path d="M 387.723169 179.198851 
L 156.363195 102.003092 
" clip-path="url(#p470c768e30)" style="fill: none; stroke: #d3d3d3"/>
    <path d="M 387.723169 179.198851 
L 317.525851 201.370003 
" clip-path="url(#p470c768e30)" style="fill: none; stroke: #d3d3d3"/>
    <path d="M 387.723169 179.198851 
L 376.126046 236.371989 
" clip-path="url(#p470c768e30)" style="fill: none; stroke: #d3d3d3"/>
    <path d="M 387.723169 179.198851 
L 302.274924 312.809531 
" clip-path="url(#p470c768e30)" style="fill: none; stroke: #d3d3d3"/>
    <path d="M 387.723169 179.198851 
L 417.749705 329.1774 
" clip-path="url(#p470c768e30)" style="fill: none; stroke: #d3d3d3"/>
    <path d="M 387.723169 179.198851 
L 216.477541 165.605832 
" clip-path="url(#p470c768e30)" style="fill: none; stroke: #d3d3d3"/>
    <path d="M 387.723169 179.198851 
L 201.381729 98.337418 
" clip-path="url(#p470c768e30)" style="fill: none; stroke: #d3d3d3"/>
    <path d="M 387.723169 179.198851 
L 198.182382 197.477613 
" clip-path="url(#p470c768e30)" style="fill: none; stroke: #d3d3d3"/>
    <path d="M 387.723169 179.198851 
L 444.85437 222.841281 
" clip-path="url(#p470c768e30)" style="fill: none; stroke: #d3d3d3"/>
    <path d="M 387.723169 179.198851 
L 272.976688 234.111451 
" clip-path="url(#p470c768e30)" style="fill: none; stroke: #d3d3d3"/>
    <path d="M 387.723169 179.198851 
L 460.264463 280.954176 
" clip-path="url(#p470c768e30)" style="fill: none; stroke: #d3d3d3"/>
    <path d="M 387.723169 179.198851 
L 107.28018 254.118051 
" clip-path="url(#p470c768e30)" style="fill: none; stroke: #d3d3d3"/>
    <path d="M 387.723169 179.198851 
L 276.131832 278.798667 
" clip-path="url(#p470c768e30)" style="fill: none; stroke: #d3d3d3"/>
    <path d="M 387.723169 179.198851 
L 94.160418 335.610017 
" clip-path="url(#p470c768e30)" style="fill: none; stroke: #d3d3d3"/>
    <path d="M 387.723169 179.198851 
L 270.11808 386.052843 
" clip-path="url(#p470c768e30)" style="fill: none; stroke: #d3d3d3"/>
    <path d="M 317.525851 201.370003 
L 233.711209 53.568389 
" clip-path="url(#p470c768e30)" style="fill: none; stroke: #d3d3d3"/>
    <path d="M 317.525851 201.370003 
L 443.493544 184.637039 
" clip-path="url(#p470c768e30)" style="fill: none; stroke: #d3d3d3"/>
    <path d="M 317.525851 201.370003 
L 354.776656 105.238177 
" clip-path="url(#p470c768e30)" style="fill: none; stroke: #d3d3d3"/>
    <path d="M 317.525851 201.370003 
L 396.651931 150.906228 
" clip-path="url(#p470c768e30)" style="fill: none; stroke: #d3d3d3"/>
    <path d="M 317.525851 201.370003 
L 198.182382 197.477613 
" clip-path="url(#p470c768e30)" style="fill: none; stroke: #d3d3d3"/>
    <path d="M 317.525851 201.370003 
L 444.85437 222.841281 
" clip-path="url(#p470c768e30)" style="fill: none; stroke: #d3d3d3"/>
    <path d="M 317.525851 201.370003 
L 90.408721 132.356404 
" clip-path="url(#p470c768e30)" style="fill: none; stroke: #d3d3d3"/>
    <path d="M 317.525851 201.370003 
L 216.477541 165.605832 
" clip-path="url(#p470c768e30)" style="fill: none; stroke: #d3d3d3"/>
    <path d="M 317.525851 201.370003 
L 107.28018 254.118051 
" clip-path="url(#p470c768e30)" style="fill: none; stroke: #d3d3d3"/>
    <path d="M 317.525851 201.370003 
L 376.126046 236.371989 
" clip-path="url(#p470c768e30)" style="fill: none; stroke: #d3d3d3"/>
    <path d="M 317.525851 201.370003 
L 302.274924 312.809531 
" clip-path="url(#p470c768e30)" style="fill: none; stroke: #d3d3d3"/>
    <path d="M 317.525851 201.370003 
L 417.749705 329.1774 
" clip-path="url(#p470c768e30)" style="fill: none; stroke: #d3d3d3"/>
    <path d="M 317.525851 201.370003 
L 276.131832 278.798667 
" clip-path="url(#p470c768e30)" style="fill: none; stroke: #d3d3d3"/>
    <path d="M 317.525851 201.370003 
L 150.008476 239.853571 
" clip-path="url(#p470c768e30)" style="fill: none; stroke: #d3d3d3"/>
    <path d="M 317.525851 201.370003 
L 261.462233 187.417827 
" clip-path="url(#p470c768e30)" style="fill: none; stroke: #d3d3d3"/>
    <path d="M 317.525851 201.370003 
L 206.438741 303.196463 
" clip-path="url(#p470c768e30)" style="fill: none; stroke: #d3d3d3"/>
    <path d="M 317.525851 201.370003 
L 373.963803 301.063277 
" clip-path="url(#p470c768e30)" style="fill: none; stroke: #d3d3d3"/>
    <path d="M 317.525851 201.370003 
L 290.478127 356.478808 
" clip-path="url(#p470c768e30)" style="fill: none; stroke: #d3d3d3"/>
    <path d="M 317.525851 201.370003 
L 111.099607 206.491512 
" clip-path="url(#p470c768e30)" style="fill: none; stroke: #d3d3d3"/>
    <path d="M 317.525851 201.370003 
L 237.96873 324.901085 
" clip-path="url(#p470c768e30)" style="fill: none; stroke: #d3d3d3"/>
    <path d="M 317.525851 201.370003 
L 145.189656 357.563239 
" clip-path="url(#p470c768e30)" style="fill: none; stroke: #d3d3d3"/>
    <path d="M 376.126046 236.371989 
L 419.486933 89.831381 
" clip-path="url(#p470c768e30)" style="fill: none; stroke: #d3d3d3"/>
    <path d="M 376.126046 236.371989 
L 287.733491 127.308442 
" clip-path="url(#p470c768e30)" style="fill: none; stroke: #d3d3d3"/>
    <path d="M 376.126046 236.371989 
L 444.85437 222.841281 
" clip-path="url(#p470c768e30)" style="fill: none; stroke: #d3d3d3"/>
    <path d="M 376.126046 236.371989 
L 460.264463 280.954176 
" clip-path="url(#p470c768e30)" style="fill: none; stroke: #d3d3d3"/>
    <path d="M 376.126046 236.371989 
L 206.438741 303.196463 
" clip-path="url(#p470c768e30)" style="fill: none; stroke: #d3d3d3"/>
    <path d="M 376.126046 236.371989 
L 373.963803 301.063277 
" clip-path="url(#p470c768e30)" style="fill: none; stroke: #d3d3d3"/>
    <path d="M 376.126046 236.371989 
L 201.381729 98.337418 
" clip-path="url(#p470c768e30)" style="fill: none; stroke: #d3d3d3"/>
    <path d="M 376.126046 236.371989 
L 43.735537 209.074228 
" clip-path="url(#p470c768e30)" style="fill: none; stroke: #d3d3d3"/>
    <path d="M 376.126046 236.371989 
L 276.131832 278.798667 
" clip-path="url(#p470c768e30)" style="fill: none; stroke: #d3d3d3"/>
    <path d="M 376.126046 236.371989 
L 111.099607 206.491512 
" clip-path="url(#p470c768e30)" style="fill: none; stroke: #d3d3d3"/>
    <path d="M 376.126046 236.371989 
L 302.274924 312.809531 
" clip-path="url(#p470c768e30)" style="fill: none; stroke: #d3d3d3"/>
    <path d="M 376.126046 236.371989 
L 417.749705 329.1774 
" clip-path="url(#p470c768e30)" style="fill: none; stroke: #d3d3d3"/>
    <path d="M 376.126046 236.371989 
L 237.96873 324.901085 
" clip-path="url(#p470c768e30)" style="fill: none; stroke: #d3d3d3"/>
    <path d="M 376.126046 236.371989 
L 270.11808 386.052843 
" clip-path="url(#p470c768e30)" style="fill: none; stroke: #d3d3d3"/>
    <path d="M 376.126046 236.371989 
L 124.510797 304.226067 
" clip-path="url(#p470c768e30)" style="fill: none; stroke: #d3d3d3"/>
    <path d="M 376.126046 236.371989 
L 350.427182 373.417037 
" clip-path="url(#p470c768e30)" style="fill: none; stroke: #d3d3d3"/>
    <path d="M 376.126046 236.371989 
L 208.823591 249.493235 
" clip-path="url(#p470c768e30)" style="fill: none; stroke: #d3d3d3"/>
    <path d="M 376.126046 236.371989 
L 376.281799 335.713241 
" clip-path="url(#p470c768e30)" style="fill: none; stroke: #d3d3d3"/>
    <path d="M 302.274924 312.809531 
L 223.557672 114.194063 
" clip-path="url(#p470c768e30)" style="fill: none; stroke: #d3d3d3"/>
    <path d="M 302.274924 312.809531 
L 396.651931 150.906228 
" clip-path="url(#p470c768e30)" style="fill: none; stroke: #d3d3d3"/>
    <path d="M 302.274924 312.809531 
L 272.976688 234.111451 
" clip-path="url(#p470c768e30)" style="fill: none; stroke: #d3d3d3"/>
    <path d="M 302.274924 312.809531 
L 373.963803 301.063277 
" clip-path="url(#p470c768e30)" style="fill: none; stroke: #d3d3d3"/>
    <path d="M 302.274924 312.809531 
L 124.510797 304.226067 
" clip-path="url(#p470c768e30)" style="fill: none; stroke: #d3d3d3"/>
    <path d="M 302.274924 312.809531 
L 350.427182 373.417037 
" clip-path="url(#p470c768e30)" style="fill: none; stroke: #d3d3d3"/>
    <path d="M 302.274924 312.809531 
L 64.814339 161.415416 
" clip-path="url(#p470c768e30)" style="fill: none; stroke: #d3d3d3"/>
    <path d="M 302.274924 312.809531 
L 150.008476 239.853571 
" clip-path="url(#p470c768e30)" style="fill: none; stroke: #d3d3d3"/>
    <path d="M 302.274924 312.809531 
L 94.160418 335.610017 
" clip-path="url(#p470c768e30)" style="fill: none; stroke: #d3d3d3"/>
    <path d="M 302.274924 312.809531 
L 237.96873 324.901085 
" clip-path="url(#p470c768e30)" style="fill: none; stroke: #d3d3d3"/>
    <path d="M 302.274924 312.809531 
L 208.823591 249.493235 
" clip-path="url(#p470c768e30)" style="fill: none; stroke: #d3d3d3"/>
    <path d="M 302.274924 312.809531 
L 417.749705 329.1774 
" clip-path="url(#p470c768e30)" style="fill: none; stroke: #d3d3d3"/>
    <path d="M 302.274924 312.809531 
L 376.281799 335.713241 
" clip-path="url(#p470c768e30)" style="fill: none; stroke: #d3d3d3"/>
    <path d="M 302.274924 312.809531 
L 208.847951 394.512397 
" clip-path="url(#p470c768e30)" style="fill: none; stroke: #d3d3d3"/>
    <path d="M 302.274924 312.809531 
L 189.94589 343.544258 
" clip-path="url(#p470c768e30)" style="fill: none; stroke: #d3d3d3"/>
    <path d="M 417.749705 329.1774 
L 443.493544 184.637039 
" clip-path="url(#p470c768e30)" style="fill: none; stroke: #d3d3d3"/>
    <path d="M 417.749705 329.1774 
L 333.036856 256.277676 
" clip-path="url(#p470c768e30)" style="fill: none; stroke: #d3d3d3"/>
    <path d="M 417.749705 329.1774 
L 460.264463 280.954176 
" clip-path="url(#p470c768e30)" style="fill: none; stroke: #d3d3d3"/>
    <path d="M 417.749705 329.1774 
L 290.478127 356.478808 
" clip-path="url(#p470c768e30)" style="fill: none; stroke: #d3d3d3"/>
    <path d="M 417.749705 329.1774 
L 350.427182 373.417037 
" clip-path="url(#p470c768e30)" style="fill: none; stroke: #d3d3d3"/>
    <path d="M 417.749705 329.1774 
L 208.847951 394.512397 
" clip-path="url(#p470c768e30)" style="fill: none; stroke: #d3d3d3"/>
    <path d="M 417.749705 329.1774 
L 261.462233 187.417827 
" clip-path="url(#p470c768e30)" style="fill: none; stroke: #d3d3d3"/>
    <path d="M 417.749705 329.1774 
L 75.291439 285.10568 
" clip-path="url(#p470c768e30)" style="fill: none; stroke: #d3d3d3"/>
    <path d="M 417.749705 329.1774 
L 270.11808 386.052843 
" clip-path="url(#p470c768e30)" style="fill: none; stroke: #d3d3d3"/>
    <path d="M 417.749705 329.1774 
L 145.189656 357.563239 
" clip-path="url(#p470c768e30)" style="fill: none; stroke: #d3d3d3"/>
    <path d="M 417.749705 329.1774 
L 376.281799 335.713241 
" clip-path="url(#p470c768e30)" style="fill: none; stroke: #d3d3d3"/>
    <path d="M 417.749705 329.1774 
L 189.94589 343.544258 
" clip-path="url(#p470c768e30)" style="fill: none; stroke: #d3d3d3"/>
    <path d="M 106.812537 96.424617 
L 144.166239 174.049253 
" clip-path="url(#p470c768e30)" style="fill: none; stroke: #d3d3d3"/>
    <path d="M 106.812537 96.424617 
L 198.182382 197.477613 
" clip-path="url(#p470c768e30)" style="fill: none; stroke: #d3d3d3"/>
    <path d="M 106.812537 96.424617 
L 206.438741 303.196463 
" clip-path="url(#p470c768e30)" style="fill: none; stroke: #d3d3d3"/>
    <path d="M 106.812537 96.424617 
L 124.510797 304.226067 
" clip-path="url(#p470c768e30)" style="fill: none; stroke: #d3d3d3"/>
    <path d="M 106.812537 96.424617 
L 208.847951 394.512397 
" clip-path="url(#p470c768e30)" style="fill: none; stroke: #d3d3d3"/>
    <path d="M 106.812537 96.424617 
L 169.362914 39.889419 
" clip-path="url(#p470c768e30)" style="fill: none; stroke: #d3d3d3"/>
    <path d="M 106.812537 96.424617 
L 336.811325 161.042086 
" clip-path="url(#p470c768e30)" style="fill: none; stroke: #d3d3d3"/>
    <path d="M 106.812537 96.424617 
L 233.711209 53.568389 
" clip-path="url(#p470c768e30)" style="fill: none; stroke: #d3d3d3"/>
    <path d="M 106.812537 96.424617 
L 419.486933 89.831381 
" clip-path="url(#p470c768e30)" style="fill: none; stroke: #d3d3d3"/>
    <path d="M 106.812537 96.424617 
L 223.557672 114.194063 
" clip-path="url(#p470c768e30)" style="fill: none; stroke: #d3d3d3"/>
    <path d="M 106.812537 96.424617 
L 443.493544 184.637039 
" clip-path="url(#p470c768e30)" style="fill: none; stroke: #d3d3d3"/>
    <path d="M 106.812537 96.424617 
L 156.363195 102.003092 
" clip-path="url(#p470c768e30)" style="fill: none; stroke: #d3d3d3"/>
    <path d="M 106.812537 96.424617 
L 216.477541 165.605832 
" clip-path="url(#p470c768e30)" style="fill: none; stroke: #d3d3d3"/>
    <path d="M 106.812537 96.424617 
L 43.735537 209.074228 
" clip-path="url(#p470c768e30)" style="fill: none; stroke: #d3d3d3"/>
    <path d="M 106.812537 96.424617 
L 150.008476 239.853571 
" clip-path="url(#p470c768e30)" style="fill: none; stroke: #d3d3d3"/>
    <path d="M 106.812537 96.424617 
L 75.291439 285.10568 
" clip-path="url(#p470c768e30)" style="fill: none; stroke: #d3d3d3"/>
    <path d="M 336.811325 161.042086 
L 354.776656 105.238177 
" clip-path="url(#p470c768e30)" style="fill: none; stroke: #d3d3d3"/>
    <path d="M 336.811325 161.042086 
L 444.85437 222.841281 
" clip-path="url(#p470c768e30)" style="fill: none; stroke: #d3d3d3"/>
    <path d="M 336.811325 161.042086 
L 373.963803 301.063277 
" clip-path="url(#p470c768e30)" style="fill: none; stroke: #d3d3d3"/>
    <path d="M 336.811325 161.042086 
L 350.427182 373.417037 
" clip-path="url(#p470c768e30)" style="fill: none; stroke: #d3d3d3"/>
    <path d="M 336.811325 161.042086 
L 342.721992 82.729846 
" clip-path="url(#p470c768e30)" style="fill: none; stroke: #d3d3d3"/>
    <path d="M 336.811325 161.042086 
L 233.711209 53.568389 
" clip-path="url(#p470c768e30)" style="fill: none; stroke: #d3d3d3"/>
    <path d="M 336.811325 161.042086 
L 419.486933 89.831381 
" clip-path="url(#p470c768e30)" style="fill: none; stroke: #d3d3d3"/>
    <path d="M 336.811325 161.042086 
L 223.557672 114.194063 
" clip-path="url(#p470c768e30)" style="fill: none; stroke: #d3d3d3"/>
    <path d="M 336.811325 161.042086 
L 443.493544 184.637039 
" clip-path="url(#p470c768e30)" style="fill: none; stroke: #d3d3d3"/>
    <path d="M 336.811325 161.042086 
L 144.166239 174.049253 
" clip-path="url(#p470c768e30)" style="fill: none; stroke: #d3d3d3"/>
    <path d="M 336.811325 161.042086 
L 107.28018 254.118051 
" clip-path="url(#p470c768e30)" style="fill: none; stroke: #d3d3d3"/>
    <path d="M 336.811325 161.042086 
L 276.131832 278.798667 
" clip-path="url(#p470c768e30)" style="fill: none; stroke: #d3d3d3"/>
    <path d="M 336.811325 161.042086 
L 94.160418 335.610017 
" clip-path="url(#p470c768e30)" style="fill: none; stroke: #d3d3d3"/>
    <path d="M 336.811325 161.042086 
L 270.11808 386.052843 
" clip-path="url(#p470c768e30)" style="fill: none; stroke: #d3d3d3"/>
    <path d="M 233.711209 53.568389 
L 287.733491 127.308442 
" clip-path="url(#p470c768e30)" style="fill: none; stroke: #d3d3d3"/>
    <path d="M 233.711209 53.568389 
L 272.976688 234.111451 
" clip-path="url(#p470c768e30)" style="fill: none; stroke: #d3d3d3"/>
    <path d="M 233.711209 53.568389 
L 290.478127 356.478808 
" clip-path="url(#p470c768e30)" style="fill: none; stroke: #d3d3d3"/>
    <path d="M 233.711209 53.568389 
L 144.166239 174.049253 
" clip-path="url(#p470c768e30)" style="fill: none; stroke: #d3d3d3"/>
    <path d="M 233.711209 53.568389 
L 156.363195 102.003092 
" clip-path="url(#p470c768e30)" style="fill: none; stroke: #d3d3d3"/>
    <path d="M 233.711209 53.568389 
L 90.408721 132.356404 
" clip-path="url(#p470c768e30)" style="fill: none; stroke: #d3d3d3"/>
    <path d="M 233.711209 53.568389 
L 419.486933 89.831381 
" clip-path="url(#p470c768e30)" style="fill: none; stroke: #d3d3d3"/>
    <path d="M 233.711209 53.568389 
L 223.557672 114.194063 
" clip-path="url(#p470c768e30)" style="fill: none; stroke: #d3d3d3"/>
    <path d="M 233.711209 53.568389 
L 443.493544 184.637039 
" clip-path="url(#p470c768e30)" style="fill: none; stroke: #d3d3d3"/>
    <path d="M 233.711209 53.568389 
L 354.776656 105.238177 
" clip-path="url(#p470c768e30)" style="fill: none; stroke: #d3d3d3"/>
    <path d="M 233.711209 53.568389 
L 198.182382 197.477613 
" clip-path="url(#p470c768e30)" style="fill: none; stroke: #d3d3d3"/>
    <path d="M 233.711209 53.568389 
L 111.099607 206.491512 
" clip-path="url(#p470c768e30)" style="fill: none; stroke: #d3d3d3"/>
    <path d="M 233.711209 53.568389 
L 237.96873 324.901085 
" clip-path="url(#p470c768e30)" style="fill: none; stroke: #d3d3d3"/>
    <path d="M 233.711209 53.568389 
L 145.189656 357.563239 
" clip-path="url(#p470c768e30)" style="fill: none; stroke: #d3d3d3"/>
    <path d="M 419.486933 89.831381 
L 396.651931 150.906228 
" clip-path="url(#p470c768e30)" style="fill: none; stroke: #d3d3d3"/>
    <path d="M 419.486933 89.831381 
L 460.264463 280.954176 
" clip-path="url(#p470c768e30)" style="fill: none; stroke: #d3d3d3"/>
    <path d="M 419.486933 89.831381 
L 354.776656 105.238177 
" clip-path="url(#p470c768e30)" style="fill: none; stroke: #d3d3d3"/>
    <path d="M 419.486933 89.831381 
L 216.477541 165.605832 
" clip-path="url(#p470c768e30)" style="fill: none; stroke: #d3d3d3"/>
    <path d="M 419.486933 89.831381 
L 201.381729 98.337418 
" clip-path="url(#p470c768e30)" style="fill: none; stroke: #d3d3d3"/>
    <path d="M 419.486933 89.831381 
L 223.557672 114.194063 
" clip-path="url(#p470c768e30)" style="fill: none; stroke: #d3d3d3"/>
    <path d="M 419.486933 89.831381 
L 443.493544 184.637039 
" clip-path="url(#p470c768e30)" style="fill: none; stroke: #d3d3d3"/>
    <path d="M 419.486933 89.831381 
L 287.733491 127.308442 
" clip-path="url(#p470c768e30)" style="fill: none; stroke: #d3d3d3"/>
    <path d="M 419.486933 89.831381 
L 444.85437 222.841281 
" clip-path="url(#p470c768e30)" style="fill: none; stroke: #d3d3d3"/>
    <path d="M 419.486933 89.831381 
L 206.438741 303.196463 
" clip-path="url(#p470c768e30)" style="fill: none; stroke: #d3d3d3"/>
    <path d="M 419.486933 89.831381 
L 208.823591 249.493235 
" clip-path="url(#p470c768e30)" style="fill: none; stroke: #d3d3d3"/>
    <path d="M 419.486933 89.831381 
L 376.281799 335.713241 
" clip-path="url(#p470c768e30)" style="fill: none; stroke: #d3d3d3"/>
    <path d="M 223.557672 114.194063 
L 333.036856 256.277676 
" clip-path="url(#p470c768e30)" style="fill: none; stroke: #d3d3d3"/>
    <path d="M 223.557672 114.194063 
L 287.733491 127.308442 
" clip-path="url(#p470c768e30)" style="fill: none; stroke: #d3d3d3"/>
    <path d="M 223.557672 114.194063 
L 198.182382 197.477613 
" clip-path="url(#p470c768e30)" style="fill: none; stroke: #d3d3d3"/>
    <path d="M 223.557672 114.194063 
L 107.28018 254.118051 
" clip-path="url(#p470c768e30)" style="fill: none; stroke: #d3d3d3"/>
    <path d="M 223.557672 114.194063 
L 43.735537 209.074228 
" clip-path="url(#p470c768e30)" style="fill: none; stroke: #d3d3d3"/>
    <path d="M 223.557672 114.194063 
L 64.814339 161.415416 
" clip-path="url(#p470c768e30)" style="fill: none; stroke: #d3d3d3"/>
    <path d="M 223.557672 114.194063 
L 443.493544 184.637039 
" clip-path="url(#p470c768e30)" style="fill: none; stroke: #d3d3d3"/>
    <path d="M 223.557672 114.194063 
L 396.651931 150.906228 
" clip-path="url(#p470c768e30)" style="fill: none; stroke: #d3d3d3"/>
    <path d="M 223.557672 114.194063 
L 272.976688 234.111451 
" clip-path="url(#p470c768e30)" style="fill: none; stroke: #d3d3d3"/>
    <path d="M 223.557672 114.194063 
L 373.963803 301.063277 
" clip-path="url(#p470c768e30)" style="fill: none; stroke: #d3d3d3"/>
    <path d="M 223.557672 114.194063 
L 124.510797 304.226067 
" clip-path="url(#p470c768e30)" style="fill: none; stroke: #d3d3d3"/>
    <path d="M 223.557672 114.194063 
L 189.94589 343.544258 
" clip-path="url(#p470c768e30)" style="fill: none; stroke: #d3d3d3"/>
    <path d="M 443.493544 184.637039 
L 396.651931 150.906228 
" clip-path="url(#p470c768e30)" style="fill: none; stroke: #d3d3d3"/>
    <path d="M 443.493544 184.637039 
L 444.85437 222.841281 
" clip-path="url(#p470c768e30)" style="fill: none; stroke: #d3d3d3"/>
    <path d="M 443.493544 184.637039 
L 276.131832 278.798667 
" clip-path="url(#p470c768e30)" style="fill: none; stroke: #d3d3d3"/>
    <path d="M 443.493544 184.637039 
L 150.008476 239.853571 
" clip-path="url(#p470c768e30)" style="fill: none; stroke: #d3d3d3"/>
    <path d="M 443.493544 184.637039 
L 261.462233 187.417827 
" clip-path="url(#p470c768e30)" style="fill: none; stroke: #d3d3d3"/>
    <path d="M 443.493544 184.637039 
L 333.036856 256.277676 
" clip-path="url(#p470c768e30)" style="fill: none; stroke: #d3d3d3"/>
    <path d="M 443.493544 184.637039 
L 460.264463 280.954176 
" clip-path="url(#p470c768e30)" style="fill: none; stroke: #d3d3d3"/>
    <path d="M 443.493544 184.637039 
L 290.478127 356.478808 
" clip-path="url(#p470c768e30)" style="fill: none; stroke: #d3d3d3"/>
    <path d="M 443.493544 184.637039 
L 350.427182 373.417037 
" clip-path="url(#p470c768e30)" style="fill: none; stroke: #d3d3d3"/>
    <path d="M 443.493544 184.637039 
L 208.847951 394.512397 
" clip-path="url(#p470c768e30)" style="fill: none; stroke: #d3d3d3"/>
    <path d="M 169.362914 39.889419 
L 156.363195 102.003092 
" clip-path="url(#p470c768e30)" style="fill: none; stroke: #d3d3d3"/>
    <path d="M 169.362914 39.889419 
L 107.28018 254.118051 
" clip-path="url(#p470c768e30)" style="fill: none; stroke: #d3d3d3"/>
    <path d="M 169.362914 39.889419 
L 111.099607 206.491512 
" clip-path="url(#p470c768e30)" style="fill: none; stroke: #d3d3d3"/>
    <path d="M 169.362914 39.889419 
L 208.823591 249.493235 
" clip-path="url(#p470c768e30)" style="fill: none; stroke: #d3d3d3"/>
    <path d="M 169.362914 39.889419 
L 189.94589 343.544258 
" clip-path="url(#p470c768e30)" style="fill: none; stroke: #d3d3d3"/>
    <path d="M 169.362914 39.889419 
L 144.166239 174.049253 
" clip-path="url(#p470c768e30)" style="fill: none; stroke: #d3d3d3"/>
    <path d="M 169.362914 39.889419 
L 354.776656 105.238177 
" clip-path="url(#p470c768e30)" style="fill: none; stroke: #d3d3d3"/>
    <path d="M 169.362914 39.889419 
L 287.733491 127.308442 
" clip-path="url(#p470c768e30)" style="fill: none; stroke: #d3d3d3"/>
    <path d="M 169.362914 39.889419 
L 396.651931 150.906228 
" clip-path="url(#p470c768e30)" style="fill: none; stroke: #d3d3d3"/>
    <path d="M 169.362914 39.889419 
L 333.036856 256.277676 
" clip-path="url(#p470c768e30)" style="fill: none; stroke: #d3d3d3"/>
    <path d="M 169.362914 39.889419 
L 342.721992 82.729846 
" clip-path="url(#p470c768e30)" style="fill: none; stroke: #d3d3d3"/>
    <path d="M 169.362914 39.889419 
L 90.408721 132.356404 
" clip-path="url(#p470c768e30)" style="fill: none; stroke: #d3d3d3"/>
    <path d="M 169.362914 39.889419 
L 201.381729 98.337418 
" clip-path="url(#p470c768e30)" style="fill: none; stroke: #d3d3d3"/>
    <path d="M 169.362914 39.889419 
L 64.814339 161.415416 
" clip-path="url(#p470c768e30)" style="fill: none; stroke: #d3d3d3"/>
    <path d="M 169.362914 39.889419 
L 261.462233 187.417827 
" clip-path="url(#p470c768e30)" style="fill: none; stroke: #d3d3d3"/>
    <path d="M 342.721992 82.729846 
L 216.477541 165.605832 
" clip-path="url(#p470c768e30)" style="fill: none; stroke: #d3d3d3"/>
    <path d="M 342.721992 82.729846 
L 276.131832 278.798667 
" clip-path="url(#p470c768e30)" style="fill: none; stroke: #d3d3d3"/>
    <path d="M 342.721992 82.729846 
L 237.96873 324.901085 
" clip-path="url(#p470c768e30)" style="fill: none; stroke: #d3d3d3"/>
    <path d="M 342.721992 82.729846 
L 376.281799 335.713241 
" clip-path="url(#p470c768e30)" style="fill: none; stroke: #d3d3d3"/>
    <path d="M 342.721992 82.729846 
L 156.363195 102.003092 
" clip-path="url(#p470c768e30)" style="fill: none; stroke: #d3d3d3"/>
    <path d="M 342.721992 82.729846 
L 198.182382 197.477613 
" clip-path="url(#p470c768e30)" style="fill: none; stroke: #d3d3d3"/>
    <path d="M 342.721992 82.729846 
L 444.85437 222.841281 
" clip-path="url(#p470c768e30)" style="fill: none; stroke: #d3d3d3"/>
    <path d="M 342.721992 82.729846 
L 272.976688 234.111451 
" clip-path="url(#p470c768e30)" style="fill: none; stroke: #d3d3d3"/>
    <path d="M 342.721992 82.729846 
L 460.264463 280.954176 
" clip-path="url(#p470c768e30)" style="fill: none; stroke: #d3d3d3"/>
    <path d="M 342.721992 82.729846 
L 90.408721 132.356404 
" clip-path="url(#p470c768e30)" style="fill: none; stroke: #d3d3d3"/>
    <path d="M 342.721992 82.729846 
L 201.381729 98.337418 
" clip-path="url(#p470c768e30)" style="fill: none; stroke: #d3d3d3"/>
    <path d="M 342.721992 82.729846 
L 64.814339 161.415416 
" clip-path="url(#p470c768e30)" style="fill: none; stroke: #d3d3d3"/>
    <path d="M 342.721992 82.729846 
L 261.462233 187.417827 
" clip-path="url(#p470c768e30)" style="fill: none; stroke: #d3d3d3"/>
    <path d="M 90.408721 132.356404 
L 144.166239 174.049253 
" clip-path="url(#p470c768e30)" style="fill: none; stroke: #d3d3d3"/>
    <path d="M 90.408721 132.356404 
L 156.363195 102.003092 
" clip-path="url(#p470c768e30)" style="fill: none; stroke: #d3d3d3"/>
    <path d="M 90.408721 132.356404 
L 43.735537 209.074228 
" clip-path="url(#p470c768e30)" style="fill: none; stroke: #d3d3d3"/>
    <path d="M 90.408721 132.356404 
L 94.160418 335.610017 
" clip-path="url(#p470c768e30)" style="fill: none; stroke: #d3d3d3"/>
    <path d="M 90.408721 132.356404 
L 145.189656 357.563239 
" clip-path="url(#p470c768e30)" style="fill: none; stroke: #d3d3d3"/>
    <path d="M 90.408721 132.356404 
L 216.477541 165.605832 
" clip-path="url(#p470c768e30)" style="fill: none; stroke: #d3d3d3"/>
    <path d="M 90.408721 132.356404 
L 107.28018 254.118051 
" clip-path="url(#p470c768e30)" style="fill: none; stroke: #d3d3d3"/>
    <path d="M 90.408721 132.356404 
L 206.438741 303.196463 
" clip-path="url(#p470c768e30)" style="fill: none; stroke: #d3d3d3"/>
    <path d="M 90.408721 132.356404 
L 373.963803 301.063277 
" clip-path="url(#p470c768e30)" style="fill: none; stroke: #d3d3d3"/>
    <path d="M 90.408721 132.356404 
L 290.478127 356.478808 
" clip-path="url(#p470c768e30)" style="fill: none; stroke: #d3d3d3"/>
    <path d="M 90.408721 132.356404 
L 201.381729 98.337418 
" clip-path="url(#p470c768e30)" style="fill: none; stroke: #d3d3d3"/>
    <path d="M 90.408721 132.356404 
L 64.814339 161.415416 
" clip-path="url(#p470c768e30)" style="fill: none; stroke: #d3d3d3"/>
    <path d="M 90.408721 132.356404 
L 261.462233 187.417827 
" clip-path="url(#p470c768e30)" style="fill: none; stroke: #d3d3d3"/>
    <path d="M 201.381729 98.337418 
L 354.776656 105.238177 
" clip-path="url(#p470c768e30)" style="fill: none; stroke: #d3d3d3"/>
    <path d="M 201.381729 98.337418 
L 216.477541 165.605832 
" clip-path="url(#p470c768e30)" style="fill: none; stroke: #d3d3d3"/>
    <path d="M 201.381729 98.337418 
L 150.008476 239.853571 
" clip-path="url(#p470c768e30)" style="fill: none; stroke: #d3d3d3"/>
    <path d="M 201.381729 98.337418 
L 270.11808 386.052843 
" clip-path="url(#p470c768e30)" style="fill: none; stroke: #d3d3d3"/>
    <path d="M 201.381729 98.337418 
L 43.735537 209.074228 
" clip-path="url(#p470c768e30)" style="fill: none; stroke: #d3d3d3"/>
    <path d="M 201.381729 98.337418 
L 276.131832 278.798667 
" clip-path="url(#p470c768e30)" style="fill: none; stroke: #d3d3d3"/>
    <path d="M 201.381729 98.337418 
L 111.099607 206.491512 
" clip-path="url(#p470c768e30)" style="fill: none; stroke: #d3d3d3"/>
    <path d="M 201.381729 98.337418 
L 124.510797 304.226067 
" clip-path="url(#p470c768e30)" style="fill: none; stroke: #d3d3d3"/>
    <path d="M 201.381729 98.337418 
L 350.427182 373.417037 
" clip-path="url(#p470c768e30)" style="fill: none; stroke: #d3d3d3"/>
    <path d="M 201.381729 98.337418 
L 64.814339 161.415416 
" clip-path="url(#p470c768e30)" style="fill: none; stroke: #d3d3d3"/>
    <path d="M 201.381729 98.337418 
L 261.462233 187.417827 
" clip-path="url(#p470c768e30)" style="fill: none; stroke: #d3d3d3"/>
    <path d="M 64.814339 161.415416 
L 287.733491 127.308442 
" clip-path="url(#p470c768e30)" style="fill: none; stroke: #d3d3d3"/>
    <path d="M 64.814339 161.415416 
L 198.182382 197.477613 
" clip-path="url(#p470c768e30)" style="fill: none; stroke: #d3d3d3"/>
    <path d="M 64.814339 161.415416 
L 107.28018 254.118051 
" clip-path="url(#p470c768e30)" style="fill: none; stroke: #d3d3d3"/>
    <path d="M 64.814339 161.415416 
L 43.735537 209.074228 
" clip-path="url(#p470c768e30)" style="fill: none; stroke: #d3d3d3"/>
    <path d="M 64.814339 161.415416 
L 75.291439 285.10568 
" clip-path="url(#p470c768e30)" style="fill: none; stroke: #d3d3d3"/>
    <path d="M 64.814339 161.415416 
L 150.008476 239.853571 
" clip-path="url(#p470c768e30)" style="fill: none; stroke: #d3d3d3"/>
    <path d="M 64.814339 161.415416 
L 94.160418 335.610017 
" clip-path="url(#p470c768e30)" style="fill: none; stroke: #d3d3d3"/>
    <path d="M 64.814339 161.415416 
L 237.96873 324.901085 
" clip-path="url(#p470c768e30)" style="fill: none; stroke: #d3d3d3"/>
    <path d="M 64.814339 161.415416 
L 208.823591 249.493235 
" clip-path="url(#p470c768e30)" style="fill: none; stroke: #d3d3d3"/>
    <path d="M 64.814339 161.415416 
L 208.847951 394.512397 
" clip-path="url(#p470c768e30)" style="fill: none; stroke: #d3d3d3"/>
    <path d="M 64.814339 161.415416 
L 261.462233 187.417827 
" clip-path="url(#p470c768e30)" style="fill: none; stroke: #d3d3d3"/>
    <path d="M 261.462233 187.417827 
L 396.651931 150.906228 
" clip-path="url(#p470c768e30)" style="fill: none; stroke: #d3d3d3"/>
    <path d="M 261.462233 187.417827 
L 444.85437 222.841281 
" clip-path="url(#p470c768e30)" style="fill: none; stroke: #d3d3d3"/>
    <path d="M 261.462233 187.417827 
L 276.131832 278.798667 
" clip-path="url(#p470c768e30)" style="fill: none; stroke: #d3d3d3"/>
    <path d="M 261.462233 187.417827 
L 150.008476 239.853571 
" clip-path="url(#p470c768e30)" style="fill: none; stroke: #d3d3d3"/>
    <path d="M 261.462233 187.417827 
L 75.291439 285.10568 
" clip-path="url(#p470c768e30)" style="fill: none; stroke: #d3d3d3"/>
    <path d="M 261.462233 187.417827 
L 270.11808 386.052843 
" clip-path="url(#p470c768e30)" style="fill: none; stroke: #d3d3d3"/>
    <path d="M 261.462233 187.417827 
L 145.189656 357.563239 
" clip-path="url(#p470c768e30)" style="fill: none; stroke: #d3d3d3"/>
    <path d="M 261.462233 187.417827 
L 376.281799 335.713241 
" clip-path="url(#p470c768e30)" style="fill: none; stroke: #d3d3d3"/>
    <path d="M 261.462233 187.417827 
L 189.94589 343.544258 
" clip-path="url(#p470c768e30)" style="fill: none; stroke: #d3d3d3"/>
    <path d="M 144.166239 174.049253 
L 198.182382 197.477613 
" clip-path="url(#p470c768e30)" style="fill: none; stroke: #d3d3d3"/>
    <path d="M 144.166239 174.049253 
L 206.438741 303.196463 
" clip-path="url(#p470c768e30)" style="fill: none; stroke: #d3d3d3"/>
    <path d="M 144.166239 174.049253 
L 124.510797 304.226067 
" clip-path="url(#p470c768e30)" style="fill: none; stroke: #d3d3d3"/>
    <path d="M 144.166239 174.049253 
L 208.847951 394.512397 
" clip-path="url(#p470c768e30)" style="fill: none; stroke: #d3d3d3"/>
    <path d="M 144.166239 174.049253 
L 156.363195 102.003092 
" clip-path="url(#p470c768e30)" style="fill: none; stroke: #d3d3d3"/>
    <path d="M 144.166239 174.049253 
L 354.776656 105.238177 
" clip-path="url(#p470c768e30)" style="fill: none; stroke: #d3d3d3"/>
    <path d="M 144.166239 174.049253 
L 287.733491 127.308442 
" clip-path="url(#p470c768e30)" style="fill: none; stroke: #d3d3d3"/>
    <path d="M 144.166239 174.049253 
L 396.651931 150.906228 
" clip-path="url(#p470c768e30)" style="fill: none; stroke: #d3d3d3"/>
    <path d="M 144.166239 174.049253 
L 333.036856 256.277676 
" clip-path="url(#p470c768e30)" style="fill: none; stroke: #d3d3d3"/>
    <path d="M 144.166239 174.049253 
L 107.28018 254.118051 
" clip-path="url(#p470c768e30)" style="fill: none; stroke: #d3d3d3"/>
    <path d="M 144.166239 174.049253 
L 276.131832 278.798667 
" clip-path="url(#p470c768e30)" style="fill: none; stroke: #d3d3d3"/>
    <path d="M 144.166239 174.049253 
L 94.160418 335.610017 
" clip-path="url(#p470c768e30)" style="fill: none; stroke: #d3d3d3"/>
    <path d="M 144.166239 174.049253 
L 270.11808 386.052843 
" clip-path="url(#p470c768e30)" style="fill: none; stroke: #d3d3d3"/>
    <path d="M 198.182382 197.477613 
L 354.776656 105.238177 
" clip-path="url(#p470c768e30)" style="fill: none; stroke: #d3d3d3"/>
    <path d="M 198.182382 197.477613 
L 287.733491 127.308442 
" clip-path="url(#p470c768e30)" style="fill: none; stroke: #d3d3d3"/>
    <path d="M 198.182382 197.477613 
L 156.363195 102.003092 
" clip-path="url(#p470c768e30)" style="fill: none; stroke: #d3d3d3"/>
    <path d="M 198.182382 197.477613 
L 206.438741 303.196463 
" clip-path="url(#p470c768e30)" style="fill: none; stroke: #d3d3d3"/>
    <path d="M 198.182382 197.477613 
L 124.510797 304.226067 
" clip-path="url(#p470c768e30)" style="fill: none; stroke: #d3d3d3"/>
    <path d="M 198.182382 197.477613 
L 208.847951 394.512397 
" clip-path="url(#p470c768e30)" style="fill: none; stroke: #d3d3d3"/>
    <path d="M 198.182382 197.477613 
L 107.28018 254.118051 
" clip-path="url(#p470c768e30)" style="fill: none; stroke: #d3d3d3"/>
    <path d="M 198.182382 197.477613 
L 43.735537 209.074228 
" clip-path="url(#p470c768e30)" style="fill: none; stroke: #d3d3d3"/>
    <path d="M 198.182382 197.477613 
L 444.85437 222.841281 
" clip-path="url(#p470c768e30)" style="fill: none; stroke: #d3d3d3"/>
    <path d="M 198.182382 197.477613 
L 272.976688 234.111451 
" clip-path="url(#p470c768e30)" style="fill: none; stroke: #d3d3d3"/>
    <path d="M 198.182382 197.477613 
L 460.264463 280.954176 
" clip-path="url(#p470c768e30)" style="fill: none; stroke: #d3d3d3"/>
    <path d="M 198.182382 197.477613 
L 111.099607 206.491512 
" clip-path="url(#p470c768e30)" style="fill: none; stroke: #d3d3d3"/>
    <path d="M 198.182382 197.477613 
L 237.96873 324.901085 
" clip-path="url(#p470c768e30)" style="fill: none; stroke: #d3d3d3"/>
    <path d="M 198.182382 197.477613 
L 145.189656 357.563239 
" clip-path="url(#p470c768e30)" style="fill: none; stroke: #d3d3d3"/>
    <path d="M 206.438741 303.196463 
L 287.733491 127.308442 
" clip-path="url(#p470c768e30)" style="fill: none; stroke: #d3d3d3"/>
    <path d="M 206.438741 303.196463 
L 333.036856 256.277676 
" clip-path="url(#p470c768e30)" style="fill: none; stroke: #d3d3d3"/>
    <path d="M 206.438741 303.196463 
L 444.85437 222.841281 
" clip-path="url(#p470c768e30)" style="fill: none; stroke: #d3d3d3"/>
    <path d="M 206.438741 303.196463 
L 272.976688 234.111451 
" clip-path="url(#p470c768e30)" style="fill: none; stroke: #d3d3d3"/>
    <path d="M 206.438741 303.196463 
L 216.477541 165.605832 
" clip-path="url(#p470c768e30)" style="fill: none; stroke: #d3d3d3"/>
    <path d="M 206.438741 303.196463 
L 107.28018 254.118051 
" clip-path="url(#p470c768e30)" style="fill: none; stroke: #d3d3d3"/>
    <path d="M 206.438741 303.196463 
L 124.510797 304.226067 
" clip-path="url(#p470c768e30)" style="fill: none; stroke: #d3d3d3"/>
    <path d="M 206.438741 303.196463 
L 208.847951 394.512397 
" clip-path="url(#p470c768e30)" style="fill: none; stroke: #d3d3d3"/>
    <path d="M 206.438741 303.196463 
L 111.099607 206.491512 
" clip-path="url(#p470c768e30)" style="fill: none; stroke: #d3d3d3"/>
    <path d="M 206.438741 303.196463 
L 94.160418 335.610017 
" clip-path="url(#p470c768e30)" style="fill: none; stroke: #d3d3d3"/>
    <path d="M 206.438741 303.196463 
L 75.291439 285.10568 
" clip-path="url(#p470c768e30)" style="fill: none; stroke: #d3d3d3"/>
    <path d="M 206.438741 303.196463 
L 373.963803 301.063277 
" clip-path="url(#p470c768e30)" style="fill: none; stroke: #d3d3d3"/>
    <path d="M 206.438741 303.196463 
L 290.478127 356.478808 
" clip-path="url(#p470c768e30)" style="fill: none; stroke: #d3d3d3"/>
    <path d="M 206.438741 303.196463 
L 208.823591 249.493235 
" clip-path="url(#p470c768e30)" style="fill: none; stroke: #d3d3d3"/>
    <path d="M 206.438741 303.196463 
L 376.281799 335.713241 
" clip-path="url(#p470c768e30)" style="fill: none; stroke: #d3d3d3"/>
    <path d="M 124.510797 304.226067 
L 396.651931 150.906228 
" clip-path="url(#p470c768e30)" style="fill: none; stroke: #d3d3d3"/>
    <path d="M 124.510797 304.226067 
L 272.976688 234.111451 
" clip-path="url(#p470c768e30)" style="fill: none; stroke: #d3d3d3"/>
    <path d="M 124.510797 304.226067 
L 373.963803 301.063277 
" clip-path="url(#p470c768e30)" style="fill: none; stroke: #d3d3d3"/>
    <path d="M 124.510797 304.226067 
L 290.478127 356.478808 
" clip-path="url(#p470c768e30)" style="fill: none; stroke: #d3d3d3"/>
    <path d="M 124.510797 304.226067 
L 43.735537 209.074228 
" clip-path="url(#p470c768e30)" style="fill: none; stroke: #d3d3d3"/>
    <path d="M 124.510797 304.226067 
L 276.131832 278.798667 
" clip-path="url(#p470c768e30)" style="fill: none; stroke: #d3d3d3"/>
    <path d="M 124.510797 304.226067 
L 111.099607 206.491512 
" clip-path="url(#p470c768e30)" style="fill: none; stroke: #d3d3d3"/>
    <path d="M 124.510797 304.226067 
L 208.847951 394.512397 
" clip-path="url(#p470c768e30)" style="fill: none; stroke: #d3d3d3"/>
    <path d="M 124.510797 304.226067 
L 208.823591 249.493235 
" clip-path="url(#p470c768e30)" style="fill: none; stroke: #d3d3d3"/>
    <path d="M 124.510797 304.226067 
L 145.189656 357.563239 
" clip-path="url(#p470c768e30)" style="fill: none; stroke: #d3d3d3"/>
    <path d="M 124.510797 304.226067 
L 350.427182 373.417037 
" clip-path="url(#p470c768e30)" style="fill: none; stroke: #d3d3d3"/>
    <path d="M 124.510797 304.226067 
L 189.94589 343.544258 
" clip-path="url(#p470c768e30)" style="fill: none; stroke: #d3d3d3"/>
    <path d="M 208.847951 394.512397 
L 333.036856 256.277676 
" clip-path="url(#p470c768e30)" style="fill: none; stroke: #d3d3d3"/>
    <path d="M 208.847951 394.512397 
L 460.264463 280.954176 
" clip-path="url(#p470c768e30)" style="fill: none; stroke: #d3d3d3"/>
    <path d="M 208.847951 394.512397 
L 290.478127 356.478808 
" clip-path="url(#p470c768e30)" style="fill: none; stroke: #d3d3d3"/>
    <path d="M 208.847951 394.512397 
L 350.427182 373.417037 
" clip-path="url(#p470c768e30)" style="fill: none; stroke: #d3d3d3"/>
    <path d="M 208.847951 394.512397 
L 150.008476 239.853571 
" clip-path="url(#p470c768e30)" style="fill: none; stroke: #d3d3d3"/>
    <path d="M 208.847951 394.512397 
L 94.160418 335.610017 
" clip-path="url(#p470c768e30)" style="fill: none; stroke: #d3d3d3"/>
    <path d="M 208.847951 394.512397 
L 237.96873 324.901085 
" clip-path="url(#p470c768e30)" style="fill: none; stroke: #d3d3d3"/>
    <path d="M 208.847951 394.512397 
L 208.823591 249.493235 
" clip-path="url(#p470c768e30)" style="fill: none; stroke: #d3d3d3"/>
    <path d="M 208.847951 394.512397 
L 189.94589 343.544258 
" clip-path="url(#p470c768e30)" style="fill: none; stroke: #d3d3d3"/>
    <path d="M 156.363195 102.003092 
L 107.28018 254.118051 
" clip-path="url(#p470c768e30)" style="fill: none; stroke: #d3d3d3"/>
    <path d="M 156.363195 102.003092 
L 111.099607 206.491512 
" clip-path="url(#p470c768e30)" style="fill: none; stroke: #d3d3d3"/>
    <path d="M 156.363195 102.003092 
L 208.823591 249.493235 
" clip-path="url(#p470c768e30)" style="fill: none; stroke: #d3d3d3"/>
    <path d="M 156.363195 102.003092 
L 189.94589 343.544258 
" clip-path="url(#p470c768e30)" style="fill: none; stroke: #d3d3d3"/>
    <path d="M 156.363195 102.003092 
L 444.85437 222.841281 
" clip-path="url(#p470c768e30)" style="fill: none; stroke: #d3d3d3"/>
    <path d="M 156.363195 102.003092 
L 272.976688 234.111451 
" clip-path="url(#p470c768e30)" style="fill: none; stroke: #d3d3d3"/>
    <path d="M 156.363195 102.003092 
L 460.264463 280.954176 
" clip-path="url(#p470c768e30)" style="fill: none; stroke: #d3d3d3"/>
    <path d="M 156.363195 102.003092 
L 216.477541 165.605832 
" clip-path="url(#p470c768e30)" style="fill: none; stroke: #d3d3d3"/>
    <path d="M 156.363195 102.003092 
L 43.735537 209.074228 
" clip-path="url(#p470c768e30)" style="fill: none; stroke: #d3d3d3"/>
    <path d="M 156.363195 102.003092 
L 150.008476 239.853571 
" clip-path="url(#p470c768e30)" style="fill: none; stroke: #d3d3d3"/>
    <path d="M 156.363195 102.003092 
L 75.291439 285.10568 
" clip-path="url(#p470c768e30)" style="fill: none; stroke: #d3d3d3"/>
    <path d="M 216.477541 165.605832 
L 354.776656 105.238177 
" clip-path="url(#p470c768e30)" style="fill: none; stroke: #d3d3d3"/>
    <path d="M 216.477541 165.605832 
L 276.131832 278.798667 
" clip-path="url(#p470c768e30)" style="fill: none; stroke: #d3d3d3"/>
    <path d="M 216.477541 165.605832 
L 237.96873 324.901085 
" clip-path="url(#p470c768e30)" style="fill: none; stroke: #d3d3d3"/>
    <path d="M 216.477541 165.605832 
L 376.281799 335.713241 
" clip-path="url(#p470c768e30)" style="fill: none; stroke: #d3d3d3"/>
    <path d="M 216.477541 165.605832 
L 107.28018 254.118051 
" clip-path="url(#p470c768e30)" style="fill: none; stroke: #d3d3d3"/>
    <path d="M 216.477541 165.605832 
L 373.963803 301.063277 
" clip-path="url(#p470c768e30)" style="fill: none; stroke: #d3d3d3"/>
    <path d="M 216.477541 165.605832 
L 290.478127 356.478808 
" clip-path="url(#p470c768e30)" style="fill: none; stroke: #d3d3d3"/>
    <path d="M 216.477541 165.605832 
L 43.735537 209.074228 
" clip-path="url(#p470c768e30)" style="fill: none; stroke: #d3d3d3"/>
    <path d="M 216.477541 165.605832 
L 150.008476 239.853571 
" clip-path="url(#p470c768e30)" style="fill: none; stroke: #d3d3d3"/>
    <path d="M 216.477541 165.605832 
L 75.291439 285.10568 
" clip-path="url(#p470c768e30)" style="fill: none; stroke: #d3d3d3"/>
    <path d="M 43.735537 209.074228 
L 287.733491 127.308442 
" clip-path="url(#p470c768e30)" style="fill: none; stroke: #d3d3d3"/>
    <path d="M 43.735537 209.074228 
L 107.28018 254.118051 
" clip-path="url(#p470c768e30)" style="fill: none; stroke: #d3d3d3"/>
    <path d="M 43.735537 209.074228 
L 94.160418 335.610017 
" clip-path="url(#p470c768e30)" style="fill: none; stroke: #d3d3d3"/>
    <path d="M 43.735537 209.074228 
L 145.189656 357.563239 
" clip-path="url(#p470c768e30)" style="fill: none; stroke: #d3d3d3"/>
    <path d="M 43.735537 209.074228 
L 276.131832 278.798667 
" clip-path="url(#p470c768e30)" style="fill: none; stroke: #d3d3d3"/>
    <path d="M 43.735537 209.074228 
L 111.099607 206.491512 
" clip-path="url(#p470c768e30)" style="fill: none; stroke: #d3d3d3"/>
    <path d="M 43.735537 209.074228 
L 350.427182 373.417037 
" clip-path="url(#p470c768e30)" style="fill: none; stroke: #d3d3d3"/>
    <path d="M 43.735537 209.074228 
L 150.008476 239.853571 
" clip-path="url(#p470c768e30)" style="fill: none; stroke: #d3d3d3"/>
    <path d="M 43.735537 209.074228 
L 75.291439 285.10568 
" clip-path="url(#p470c768e30)" style="fill: none; stroke: #d3d3d3"/>
    <path d="M 150.008476 239.853571 
L 396.651931 150.906228 
" clip-path="url(#p470c768e30)" style="fill: none; stroke: #d3d3d3"/>
    <path d="M 150.008476 239.853571 
L 444.85437 222.841281 
" clip-path="url(#p470c768e30)" style="fill: none; stroke: #d3d3d3"/>
    <path d="M 150.008476 239.853571 
L 276.131832 278.798667 
" clip-path="url(#p470c768e30)" style="fill: none; stroke: #d3d3d3"/>
    <path d="M 150.008476 239.853571 
L 270.11808 386.052843 
" clip-path="url(#p470c768e30)" style="fill: none; stroke: #d3d3d3"/>
    <path d="M 150.008476 239.853571 
L 94.160418 335.610017 
" clip-path="url(#p470c768e30)" style="fill: none; stroke: #d3d3d3"/>
    <path d="M 150.008476 239.853571 
L 237.96873 324.901085 
" clip-path="url(#p470c768e30)" style="fill: none; stroke: #d3d3d3"/>
    <path d="M 150.008476 239.853571 
L 208.823591 249.493235 
" clip-path="url(#p470c768e30)" style="fill: none; stroke: #d3d3d3"/>
    <path d="M 150.008476 239.853571 
L 75.291439 285.10568 
" clip-path="url(#p470c768e30)" style="fill: none; stroke: #d3d3d3"/>
    <path d="M 75.291439 285.10568 
L 333.036856 256.277676 
" clip-path="url(#p470c768e30)" style="fill: none; stroke: #d3d3d3"/>
    <path d="M 75.291439 285.10568 
L 272.976688 234.111451 
" clip-path="url(#p470c768e30)" style="fill: none; stroke: #d3d3d3"/>
    <path d="M 75.291439 285.10568 
L 111.099607 206.491512 
" clip-path="url(#p470c768e30)" style="fill: none; stroke: #d3d3d3"/>
    <path d="M 75.291439 285.10568 
L 94.160418 335.610017 
" clip-path="url(#p470c768e30)" style="fill: none; stroke: #d3d3d3"/>
    <path d="M 75.291439 285.10568 
L 270.11808 386.052843 
" clip-path="url(#p470c768e30)" style="fill: none; stroke: #d3d3d3"/>
    <path d="M 75.291439 285.10568 
L 145.189656 357.563239 
" clip-path="url(#p470c768e30)" style="fill: none; stroke: #d3d3d3"/>
    <path d="M 75.291439 285.10568 
L 376.281799 335.713241 
" clip-path="url(#p470c768e30)" style="fill: none; stroke: #d3d3d3"/>
    <path d="M 75.291439 285.10568 
L 189.94589 343.544258 
" clip-path="url(#p470c768e30)" style="fill: none; stroke: #d3d3d3"/>
    <path d="M 354.776656 105.238177 
L 444.85437 222.841281 
" clip-path="url(#p470c768e30)" style="fill: none; stroke: #d3d3d3"/>
    <path d="M 354.776656 105.238177 
L 373.963803 301.063277 
" clip-path="url(#p470c768e30)" style="fill: none; stroke: #d3d3d3"/>
    <path d="M 354.776656 105.238177 
L 350.427182 373.417037 
" clip-path="url(#p470c768e30)" style="fill: none; stroke: #d3d3d3"/>
    <path d="M 354.776656 105.238177 
L 287.733491 127.308442 
" clip-path="url(#p470c768e30)" style="fill: none; stroke: #d3d3d3"/>
    <path d="M 354.776656 105.238177 
L 396.651931 150.906228 
" clip-path="url(#p470c768e30)" style="fill: none; stroke: #d3d3d3"/>
    <path d="M 354.776656 105.238177 
L 333.036856 256.277676 
" clip-path="url(#p470c768e30)" style="fill: none; stroke: #d3d3d3"/>
    <path d="M 354.776656 105.238177 
L 111.099607 206.491512 
" clip-path="url(#p470c768e30)" style="fill: none; stroke: #d3d3d3"/>
    <path d="M 354.776656 105.238177 
L 237.96873 324.901085 
" clip-path="url(#p470c768e30)" style="fill: none; stroke: #d3d3d3"/>
    <path d="M 354.776656 105.238177 
L 145.189656 357.563239 
" clip-path="url(#p470c768e30)" style="fill: none; stroke: #d3d3d3"/>
    <path d="M 444.85437 222.841281 
L 287.733491 127.308442 
" clip-path="url(#p470c768e30)" style="fill: none; stroke: #d3d3d3"/>
    <path d="M 444.85437 222.841281 
L 396.651931 150.906228 
" clip-path="url(#p470c768e30)" style="fill: none; stroke: #d3d3d3"/>
    <path d="M 444.85437 222.841281 
L 373.963803 301.063277 
" clip-path="url(#p470c768e30)" style="fill: none; stroke: #d3d3d3"/>
    <path d="M 444.85437 222.841281 
L 350.427182 373.417037 
" clip-path="url(#p470c768e30)" style="fill: none; stroke: #d3d3d3"/>
    <path d="M 444.85437 222.841281 
L 276.131832 278.798667 
" clip-path="url(#p470c768e30)" style="fill: none; stroke: #d3d3d3"/>
    <path d="M 444.85437 222.841281 
L 272.976688 234.111451 
" clip-path="url(#p470c768e30)" style="fill: none; stroke: #d3d3d3"/>
    <path d="M 444.85437 222.841281 
L 460.264463 280.954176 
" clip-path="url(#p470c768e30)" style="fill: none; stroke: #d3d3d3"/>
    <path d="M 444.85437 222.841281 
L 208.823591 249.493235 
" clip-path="url(#p470c768e30)" style="fill: none; stroke: #d3d3d3"/>
    <path d="M 444.85437 222.841281 
L 376.281799 335.713241 
" clip-path="url(#p470c768e30)" style="fill: none; stroke: #d3d3d3"/>
    <path d="M 373.963803 301.063277 
L 396.651931 150.906228 
" clip-path="url(#p470c768e30)" style="fill: none; stroke: #d3d3d3"/>
    <path d="M 373.963803 301.063277 
L 272.976688 234.111451 
" clip-path="url(#p470c768e30)" style="fill: none; stroke: #d3d3d3"/>
    <path d="M 373.963803 301.063277 
L 460.264463 280.954176 
" clip-path="url(#p470c768e30)" style="fill: none; stroke: #d3d3d3"/>
    <path d="M 373.963803 301.063277 
L 107.28018 254.118051 
" clip-path="url(#p470c768e30)" style="fill: none; stroke: #d3d3d3"/>
    <path d="M 373.963803 301.063277 
L 350.427182 373.417037 
" clip-path="url(#p470c768e30)" style="fill: none; stroke: #d3d3d3"/>
    <path d="M 373.963803 301.063277 
L 237.96873 324.901085 
" clip-path="url(#p470c768e30)" style="fill: none; stroke: #d3d3d3"/>
    <path d="M 373.963803 301.063277 
L 270.11808 386.052843 
" clip-path="url(#p470c768e30)" style="fill: none; stroke: #d3d3d3"/>
    <path d="M 373.963803 301.063277 
L 290.478127 356.478808 
" clip-path="url(#p470c768e30)" style="fill: none; stroke: #d3d3d3"/>
    <path d="M 373.963803 301.063277 
L 189.94589 343.544258 
" clip-path="url(#p470c768e30)" style="fill: none; stroke: #d3d3d3"/>
    <path d="M 350.427182 373.417037 
L 333.036856 256.277676 
" clip-path="url(#p470c768e30)" style="fill: none; stroke: #d3d3d3"/>
    <path d="M 350.427182 373.417037 
L 460.264463 280.954176 
" clip-path="url(#p470c768e30)" style="fill: none; stroke: #d3d3d3"/>
    <path d="M 350.427182 373.417037 
L 290.478127 356.478808 
" clip-path="url(#p470c768e30)" style="fill: none; stroke: #d3d3d3"/>
    <path d="M 350.427182 373.417037 
L 276.131832 278.798667 
" clip-path="url(#p470c768e30)" style="fill: none; stroke: #d3d3d3"/>
    <path d="M 350.427182 373.417037 
L 111.099607 206.491512 
" clip-path="url(#p470c768e30)" style="fill: none; stroke: #d3d3d3"/>
    <path d="M 350.427182 373.417037 
L 376.281799 335.713241 
" clip-path="url(#p470c768e30)" style="fill: none; stroke: #d3d3d3"/>
    <path d="M 107.28018 254.118051 
L 287.733491 127.308442 
" clip-path="url(#p470c768e30)" style="fill: none; stroke: #d3d3d3"/>
    <path d="M 107.28018 254.118051 
L 111.099607 206.491512 
" clip-path="url(#p470c768e30)" style="fill: none; stroke: #d3d3d3"/>
    <path d="M 107.28018 254.118051 
L 208.823591 249.493235 
" clip-path="url(#p470c768e30)" style="fill: none; stroke: #d3d3d3"/>
    <path d="M 107.28018 254.118051 
L 189.94589 343.544258 
" clip-path="url(#p470c768e30)" style="fill: none; stroke: #d3d3d3"/>
    <path d="M 107.28018 254.118051 
L 290.478127 356.478808 
" clip-path="url(#p470c768e30)" style="fill: none; stroke: #d3d3d3"/>
    <path d="M 107.28018 254.118051 
L 276.131832 278.798667 
" clip-path="url(#p470c768e30)" style="fill: none; stroke: #d3d3d3"/>
    <path d="M 107.28018 254.118051 
L 94.160418 335.610017 
" clip-path="url(#p470c768e30)" style="fill: none; stroke: #d3d3d3"/>
    <path d="M 107.28018 254.118051 
L 270.11808 386.052843 
" clip-path="url(#p470c768e30)" style="fill: none; stroke: #d3d3d3"/>
    <path d="M 276.131832 278.798667 
L 396.651931 150.906228 
" clip-path="url(#p470c768e30)" style="fill: none; stroke: #d3d3d3"/>
    <path d="M 276.131832 278.798667 
L 237.96873 324.901085 
" clip-path="url(#p470c768e30)" style="fill: none; stroke: #d3d3d3"/>
    <path d="M 276.131832 278.798667 
L 376.281799 335.713241 
" clip-path="url(#p470c768e30)" style="fill: none; stroke: #d3d3d3"/>
    <path d="M 276.131832 278.798667 
L 111.099607 206.491512 
" clip-path="url(#p470c768e30)" style="fill: none; stroke: #d3d3d3"/>
    <path d="M 276.131832 278.798667 
L 94.160418 335.610017 
" clip-path="url(#p470c768e30)" style="fill: none; stroke: #d3d3d3"/>
    <path d="M 276.131832 278.798667 
L 270.11808 386.052843 
" clip-path="url(#p470c768e30)" style="fill: none; stroke: #d3d3d3"/>
    <path d="M 94.160418 335.610017 
L 333.036856 256.277676 
" clip-path="url(#p470c768e30)" style="fill: none; stroke: #d3d3d3"/>
    <path d="M 94.160418 335.610017 
L 272.976688 234.111451 
" clip-path="url(#p470c768e30)" style="fill: none; stroke: #d3d3d3"/>
    <path d="M 94.160418 335.610017 
L 111.099607 206.491512 
" clip-path="url(#p470c768e30)" style="fill: none; stroke: #d3d3d3"/>
    <path d="M 94.160418 335.610017 
L 145.189656 357.563239 
" clip-path="url(#p470c768e30)" style="fill: none; stroke: #d3d3d3"/>
    <path d="M 94.160418 335.610017 
L 237.96873 324.901085 
" clip-path="url(#p470c768e30)" style="fill: none; stroke: #d3d3d3"/>
    <path d="M 94.160418 335.610017 
L 208.823591 249.493235 
" clip-path="url(#p470c768e30)" style="fill: none; stroke: #d3d3d3"/>
    <path d="M 94.160418 335.610017 
L 270.11808 386.052843 
" clip-path="url(#p470c768e30)" style="fill: none; stroke: #d3d3d3"/>
    <path d="M 270.11808 386.052843 
L 460.264463 280.954176 
" clip-path="url(#p470c768e30)" style="fill: none; stroke: #d3d3d3"/>
    <path d="M 270.11808 386.052843 
L 237.96873 324.901085 
" clip-path="url(#p470c768e30)" style="fill: none; stroke: #d3d3d3"/>
    <path d="M 270.11808 386.052843 
L 145.189656 357.563239 
" clip-path="url(#p470c768e30)" style="fill: none; stroke: #d3d3d3"/>
    <path d="M 270.11808 386.052843 
L 376.281799 335.713241 
" clip-path="url(#p470c768e30)" style="fill: none; stroke: #d3d3d3"/>
    <path d="M 270.11808 386.052843 
L 189.94589 343.544258 
" clip-path="url(#p470c768e30)" style="fill: none; stroke: #d3d3d3"/>
    <path d="M 287.733491 127.308442 
L 272.976688 234.111451 
" clip-path="url(#p470c768e30)" style="fill: none; stroke: #d3d3d3"/>
    <path d="M 287.733491 127.308442 
L 290.478127 356.478808 
" clip-path="url(#p470c768e30)" style="fill: none; stroke: #d3d3d3"/>
    <path d="M 287.733491 127.308442 
L 396.651931 150.906228 
" clip-path="url(#p470c768e30)" style="fill: none; stroke: #d3d3d3"/>
    <path d="M 287.733491 127.308442 
L 333.036856 256.277676 
" clip-path="url(#p470c768e30)" style="fill: none; stroke: #d3d3d3"/>
    <path d="M 287.733491 127.308442 
L 208.823591 249.493235 
" clip-path="url(#p470c768e30)" style="fill: none; stroke: #d3d3d3"/>
    <path d="M 287.733491 127.308442 
L 376.281799 335.713241 
" clip-path="url(#p470c768e30)" style="fill: none; stroke: #d3d3d3"/>
    <path d="M 272.976688 234.111451 
L 396.651931 150.906228 
" clip-path="url(#p470c768e30)" style="fill: none; stroke: #d3d3d3"/>
    <path d="M 272.976688 234.111451 
L 333.036856 256.277676 
" clip-path="url(#p470c768e30)" style="fill: none; stroke: #d3d3d3"/>
    <path d="M 272.976688 234.111451 
L 290.478127 356.478808 
" clip-path="url(#p470c768e30)" style="fill: none; stroke: #d3d3d3"/>
    <path d="M 272.976688 234.111451 
L 111.099607 206.491512 
" clip-path="url(#p470c768e30)" style="fill: none; stroke: #d3d3d3"/>
    <path d="M 272.976688 234.111451 
L 460.264463 280.954176 
" clip-path="url(#p470c768e30)" style="fill: none; stroke: #d3d3d3"/>
    <path d="M 272.976688 234.111451 
L 189.94589 343.544258 
" clip-path="url(#p470c768e30)" style="fill: none; stroke: #d3d3d3"/>
    <path d="M 290.478127 356.478808 
L 333.036856 256.277676 
" clip-path="url(#p470c768e30)" style="fill: none; stroke: #d3d3d3"/>
    <path d="M 290.478127 356.478808 
L 460.264463 280.954176 
" clip-path="url(#p470c768e30)" style="fill: none; stroke: #d3d3d3"/>
    <path d="M 290.478127 356.478808 
L 208.823591 249.493235 
" clip-path="url(#p470c768e30)" style="fill: none; stroke: #d3d3d3"/>
    <path d="M 290.478127 356.478808 
L 145.189656 357.563239 
" clip-path="url(#p470c768e30)" style="fill: none; stroke: #d3d3d3"/>
    <path d="M 111.099607 206.491512 
L 333.036856 256.277676 
" clip-path="url(#p470c768e30)" style="fill: none; stroke: #d3d3d3"/>
    <path d="M 111.099607 206.491512 
L 208.823591 249.493235 
" clip-path="url(#p470c768e30)" style="fill: none; stroke: #d3d3d3"/>
    <path d="M 111.099607 206.491512 
L 189.94589 343.544258 
" clip-path="url(#p470c768e30)" style="fill: none; stroke: #d3d3d3"/>
    <path d="M 111.099607 206.491512 
L 237.96873 324.901085 
" clip-path="url(#p470c768e30)" style="fill: none; stroke: #d3d3d3"/>
    <path d="M 111.099607 206.491512 
L 145.189656 357.563239 
" clip-path="url(#p470c768e30)" style="fill: none; stroke: #d3d3d3"/>
    <path d="M 237.96873 324.901085 
L 460.264463 280.954176 
" clip-path="url(#p470c768e30)" style="fill: none; stroke: #d3d3d3"/>
    <path d="M 237.96873 324.901085 
L 376.281799 335.713241 
" clip-path="url(#p470c768e30)" style="fill: none; stroke: #d3d3d3"/>
    <path d="M 237.96873 324.901085 
L 208.823591 249.493235 
" clip-path="url(#p470c768e30)" style="fill: none; stroke: #d3d3d3"/>
    <path d="M 237.96873 324.901085 
L 145.189656 357.563239 
" clip-path="url(#p470c768e30)" style="fill: none; stroke: #d3d3d3"/>
    <path d="M 145.189656 357.563239 
L 208.823591 249.493235 
" clip-path="url(#p470c768e30)" style="fill: none; stroke: #d3d3d3"/>
    <path d="M 145.189656 357.563239 
L 376.281799 335.713241 
" clip-path="url(#p470c768e30)" style="fill: none; stroke: #d3d3d3"/>
    <path d="M 145.189656 357.563239 
L 189.94589 343.544258 
" clip-path="url(#p470c768e30)" style="fill: none; stroke: #d3d3d3"/>
    <path d="M 396.651931 150.906228 
L 460.264463 280.954176 
" clip-path="url(#p470c768e30)" style="fill: none; stroke: #d3d3d3"/>
    <path d="M 396.651931 150.906228 
L 333.036856 256.277676 
" clip-path="url(#p470c768e30)" style="fill: none; stroke: #d3d3d3"/>
    <path d="M 396.651931 150.906228 
L 189.94589 343.544258 
" clip-path="url(#p470c768e30)" style="fill: none; stroke: #d3d3d3"/>
    <path d="M 460.264463 280.954176 
L 333.036856 256.277676 
" clip-path="url(#p470c768e30)" style="fill: none; stroke: #d3d3d3"/>
    <path d="M 208.823591 249.493235 
L 189.94589 343.544258 
" clip-path="url(#p470c768e30)" style="fill: none; stroke: #d3d3d3"/>
    <path d="M 208.823591 249.493235 
L 376.281799 335.713241 
" clip-path="url(#p470c768e30)" style="fill: none; stroke: #d3d3d3"/>
    <path d="M 376.281799 335.713241 
L 189.94589 343.544258 
" clip-path="url(#p470c768e30)" style="fill: none; stroke: #d3d3d3"/>
   </g>
   <g id="PathCollection_1">
    <defs>
     <path id="C0_0_6b69d8c845" d="M 0 5 
C 1.326016 5 2.597899 4.473168 3.535534 3.535534 
C 4.473168 2.597899 5 1.326016 5 -0 
C 5 -1.326016 4.473168 -2.597899 3.535534 -3.535534 
C 2.597899 -4.473168 1.326016 -5 0 -5 
C -1.326016 -5 -2.597899 -4.473168 -3.535534 -3.535534 
C -4.473168 -2.597899 -5 -1.326016 -5 0 
C -5 1.326016 -4.473168 2.597899 -3.535534 3.535534 
C -2.597899 4.473168 -1.326016 5 0 5 
z
"/>
    </defs>
    <g clip-path="url(#p470c768e30)">
     <use xlink:href="#C0_0_6b69d8c845" x="326.864438" y="37.487603" style="fill: #3ae8d6; stroke: #3ae8d6"/>
    </g>
    <g clip-path="url(#p470c768e30)">
     <use xlink:href="#C0_0_6b69d8c845" x="261.830651" y="70.33364" style="fill: #0ac0e8; stroke: #0ac0e8"/>
    </g>
    <g clip-path="url(#p470c768e30)">
     <use xlink:href="#C0_0_6b69d8c845" x="387.723169" y="179.198851" style="fill: #c4e88a; stroke: #c4e88a"/>
    </g>
    <g clip-path="url(#p470c768e30)">
     <use xlink:href="#C0_0_6b69d8c845" x="317.525851" y="201.370003" style="fill: #5247fc; stroke: #5247fc"/>
    </g>
    <g clip-path="url(#p470c768e30)">
     <use xlink:href="#C0_0_6b69d8c845" x="376.126046" y="236.371989" style="fill: #8000ff; stroke: #8000ff"/>
    </g>
    <g clip-path="url(#p470c768e30)">
     <use xlink:href="#C0_0_6b69d8c845" x="302.274924" y="312.809531" style="fill: #68fcc1; stroke: #68fcc1"/>
    </g>
    <g clip-path="url(#p470c768e30)">
     <use xlink:href="#C0_0_6b69d8c845" x="417.749705" y="329.1774" style="fill: #2489f5; stroke: #2489f5"/>
    </g>
    <g clip-path="url(#p470c768e30)">
     <use xlink:href="#C0_0_6b69d8c845" x="106.812537" y="96.424617" style="fill: #68fcc1; stroke: #68fcc1"/>
    </g>
    <g clip-path="url(#p470c768e30)">
     <use xlink:href="#C0_0_6b69d8c845" x="336.811325" y="161.042086" style="fill: #96fca7; stroke: #96fca7"/>
    </g>
    <g clip-path="url(#p470c768e30)">
     <use xlink:href="#C0_0_6b69d8c845" x="233.711209" y="53.568389" style="fill: #f4c069; stroke: #f4c069"/>
    </g>
    <g clip-path="url(#p470c768e30)">
     <use xlink:href="#C0_0_6b69d8c845" x="419.486933" y="89.831381" style="fill: #3ae8d6; stroke: #3ae8d6"/>
    </g>
    <g clip-path="url(#p470c768e30)">
     <use xlink:href="#C0_0_6b69d8c845" x="223.557672" y="114.194063" style="fill: #2489f5; stroke: #2489f5"/>
    </g>
    <g clip-path="url(#p470c768e30)">
     <use xlink:href="#C0_0_6b69d8c845" x="443.493544" y="184.637039" style="fill: #5247fc; stroke: #5247fc"/>
    </g>
    <g clip-path="url(#p470c768e30)">
     <use xlink:href="#C0_0_6b69d8c845" x="169.362914" y="39.889419" style="fill: #8000ff; stroke: #8000ff"/>
    </g>
    <g clip-path="url(#p470c768e30)">
     <use xlink:href="#C0_0_6b69d8c845" x="342.721992" y="82.729846" style="fill: #5247fc; stroke: #5247fc"/>
    </g>
    <g clip-path="url(#p470c768e30)">
     <use xlink:href="#C0_0_6b69d8c845" x="90.408721" y="132.356404" style="fill: #8000ff; stroke: #8000ff"/>
    </g>
    <g clip-path="url(#p470c768e30)">
     <use xlink:href="#C0_0_6b69d8c845" x="201.381729" y="98.337418" style="fill: #2489f5; stroke: #2489f5"/>
    </g>
    <g clip-path="url(#p470c768e30)">
     <use xlink:href="#C0_0_6b69d8c845" x="64.814339" y="161.415416" style="fill: #96fca7; stroke: #96fca7"/>
    </g>
    <g clip-path="url(#p470c768e30)">
     <use xlink:href="#C0_0_6b69d8c845" x="261.462233" y="187.417827" style="fill: #0ac0e8; stroke: #0ac0e8"/>
    </g>
    <g clip-path="url(#p470c768e30)">
     <use xlink:href="#C0_0_6b69d8c845" x="144.166239" y="174.049253" style="fill: #3ae8d6; stroke: #3ae8d6"/>
    </g>
    <g clip-path="url(#p470c768e30)">
     <use xlink:href="#C0_0_6b69d8c845" x="198.182382" y="197.477613" style="fill: #68fcc1; stroke: #68fcc1"/>
    </g>
    <g clip-path="url(#p470c768e30)">
     <use xlink:href="#C0_0_6b69d8c845" x="206.438741" y="303.196463" style="fill: #2489f5; stroke: #2489f5"/>
    </g>
    <g clip-path="url(#p470c768e30)">
     <use xlink:href="#C0_0_6b69d8c845" x="124.510797" y="304.226067" style="fill: #68fcc1; stroke: #68fcc1"/>
    </g>
    <g clip-path="url(#p470c768e30)">
     <use xlink:href="#C0_0_6b69d8c845" x="208.847951" y="394.512397" style="fill: #3ae8d6; stroke: #3ae8d6"/>
    </g>
    <g clip-path="url(#p470c768e30)">
     <use xlink:href="#C0_0_6b69d8c845" x="156.363195" y="102.003092" style="fill: #c4e88a; stroke: #c4e88a"/>
    </g>
    <g clip-path="url(#p470c768e30)">
     <use xlink:href="#C0_0_6b69d8c845" x="216.477541" y="165.605832" style="fill: #5247fc; stroke: #5247fc"/>
    </g>
    <g clip-path="url(#p470c768e30)">
     <use xlink:href="#C0_0_6b69d8c845" x="43.735537" y="209.074228" style="fill: #8000ff; stroke: #8000ff"/>
    </g>
    <g clip-path="url(#p470c768e30)">
     <use xlink:href="#C0_0_6b69d8c845" x="150.008476" y="239.853571" style="fill: #0ac0e8; stroke: #0ac0e8"/>
    </g>
    <g clip-path="url(#p470c768e30)">
     <use xlink:href="#C0_0_6b69d8c845" x="75.291439" y="285.10568" style="fill: #0ac0e8; stroke: #0ac0e8"/>
    </g>
    <g clip-path="url(#p470c768e30)">
     <use xlink:href="#C0_0_6b69d8c845" x="354.776656" y="105.238177" style="fill: #f4c069; stroke: #f4c069"/>
    </g>
    <g clip-path="url(#p470c768e30)">
     <use xlink:href="#C0_0_6b69d8c845" x="444.85437" y="222.841281" style="fill: #96fca7; stroke: #96fca7"/>
    </g>
    <g clip-path="url(#p470c768e30)">
     <use xlink:href="#C0_0_6b69d8c845" x="373.963803" y="301.063277" style="fill: #2489f5; stroke: #2489f5"/>
    </g>
    <g clip-path="url(#p470c768e30)">
     <use xlink:href="#C0_0_6b69d8c845" x="350.427182" y="373.417037" style="fill: #ff8947; stroke: #ff8947"/>
    </g>
    <g clip-path="url(#p470c768e30)">
     <use xlink:href="#C0_0_6b69d8c845" x="107.28018" y="254.118051" style="fill: #c4e88a; stroke: #c4e88a"/>
    </g>
    <g clip-path="url(#p470c768e30)">
     <use xlink:href="#C0_0_6b69d8c845" x="276.131832" y="278.798667" style="fill: #5247fc; stroke: #5247fc"/>
    </g>
    <g clip-path="url(#p470c768e30)">
     <use xlink:href="#C0_0_6b69d8c845" x="94.160418" y="335.610017" style="fill: #c4e88a; stroke: #c4e88a"/>
    </g>
    <g clip-path="url(#p470c768e30)">
     <use xlink:href="#C0_0_6b69d8c845" x="270.11808" y="386.052843" style="fill: #3ae8d6; stroke: #3ae8d6"/>
    </g>
    <g clip-path="url(#p470c768e30)">
     <use xlink:href="#C0_0_6b69d8c845" x="287.733491" y="127.308442" style="fill: #ff0000; stroke: #ff0000"/>
    </g>
    <g clip-path="url(#p470c768e30)">
     <use xlink:href="#C0_0_6b69d8c845" x="272.976688" y="234.111451" style="fill: #0ac0e8; stroke: #0ac0e8"/>
    </g>
    <g clip-path="url(#p470c768e30)">
     <use xlink:href="#C0_0_6b69d8c845" x="290.478127" y="356.478808" style="fill: #96fca7; stroke: #96fca7"/>
    </g>
    <g clip-path="url(#p470c768e30)">
     <use xlink:href="#C0_0_6b69d8c845" x="111.099607" y="206.491512" style="fill: #ff4724; stroke: #ff4724"/>
    </g>
    <g clip-path="url(#p470c768e30)">
     <use xlink:href="#C0_0_6b69d8c845" x="237.96873" y="324.901085" style="fill: #ff8947; stroke: #ff8947"/>
    </g>
    <g clip-path="url(#p470c768e30)">
     <use xlink:href="#C0_0_6b69d8c845" x="145.189656" y="357.563239" style="fill: #8000ff; stroke: #8000ff"/>
    </g>
    <g clip-path="url(#p470c768e30)">
     <use xlink:href="#C0_0_6b69d8c845" x="396.651931" y="150.906228" style="fill: #ff8947; stroke: #ff8947"/>
    </g>
    <g clip-path="url(#p470c768e30)">
     <use xlink:href="#C0_0_6b69d8c845" x="460.264463" y="280.954176" style="fill: #5247fc; stroke: #5247fc"/>
    </g>
    <g clip-path="url(#p470c768e30)">
     <use xlink:href="#C0_0_6b69d8c845" x="208.823591" y="249.493235" style="fill: #68fcc1; stroke: #68fcc1"/>
    </g>
    <g clip-path="url(#p470c768e30)">
     <use xlink:href="#C0_0_6b69d8c845" x="376.281799" y="335.713241" style="fill: #3ae8d6; stroke: #3ae8d6"/>
    </g>
    <g clip-path="url(#p470c768e30)">
     <use xlink:href="#C0_0_6b69d8c845" x="333.036856" y="256.277676" style="fill: #0ac0e8; stroke: #0ac0e8"/>
    </g>
    <g clip-path="url(#p470c768e30)">
     <use xlink:href="#C0_0_6b69d8c845" x="189.94589" y="343.544258" style="fill: #f4c069; stroke: #f4c069"/>
    </g>
   </g>
   <g id="text_1">
    <!-- Colored Graph - queen7_7.col -->
    <g transform="translate(162.702188 -6) scale(0.12 -0.12)">
     <defs>
      <path id="DejaVuSans-43" d="M 4122 4306 
L 4122 3641 
Q 3803 3938 3442 4084 
Q 3081 4231 2675 4231 
Q 1875 4231 1450 3742 
Q 1025 3253 1025 2328 
Q 1025 1406 1450 917 
Q 1875 428 2675 428 
Q 3081 428 3442 575 
Q 3803 722 4122 1019 
L 4122 359 
Q 3791 134 3420 21 
Q 3050 -91 2638 -91 
Q 1578 -91 968 557 
Q 359 1206 359 2328 
Q 359 3453 968 4101 
Q 1578 4750 2638 4750 
Q 3056 4750 3426 4639 
Q 3797 4528 4122 4306 
z
" transform="scale(0.015625)"/>
      <path id="DejaVuSans-6f" d="M 1959 3097 
Q 1497 3097 1228 2736 
Q 959 2375 959 1747 
Q 959 1119 1226 758 
Q 1494 397 1959 397 
Q 2419 397 2687 759 
Q 2956 1122 2956 1747 
Q 2956 2369 2687 2733 
Q 2419 3097 1959 3097 
z
M 1959 3584 
Q 2709 3584 3137 3096 
Q 3566 2609 3566 1747 
Q 3566 888 3137 398 
Q 2709 -91 1959 -91 
Q 1206 -91 779 398 
Q 353 888 353 1747 
Q 353 2609 779 3096 
Q 1206 3584 1959 3584 
z
" transform="scale(0.015625)"/>
      <path id="DejaVuSans-6c" d="M 603 4863 
L 1178 4863 
L 1178 0 
L 603 0 
L 603 4863 
z
" transform="scale(0.015625)"/>
      <path id="DejaVuSans-72" d="M 2631 2963 
Q 2534 3019 2420 3045 
Q 2306 3072 2169 3072 
Q 1681 3072 1420 2755 
Q 1159 2438 1159 1844 
L 1159 0 
L 581 0 
L 581 3500 
L 1159 3500 
L 1159 2956 
Q 1341 3275 1631 3429 
Q 1922 3584 2338 3584 
Q 2397 3584 2469 3576 
Q 2541 3569 2628 3553 
L 2631 2963 
z
" transform="scale(0.015625)"/>
      <path id="DejaVuSans-65" d="M 3597 1894 
L 3597 1613 
L 953 1613 
Q 991 1019 1311 708 
Q 1631 397 2203 397 
Q 2534 397 2845 478 
Q 3156 559 3463 722 
L 3463 178 
Q 3153 47 2828 -22 
Q 2503 -91 2169 -91 
Q 1331 -91 842 396 
Q 353 884 353 1716 
Q 353 2575 817 3079 
Q 1281 3584 2069 3584 
Q 2775 3584 3186 3129 
Q 3597 2675 3597 1894 
z
M 3022 2063 
Q 3016 2534 2758 2815 
Q 2500 3097 2075 3097 
Q 1594 3097 1305 2825 
Q 1016 2553 972 2059 
L 3022 2063 
z
" transform="scale(0.015625)"/>
      <path id="DejaVuSans-64" d="M 2906 2969 
L 2906 4863 
L 3481 4863 
L 3481 0 
L 2906 0 
L 2906 525 
Q 2725 213 2448 61 
Q 2172 -91 1784 -91 
Q 1150 -91 751 415 
Q 353 922 353 1747 
Q 353 2572 751 3078 
Q 1150 3584 1784 3584 
Q 2172 3584 2448 3432 
Q 2725 3281 2906 2969 
z
M 947 1747 
Q 947 1113 1208 752 
Q 1469 391 1925 391 
Q 2381 391 2643 752 
Q 2906 1113 2906 1747 
Q 2906 2381 2643 2742 
Q 2381 3103 1925 3103 
Q 1469 3103 1208 2742 
Q 947 2381 947 1747 
z
" transform="scale(0.015625)"/>
      <path id="DejaVuSans-20" transform="scale(0.015625)"/>
      <path id="DejaVuSans-47" d="M 3809 666 
L 3809 1919 
L 2778 1919 
L 2778 2438 
L 4434 2438 
L 4434 434 
Q 4069 175 3628 42 
Q 3188 -91 2688 -91 
Q 1594 -91 976 548 
Q 359 1188 359 2328 
Q 359 3472 976 4111 
Q 1594 4750 2688 4750 
Q 3144 4750 3555 4637 
Q 3966 4525 4313 4306 
L 4313 3634 
Q 3963 3931 3569 4081 
Q 3175 4231 2741 4231 
Q 1884 4231 1454 3753 
Q 1025 3275 1025 2328 
Q 1025 1384 1454 906 
Q 1884 428 2741 428 
Q 3075 428 3337 486 
Q 3600 544 3809 666 
z
" transform="scale(0.015625)"/>
      <path id="DejaVuSans-61" d="M 2194 1759 
Q 1497 1759 1228 1600 
Q 959 1441 959 1056 
Q 959 750 1161 570 
Q 1363 391 1709 391 
Q 2188 391 2477 730 
Q 2766 1069 2766 1631 
L 2766 1759 
L 2194 1759 
z
M 3341 1997 
L 3341 0 
L 2766 0 
L 2766 531 
Q 2569 213 2275 61 
Q 1981 -91 1556 -91 
Q 1019 -91 701 211 
Q 384 513 384 1019 
Q 384 1609 779 1909 
Q 1175 2209 1959 2209 
L 2766 2209 
L 2766 2266 
Q 2766 2663 2505 2880 
Q 2244 3097 1772 3097 
Q 1472 3097 1187 3025 
Q 903 2953 641 2809 
L 641 3341 
Q 956 3463 1253 3523 
Q 1550 3584 1831 3584 
Q 2591 3584 2966 3190 
Q 3341 2797 3341 1997 
z
" transform="scale(0.015625)"/>
      <path id="DejaVuSans-70" d="M 1159 525 
L 1159 -1331 
L 581 -1331 
L 581 3500 
L 1159 3500 
L 1159 2969 
Q 1341 3281 1617 3432 
Q 1894 3584 2278 3584 
Q 2916 3584 3314 3078 
Q 3713 2572 3713 1747 
Q 3713 922 3314 415 
Q 2916 -91 2278 -91 
Q 1894 -91 1617 61 
Q 1341 213 1159 525 
z
M 3116 1747 
Q 3116 2381 2855 2742 
Q 2594 3103 2138 3103 
Q 1681 3103 1420 2742 
Q 1159 2381 1159 1747 
Q 1159 1113 1420 752 
Q 1681 391 2138 391 
Q 2594 391 2855 752 
Q 3116 1113 3116 1747 
z
" transform="scale(0.015625)"/>
      <path id="DejaVuSans-68" d="M 3513 2113 
L 3513 0 
L 2938 0 
L 2938 2094 
Q 2938 2591 2744 2837 
Q 2550 3084 2163 3084 
Q 1697 3084 1428 2787 
Q 1159 2491 1159 1978 
L 1159 0 
L 581 0 
L 581 4863 
L 1159 4863 
L 1159 2956 
Q 1366 3272 1645 3428 
Q 1925 3584 2291 3584 
Q 2894 3584 3203 3211 
Q 3513 2838 3513 2113 
z
" transform="scale(0.015625)"/>
      <path id="DejaVuSans-2d" d="M 313 2009 
L 1997 2009 
L 1997 1497 
L 313 1497 
L 313 2009 
z
" transform="scale(0.015625)"/>
      <path id="DejaVuSans-71" d="M 947 1747 
Q 947 1113 1208 752 
Q 1469 391 1925 391 
Q 2381 391 2643 752 
Q 2906 1113 2906 1747 
Q 2906 2381 2643 2742 
Q 2381 3103 1925 3103 
Q 1469 3103 1208 2742 
Q 947 2381 947 1747 
z
M 2906 525 
Q 2725 213 2448 61 
Q 2172 -91 1784 -91 
Q 1150 -91 751 415 
Q 353 922 353 1747 
Q 353 2572 751 3078 
Q 1150 3584 1784 3584 
Q 2172 3584 2448 3432 
Q 2725 3281 2906 2969 
L 2906 3500 
L 3481 3500 
L 3481 -1331 
L 2906 -1331 
L 2906 525 
z
" transform="scale(0.015625)"/>
      <path id="DejaVuSans-75" d="M 544 1381 
L 544 3500 
L 1119 3500 
L 1119 1403 
Q 1119 906 1312 657 
Q 1506 409 1894 409 
Q 2359 409 2629 706 
Q 2900 1003 2900 1516 
L 2900 3500 
L 3475 3500 
L 3475 0 
L 2900 0 
L 2900 538 
Q 2691 219 2414 64 
Q 2138 -91 1772 -91 
Q 1169 -91 856 284 
Q 544 659 544 1381 
z
M 1991 3584 
L 1991 3584 
z
" transform="scale(0.015625)"/>
      <path id="DejaVuSans-6e" d="M 3513 2113 
L 3513 0 
L 2938 0 
L 2938 2094 
Q 2938 2591 2744 2837 
Q 2550 3084 2163 3084 
Q 1697 3084 1428 2787 
Q 1159 2491 1159 1978 
L 1159 0 
L 581 0 
L 581 3500 
L 1159 3500 
L 1159 2956 
Q 1366 3272 1645 3428 
Q 1925 3584 2291 3584 
Q 2894 3584 3203 3211 
Q 3513 2838 3513 2113 
z
" transform="scale(0.015625)"/>
      <path id="DejaVuSans-37" d="M 525 4666 
L 3525 4666 
L 3525 4397 
L 1831 0 
L 1172 0 
L 2766 4134 
L 525 4134 
L 525 4666 
z
" transform="scale(0.015625)"/>
      <path id="DejaVuSans-5f" d="M 3263 -1063 
L 3263 -1509 
L -63 -1509 
L -63 -1063 
L 3263 -1063 
z
" transform="scale(0.015625)"/>
      <path id="DejaVuSans-2e" d="M 684 794 
L 1344 794 
L 1344 0 
L 684 0 
L 684 794 
z
" transform="scale(0.015625)"/>
      <path id="DejaVuSans-63" d="M 3122 3366 
L 3122 2828 
Q 2878 2963 2633 3030 
Q 2388 3097 2138 3097 
Q 1578 3097 1268 2742 
Q 959 2388 959 1747 
Q 959 1106 1268 751 
Q 1578 397 2138 397 
Q 2388 397 2633 464 
Q 2878 531 3122 666 
L 3122 134 
Q 2881 22 2623 -34 
Q 2366 -91 2075 -91 
Q 1284 -91 818 406 
Q 353 903 353 1747 
Q 353 2603 823 3093 
Q 1294 3584 2113 3584 
Q 2378 3584 2631 3529 
Q 2884 3475 3122 3366 
z
" transform="scale(0.015625)"/>
     </defs>
     <use xlink:href="#DejaVuSans-43"/>
     <use xlink:href="#DejaVuSans-6f" x="69.824219"/>
     <use xlink:href="#DejaVuSans-6c" x="131.005859"/>
     <use xlink:href="#DejaVuSans-6f" x="158.789062"/>
     <use xlink:href="#DejaVuSans-72" x="219.970703"/>
     <use xlink:href="#DejaVuSans-65" x="258.833984"/>
     <use xlink:href="#DejaVuSans-64" x="320.357422"/>
     <use xlink:href="#DejaVuSans-20" x="383.833984"/>
     <use xlink:href="#DejaVuSans-47" x="415.621094"/>
     <use xlink:href="#DejaVuSans-72" x="493.111328"/>
     <use xlink:href="#DejaVuSans-61" x="534.224609"/>
     <use xlink:href="#DejaVuSans-70" x="595.503906"/>
     <use xlink:href="#DejaVuSans-68" x="658.980469"/>
     <use xlink:href="#DejaVuSans-20" x="722.359375"/>
     <use xlink:href="#DejaVuSans-2d" x="754.146484"/>
     <use xlink:href="#DejaVuSans-20" x="790.230469"/>
     <use xlink:href="#DejaVuSans-71" x="822.017578"/>
     <use xlink:href="#DejaVuSans-75" x="885.494141"/>
     <use xlink:href="#DejaVuSans-65" x="948.873047"/>
     <use xlink:href="#DejaVuSans-65" x="1010.396484"/>
     <use xlink:href="#DejaVuSans-6e" x="1071.919922"/>
     <use xlink:href="#DejaVuSans-37" x="1135.298828"/>
     <use xlink:href="#DejaVuSans-5f" x="1198.921875"/>
     <use xlink:href="#DejaVuSans-37" x="1248.921875"/>
     <use xlink:href="#DejaVuSans-2e" x="1312.544922"/>
     <use xlink:href="#DejaVuSans-63" x="1344.332031"/>
     <use xlink:href="#DejaVuSans-6f" x="1399.3125"/>
     <use xlink:href="#DejaVuSans-6c" x="1460.494141"/>
    </g>
   </g>
   <g id="legend_1">
    <g id="patch_2">
     <path d="M 536.2 198.815625 
L 610.2125 198.815625 
Q 612.2125 198.815625 612.2125 196.815625 
L 612.2125 7 
Q 612.2125 5 610.2125 5 
L 536.2 5 
Q 534.2 5 534.2 7 
L 534.2 196.815625 
Q 534.2 198.815625 536.2 198.815625 
z
" style="fill: #ffffff; opacity: 0.8; stroke: #cccccc; stroke-linejoin: miter"/>
    </g>
    <g id="text_2">
     <!-- Clase GNN -->
     <g transform="translate(546.635938 16.598437) scale(0.1 -0.1)">
      <defs>
       <path id="DejaVuSans-73" d="M 2834 3397 
L 2834 2853 
Q 2591 2978 2328 3040 
Q 2066 3103 1784 3103 
Q 1356 3103 1142 2972 
Q 928 2841 928 2578 
Q 928 2378 1081 2264 
Q 1234 2150 1697 2047 
L 1894 2003 
Q 2506 1872 2764 1633 
Q 3022 1394 3022 966 
Q 3022 478 2636 193 
Q 2250 -91 1575 -91 
Q 1294 -91 989 -36 
Q 684 19 347 128 
L 347 722 
Q 666 556 975 473 
Q 1284 391 1588 391 
Q 1994 391 2212 530 
Q 2431 669 2431 922 
Q 2431 1156 2273 1281 
Q 2116 1406 1581 1522 
L 1381 1569 
Q 847 1681 609 1914 
Q 372 2147 372 2553 
Q 372 3047 722 3315 
Q 1072 3584 1716 3584 
Q 2034 3584 2315 3537 
Q 2597 3491 2834 3397 
z
" transform="scale(0.015625)"/>
       <path id="DejaVuSans-4e" d="M 628 4666 
L 1478 4666 
L 3547 763 
L 3547 4666 
L 4159 4666 
L 4159 0 
L 3309 0 
L 1241 3903 
L 1241 0 
L 628 0 
L 628 4666 
z
" transform="scale(0.015625)"/>
      </defs>
      <use xlink:href="#DejaVuSans-43"/>
      <use xlink:href="#DejaVuSans-6c" x="69.824219"/>
      <use xlink:href="#DejaVuSans-61" x="97.607422"/>
      <use xlink:href="#DejaVuSans-73" x="158.886719"/>
      <use xlink:href="#DejaVuSans-65" x="210.986328"/>
      <use xlink:href="#DejaVuSans-20" x="272.509766"/>
      <use xlink:href="#DejaVuSans-47" x="304.296875"/>
      <use xlink:href="#DejaVuSans-4e" x="381.787109"/>
      <use xlink:href="#DejaVuSans-4e" x="456.591797"/>
     </g>
    </g>
    <g id="patch_3">
     <path d="M 538.2 31.276562 
L 558.2 31.276562 
L 558.2 24.276562 
L 538.2 24.276562 
z
" style="fill: #8000ff; stroke: #8000ff; stroke-linejoin: miter"/>
    </g>
    <g id="text_3">
     <!-- Color 0 -->
     <g transform="translate(566.2 31.276562) scale(0.1 -0.1)">
      <defs>
       <path id="DejaVuSans-30" d="M 2034 4250 
Q 1547 4250 1301 3770 
Q 1056 3291 1056 2328 
Q 1056 1369 1301 889 
Q 1547 409 2034 409 
Q 2525 409 2770 889 
Q 3016 1369 3016 2328 
Q 3016 3291 2770 3770 
Q 2525 4250 2034 4250 
z
M 2034 4750 
Q 2819 4750 3233 4129 
Q 3647 3509 3647 2328 
Q 3647 1150 3233 529 
Q 2819 -91 2034 -91 
Q 1250 -91 836 529 
Q 422 1150 422 2328 
Q 422 3509 836 4129 
Q 1250 4750 2034 4750 
z
" transform="scale(0.015625)"/>
      </defs>
      <use xlink:href="#DejaVuSans-43"/>
      <use xlink:href="#DejaVuSans-6f" x="69.824219"/>
      <use xlink:href="#DejaVuSans-6c" x="131.005859"/>
      <use xlink:href="#DejaVuSans-6f" x="158.789062"/>
      <use xlink:href="#DejaVuSans-72" x="219.970703"/>
      <use xlink:href="#DejaVuSans-20" x="261.083984"/>
      <use xlink:href="#DejaVuSans-30" x="292.871094"/>
     </g>
    </g>
    <g id="patch_4">
     <path d="M 538.2 45.954687 
L 558.2 45.954687 
L 558.2 38.954687 
L 538.2 38.954687 
z
" style="fill: #5247fc; stroke: #5247fc; stroke-linejoin: miter"/>
    </g>
    <g id="text_4">
     <!-- Color 1 -->
     <g transform="translate(566.2 45.954687) scale(0.1 -0.1)">
      <defs>
       <path id="DejaVuSans-31" d="M 794 531 
L 1825 531 
L 1825 4091 
L 703 3866 
L 703 4441 
L 1819 4666 
L 2450 4666 
L 2450 531 
L 3481 531 
L 3481 0 
L 794 0 
L 794 531 
z
" transform="scale(0.015625)"/>
      </defs>
      <use xlink:href="#DejaVuSans-43"/>
      <use xlink:href="#DejaVuSans-6f" x="69.824219"/>
      <use xlink:href="#DejaVuSans-6c" x="131.005859"/>
      <use xlink:href="#DejaVuSans-6f" x="158.789062"/>
      <use xlink:href="#DejaVuSans-72" x="219.970703"/>
      <use xlink:href="#DejaVuSans-20" x="261.083984"/>
      <use xlink:href="#DejaVuSans-31" x="292.871094"/>
     </g>
    </g>
    <g id="patch_5">
     <path d="M 538.2 60.632812 
L 558.2 60.632812 
L 558.2 53.632812 
L 538.2 53.632812 
z
" style="fill: #2489f5; stroke: #2489f5; stroke-linejoin: miter"/>
    </g>
    <g id="text_5">
     <!-- Color 2 -->
     <g transform="translate(566.2 60.632812) scale(0.1 -0.1)">
      <defs>
       <path id="DejaVuSans-32" d="M 1228 531 
L 3431 531 
L 3431 0 
L 469 0 
L 469 531 
Q 828 903 1448 1529 
Q 2069 2156 2228 2338 
Q 2531 2678 2651 2914 
Q 2772 3150 2772 3378 
Q 2772 3750 2511 3984 
Q 2250 4219 1831 4219 
Q 1534 4219 1204 4116 
Q 875 4013 500 3803 
L 500 4441 
Q 881 4594 1212 4672 
Q 1544 4750 1819 4750 
Q 2544 4750 2975 4387 
Q 3406 4025 3406 3419 
Q 3406 3131 3298 2873 
Q 3191 2616 2906 2266 
Q 2828 2175 2409 1742 
Q 1991 1309 1228 531 
z
" transform="scale(0.015625)"/>
      </defs>
      <use xlink:href="#DejaVuSans-43"/>
      <use xlink:href="#DejaVuSans-6f" x="69.824219"/>
      <use xlink:href="#DejaVuSans-6c" x="131.005859"/>
      <use xlink:href="#DejaVuSans-6f" x="158.789062"/>
      <use xlink:href="#DejaVuSans-72" x="219.970703"/>
      <use xlink:href="#DejaVuSans-20" x="261.083984"/>
      <use xlink:href="#DejaVuSans-32" x="292.871094"/>
     </g>
    </g>
    <g id="patch_6">
     <path d="M 538.2 75.310937 
L 558.2 75.310937 
L 558.2 68.310937 
L 538.2 68.310937 
z
" style="fill: #0ac0e8; stroke: #0ac0e8; stroke-linejoin: miter"/>
    </g>
    <g id="text_6">
     <!-- Color 3 -->
     <g transform="translate(566.2 75.310937) scale(0.1 -0.1)">
      <defs>
       <path id="DejaVuSans-33" d="M 2597 2516 
Q 3050 2419 3304 2112 
Q 3559 1806 3559 1356 
Q 3559 666 3084 287 
Q 2609 -91 1734 -91 
Q 1441 -91 1130 -33 
Q 819 25 488 141 
L 488 750 
Q 750 597 1062 519 
Q 1375 441 1716 441 
Q 2309 441 2620 675 
Q 2931 909 2931 1356 
Q 2931 1769 2642 2001 
Q 2353 2234 1838 2234 
L 1294 2234 
L 1294 2753 
L 1863 2753 
Q 2328 2753 2575 2939 
Q 2822 3125 2822 3475 
Q 2822 3834 2567 4026 
Q 2313 4219 1838 4219 
Q 1578 4219 1281 4162 
Q 984 4106 628 3988 
L 628 4550 
Q 988 4650 1302 4700 
Q 1616 4750 1894 4750 
Q 2613 4750 3031 4423 
Q 3450 4097 3450 3541 
Q 3450 3153 3228 2886 
Q 3006 2619 2597 2516 
z
" transform="scale(0.015625)"/>
      </defs>
      <use xlink:href="#DejaVuSans-43"/>
      <use xlink:href="#DejaVuSans-6f" x="69.824219"/>
      <use xlink:href="#DejaVuSans-6c" x="131.005859"/>
      <use xlink:href="#DejaVuSans-6f" x="158.789062"/>
      <use xlink:href="#DejaVuSans-72" x="219.970703"/>
      <use xlink:href="#DejaVuSans-20" x="261.083984"/>
      <use xlink:href="#DejaVuSans-33" x="292.871094"/>
     </g>
    </g>
    <g id="patch_7">
     <path d="M 538.2 89.989062 
L 558.2 89.989062 
L 558.2 82.989062 
L 538.2 82.989062 
z
" style="fill: #3ae8d6; stroke: #3ae8d6; stroke-linejoin: miter"/>
    </g>
    <g id="text_7">
     <!-- Color 4 -->
     <g transform="translate(566.2 89.989062) scale(0.1 -0.1)">
      <defs>
       <path id="DejaVuSans-34" d="M 2419 4116 
L 825 1625 
L 2419 1625 
L 2419 4116 
z
M 2253 4666 
L 3047 4666 
L 3047 1625 
L 3713 1625 
L 3713 1100 
L 3047 1100 
L 3047 0 
L 2419 0 
L 2419 1100 
L 313 1100 
L 313 1709 
L 2253 4666 
z
" transform="scale(0.015625)"/>
      </defs>
      <use xlink:href="#DejaVuSans-43"/>
      <use xlink:href="#DejaVuSans-6f" x="69.824219"/>
      <use xlink:href="#DejaVuSans-6c" x="131.005859"/>
      <use xlink:href="#DejaVuSans-6f" x="158.789062"/>
      <use xlink:href="#DejaVuSans-72" x="219.970703"/>
      <use xlink:href="#DejaVuSans-20" x="261.083984"/>
      <use xlink:href="#DejaVuSans-34" x="292.871094"/>
     </g>
    </g>
    <g id="patch_8">
     <path d="M 538.2 104.667187 
L 558.2 104.667187 
L 558.2 97.667187 
L 538.2 97.667187 
z
" style="fill: #68fcc1; stroke: #68fcc1; stroke-linejoin: miter"/>
    </g>
    <g id="text_8">
     <!-- Color 5 -->
     <g transform="translate(566.2 104.667187) scale(0.1 -0.1)">
      <defs>
       <path id="DejaVuSans-35" d="M 691 4666 
L 3169 4666 
L 3169 4134 
L 1269 4134 
L 1269 2991 
Q 1406 3038 1543 3061 
Q 1681 3084 1819 3084 
Q 2600 3084 3056 2656 
Q 3513 2228 3513 1497 
Q 3513 744 3044 326 
Q 2575 -91 1722 -91 
Q 1428 -91 1123 -41 
Q 819 9 494 109 
L 494 744 
Q 775 591 1075 516 
Q 1375 441 1709 441 
Q 2250 441 2565 725 
Q 2881 1009 2881 1497 
Q 2881 1984 2565 2268 
Q 2250 2553 1709 2553 
Q 1456 2553 1204 2497 
Q 953 2441 691 2322 
L 691 4666 
z
" transform="scale(0.015625)"/>
      </defs>
      <use xlink:href="#DejaVuSans-43"/>
      <use xlink:href="#DejaVuSans-6f" x="69.824219"/>
      <use xlink:href="#DejaVuSans-6c" x="131.005859"/>
      <use xlink:href="#DejaVuSans-6f" x="158.789062"/>
      <use xlink:href="#DejaVuSans-72" x="219.970703"/>
      <use xlink:href="#DejaVuSans-20" x="261.083984"/>
      <use xlink:href="#DejaVuSans-35" x="292.871094"/>
     </g>
    </g>
    <g id="patch_9">
     <path d="M 538.2 119.345312 
L 558.2 119.345312 
L 558.2 112.345312 
L 538.2 112.345312 
z
" style="fill: #96fca7; stroke: #96fca7; stroke-linejoin: miter"/>
    </g>
    <g id="text_9">
     <!-- Color 6 -->
     <g transform="translate(566.2 119.345312) scale(0.1 -0.1)">
      <defs>
       <path id="DejaVuSans-36" d="M 2113 2584 
Q 1688 2584 1439 2293 
Q 1191 2003 1191 1497 
Q 1191 994 1439 701 
Q 1688 409 2113 409 
Q 2538 409 2786 701 
Q 3034 994 3034 1497 
Q 3034 2003 2786 2293 
Q 2538 2584 2113 2584 
z
M 3366 4563 
L 3366 3988 
Q 3128 4100 2886 4159 
Q 2644 4219 2406 4219 
Q 1781 4219 1451 3797 
Q 1122 3375 1075 2522 
Q 1259 2794 1537 2939 
Q 1816 3084 2150 3084 
Q 2853 3084 3261 2657 
Q 3669 2231 3669 1497 
Q 3669 778 3244 343 
Q 2819 -91 2113 -91 
Q 1303 -91 875 529 
Q 447 1150 447 2328 
Q 447 3434 972 4092 
Q 1497 4750 2381 4750 
Q 2619 4750 2861 4703 
Q 3103 4656 3366 4563 
z
" transform="scale(0.015625)"/>
      </defs>
      <use xlink:href="#DejaVuSans-43"/>
      <use xlink:href="#DejaVuSans-6f" x="69.824219"/>
      <use xlink:href="#DejaVuSans-6c" x="131.005859"/>
      <use xlink:href="#DejaVuSans-6f" x="158.789062"/>
      <use xlink:href="#DejaVuSans-72" x="219.970703"/>
      <use xlink:href="#DejaVuSans-20" x="261.083984"/>
      <use xlink:href="#DejaVuSans-36" x="292.871094"/>
     </g>
    </g>
    <g id="patch_10">
     <path d="M 538.2 134.023437 
L 558.2 134.023437 
L 558.2 127.023437 
L 538.2 127.023437 
z
" style="fill: #c4e88a; stroke: #c4e88a; stroke-linejoin: miter"/>
    </g>
    <g id="text_10">
     <!-- Color 7 -->
     <g transform="translate(566.2 134.023437) scale(0.1 -0.1)">
      <use xlink:href="#DejaVuSans-43"/>
      <use xlink:href="#DejaVuSans-6f" x="69.824219"/>
      <use xlink:href="#DejaVuSans-6c" x="131.005859"/>
      <use xlink:href="#DejaVuSans-6f" x="158.789062"/>
      <use xlink:href="#DejaVuSans-72" x="219.970703"/>
      <use xlink:href="#DejaVuSans-20" x="261.083984"/>
      <use xlink:href="#DejaVuSans-37" x="292.871094"/>
     </g>
    </g>
    <g id="patch_11">
     <path d="M 538.2 148.701562 
L 558.2 148.701562 
L 558.2 141.701562 
L 538.2 141.701562 
z
" style="fill: #f4c069; stroke: #f4c069; stroke-linejoin: miter"/>
    </g>
    <g id="text_11">
     <!-- Color 8 -->
     <g transform="translate(566.2 148.701562) scale(0.1 -0.1)">
      <defs>
       <path id="DejaVuSans-38" d="M 2034 2216 
Q 1584 2216 1326 1975 
Q 1069 1734 1069 1313 
Q 1069 891 1326 650 
Q 1584 409 2034 409 
Q 2484 409 2743 651 
Q 3003 894 3003 1313 
Q 3003 1734 2745 1975 
Q 2488 2216 2034 2216 
z
M 1403 2484 
Q 997 2584 770 2862 
Q 544 3141 544 3541 
Q 544 4100 942 4425 
Q 1341 4750 2034 4750 
Q 2731 4750 3128 4425 
Q 3525 4100 3525 3541 
Q 3525 3141 3298 2862 
Q 3072 2584 2669 2484 
Q 3125 2378 3379 2068 
Q 3634 1759 3634 1313 
Q 3634 634 3220 271 
Q 2806 -91 2034 -91 
Q 1263 -91 848 271 
Q 434 634 434 1313 
Q 434 1759 690 2068 
Q 947 2378 1403 2484 
z
M 1172 3481 
Q 1172 3119 1398 2916 
Q 1625 2713 2034 2713 
Q 2441 2713 2670 2916 
Q 2900 3119 2900 3481 
Q 2900 3844 2670 4047 
Q 2441 4250 2034 4250 
Q 1625 4250 1398 4047 
Q 1172 3844 1172 3481 
z
" transform="scale(0.015625)"/>
      </defs>
      <use xlink:href="#DejaVuSans-43"/>
      <use xlink:href="#DejaVuSans-6f" x="69.824219"/>
      <use xlink:href="#DejaVuSans-6c" x="131.005859"/>
      <use xlink:href="#DejaVuSans-6f" x="158.789062"/>
      <use xlink:href="#DejaVuSans-72" x="219.970703"/>
      <use xlink:href="#DejaVuSans-20" x="261.083984"/>
      <use xlink:href="#DejaVuSans-38" x="292.871094"/>
     </g>
    </g>
    <g id="patch_12">
     <path d="M 538.2 163.379687 
L 558.2 163.379687 
L 558.2 156.379687 
L 538.2 156.379687 
z
" style="fill: #ff8947; stroke: #ff8947; stroke-linejoin: miter"/>
    </g>
    <g id="text_12">
     <!-- Color 9 -->
     <g transform="translate(566.2 163.379687) scale(0.1 -0.1)">
      <defs>
       <path id="DejaVuSans-39" d="M 703 97 
L 703 672 
Q 941 559 1184 500 
Q 1428 441 1663 441 
Q 2288 441 2617 861 
Q 2947 1281 2994 2138 
Q 2813 1869 2534 1725 
Q 2256 1581 1919 1581 
Q 1219 1581 811 2004 
Q 403 2428 403 3163 
Q 403 3881 828 4315 
Q 1253 4750 1959 4750 
Q 2769 4750 3195 4129 
Q 3622 3509 3622 2328 
Q 3622 1225 3098 567 
Q 2575 -91 1691 -91 
Q 1453 -91 1209 -44 
Q 966 3 703 97 
z
M 1959 2075 
Q 2384 2075 2632 2365 
Q 2881 2656 2881 3163 
Q 2881 3666 2632 3958 
Q 2384 4250 1959 4250 
Q 1534 4250 1286 3958 
Q 1038 3666 1038 3163 
Q 1038 2656 1286 2365 
Q 1534 2075 1959 2075 
z
" transform="scale(0.015625)"/>
      </defs>
      <use xlink:href="#DejaVuSans-43"/>
      <use xlink:href="#DejaVuSans-6f" x="69.824219"/>
      <use xlink:href="#DejaVuSans-6c" x="131.005859"/>
      <use xlink:href="#DejaVuSans-6f" x="158.789062"/>
      <use xlink:href="#DejaVuSans-72" x="219.970703"/>
      <use xlink:href="#DejaVuSans-20" x="261.083984"/>
      <use xlink:href="#DejaVuSans-39" x="292.871094"/>
     </g>
    </g>
    <g id="patch_13">
     <path d="M 538.2 178.057812 
L 558.2 178.057812 
L 558.2 171.057812 
L 538.2 171.057812 
z
" style="fill: #ff4724; stroke: #ff4724; stroke-linejoin: miter"/>
    </g>
    <g id="text_13">
     <!-- Color 10 -->
     <g transform="translate(566.2 178.057812) scale(0.1 -0.1)">
      <use xlink:href="#DejaVuSans-43"/>
      <use xlink:href="#DejaVuSans-6f" x="69.824219"/>
      <use xlink:href="#DejaVuSans-6c" x="131.005859"/>
      <use xlink:href="#DejaVuSans-6f" x="158.789062"/>
      <use xlink:href="#DejaVuSans-72" x="219.970703"/>
      <use xlink:href="#DejaVuSans-20" x="261.083984"/>
      <use xlink:href="#DejaVuSans-31" x="292.871094"/>
      <use xlink:href="#DejaVuSans-30" x="356.494141"/>
     </g>
    </g>
    <g id="patch_14">
     <path d="M 538.2 192.735937 
L 558.2 192.735937 
L 558.2 185.735937 
L 538.2 185.735937 
z
" style="fill: #ff0000; stroke: #ff0000; stroke-linejoin: miter"/>
    </g>
    <g id="text_14">
     <!-- Color 11 -->
     <g transform="translate(566.2 192.735937) scale(0.1 -0.1)">
      <use xlink:href="#DejaVuSans-43"/>
      <use xlink:href="#DejaVuSans-6f" x="69.824219"/>
      <use xlink:href="#DejaVuSans-6c" x="131.005859"/>
      <use xlink:href="#DejaVuSans-6f" x="158.789062"/>
      <use xlink:href="#DejaVuSans-72" x="219.970703"/>
      <use xlink:href="#DejaVuSans-20" x="261.083984"/>
      <use xlink:href="#DejaVuSans-31" x="292.871094"/>
      <use xlink:href="#DejaVuSans-31" x="356.494141"/>
     </g>
    </g>
   </g>
  </g>
 </g>
 <defs>
  <clipPath id="p470c768e30">
   <rect x="0" y="0" width="504" height="432"/>
  </clipPath>
 </defs>
</svg>
